<?xml version="1.0" encoding="UTF-8" standalone="no"?>
<svg width="16px" height="16px" viewBox="0 0 16 16" version="1.1" xmlns="http://www.w3.org/2000/svg" xmlns:xlink="http://www.w3.org/1999/xlink">
    <!-- Generator: Sketch 40.2 (33826) - http://www.bohemiancoding.com/sketch -->
    <title>Faviсon</title>
    <desc>Created with Sketch.</desc>
    <defs></defs>
    <g id="Symbols" stroke="none" stroke-width="1" fill="none" fill-rule="evenodd">
        <g id="Faviсon" fill="#0163B4">
            <g id="Group" transform="translate(1.000000, 1.000000)">
                <path d="M9.28180171,6.12181881 L5.65351938,6.12181881 C5.2962313,6.12181881 5.00667452,5.84664719 5.00667452,5.50710915 C5.00667452,5.16751903 5.2962313,4.8923474 5.65351938,4.8923474 L8.93563779,4.8923474 L9.49266743,4.09849496 C9.69076504,3.81608471 10.0922757,3.73974073 10.3896687,3.92799687 C10.6869521,4.11625301 10.767342,4.49807708 10.56908,4.78043524 L9.82003537,5.84805325 C9.69997123,6.01902003 9.49809251,6.12181881 9.28180171,6.12181881" id="Fill-20"></path>
                <path d="M3.7695262,9.39478327 C3.64622893,9.39478327 3.5216713,9.3614023 3.41136134,9.29151579 C3.11407794,9.10325966 3.03368812,8.72143559 3.23195012,8.43907742 L3.98099471,7.37119903 C4.10089445,7.20023225 4.30293757,7.09748554 4.51922837,7.09748554 L8.1475107,7.09748554 C8.50479878,7.09748554 8.79435556,7.37265717 8.79435556,7.71219521 C8.79435556,8.05173325 8.50479878,8.32690488 8.1475107,8.32690488 L4.8653923,8.32690488 L4.30836265,9.1210177 C4.18380501,9.29875441 3.97863836,9.39478327 3.7695262,9.39478327" id="Fill-22"></path>
                <path d="M6.90052052,1.28152176 C3.80893749,1.28152176 1.29372807,3.67177584 1.29372807,6.60976935 C1.29372807,9.54776286 3.80893749,11.9380169 6.90052052,11.9380169 C9.99210356,11.9380169 12.507313,9.54776286 12.507313,6.60976935 C12.507313,3.67177584 9.99210356,1.28152176 6.90052052,1.28152176 M6.90052052,13.1674884 C3.09562171,13.1674884 -1.64396351e-05,10.2256412 -1.64396351e-05,6.60976935 C-1.64396351e-05,2.99389751 3.09562171,0.0520503486 6.90052052,0.0520503486 C10.7054193,0.0520503486 13.8010575,2.99389751 13.8010575,6.60976935 C13.8010575,10.2256412 10.7054193,13.1674884 6.90052052,13.1674884" id="Fill-24"></path>
            </g>
        </g>
    </g>
</svg>