<?xml version="1.0" encoding="UTF-8" standalone="no"?>
<svg width="16px" height="16px" viewBox="0 0 16 16" version="1.1" xmlns="http://www.w3.org/2000/svg" xmlns:xlink="http://www.w3.org/1999/xlink">
    <!-- Generator: Sketch 40.2 (33826) - http://www.bohemiancoding.com/sketch -->
    <title>Faviсon_3</title>
    <desc>Created with Sketch.</desc>
    <defs></defs>
    <g id="Symbols" stroke="none" stroke-width="1" fill="none" fill-rule="evenodd">
        <g id="Faviсon_3">
            <path d="M8,14 C4.69164979,14 2,11.3083502 2,8 C2,4.69164979 4.69164979,2 8,2 C11.3083502,2 14,4.69164979 14,8 C14,11.3083502 11.3083502,14 8,14" id="Fill-24" fill="#0163B4"></path>
            <g id="Group" transform="translate(4.000000, 4.000000)" fill="#FFFFFF">
                <path d="M6.28180171,3.56779293 L2.65351938,3.56779293 C2.2962313,3.56779293 2.00667452,3.25331107 2.00667452,2.86526759 C2.00667452,2.4771646 2.2962313,2.16268274 2.65351938,2.16268274 L5.93563779,2.16268274 L6.49266743,1.25542281 C6.69076504,0.932668245 7.09227573,0.845417979 7.38966874,1.06056785 C7.68695215,1.27571772 7.76734196,1.71208809 7.56907996,2.03478314 L6.82003537,3.254918 C6.69997123,3.4503086 6.49809251,3.56779293 6.28180171,3.56779293" id="Fill-20"></path>
                <path d="M0.7695262,7.30832374 C0.646228934,7.30832374 0.521671297,7.27017406 0.411361343,7.19030376 C0.114077936,6.97515389 0.033688119,6.53878353 0.231950122,6.21608848 L0.98099471,4.99565604 C1.10089445,4.80026543 1.30293757,4.68284062 1.51922837,4.68284062 L5.1475107,4.68284062 C5.50479878,4.68284062 5.79435556,4.99732248 5.79435556,5.38536596 C5.79435556,5.77340943 5.50479878,6.08789129 5.1475107,6.08789129 L1.8653923,6.08789129 L1.30836265,6.9954488 C1.18380501,7.19857647 0.978638362,7.30832374 0.7695262,7.30832374" id="Fill-22"></path>
            </g>
        </g>
    </g>
</svg>