<?xml version="1.0" encoding="UTF-8" standalone="no"?>
<svg width="16px" height="16px" viewBox="0 0 16 16" version="1.1" xmlns="http://www.w3.org/2000/svg" xmlns:xlink="http://www.w3.org/1999/xlink">
    <!-- Generator: Sketch 40.2 (33826) - http://www.bohemiancoding.com/sketch -->
    <title>Faviсon 2</title>
    <desc>Created with Sketch.</desc>
    <defs></defs>
    <g id="Symbols" stroke="none" stroke-width="1" fill="none" fill-rule="evenodd">
        <g id="Faviсon-2">
            <g id="Group">
                <rect id="Rectangle" fill="#0163B4" x="0" y="0" width="16" height="16"></rect>
                <path d="M9.95583004,7.24727327 L6.84587375,7.24727327 C6.53962683,7.24727327 6.2914353,7.01141187 6.2914353,6.72037927 C6.2914353,6.42930202 6.53962683,6.19344063 6.84587375,6.19344063 L9.6591181,6.19344063 L10.1365721,5.51299568 C10.30637,5.27092976 10.6505221,5.20549206 10.9054303,5.36685446 C11.1602447,5.52821686 11.2291503,5.85549464 11.0592114,6.09751592 L10.4171732,7.01261707 C10.3142611,7.15916002 10.1412222,7.24727327 9.95583004,7.24727327" id="Fill-20" fill="#FFFFFF"></path>
                <path d="M5.23102246,10.0526714 C5.12533909,10.0526714 5.0185754,10.0240591 4.92402401,9.96415639 C4.66920966,9.80279399 4.6003041,9.47551622 4.77024296,9.23349493 L5.41228118,8.3181706 C5.51505239,8.17162765 5.6882322,8.08355904 5.87362432,8.08355904 L8.9835806,8.08355904 C9.28982753,8.08355904 9.53801905,8.31942043 9.53801905,8.61045304 C9.53801905,8.90148565 9.28982753,9.13734704 8.9835806,9.13734704 L6.17033625,9.13734704 L5.69288227,9.81801517 C5.58611858,9.97036092 5.41026145,10.0526714 5.23102246,10.0526714" id="Fill-22" fill="#FFFFFF"></path>
                <path d="M7.91473187,3.09844723 C5.26480356,3.09844723 3.10890977,5.14723643 3.10890977,7.66551659 C3.10890977,10.1837967 5.26480356,12.2325859 7.91473187,12.2325859 C10.5646602,12.2325859 12.720554,10.1837967 12.720554,7.66551659 C12.720554,5.14723643 10.5646602,3.09844723 7.91473187,3.09844723 M7.91473187,13.2864186 C4.65339003,13.2864186 1.99998591,10.7648353 1.99998591,7.66551659 C1.99998591,4.56619787 4.65339003,2.04461458 7.91473187,2.04461458 C11.1760737,2.04461458 13.8294778,4.56619787 13.8294778,7.66551659 C13.8294778,10.7648353 11.1760737,13.2864186 7.91473187,13.2864186" id="Fill-24" fill="#FFFFFF"></path>
            </g>
        </g>
    </g>
</svg>