<?xml version="1.0" encoding="utf-8"?>
<!-- Generator: Adobe Illustrator 20.0.0, SVG Export Plug-In . SVG Version: 6.00 Build 0)  -->
<svg version="1.1" id="Слой_1" xmlns="http://www.w3.org/2000/svg" xmlns:xlink="http://www.w3.org/1999/xlink" x="0px" y="0px"
	 viewBox="0 0 73 73" style="enable-background:new 0 0 73 73;" xml:space="preserve">
<style type="text/css">
	.st0{fill:#1F5B8C;}
	.st1{fill:url(#path-2_2_);}
	.st2{fill:url(#path-3_2_);}
	.st3{fill:url(#path-4_2_);}
	.st4{fill:url(#path-5_2_);}
	.st5{fill:url(#SVGID_1_);}
</style>
<title>Backends_discovery</title>
<desc>Created with Sketch.</desc>
<g id="Main-Page">
	<g id="Mobile-Portrait" transform="translate(-124.000000, -1427.000000)">
		<g id="Backends_discovery" transform="translate(125.000000, 1429.000000)">
			<g id="Fill-1">
				<g>
					<path id="path-2" class="st0" d="M42.8,23.2c-0.9-0.2-1.9,0.3-2.2,1.3c-0.2,0.9,0.3,1.9,1.3,2.2c2,0.5,3.6,1.9,4.5,3.8
						c0.9,1.9,0.9,4,0.1,5.9c-0.2,0.4-0.2,0.9,0,1.4c0.2,0.4,0.5,0.8,0.9,1c0.2,0.1,0.5,0.1,0.7,0.1c0.2,0,0.4,0,0.6-0.1
						c0.5-0.2,0.8-0.5,1-0.9c1.3-2.8,1.2-6.1-0.1-8.9C48.3,26,45.8,24,42.8,23.2"/>
				</g>
				<g>
					
						<linearGradient id="path-2_2_" gradientUnits="userSpaceOnUse" x1="-346.5625" y1="315.5948" x2="-346.5625" y2="314.6531" gradientTransform="matrix(10.1219 0 0 -15.6975 3553.4719 4978.0669)">
						<stop  offset="0" style="stop-color:#1D96DD"/>
						<stop  offset="1" style="stop-color:#0C6DBF"/>
					</linearGradient>
					<path id="path-2_1_" class="st1" d="M42.8,23.2c-0.9-0.2-1.9,0.3-2.2,1.3c-0.2,0.9,0.3,1.9,1.3,2.2c2,0.5,3.6,1.9,4.5,3.8
						c0.9,1.9,0.9,4,0.1,5.9c-0.2,0.4-0.2,0.9,0,1.4c0.2,0.4,0.5,0.8,0.9,1c0.2,0.1,0.5,0.1,0.7,0.1c0.2,0,0.4,0,0.6-0.1
						c0.5-0.2,0.8-0.5,1-0.9c1.3-2.8,1.2-6.1-0.1-8.9C48.3,26,45.8,24,42.8,23.2"/>
				</g>
			</g>
			<g id="Fill-3">
				<g>
					<path id="path-3" class="st0" d="M23.4,42l1.8,3.7l2,4.4h-7.6l2-4.4L23.4,42z M26.3,40c-2.4-5-1.8-10.8,1.5-15l11.1,23.2
						C33.5,48.2,28.7,45,26.3,40L26.3,40z M36.1,34.2l2.8-0.2L37,36L36.1,34.2z M44.9,31.1c-0.3-0.6-0.9-1-1.6-1l-0.1,0l-8.8,0.6
						l-4.6-9.6c-0.2-0.4-0.6-0.7-1-0.9c-0.5-0.2-1-0.1-1.4,0c-0.2,0.1-0.3,0.2-0.4,0.3c-4.4,3.9-6.5,10-5.6,16c0,0.2,0.1,0.6,0.2,1
						l-3.6,7.2l-3.3,6.7c-0.3,0.5-0.3,1.2-0.1,1.7c0.3,0.6,0.9,0.9,1.5,0.9h0h14.3h0c0.6,0,1.2-0.4,1.5-0.9c0.3-0.5,0.3-1.2-0.1-1.7
						L31.4,50c2.4,1.2,5.1,1.9,7.8,1.9c0.9,0,1.8-0.1,2.8-0.2c0.2,0,0.3-0.1,0.5-0.2c0.4-0.2,0.7-0.6,0.9-1c0.2-0.5,0.1-0.9,0-1.3
						l-4.6-9.6l6-6.4l0.1-0.1C45.1,32.4,45.2,31.7,44.9,31.1L44.9,31.1z"/>
				</g>
				<g>
					
						<linearGradient id="path-3_2_" gradientUnits="userSpaceOnUse" x1="-371.9294" y1="324.5126" x2="-371.9294" y2="323.5709" gradientTransform="matrix(30.5473 0 0 -33.8562 11391.2744 11008.8379)">
						<stop  offset="0" style="stop-color:#1D96DD"/>
						<stop  offset="1" style="stop-color:#0C6DBF"/>
					</linearGradient>
					<path id="path-3_1_" class="st2" d="M23.4,42l1.8,3.7l2,4.4h-7.6l2-4.4L23.4,42z M26.3,40c-2.4-5-1.8-10.8,1.5-15l11.1,23.2
						C33.5,48.2,28.7,45,26.3,40L26.3,40z M36.1,34.2l2.8-0.2L37,36L36.1,34.2z M44.9,31.1c-0.3-0.6-0.9-1-1.6-1l-0.1,0l-8.8,0.6
						l-4.6-9.6c-0.2-0.4-0.6-0.7-1-0.9c-0.5-0.2-1-0.1-1.4,0c-0.2,0.1-0.3,0.2-0.4,0.3c-4.4,3.9-6.5,10-5.6,16c0,0.2,0.1,0.6,0.2,1
						l-3.6,7.2l-3.3,6.7c-0.3,0.5-0.3,1.2-0.1,1.7c0.3,0.6,0.9,0.9,1.5,0.9h0h14.3h0c0.6,0,1.2-0.4,1.5-0.9c0.3-0.5,0.3-1.2-0.1-1.7
						L31.4,50c2.4,1.2,5.1,1.9,7.8,1.9c0.9,0,1.8-0.1,2.8-0.2c0.2,0,0.3-0.1,0.5-0.2c0.4-0.2,0.7-0.6,0.9-1c0.2-0.5,0.1-0.9,0-1.3
						l-4.6-9.6l6-6.4l0.1-0.1C45.1,32.4,45.2,31.7,44.9,31.1L44.9,31.1z"/>
				</g>
			</g>
			<g id="Fill-5">
				<g>
					<path id="path-4" class="st0" d="M59.9,24c-2.8-5.9-8.1-10.2-14.3-11.8c-0.4-0.1-0.8-0.1-1.3,0.1c-0.5,0.3-0.9,0.7-1,1.1
						c-0.1,0.5,0,1,0.2,1.4c0.3,0.4,0.7,0.7,1.1,0.8c5.3,1.4,9.7,5,12.1,9.9c2.4,5,2.4,10.6,0.2,15.6c-0.2,0.4-0.3,0.9-0.1,1.4
						c0.2,0.5,0.5,0.9,0.9,1.1c0.2,0.1,0.4,0.1,0.7,0.1c0.3,0,0.6-0.1,0.9-0.2c0.4-0.2,0.7-0.5,0.9-0.9C62.8,36.7,62.7,29.9,59.9,24
						"/>
				</g>
				<g>
					
						<linearGradient id="path-4_2_" gradientUnits="userSpaceOnUse" x1="-364.111" y1="323.9723" x2="-364.111" y2="323.0306" gradientTransform="matrix(18.8336 0 0 -31.6387 6910.1606 10263.9629)">
						<stop  offset="0" style="stop-color:#1D96DD"/>
						<stop  offset="1" style="stop-color:#0C6DBF"/>
					</linearGradient>
					<path id="path-4_1_" class="st3" d="M59.9,24c-2.8-5.9-8.1-10.2-14.3-11.8c-0.4-0.1-0.8-0.1-1.3,0.1c-0.5,0.3-0.9,0.7-1,1.1
						c-0.1,0.5,0,1,0.2,1.4c0.3,0.4,0.7,0.7,1.1,0.8c5.3,1.4,9.7,5,12.1,9.9c2.4,5,2.4,10.6,0.2,15.6c-0.2,0.4-0.3,0.9-0.1,1.4
						c0.2,0.5,0.5,0.9,0.9,1.1c0.2,0.1,0.4,0.1,0.7,0.1c0.3,0,0.6-0.1,0.9-0.2c0.4-0.2,0.7-0.5,0.9-0.9C62.8,36.7,62.7,29.9,59.9,24
						"/>
				</g>
			</g>
			<g id="Fill-7">
				<g>
					<path id="path-5" class="st0" d="M44.3,17.9c-0.9-0.2-1.9,0.4-2.2,1.3c-0.2,0.9,0.3,1.9,1.3,2.2c3.7,1,6.6,3.3,8.2,6.6
						c1.6,3.3,1.6,7,0,10.5c-0.2,0.4-0.2,0.9,0,1.4c0.2,0.4,0.5,0.8,0.9,1c0.2,0.1,0.5,0.2,0.7,0.2c0.2,0,0.4,0,0.7-0.1
						c0.4-0.2,0.8-0.5,1-0.9c2-4.5,2-9.3,0-13.5C52.7,22.2,49,19.1,44.3,17.9"/>
				</g>
				<g>
					
						<linearGradient id="path-5_2_" gradientUnits="userSpaceOnUse" x1="-357.5639" y1="320.9561" x2="-357.5639" y2="320.0143" gradientTransform="matrix(14.256 0 0 -23.1678 5146.563 7454.9912)">
						<stop  offset="0" style="stop-color:#1D96DD"/>
						<stop  offset="1" style="stop-color:#0C6DBF"/>
					</linearGradient>
					<path id="path-5_1_" class="st4" d="M44.3,17.9c-0.9-0.2-1.9,0.4-2.2,1.3c-0.2,0.9,0.3,1.9,1.3,2.2c3.7,1,6.6,3.3,8.2,6.6
						c1.6,3.3,1.6,7,0,10.5c-0.2,0.4-0.2,0.9,0,1.4c0.2,0.4,0.5,0.8,0.9,1c0.2,0.1,0.5,0.2,0.7,0.2c0.2,0,0.4,0,0.7-0.1
						c0.4-0.2,0.8-0.5,1-0.9c2-4.5,2-9.3,0-13.5C52.7,22.2,49,19.1,44.3,17.9"/>
				</g>
			</g>
			<g id="Stroke-9">
				<g>
					<path class="st0" d="M35.5,70.5c-19.9,0-36-16.2-36-36c0-19.9,16.2-36,36-36c19.9,0,36,16.2,36,36
						C71.5,54.4,55.4,70.5,35.5,70.5z M35.5,1.5c-18.2,0-33,14.8-33,33c0,18.2,14.8,33,33,33c18.2,0,33-14.8,33-33
						C68.5,16.3,53.7,1.5,35.5,1.5z"/>
				</g>
				<g>
					
						<linearGradient id="SVGID_1_" gradientUnits="userSpaceOnUse" x1="-378.9373" y1="328.0142" x2="-378.9373" y2="327.8686" gradientTransform="matrix(69.031 0 0 -69.03 26193.9375 22676.2891)">
						<stop  offset="0" style="stop-color:#1D96DE"/>
						<stop  offset="1" style="stop-color:#0B6CBF"/>
					</linearGradient>
					<path class="st5" d="M35.5,70.5c-19.9,0-36-16.2-36-36c0-19.9,16.2-36,36-36c19.9,0,36,16.2,36,36
						C71.5,54.4,55.4,70.5,35.5,70.5z M35.5,1.5c-18.2,0-33,14.8-33,33c0,18.2,14.8,33,33,33c18.2,0,33-14.8,33-33
						C68.5,16.3,53.7,1.5,35.5,1.5z"/>
				</g>
			</g>
		</g>
	</g>
</g>
</svg>
