<?xml version="1.0" encoding="UTF-8" standalone="no"?>
<svg width="68px" height="130px" viewBox="0 0 68 130" version="1.1" xmlns="http://www.w3.org/2000/svg" xmlns:xlink="http://www.w3.org/1999/xlink">
    <!-- Generator: Sketch 39.1 (31720) - http://www.bohemiancoding.com/sketch -->
    <title>Dots_10</title>
    <desc>Created with Sketch.</desc>
    <defs>
        <polygon id="path-1" points="0.4553 1 1.4553 1 1.4553 0.3992 0.4553 0.3992 0.4553 1"></polygon>
        <polygon id="path-3" points="4.47653194 0.838 0.000269245148 0.838 0.000269245148 5.31413075 4.47653194 5.31413075 4.47653194 0.838"></polygon>
        <polygon id="path-5" points="1.667 1.1198 1.667 0.1198 0.7472 0.1198 0.7472 1.1198 1.667 1.1198"></polygon>
        <polygon id="path-7" points="1.667 1.2359 1.667 0.2359 0.8293 0.2359 0.8293 1.2359 1.667 1.2359"></polygon>
        <polygon id="path-9" points="1.667 1.3524 1.667 0.3524 0.8845 0.3524 0.8845 1.3524 1.667 1.3524"></polygon>
        <polygon id="path-11" points="1.667 1.47 1.667 0.47 0.9095 0.47 0.9095 1.47 1.667 1.47"></polygon>
        <polygon id="path-13" points="1.667 1.5892 1.667 0.5892 0.9071 0.5892 0.9071 1.5892 1.667 1.5892"></polygon>
        <polygon id="path-15" points="1.667 1.7101 1.667 0.7101 0.8737 0.7101 0.8737 1.7101 1.667 1.7101"></polygon>
        <polygon id="path-17" points="1.667 1.8291 1.667 0.8291 0.812 0.8291 0.812 1.8291 1.667 1.8291"></polygon>
        <polygon id="path-19" points="1.667 1.9452 1.667 0.9452 0.7205 0.9452 0.7205 1.9452 1.667 1.9452"></polygon>
        <polygon id="path-21" points="0.771403451 5 5.24780117 5 5.24780117 0.523698827 0.771403451 0.523698827 0.771403451 5"></polygon>
        <polygon id="path-23" points="4.47656288 5 -2.27373675e-13 5 -2.27373675e-13 0.524 4.47656288 0.524 4.47656288 5"></polygon>
        <polygon id="path-25" points="5.71764858e-14 4.87477151 5.71764858e-14 30 56.449 30 56.449 0.397 5.71764858e-14 0.397 5.71764858e-14 4.87477151 4.4773318 4.87477151 4.4773318 0.397028488 -7.15117404e-05 0.397028488 -7.15117404e-05 4.87477151"></polygon>
    </defs>
    <g id="Main-Page" stroke="none" stroke-width="1" fill="none" fill-rule="evenodd">
        <g id="Mobile-Portrait" transform="translate(-204.000000, -2139.000000)">
            <g id="Dots_10" transform="translate(187.000000, 2129.000000)">
                <g id="Page-1" transform="translate(51.472538, 89.917431) rotate(-138.000000) translate(-51.472538, -89.917431) translate(11.472538, 57.417431)">
                    <g id="Group-3" transform="translate(78.000000, 62.162300)">
                        <mask id="mask-2" fill="white">
                            <use xlink:href="#path-1"></use>
                        </mask>
                        <g id="Clip-2"></g>
                        <path d="M0.4653,0.4182 C0.4603,0.4182 0.4553,0.4142 0.4553,0.4092 C0.4553,0.4092 0.4603,0.3992 0.4653,0.3992 L0.4753,0.4092 C0.4753,0.4142 0.4703,0.4182 0.4653,0.4182" id="Fill-1" fill="#1D96DD" mask="url(#mask-2)"></path>
                    </g>
                    <path d="M76.4265,61.9892 C76.4155,61.9892 76.4075,61.9812 76.4075,61.9702 C76.4075,61.9592 76.4155,61.9512 76.4265,61.9512 C76.4365,61.9512 76.4455,61.9592 76.4455,61.9702 C76.4455,61.9812 76.4365,61.9892 76.4265,61.9892" id="Fill-4" fill="#1D96DD"></path>
                    <path d="M74.3916,61.3886 C74.3756,61.3886 74.3626,61.3756 74.3626,61.3596 C74.3626,61.3436 74.3756,61.3306 74.3916,61.3306 C74.4076,61.3306 74.4206,61.3436 74.4206,61.3596 C74.4206,61.3756 74.4076,61.3886 74.3916,61.3886" id="Fill-6" fill="#1D96DD"></path>
                    <path d="M72.3596,60.7778 C72.3386,60.7778 72.3206,60.7608 72.3206,60.7388 C72.3206,60.7178 72.3386,60.7008 72.3596,60.7008 C72.3806,60.7008 72.3976,60.7178 72.3976,60.7388 C72.3976,60.7608 72.3806,60.7778 72.3596,60.7778" id="Fill-8" fill="#1D96DD"></path>
                    <path d="M70.3291,60.1596 C70.3021,60.1596 70.2811,60.1386 70.2811,60.1116 C70.2811,60.0846 70.3021,60.0636 70.3291,60.0636 C70.3561,60.0636 70.3771,60.0846 70.3771,60.1116 C70.3771,60.1386 70.3561,60.1596 70.3291,60.1596" id="Fill-10" fill="#1D96DD"></path>
                    <path d="M68.3049,59.5356 C68.2729,59.5356 68.2469,59.5096 68.2469,59.4776 C68.2469,59.4456 68.2729,59.4196 68.3049,59.4196 C68.3369,59.4196 68.3629,59.4456 68.3629,59.4776 C68.3629,59.5096 68.3369,59.5356 68.3049,59.5356" id="Fill-12" fill="#1D96DD"></path>
                    <path d="M66.2784,58.9047 C66.2414,58.9047 66.2114,58.8747 66.2114,58.8377 C66.2114,58.7997 66.2414,58.7697 66.2784,58.7697 C66.3154,58.7697 66.3454,58.7997 66.3454,58.8377 C66.3454,58.8747 66.3154,58.9047 66.2784,58.9047" id="Fill-14" fill="#1D96DD"></path>
                    <path d="M64.2532,58.2692 C64.2102,58.2692 64.1762,58.2352 64.1762,58.1922 C64.1762,58.1492 64.2102,58.1152 64.2532,58.1152 C64.2952,58.1152 64.3302,58.1492 64.3302,58.1922 C64.3302,58.2352 64.2952,58.2692 64.2532,58.2692" id="Fill-16" fill="#1D96DD"></path>
                    <path d="M62.2305,57.6242 C62.1825,57.6242 62.1435,57.5852 62.1435,57.5372 C62.1435,57.4902 62.1825,57.4512 62.2305,57.4512 C62.2785,57.4512 62.3175,57.4902 62.3175,57.5372 C62.3175,57.5852 62.2785,57.6242 62.2305,57.6242" id="Fill-18" fill="#1D96DD"></path>
                    <path d="M60.2112,56.9702 C60.1582,56.9702 60.1152,56.9272 60.1152,56.8732 C60.1152,56.8212 60.1582,56.7772 60.2112,56.7772 C60.2642,56.7772 60.3072,56.8212 60.3072,56.8732 C60.3072,56.9272 60.2642,56.9702 60.2112,56.9702" id="Fill-20" fill="#1D96DD"></path>
                    <path d="M58.1938,56.309 C58.1358,56.309 58.0878,56.262 58.0878,56.203 C58.0878,56.145 58.1358,56.097 58.1938,56.097 C58.2528,56.097 58.2998,56.145 58.2998,56.203 C58.2998,56.262 58.2528,56.309 58.1938,56.309" id="Fill-22" fill="#1D96DD"></path>
                    <path d="M56.1785,55.6425 C56.1145,55.6425 56.0635,55.5915 56.0635,55.5275 C56.0635,55.4635 56.1145,55.4115 56.1785,55.4115 C56.2425,55.4115 56.2935,55.4635 56.2935,55.5275 C56.2935,55.5915 56.2425,55.6425 56.1785,55.6425" id="Fill-24" fill="#1D96DD"></path>
                    <path d="M54.1646,54.9716 C54.0956,54.9716 54.0396,54.9156 54.0396,54.8466 C54.0396,54.7776 54.0956,54.7216 54.1646,54.7216 C54.2336,54.7216 54.2896,54.7776 54.2896,54.8466 C54.2896,54.9156 54.2336,54.9716 54.1646,54.9716" id="Fill-26" fill="#1D96DD"></path>
                    <path d="M52.1516,54.2971 C52.0776,54.2971 52.0166,54.2371 52.0166,54.1621 C52.0166,54.0881 52.0776,54.0271 52.1516,54.0271 C52.2266,54.0271 52.2866,54.0881 52.2866,54.1621 C52.2866,54.2371 52.2266,54.2971 52.1516,54.2971" id="Fill-28" fill="#1D96DD"></path>
                    <path d="M50.1445,53.6184 C50.0645,53.6184 50.0005,53.5534 50.0005,53.4744 C50.0005,53.3944 50.0645,53.3294 50.1445,53.3294 C50.2245,53.3294 50.2885,53.3944 50.2885,53.4744 C50.2885,53.5534 50.2245,53.6184 50.1445,53.6184" id="Fill-30" fill="#1D96DD"></path>
                    <path d="M48.1355,52.9323 C48.0505,52.9323 47.9815,52.8633 47.9815,52.7783 C47.9815,52.6933 48.0505,52.6243 48.1355,52.6243 C48.2205,52.6243 48.2895,52.6933 48.2895,52.7783 C48.2895,52.8633 48.2205,52.9323 48.1355,52.9323" id="Fill-32" fill="#1D96DD"></path>
                    <path d="M46.1328,52.2375 C46.0428,52.2375 45.9698,52.1635 45.9698,52.0735 C45.9698,51.9835 46.0428,51.9105 46.1328,51.9105 C46.2228,51.9105 46.2968,51.9835 46.2968,52.0735 C46.2968,52.1635 46.2228,52.2375 46.1328,52.2375" id="Fill-34" fill="#1D96DD"></path>
                    <path d="M44.1355,51.53 C44.0395,51.53 43.9625,51.453 43.9625,51.357 C43.9625,51.261 44.0395,51.183 44.1355,51.183 C44.2315,51.183 44.3085,51.261 44.3085,51.357 C44.3085,51.453 44.2315,51.53 44.1355,51.53" id="Fill-36" fill="#1D96DD"></path>
                    <path d="M42.1414,50.8085 C42.0404,50.8085 41.9584,50.7265 41.9584,50.6255 C41.9584,50.5245 42.0404,50.4425 42.1414,50.4425 C42.2424,50.4425 42.3244,50.5245 42.3244,50.6255 C42.3244,50.7265 42.2424,50.8085 42.1414,50.8085" id="Fill-38" fill="#1D96DD"></path>
                    <path d="M40.1479,50.0759 C40.0419,50.0759 39.9549,49.9899 39.9549,49.8829 C39.9549,49.7769 40.0419,49.6909 40.1479,49.6909 C40.2539,49.6909 40.3399,49.7769 40.3399,49.8829 C40.3399,49.9899 40.2539,50.0759 40.1479,50.0759" id="Fill-40" fill="#1D96DD"></path>
                    <path d="M38.1597,49.3281 C38.0477,49.3281 37.9577,49.2381 37.9577,49.1261 C37.9577,49.0141 38.0477,48.9241 38.1597,48.9241 C38.2717,48.9241 38.3617,49.0141 38.3617,49.1261 C38.3617,49.2381 38.2717,49.3281 38.1597,49.3281" id="Fill-42" fill="#1D96DD"></path>
                    <path d="M36.1756,48.5639 C36.0586,48.5639 35.9636,48.4689 35.9636,48.3519 C35.9636,48.2349 36.0586,48.1409 36.1756,48.1409 C36.2926,48.1409 36.3876,48.2349 36.3876,48.3519 C36.3876,48.4689 36.2926,48.5639 36.1756,48.5639" id="Fill-44" fill="#1D96DD"></path>
                    <path d="M34.1967,47.7834 C34.0747,47.7834 33.9757,47.6844 33.9757,47.5624 C33.9757,47.4404 34.0747,47.3404 34.1967,47.3404 C34.3187,47.3404 34.4177,47.4404 34.4177,47.5624 C34.4177,47.6844 34.3187,47.7834 34.1967,47.7834" id="Fill-46" fill="#1D96DD"></path>
                    <path d="M32.2243,46.9868 C32.0973,46.9868 31.9933,46.8838 31.9933,46.7558 C31.9933,46.6278 32.0973,46.5248 32.2243,46.5248 C32.3523,46.5248 32.4553,46.6278 32.4553,46.7558 C32.4553,46.8838 32.3523,46.9868 32.2243,46.9868" id="Fill-48" fill="#1D96DD"></path>
                    <path d="M30.263,46.1762 C30.13,46.1762 30.022,46.0682 30.022,45.9352 C30.022,45.8022 30.13,45.6952 30.263,45.6952 C30.396,45.6952 30.504,45.8022 30.504,45.9352 C30.504,46.0682 30.396,46.1762 30.263,46.1762" id="Fill-50" fill="#1D96DD"></path>
                    <path d="M28.3069,45.3493 C28.1689,45.3493 28.0569,45.2373 28.0569,45.0993 C28.0569,44.9613 28.1689,44.8483 28.3069,44.8483 C28.4449,44.8483 28.5569,44.9613 28.5569,45.0993 C28.5569,45.2373 28.4449,45.3493 28.3069,45.3493" id="Fill-52" fill="#1D96DD"></path>
                    <path d="M26.3645,44.4938 C26.2205,44.4938 26.1045,44.3778 26.1045,44.2338 C26.1045,44.0908 26.2205,43.9738 26.3645,43.9738 C26.5085,43.9738 26.6245,44.0908 26.6245,44.2338 C26.6245,44.3778 26.5085,44.4938 26.3645,44.4938" id="Fill-54" fill="#1D96DD"></path>
                    <path d="M24.4583,43.5734 C24.3093,43.5734 24.1883,43.4524 24.1883,43.3034 C24.1883,43.1554 24.3093,43.0344 24.4583,43.0344 C24.6073,43.0344 24.7283,43.1554 24.7283,43.3034 C24.7283,43.4524 24.6073,43.5734 24.4583,43.5734" id="Fill-56" fill="#1D96DD"></path>
                    <path d="M22.6022,42.5424 C22.4482,42.5424 22.3232,42.4174 22.3232,42.2634 C22.3232,42.1094 22.4482,41.9844 22.6022,41.9844 C22.7562,41.9844 22.8812,42.1094 22.8812,42.2634 C22.8812,42.4174 22.7562,42.5424 22.6022,42.5424" id="Fill-58" fill="#1D96DD"></path>
                    <path d="M20.8183,41.4001 C20.6583,41.4001 20.5293,41.2711 20.5293,41.1111 C20.5293,40.9521 20.6583,40.8231 20.8183,40.8231 C20.9773,40.8231 21.1073,40.9521 21.1073,41.1111 C21.1073,41.2711 20.9773,41.4001 20.8183,41.4001" id="Fill-60" fill="#1D96DD"></path>
                    <path d="M19.1077,40.1477 C18.9427,40.1477 18.8097,40.0137 18.8097,39.8487 C18.8097,39.6847 18.9427,39.5507 19.1077,39.5507 C19.2727,39.5507 19.4057,39.6847 19.4057,39.8487 C19.4057,40.0137 19.2727,40.1477 19.1077,40.1477" id="Fill-62" fill="#1D96DD"></path>
                    <path d="M17.4799,38.7919 C17.3099,38.7919 17.1719,38.6539 17.1719,38.4839 C17.1719,38.3139 17.3099,38.1759 17.4799,38.1759 C17.6499,38.1759 17.7879,38.3139 17.7879,38.4839 C17.7879,38.6539 17.6499,38.7919 17.4799,38.7919" id="Fill-64" fill="#1D96DD"></path>
                    <path d="M15.9355,37.341 C15.7595,37.341 15.6175,37.199 15.6175,37.023 C15.6175,36.848 15.7595,36.706 15.9355,36.706 C16.1105,36.706 16.2535,36.848 16.2535,37.023 C16.2535,37.199 16.1105,37.341 15.9355,37.341" id="Fill-66" fill="#1D96DD"></path>
                    <path d="M14.4783,35.8085 C14.2973,35.8085 14.1513,35.6625 14.1513,35.4815 C14.1513,35.3005 14.2973,35.1545 14.4783,35.1545 C14.6593,35.1545 14.8053,35.3005 14.8053,35.4815 C14.8053,35.6625 14.6593,35.8085 14.4783,35.8085" id="Fill-68" fill="#1D96DD"></path>
                    <path d="M13.1044,34.1958 C12.9184,34.1958 12.7674,34.0448 12.7674,33.8588 C12.7674,33.6728 12.9184,33.5218 13.1044,33.5218 C13.2904,33.5218 13.4414,33.6728 13.4414,33.8588 C13.4414,34.0448 13.2904,34.1958 13.1044,34.1958" id="Fill-70" fill="#1D96DD"></path>
                    <path d="M11.8208,32.51 C11.6298,32.51 11.4748,32.355 11.4748,32.163 C11.4748,31.972 11.6298,31.817 11.8208,31.817 C12.0118,31.817 12.1668,31.972 12.1668,32.163 C12.1668,32.355 12.0118,32.51 11.8208,32.51" id="Fill-72" fill="#1D96DD"></path>
                    <path d="M10.6306,30.7575 C10.4336,30.7575 10.2746,30.5985 10.2746,30.4015 C10.2746,30.2045 10.4336,30.0455 10.6306,30.0455 C10.8276,30.0455 10.9866,30.2045 10.9866,30.4015 C10.9866,30.5985 10.8276,30.7575 10.6306,30.7575" id="Fill-74" fill="#1D96DD"></path>
                    <path d="M9.5269,28.9489 C9.3249,28.9489 9.1609,28.7849 9.1609,28.5829 C9.1609,28.3809 9.3249,28.2179 9.5269,28.2179 C9.7289,28.2179 9.8929,28.3809 9.8929,28.5829 C9.8929,28.7849 9.7289,28.9489 9.5269,28.9489" id="Fill-76" fill="#1D96DD"></path>
                    <path d="M8.5096,27.0898 C8.3026,27.0898 8.1346,26.9218 8.1346,26.7138 C8.1346,26.5068 8.3026,26.3388 8.5096,26.3388 C8.7166,26.3388 8.8846,26.5068 8.8846,26.7138 C8.8846,26.9218 8.7166,27.0898 8.5096,27.0898" id="Fill-78" fill="#1D96DD"></path>
                    <path d="M7.5815,25.1867 C7.3685,25.1867 7.1965,25.0147 7.1965,24.8017 C7.1965,24.5887 7.3685,24.4167 7.5815,24.4167 C7.7945,24.4167 7.9665,24.5887 7.9665,24.8017 C7.9665,25.0147 7.7945,25.1867 7.5815,25.1867" id="Fill-80" fill="#1D96DD"></path>
                    <path d="M6.746,23.239 C6.528,23.239 6.351,23.062 6.351,22.844 C6.351,22.626 6.528,22.45 6.746,22.45 C6.964,22.45 7.141,22.626 7.141,22.844 C7.141,23.062 6.964,23.239 6.746,23.239" id="Fill-82" fill="#1D96DD"></path>
                    <path d="M5.9991,21.2578 C5.7761,21.2578 5.5951,21.0768 5.5951,20.8538 C5.5951,20.6298 5.7761,20.4488 5.9991,20.4488 C6.2221,20.4488 6.4031,20.6298 6.4031,20.8538 C6.4031,21.0768 6.2221,21.2578 5.9991,21.2578" id="Fill-84" fill="#1D96DD"></path>
                    <path d="M5.3185,19.2526 C5.0905,19.2526 4.9045,19.0676 4.9045,18.8386 C4.9045,18.6106 5.0905,18.4246 5.3185,18.4246 C5.5475,18.4246 5.7325,18.6106 5.7325,18.8386 C5.7325,19.0676 5.5475,19.2526 5.3185,19.2526" id="Fill-86" fill="#1D96DD"></path>
                    <path d="M4.705,17.2263 C4.471,17.2263 4.281,17.0373 4.281,16.8023 C4.281,16.5683 4.471,16.3793 4.705,16.3793 C4.939,16.3793 5.129,16.5683 5.129,16.8023 C5.129,17.0373 4.939,17.2263 4.705,17.2263" id="Fill-88" fill="#1D96DD"></path>
                    <path d="M4.1595,15.1804 C3.9205,15.1804 3.7265,14.9864 3.7265,14.7474 C3.7265,14.5084 3.9205,14.3144 4.1595,14.3144 C4.3985,14.3144 4.5925,14.5084 4.5925,14.7474 C4.5925,14.9864 4.3985,15.1804 4.1595,15.1804" id="Fill-90" fill="#1D96DD"></path>
                    <path d="M3.683,13.1169 C3.438,13.1169 3.24,12.9189 3.24,12.6739 C3.24,12.4299 3.438,12.2309 3.683,12.2309 C3.927,12.2309 4.126,12.4299 4.126,12.6739 C4.126,12.9189 3.927,13.1169 3.683,13.1169" id="Fill-92" fill="#1D96DD"></path>
                    <path d="M3.2603,11.0422 C3.0103,11.0422 2.8083,10.8392 2.8083,10.5902 C2.8083,10.3402 3.0103,10.1372 3.2603,10.1372 C3.5103,10.1372 3.7123,10.3402 3.7123,10.5902 C3.7123,10.8392 3.5103,11.0422 3.2603,11.0422" id="Fill-94" fill="#1D96DD"></path>
                    <path d="M2.894,8.9536 C2.639,8.9536 2.432,8.7466 2.432,8.4916 C2.432,8.2366 2.639,8.0296 2.894,8.0296 C3.149,8.0296 3.356,8.2366 3.356,8.4916 C3.356,8.7466 3.149,8.9536 2.894,8.9536" id="Fill-96" fill="#1D96DD"></path>
                    <path d="M2.593,6.8557 C2.333,6.8557 2.121,6.6447 2.121,6.3837 C2.121,6.1237 2.333,5.9127 2.593,5.9127 C2.853,5.9127 3.065,6.1237 3.065,6.3837 C3.065,6.6447 2.853,6.8557 2.593,6.8557" id="Fill-98" fill="#1D96DD"></path>
                    <path d="M2.3284,4.7536 C2.0624,4.7536 1.8474,4.5376 1.8474,4.2726 C1.8474,4.0066 2.0624,3.7906 2.3284,3.7906 C2.5944,3.7906 2.8094,4.0066 2.8094,4.2726 C2.8094,4.5376 2.5944,4.7536 2.3284,4.7536" id="Fill-100" fill="#1D96DD"></path>
                    <g id="Group-104" transform="translate(0.000000, 0.162300)">
                        <mask id="mask-4" fill="white">
                            <use xlink:href="#path-3"></use>
                        </mask>
                        <g id="Clip-103"></g>
                        <path d="M4.4615,2.8179 C4.3195,1.5899 3.2075,0.7099 1.9805,0.8529 C0.7525,0.9949 -0.1275,2.1059 0.0155,3.3339 C0.1575,4.5619 1.2685,5.4419 2.4965,5.2989 C3.7235,5.1569 4.6035,4.0459 4.4615,2.8179" id="Fill-102" fill="#1D96DD" mask="url(#mask-4)"></path>
                    </g>
                </g>
                <g id="Page-1" transform="translate(12.000000, 0.500000)">
                    <path d="M5.4333,10.0487 C5.4053,10.0487 5.3823,10.0257 5.3823,9.9977 C5.3823,9.9697 5.4053,9.9477 5.4333,9.9477 C5.4613,9.9477 5.4843,9.9697 5.4843,9.9977 C5.4843,10.0257 5.4613,10.0487 5.4333,10.0487" id="Fill-11" fill="#1D96DD"></path>
                    <path d="M6.426,11.9354 C6.393,11.9354 6.367,11.9084 6.367,11.8764 C6.367,11.8434 6.393,11.8174 6.426,11.8174 C6.459,11.8174 6.485,11.8434 6.485,11.8764 C6.485,11.9084 6.459,11.9354 6.426,11.9354" id="Fill-13" fill="#1D96DD"></path>
                    <path d="M7.394,13.8361 C7.357,13.8361 7.326,13.8061 7.326,13.7681 C7.326,13.7311 7.357,13.7011 7.394,13.7011 C7.431,13.7011 7.462,13.7311 7.462,13.7681 C7.462,13.8061 7.431,13.8361 7.394,13.8361" id="Fill-15" fill="#1D96DD"></path>
                    <path d="M8.3374,15.7499 C8.2954,15.7499 8.2614,15.7159 8.2614,15.6739 C8.2614,15.6319 8.2954,15.5979 8.3374,15.5979 C8.3794,15.5979 8.4134,15.6319 8.4134,15.6739 C8.4134,15.7159 8.3794,15.7499 8.3374,15.7499" id="Fill-17" fill="#1D96DD"></path>
                    <path d="M9.2558,17.6752 C9.2088,17.6752 9.1708,17.6372 9.1708,17.5902 C9.1708,17.5442 9.2088,17.5062 9.2558,17.5062 C9.3028,17.5062 9.3408,17.5442 9.3408,17.5902 C9.3408,17.6372 9.3028,17.6752 9.2558,17.6752" id="Fill-19" fill="#1D96DD"></path>
                    <path d="M10.1482,19.6134 C10.0972,19.6134 10.0552,19.5714 10.0552,19.5204 C10.0552,19.4694 10.0972,19.4274 10.1482,19.4274 C10.1992,19.4274 10.2412,19.4694 10.2412,19.5204 C10.2412,19.5714 10.1992,19.6134 10.1482,19.6134" id="Fill-21" fill="#1D96DD"></path>
                    <path d="M11.0139,21.5636 C10.9579,21.5636 10.9129,21.5186 10.9129,21.4626 C10.9129,21.4066 10.9579,21.3606 11.0139,21.3606 C11.0699,21.3606 11.1149,21.4066 11.1149,21.4626 C11.1149,21.5186 11.0699,21.5636 11.0139,21.5636" id="Fill-23" fill="#1D96DD"></path>
                    <path d="M11.8528,23.5219 C11.7918,23.5219 11.7428,23.4729 11.7428,23.4119 C11.7428,23.3509 11.7918,23.3019 11.8528,23.3019 C11.9138,23.3019 11.9628,23.3509 11.9628,23.4119 C11.9628,23.4729 11.9138,23.5219 11.8528,23.5219" id="Fill-25" fill="#1D96DD"></path>
                    <path d="M12.6692,25.4928 C12.6032,25.4928 12.5512,25.4398 12.5512,25.3748 C12.5512,25.3088 12.6032,25.2558 12.6692,25.2558 C12.7342,25.2558 12.7872,25.3088 12.7872,25.3748 C12.7872,25.4398 12.7342,25.4928 12.6692,25.4928" id="Fill-27" fill="#1D96DD"></path>
                    <path d="M13.4585,27.474 C13.3885,27.474 13.3315,27.417 13.3315,27.347 C13.3315,27.277 13.3885,27.22 13.4585,27.22 C13.5285,27.22 13.5855,27.277 13.5855,27.347 C13.5855,27.417 13.5285,27.474 13.4585,27.474" id="Fill-29" fill="#1D96DD"></path>
                    <path d="M14.2207,29.4672 C14.1457,29.4672 14.0857,29.4062 14.0857,29.3322 C14.0857,29.2572 14.1457,29.1962 14.2207,29.1962 C14.2957,29.1962 14.3557,29.2572 14.3557,29.3322 C14.3557,29.4062 14.2957,29.4672 14.2207,29.4672" id="Fill-31" fill="#1D96DD"></path>
                    <path d="M14.9578,31.4686 C14.8788,31.4686 14.8138,31.4046 14.8138,31.3256 C14.8138,31.2456 14.8788,31.1816 14.9578,31.1816 C15.0368,31.1816 15.1018,31.2456 15.1018,31.3256 C15.1018,31.4046 15.0368,31.4686 14.9578,31.4686" id="Fill-33" fill="#1D96DD"></path>
                    <path d="M15.6709,33.4799 C15.5869,33.4799 15.5189,33.4119 15.5189,33.3279 C15.5189,33.2439 15.5869,33.1759 15.6709,33.1759 C15.7549,33.1759 15.8229,33.2439 15.8229,33.3279 C15.8229,33.4119 15.7549,33.4799 15.6709,33.4799" id="Fill-35" fill="#1D96DD"></path>
                    <path d="M16.3596,35.4982 C16.2706,35.4982 16.1996,35.4262 16.1996,35.3372 C16.1996,35.2492 16.2706,35.1772 16.3596,35.1772 C16.4486,35.1772 16.5206,35.2492 16.5206,35.3372 C16.5206,35.4262 16.4486,35.4982 16.3596,35.4982" id="Fill-37" fill="#1D96DD"></path>
                    <path d="M17.0244,37.5258 C16.9314,37.5258 16.8554,37.4498 16.8554,37.3568 C16.8554,37.2638 16.9314,37.1878 17.0244,37.1878 C17.1174,37.1878 17.1934,37.2638 17.1934,37.3568 C17.1934,37.4498 17.1174,37.5258 17.0244,37.5258" id="Fill-39" fill="#1D96DD"></path>
                    <path d="M17.6653,39.5609 C17.5673,39.5609 17.4883,39.4809 17.4883,39.3839 C17.4883,39.2849 17.5673,39.2059 17.6653,39.2059 C17.7633,39.2059 17.8433,39.2849 17.8433,39.3839 C17.8433,39.4809 17.7633,39.5609 17.6653,39.5609" id="Fill-41" fill="#1D96DD"></path>
                    <path d="M18.2812,41.6034 C18.1782,41.6034 18.0952,41.5204 18.0952,41.4174 C18.0952,41.3144 18.1782,41.2314 18.2812,41.2314 C18.3842,41.2314 18.4672,41.3144 18.4672,41.4174 C18.4672,41.5204 18.3842,41.6034 18.2812,41.6034" id="Fill-43" fill="#1D96DD"></path>
                    <path d="M18.8725,43.6539 C18.7655,43.6539 18.6785,43.5669 18.6785,43.4599 C18.6785,43.3529 18.7655,43.2649 18.8725,43.2649 C18.9795,43.2649 19.0665,43.3529 19.0665,43.4599 C19.0665,43.5669 18.9795,43.6539 18.8725,43.6539" id="Fill-45" fill="#1D96DD"></path>
                    <path d="M19.439,45.7113 C19.327,45.7113 19.236,45.6203 19.236,45.5083 C19.236,45.3963 19.327,45.3053 19.439,45.3053 C19.551,45.3053 19.642,45.3963 19.642,45.5083 C19.642,45.6203 19.551,45.7113 19.439,45.7113" id="Fill-47" fill="#1D96DD"></path>
                    <path d="M19.9802,47.7755 C19.8632,47.7755 19.7692,47.6805 19.7692,47.5645 C19.7692,47.4475 19.8632,47.3525 19.9802,47.3525 C20.0972,47.3525 20.1912,47.4475 20.1912,47.5645 C20.1912,47.6805 20.0972,47.7755 19.9802,47.7755" id="Fill-49" fill="#1D96DD"></path>
                    <path d="M20.4951,49.8424 C20.3741,49.8424 20.2751,49.7444 20.2751,49.6224 C20.2751,49.5014 20.3741,49.4034 20.4951,49.4034 C20.6161,49.4034 20.7151,49.5014 20.7151,49.6224 C20.7151,49.7444 20.6161,49.8424 20.4951,49.8424" id="Fill-51" fill="#1D96DD"></path>
                    <path d="M20.9856,51.9193 C20.8596,51.9193 20.7576,51.8173 20.7576,51.6913 C20.7576,51.5653 20.8596,51.4633 20.9856,51.4633 C21.1116,51.4633 21.2136,51.5653 21.2136,51.6913 C21.2136,51.8173 21.1116,51.9193 20.9856,51.9193" id="Fill-53" fill="#1D96DD"></path>
                    <path d="M21.4497,54.0026 C21.3187,54.0026 21.2127,53.8966 21.2127,53.7656 C21.2127,53.6346 21.3187,53.5296 21.4497,53.5296 C21.5807,53.5296 21.6867,53.6346 21.6867,53.7656 C21.6867,53.8966 21.5807,54.0026 21.4497,54.0026" id="Fill-55" fill="#1D96DD"></path>
                    <path d="M21.8874,56.0902 C21.7524,56.0902 21.6424,55.9802 21.6424,55.8452 C21.6424,55.7102 21.7524,55.6002 21.8874,55.6002 C22.0224,55.6002 22.1324,55.7102 22.1324,55.8452 C22.1324,55.9802 22.0224,56.0902 21.8874,56.0902" id="Fill-57" fill="#1D96DD"></path>
                    <path d="M22.2995,58.1842 C22.1595,58.1842 22.0455,58.0712 22.0455,57.9312 C22.0455,57.7912 22.1595,57.6772 22.2995,57.6772 C22.4395,57.6772 22.5525,57.7912 22.5525,57.9312 C22.5525,58.0712 22.4395,58.1842 22.2995,58.1842" id="Fill-59" fill="#1D96DD"></path>
                    <path d="M22.6858,60.2833 C22.5408,60.2833 22.4238,60.1663 22.4238,60.0213 C22.4238,59.8763 22.5408,59.7593 22.6858,59.7593 C22.8308,59.7593 22.9478,59.8763 22.9478,60.0213 C22.9478,60.1663 22.8308,60.2833 22.6858,60.2833" id="Fill-61" fill="#1D96DD"></path>
                    <path d="M23.0461,62.3866 C22.8971,62.3866 22.7761,62.2656 22.7761,62.1156 C22.7761,61.9666 22.8971,61.8456 23.0461,61.8456 C23.1951,61.8456 23.3171,61.9666 23.3171,62.1156 C23.3171,62.2656 23.1951,62.3866 23.0461,62.3866" id="Fill-63" fill="#1D96DD"></path>
                    <path d="M23.3806,64.4955 C23.2266,64.4955 23.1016,64.3705 23.1016,64.2165 C23.1016,64.0625 23.2266,63.9375 23.3806,63.9375 C23.5346,63.9375 23.6596,64.0625 23.6596,64.2165 C23.6596,64.3705 23.5346,64.4955 23.3806,64.4955" id="Fill-65" fill="#1D96DD"></path>
                    <path d="M23.689,66.6093 C23.53,66.6093 23.402,66.4803 23.402,66.3223 C23.402,66.1633 23.53,66.0343 23.689,66.0343 C23.848,66.0343 23.976,66.1633 23.976,66.3223 C23.976,66.4803 23.848,66.6093 23.689,66.6093" id="Fill-67" fill="#1D96DD"></path>
                    <path d="M23.9702,68.725 C23.8072,68.725 23.6742,68.593 23.6742,68.429 C23.6742,68.266 23.8072,68.133 23.9702,68.133 C24.1332,68.133 24.2662,68.266 24.2662,68.429 C24.2662,68.593 24.1332,68.725 23.9702,68.725" id="Fill-69" fill="#1D96DD"></path>
                    <path d="M24.2248,70.8441 C24.0568,70.8441 23.9208,70.7081 23.9208,70.5401 C23.9208,70.3721 24.0568,70.2361 24.2248,70.2361 C24.3928,70.2361 24.5288,70.3721 24.5288,70.5401 C24.5288,70.7081 24.3928,70.8441 24.2248,70.8441" id="Fill-71" fill="#1D96DD"></path>
                    <path d="M24.4526,72.9664 C24.2796,72.9664 24.1406,72.8264 24.1406,72.6544 C24.1406,72.4814 24.2796,72.3414 24.4526,72.3414 C24.6256,72.3414 24.7656,72.4814 24.7656,72.6544 C24.7656,72.8264 24.6256,72.9664 24.4526,72.9664" id="Fill-73" fill="#1D96DD"></path>
                    <path d="M24.6538,75.0927 C24.4768,75.0927 24.3328,74.9487 24.3328,74.7717 C24.3328,74.5937 24.4768,74.4507 24.6538,74.4507 C24.8308,74.4507 24.9748,74.5937 24.9748,74.7717 C24.9748,74.9487 24.8308,75.0927 24.6538,75.0927" id="Fill-75" fill="#1D96DD"></path>
                    <path d="M24.8276,77.2201 C24.6456,77.2201 24.4976,77.0721 24.4976,76.8901 C24.4976,76.7081 24.6456,76.5611 24.8276,76.5611 C25.0096,76.5611 25.1576,76.7081 25.1576,76.8901 C25.1576,77.0721 25.0096,77.2201 24.8276,77.2201" id="Fill-77" fill="#1D96DD"></path>
                    <path d="M24.9744,79.3497 C24.7874,79.3497 24.6364,79.1987 24.6364,79.0117 C24.6364,78.8247 24.7874,78.6737 24.9744,78.6737 C25.1614,78.6737 25.3124,78.8247 25.3124,79.0117 C25.3124,79.1987 25.1614,79.3497 24.9744,79.3497" id="Fill-79" fill="#1D96DD"></path>
                    <g id="Group-83" transform="translate(24.000000, 80.668000)">
                        <mask id="mask-6" fill="white">
                            <use xlink:href="#path-5"></use>
                        </mask>
                        <g id="Clip-82"></g>
                        <path d="M1.0932,0.8128 C0.9022,0.8128 0.7472,0.6578 0.7472,0.4668 C0.7472,0.2748 0.9022,0.1198 1.0932,0.1198 C1.2842,0.1198 1.4392,0.2748 1.4392,0.4668 C1.4392,0.6578 1.2842,0.8128 1.0932,0.8128" id="Fill-81" fill="#1D96DD" mask="url(#mask-6)"></path>
                    </g>
                    <g id="Group-86" transform="translate(24.000000, 82.668000)">
                        <mask id="mask-8" fill="white">
                            <use xlink:href="#path-7"></use>
                        </mask>
                        <g id="Clip-85"></g>
                        <path d="M1.1843,0.9459 C0.9883,0.9459 0.8293,0.7869 0.8293,0.5909 C0.8293,0.3949 0.9883,0.2359 1.1843,0.2359 C1.3803,0.2359 1.5393,0.3949 1.5393,0.5909 C1.5393,0.7869 1.3803,0.9459 1.1843,0.9459" id="Fill-84" fill="#1D96DD" mask="url(#mask-8)"></path>
                    </g>
                    <g id="Group-89" transform="translate(24.000000, 84.668000)">
                        <mask id="mask-10" fill="white">
                            <use xlink:href="#path-9"></use>
                        </mask>
                        <g id="Clip-88"></g>
                        <path d="M1.2475,1.0794 C1.0465,1.0794 0.8845,0.9164 0.8845,0.7164 C0.8845,0.5154 1.0465,0.3524 1.2475,0.3524 C1.4485,0.3524 1.6105,0.5154 1.6105,0.7164 C1.6105,0.9164 1.4485,1.0794 1.2475,1.0794" id="Fill-87" fill="#1D96DD" mask="url(#mask-10)"></path>
                    </g>
                    <g id="Group-92" transform="translate(24.000000, 86.668000)">
                        <mask id="mask-12" fill="white">
                            <use xlink:href="#path-11"></use>
                        </mask>
                        <g id="Clip-91"></g>
                        <path d="M1.2815,1.214 C1.0765,1.214 0.9095,1.047 0.9095,0.842 C0.9095,0.637 1.0765,0.47 1.2815,0.47 C1.4865,0.47 1.6535,0.637 1.6535,0.842 C1.6535,1.047 1.4865,1.214 1.2815,1.214" id="Fill-90" fill="#1D96DD" mask="url(#mask-12)"></path>
                    </g>
                    <g id="Group-95" transform="translate(24.000000, 88.668000)">
                        <mask id="mask-14" fill="white">
                            <use xlink:href="#path-13"></use>
                        </mask>
                        <g id="Clip-94"></g>
                        <path d="M1.2871,1.3492 C1.0771,1.3492 0.9071,1.1792 0.9071,0.9692 C0.9071,0.7592 1.0771,0.5892 1.2871,0.5892 C1.4971,0.5892 1.6671,0.7592 1.6671,0.9692 C1.6671,1.1792 1.4971,1.3492 1.2871,1.3492" id="Fill-93" fill="#1D96DD" mask="url(#mask-14)"></path>
                    </g>
                    <g id="Group-98" transform="translate(24.000000, 90.668000)">
                        <mask id="mask-16" fill="white">
                            <use xlink:href="#path-15"></use>
                        </mask>
                        <g id="Clip-97"></g>
                        <path d="M1.2627,1.4881 C1.0477,1.4881 0.8737,1.3141 0.8737,1.0991 C0.8737,0.8841 1.0477,0.7101 1.2627,0.7101 C1.4777,0.7101 1.6517,0.8841 1.6517,1.0991 C1.6517,1.3141 1.4777,1.4881 1.2627,1.4881" id="Fill-96" fill="#1D96DD" mask="url(#mask-16)"></path>
                    </g>
                    <g id="Group-101" transform="translate(24.000000, 92.668000)">
                        <mask id="mask-18" fill="white">
                            <use xlink:href="#path-17"></use>
                        </mask>
                        <g id="Clip-100"></g>
                        <path d="M1.209,1.6231 C0.99,1.6231 0.812,1.4451 0.812,1.2261 C0.812,1.0061 0.99,0.8291 1.209,0.8291 C1.428,0.8291 1.606,1.0061 1.606,1.2261 C1.606,1.4451 1.428,1.6231 1.209,1.6231" id="Fill-99" fill="#1D96DD" mask="url(#mask-18)"></path>
                    </g>
                    <g id="Group-104" transform="translate(24.000000, 94.668000)">
                        <mask id="mask-20" fill="white">
                            <use xlink:href="#path-19"></use>
                        </mask>
                        <g id="Clip-103"></g>
                        <path d="M1.1265,1.7562 C0.9025,1.7562 0.7205,1.5742 0.7205,1.3502 C0.7205,1.1262 0.9025,0.9452 1.1265,0.9452 C1.3505,0.9452 1.5325,1.1262 1.5325,1.3502 C1.5325,1.5742 1.3505,1.7562 1.1265,1.7562" id="Fill-102" fill="#1D96DD" mask="url(#mask-20)"></path>
                    </g>
                    <path d="M25.0146,98.557 C24.7856,98.557 24.6006,98.372 24.6006,98.143 C24.6006,97.914 24.7856,97.729 25.0146,97.729 C25.2436,97.729 25.4286,97.914 25.4286,98.143 C25.4286,98.372 25.2436,98.557 25.0146,98.557" id="Fill-105" fill="#1D96DD"></path>
                    <path d="M24.8711,100.6871 C24.6381,100.6871 24.4481,100.4981 24.4481,100.2651 C24.4481,100.0311 24.6381,99.8421 24.8711,99.8421 C25.1041,99.8421 25.2941,100.0311 25.2941,100.2651 C25.2941,100.4981 25.1041,100.6871 24.8711,100.6871" id="Fill-107" fill="#1D96DD"></path>
                    <path d="M24.6953,102.8187 C24.4573,102.8187 24.2643,102.6257 24.2643,102.3877 C24.2643,102.1497 24.4573,101.9567 24.6953,101.9567 C24.9333,101.9567 25.1263,102.1497 25.1263,102.3877 C25.1263,102.6257 24.9333,102.8187 24.6953,102.8187" id="Fill-109" fill="#1D96DD"></path>
                    <path d="M24.4968,104.9442 C24.2538,104.9442 24.0578,104.7472 24.0578,104.5052 C24.0578,104.2622 24.2538,104.0652 24.4968,104.0652 C24.7398,104.0652 24.9358,104.2622 24.9358,104.5052 C24.9358,104.7472 24.7398,104.9442 24.4968,104.9442" id="Fill-111" fill="#1D96DD"></path>
                    <path d="M24.2676,107.0707 C24.0206,107.0707 23.8196,106.8697 23.8196,106.6227 C23.8196,106.3757 24.0206,106.1747 24.2676,106.1747 C24.5146,106.1747 24.7156,106.3757 24.7156,106.6227 C24.7156,106.8697 24.5146,107.0707 24.2676,107.0707" id="Fill-113" fill="#1D96DD"></path>
                    <path d="M24.0005,109.1884 C23.7485,109.1884 23.5445,108.9844 23.5445,108.7314 C23.5445,108.4804 23.7485,108.2754 24.0005,108.2754 C24.2525,108.2754 24.4565,108.4804 24.4565,108.7314 C24.4565,108.9844 24.2525,109.1884 24.0005,109.1884" id="Fill-115" fill="#1D96DD"></path>
                    <path d="M23.7336,111.3075 C23.4766,111.3075 23.2686,111.0995 23.2686,110.8425 C23.2686,110.5855 23.4766,110.3775 23.7336,110.3775 C23.9906,110.3775 24.1986,110.5855 24.1986,110.8425 C24.1986,111.0995 23.9906,111.3075 23.7336,111.3075" id="Fill-117" fill="#1D96DD"></path>
                    <path d="M23.4651,113.4257 C23.2031,113.4257 22.9921,113.2137 22.9921,112.9527 C22.9921,112.6907 23.2031,112.4787 23.4651,112.4787 C23.7261,112.4787 23.9381,112.6907 23.9381,112.9527 C23.9381,113.2137 23.7261,113.4257 23.4651,113.4257" id="Fill-119" fill="#1D96DD"></path>
                    <path d="M23.1882,115.5431 C22.9222,115.5431 22.7062,115.3271 22.7062,115.0611 C22.7062,114.7951 22.9222,114.5801 23.1882,114.5801 C23.4542,114.5801 23.6702,114.7951 23.6702,115.0611 C23.6702,115.3271 23.4542,115.5431 23.1882,115.5431" id="Fill-121" fill="#1D96DD"></path>
                    <g id="Group-125" transform="translate(20.000000, 113.668000)">
                        <mask id="mask-22" fill="white">
                            <use xlink:href="#path-21"></use>
                        </mask>
                        <g id="Clip-124"></g>
                        <path d="M0.7905,2.471 C0.6305,3.697 1.4935,4.82 2.7195,4.981 C3.9445,5.142 5.0685,4.278 5.2285,3.052 C5.3895,1.827 4.5255,0.703 3.3005,0.543 C2.0745,0.382 0.9505,1.246 0.7905,2.471" id="Fill-123" fill="#1D96DD" mask="url(#mask-22)"></path>
                    </g>
                </g>
                <g id="Page-1" transform="translate(47.468942, 56.252244) rotate(-78.000000) translate(-47.468942, -56.252244) translate(30.468942, 53.252244)">
                    <path d="M32.6207,2.6873 C32.6037,2.6873 32.5907,2.6743 32.5907,2.6573 C32.5907,2.6403 32.6037,2.6263 32.6207,2.6263 C32.6377,2.6263 32.6507,2.6403 32.6507,2.6573 C32.6507,2.6743 32.6377,2.6873 32.6207,2.6873" id="Fill-1" fill="#1D96DD"></path>
                    <path d="M30.549,3.1792 C30.516,3.1792 30.488,3.1522 30.488,3.1182 C30.488,3.0852 30.516,3.0582 30.549,3.0582 C30.582,3.0582 30.61,3.0852 30.61,3.1182 C30.61,3.1522 30.582,3.1792 30.549,3.1792" id="Fill-3" fill="#1D96DD"></path>
                    <path d="M28.4364,3.4219 C28.3864,3.4219 28.3454,3.3809 28.3454,3.3309 C28.3454,3.2809 28.3864,3.2399 28.4364,3.2399 C28.4864,3.2399 28.5274,3.2809 28.5274,3.3309 C28.5274,3.3809 28.4864,3.4219 28.4364,3.4219" id="Fill-5" fill="#1D96DD"></path>
                    <path d="M26.3127,3.523 C26.2457,3.523 26.1917,3.469 26.1917,3.402 C26.1917,3.335 26.2457,3.281 26.3127,3.281 C26.3797,3.281 26.4337,3.335 26.4337,3.402 C26.4337,3.469 26.3797,3.523 26.3127,3.523" id="Fill-7" fill="#1D96DD"></path>
                    <path d="M24.1866,3.5469 C24.1026,3.5469 24.0346,3.4789 24.0346,3.3959 C24.0346,3.3119 24.1026,3.2439 24.1866,3.2439 C24.2706,3.2439 24.3376,3.3119 24.3376,3.3959 C24.3376,3.4789 24.2706,3.5469 24.1866,3.5469" id="Fill-9" fill="#1D96DD"></path>
                    <path d="M22.0614,3.5213 C21.9614,3.5213 21.8794,3.4403 21.8794,3.3393 C21.8794,3.2393 21.9614,3.1573 22.0614,3.1573 C22.1614,3.1573 22.2434,3.2393 22.2434,3.3393 C22.2434,3.4403 22.1614,3.5213 22.0614,3.5213" id="Fill-11" fill="#1D96DD"></path>
                    <path d="M19.9371,3.4668 C19.8201,3.4668 19.7251,3.3718 19.7251,3.2548 C19.7251,3.1378 19.8201,3.0428 19.9371,3.0428 C20.0541,3.0428 20.1491,3.1378 20.1491,3.2548 C20.1491,3.3718 20.0541,3.4668 19.9371,3.4668" id="Fill-13" fill="#1D96DD"></path>
                    <path d="M17.8143,3.4158 C17.6803,3.4158 17.5723,3.3078 17.5723,3.1738 C17.5723,3.0398 17.6803,2.9308 17.8143,2.9308 C17.9483,2.9308 18.0563,3.0398 18.0563,3.1738 C18.0563,3.3078 17.9483,3.4158 17.8143,3.4158" id="Fill-15" fill="#1D96DD"></path>
                    <path d="M15.6873,3.3909 C15.5373,3.3909 15.4153,3.2689 15.4153,3.1189 C15.4153,2.9679 15.5373,2.8459 15.6873,2.8459 C15.8383,2.8459 15.9603,2.9679 15.9603,3.1189 C15.9603,3.2689 15.8383,3.3909 15.6873,3.3909" id="Fill-17" fill="#1D96DD"></path>
                    <path d="M13.5614,3.4263 C13.3944,3.4263 13.2584,3.2913 13.2584,3.1233 C13.2584,2.9563 13.3944,2.8203 13.5614,2.8203 C13.7284,2.8203 13.8644,2.9563 13.8644,3.1233 C13.8644,3.2913 13.7284,3.4263 13.5614,3.4263" id="Fill-19" fill="#1D96DD"></path>
                    <path d="M11.4321,3.5113 C11.2481,3.5113 11.0991,3.3623 11.0991,3.1783 C11.0991,2.9943 11.2481,2.8453 11.4321,2.8453 C11.6161,2.8453 11.7651,2.9943 11.7651,3.1783 C11.7651,3.3623 11.6161,3.5113 11.4321,3.5113" id="Fill-21" fill="#1D96DD"></path>
                    <path d="M9.3071,3.6067 C9.1061,3.6067 8.9431,3.4437 8.9431,3.2427 C8.9431,3.0427 9.1061,2.8797 9.3071,2.8797 C9.5081,2.8797 9.6701,3.0427 9.6701,3.2427 C9.6701,3.4437 9.5081,3.6067 9.3071,3.6067" id="Fill-23" fill="#1D96DD"></path>
                    <path d="M7.1812,3.6822 C6.9642,3.6822 6.7882,3.5062 6.7882,3.2882 C6.7882,3.0712 6.9642,2.8942 7.1812,2.8942 C7.3992,2.8942 7.5752,3.0712 7.5752,3.2882 C7.5752,3.5062 7.3992,3.6822 7.1812,3.6822" id="Fill-25" fill="#1D96DD"></path>
                    <path d="M5.0549,3.7132 C4.8209,3.7132 4.6309,3.5232 4.6309,3.2892 C4.6309,3.0552 4.8209,2.8652 5.0549,2.8652 C5.2889,2.8652 5.4789,3.0552 5.4789,3.2892 C5.4789,3.5232 5.2889,3.7132 5.0549,3.7132" id="Fill-27" fill="#1D96DD"></path>
                    <path d="M3.1219,3.7142 C2.8709,3.7142 2.6679,3.5112 2.6679,3.2602 C2.6679,3.0092 2.8709,2.8052 3.1219,2.8052 C3.3729,2.8052 3.5759,3.0092 3.5759,3.2602 C3.5759,3.5112 3.3729,3.7142 3.1219,3.7142" id="Fill-29" fill="#1D96DD"></path>
                    <g id="Group-33" transform="translate(0.000000, 0.476300)">
                        <mask id="mask-24" fill="white">
                            <use xlink:href="#path-23"></use>
                        </mask>
                        <g id="Clip-32"></g>
                        <path d="M2.2997,0.5245 C1.0637,0.4905 0.0347,1.4655 0.0007,2.7005 C-0.0333,3.9355 0.9417,4.9655 2.1767,4.9995 C3.4127,5.0325 4.4417,4.0585 4.4757,2.8235 C4.5097,1.5875 3.5347,0.5585 2.2997,0.5245" id="Fill-31" fill="#1D96DD" mask="url(#mask-24)"></path>
                    </g>
                </g>
                <g id="Page-1" transform="translate(44.150688, 39.291173) rotate(27.000000) translate(-44.150688, -39.291173) translate(28.150688, 19.791173)" fill="#1D96DD">
                    <path d="M0.5093,0.5176 C0.4973,0.5176 0.4883,0.5086 0.4883,0.4966 C0.4883,0.4846 0.4973,0.4756 0.5093,0.4756 C0.5213,0.4756 0.5303,0.4846 0.5303,0.4966 C0.5303,0.5086 0.5213,0.5176 0.5093,0.5176" id="Fill-1"></path>
                    <path d="M2.001,2.051 C1.978,2.051 1.959,2.032 1.959,2.009 C1.959,1.986 1.978,1.967 2.001,1.967 C2.024,1.967 2.043,1.986 2.043,2.009 C2.043,2.032 2.024,2.051 2.001,2.051" id="Fill-3"></path>
                    <path d="M3.4636,3.6106 C3.4286,3.6106 3.4006,3.5826 3.4006,3.5476 C3.4006,3.5126 3.4286,3.4846 3.4636,3.4846 C3.4986,3.4846 3.5266,3.5126 3.5266,3.5476 C3.5266,3.5826 3.4986,3.6106 3.4636,3.6106" id="Fill-5"></path>
                    <path d="M4.9336,5.1619 C4.8876,5.1619 4.8496,5.1249 4.8496,5.0779 C4.8496,5.0319 4.8876,4.9939 4.9336,4.9939 C4.9796,4.9939 5.0176,5.0319 5.0176,5.0779 C5.0176,5.1249 4.9796,5.1619 4.9336,5.1619" id="Fill-7"></path>
                    <path d="M6.4111,6.7114 C6.3531,6.7114 6.3061,6.6644 6.3061,6.6064 C6.3061,6.5484 6.3531,6.5014 6.4111,6.5014 C6.4691,6.5014 6.5161,6.5484 6.5161,6.6064 C6.5161,6.6644 6.4691,6.7114 6.4111,6.7114" id="Fill-9"></path>
                    <path d="M7.8875,8.2588 C7.8185,8.2588 7.7615,8.2028 7.7615,8.1328 C7.7615,8.0638 7.8185,8.0068 7.8875,8.0068 C7.9575,8.0068 8.0135,8.0638 8.0135,8.1328 C8.0135,8.2028 7.9575,8.2588 7.8875,8.2588" id="Fill-11"></path>
                    <path d="M9.3557,9.8172 C9.2747,9.8172 9.2087,9.7512 9.2087,9.6702 C9.2087,9.5892 9.2747,9.5232 9.3557,9.5232 C9.4367,9.5232 9.5027,9.5892 9.5027,9.6702 C9.5027,9.7512 9.4367,9.8172 9.3557,9.8172" id="Fill-13"></path>
                    <path d="M10.8074,11.3848 C10.7144,11.3848 10.6394,11.3098 10.6394,11.2168 C10.6394,11.1248 10.7144,11.0488 10.8074,11.0488 C10.9004,11.0488 10.9754,11.1248 10.9754,11.2168 C10.9754,11.3098 10.9004,11.3848 10.8074,11.3848" id="Fill-15"></path>
                    <path d="M12.2466,12.9693 C12.1426,12.9693 12.0576,12.8843 12.0576,12.7803 C12.0576,12.6763 12.1426,12.5913 12.2466,12.5913 C12.3506,12.5913 12.4356,12.6763 12.4356,12.7803 C12.4356,12.8843 12.3506,12.9693 12.2466,12.9693" id="Fill-17"></path>
                    <path d="M13.6692,14.5701 C13.5532,14.5701 13.4592,14.4761 13.4592,14.3601 C13.4592,14.2441 13.5532,14.1501 13.6692,14.1501 C13.7852,14.1501 13.8792,14.2441 13.8792,14.3601 C13.8792,14.4761 13.7852,14.5701 13.6692,14.5701" id="Fill-19"></path>
                    <path d="M15.0701,16.1902 C14.9421,16.1902 14.8391,16.0872 14.8391,15.9592 C14.8391,15.8322 14.9421,15.7292 15.0701,15.7292 C15.1971,15.7292 15.3011,15.8322 15.3011,15.9592 C15.3011,16.0872 15.1971,16.1902 15.0701,16.1902" id="Fill-21"></path>
                    <path d="M16.4402,17.8367 C16.3012,17.8367 16.1882,17.7237 16.1882,17.5847 C16.1882,17.4457 16.3012,17.3337 16.4402,17.3337 C16.5792,17.3337 16.6922,17.4457 16.6922,17.5847 C16.6922,17.7237 16.5792,17.8367 16.4402,17.8367" id="Fill-23"></path>
                    <path d="M17.7783,19.5047 C17.6273,19.5047 17.5053,19.3827 17.5053,19.2317 C17.5053,19.0817 17.6273,18.9587 17.7783,18.9587 C17.9293,18.9587 18.0513,19.0817 18.0513,19.2317 C18.0513,19.3827 17.9293,19.5047 17.7783,19.5047" id="Fill-25"></path>
                    <path d="M19.0908,21.1956 C18.9288,21.1956 18.7968,21.0636 18.7968,20.9016 C18.7968,20.7396 18.9288,20.6086 19.0908,20.6086 C19.2528,20.6086 19.3848,20.7396 19.3848,20.9016 C19.3848,21.0636 19.2528,21.1956 19.0908,21.1956" id="Fill-27"></path>
                    <path d="M20.3855,22.9014 C20.2115,22.9014 20.0705,22.7604 20.0705,22.5874 C20.0705,22.4134 20.2115,22.2724 20.3855,22.2724 C20.5595,22.2724 20.7005,22.4134 20.7005,22.5874 C20.7005,22.7604 20.5595,22.9014 20.3855,22.9014" id="Fill-29"></path>
                    <path d="M21.6636,24.6216 C21.4786,24.6216 21.3276,24.4716 21.3276,24.2866 C21.3276,24.1006 21.4786,23.9506 21.6636,23.9506 C21.8486,23.9506 21.9996,24.1006 21.9996,24.2866 C21.9996,24.4716 21.8486,24.6216 21.6636,24.6216" id="Fill-31"></path>
                    <path d="M22.9194,26.3591 C22.7224,26.3591 22.5624,26.1991 22.5624,26.0021 C22.5624,25.8051 22.7224,25.6461 22.9194,25.6461 C23.1164,25.6461 23.2764,25.8051 23.2764,26.0021 C23.2764,26.1991 23.1164,26.3591 22.9194,26.3591" id="Fill-33"></path>
                    <path d="M24.1587,28.1089 C23.9497,28.1089 23.7807,27.9399 23.7807,27.7319 C23.7807,27.5229 23.9497,27.3539 24.1587,27.3539 C24.3667,27.3539 24.5367,27.5229 24.5367,27.7319 C24.5367,27.9399 24.3667,28.1089 24.1587,28.1089" id="Fill-35"></path>
                    <path d="M25.3806,29.8704 C25.1606,29.8704 24.9816,29.6924 24.9816,29.4724 C24.9816,29.2514 25.1606,29.0734 25.3806,29.0734 C25.6006,29.0734 25.7786,29.2514 25.7786,29.4724 C25.7786,29.6924 25.6006,29.8704 25.3806,29.8704" id="Fill-37"></path>
                    <path d="M26.5862,31.6477 C26.3542,31.6477 26.1662,31.4597 26.1662,31.2277 C26.1662,30.9967 26.3542,30.8087 26.5862,30.8087 C26.8182,30.8087 27.0052,30.9967 27.0052,31.2277 C27.0052,31.4597 26.8182,31.6477 26.5862,31.6477" id="Fill-39"></path>
                    <path d="M27.7693,33.4368 C27.5263,33.4368 27.3283,33.2398 27.3283,32.9958 C27.3283,32.7528 27.5263,32.5558 27.7693,32.5558 C28.0123,32.5558 28.2093,32.7528 28.2093,32.9958 C28.2093,33.2398 28.0123,33.4368 27.7693,33.4368" id="Fill-41"></path>
                    <path d="M28.9495,35.2315 C28.6945,35.2315 28.4875,35.0245 28.4875,34.7695 C28.4875,34.5145 28.6945,34.3085 28.9495,34.3085 C29.2045,34.3085 29.4105,34.5145 29.4105,34.7695 C29.4105,35.0245 29.2045,35.2315 28.9495,35.2315" id="Fill-43"></path>
                    <g id="Group-47" transform="translate(27.000000, 33.065300)">
                        <path d="M0.8059,4.0141 C1.4979,5.0381 2.8889,5.3081 3.9129,4.6171 C4.9379,3.9251 5.2069,2.5341 4.5159,1.5091 C3.8239,0.4851 2.4329,0.2151 1.4089,0.9071 C0.3839,1.5981 0.1149,2.9901 0.8059,4.0141" id="Fill-45"></path>
                    </g>
                </g>
                <g id="Page-1" transform="translate(66.548360, 79.105126) rotate(-72.000000) translate(-66.548360, -79.105126) translate(38.048360, 63.605126)">
                    <path d="M52.8829,27.0037 C52.8629,27.0037 52.8469,26.9877 52.8469,26.9687 C52.8469,26.9487 52.8629,26.9327 52.8829,26.9327 C52.9029,26.9327 52.9179,26.9487 52.9179,26.9687 C52.9179,26.9877 52.9029,27.0037 52.8829,27.0037" id="Fill-3" fill="#1D96DD"></path>
                    <path d="M51.6339,25.302 C51.6049,25.302 51.5809,25.278 51.5809,25.249 C51.5809,25.219 51.6049,25.196 51.6339,25.196 C51.6629,25.196 51.6869,25.219 51.6869,25.249 C51.6869,25.278 51.6629,25.302 51.6339,25.302" id="Fill-5" fill="#1D96DD"></path>
                    <path d="M50.3035,23.6619 C50.2645,23.6619 50.2325,23.6309 50.2325,23.5909 C50.2325,23.5519 50.2645,23.5199 50.3035,23.5199 C50.3425,23.5199 50.3745,23.5519 50.3745,23.5909 C50.3745,23.6309 50.3425,23.6619 50.3035,23.6619" id="Fill-7" fill="#1D96DD"></path>
                    <path d="M48.898,22.085 C48.849,22.085 48.81,22.045 48.81,21.997 C48.81,21.948 48.849,21.908 48.898,21.908 C48.947,21.908 48.987,21.948 48.987,21.997 C48.987,22.045 48.947,22.085 48.898,22.085" id="Fill-9" fill="#1D96DD"></path>
                    <path d="M47.4115,20.584 C47.3525,20.584 47.3045,20.536 47.3045,20.478 C47.3045,20.419 47.3525,20.372 47.4115,20.372 C47.4705,20.372 47.5175,20.419 47.5175,20.478 C47.5175,20.536 47.4705,20.584 47.4115,20.584" id="Fill-11" fill="#1D96DD"></path>
                    <path d="M45.8509,19.1582 C45.7829,19.1582 45.7269,19.1032 45.7269,19.0342 C45.7269,18.9662 45.7829,18.9102 45.8509,18.9102 C45.9199,18.9102 45.9749,18.9662 45.9749,19.0342 C45.9749,19.1032 45.9199,19.1582 45.8509,19.1582" id="Fill-13" fill="#1D96DD"></path>
                    <path d="M44.1986,17.8382 C44.1206,17.8382 44.0566,17.7752 44.0566,17.6962 C44.0566,17.6182 44.1206,17.5552 44.1986,17.5552 C44.2766,17.5552 44.3406,17.6182 44.3406,17.6962 C44.3406,17.7752 44.2766,17.8382 44.1986,17.8382" id="Fill-15" fill="#1D96DD"></path>
                    <path d="M42.4207,16.6912 C42.3327,16.6912 42.2617,16.6202 42.2617,16.5322 C42.2617,16.4442 42.3327,16.3722 42.4207,16.3722 C42.5087,16.3722 42.5807,16.4442 42.5807,16.5322 C42.5807,16.6202 42.5087,16.6912 42.4207,16.6912" id="Fill-17" fill="#1D96DD"></path>
                    <path d="M40.526,15.7498 C40.428,15.7498 40.349,15.6708 40.349,15.5728 C40.349,15.4748 40.428,15.3958 40.526,15.3958 C40.624,15.3958 40.703,15.4748 40.703,15.5728 C40.703,15.6708 40.624,15.7498 40.526,15.7498" id="Fill-19" fill="#1D96DD"></path>
                    <path d="M38.5343,15.0264 C38.4263,15.0264 38.3393,14.9394 38.3393,14.8314 C38.3393,14.7234 38.4263,14.6364 38.5343,14.6364 C38.6413,14.6364 38.7283,14.7234 38.7283,14.8314 C38.7283,14.9394 38.6413,15.0264 38.5343,15.0264" id="Fill-21" fill="#1D96DD"></path>
                    <path d="M36.4764,14.512 C36.3594,14.512 36.2644,14.417 36.2644,14.299 C36.2644,14.182 36.3594,14.087 36.4764,14.087 C36.5934,14.087 36.6884,14.182 36.6884,14.299 C36.6884,14.417 36.5934,14.512 36.4764,14.512" id="Fill-23" fill="#1D96DD"></path>
                    <path d="M34.3748,14.211 C34.2478,14.211 34.1448,14.108 34.1448,13.981 C34.1448,13.854 34.2478,13.751 34.3748,13.751 C34.5018,13.751 34.6048,13.854 34.6048,13.981 C34.6048,14.108 34.5018,14.211 34.3748,14.211" id="Fill-25" fill="#1D96DD"></path>
                    <path d="M32.2535,14.0916 C32.1165,14.0916 32.0055,13.9806 32.0055,13.8436 C32.0055,13.7066 32.1165,13.5956 32.2535,13.5956 C32.3905,13.5956 32.5015,13.7066 32.5015,13.8436 C32.5015,13.9806 32.3905,14.0916 32.2535,14.0916" id="Fill-27" fill="#1D96DD"></path>
                    <path d="M30.1275,14.1206 C29.9805,14.1206 29.8615,14.0016 29.8615,13.8546 C29.8615,13.7086 29.9805,13.5896 30.1275,13.5896 C30.2745,13.5896 30.3935,13.7086 30.3935,13.8546 C30.3935,14.0016 30.2745,14.1206 30.1275,14.1206" id="Fill-29" fill="#1D96DD"></path>
                    <path d="M28.0069,14.2434 C27.8499,14.2434 27.7239,14.1164 27.7239,13.9604 C27.7239,13.8034 27.8499,13.6764 28.0069,13.6764 C28.1629,13.6764 28.2899,13.8034 28.2899,13.9604 C28.2899,14.1164 28.1629,14.2434 28.0069,14.2434" id="Fill-31" fill="#1D96DD"></path>
                    <path d="M25.8866,14.4236 C25.7206,14.4236 25.5856,14.2886 25.5856,14.1226 C25.5856,13.9566 25.7206,13.8216 25.8866,13.8216 C26.0526,13.8216 26.1876,13.9566 26.1876,14.1226 C26.1876,14.2886 26.0526,14.4236 25.8866,14.4236" id="Fill-33" fill="#1D96DD"></path>
                    <path d="M23.7655,14.6316 C23.5895,14.6316 23.4465,14.4886 23.4465,14.3126 C23.4465,14.1366 23.5895,13.9946 23.7655,13.9946 C23.9415,13.9946 24.0845,14.1366 24.0845,14.3126 C24.0845,14.4886 23.9415,14.6316 23.7655,14.6316" id="Fill-35" fill="#1D96DD"></path>
                    <path d="M21.6483,14.844 C21.4623,14.844 21.3113,14.693 21.3113,14.508 C21.3113,14.322 21.4623,14.171 21.6483,14.171 C21.8343,14.171 21.9843,14.322 21.9843,14.508 C21.9843,14.693 21.8343,14.844 21.6483,14.844" id="Fill-37" fill="#1D96DD"></path>
                    <path d="M19.525,15.0405 C19.329,15.0405 19.171,14.8815 19.171,14.6865 C19.171,14.4905 19.329,14.3325 19.525,14.3325 C19.72,14.3325 19.879,14.4905 19.879,14.6865 C19.879,14.8815 19.72,15.0405 19.525,15.0405" id="Fill-39" fill="#1D96DD"></path>
                    <path d="M17.4024,15.2049 C17.1974,15.2049 17.0304,15.0379 17.0304,14.8329 C17.0304,14.6279 17.1974,14.4609 17.4024,14.4609 C17.6074,14.4609 17.7744,14.6279 17.7744,14.8329 C17.7744,15.0379 17.6074,15.2049 17.4024,15.2049" id="Fill-41" fill="#1D96DD"></path>
                    <path d="M15.2747,15.3303 C15.0597,15.3303 14.8847,15.1563 14.8847,14.9413 C14.8847,14.7253 15.0597,14.5513 15.2747,14.5513 C15.4897,14.5513 15.6637,14.7253 15.6637,14.9413 C15.6637,15.1563 15.4897,15.3303 15.2747,15.3303" id="Fill-43" fill="#1D96DD"></path>
                    <path d="M13.1468,15.4075 C12.9218,15.4075 12.7398,15.2255 12.7398,15.0005 C12.7398,14.7755 12.9218,14.5935 13.1468,14.5935 C13.3718,14.5935 13.5538,14.7755 13.5538,15.0005 C13.5538,15.2255 13.3718,15.4075 13.1468,15.4075" id="Fill-45" fill="#1D96DD"></path>
                    <path d="M11.0189,15.4275 C10.7839,15.4275 10.5939,15.2375 10.5939,15.0025 C10.5939,14.7685 10.7839,14.5775 11.0189,14.5775 C11.2539,14.5775 11.4439,14.7685 11.4439,15.0025 C11.4439,15.2375 11.2539,15.4275 11.0189,15.4275" id="Fill-47" fill="#1D96DD"></path>
                    <path d="M8.8927,15.3765 C8.6477,15.3765 8.4497,15.1785 8.4497,14.9335 C8.4497,14.6895 8.6477,14.4915 8.8927,14.4915 C9.1367,14.4915 9.3357,14.6895 9.3357,14.9335 C9.3357,15.1785 9.1367,15.3765 8.8927,15.3765" id="Fill-49" fill="#1D96DD"></path>
                    <path d="M6.7669,15.2591 C6.5129,15.2591 6.3069,15.0531 6.3069,14.7991 C6.3069,14.5451 6.5129,14.3381 6.7669,14.3381 C7.0209,14.3381 7.2269,14.5451 7.2269,14.7991 C7.2269,15.0531 7.0209,15.2591 6.7669,15.2591" id="Fill-51" fill="#1D96DD"></path>
                    <path d="M5.6117,15.1697 C5.3477,15.1697 5.1337,14.9557 5.1337,14.6917 C5.1337,14.4277 5.3477,14.2137 5.6117,14.2137 C5.8757,14.2137 6.0897,14.4277 6.0897,14.6917 C6.0897,14.9557 5.8757,15.1697 5.6117,15.1697" id="Fill-53" fill="#1D96DD"></path>
                    <path d="M5.0409,12.3609 C3.8159,12.1929 2.6879,13.0509 2.5199,14.2749 C2.3529,15.4999 3.2099,16.6289 4.4339,16.7959 C5.6589,16.9629 6.7879,16.1059 6.9549,14.8819 C7.1229,13.6569 6.2659,12.5279 5.0409,12.3609" id="Fill-55" fill="#1D96DD"></path>
                    <path d="M51.0672,27.2549 C51.0362,27.2549 51.0102,27.2299 51.0102,27.1979 C51.0102,27.1669 51.0362,27.1419 51.0672,27.1419 C51.0982,27.1419 51.1232,27.1669 51.1232,27.1979 C51.1232,27.2299 51.0982,27.2549 51.0672,27.2549" id="Fill-61" fill="#1D96DD"></path>
                    <path d="M49.1991,26.2595 C49.1571,26.2595 49.1231,26.2255 49.1231,26.1845 C49.1231,26.1425 49.1571,26.1085 49.1991,26.1085 C49.2411,26.1085 49.2741,26.1425 49.2741,26.1845 C49.2741,26.2255 49.2411,26.2595 49.1991,26.2595" id="Fill-63" fill="#1D96DD"></path>
                    <path d="M47.2994,25.3347 C47.2474,25.3347 47.2054,25.2927 47.2054,25.2407 C47.2054,25.1887 47.2474,25.1457 47.2994,25.1457 C47.3514,25.1457 47.3934,25.1887 47.3934,25.2407 C47.3934,25.2927 47.3514,25.3347 47.2994,25.3347" id="Fill-65" fill="#1D96DD"></path>
                    <path d="M45.3726,24.4561 C45.3106,24.4561 45.2596,24.4051 45.2596,24.3431 C45.2596,24.2801 45.3106,24.2301 45.3726,24.2301 C45.4346,24.2301 45.4856,24.2801 45.4856,24.3431 C45.4856,24.4051 45.4346,24.4561 45.3726,24.4561" id="Fill-67" fill="#1D96DD"></path>
                    <path d="M43.4329,23.6077 C43.3599,23.6077 43.3009,23.5487 43.3009,23.4757 C43.3009,23.4027 43.3599,23.3437 43.4329,23.3437 C43.5059,23.3437 43.5649,23.4027 43.5649,23.4757 C43.5649,23.5487 43.5059,23.6077 43.4329,23.6077" id="Fill-69" fill="#1D96DD"></path>
                    <path d="M41.4893,22.7705 C41.4063,22.7705 41.3383,22.7035 41.3383,22.6195 C41.3383,22.5365 41.4063,22.4685 41.4893,22.4685 C41.5723,22.4685 41.6403,22.5365 41.6403,22.6195 C41.6403,22.7035 41.5723,22.7705 41.4893,22.7705" id="Fill-71" fill="#1D96DD"></path>
                    <path d="M39.5474,21.927 C39.4534,21.927 39.3774,21.851 39.3774,21.757 C39.3774,21.663 39.4534,21.587 39.5474,21.587 C39.6414,21.587 39.7174,21.663 39.7174,21.757 C39.7174,21.851 39.6414,21.927 39.5474,21.927" id="Fill-73" fill="#1D96DD"></path>
                    <path d="M37.6053,21.0813 C37.5013,21.0813 37.4163,20.9963 37.4163,20.8923 C37.4163,20.7883 37.5013,20.7043 37.6053,20.7043 C37.7093,20.7043 37.7933,20.7883 37.7933,20.8923 C37.7933,20.9963 37.7093,21.0813 37.6053,21.0813" id="Fill-75" fill="#1D96DD"></path>
                    <path d="M35.6595,20.2459 C35.5445,20.2459 35.4515,20.1529 35.4515,20.0379 C35.4515,19.9239 35.5445,19.8309 35.6595,19.8309 C35.7745,19.8309 35.8665,19.9239 35.8665,20.0379 C35.8665,20.1529 35.7745,20.2459 35.6595,20.2459" id="Fill-77" fill="#1D96DD"></path>
                    <path d="M33.7017,19.4361 C33.5767,19.4361 33.4757,19.3351 33.4757,19.2101 C33.4757,19.0851 33.5767,18.9831 33.7017,18.9831 C33.8267,18.9831 33.9277,19.0851 33.9277,19.2101 C33.9277,19.3351 33.8267,19.4361 33.7017,19.4361" id="Fill-79" fill="#1D96DD"></path>
                    <path d="M31.7323,18.6541 C31.5973,18.6541 31.4873,18.5441 31.4873,18.4091 C31.4873,18.2731 31.5973,18.1641 31.7323,18.1641 C31.8673,18.1641 31.9773,18.2731 31.9773,18.4091 C31.9773,18.5441 31.8673,18.6541 31.7323,18.6541" id="Fill-81" fill="#1D96DD"></path>
                    <path d="M29.7523,17.905 C29.6063,17.905 29.4883,17.787 29.4883,17.641 C29.4883,17.495 29.6063,17.377 29.7523,17.377 C29.8983,17.377 30.0163,17.495 30.0163,17.641 C30.0163,17.787 29.8983,17.905 29.7523,17.905" id="Fill-83" fill="#1D96DD"></path>
                    <path d="M27.7564,17.1941 C27.6004,17.1941 27.4734,17.0671 27.4734,16.9111 C27.4734,16.7551 27.6004,16.6281 27.7564,16.6281 C27.9124,16.6281 28.0394,16.7551 28.0394,16.9111 C28.0394,17.0671 27.9124,17.1941 27.7564,17.1941" id="Fill-85" fill="#1D96DD"></path>
                    <path d="M25.745,16.5244 C25.578,16.5244 25.443,16.3894 25.443,16.2224 C25.443,16.0554 25.578,15.9204 25.745,15.9204 C25.912,15.9204 26.047,16.0554 26.047,16.2224 C26.047,16.3894 25.912,16.5244 25.745,16.5244" id="Fill-87" fill="#1D96DD"></path>
                    <path d="M23.7142,15.8997 C23.5372,15.8997 23.3932,15.7557 23.3932,15.5787 C23.3932,15.4017 23.5372,15.2587 23.7142,15.2587 C23.8912,15.2587 24.0352,15.4017 24.0352,15.5787 C24.0352,15.7557 23.8912,15.8997 23.7142,15.8997" id="Fill-89" fill="#1D96DD"></path>
                    <path d="M21.6746,15.3181 C21.4876,15.3181 21.3356,15.1661 21.3356,14.9781 C21.3356,14.7911 21.4876,14.6391 21.6746,14.6391 C21.8616,14.6391 22.0146,14.7911 22.0146,14.9781 C22.0146,15.1661 21.8616,15.3181 21.6746,15.3181" id="Fill-91" fill="#1D96DD"></path>
                    <path d="M19.6251,14.7717 C19.4271,14.7717 19.2671,14.6107 19.2671,14.4137 C19.2671,14.2157 19.4271,14.0547 19.6251,14.0547 C19.8231,14.0547 19.9831,14.2157 19.9831,14.4137 C19.9831,14.6107 19.8231,14.7717 19.6251,14.7717" id="Fill-93" fill="#1D96DD"></path>
                    <path d="M17.5655,14.263 C17.3575,14.263 17.1885,14.094 17.1885,13.886 C17.1885,13.677 17.3575,13.509 17.5655,13.509 C17.7735,13.509 17.9425,13.677 17.9425,13.886 C17.9425,14.094 17.7735,14.263 17.5655,14.263" id="Fill-95" fill="#1D96DD"></path>
                    <path d="M15.4959,13.7908 C15.2769,13.7908 15.0999,13.6138 15.0999,13.3948 C15.0999,13.1758 15.2769,12.9988 15.4959,12.9988 C15.7149,12.9988 15.8919,13.1758 15.8919,13.3948 C15.8919,13.6138 15.7149,13.7908 15.4959,13.7908" id="Fill-97" fill="#1D96DD"></path>
                    <path d="M13.4195,13.3521 C13.1905,13.3521 13.0045,13.1661 13.0045,12.9371 C13.0045,12.7081 13.1905,12.5221 13.4195,12.5221 C13.6485,12.5221 13.8345,12.7081 13.8345,12.9371 C13.8345,13.1661 13.6485,13.3521 13.4195,13.3521" id="Fill-99" fill="#1D96DD"></path>
                    <path d="M11.3343,12.9444 C11.0943,12.9444 10.9003,12.7504 10.9003,12.5104 C10.9003,12.2704 11.0943,12.0764 11.3343,12.0764 C11.5743,12.0764 11.7683,12.2704 11.7683,12.5104 C11.7683,12.7504 11.5743,12.9444 11.3343,12.9444" id="Fill-101" fill="#1D96DD"></path>
                    <path d="M9.2435,12.564 C8.9935,12.564 8.7905,12.361 8.7905,12.111 C8.7905,11.861 8.9935,11.659 9.2435,11.659 C9.4935,11.659 9.6965,11.861 9.6965,12.111 C9.6965,12.361 9.4935,12.564 9.2435,12.564" id="Fill-103" fill="#1D96DD"></path>
                    <path d="M7.4906,12.2669 C7.2306,12.2669 7.0186,12.0559 7.0186,11.7959 C7.0186,11.5349 7.2306,11.3239 7.4906,11.3239 C7.7506,11.3239 7.9626,11.5349 7.9626,11.7959 C7.9626,12.0559 7.7506,12.2669 7.4906,12.2669" id="Fill-105" fill="#1D96DD"></path>
                    <path d="M7.0225,9.4307 C5.8065,9.2087 4.6405,10.0137 4.4185,11.2297 C4.1965,12.4457 5.0015,13.6117 6.2175,13.8337 C7.4335,14.0567 8.5995,13.2507 8.8215,12.0347 C9.0435,10.8187 8.2385,9.6527 7.0225,9.4307" id="Fill-107" fill="#1D96DD"></path>
                    <path d="M51.6148,26.3572 C51.5878,26.3572 51.5658,26.3352 51.5658,26.3072 C51.5658,26.2802 51.5878,26.2582 51.6148,26.2582 C51.6428,26.2582 51.6648,26.2802 51.6648,26.3072 C51.6648,26.3352 51.6428,26.3572 51.6148,26.3572" id="Fill-113" fill="#1D96DD"></path>
                    <path d="M49.9845,25.0113 C49.9475,25.0113 49.9185,24.9813 49.9185,24.9453 C49.9185,24.9083 49.9475,24.8793 49.9845,24.8793 C50.0215,24.8793 50.0505,24.9083 50.0505,24.9453 C50.0505,24.9813 50.0215,25.0113 49.9845,25.0113" id="Fill-115" fill="#1D96DD"></path>
                    <path d="M48.3177,23.7083 C48.2717,23.7083 48.2347,23.6713 48.2347,23.6253 C48.2347,23.5803 48.2717,23.5423 48.3177,23.5423 C48.3637,23.5423 48.4007,23.5803 48.4007,23.6253 C48.4007,23.6713 48.3637,23.7083 48.3177,23.7083" id="Fill-117" fill="#1D96DD"></path>
                    <path d="M46.6182,22.448 C46.5632,22.448 46.5192,22.403 46.5192,22.349 C46.5192,22.294 46.5632,22.249 46.6182,22.249 C46.6732,22.249 46.7172,22.294 46.7172,22.349 C46.7172,22.403 46.6732,22.448 46.6182,22.448" id="Fill-119" fill="#1D96DD"></path>
                    <path d="M44.889,21.2276 C44.825,21.2276 44.773,21.1756 44.773,21.1116 C44.773,21.0476 44.825,20.9956 44.889,20.9956 C44.953,20.9956 45.005,21.0476 45.005,21.1116 C45.005,21.1756 44.953,21.2276 44.889,21.2276" id="Fill-121" fill="#1D96DD"></path>
                    <path d="M43.1322,20.0476 C43.0592,20.0476 43.0002,19.9886 43.0002,19.9156 C43.0002,19.8426 43.0592,19.7826 43.1322,19.7826 C43.2052,19.7826 43.2642,19.8426 43.2642,19.9156 C43.2642,19.9886 43.2052,20.0476 43.1322,20.0476" id="Fill-123" fill="#1D96DD"></path>
                    <path d="M41.3541,18.9004 C41.2721,18.9004 41.2051,18.8334 41.2051,18.7514 C41.2051,18.6694 41.2721,18.6024 41.3541,18.6024 C41.4361,18.6024 41.5031,18.6694 41.5031,18.7514 C41.5031,18.8334 41.4361,18.9004 41.3541,18.9004" id="Fill-125" fill="#1D96DD"></path>
                    <path d="M39.5592,17.78 C39.4672,17.78 39.3932,17.706 39.3932,17.615 C39.3932,17.523 39.4672,17.449 39.5592,17.449 C39.6502,17.449 39.7252,17.523 39.7252,17.615 C39.7252,17.706 39.6502,17.78 39.5592,17.78" id="Fill-127" fill="#1D96DD"></path>
                    <path d="M37.7489,16.6834 C37.6479,16.6834 37.5669,16.6014 37.5669,16.5014 C37.5669,16.4004 37.6479,16.3194 37.7489,16.3194 C37.8489,16.3194 37.9309,16.4004 37.9309,16.5014 C37.9309,16.6014 37.8489,16.6834 37.7489,16.6834" id="Fill-129" fill="#1D96DD"></path>
                    <path d="M35.9195,15.6165 C35.8095,15.6165 35.7205,15.5275 35.7205,15.4175 C35.7205,15.3085 35.8095,15.2195 35.9195,15.2195 C36.0295,15.2195 36.1185,15.3085 36.1185,15.4175 C36.1185,15.5275 36.0295,15.6165 35.9195,15.6165" id="Fill-131" fill="#1D96DD"></path>
                    <path d="M34.0706,14.5845 C33.9516,14.5845 33.8556,14.4885 33.8556,14.3695 C33.8556,14.2505 33.9516,14.1545 34.0706,14.1545 C34.1896,14.1545 34.2856,14.2505 34.2856,14.3695 C34.2856,14.4885 34.1896,14.5845 34.0706,14.5845" id="Fill-133" fill="#1D96DD"></path>
                    <path d="M32.2052,13.5882 C32.0772,13.5882 31.9732,13.4842 31.9732,13.3562 C31.9732,13.2282 32.0772,13.1252 32.2052,13.1252 C32.3332,13.1252 32.4372,13.2282 32.4372,13.3562 C32.4372,13.4842 32.3332,13.5882 32.2052,13.5882" id="Fill-135" fill="#1D96DD"></path>
                    <path d="M30.3162,12.6372 C30.1792,12.6372 30.0682,12.5262 30.0682,12.3892 C30.0682,12.2522 30.1792,12.1402 30.3162,12.1402 C30.4532,12.1402 30.5642,12.2522 30.5642,12.3892 C30.5642,12.5262 30.4532,12.6372 30.3162,12.6372" id="Fill-137" fill="#1D96DD"></path>
                    <path d="M28.4034,11.7315 C28.2574,11.7315 28.1384,11.6135 28.1384,11.4665 C28.1384,11.3205 28.2574,11.2015 28.4034,11.2015 C28.5494,11.2015 28.6684,11.3205 28.6684,11.4665 C28.6684,11.6135 28.5494,11.7315 28.4034,11.7315" id="Fill-139" fill="#1D96DD"></path>
                    <path d="M26.4659,10.8736 C26.3109,10.8736 26.1849,10.7476 26.1849,10.5926 C26.1849,10.4366 26.3109,10.3106 26.4659,10.3106 C26.6219,10.3106 26.7469,10.4366 26.7469,10.5926 C26.7469,10.7476 26.6219,10.8736 26.4659,10.8736" id="Fill-141" fill="#1D96DD"></path>
                    <path d="M24.503,10.0701 C24.339,10.0701 24.205,9.9371 24.205,9.7721 C24.205,9.6081 24.339,9.4741 24.503,9.4741 C24.668,9.4741 24.801,9.6081 24.801,9.7721 C24.801,9.9371 24.668,10.0701 24.503,10.0701" id="Fill-143" fill="#1D96DD"></path>
                    <path d="M22.5199,9.3108 C22.3459,9.3108 22.2049,9.1698 22.2049,8.9968 C22.2049,8.8228 22.3459,8.6818 22.5199,8.6818 C22.6929,8.6818 22.8339,8.8228 22.8339,8.9968 C22.8339,9.1698 22.6929,9.3108 22.5199,9.3108" id="Fill-145" fill="#1D96DD"></path>
                    <path d="M20.5216,8.6011 C20.3386,8.6011 20.1906,8.4531 20.1906,8.2701 C20.1906,8.0871 20.3386,7.9391 20.5216,7.9391 C20.7046,7.9391 20.8526,8.0871 20.8526,8.2701 C20.8526,8.4531 20.7046,8.6011 20.5216,8.6011" id="Fill-147" fill="#1D96DD"></path>
                    <path d="M18.5072,7.9375 C18.3152,7.9375 18.1592,7.7815 18.1592,7.5905 C18.1592,7.3975 18.3152,7.2425 18.5072,7.2425 C18.6992,7.2425 18.8552,7.3975 18.8552,7.5905 C18.8552,7.7815 18.6992,7.9375 18.5072,7.9375" id="Fill-149" fill="#1D96DD"></path>
                    <path d="M16.4759,7.3133 C16.2749,7.3133 16.1119,7.1503 16.1119,6.9493 C16.1119,6.7483 16.2749,6.5853 16.4759,6.5853 C16.6769,6.5853 16.8399,6.7483 16.8399,6.9493 C16.8399,7.1503 16.6769,7.3133 16.4759,7.3133" id="Fill-151" fill="#1D96DD"></path>
                    <path d="M14.4366,6.7278 C14.2266,6.7278 14.0556,6.5578 14.0556,6.3468 C14.0556,6.1368 14.2266,5.9668 14.4366,5.9668 C14.6466,5.9668 14.8176,6.1368 14.8176,6.3468 C14.8176,6.5578 14.6466,6.7278 14.4366,6.7278" id="Fill-153" fill="#1D96DD"></path>
                    <path d="M12.3873,6.178 C12.1683,6.178 11.9903,6 11.9903,5.781 C11.9903,5.561 12.1683,5.384 12.3873,5.384 C12.6063,5.384 12.7843,5.561 12.7843,5.781 C12.7843,6 12.6063,6.178 12.3873,6.178" id="Fill-155" fill="#1D96DD"></path>
                    <path d="M10.3287,5.6624 C10.0997,5.6624 9.9147,5.4774 9.9147,5.2484 C9.9147,5.0204 10.0997,4.8344 10.3287,4.8344 C10.5577,4.8344 10.7427,5.0204 10.7427,5.2484 C10.7427,5.4774 10.5577,5.6624 10.3287,5.6624" id="Fill-157" fill="#1D96DD"></path>
                    <path d="M8.2611,5.1756 C8.0231,5.1756 7.8311,4.9826 7.8311,4.7456 C7.8311,4.5076 8.0231,4.3146 8.2611,4.3146 C8.4991,4.3146 8.6911,4.5076 8.6911,4.7456 C8.6911,4.9826 8.4991,5.1756 8.2611,5.1756" id="Fill-159" fill="#1D96DD"></path>
                    <path d="M6.1939,4.6941 C5.9469,4.6941 5.7469,4.4941 5.7469,4.2471 C5.7469,4.0001 5.9469,3.8001 6.1939,3.8001 C6.4409,3.8001 6.6409,4.0001 6.6409,4.2471 C6.6409,4.4941 6.4409,4.6941 6.1939,4.6941" id="Fill-161" fill="#1D96DD"></path>
                    <path d="M4.1295,4.1973 C3.8735,4.1973 3.6665,3.9893 3.6665,3.7333 C3.6665,3.4783 3.8735,3.2703 4.1295,3.2703 C4.3855,3.2703 4.5925,3.4783 4.5925,3.7333 C4.5925,3.9893 4.3855,4.1973 4.1295,4.1973" id="Fill-163" fill="#1D96DD"></path>
                    <g id="Group-167" transform="translate(0.000000, 0.602800)">
                        <mask id="mask-26" fill="white">
                            <use xlink:href="#path-25"></use>
                        </mask>
                        <g id="Clip-166"></g>
                        <path d="M2.8123,0.4724 C1.6183,0.1554 0.3923,0.8674 0.0753,2.0624 C-0.2417,3.2564 0.4703,4.4824 1.6653,4.7994 C2.8593,5.1164 4.0853,4.4044 4.4023,3.2094 C4.7183,2.0144 4.0073,0.7894 2.8123,0.4724" id="Fill-165" fill="#1D96DD" mask="url(#mask-26)"></path>
                    </g>
                </g>
            </g>
        </g>
    </g>
</svg>