<?xml version="1.0" encoding="UTF-8" standalone="no"?>
<svg width="76px" height="152px" viewBox="0 0 76 152" version="1.1" xmlns="http://www.w3.org/2000/svg" xmlns:xlink="http://www.w3.org/1999/xlink">
    <!-- Generator: Sketch 39.1 (31720) - http://www.bohemiancoding.com/sketch -->
    <title>Dots_9</title>
    <desc>Created with Sketch.</desc>
    <defs>
        <polygon id="path-1" points="0.3966 1 1.3966 1 1.3966 0.0922 0.3966 0.0922 0.3966 1"></polygon>
        <polygon id="path-3" points="0.5193 1 1.5193 1 1.5193 0.1381 0.5193 0.1381 0.5193 1"></polygon>
        <polygon id="path-5" points="0.6395 1 1.6395 1 1.6395 0.139 0.6395 0.139"></polygon>
        <polygon id="path-7" points="0.76 1 1.76 1 1.76 0.088 0.76 0.088"></polygon>
    </defs>
    <g id="Main-Page" stroke="none" stroke-width="1" fill="none" fill-rule="evenodd">
        <g id="Mobile-Portrait" transform="translate(-38.000000, -2114.000000)">
            <g id="Dots_9" transform="translate(-21.000000, 2102.000000)">
                <g id="Page-1" transform="translate(124.000000, 138.000000)" fill="#1D96DD">
                    <path d="M5.1513,0.3728 C5.1273,0.3728 5.1073,0.3528 5.1073,0.3288 C5.1073,0.3048 5.1273,0.2848 5.1513,0.2848 C5.1753,0.2848 5.1953,0.3048 5.1953,0.3288 C5.1953,0.3528 5.1753,0.3728 5.1513,0.3728" id="Fill-1"></path>
                    <path d="M3.4946,1.748 C3.4456,1.748 3.4066,1.709 3.4066,1.66 C3.4066,1.612 3.4456,1.572 3.4946,1.572 C3.5426,1.572 3.5826,1.612 3.5826,1.66 C3.5826,1.709 3.5426,1.748 3.4946,1.748" id="Fill-3"></path>
                    <path d="M1.9172,3.2178 C1.8442,3.2178 1.7852,3.1588 1.7852,3.0858 C1.7852,3.0138 1.8442,2.9548 1.9172,2.9548 C1.9902,2.9548 2.0492,3.0138 2.0492,3.0858 C2.0492,3.1588 1.9902,3.2178 1.9172,3.2178" id="Fill-5"></path>
                    <path d="M0.622,4.9448 C0.525,4.9448 0.447,4.8658 0.447,4.7698 C0.447,4.6728 0.525,4.5938 0.622,4.5938 C0.719,4.5938 0.798,4.6728 0.798,4.7698 C0.798,4.8658 0.719,4.9448 0.622,4.9448" id="Fill-7"></path>
                    <path d="M0.2194,7.0498 C0.0984,7.0498 0.0004,6.9518 0.0004,6.8308 C0.0004,6.7098 0.0984,6.6108 0.2194,6.6108 C0.3404,6.6108 0.4384,6.7098 0.4384,6.8308 C0.4384,6.9518 0.3404,7.0498 0.2194,7.0498" id="Fill-9"></path>
                    <path d="M1.0097,9.0024 C0.8647,9.0024 0.7467,8.8844 0.7467,8.7394 C0.7467,8.5944 0.8647,8.4764 1.0097,8.4764 C1.1547,8.4764 1.2727,8.5944 1.2727,8.7394 C1.2727,8.8844 1.1547,9.0024 1.0097,9.0024" id="Fill-11"></path>
                    <path d="M2.562,10.4968 C2.393,10.4968 2.255,10.3598 2.255,10.1898 C2.255,10.0198 2.393,9.8828 2.562,9.8828 C2.732,9.8828 2.869,10.0198 2.869,10.1898 C2.869,10.3598 2.732,10.4968 2.562,10.4968" id="Fill-13"></path>
                    <path d="M4.1936,11.9057 C3.9996,11.9057 3.8426,11.7487 3.8426,11.5547 C3.8426,11.3607 3.9996,11.2037 4.1936,11.2037 C4.3876,11.2037 4.5446,11.3607 4.5446,11.5547 C4.5446,11.7487 4.3876,11.9057 4.1936,11.9057" id="Fill-15"></path>
                    <path d="M5.8278,13.3105 C5.6098,13.3105 5.4328,13.1335 5.4328,12.9155 C5.4328,12.6975 5.6098,12.5215 5.8278,12.5215 C6.0458,12.5215 6.2228,12.6975 6.2228,12.9155 C6.2228,13.1335 6.0458,13.3105 5.8278,13.3105" id="Fill-17"></path>
                    <path d="M7.177,14.5259 C6.935,14.5259 6.738,14.3299 6.738,14.0869 C6.738,13.8449 6.935,13.6489 7.177,13.6489 C7.419,13.6489 7.615,13.8449 7.615,14.0869 C7.615,14.3299 7.419,14.5259 7.177,14.5259" id="Fill-19"></path>
                    <path d="M6.1836,16.2217 C7.0276,17.1237 8.4446,17.1707 9.3466,16.3267 C10.2496,15.4817 10.2966,14.0657 9.4516,13.1627 C8.6076,12.2607 7.1906,12.2137 6.2886,13.0587 C5.3856,13.9027 5.3396,15.3197 6.1836,16.2217" id="Fill-21"></path>
                </g>
                <g id="Page-1" transform="translate(80.135634, 83.688316) rotate(48.000000) translate(-80.135634, -83.688316) translate(-1.864366, 49.688316)">
                    <path d="M15.0424,1.8438 C15.0174,1.8438 14.9974,1.8238 14.9974,1.7988 C14.9974,1.7738 15.0174,1.7528 15.0424,1.7528 C15.0674,1.7528 15.0874,1.7738 15.0874,1.7988 C15.0874,1.8238 15.0674,1.8438 15.0424,1.8438" id="Fill-16" fill="#1D96DD"></path>
                    <path d="M17.0312,2.5899 C17.0032,2.5899 16.9802,2.5669 16.9802,2.5389 C16.9802,2.5109 17.0032,2.4879 17.0312,2.4879 C17.0592,2.4879 17.0822,2.5109 17.0822,2.5389 C17.0822,2.5669 17.0592,2.5899 17.0312,2.5899" id="Fill-18" fill="#1D96DD"></path>
                    <path d="M18.9636,3.4817 C18.9326,3.4817 18.9066,3.4567 18.9066,3.4247 C18.9066,3.3937 18.9326,3.3687 18.9636,3.3687 C18.9946,3.3687 19.0206,3.3937 19.0206,3.4247 C19.0206,3.4567 18.9946,3.4817 18.9636,3.4817" id="Fill-20" fill="#1D96DD"></path>
                    <path d="M20.8352,4.491 C20.8002,4.491 20.7732,4.463 20.7732,4.429 C20.7732,4.394 20.8002,4.366 20.8352,4.366 C20.8692,4.366 20.8972,4.394 20.8972,4.429 C20.8972,4.463 20.8692,4.491 20.8352,4.491" id="Fill-22" fill="#1D96DD"></path>
                    <path d="M22.6398,5.6192 C22.6018,5.6192 22.5718,5.5892 22.5718,5.5512 C22.5718,5.5142 22.6018,5.4832 22.6398,5.4832 C22.6778,5.4832 22.7078,5.5142 22.7078,5.5512 C22.7078,5.5892 22.6778,5.6192 22.6398,5.6192" id="Fill-24" fill="#1D96DD"></path>
                    <path d="M24.4043,6.8103 C24.3633,6.8103 24.3303,6.7773 24.3303,6.7363 C24.3303,6.6963 24.3633,6.6633 24.4043,6.6633 C24.4443,6.6633 24.4773,6.6963 24.4773,6.7363 C24.4773,6.7773 24.4443,6.8103 24.4043,6.8103" id="Fill-26" fill="#1D96DD"></path>
                    <path d="M26.1315,8.0489 C26.0875,8.0489 26.0525,8.0129 26.0525,7.9699 C26.0525,7.9259 26.0875,7.8899 26.1315,7.8899 C26.1755,7.8899 26.2105,7.9259 26.2105,7.9699 C26.2105,8.0129 26.1755,8.0489 26.1315,8.0489" id="Fill-28" fill="#1D96DD"></path>
                    <path d="M27.8344,9.3272 C27.7874,9.3272 27.7494,9.2892 27.7494,9.2422 C27.7494,9.1952 27.7874,9.1572 27.8344,9.1572 C27.8814,9.1572 27.9194,9.1952 27.9194,9.2422 C27.9194,9.2892 27.8814,9.3272 27.8344,9.3272" id="Fill-30" fill="#1D96DD"></path>
                    <path d="M29.5129,10.6321 C29.4629,10.6321 29.4219,10.5911 29.4219,10.5411 C29.4219,10.4911 29.4629,10.4511 29.5129,10.4511 C29.5629,10.4511 29.6039,10.4911 29.6039,10.5411 C29.6039,10.5911 29.5629,10.6321 29.5129,10.6321" id="Fill-32" fill="#1D96DD"></path>
                    <path d="M31.177,11.961 C31.124,11.961 31.081,11.918 31.081,11.864 C31.081,11.811 31.124,11.768 31.177,11.768 C31.23,11.768 31.273,11.811 31.273,11.864 C31.273,11.918 31.23,11.961 31.177,11.961" id="Fill-34" fill="#1D96DD"></path>
                    <path d="M32.8247,13.3042 C32.7687,13.3042 32.7227,13.2582 32.7227,13.2022 C32.7227,13.1462 32.7687,13.1002 32.8247,13.1002 C32.8807,13.1002 32.9267,13.1462 32.9267,13.2022 C32.9267,13.2582 32.8807,13.3042 32.8247,13.3042" id="Fill-36" fill="#1D96DD"></path>
                    <path d="M34.4658,14.6607 C34.4058,14.6607 34.3578,14.6127 34.3578,14.5527 C34.3578,14.4937 34.4058,14.4447 34.4658,14.4447 C34.5248,14.4447 34.5738,14.4937 34.5738,14.5527 C34.5738,14.6127 34.5248,14.6607 34.4658,14.6607" id="Fill-38" fill="#1D96DD"></path>
                    <path d="M36.0981,16.0237 C36.0351,16.0237 35.9851,15.9727 35.9851,15.9107 C35.9851,15.8477 36.0351,15.7967 36.0981,15.7967 C36.1601,15.7967 36.2111,15.8477 36.2111,15.9107 C36.2111,15.9727 36.1601,16.0237 36.0981,16.0237" id="Fill-40" fill="#1D96DD"></path>
                    <path d="M37.726,17.3941 C37.66,17.3941 37.607,17.3411 37.607,17.2751 C37.607,17.2091 37.66,17.1561 37.726,17.1561 C37.792,17.1561 37.845,17.2091 37.845,17.2751 C37.845,17.3411 37.792,17.3941 37.726,17.3941" id="Fill-42" fill="#1D96DD"></path>
                    <path d="M39.3508,18.7708 C39.2818,18.7708 39.2258,18.7148 39.2258,18.6458 C39.2258,18.5768 39.2818,18.5208 39.3508,18.5208 C39.4198,18.5208 39.4758,18.5768 39.4758,18.6458 C39.4758,18.7148 39.4198,18.7708 39.3508,18.7708" id="Fill-44" fill="#1D96DD"></path>
                    <path d="M40.9707,20.1497 C40.8987,20.1497 40.8407,20.0917 40.8407,20.0197 C40.8407,19.9477 40.8987,19.8887 40.9707,19.8887 C41.0427,19.8887 41.1007,19.9477 41.1007,20.0197 C41.1007,20.0917 41.0427,20.1497 40.9707,20.1497" id="Fill-46" fill="#1D96DD"></path>
                    <path d="M42.5903,21.531 C42.5153,21.531 42.4543,21.47 42.4543,21.395 C42.4543,21.32 42.5153,21.259 42.5903,21.259 C42.6653,21.259 42.7263,21.32 42.7263,21.395 C42.7263,21.47 42.6653,21.531 42.5903,21.531" id="Fill-48" fill="#1D96DD"></path>
                    <path d="M44.2102,22.9136 C44.1322,22.9136 44.0682,22.8506 44.0682,22.7716 C44.0682,22.6936 44.1322,22.6306 44.2102,22.6306 C44.2882,22.6306 44.3522,22.6936 44.3522,22.7716 C44.3522,22.8506 44.2882,22.9136 44.2102,22.9136" id="Fill-50" fill="#1D96DD"></path>
                    <path d="M45.8254,24.2979 C45.7444,24.2979 45.6784,24.2319 45.6784,24.1499 C45.6784,24.0689 45.7444,24.0029 45.8254,24.0029 C45.9064,24.0029 45.9724,24.0689 45.9724,24.1499 C45.9724,24.2319 45.9064,24.2979 45.8254,24.2979" id="Fill-52" fill="#1D96DD"></path>
                    <path d="M47.4357,25.6902 C47.3507,25.6902 47.2827,25.6222 47.2827,25.5372 C47.2827,25.4522 47.3507,25.3842 47.4357,25.3842 C47.5207,25.3842 47.5887,25.4522 47.5887,25.5372 C47.5887,25.6222 47.5207,25.6902 47.4357,25.6902" id="Fill-54" fill="#1D96DD"></path>
                    <path d="M49.0459,27.084 C48.9579,27.084 48.8869,27.013 48.8869,26.925 C48.8869,26.838 48.9579,26.767 49.0459,26.767 C49.1339,26.767 49.2049,26.838 49.2049,26.925 C49.2049,27.013 49.1339,27.084 49.0459,27.084" id="Fill-56" fill="#1D96DD"></path>
                    <path d="M50.6601,28.4724 C50.5691,28.4724 50.4961,28.3994 50.4961,28.3084 C50.4961,28.2174 50.5691,28.1434 50.6601,28.1434 C50.7511,28.1434 50.8251,28.2174 50.8251,28.3084 C50.8251,28.3994 50.7511,28.4724 50.6601,28.4724" id="Fill-58" fill="#1D96DD"></path>
                    <path d="M52.2707,29.8658 C52.1767,29.8658 52.1007,29.7898 52.1007,29.6958 C52.1007,29.6018 52.1767,29.5258 52.2707,29.5258 C52.3647,29.5258 52.4407,29.6018 52.4407,29.6958 C52.4407,29.7898 52.3647,29.8658 52.2707,29.8658" id="Fill-60" fill="#1D96DD"></path>
                    <path d="M53.8752,31.2657 C53.7782,31.2657 53.6992,31.1867 53.6992,31.0897 C53.6992,30.9927 53.7782,30.9147 53.8752,30.9147 C53.9722,30.9147 54.0512,30.9927 54.0512,31.0897 C54.0512,31.1867 53.9722,31.2657 53.8752,31.2657" id="Fill-62" fill="#1D96DD"></path>
                    <path d="M55.4768,32.6695 C55.3768,32.6695 55.2958,32.5885 55.2958,32.4885 C55.2958,32.3875 55.3768,32.3065 55.4768,32.3065 C55.5768,32.3065 55.6578,32.3875 55.6578,32.4885 C55.6578,32.5885 55.5768,32.6695 55.4768,32.6695" id="Fill-64" fill="#1D96DD"></path>
                    <path d="M57.0771,34.0742 C56.9741,34.0742 56.8901,33.9902 56.8901,33.8872 C56.8901,33.7842 56.9741,33.7002 57.0771,33.7002 C57.1801,33.7002 57.2641,33.7842 57.2641,33.8872 C57.2641,33.9902 57.1801,34.0742 57.0771,34.0742" id="Fill-66" fill="#1D96DD"></path>
                    <path d="M58.6787,35.4781 C58.5727,35.4781 58.4857,35.3921 58.4857,35.2851 C58.4857,35.1791 58.5727,35.0931 58.6787,35.0931 C58.7847,35.0931 58.8717,35.1791 58.8717,35.2851 C58.8717,35.3921 58.7847,35.4781 58.6787,35.4781" id="Fill-68" fill="#1D96DD"></path>
                    <path d="M60.2815,36.8802 C60.1715,36.8802 60.0825,36.7912 60.0825,36.6822 C60.0825,36.5722 60.1715,36.4832 60.2815,36.4832 C60.3905,36.4832 60.4795,36.5722 60.4795,36.6822 C60.4795,36.7912 60.3905,36.8802 60.2815,36.8802" id="Fill-70" fill="#1D96DD"></path>
                    <path d="M61.8859,38.2805 C61.7729,38.2805 61.6819,38.1895 61.6819,38.0765 C61.6819,37.9635 61.7729,37.8725 61.8859,37.8725 C61.9989,37.8725 62.0899,37.9635 62.0899,38.0765 C62.0899,38.1895 61.9989,38.2805 61.8859,38.2805" id="Fill-72" fill="#1D96DD"></path>
                    <path d="M63.4926,39.6783 C63.3766,39.6783 63.2826,39.5843 63.2826,39.4683 C63.2826,39.3523 63.3766,39.2583 63.4926,39.2583 C63.6086,39.2583 63.7026,39.3523 63.7026,39.4683 C63.7026,39.5843 63.6086,39.6783 63.4926,39.6783" id="Fill-74" fill="#1D96DD"></path>
                    <path d="M65.1027,41.0723 C64.9837,41.0723 64.8877,40.9763 64.8877,40.8573 C64.8877,40.7383 64.9837,40.6413 65.1027,40.6413 C65.2217,40.6413 65.3177,40.7383 65.3177,40.8573 C65.3177,40.9763 65.2217,41.0723 65.1027,41.0723" id="Fill-76" fill="#1D96DD"></path>
                    <path d="M66.7153,42.4605 C66.5933,42.4605 66.4943,42.3615 66.4943,42.2395 C66.4943,42.1175 66.5933,42.0185 66.7153,42.0185 C66.8373,42.0185 66.9363,42.1175 66.9363,42.2395 C66.9363,42.3615 66.8373,42.4605 66.7153,42.4605" id="Fill-78" fill="#1D96DD"></path>
                    <path d="M68.3305,43.8426 C68.2055,43.8426 68.1035,43.7406 68.1035,43.6156 C68.1035,43.4906 68.2055,43.3886 68.3305,43.3886 C68.4555,43.3886 68.5575,43.4906 68.5575,43.6156 C68.5575,43.7406 68.4555,43.8426 68.3305,43.8426" id="Fill-80" fill="#1D96DD"></path>
                    <path d="M69.9514,45.2185 C69.8234,45.2185 69.7194,45.1145 69.7194,44.9865 C69.7194,44.8575 69.8234,44.7535 69.9514,44.7535 C70.0794,44.7535 70.1834,44.8575 70.1834,44.9865 C70.1834,45.1145 70.0794,45.2185 69.9514,45.2185" id="Fill-82" fill="#1D96DD"></path>
                    <path d="M71.5969,46.5716 C71.4659,46.5716 71.3589,46.4646 71.3589,46.3336 C71.3589,46.2026 71.4659,46.0956 71.5969,46.0956 C71.7289,46.0956 71.8349,46.2026 71.8349,46.3336 C71.8349,46.4646 71.7289,46.5716 71.5969,46.5716" id="Fill-84" fill="#1D96DD"></path>
                    <path d="M73.2778,47.8863 C73.1438,47.8863 73.0338,47.7773 73.0338,47.6423 C73.0338,47.5083 73.1438,47.3983 73.2778,47.3983 C73.4128,47.3983 73.5218,47.5083 73.5218,47.6423 C73.5218,47.7773 73.4128,47.8863 73.2778,47.8863" id="Fill-86" fill="#1D96DD"></path>
                    <path d="M74.9943,49.1475 C74.8563,49.1475 74.7453,49.0355 74.7453,48.8985 C74.7453,48.7605 74.8563,48.6485 74.9943,48.6485 C75.1323,48.6485 75.2443,48.7605 75.2443,48.8985 C75.2443,49.0355 75.1323,49.1475 74.9943,49.1475" id="Fill-88" fill="#1D96DD"></path>
                    <path d="M76.75,50.3528 C76.609,50.3528 76.495,50.2388 76.495,50.0978 C76.495,49.9568 76.609,49.8428 76.75,49.8428 C76.891,49.8428 77.005,49.9568 77.005,50.0978 C77.005,50.2388 76.891,50.3528 76.75,50.3528" id="Fill-90" fill="#1D96DD"></path>
                    <path d="M78.5449,51.4998 C78.4009,51.4998 78.2839,51.3828 78.2839,51.2388 C78.2839,51.0948 78.4009,50.9788 78.5449,50.9788 C78.6889,50.9788 78.8059,51.0948 78.8059,51.2388 C78.8059,51.3828 78.6889,51.4998 78.5449,51.4998" id="Fill-92" fill="#1D96DD"></path>
                    <path d="M80.3762,52.5855 C80.2292,52.5855 80.1102,52.4665 80.1102,52.3185 C80.1102,52.1715 80.2292,52.0525 80.3762,52.0525 C80.5232,52.0525 80.6422,52.1715 80.6422,52.3185 C80.6422,52.4665 80.5232,52.5855 80.3762,52.5855" id="Fill-94" fill="#1D96DD"></path>
                    <path d="M82.2424,53.6101 C82.0924,53.6101 81.9704,53.4881 81.9704,53.3381 C81.9704,53.1881 82.0924,53.0661 82.2424,53.0661 C82.3924,53.0661 82.5144,53.1881 82.5144,53.3381 C82.5144,53.4881 82.3924,53.6101 82.2424,53.6101" id="Fill-96" fill="#1D96DD"></path>
                    <path d="M84.1406,54.5735 C83.9876,54.5735 83.8626,54.4485 83.8626,54.2955 C83.8626,54.1425 83.9876,54.0175 84.1406,54.0175 C84.2936,54.0175 84.4186,54.1425 84.4186,54.2955 C84.4186,54.4485 84.2936,54.5735 84.1406,54.5735" id="Fill-98" fill="#1D96DD"></path>
                    <path d="M86.0678,55.4778 C85.9108,55.4778 85.7848,55.3508 85.7848,55.1948 C85.7848,55.0378 85.9108,54.9108 86.0678,54.9108 C86.2238,54.9108 86.3508,55.0378 86.3508,55.1948 C86.3508,55.3508 86.2238,55.4778 86.0678,55.4778" id="Fill-100" fill="#1D96DD"></path>
                    <path d="M88.0214,56.3238 C87.8614,56.3238 87.7324,56.1938 87.7324,56.0348 C87.7324,55.8748 87.8614,55.7458 88.0214,55.7458 C88.1814,55.7458 88.3104,55.8748 88.3104,56.0348 C88.3104,56.1938 88.1814,56.3238 88.0214,56.3238" id="Fill-102" fill="#1D96DD"></path>
                    <path d="M89.9997,57.1087 C89.8367,57.1087 89.7047,56.9767 89.7047,56.8137 C89.7047,56.6507 89.8367,56.5187 89.9997,56.5187 C90.1627,56.5187 90.2947,56.6507 90.2947,56.8137 C90.2947,56.9767 90.1627,57.1087 89.9997,57.1087" id="Fill-104" fill="#1D96DD"></path>
                    <path d="M91.9958,57.8477 C91.8298,57.8477 91.6958,57.7127 91.6958,57.5467 C91.6958,57.3817 91.8298,57.2467 91.9958,57.2467 C92.1618,57.2467 92.2968,57.3817 92.2968,57.5467 C92.2968,57.7127 92.1618,57.8477 91.9958,57.8477" id="Fill-106" fill="#1D96DD"></path>
                    <path d="M94.0078,58.5413 C93.8388,58.5413 93.7018,58.4043 93.7018,58.2353 C93.7018,58.0663 93.8388,57.9293 94.0078,57.9293 C94.1768,57.9293 94.3138,58.0663 94.3138,58.2353 C94.3138,58.4043 94.1768,58.5413 94.0078,58.5413" id="Fill-108" fill="#1D96DD"></path>
                    <path d="M96.0349,59.1892 C95.8629,59.1892 95.7229,59.0492 95.7229,58.8772 C95.7229,58.7052 95.8629,58.5652 96.0349,58.5652 C96.2069,58.5652 96.3469,58.7052 96.3469,58.8772 C96.3469,59.0492 96.2069,59.1892 96.0349,59.1892" id="Fill-110" fill="#1D96DD"></path>
                    <path d="M98.0747,59.7969 C97.8997,59.7969 97.7577,59.6549 97.7577,59.4799 C97.7577,59.3039 97.8997,59.1619 98.0747,59.1619 C98.2497,59.1619 98.3927,59.3039 98.3927,59.4799 C98.3927,59.6549 98.2497,59.7969 98.0747,59.7969" id="Fill-112" fill="#1D96DD"></path>
                    <path d="M100.1254,60.3636 C99.9474,60.3636 99.8024,60.2186 99.8024,60.0406 C99.8024,59.8616 99.9474,59.7176 100.1254,59.7176 C100.3044,59.7176 100.4484,59.8616 100.4484,60.0406 C100.4484,60.2186 100.3044,60.3636 100.1254,60.3636" id="Fill-114" fill="#1D96DD"></path>
                    <path d="M102.1857,60.896 C102.0047,60.896 101.8567,60.749 101.8567,60.567 C101.8567,60.386 102.0047,60.239 102.1857,60.239 C102.3677,60.239 102.5147,60.386 102.5147,60.567 C102.5147,60.749 102.3677,60.896 102.1857,60.896" id="Fill-116" fill="#1D96DD"></path>
                    <path d="M104.2531,61.3985 C104.0691,61.3985 103.9191,61.2485 103.9191,61.0635 C103.9191,60.8795 104.0691,60.7295 104.2531,60.7295 C104.4381,60.7295 104.5881,60.8795 104.5881,61.0635 C104.5881,61.2485 104.4381,61.3985 104.2531,61.3985" id="Fill-118" fill="#1D96DD"></path>
                    <path d="M106.3278,61.8723 C106.1398,61.8723 105.9878,61.7203 105.9878,61.5323 C105.9878,61.3443 106.1398,61.1923 106.3278,61.1923 C106.5158,61.1923 106.6678,61.3443 106.6678,61.5323 C106.6678,61.7203 106.5158,61.8723 106.3278,61.8723" id="Fill-120" fill="#1D96DD"></path>
                    <path d="M108.4077,62.3203 C108.2167,62.3203 108.0617,62.1653 108.0617,61.9743 C108.0617,61.7833 108.2167,61.6283 108.4077,61.6283 C108.5987,61.6283 108.7537,61.7833 108.7537,61.9743 C108.7537,62.1653 108.5987,62.3203 108.4077,62.3203" id="Fill-122" fill="#1D96DD"></path>
                    <path d="M110.4931,62.7429 C110.2991,62.7429 110.1411,62.5859 110.1411,62.3919 C110.1411,62.1979 110.2991,62.0399 110.4931,62.0399 C110.6871,62.0399 110.8441,62.1979 110.8441,62.3919 C110.8441,62.5859 110.6871,62.7429 110.4931,62.7429" id="Fill-124" fill="#1D96DD"></path>
                    <path d="M112.5825,63.1438 C112.3855,63.1438 112.2255,62.9838 112.2255,62.7868 C112.2255,62.5898 112.3855,62.4298 112.5825,62.4298 C112.7795,62.4298 112.9395,62.5898 112.9395,62.7868 C112.9395,62.9838 112.7795,63.1438 112.5825,63.1438" id="Fill-126" fill="#1D96DD"></path>
                    <path d="M114.6765,63.5225 C114.4755,63.5225 114.3135,63.3605 114.3135,63.1595 C114.3135,62.9595 114.4755,62.7965 114.6765,62.7965 C114.8765,62.7965 115.0395,62.9595 115.0395,63.1595 C115.0395,63.3605 114.8765,63.5225 114.6765,63.5225" id="Fill-128" fill="#1D96DD"></path>
                    <path d="M116.7758,63.8799 C116.5728,63.8799 116.4078,63.7149 116.4078,63.5119 C116.4078,63.3079 116.5728,63.1429 116.7758,63.1429 C116.9788,63.1429 117.1438,63.3079 117.1438,63.5119 C117.1438,63.7149 116.9788,63.8799 116.7758,63.8799" id="Fill-130" fill="#1D96DD"></path>
                    <path d="M118.8798,64.2149 C118.6728,64.2149 118.5058,64.0479 118.5058,63.8409 C118.5058,63.6339 118.6728,63.4669 118.8798,63.4669 C119.0868,63.4669 119.2538,63.6339 119.2538,63.8409 C119.2538,64.0479 119.0868,64.2149 118.8798,64.2149" id="Fill-132" fill="#1D96DD"></path>
                    <path d="M120.9858,64.5257 C120.7758,64.5257 120.6058,64.3557 120.6058,64.1457 C120.6058,63.9367 120.7758,63.7657 120.9858,63.7657 C121.1958,63.7657 121.3658,63.9367 121.3658,64.1457 C121.3658,64.3557 121.1958,64.5257 120.9858,64.5257" id="Fill-134" fill="#1D96DD"></path>
                    <path d="M123.0981,64.8108 C122.8851,64.8108 122.7131,64.6378 122.7131,64.4258 C122.7131,64.2128 122.8851,64.0398 123.0981,64.0398 C123.3111,64.0398 123.4831,64.2128 123.4831,64.4258 C123.4831,64.6378 123.3111,64.8108 123.0981,64.8108" id="Fill-136" fill="#1D96DD"></path>
                    <path d="M125.2126,65.0701 C124.9966,65.0701 124.8216,64.8951 124.8216,64.6791 C124.8216,64.4631 124.9966,64.2881 125.2126,64.2881 C125.4286,64.2881 125.6036,64.4631 125.6036,64.6791 C125.6036,64.8951 125.4286,65.0701 125.2126,65.0701" id="Fill-138" fill="#1D96DD"></path>
                    <path d="M127.3281,65.3042 C127.1091,65.3042 126.9311,65.1262 126.9311,64.9072 C126.9311,64.6882 127.1091,64.5112 127.3281,64.5112 C127.5471,64.5112 127.7251,64.6882 127.7251,64.9072 C127.7251,65.1262 127.5471,65.3042 127.3281,65.3042" id="Fill-140" fill="#1D96DD"></path>
                    <path d="M129.4458,65.5105 C129.2228,65.5105 129.0428,65.3305 129.0428,65.1085 C129.0428,64.8865 129.2228,64.7055 129.4458,64.7055 C129.6678,64.7055 129.8478,64.8865 129.8478,65.1085 C129.8478,65.3305 129.6678,65.5105 129.4458,65.5105" id="Fill-142" fill="#1D96DD"></path>
                    <path d="M131.5671,65.6909 C131.3421,65.6909 131.1591,65.5079 131.1591,65.2829 C131.1591,65.0569 131.3421,64.8749 131.5671,64.8749 C131.7931,64.8749 131.9751,65.0569 131.9751,65.2829 C131.9751,65.5079 131.7931,65.6909 131.5671,65.6909" id="Fill-144" fill="#1D96DD"></path>
                    <path d="M133.6892,65.8396 C133.4602,65.8396 133.2752,65.6546 133.2752,65.4256 C133.2752,65.1976 133.4602,65.0116 133.6892,65.0116 C133.9182,65.0116 134.1032,65.1976 134.1032,65.4256 C134.1032,65.6546 133.9182,65.8396 133.6892,65.8396" id="Fill-146" fill="#1D96DD"></path>
                    <g id="Group-150" transform="translate(135.000000, 65.018300)">
                        <mask id="mask-2" fill="white">
                            <use xlink:href="#path-1"></use>
                        </mask>
                        <g id="Clip-149"></g>
                        <path d="M0.8156,0.9312 C0.5836,0.9312 0.3966,0.7432 0.3966,0.5122 C0.3966,0.2802 0.5836,0.0922 0.8156,0.0922 C1.0476,0.0922 1.2356,0.2802 1.2356,0.5122 C1.2356,0.7432 1.0476,0.9312 0.8156,0.9312" id="Fill-148" fill="#1D96DD" mask="url(#mask-2)"></path>
                    </g>
                    <g id="Group-153" transform="translate(137.000000, 65.018300)">
                        <mask id="mask-4" fill="white">
                            <use xlink:href="#path-3"></use>
                        </mask>
                        <g id="Clip-152"></g>
                        <path d="M0.9443,0.9881 C0.7093,0.9881 0.5193,0.7981 0.5193,0.5631 C0.5193,0.3281 0.7093,0.1381 0.9443,0.1381 C1.1793,0.1381 1.3693,0.3281 1.3693,0.5631 C1.3693,0.7981 1.1793,0.9881 0.9443,0.9881" id="Fill-151" fill="#1D96DD" mask="url(#mask-4)"></path>
                    </g>
                    <g id="Group-156" transform="translate(139.000000, 65.018300)">
                        <mask id="mask-6" fill="white">
                            <use xlink:href="#path-5"></use>
                        </mask>
                        <g id="Clip-155"></g>
                        <path d="M1.0705,1 C0.8325,1 0.6395,0.807 0.6395,0.569 C0.6395,0.331 0.8325,0.139 1.0705,0.139 C1.3085,0.139 1.5015,0.331 1.5015,0.569 C1.5015,0.807 1.3085,1 1.0705,1" id="Fill-154" fill="#1D96DD" mask="url(#mask-6)"></path>
                    </g>
                    <g id="Group-159" transform="translate(141.000000, 65.018300)">
                        <mask id="mask-8" fill="white">
                            <use xlink:href="#path-7"></use>
                        </mask>
                        <g id="Clip-158"></g>
                        <path d="M1.197,0.961 C0.956,0.961 0.76,0.766 0.76,0.525 C0.76,0.283 0.956,0.088 1.197,0.088 C1.438,0.088 1.633,0.283 1.633,0.525 C1.633,0.766 1.438,0.961 1.197,0.961" id="Fill-157" fill="#1D96DD" mask="url(#mask-8)"></path>
                    </g>
                    <path d="M144.3195,65.8609 C144.0755,65.8609 143.8775,65.6629 143.8775,65.4189 C143.8775,65.1749 144.0755,64.9769 144.3195,64.9769 C144.5635,64.9769 144.7615,65.1749 144.7615,65.4189 C144.7615,65.6629 144.5635,65.8609 144.3195,65.8609" id="Fill-160" fill="#1D96DD"></path>
                    <path d="M146.4353,65.6302 C146.1883,65.6302 145.9873,65.4302 145.9873,65.1822 C145.9873,64.9352 146.1883,64.7342 146.4353,64.7342 C146.6823,64.7342 146.8833,64.9352 146.8833,65.1822 C146.8833,65.4302 146.6823,65.6302 146.4353,65.6302" id="Fill-162" fill="#1D96DD"></path>
                    <path d="M148.54,65.3057 C148.29,65.3057 148.086,65.1027 148.086,64.8517 C148.086,64.6017 148.29,64.3987 148.54,64.3987 C148.791,64.3987 148.993,64.6017 148.993,64.8517 C148.993,65.1027 148.791,65.3057 148.54,65.3057" id="Fill-164" fill="#1D96DD"></path>
                    <path d="M150.6247,64.8943 C150.3717,64.8943 150.1657,64.6883 150.1657,64.4353 C150.1657,64.1813 150.3717,63.9763 150.6247,63.9763 C150.8787,63.9763 151.0837,64.1813 151.0837,64.4353 C151.0837,64.6883 150.8787,64.8943 150.6247,64.8943" id="Fill-166" fill="#1D96DD"></path>
                    <path d="M152.6948,64.4029 C152.4378,64.4029 152.2298,64.1949 152.2298,63.9379 C152.2298,63.6809 152.4378,63.4729 152.6948,63.4729 C152.9518,63.4729 153.1598,63.6809 153.1598,63.9379 C153.1598,64.1949 152.9518,64.4029 152.6948,64.4029" id="Fill-168" fill="#1D96DD"></path>
                    <path d="M154.7441,63.8384 C154.4841,63.8384 154.2741,63.6274 154.2741,63.3674 C154.2741,63.1084 154.4841,62.8974 154.7441,62.8974 C155.0041,62.8974 155.2151,63.1084 155.2151,63.3674 C155.2151,63.6274 155.0041,63.8384 154.7441,63.8384" id="Fill-170" fill="#1D96DD"></path>
                    <path d="M156.7768,63.2115 C156.5138,63.2115 156.3008,62.9985 156.3008,62.7355 C156.3008,62.4725 156.5138,62.2595 156.7768,62.2595 C157.0398,62.2595 157.2528,62.4725 157.2528,62.7355 C157.2528,62.9985 157.0398,63.2115 156.7768,63.2115" id="Fill-172" fill="#1D96DD"></path>
                    <path d="M158.7893,62.5301 C158.5233,62.5301 158.3073,62.3141 158.3073,62.0481 C158.3073,61.7821 158.5233,61.5661 158.7893,61.5661 C159.0553,61.5661 159.2713,61.7821 159.2713,62.0481 C159.2713,62.3141 159.0553,62.5301 158.7893,62.5301" id="Fill-174" fill="#1D96DD"></path>
                    <path d="M160.8029,61.8399 C160.5339,61.8399 160.3149,61.6219 160.3149,61.3519 C160.3149,61.0829 160.5339,60.8649 160.8029,60.8649 C161.0719,60.8649 161.2909,61.0829 161.2909,61.3519 C161.2909,61.6219 161.0719,61.8399 160.8029,61.8399" id="Fill-176" fill="#1D96DD"></path>
                    <path d="M162.4631,63.1509 C163.6321,62.7489 164.2531,61.4749 163.8521,60.3069 C163.4501,59.1379 162.1761,58.5159 161.0071,58.9179 C159.8391,59.3199 159.2171,60.5939 159.6191,61.7619 C160.0211,62.9309 161.2941,63.5529 162.4631,63.1509" id="Fill-178" fill="#1D96DD"></path>
                </g>
                <g id="Page-1" transform="translate(111.528711, 115.481229) rotate(186.000000) translate(-111.528711, -115.481229) translate(91.028711, 85.981229)" fill="#1D96DD">
                    <path d="M31.2212,57.3131 C31.2122,57.3131 31.2052,57.3061 31.2052,57.2971 C31.2052,57.2891 31.2122,57.2821 31.2212,57.2821 C31.2212,57.2821 31.2362,57.2891 31.2362,57.2971 C31.2362,57.3061 31.2302,57.3131 31.2212,57.3131" id="Fill-1"></path>
                    <path d="M30.4695,55.3409 C30.4525,55.3409 30.4385,55.3269 30.4385,55.3099 C30.4385,55.2929 30.4525,55.2789 30.4695,55.2789 C30.4865,55.2789 30.5005,55.2929 30.5005,55.3099 C30.5005,55.3269 30.4865,55.3409 30.4695,55.3409" id="Fill-3"></path>
                    <path d="M29.7486,53.3589 C29.7226,53.3589 29.7016,53.3379 29.7016,53.3119 C29.7016,53.2869 29.7226,53.2649 29.7486,53.2649 C29.7746,53.2649 29.7956,53.2869 29.7956,53.3119 C29.7956,53.3379 29.7746,53.3589 29.7486,53.3589" id="Fill-5"></path>
                    <path d="M29.0574,51.3675 C29.0234,51.3675 28.9954,51.3395 28.9954,51.3055 C28.9954,51.2705 29.0234,51.2425 29.0574,51.2425 C29.0914,51.2425 29.1194,51.2705 29.1194,51.3055 C29.1194,51.3395 29.0914,51.3675 29.0574,51.3675" id="Fill-7"></path>
                    <path d="M28.3967,49.3643 C28.3537,49.3643 28.3187,49.3293 28.3187,49.2863 C28.3187,49.2433 28.3537,49.2083 28.3967,49.2083 C28.4397,49.2083 28.4747,49.2433 28.4747,49.2863 C28.4747,49.3293 28.4397,49.3643 28.3967,49.3643" id="Fill-9"></path>
                    <path d="M27.7522,47.3565 C27.7012,47.3565 27.6592,47.3145 27.6592,47.2625 C27.6592,47.2115 27.7012,47.1695 27.7522,47.1695 C27.8042,47.1695 27.8462,47.2115 27.8462,47.2625 C27.8462,47.3145 27.8042,47.3565 27.7522,47.3565" id="Fill-11"></path>
                    <path d="M27.1087,45.346 C27.0487,45.346 26.9997,45.297 26.9997,45.237 C26.9997,45.177 27.0487,45.128 27.1087,45.128 C27.1687,45.128 27.2177,45.177 27.2177,45.237 C27.2177,45.297 27.1687,45.346 27.1087,45.346" id="Fill-13"></path>
                    <path d="M26.4685,43.3355 C26.3995,43.3355 26.3435,43.2795 26.3435,43.2115 C26.3435,43.1425 26.3995,43.0865 26.4685,43.0865 C26.5375,43.0865 26.5925,43.1425 26.5925,43.2115 C26.5925,43.2795 26.5375,43.3355 26.4685,43.3355" id="Fill-15"></path>
                    <path d="M25.8281,41.3243 C25.7511,41.3243 25.6881,41.2613 25.6881,41.1843 C25.6881,41.1073 25.7511,41.0443 25.8281,41.0443 C25.9051,41.0443 25.9681,41.1073 25.9681,41.1843 C25.9681,41.2613 25.9051,41.3243 25.8281,41.3243" id="Fill-17"></path>
                    <path d="M25.1807,39.3192 C25.0947,39.3192 25.0247,39.2492 25.0247,39.1632 C25.0247,39.0772 25.0947,39.0072 25.1807,39.0072 C25.2667,39.0072 25.3367,39.0772 25.3367,39.1632 C25.3367,39.2492 25.2667,39.3192 25.1807,39.3192" id="Fill-19"></path>
                    <path d="M24.5169,37.315 C24.4229,37.315 24.3459,37.238 24.3459,37.144 C24.3459,37.049 24.4229,36.972 24.5169,36.972 C24.6119,36.972 24.6879,37.049 24.6879,37.144 C24.6879,37.238 24.6119,37.315 24.5169,37.315" id="Fill-21"></path>
                    <path d="M23.8533,35.3148 C23.7503,35.3148 23.6663,35.2308 23.6663,35.1278 C23.6663,35.0248 23.7503,34.9408 23.8533,34.9408 C23.9563,34.9408 24.0403,35.0248 24.0403,35.1278 C24.0403,35.2308 23.9563,35.3148 23.8533,35.3148" id="Fill-23"></path>
                    <path d="M23.1961,33.3128 C23.0841,33.3128 22.9931,33.2218 22.9931,33.1108 C22.9931,32.9988 23.0841,32.9078 23.1961,32.9078 C23.3081,32.9078 23.3981,32.9988 23.3981,33.1108 C23.3981,33.2218 23.3081,33.3128 23.1961,33.3128" id="Fill-25"></path>
                    <path d="M22.5366,31.3091 C22.4156,31.3091 22.3186,31.2111 22.3186,31.0911 C22.3186,30.9701 22.4156,30.8731 22.5366,30.8731 C22.6566,30.8731 22.7546,30.9701 22.7546,31.0911 C22.7546,31.2111 22.6566,31.3091 22.5366,31.3091" id="Fill-27"></path>
                    <path d="M21.8775,29.3035 C21.7485,29.3035 21.6435,29.1985 21.6435,29.0695 C21.6435,28.9405 21.7485,28.8365 21.8775,28.8365 C22.0065,28.8365 22.1115,28.9405 22.1115,29.0695 C22.1115,29.1985 22.0065,29.3035 21.8775,29.3035" id="Fill-29"></path>
                    <path d="M21.2019,27.304 C21.0639,27.304 20.9529,27.192 20.9529,27.055 C20.9529,26.917 21.0639,26.805 21.2019,26.805 C21.3389,26.805 21.4509,26.917 21.4509,27.055 C21.4509,27.192 21.3389,27.304 21.2019,27.304" id="Fill-31"></path>
                    <path d="M20.4988,25.314 C20.3528,25.314 20.2338,25.195 20.2338,25.049 C20.2338,24.903 20.3528,24.784 20.4988,24.784 C20.6448,24.784 20.7638,24.903 20.7638,25.049 C20.7638,25.195 20.6448,25.314 20.4988,25.314" id="Fill-33"></path>
                    <path d="M19.7578,23.3355 C19.6028,23.3355 19.4778,23.2105 19.4778,23.0545 C19.4778,22.9005 19.6028,22.7745 19.7578,22.7745 C19.9128,22.7745 20.0388,22.9005 20.0388,23.0545 C20.0388,23.2105 19.9128,23.3355 19.7578,23.3355" id="Fill-35"></path>
                    <path d="M18.9634,21.3785 C18.7994,21.3785 18.6674,21.2455 18.6674,21.0825 C18.6674,20.9195 18.7994,20.7865 18.9634,20.7865 C19.1264,20.7865 19.2594,20.9195 19.2594,21.0825 C19.2594,21.2455 19.1264,21.3785 18.9634,21.3785" id="Fill-37"></path>
                    <path d="M18.1045,19.4488 C17.9325,19.4488 17.7925,19.3088 17.7925,19.1368 C17.7925,18.9648 17.9325,18.8258 18.1045,18.8258 C18.2765,18.8258 18.4155,18.9648 18.4155,19.1368 C18.4155,19.3088 18.2765,19.4488 18.1045,19.4488" id="Fill-39"></path>
                    <path d="M17.1675,17.556 C16.9865,17.556 16.8405,17.41 16.8405,17.229 C16.8405,17.048 16.9865,16.902 17.1675,16.902 C17.3485,16.902 17.4945,17.048 17.4945,17.229 C17.4945,17.41 17.3485,17.556 17.1675,17.556" id="Fill-41"></path>
                    <path d="M16.137,15.7115 C15.948,15.7115 15.795,15.5585 15.795,15.3695 C15.795,15.1795 15.948,15.0265 16.137,15.0265 C16.326,15.0265 16.48,15.1795 16.48,15.3695 C16.48,15.5585 16.326,15.7115 16.137,15.7115" id="Fill-43"></path>
                    <path d="M15.0015,13.9298 C14.8035,13.9298 14.6435,13.7698 14.6435,13.5718 C14.6435,13.3738 14.8035,13.2138 15.0015,13.2138 C15.1995,13.2138 15.3595,13.3738 15.3595,13.5718 C15.3595,13.7698 15.1995,13.9298 15.0015,13.9298" id="Fill-45"></path>
                    <path d="M13.7473,12.2288 C13.5413,12.2288 13.3733,12.0618 13.3733,11.8548 C13.3733,11.6488 13.5413,11.4808 13.7473,11.4808 C13.9543,11.4808 14.1213,11.6488 14.1213,11.8548 C14.1213,12.0618 13.9543,12.2288 13.7473,12.2288" id="Fill-47"></path>
                    <path d="M12.3655,10.628 C12.1505,10.628 11.9765,10.454 11.9765,10.239 C11.9765,10.023 12.1505,9.849 12.3655,9.849 C12.5805,9.849 12.7545,10.023 12.7545,10.239 C12.7545,10.454 12.5805,10.628 12.3655,10.628" id="Fill-49"></path>
                    <path d="M10.8533,9.1475 C10.6293,9.1475 10.4483,8.9665 10.4483,8.7425 C10.4483,8.5185 10.6293,8.3375 10.8533,8.3375 C11.0773,8.3375 11.2583,8.5185 11.2583,8.7425 C11.2583,8.9665 11.0773,9.1475 10.8533,9.1475" id="Fill-51"></path>
                    <path d="M9.2271,7.794 C8.9951,7.794 8.8061,7.606 8.8061,7.373 C8.8061,7.141 8.9951,6.953 9.2271,6.953 C9.4591,6.953 9.6471,7.141 9.6471,7.373 C9.6471,7.606 9.4591,7.794 9.2271,7.794" id="Fill-53"></path>
                    <path d="M7.4973,6.5735 C7.2563,6.5735 7.0613,6.3785 7.0613,6.1375 C7.0613,5.8965 7.2563,5.7015 7.4973,5.7015 C7.7383,5.7015 7.9333,5.8965 7.9333,6.1375 C7.9333,6.3785 7.7383,6.5735 7.4973,6.5735" id="Fill-55"></path>
                    <path d="M5.6848,5.4781 C5.4358,5.4781 5.2328,5.2761 5.2328,5.0261 C5.2328,4.7771 5.4358,4.5751 5.6848,4.5751 C5.9338,4.5751 6.1368,4.7771 6.1368,5.0261 C6.1368,5.2761 5.9338,5.4781 5.6848,5.4781" id="Fill-57"></path>
                    <path d="M3.803,4.5042 C3.545,4.5042 3.336,4.2952 3.336,4.0372 C3.336,3.7792 3.545,3.5692 3.803,3.5692 C4.061,3.5692 4.27,3.7792 4.27,4.0372 C4.27,4.2952 4.061,4.5042 3.803,4.5042" id="Fill-59"></path>
                    <g id="Group-63" transform="translate(0.000000, 0.279600)">
                        <path d="M3.148,0.9932 C2.019,0.4912 0.696,1.0002 0.194,2.1292 C-0.309,3.2582 0.2,4.5812 1.329,5.0832 C2.458,5.5852 3.781,5.0772 4.284,3.9472 C4.786,2.8182 4.277,1.4952 3.148,0.9932" id="Fill-61"></path>
                    </g>
                    <path d="M37.5921,57.431 C37.5831,57.431 37.5761,57.424 37.5761,57.415 C37.5761,57.407 37.5831,57.4 37.5921,57.4 C37.5921,57.4 37.6081,57.407 37.6081,57.415 C37.6081,57.424 37.6001,57.431 37.5921,57.431" id="Fill-64"></path>
                    <path d="M36.5576,55.5897 C36.5406,55.5897 36.5266,55.5757 36.5266,55.5587 C36.5266,55.5417 36.5406,55.5277 36.5576,55.5277 C36.5746,55.5277 36.5886,55.5417 36.5886,55.5587 C36.5886,55.5757 36.5746,55.5897 36.5576,55.5897" id="Fill-66"></path>
                    <path d="M35.5237,53.7481 C35.4977,53.7481 35.4767,53.7271 35.4767,53.7021 C35.4767,53.6761 35.4977,53.6551 35.5237,53.6551 C35.5497,53.6551 35.5697,53.6761 35.5697,53.7021 C35.5697,53.7271 35.5497,53.7481 35.5237,53.7481" id="Fill-68"></path>
                    <path d="M34.4966,51.9036 C34.4626,51.9036 34.4346,51.8756 34.4346,51.8416 C34.4346,51.8076 34.4626,51.7796 34.4966,51.7796 C34.5306,51.7796 34.5586,51.8076 34.5586,51.8416 C34.5586,51.8756 34.5306,51.9036 34.4966,51.9036" id="Fill-70"></path>
                    <path d="M33.4771,50.0579 C33.4341,50.0579 33.3991,50.0229 33.3991,49.9809 C33.3991,49.9379 33.4341,49.9029 33.4771,49.9029 C33.5201,49.9029 33.5541,49.9379 33.5541,49.9809 C33.5541,50.0229 33.5201,50.0579 33.4771,50.0579" id="Fill-72"></path>
                    <path d="M32.4544,48.2108 C32.4034,48.2108 32.3614,48.1688 32.3614,48.1178 C32.3614,48.0658 32.4034,48.0248 32.4544,48.0248 C32.5054,48.0248 32.5474,48.0658 32.5474,48.1178 C32.5474,48.1688 32.5054,48.2108 32.4544,48.2108" id="Fill-74"></path>
                    <path d="M31.439,46.3594 C31.379,46.3594 31.33,46.3104 31.33,46.2504 C31.33,46.1914 31.379,46.1424 31.439,46.1424 C31.499,46.1424 31.548,46.1914 31.548,46.2504 C31.548,46.3104 31.499,46.3594 31.439,46.3594" id="Fill-76"></path>
                    <path d="M30.4363,44.501 C30.3673,44.501 30.3123,44.446 30.3123,44.377 C30.3123,44.308 30.3673,44.253 30.4363,44.253 C30.5043,44.253 30.5603,44.308 30.5603,44.377 C30.5603,44.446 30.5043,44.501 30.4363,44.501" id="Fill-78"></path>
                    <path d="M29.448,42.6343 C29.371,42.6343 29.309,42.5723 29.309,42.4943 C29.309,42.4173 29.371,42.3553 29.448,42.3553 C29.525,42.3553 29.588,42.4173 29.588,42.4943 C29.588,42.5723 29.525,42.6343 29.448,42.6343" id="Fill-80"></path>
                    <path d="M28.48,40.7571 C28.394,40.7571 28.325,40.6881 28.325,40.6021 C28.325,40.5161 28.394,40.4471 28.48,40.4471 C28.566,40.4471 28.635,40.5161 28.635,40.6021 C28.635,40.6881 28.566,40.7571 28.48,40.7571" id="Fill-82"></path>
                    <path d="M27.5193,38.8763 C27.4253,38.8763 27.3483,38.8003 27.3483,38.7053 C27.3483,38.6113 27.4253,38.5353 27.5193,38.5353 C27.6133,38.5353 27.6903,38.6113 27.6903,38.7053 C27.6903,38.8003 27.6133,38.8763 27.5193,38.8763" id="Fill-84"></path>
                    <path d="M26.5608,36.9947 C26.4578,36.9947 26.3748,36.9117 26.3748,36.8087 C26.3748,36.7057 26.4578,36.6227 26.5608,36.6227 C26.6638,36.6227 26.7468,36.7057 26.7468,36.8087 C26.7468,36.9117 26.6638,36.9947 26.5608,36.9947" id="Fill-86"></path>
                    <path d="M25.603,35.1124 C25.492,35.1124 25.401,35.0224 25.401,34.9104 C25.401,34.7994 25.492,34.7094 25.603,34.7094 C25.714,34.7094 25.805,34.7994 25.805,34.9104 C25.805,35.0224 25.714,35.1124 25.603,35.1124" id="Fill-88"></path>
                    <path d="M24.6463,33.2349 C24.5263,33.2349 24.4293,33.1379 24.4293,33.0179 C24.4293,32.8979 24.5263,32.8009 24.6463,32.8009 C24.7663,32.8009 24.8633,32.8979 24.8633,33.0179 C24.8633,33.1379 24.7663,33.2349 24.6463,33.2349" id="Fill-90"></path>
                    <path d="M23.6868,31.3548 C23.5578,31.3548 23.4538,31.2508 23.4538,31.1218 C23.4538,30.9938 23.5578,30.8898 23.6868,30.8898 C23.8148,30.8898 23.9198,30.9938 23.9198,31.1218 C23.9198,31.2508 23.8148,31.3548 23.6868,31.3548" id="Fill-92"></path>
                    <path d="M22.7246,29.4761 C22.5876,29.4761 22.4766,29.3651 22.4766,29.2281 C22.4766,29.0911 22.5876,28.9801 22.7246,28.9801 C22.8616,28.9801 22.9726,29.0911 22.9726,29.2281 C22.9726,29.3651 22.8616,29.4761 22.7246,29.4761" id="Fill-94"></path>
                    <path d="M21.7569,27.5965 C21.6109,27.5965 21.4929,27.4785 21.4929,27.3325 C21.4929,27.1875 21.6109,27.0695 21.7569,27.0695 C21.9029,27.0695 22.0209,27.1875 22.0209,27.3325 C22.0209,27.4785 21.9029,27.5965 21.7569,27.5965" id="Fill-96"></path>
                    <path d="M20.7837,25.7198 C20.6297,25.7198 20.5047,25.5948 20.5047,25.4408 C20.5047,25.2858 20.6297,25.1608 20.7837,25.1608 C20.9377,25.1608 21.0627,25.2858 21.0627,25.4408 C21.0627,25.5948 20.9377,25.7198 20.7837,25.7198" id="Fill-98"></path>
                    <path d="M19.8015,23.8455 C19.6385,23.8455 19.5065,23.7135 19.5065,23.5505 C19.5065,23.3875 19.6385,23.2565 19.8015,23.2565 C19.9645,23.2565 20.0965,23.3875 20.0965,23.5505 C20.0965,23.7135 19.9645,23.8455 19.8015,23.8455" id="Fill-100"></path>
                    <path d="M18.8118,21.9815 C18.6408,21.9815 18.5018,21.8425 18.5018,21.6715 C18.5018,21.4995 18.6408,21.3605 18.8118,21.3605 C18.9828,21.3605 19.1218,21.4995 19.1218,21.6715 C19.1218,21.8425 18.9828,21.9815 18.8118,21.9815" id="Fill-102"></path>
                    <path d="M17.8006,20.1265 C17.6206,20.1265 17.4746,19.9805 17.4746,19.8005 C17.4746,19.6205 17.6206,19.4745 17.8006,19.4745 C17.9806,19.4745 18.1266,19.6205 18.1266,19.8005 C18.1266,19.9805 17.9806,20.1265 17.8006,20.1265" id="Fill-104"></path>
                    <path d="M16.7644,18.2855 C16.5754,18.2855 16.4234,18.1325 16.4234,17.9445 C16.4234,17.7555 16.5754,17.6025 16.7644,17.6025 C16.9534,17.6025 17.1054,17.7555 17.1054,17.9445 C17.1054,18.1325 16.9534,18.2855 16.7644,18.2855" id="Fill-106"></path>
                    <path d="M15.6997,16.4605 C15.5027,16.4605 15.3427,16.3005 15.3427,16.1035 C15.3427,15.9065 15.5027,15.7465 15.6997,15.7465 C15.8967,15.7465 16.0567,15.9065 16.0567,16.1035 C16.0567,16.3005 15.8967,16.4605 15.6997,16.4605" id="Fill-108"></path>
                    <path d="M14.6072,14.6524 C14.4012,14.6524 14.2352,14.4854 14.2352,14.2804 C14.2352,14.0744 14.4012,13.9074 14.6072,13.9074 C14.8132,13.9074 14.9792,14.0744 14.9792,14.2804 C14.9792,14.4854 14.8132,14.6524 14.6072,14.6524" id="Fill-110"></path>
                    <path d="M13.4854,12.8585 C13.2714,12.8585 13.0974,12.6845 13.0974,12.4705 C13.0974,12.2565 13.2714,12.0825 13.4854,12.0825 C13.6994,12.0825 13.8734,12.2565 13.8734,12.4705 C13.8734,12.6845 13.6994,12.8585 13.4854,12.8585" id="Fill-112"></path>
                    <path d="M12.3357,11.0853 C12.1127,11.0853 11.9327,10.9043 11.9327,10.6823 C11.9327,10.4593 12.1127,10.2783 12.3357,10.2783 C12.5587,10.2783 12.7387,10.4593 12.7387,10.6823 C12.7387,10.9043 12.5587,11.0853 12.3357,11.0853" id="Fill-114"></path>
                    <path d="M11.1536,9.3331 C10.9216,9.3331 10.7346,9.1461 10.7346,8.9141 C10.7346,8.6831 10.9216,8.4951 11.1536,8.4951 C11.3846,8.4951 11.5726,8.6831 11.5726,8.9141 C11.5726,9.1461 11.3846,9.3331 11.1536,9.3331" id="Fill-116"></path>
                    <path d="M9.9378,7.6036 C9.6978,7.6036 9.5038,7.4096 9.5038,7.1696 C9.5038,6.9296 9.6978,6.7346 9.9378,6.7346 C10.1778,6.7346 10.3718,6.9296 10.3718,7.1696 C10.3718,7.4096 10.1778,7.6036 9.9378,7.6036" id="Fill-118"></path>
                    <path d="M8.6817,5.9005 C8.4327,5.9005 8.2317,5.6995 8.2317,5.4505 C8.2317,5.2025 8.4327,5.0005 8.6817,5.0005 C8.9307,5.0005 9.1317,5.2025 9.1317,5.4505 C9.1317,5.6995 8.9307,5.9005 8.6817,5.9005" id="Fill-120"></path>
                    <path d="M7.388,4.2281 C7.131,4.2281 6.923,4.0201 6.923,3.7621 C6.923,3.5051 7.131,3.2971 7.388,3.2971 C7.645,3.2971 7.853,3.5051 7.853,3.7621 C7.853,4.0201 7.645,4.2281 7.388,4.2281" id="Fill-122"></path>
                    <path d="M7.8638,0.8079 C7.0738,-0.1431 5.6628,-0.2731 4.7118,0.5159 C3.7608,1.3059 3.6308,2.7179 4.4208,3.6679 C5.2098,4.6189 6.6218,4.7489 7.5718,3.9599 C8.5228,3.1699 8.6538,1.7589 7.8638,0.8079" id="Fill-124"></path>
                    <path d="M39.8897,57.4432 C39.8897,57.4432 39.8737,57.4362 39.8737,57.4272 C39.8737,57.4182 39.8807,57.4112 39.8807,57.4112 C39.8977,57.4112 39.9057,57.4182 39.9057,57.4272 C39.9057,57.4362 39.8977,57.4432 39.8897,57.4432" id="Fill-126"></path>
                    <path d="M38.8389,55.6111 C38.8219,55.6111 38.8079,55.5971 38.8079,55.5791 C38.8079,55.5621 38.8219,55.5481 38.8389,55.5481 C38.8569,55.5481 38.8709,55.5621 38.8709,55.5791 C38.8709,55.5971 38.8569,55.6111 38.8389,55.6111" id="Fill-128"></path>
                    <path d="M37.7886,53.7791 C37.7626,53.7791 37.7416,53.7581 37.7416,53.7321 C37.7416,53.7051 37.7626,53.6841 37.7886,53.6841 C37.8146,53.6841 37.8356,53.7051 37.8356,53.7321 C37.8356,53.7581 37.8146,53.7791 37.7886,53.7791" id="Fill-130"></path>
                    <path d="M36.7434,51.9444 C36.7084,51.9444 36.6804,51.9164 36.6804,51.8814 C36.6804,51.8464 36.7084,51.8184 36.7434,51.8184 C36.7784,51.8184 36.8064,51.8464 36.8064,51.8814 C36.8064,51.9164 36.7784,51.9444 36.7434,51.9444" id="Fill-132"></path>
                    <path d="M35.7063,50.1089 C35.6623,50.1089 35.6273,50.0739 35.6273,50.0299 C35.6273,49.9869 35.6623,49.9519 35.7063,49.9519 C35.7503,49.9519 35.7853,49.9869 35.7853,50.0299 C35.7853,50.0739 35.7503,50.1089 35.7063,50.1089" id="Fill-134"></path>
                    <path d="M34.6692,48.2698 C34.6172,48.2698 34.5742,48.2278 34.5742,48.1748 C34.5742,48.1228 34.6172,48.0808 34.6692,48.0808 C34.7212,48.0808 34.7632,48.1228 34.7632,48.1748 C34.7632,48.2278 34.7212,48.2698 34.6692,48.2698" id="Fill-136"></path>
                    <path d="M33.6277,46.4346 C33.5667,46.4346 33.5177,46.3856 33.5177,46.3246 C33.5177,46.2636 33.5667,46.2136 33.6277,46.2136 C33.6887,46.2136 33.7377,46.2636 33.7377,46.3246 C33.7377,46.3856 33.6887,46.4346 33.6277,46.4346" id="Fill-138"></path>
                    <path d="M32.5813,44.6011 C32.5113,44.6011 32.4553,44.5451 32.4553,44.4751 C32.4553,44.4061 32.5113,44.3491 32.5813,44.3491 C32.6513,44.3491 32.7073,44.4061 32.7073,44.4751 C32.7073,44.5451 32.6513,44.6011 32.5813,44.6011" id="Fill-140"></path>
                    <path d="M31.5266,42.775 C31.4486,42.775 31.3846,42.712 31.3846,42.633 C31.3846,42.555 31.4486,42.491 31.5266,42.491 C31.6046,42.491 31.6686,42.555 31.6686,42.633 C31.6686,42.712 31.6046,42.775 31.5266,42.775" id="Fill-142"></path>
                    <path d="M30.4763,40.9471 C30.3893,40.9471 30.3183,40.8761 30.3183,40.7891 C30.3183,40.7021 30.3893,40.6321 30.4763,40.6321 C30.5633,40.6321 30.6343,40.7021 30.6343,40.7891 C30.6343,40.8761 30.5633,40.9471 30.4763,40.9471" id="Fill-144"></path>
                    <path d="M29.4541,39.0987 C29.3581,39.0987 29.2811,39.0207 29.2811,38.9257 C29.2811,38.8297 29.3581,38.7517 29.4541,38.7517 C29.5501,38.7517 29.6281,38.8297 29.6281,38.9257 C29.6281,39.0207 29.5501,39.0987 29.4541,39.0987" id="Fill-146"></path>
                    <path d="M28.4544,37.2383 C28.3494,37.2383 28.2654,37.1533 28.2654,37.0493 C28.2654,36.9443 28.3494,36.8603 28.4544,36.8603 C28.5584,36.8603 28.6434,36.9443 28.6434,37.0493 C28.6434,37.1533 28.5584,37.2383 28.4544,37.2383" id="Fill-148"></path>
                    <path d="M27.4622,35.3773 C27.3492,35.3773 27.2572,35.2853 27.2572,35.1723 C27.2572,35.0593 27.3492,34.9673 27.4622,34.9673 C27.5752,34.9673 27.6672,35.0593 27.6672,35.1723 C27.6672,35.2853 27.5752,35.3773 27.4622,35.3773" id="Fill-150"></path>
                    <path d="M26.4715,33.512 C26.3495,33.512 26.2505,33.413 26.2505,33.291 C26.2505,33.169 26.3495,33.071 26.4715,33.071 C26.5935,33.071 26.6925,33.169 26.6925,33.291 C26.6925,33.413 26.5935,33.512 26.4715,33.512" id="Fill-152"></path>
                    <path d="M25.4817,31.6495 C25.3507,31.6495 25.2447,31.5435 25.2447,31.4125 C25.2447,31.2825 25.3507,31.1765 25.4817,31.1765 C25.6127,31.1765 25.7177,31.2825 25.7177,31.4125 C25.7177,31.5435 25.6127,31.6495 25.4817,31.6495" id="Fill-154"></path>
                    <path d="M24.4888,29.7855 C24.3498,29.7855 24.2358,29.6725 24.2358,29.5335 C24.2358,29.3935 24.3498,29.2815 24.4888,29.2815 C24.6278,29.2815 24.7408,29.3935 24.7408,29.5335 C24.7408,29.6725 24.6278,29.7855 24.4888,29.7855" id="Fill-156"></path>
                    <path d="M23.4924,27.9232 C23.3444,27.9232 23.2244,27.8032 23.2244,27.6552 C23.2244,27.5072 23.3444,27.3872 23.4924,27.3872 C23.6404,27.3872 23.7604,27.5072 23.7604,27.6552 C23.7604,27.8032 23.6404,27.9232 23.4924,27.9232" id="Fill-158"></path>
                    <path d="M22.4893,26.0596 C22.3323,26.0596 22.2053,25.9326 22.2053,25.7756 C22.2053,25.6186 22.3323,25.4916 22.4893,25.4916 C22.6463,25.4916 22.7733,25.6186 22.7733,25.7756 C22.7733,25.9326 22.6463,26.0596 22.4893,26.0596" id="Fill-160"></path>
                    <path d="M21.4822,24.2015 C21.3162,24.2015 21.1822,24.0675 21.1822,23.9015 C21.1822,23.7365 21.3162,23.6025 21.4822,23.6025 C21.6472,23.6025 21.7822,23.7365 21.7822,23.9015 C21.7822,24.0675 21.6472,24.2015 21.4822,24.2015" id="Fill-162"></path>
                    <path d="M20.468,22.3487 C20.294,22.3487 20.153,22.2077 20.153,22.0337 C20.153,21.8597 20.294,21.7177 20.468,21.7177 C20.642,21.7177 20.783,21.8597 20.783,22.0337 C20.783,22.2077 20.642,22.3487 20.468,22.3487" id="Fill-164"></path>
                    <path d="M19.4395,20.4981 C19.2565,20.4981 19.1085,20.3501 19.1085,20.1671 C19.1085,19.9841 19.2565,19.8361 19.4395,19.8361 C19.6225,19.8361 19.7705,19.9841 19.7705,20.1671 C19.7705,20.3501 19.6225,20.4981 19.4395,20.4981" id="Fill-166"></path>
                    <path d="M18.396,18.6617 C18.204,18.6617 18.049,18.5067 18.049,18.3147 C18.049,18.1237 18.204,17.9677 18.396,17.9677 C18.587,17.9677 18.743,18.1237 18.743,18.3147 C18.743,18.5067 18.587,18.6617 18.396,18.6617" id="Fill-168"></path>
                    <path d="M17.3316,16.8345 C17.1316,16.8345 16.9686,16.6725 16.9686,16.4715 C16.9686,16.2715 17.1316,16.1095 17.3316,16.1095 C17.5316,16.1095 17.6946,16.2715 17.6946,16.4715 C17.6946,16.6725 17.5316,16.8345 17.3316,16.8345" id="Fill-170"></path>
                    <path d="M16.2439,15.0235 C16.0349,15.0235 15.8659,14.8545 15.8659,14.6455 C15.8659,14.4365 16.0349,14.2665 16.2439,14.2665 C16.4529,14.2665 16.6219,14.4365 16.6219,14.6455 C16.6219,14.8545 16.4529,15.0235 16.2439,15.0235" id="Fill-172"></path>
                    <path d="M15.1272,13.23 C14.9092,13.23 14.7332,13.054 14.7332,12.836 C14.7332,12.618 14.9092,12.442 15.1272,12.442 C15.3452,12.442 15.5212,12.618 15.5212,12.836 C15.5212,13.054 15.3452,13.23 15.1272,13.23" id="Fill-174"></path>
                    <path d="M13.9805,11.4554 C13.7545,11.4554 13.5705,11.2724 13.5705,11.0454 C13.5705,10.8194 13.7545,10.6354 13.9805,10.6354 C14.2065,10.6354 14.3905,10.8194 14.3905,11.0454 C14.3905,11.2724 14.2065,11.4554 13.9805,11.4554" id="Fill-176"></path>
                    <path d="M12.8045,9.7 C12.5695,9.7 12.3785,9.509 12.3785,9.274 C12.3785,9.039 12.5695,8.849 12.8045,8.849 C13.0395,8.849 13.2305,9.039 13.2305,9.274 C13.2305,9.509 13.0395,9.7 12.8045,9.7" id="Fill-178"></path>
                    <path d="M11.5943,7.962 C11.3503,7.962 11.1533,7.764 11.1533,7.521 C11.1533,7.277 11.3503,7.079 11.5943,7.079 C11.8383,7.079 12.0353,7.277 12.0353,7.521 C12.0353,7.764 11.8383,7.962 11.5943,7.962" id="Fill-180"></path>
                    <path d="M10.3516,6.2515 C10.0986,6.2515 9.8946,6.0465 9.8946,5.7945 C9.8946,5.5415 10.0986,5.3375 10.3516,5.3375 C10.6046,5.3375 10.8086,5.5415 10.8086,5.7945 C10.8086,6.0465 10.6046,6.2515 10.3516,6.2515" id="Fill-182"></path>
                    <path d="M9.0723,4.5762 C8.8113,4.5762 8.5993,4.3642 8.5993,4.1032 C8.5993,3.8422 8.8113,3.6302 9.0723,3.6302 C9.3333,3.6302 9.5453,3.8422 9.5453,4.1032 C9.5453,4.3642 9.3333,4.5762 9.0723,4.5762" id="Fill-184"></path>
                    <path d="M10.2771,2.0218 C9.5111,1.0518 8.1031,0.8868 7.1341,1.6528 C6.1641,2.4188 5.9981,3.8268 6.7651,4.7968 C7.5311,5.7668 8.9381,5.9318 9.9081,5.1648 C10.8781,4.3988 11.0431,2.9918 10.2771,2.0218" id="Fill-186"></path>
                    <path d="M39.4268,57.452 C39.4178,57.452 39.4098,57.445 39.4098,57.436 C39.4098,57.427 39.4178,57.419 39.4268,57.419 C39.4358,57.419 39.4428,57.427 39.4428,57.436 C39.4428,57.445 39.4358,57.452 39.4268,57.452" id="Fill-188"></path>
                    <path d="M38.3779,55.6199 C38.3599,55.6199 38.3449,55.6049 38.3449,55.5869 C38.3449,55.5689 38.3599,55.5539 38.3779,55.5539 C38.3959,55.5539 38.4109,55.5689 38.4109,55.5869 C38.4109,55.6049 38.3959,55.6199 38.3779,55.6199" id="Fill-190"></path>
                    <path d="M37.3318,53.7874 C37.3048,53.7874 37.2828,53.7654 37.2828,53.7384 C37.2828,53.7104 37.3048,53.6884 37.3318,53.6884 C37.3588,53.6884 37.3808,53.7104 37.3808,53.7384 C37.3808,53.7654 37.3588,53.7874 37.3318,53.7874" id="Fill-192"></path>
                    <path d="M36.2903,51.9512 C36.2543,51.9512 36.2243,51.9222 36.2243,51.8852 C36.2243,51.8492 36.2543,51.8192 36.2903,51.8192 C36.3263,51.8192 36.3563,51.8492 36.3563,51.8852 C36.3563,51.9222 36.3263,51.9512 36.2903,51.9512" id="Fill-194"></path>
                    <path d="M35.2537,50.1129 C35.2087,50.1129 35.1717,50.0759 35.1717,50.0309 C35.1717,49.9849 35.2087,49.9479 35.2537,49.9479 C35.2987,49.9479 35.3357,49.9849 35.3357,50.0309 C35.3357,50.0759 35.2987,50.1129 35.2537,50.1129" id="Fill-196"></path>
                    <path d="M34.2227,48.2745 C34.1677,48.2745 34.1237,48.2305 34.1237,48.1755 C34.1237,48.1215 34.1677,48.0765 34.2227,48.0765 C34.2777,48.0765 34.3217,48.1215 34.3217,48.1755 C34.3217,48.2305 34.2777,48.2745 34.2227,48.2745" id="Fill-198"></path>
                    <path d="M33.1973,46.4332 C33.1333,46.4332 33.0823,46.3822 33.0823,46.3182 C33.0823,46.2542 33.1333,46.2032 33.1973,46.2032 C33.2603,46.2032 33.3123,46.2542 33.3123,46.3182 C33.3123,46.3822 33.2603,46.4332 33.1973,46.4332" id="Fill-200"></path>
                    <path d="M32.1758,44.5862 C32.1028,44.5862 32.0438,44.5272 32.0438,44.4542 C32.0438,44.3822 32.1028,44.3232 32.1758,44.3232 C32.2488,44.3232 32.3078,44.3822 32.3078,44.4542 C32.3078,44.5272 32.2488,44.5862 32.1758,44.5862" id="Fill-202"></path>
                    <path d="M31.1597,42.7352 C31.0777,42.7352 31.0117,42.6692 31.0117,42.5872 C31.0117,42.5052 31.0777,42.4392 31.1597,42.4392 C31.2417,42.4392 31.3077,42.5052 31.3077,42.5872 C31.3077,42.6692 31.2417,42.7352 31.1597,42.7352" id="Fill-204"></path>
                    <path d="M30.1502,40.8807 C30.0592,40.8807 29.9852,40.8067 29.9852,40.7157 C29.9852,40.6257 30.0592,40.5517 30.1502,40.5517 C30.2412,40.5517 30.3142,40.6257 30.3142,40.7157 C30.3142,40.8067 30.2412,40.8807 30.1502,40.8807" id="Fill-206"></path>
                    <path d="M29.1502,39.0213 C29.0502,39.0213 28.9692,38.9403 28.9692,38.8403 C28.9692,38.7403 29.0502,38.6593 29.1502,38.6593 C29.2502,38.6593 29.3312,38.7403 29.3312,38.8403 C29.3312,38.9403 29.2502,39.0213 29.1502,39.0213" id="Fill-208"></path>
                    <path d="M28.1526,37.1641 C28.0436,37.1641 27.9556,37.0761 27.9556,36.9661 C27.9556,36.8571 28.0436,36.7691 28.1526,36.7691 C28.2616,36.7691 28.3496,36.8571 28.3496,36.9661 C28.3496,37.0761 28.2616,37.1641 28.1526,37.1641" id="Fill-210"></path>
                    <path d="M27.1514,35.3055 C27.0334,35.3055 26.9374,35.2095 26.9374,35.0915 C26.9374,34.9735 27.0334,34.8775 27.1514,34.8775 C27.2694,34.8775 27.3654,34.9735 27.3654,35.0915 C27.3654,35.2095 27.2694,35.3055 27.1514,35.3055" id="Fill-212"></path>
                    <path d="M26.1421,33.4507 C26.0151,33.4507 25.9121,33.3477 25.9121,33.2207 C25.9121,33.0927 26.0151,32.9897 26.1421,32.9897 C26.2691,32.9897 26.3721,33.0927 26.3721,33.2207 C26.3721,33.3477 26.2691,33.4507 26.1421,33.4507" id="Fill-214"></path>
                    <path d="M25.1275,31.6031 C24.9915,31.6031 24.8805,31.4921 24.8805,31.3561 C24.8805,31.2201 24.9915,31.1091 25.1275,31.1091 C25.2635,31.1091 25.3745,31.2201 25.3745,31.3561 C25.3745,31.4921 25.2635,31.6031 25.1275,31.6031" id="Fill-216"></path>
                    <path d="M24.1065,29.7547 C23.9605,29.7547 23.8425,29.6367 23.8425,29.4917 C23.8425,29.3457 23.9605,29.2277 24.1065,29.2277 C24.2515,29.2277 24.3695,29.3457 24.3695,29.4917 C24.3695,29.6367 24.2515,29.7547 24.1065,29.7547" id="Fill-218"></path>
                    <path d="M23.0799,27.9092 C22.9249,27.9092 22.7999,27.7842 22.7999,27.6292 C22.7999,27.4752 22.9249,27.3502 23.0799,27.3502 C23.2339,27.3502 23.3599,27.4752 23.3599,27.6292 C23.3599,27.7842 23.2339,27.9092 23.0799,27.9092" id="Fill-220"></path>
                    <path d="M22.0462,26.0643 C21.8822,26.0643 21.7502,25.9313 21.7502,25.7683 C21.7502,25.6043 21.8822,25.4713 22.0462,25.4713 C22.2092,25.4713 22.3422,25.6043 22.3422,25.7683 C22.3422,25.9313 22.2092,26.0643 22.0462,26.0643" id="Fill-222"></path>
                    <path d="M21.0078,24.2205 C20.8348,24.2205 20.6948,24.0805 20.6948,23.9075 C20.6948,23.7345 20.8348,23.5945 21.0078,23.5945 C21.1808,23.5945 21.3208,23.7345 21.3208,23.9075 C21.3208,24.0805 21.1808,24.2205 21.0078,24.2205" id="Fill-224"></path>
                    <path d="M19.9641,22.3829 C19.7821,22.3829 19.6351,22.2349 19.6351,22.0539 C19.6351,21.8719 19.7821,21.7239 19.9641,21.7239 C20.1461,21.7239 20.2931,21.8719 20.2931,22.0539 C20.2931,22.2349 20.1461,22.3829 19.9641,22.3829" id="Fill-226"></path>
                    <path d="M18.9146,20.5504 C18.7236,20.5504 18.5686,20.3954 18.5686,20.2044 C18.5686,20.0134 18.7236,19.8594 18.9146,19.8594 C19.1056,19.8594 19.2606,20.0134 19.2606,20.2044 C19.2606,20.3954 19.1056,20.5504 18.9146,20.5504" id="Fill-228"></path>
                    <path d="M17.8584,18.7215 C17.6584,18.7215 17.4964,18.5595 17.4964,18.3595 C17.4964,18.1595 17.6584,17.9975 17.8584,17.9975 C18.0584,17.9975 18.2204,18.1595 18.2204,18.3595 C18.2204,18.5595 18.0584,18.7215 17.8584,18.7215" id="Fill-230"></path>
                    <path d="M16.794,16.8978 C16.585,16.8978 16.415,16.7278 16.415,16.5188 C16.415,16.3098 16.585,16.1408 16.794,16.1408 C17.003,16.1408 17.173,16.3098 17.173,16.5188 C17.173,16.7278 17.003,16.8978 16.794,16.8978" id="Fill-232"></path>
                    <path d="M15.7178,15.0801 C15.4998,15.0801 15.3228,14.9031 15.3228,14.6851 C15.3228,14.4671 15.4998,14.2901 15.7178,14.2901 C15.9358,14.2901 16.1128,14.4671 16.1128,14.6851 C16.1128,14.9031 15.9358,15.0801 15.7178,15.0801" id="Fill-234"></path>
                    <path d="M14.6314,13.2686 C14.4044,13.2686 14.2194,13.0846 14.2194,12.8576 C14.2194,12.6296 14.4044,12.4456 14.6314,12.4456 C14.8584,12.4456 15.0424,12.6296 15.0424,12.8576 C15.0424,13.0846 14.8584,13.2686 14.6314,13.2686" id="Fill-236"></path>
                    <path d="M13.5344,11.4639 C13.2984,11.4639 13.1064,11.2719 13.1064,11.0359 C13.1064,10.7989 13.2984,10.6079 13.5344,10.6079 C13.7704,10.6079 13.9624,10.7989 13.9624,11.0359 C13.9624,11.2719 13.7704,11.4639 13.5344,11.4639" id="Fill-238"></path>
                    <path d="M12.4182,9.6707 C12.1722,9.6707 11.9732,9.4717 11.9732,9.2257 C11.9732,8.9807 12.1722,8.7817 12.4182,8.7817 C12.6632,8.7817 12.8622,8.9807 12.8622,9.2257 C12.8622,9.4717 12.6632,9.6707 12.4182,9.6707" id="Fill-240"></path>
                    <path d="M11.2776,7.8917 C11.0236,7.8917 10.8166,7.6857 10.8166,7.4307 C10.8166,7.1767 11.0236,6.9697 11.2776,6.9697 C11.5326,6.9697 11.7386,7.1767 11.7386,7.4307 C11.7386,7.6857 11.5326,7.8917 11.2776,7.8917" id="Fill-242"></path>
                    <path d="M10.4998,6.7139 C10.2358,6.7139 10.0228,6.4999 10.0228,6.2369 C10.0228,5.9729 10.2358,5.7589 10.4998,5.7589 C10.7638,5.7589 10.9778,5.9729 10.9778,6.2369 C10.9778,6.4999 10.7638,6.7139 10.4998,6.7139" id="Fill-244"></path>
                    <path d="M11.8762,4.2681 C11.1962,3.2361 9.8082,2.9501 8.7762,3.6301 C7.7442,4.3101 7.4582,5.6981 8.1382,6.7301 C8.8182,7.7621 10.2062,8.0481 11.2382,7.3681 C12.2702,6.6881 12.5562,5.3001 11.8762,4.2681" id="Fill-246"></path>
                </g>
            </g>
        </g>
    </g>
</svg>