<?xml version="1.0" encoding="UTF-8" standalone="no"?>
<svg width="52px" height="116px" viewBox="0 0 52 116" version="1.1" xmlns="http://www.w3.org/2000/svg" xmlns:xlink="http://www.w3.org/1999/xlink">
    <!-- Generator: Sketch 39.1 (31720) - http://www.bohemiancoding.com/sketch -->
    <title>Dots_7</title>
    <desc>Created with Sketch.</desc>
    <defs>
        <polygon id="path-1" points="0.0849 1 1.0849 1 1.0849 0.4542 0.0849 0.4542"></polygon>
        <polygon id="path-3" points="0.1714 1 1.1714 1 1.1714 0.6283 0.1714 0.6283"></polygon>
        <polygon id="path-5" points="0.2616 1 1.2616 1 1.2616 0.7672 0.2616 0.7672 0.2616 1"></polygon>
        <polygon id="path-7" points="0.3614 1 1.3614 1 1.3614 0.796 0.3614 0.796"></polygon>
        <polygon id="path-9" points="0.4602 1 1.4602 1 1.4602 0.6603 0.4602 0.6603"></polygon>
        <polygon id="path-11" points="0.5384 1 1.5384 1 1.5384 0.3373 0.5384 0.3373"></polygon>
        <polygon id="path-13" points="4.57059219 0.941 0.0942078086 0.941 0.0942078086 5.41690666 4.57059219 5.41690666 4.57059219 0.941"></polygon>
        <polygon id="path-15" points="0.5155 1 1.5155 1 1.5155 0.0461 0.5155 0.0461 0.5155 1"></polygon>
        <polygon id="path-17" points="0.6123 1 1.6123 1 1.6123 0.2666 0.6123 0.2666 0.6123 1"></polygon>
        <polygon id="path-19" points="0.7216 1 1.7216 1 1.7216 0.326 0.7216 0.326 0.7216 1"></polygon>
        <polygon id="path-21" points="0.8321 1 1.8321 1 1.8321 0.2682 0.8321 0.2682 0.8321 1"></polygon>
        <polygon id="path-23" points="0.939 1 1.939 1 1.939 0.1177 0.939 0.1177 0.939 1"></polygon>
        <polygon id="path-25" points="5.042 4.56772924 5.042 0.0908697923 0.565511442 0.0908697923 0.565511442 4.56772924"></polygon>
        <polygon id="path-27" points="0.876682112 5 5.354 5 5.354 0.522782112 0.876682112 0.522782112 0.876682112 5"></polygon>
        <polygon id="path-29" points="0.4395 1 1.4395 1 1.4395 0.0488 0.4395 0.0488"></polygon>
        <polygon id="path-31" points="4.8632558 0.322 0.386744333 0.322 0.386744333 4.7978558 4.8632558 4.7978558 4.8632558 0.322"></polygon>
    </defs>
    <g id="Main-Page" stroke="none" stroke-width="1" fill="none" fill-rule="evenodd">
        <g id="Mobile-Portrait" transform="translate(-54.000000, -1908.000000)">
            <g id="Dots_7" transform="translate(30.000000, 1902.000000)">
                <g id="Page-1" transform="translate(67.821575, 103.645528) rotate(89.000000) translate(-67.821575, -103.645528) translate(49.321575, 95.145528)">
                    <g id="Group-3" transform="translate(-0.000000, 14.059300)">
                        <mask id="mask-2" fill="white">
                            <use xlink:href="#path-1"></use>
                        </mask>
                        <g id="Clip-2"></g>
                        <path d="M0.1099,0.5052 C0.0959,0.5052 0.0849,0.4942 0.0849,0.4802 C0.0849,0.4652 0.0959,0.4542 0.1099,0.4542 C0.1239,0.4542 0.1359,0.4652 0.1359,0.4802 C0.1359,0.4942 0.1239,0.5052 0.1099,0.5052" id="Fill-1" fill="#1D96DD" mask="url(#mask-2)"></path>
                    </g>
                    <g id="Group-6" transform="translate(2.000000, 14.059300)">
                        <mask id="mask-4" fill="white">
                            <use xlink:href="#path-3"></use>
                        </mask>
                        <g id="Clip-5"></g>
                        <path d="M0.2224,0.7303 C0.1944,0.7303 0.1714,0.7073 0.1714,0.6793 C0.1714,0.6513 0.1944,0.6283 0.2224,0.6283 C0.2504,0.6283 0.2734,0.6513 0.2734,0.6793 C0.2734,0.7073 0.2504,0.7303 0.2224,0.7303" id="Fill-4" fill="#1D96DD" mask="url(#mask-4)"></path>
                    </g>
                    <g id="Group-9" transform="translate(4.000000, 14.059300)">
                        <mask id="mask-6" fill="white">
                            <use xlink:href="#path-5"></use>
                        </mask>
                        <g id="Clip-8"></g>
                        <path d="M0.3376,0.9202 C0.2956,0.9202 0.2616,0.8862 0.2616,0.8442 C0.2616,0.8012 0.2956,0.7672 0.3376,0.7672 C0.3796,0.7672 0.4146,0.8012 0.4146,0.8442 C0.4146,0.8862 0.3796,0.9202 0.3376,0.9202" id="Fill-7" fill="#1D96DD" mask="url(#mask-6)"></path>
                    </g>
                    <g id="Group-12" transform="translate(6.000000, 14.059300)">
                        <mask id="mask-8" fill="white">
                            <use xlink:href="#path-7"></use>
                        </mask>
                        <g id="Clip-11"></g>
                        <path d="M0.4634,1 C0.4074,1 0.3614,0.954 0.3614,0.898 C0.3614,0.842 0.4074,0.796 0.4634,0.796 C0.5194,0.796 0.5654,0.842 0.5654,0.898 C0.5654,0.954 0.5194,1 0.4634,1" id="Fill-10" fill="#1D96DD" mask="url(#mask-8)"></path>
                    </g>
                    <g id="Group-15" transform="translate(8.000000, 14.059300)">
                        <mask id="mask-10" fill="white">
                            <use xlink:href="#path-9"></use>
                        </mask>
                        <g id="Clip-14"></g>
                        <path d="M0.5872,0.9153 C0.5172,0.9153 0.4602,0.8583 0.4602,0.7883 C0.4602,0.7173 0.5172,0.6603 0.5872,0.6603 C0.6572,0.6603 0.7142,0.7173 0.7142,0.7883 C0.7142,0.8583 0.6572,0.9153 0.5872,0.9153" id="Fill-13" fill="#1D96DD" mask="url(#mask-10)"></path>
                    </g>
                    <g id="Group-18" transform="translate(10.000000, 14.059300)">
                        <mask id="mask-12" fill="white">
                            <use xlink:href="#path-11"></use>
                        </mask>
                        <g id="Clip-17"></g>
                        <path d="M0.6914,0.6433 C0.6064,0.6433 0.5384,0.5743 0.5384,0.4903 C0.5384,0.4063 0.6064,0.3373 0.6914,0.3373 C0.7754,0.3373 0.8444,0.4063 0.8444,0.4903 C0.8444,0.5743 0.7754,0.6433 0.6914,0.6433" id="Fill-16" fill="#1D96DD" mask="url(#mask-12)"></path>
                    </g>
                    <path d="M12.7615,14.2615 C12.6635,14.2615 12.5835,14.1815 12.5835,14.0835 C12.5835,13.9845 12.6635,13.9045 12.7615,13.9045 C12.8595,13.9045 12.9395,13.9845 12.9395,14.0835 C12.9395,14.1815 12.8595,14.2615 12.7615,14.2615" id="Fill-19" fill="#1D96DD"></path>
                    <path d="M14.8015,13.6875 C14.6885,13.6875 14.5975,13.5965 14.5975,13.4835 C14.5975,13.3715 14.6885,13.2795 14.8015,13.2795 C14.9145,13.2795 15.0055,13.3715 15.0055,13.4835 C15.0055,13.5965 14.9145,13.6875 14.8015,13.6875" id="Fill-21" fill="#1D96DD"></path>
                    <path d="M16.8127,13.0249 C16.6857,13.0249 16.5837,12.9219 16.5837,12.7959 C16.5837,12.6689 16.6857,12.5659 16.8127,12.5659 C16.9397,12.5659 17.0417,12.6689 17.0417,12.7959 C17.0417,12.9219 16.9397,13.0249 16.8127,13.0249" id="Fill-23" fill="#1D96DD"></path>
                    <path d="M18.7974,12.2878 C18.6564,12.2878 18.5424,12.1738 18.5424,12.0328 C18.5424,11.8918 18.6564,11.7778 18.7974,11.7778 C18.9384,11.7778 19.0524,11.8918 19.0524,12.0328 C19.0524,12.1738 18.9384,12.2878 18.7974,12.2878" id="Fill-25" fill="#1D96DD"></path>
                    <path d="M20.7573,11.4924 C20.6023,11.4924 20.4773,11.3674 20.4773,11.2124 C20.4773,11.0574 20.6023,10.9314 20.7573,10.9314 C20.9123,10.9314 21.0373,11.0574 21.0373,11.2124 C21.0373,11.3674 20.9123,11.4924 20.7573,11.4924" id="Fill-27" fill="#1D96DD"></path>
                    <path d="M22.7041,10.665 C22.5351,10.665 22.3981,10.528 22.3981,10.359 C22.3981,10.191 22.5351,10.054 22.7041,10.054 C22.8731,10.054 23.0101,10.191 23.0101,10.359 C23.0101,10.528 22.8731,10.665 22.7041,10.665" id="Fill-29" fill="#1D96DD"></path>
                    <path d="M24.625,9.7798 C24.442,9.7798 24.294,9.6318 24.294,9.4488 C24.294,9.2658 24.442,9.1178 24.625,9.1178 C24.808,9.1178 24.956,9.2658 24.956,9.4488 C24.956,9.6318 24.808,9.7798 24.625,9.7798" id="Fill-31" fill="#1D96DD"></path>
                    <path d="M26.5093,8.8213 C26.3123,8.8213 26.1523,8.6613 26.1523,8.4643 C26.1523,8.2683 26.3123,8.1083 26.5093,8.1083 C26.7063,8.1083 26.8663,8.2683 26.8663,8.4643 C26.8663,8.6613 26.7063,8.8213 26.5093,8.8213" id="Fill-33" fill="#1D96DD"></path>
                    <path d="M28.3342,7.7642 C28.1232,7.7642 27.9522,7.5932 27.9522,7.3822 C27.9522,7.1712 28.1232,7.0002 28.3342,7.0002 C28.5452,7.0002 28.7162,7.1712 28.7162,7.3822 C28.7162,7.5932 28.5452,7.7642 28.3342,7.7642" id="Fill-35" fill="#1D96DD"></path>
                    <path d="M30.113,6.6184 C29.888,6.6184 29.705,6.4364 29.705,6.2104 C29.705,5.9854 29.888,5.8034 30.113,5.8034 C30.338,5.8034 30.521,5.9854 30.521,6.2104 C30.521,6.4364 30.338,6.6184 30.113,6.6184" id="Fill-37" fill="#1D96DD"></path>
                    <path d="M31.8633,5.4363 C31.6243,5.4363 31.4303,5.2423 31.4303,5.0033 C31.4303,4.7643 31.6243,4.5703 31.8633,4.5703 C32.1023,4.5703 32.2963,4.7643 32.2963,5.0033 C32.2963,5.2423 32.1023,5.4363 31.8633,5.4363" id="Fill-39" fill="#1D96DD"></path>
                    <path d="M33.5957,4.229 C33.3427,4.229 33.1377,4.024 33.1377,3.77 C33.1377,3.517 33.3427,3.312 33.5957,3.312 C33.8487,3.312 34.0547,3.517 34.0547,3.77 C34.0547,4.024 33.8487,4.229 33.5957,4.229" id="Fill-41" fill="#1D96DD"></path>
                    <g id="Group-45" transform="translate(32.000000, 0.059300)">
                        <mask id="mask-14" fill="white">
                            <use xlink:href="#path-13"></use>
                        </mask>
                        <g id="Clip-44"></g>
                        <path d="M3.6484,4.989 C4.6484,4.262 4.8694,2.862 4.1424,1.863 C3.4164,0.863 2.0164,0.642 1.0164,1.368 C0.0164,2.095 -0.2046,3.495 0.5224,4.495 C1.2494,5.494 2.6484,5.716 3.6484,4.989" id="Fill-43" fill="#1D96DD" mask="url(#mask-14)"></path>
                    </g>
                </g>
                <g id="Page-1" transform="translate(65.123724, 87.899296) rotate(52.000000) translate(-65.123724, -87.899296) translate(46.123724, 73.399296)">
                    <path d="M20.7292,2.3571 C20.7062,2.3571 20.6872,2.3381 20.6872,2.3151 C20.6872,2.2921 20.7062,2.2731 20.7292,2.2731 C20.7522,2.2731 20.7712,2.2921 20.7712,2.3151 C20.7712,2.3381 20.7522,2.3571 20.7292,2.3571" id="Fill-5" fill="#1D96DD"></path>
                    <path d="M18.8813,3.4133 C18.8503,3.4133 18.8253,3.3883 18.8253,3.3573 C18.8253,3.3263 18.8503,3.3013 18.8813,3.3013 C18.9123,3.3013 18.9373,3.3263 18.9373,3.3573 C18.9373,3.3883 18.9123,3.4133 18.8813,3.4133" id="Fill-7" fill="#1D96DD"></path>
                    <path d="M17.0183,4.4487 C16.9793,4.4487 16.9483,4.4167 16.9483,4.3787 C16.9483,4.3397 16.9793,4.3087 17.0183,4.3087 C17.0573,4.3087 17.0883,4.3397 17.0883,4.3787 C17.0883,4.4167 17.0573,4.4487 17.0183,4.4487" id="Fill-9" fill="#1D96DD"></path>
                    <path d="M15.1455,5.469 C15.0995,5.469 15.0615,5.431 15.0615,5.385 C15.0615,5.338 15.0995,5.3 15.1455,5.3 C15.1925,5.3 15.2295,5.338 15.2295,5.385 C15.2295,5.431 15.1925,5.469 15.1455,5.469" id="Fill-11" fill="#1D96DD"></path>
                    <path d="M13.2808,6.5039 C13.2268,6.5039 13.1828,6.4599 13.1828,6.4059 C13.1828,6.3509 13.2268,6.3069 13.2808,6.3069 C13.3348,6.3069 13.3788,6.3509 13.3788,6.4059 C13.3788,6.4599 13.3348,6.5039 13.2808,6.5039" id="Fill-13" fill="#1D96DD"></path>
                    <path d="M11.4668,7.6286 C11.4048,7.6286 11.3548,7.5786 11.3548,7.5166 C11.3548,7.4546 11.4048,7.4036 11.4668,7.4036 C11.5288,7.4036 11.5788,7.4546 11.5788,7.5166 C11.5788,7.5786 11.5288,7.6286 11.4668,7.6286" id="Fill-15" fill="#1D96DD"></path>
                    <path d="M9.7219,8.8564 C9.6519,8.8564 9.5959,8.7994 9.5959,8.7304 C9.5959,8.6604 9.6519,8.6034 9.7219,8.6034 C9.7919,8.6034 9.8479,8.6604 9.8479,8.7304 C9.8479,8.7994 9.7919,8.8564 9.7219,8.8564" id="Fill-17" fill="#1D96DD"></path>
                    <path d="M8.0569,10.1921 C7.9789,10.1921 7.9169,10.1291 7.9169,10.0521 C7.9169,9.9741 7.9789,9.9111 8.0569,9.9111 C8.1339,9.9111 8.1969,9.9741 8.1969,10.0521 C8.1969,10.1291 8.1339,10.1921 8.0569,10.1921" id="Fill-19" fill="#1D96DD"></path>
                    <path d="M6.4829,11.6303 C6.3979,11.6303 6.3289,11.5613 6.3289,11.4763 C6.3289,11.3903 6.3979,11.3213 6.4829,11.3213 C6.5679,11.3213 6.6379,11.3903 6.6379,11.4763 C6.6379,11.5613 6.5679,11.6303 6.4829,11.6303" id="Fill-21" fill="#1D96DD"></path>
                    <path d="M5.0088,13.1819 C4.9158,13.1819 4.8398,13.1059 4.8398,13.0129 C4.8398,12.9199 4.9158,12.8449 5.0088,12.8449 C5.1018,12.8449 5.1768,12.9199 5.1768,13.0129 C5.1768,13.1059 5.1018,13.1819 5.0088,13.1819" id="Fill-23" fill="#1D96DD"></path>
                    <path d="M3.6694,14.8469 C3.5684,14.8469 3.4874,14.7649 3.4874,14.6649 C3.4874,14.5639 3.5684,14.4819 3.6694,14.4819 C3.7704,14.4819 3.8524,14.5639 3.8524,14.6649 C3.8524,14.7649 3.7704,14.8469 3.6694,14.8469" id="Fill-25" fill="#1D96DD"></path>
                    <path d="M2.4766,16.6208 C2.3686,16.6208 2.2796,16.5328 2.2796,16.4238 C2.2796,16.3158 2.3686,16.2278 2.4766,16.2278 C2.5856,16.2278 2.6736,16.3158 2.6736,16.4238 C2.6736,16.5328 2.5856,16.6208 2.4766,16.6208" id="Fill-27" fill="#1D96DD"></path>
                    <path d="M1.4446,18.4939 C1.3286,18.4939 1.2346,18.3999 1.2346,18.2839 C1.2346,18.1669 1.3286,18.0729 1.4446,18.0729 C1.5606,18.0729 1.6546,18.1669 1.6546,18.2839 C1.6546,18.3999 1.5606,18.4939 1.4446,18.4939" id="Fill-29" fill="#1D96DD"></path>
                    <path d="M0.6416,20.4812 C0.5176,20.4812 0.4166,20.3802 0.4166,20.2562 C0.4166,20.1322 0.5176,20.0322 0.6416,20.0322 C0.7656,20.0322 0.8666,20.1322 0.8666,20.2562 C0.8666,20.3802 0.7656,20.4812 0.6416,20.4812" id="Fill-31" fill="#1D96DD"></path>
                    <path d="M0.2385,22.5761 C0.1065,22.5761 0.0005,22.4691 0.0005,22.3381 C0.0005,22.2061 0.1065,22.0991 0.2385,22.0991 C0.3705,22.0991 0.4775,22.2061 0.4775,22.3381 C0.4775,22.4691 0.3705,22.5761 0.2385,22.5761" id="Fill-33" fill="#1D96DD"></path>
                    <path d="M1.0054,24.5163 C0.8654,24.5163 0.7524,24.4033 0.7524,24.2633 C0.7524,24.1243 0.8654,24.0113 1.0054,24.0113 C1.1444,24.0113 1.2584,24.1243 1.2584,24.2633 C1.2584,24.4033 1.1444,24.5163 1.0054,24.5163" id="Fill-35" fill="#1D96DD"></path>
                    <path d="M2.7393,25.7429 C2.5913,25.7429 2.4723,25.6239 2.4723,25.4759 C2.4723,25.3289 2.5913,25.2099 2.7393,25.2099 C2.8863,25.2099 3.0063,25.3289 3.0063,25.4759 C3.0063,25.6239 2.8863,25.7429 2.7393,25.7429" id="Fill-37" fill="#1D96DD"></path>
                    <path d="M4.7222,26.5246 C4.5672,26.5246 4.4412,26.3986 4.4412,26.2436 C4.4412,26.0886 4.5672,25.9636 4.7222,25.9636 C4.8772,25.9636 5.0032,26.0886 5.0032,26.2436 C5.0032,26.3986 4.8772,26.5246 4.7222,26.5246" id="Fill-39" fill="#1D96DD"></path>
                    <path d="M6.7473,27.1853 C6.5843,27.1853 6.4523,27.0533 6.4523,26.8903 C6.4523,26.7273 6.5843,26.5953 6.7473,26.5953 C6.9103,26.5953 7.0423,26.7273 7.0423,26.8903 C7.0423,27.0533 6.9103,27.1853 6.7473,27.1853" id="Fill-41" fill="#1D96DD"></path>
                    <g id="Group-45" transform="translate(8.000000, 26.978700)">
                        <mask id="mask-16" fill="white">
                            <use xlink:href="#path-15"></use>
                        </mask>
                        <g id="Clip-44"></g>
                        <path d="M0.8245,0.6641 C0.6535,0.6641 0.5155,0.5261 0.5155,0.3551 C0.5155,0.1851 0.6535,0.0461 0.8245,0.0461 C0.9955,0.0461 1.1335,0.1851 1.1335,0.3551 C1.1335,0.5261 0.9955,0.6641 0.8245,0.6641" id="Fill-43" fill="#1D96DD" mask="url(#mask-16)"></path>
                    </g>
                    <g id="Group-48" transform="translate(10.000000, 26.978700)">
                        <mask id="mask-18" fill="white">
                            <use xlink:href="#path-17"></use>
                        </mask>
                        <g id="Clip-47"></g>
                        <path d="M0.9353,0.9126 C0.7573,0.9126 0.6123,0.7676 0.6123,0.5896 C0.6123,0.4116 0.7573,0.2666 0.9353,0.2666 C1.1133,0.2666 1.2583,0.4116 1.2583,0.5896 C1.2583,0.7676 1.1133,0.9126 0.9353,0.9126" id="Fill-46" fill="#1D96DD" mask="url(#mask-18)"></path>
                    </g>
                    <g id="Group-51" transform="translate(12.000000, 26.978700)">
                        <mask id="mask-20" fill="white">
                            <use xlink:href="#path-19"></use>
                        </mask>
                        <g id="Clip-50"></g>
                        <path d="M1.0586,1 C0.8726,1 0.7216,0.849 0.7216,0.663 C0.7216,0.477 0.8726,0.326 1.0586,0.326 C1.2446,0.326 1.3956,0.477 1.3956,0.663 C1.3956,0.849 1.2446,1 1.0586,1" id="Fill-49" fill="#1D96DD" mask="url(#mask-20)"></path>
                    </g>
                    <g id="Group-54" transform="translate(14.000000, 26.978700)">
                        <mask id="mask-22" fill="white">
                            <use xlink:href="#path-21"></use>
                        </mask>
                        <g id="Clip-53"></g>
                        <path d="M1.1831,0.9702 C0.9891,0.9702 0.8321,0.8132 0.8321,0.6192 C0.8321,0.4252 0.9891,0.2682 1.1831,0.2682 C1.3771,0.2682 1.5341,0.4252 1.5341,0.6192 C1.5341,0.8132 1.3771,0.9702 1.1831,0.9702" id="Fill-52" fill="#1D96DD" mask="url(#mask-22)"></path>
                    </g>
                    <g id="Group-57" transform="translate(16.000000, 26.978700)">
                        <mask id="mask-24" fill="white">
                            <use xlink:href="#path-23"></use>
                        </mask>
                        <g id="Clip-56"></g>
                        <path d="M1.304,0.8477 C1.102,0.8477 0.939,0.6847 0.939,0.4827 C0.939,0.2807 1.102,0.1177 1.304,0.1177 C1.505,0.1177 1.669,0.2807 1.669,0.4827 C1.669,0.6847 1.505,0.8477 1.304,0.8477" id="Fill-55" fill="#1D96DD" mask="url(#mask-24)"></path>
                    </g>
                    <path d="M19.4209,27.6447 C19.2119,27.6447 19.0419,27.4747 19.0419,27.2657 C19.0419,27.0567 19.2119,26.8867 19.4209,26.8867 C19.6299,26.8867 19.7999,27.0567 19.7999,27.2657 C19.7999,27.4747 19.6299,27.6447 19.4209,27.6447" id="Fill-58" fill="#1D96DD"></path>
                    <path d="M21.5369,27.4419 C21.3199,27.4419 21.1439,27.2659 21.1439,27.0489 C21.1439,26.8319 21.3199,26.6559 21.5369,26.6559 C21.7539,26.6559 21.9299,26.8319 21.9299,27.0489 C21.9299,27.2659 21.7539,27.4419 21.5369,27.4419" id="Fill-60" fill="#1D96DD"></path>
                    <path d="M23.6526,27.2304 C23.4276,27.2304 23.2456,27.0484 23.2456,26.8234 C23.2456,26.5984 23.4276,26.4164 23.6526,26.4164 C23.8776,26.4164 24.0596,26.5984 24.0596,26.8234 C24.0596,27.0484 23.8776,27.2304 23.6526,27.2304" id="Fill-62" fill="#1D96DD"></path>
                    <path d="M25.7678,27.0107 C25.5358,27.0107 25.3468,26.8227 25.3468,26.5897 C25.3468,26.3567 25.5358,26.1687 25.7678,26.1687 C26.0008,26.1687 26.1888,26.3567 26.1888,26.5897 C26.1888,26.8227 26.0008,27.0107 25.7678,27.0107" id="Fill-64" fill="#1D96DD"></path>
                    <path d="M27.8806,26.7856 C27.6406,26.7856 27.4456,26.5906 27.4456,26.3506 C27.4456,26.1096 27.6406,25.9156 27.8806,25.9156 C28.1206,25.9156 28.3156,26.1096 28.3156,26.3506 C28.3156,26.5906 28.1206,26.7856 27.8806,26.7856" id="Fill-66" fill="#1D96DD"></path>
                    <path d="M29.9917,26.5464 C29.7437,26.5464 29.5427,26.3454 29.5427,26.0974 C29.5427,25.8494 29.7437,25.6484 29.9917,25.6484 C30.2397,25.6484 30.4407,25.8494 30.4407,26.0974 C30.4407,26.3454 30.2397,26.5464 29.9917,26.5464" id="Fill-68" fill="#1D96DD"></path>
                    <path d="M32.093,26.2375 C31.837,26.2375 31.63,26.0295 31.63,25.7745 C31.63,25.5185 31.837,25.3115 32.093,25.3115 C32.349,25.3115 32.556,25.5185 32.556,25.7745 C32.556,26.0295 32.349,26.2375 32.093,26.2375" id="Fill-70" fill="#1D96DD"></path>
                    <path d="M33.929,25.9306 C33.665,25.9306 33.452,25.7166 33.452,25.4536 C33.452,25.1896 33.665,24.9756 33.929,24.9756 C34.193,24.9756 34.406,25.1896 34.406,25.4536 C34.406,25.7166 34.193,25.9306 33.929,25.9306" id="Fill-72" fill="#1D96DD"></path>
                    <g id="Group-76" transform="translate(32.000000, 22.978700)">
                        <mask id="mask-26" fill="white">
                            <use xlink:href="#path-25"></use>
                        </mask>
                        <g id="Clip-75"></g>
                        <path d="M3.1602,4.5388 C4.3802,4.3418 5.2102,3.1928 5.0132,1.9728 C4.8172,0.7528 3.6682,-0.0772 2.4482,0.1198 C1.2272,0.3168 0.3982,1.4658 0.5942,2.6848 C0.7912,3.9058 1.9402,4.7358 3.1602,4.5388" id="Fill-74" fill="#1D96DD" mask="url(#mask-26)"></path>
                    </g>
                </g>
                <g id="Page-1" transform="translate(53.000000, 64.000000)">
                    <path d="M4.6646,0.9417 C4.6486,0.9417 4.6366,0.9297 4.6366,0.9137 C4.6366,0.8977 4.6486,0.8857 4.6646,0.8857 C4.6806,0.8857 4.6926,0.8977 4.6926,0.9137 C4.6926,0.9297 4.6806,0.9417 4.6646,0.9417" id="Fill-1" fill="#1D96DD"></path>
                    <path d="M3.7786,2.9026 C3.7476,2.9026 3.7216,2.8776 3.7216,2.8466 C3.7216,2.8146 3.7476,2.7896 3.7786,2.7896 C3.8096,2.7896 3.8346,2.8146 3.8346,2.8466 C3.8346,2.8776 3.8096,2.9026 3.7786,2.9026" id="Fill-3" fill="#1D96DD"></path>
                    <path d="M3.0176,4.916 C2.9706,4.916 2.9326,4.878 2.9326,4.831 C2.9326,4.784 2.9706,4.746 3.0176,4.746 C3.0646,4.746 3.1026,4.784 3.1026,4.831 C3.1026,4.878 3.0646,4.916 3.0176,4.916" id="Fill-5" fill="#1D96DD"></path>
                    <path d="M2.2493,6.9248 C2.1873,6.9248 2.1363,6.8748 2.1363,6.8118 C2.1363,6.7498 2.1873,6.6988 2.2493,6.6988 C2.3113,6.6988 2.3623,6.7498 2.3623,6.8118 C2.3623,6.8748 2.3113,6.9248 2.2493,6.9248" id="Fill-7" fill="#1D96DD"></path>
                    <path d="M1.4839,8.9343 C1.4059,8.9343 1.3429,8.8713 1.3429,8.7933 C1.3429,8.7153 1.4059,8.6513 1.4839,8.6513 C1.5619,8.6513 1.6249,8.7153 1.6249,8.7933 C1.6249,8.8713 1.5619,8.9343 1.4839,8.9343" id="Fill-9" fill="#1D96DD"></path>
                    <path d="M0.8047,10.9766 C0.7107,10.9766 0.6357,10.9006 0.6357,10.8066 C0.6357,10.7136 0.7107,10.6376 0.8047,10.6376 C0.8987,10.6376 0.9747,10.7136 0.9747,10.8066 C0.9747,10.9006 0.8987,10.9766 0.8047,10.9766" id="Fill-11" fill="#1D96DD"></path>
                    <path d="M0.3394,13.0777 C0.2304,13.0777 0.1414,12.9887 0.1414,12.8797 C0.1414,12.7707 0.2304,12.6817 0.3394,12.6817 C0.4484,12.6817 0.5374,12.7707 0.5374,12.8797 C0.5374,12.9887 0.4484,13.0777 0.3394,13.0777" id="Fill-13" fill="#1D96DD"></path>
                    <path d="M0.2261,15.2268 C0.1011,15.2268 0.0001,15.1258 0.0001,15.0008 C0.0001,14.8758 0.1011,14.7748 0.2261,14.7748 C0.3511,14.7748 0.4521,14.8758 0.4521,15.0008 C0.4521,15.1258 0.3511,15.2268 0.2261,15.2268" id="Fill-15" fill="#1D96DD"></path>
                    <path d="M0.5603,17.3508 C0.4203,17.3508 0.3063,17.2368 0.3063,17.0968 C0.3063,16.9558 0.4203,16.8418 0.5603,16.8418 C0.7003,16.8418 0.8143,16.9558 0.8143,17.0968 C0.8143,17.2368 0.7003,17.3508 0.5603,17.3508" id="Fill-17" fill="#1D96DD"></path>
                    <path d="M1.2976,19.3755 C1.1416,19.3755 1.0156,19.2485 1.0156,19.0925 C1.0156,18.9365 1.1416,18.8105 1.2976,18.8105 C1.4536,18.8105 1.5806,18.9365 1.5806,19.0925 C1.5806,19.2485 1.4536,19.3755 1.2976,19.3755" id="Fill-19" fill="#1D96DD"></path>
                    <path d="M2.2788,21.2886 C2.1068,21.2886 1.9678,21.1496 1.9678,20.9776 C1.9678,20.8056 2.1068,20.6666 2.2788,20.6666 C2.4508,20.6666 2.5898,20.8056 2.5898,20.9776 C2.5898,21.1496 2.4508,21.2886 2.2788,21.2886" id="Fill-21" fill="#1D96DD"></path>
                    <path d="M3.5359,23.0291 C3.3489,23.0291 3.1969,22.8771 3.1969,22.6901 C3.1969,22.5031 3.3489,22.3511 3.5359,22.3511 C3.7229,22.3511 3.8749,22.5031 3.8749,22.6901 C3.8749,22.8771 3.7229,23.0291 3.5359,23.0291" id="Fill-23" fill="#1D96DD"></path>
                    <path d="M4.9326,24.6651 C4.7296,24.6651 4.5656,24.5001 4.5656,24.2971 C4.5656,24.0951 4.7296,23.9301 4.9326,23.9301 C5.1356,23.9301 5.2996,24.0951 5.2996,24.2971 C5.2996,24.5001 5.1356,24.6651 4.9326,24.6651" id="Fill-25" fill="#1D96DD"></path>
                    <path d="M6.2754,26.3413 C6.0564,26.3413 5.8794,26.1643 5.8794,25.9463 C5.8794,25.7273 6.0564,25.5503 6.2754,25.5503 C6.4934,25.5503 6.6714,25.7273 6.6714,25.9463 C6.6714,26.1643 6.4934,26.3413 6.2754,26.3413" id="Fill-27" fill="#1D96DD"></path>
                    <path d="M7.5195,28.096 C7.2855,28.096 7.0955,27.906 7.0955,27.672 C7.0955,27.438 7.2855,27.248 7.5195,27.248 C7.7535,27.248 7.9435,27.438 7.9435,27.672 C7.9435,27.906 7.7535,28.096 7.5195,28.096" id="Fill-29" fill="#1D96DD"></path>
                    <path d="M8.627,29.9395 C8.377,29.9395 8.175,29.7375 8.175,29.4875 C8.175,29.2375 8.377,29.0355 8.627,29.0355 C8.876,29.0355 9.079,29.2375 9.079,29.4875 C9.079,29.7375 8.876,29.9395 8.627,29.9395" id="Fill-31" fill="#1D96DD"></path>
                    <g id="Group-35" transform="translate(6.000000, 27.661800)">
                        <mask id="mask-28" fill="white">
                            <use xlink:href="#path-27"></use>
                        </mask>
                        <g id="Clip-34"></g>
                        <path d="M1.063,3.6541 C1.556,4.7871 2.874,5.3071 4.008,4.8141 C5.141,4.3211 5.661,3.0021 5.168,1.8691 C4.675,0.7351 3.356,0.2161 2.223,0.7091 C1.089,1.2021 0.57,2.5211 1.063,3.6541" id="Fill-33" fill="#1D96DD" mask="url(#mask-28)"></path>
                    </g>
                </g>
                <g id="Page-1" transform="translate(42.084716, 46.434216) rotate(191.000000) translate(-42.084716, -46.434216) translate(7.084716, 5.934216)">
                    <path d="M51.4007,77.6096 L51.3917,77.6006 C51.3917,77.5946 51.3957,77.5906 51.3957,77.5906 C51.4057,77.5906 51.4107,77.5946 51.4107,77.6006 C51.4107,77.6006 51.4057,77.6096 51.4007,77.6096" id="Fill-1" fill="#1D96DD"></path>
                    <path d="M50.9786,75.5356 C50.9686,75.5356 50.9596,75.5266 50.9596,75.5166 C50.9596,75.5066 50.9686,75.4976 50.9786,75.4976 C50.9896,75.4976 50.9976,75.5066 50.9976,75.5166 C50.9976,75.5266 50.9896,75.5356 50.9786,75.5356" id="Fill-3" fill="#1D96DD"></path>
                    <path d="M50.5692,73.4612 C50.5532,73.4612 50.5402,73.4482 50.5402,73.4322 C50.5402,73.4162 50.5532,73.4042 50.5692,73.4042 C50.5852,73.4042 50.5982,73.4162 50.5982,73.4322 C50.5982,73.4482 50.5852,73.4612 50.5692,73.4612" id="Fill-5" fill="#1D96DD"></path>
                    <path d="M50.1812,71.3818 C50.1602,71.3818 50.1432,71.3648 50.1432,71.3438 C50.1432,71.3228 50.1602,71.3058 50.1812,71.3058 C50.2022,71.3058 50.2192,71.3228 50.2192,71.3438 C50.2192,71.3648 50.2022,71.3818 50.1812,71.3818" id="Fill-7" fill="#1D96DD"></path>
                    <path d="M49.8082,69.2983 C49.7822,69.2983 49.7602,69.2773 49.7602,69.2503 C49.7602,69.2243 49.7822,69.2033 49.8082,69.2033 C49.8342,69.2033 49.8562,69.2243 49.8562,69.2503 C49.8562,69.2773 49.8342,69.2983 49.8082,69.2983" id="Fill-9" fill="#1D96DD"></path>
                    <path d="M49.4476,67.2129 C49.4156,67.2129 49.3906,67.1879 49.3906,67.1559 C49.3906,67.1249 49.4156,67.0989 49.4476,67.0989 C49.4786,67.0989 49.5046,67.1249 49.5046,67.1559 C49.5046,67.1879 49.4786,67.2129 49.4476,67.2129" id="Fill-11" fill="#1D96DD"></path>
                    <path d="M49.098,65.1255 C49.061,65.1255 49.031,65.0955 49.031,65.0595 C49.031,65.0225 49.061,64.9925 49.098,64.9925 C49.135,64.9925 49.164,65.0225 49.164,65.0595 C49.164,65.0955 49.135,65.1255 49.098,65.1255" id="Fill-13" fill="#1D96DD"></path>
                    <path d="M48.7559,63.0366 C48.7139,63.0366 48.6799,63.0026 48.6799,62.9606 C48.6799,62.9186 48.7139,62.8846 48.7559,62.8846 C48.7979,62.8846 48.8319,62.9186 48.8319,62.9606 C48.8319,63.0026 48.7979,63.0366 48.7559,63.0366" id="Fill-15" fill="#1D96DD"></path>
                    <path d="M48.4202,60.948 C48.3732,60.948 48.3352,60.91 48.3352,60.862 C48.3352,60.815 48.3732,60.777 48.4202,60.777 C48.4672,60.777 48.5052,60.815 48.5052,60.862 C48.5052,60.91 48.4672,60.948 48.4202,60.948" id="Fill-17" fill="#1D96DD"></path>
                    <path d="M48.0904,58.8572 C48.0384,58.8572 47.9954,58.8152 47.9954,58.7622 C47.9954,58.7092 48.0384,58.6672 48.0904,58.6672 C48.1434,58.6672 48.1854,58.7092 48.1854,58.7622 C48.1854,58.8152 48.1434,58.8572 48.0904,58.8572" id="Fill-19" fill="#1D96DD"></path>
                    <path d="M47.762,56.7661 C47.704,56.7661 47.658,56.7191 47.658,56.6611 C47.658,56.6041 47.704,56.5571 47.762,56.5571 C47.82,56.5571 47.867,56.6041 47.867,56.6611 C47.867,56.7191 47.82,56.7661 47.762,56.7661" id="Fill-21" fill="#1D96DD"></path>
                    <path d="M47.4298,54.6755 C47.3668,54.6755 47.3158,54.6245 47.3158,54.5615 C47.3158,54.4985 47.3668,54.4475 47.4298,54.4475 C47.4928,54.4475 47.5438,54.4985 47.5438,54.5615 C47.5438,54.6245 47.4928,54.6755 47.4298,54.6755" id="Fill-23" fill="#1D96DD"></path>
                    <path d="M47.0877,52.5864 C47.0197,52.5864 46.9647,52.5314 46.9647,52.4624 C46.9647,52.3944 47.0197,52.3394 47.0877,52.3394 C47.1557,52.3394 47.2117,52.3944 47.2117,52.4624 C47.2117,52.5314 47.1557,52.5864 47.0877,52.5864" id="Fill-25" fill="#1D96DD"></path>
                    <path d="M46.7298,50.4997 C46.6558,50.4997 46.5968,50.4397 46.5968,50.3667 C46.5968,50.2937 46.6558,50.2337 46.7298,50.2337 C46.8038,50.2337 46.8628,50.2937 46.8628,50.3667 C46.8628,50.4397 46.8038,50.4997 46.7298,50.4997" id="Fill-27" fill="#1D96DD"></path>
                    <path d="M46.3489,48.4175 C46.2699,48.4175 46.2069,48.3535 46.2069,48.2745 C46.2069,48.1965 46.2699,48.1325 46.3489,48.1325 C46.4279,48.1325 46.4909,48.1965 46.4909,48.2745 C46.4909,48.3535 46.4279,48.4175 46.3489,48.4175" id="Fill-29" fill="#1D96DD"></path>
                    <path d="M45.94,46.3403 C45.856,46.3403 45.788,46.2723 45.788,46.1883 C45.788,46.1043 45.856,46.0363 45.94,46.0363 C46.024,46.0363 46.092,46.1043 46.092,46.1883 C46.092,46.2723 46.024,46.3403 45.94,46.3403" id="Fill-31" fill="#1D96DD"></path>
                    <path d="M45.4959,44.2698 C45.4069,44.2698 45.3339,44.1968 45.3339,44.1078 C45.3339,44.0188 45.4069,43.9468 45.4959,43.9468 C45.5849,43.9468 45.6579,44.0188 45.6579,44.1078 C45.6579,44.1968 45.5849,44.2698 45.4959,44.2698" id="Fill-33" fill="#1D96DD"></path>
                    <path d="M45.0069,42.2087 C44.9129,42.2087 44.8359,42.1327 44.8359,42.0377 C44.8359,41.9437 44.9129,41.8667 45.0069,41.8667 C45.1009,41.8667 45.1779,41.9437 45.1779,42.0377 C45.1779,42.1327 45.1009,42.2087 45.0069,42.2087" id="Fill-35" fill="#1D96DD"></path>
                    <path d="M44.4627,40.1618 C44.3627,40.1618 44.2827,40.0808 44.2827,39.9818 C44.2827,39.8818 44.3627,39.8008 44.4627,39.8008 C44.5627,39.8008 44.6437,39.8818 44.6437,39.9818 C44.6437,40.0808 44.5627,40.1618 44.4627,40.1618" id="Fill-37" fill="#1D96DD"></path>
                    <path d="M43.8575,38.1328 C43.7525,38.1328 43.6675,38.0478 43.6675,37.9428 C43.6675,37.8378 43.7525,37.7528 43.8575,37.7528 C43.9625,37.7528 44.0475,37.8378 44.0475,37.9428 C44.0475,38.0478 43.9625,38.1328 43.8575,38.1328" id="Fill-39" fill="#1D96DD"></path>
                    <path d="M43.1917,36.1228 C43.0817,36.1228 42.9927,36.0338 42.9927,35.9238 C42.9927,35.8128 43.0817,35.7238 43.1917,35.7238 C43.3017,35.7238 43.3917,35.8128 43.3917,35.9238 C43.3917,36.0338 43.3017,36.1228 43.1917,36.1228" id="Fill-41" fill="#1D96DD"></path>
                    <path d="M42.4549,34.1335 C42.3399,34.1335 42.2459,34.0395 42.2459,33.9245 C42.2459,33.8085 42.3399,33.7155 42.4549,33.7155 C42.5709,33.7155 42.6639,33.8085 42.6639,33.9245 C42.6639,34.0395 42.5709,34.1335 42.4549,34.1335" id="Fill-43" fill="#1D96DD"></path>
                    <path d="M41.6429,32.1777 C41.5219,32.1777 41.4239,32.0797 41.4239,31.9587 C41.4239,31.8387 41.5219,31.7407 41.6429,31.7407 C41.7639,31.7407 41.8619,31.8387 41.8619,31.9587 C41.8619,32.0797 41.7639,32.1777 41.6429,32.1777" id="Fill-45" fill="#1D96DD"></path>
                    <path d="M40.6749,30.2925 C40.5489,30.2925 40.4469,30.1905 40.4469,30.0645 C40.4469,29.9385 40.5489,29.8365 40.6749,29.8365 C40.8009,29.8365 40.9029,29.9385 40.9029,30.0645 C40.9029,30.1905 40.8009,30.2925 40.6749,30.2925" id="Fill-47" fill="#1D96DD"></path>
                    <path d="M39.2374,28.7654 C39.1064,28.7654 38.9994,28.6584 38.9994,28.5274 C38.9994,28.3964 39.1064,28.2904 39.2374,28.2904 C39.3684,28.2904 39.4754,28.3964 39.4754,28.5274 C39.4754,28.6584 39.3684,28.7654 39.2374,28.7654" id="Fill-49" fill="#1D96DD"></path>
                    <path d="M37.1964,28.2629 C37.0594,28.2629 36.9494,28.1519 36.9494,28.0159 C36.9494,27.8799 37.0594,27.7689 37.1964,27.7689 C37.3324,27.7689 37.4434,27.8799 37.4434,28.0159 C37.4434,28.1519 37.3324,28.2629 37.1964,28.2629" id="Fill-51" fill="#1D96DD"></path>
                    <path d="M35.0743,28.1806 C34.9323,28.1806 34.8173,28.0656 34.8173,27.9246 C34.8173,27.7826 34.9323,27.6676 35.0743,27.6676 C35.2163,27.6676 35.3303,27.7826 35.3303,27.9246 C35.3303,28.0656 35.2163,28.1806 35.0743,28.1806" id="Fill-53" fill="#1D96DD"></path>
                    <path d="M32.9542,28.0271 C32.8072,28.0271 32.6882,27.9081 32.6882,27.7611 C32.6882,27.6141 32.8072,27.4951 32.9542,27.4951 C33.1012,27.4951 33.2202,27.6141 33.2202,27.7611 C33.2202,27.9081 33.1012,28.0271 32.9542,28.0271" id="Fill-55" fill="#1D96DD"></path>
                    <path d="M31.1714,27.1538 C31.0194,27.1538 30.8954,27.0298 30.8954,26.8778 C30.8954,26.7258 31.0194,26.6028 31.1714,26.6028 C31.3234,26.6028 31.4474,26.7258 31.4474,26.8778 C31.4474,27.0298 31.3234,27.1538 31.1714,27.1538" id="Fill-57" fill="#1D96DD"></path>
                    <path d="M32.4515,25.5693 C32.2935,25.5693 32.1665,25.4413 32.1665,25.2843 C32.1665,25.1263 32.2935,24.9993 32.4515,24.9993 C32.6085,24.9993 32.7365,25.1263 32.7365,25.2843 C32.7365,25.4413 32.6085,25.5693 32.4515,25.5693" id="Fill-59" fill="#1D96DD"></path>
                    <path d="M34.2979,24.5281 C34.1349,24.5281 34.0039,24.3961 34.0039,24.2331 C34.0039,24.0711 34.1349,23.9391 34.2979,23.9391 C34.4609,23.9391 34.5929,24.0711 34.5929,24.2331 C34.5929,24.3961 34.4609,24.5281 34.2979,24.5281" id="Fill-61" fill="#1D96DD"></path>
                    <path d="M36.192,23.5722 C36.024,23.5722 35.888,23.4362 35.888,23.2682 C35.888,23.1002 36.024,22.9642 36.192,22.9642 C36.36,22.9642 36.496,23.1002 36.496,23.2682 C36.496,23.4362 36.36,23.5722 36.192,23.5722" id="Fill-63" fill="#1D96DD"></path>
                    <path d="M36.2056,22.0327 C36.0326,22.0327 35.8916,21.8927 35.8916,21.7187 C35.8916,21.5457 36.0326,21.4057 36.2056,21.4057 C36.3786,21.4057 36.5196,21.5457 36.5196,21.7187 C36.5196,21.8927 36.3786,22.0327 36.2056,22.0327" id="Fill-65" fill="#1D96DD"></path>
                    <path d="M34.3485,21.0088 C34.1705,21.0088 34.0255,20.8638 34.0255,20.6858 C34.0255,20.5068 34.1705,20.3628 34.3485,20.3628 C34.5265,20.3628 34.6715,20.5068 34.6715,20.6858 C34.6715,20.8638 34.5265,21.0088 34.3485,21.0088" id="Fill-67" fill="#1D96DD"></path>
                    <path d="M32.4571,20.0549 C32.2731,20.0549 32.1241,19.9059 32.1241,19.7219 C32.1241,19.5389 32.2731,19.3899 32.4571,19.3899 C32.6411,19.3899 32.7901,19.5389 32.7901,19.7219 C32.7901,19.9059 32.6411,20.0549 32.4571,20.0549" id="Fill-69" fill="#1D96DD"></path>
                    <path d="M30.5589,19.1072 C30.3699,19.1072 30.2169,18.9542 30.2169,18.7652 C30.2169,18.5762 30.3699,18.4232 30.5589,18.4232 C30.7479,18.4232 30.9009,18.5762 30.9009,18.7652 C30.9009,18.9542 30.7479,19.1072 30.5589,19.1072" id="Fill-71" fill="#1D96DD"></path>
                    <path d="M28.6578,18.1662 C28.4638,18.1662 28.3058,18.0092 28.3058,17.8152 C28.3058,17.6202 28.4638,17.4632 28.6578,17.4632 C28.8518,17.4632 29.0098,17.6202 29.0098,17.8152 C29.0098,18.0092 28.8518,18.1662 28.6578,18.1662" id="Fill-73" fill="#1D96DD"></path>
                    <path d="M26.7764,17.1865 C26.5774,17.1865 26.4154,17.0245 26.4154,16.8255 C26.4154,16.6255 26.5774,16.4645 26.7764,16.4645 C26.9754,16.4645 27.1374,16.6255 27.1374,16.8255 C27.1374,17.0245 26.9754,17.1865 26.7764,17.1865" id="Fill-75" fill="#1D96DD"></path>
                    <path d="M24.9102,16.1784 C24.7052,16.1784 24.5392,16.0124 24.5392,15.8074 C24.5392,15.6034 24.7052,15.4374 24.9102,15.4374 C25.1152,15.4374 25.2812,15.6034 25.2812,15.8074 C25.2812,16.0124 25.1152,16.1784 24.9102,16.1784" id="Fill-77" fill="#1D96DD"></path>
                    <path d="M23.0543,15.1513 C22.8443,15.1513 22.6743,14.9813 22.6743,14.7713 C22.6743,14.5613 22.8443,14.3913 23.0543,14.3913 C23.2643,14.3913 23.4343,14.5613 23.4343,14.7713 C23.4343,14.9813 23.2643,15.1513 23.0543,15.1513" id="Fill-79" fill="#1D96DD"></path>
                    <path d="M21.21,14.1094 C20.995,14.1094 20.82,13.9344 20.82,13.7194 C20.82,13.5044 20.995,13.3304 21.21,13.3304 C21.425,13.3304 21.6,13.5044 21.6,13.7194 C21.6,13.9344 21.425,14.1094 21.21,14.1094" id="Fill-81" fill="#1D96DD"></path>
                    <path d="M19.3714,13.0515 C19.1504,13.0515 18.9724,12.8735 18.9724,12.6525 C18.9724,12.4325 19.1504,12.2535 19.3714,12.2535 C19.5924,12.2535 19.7704,12.4325 19.7704,12.6525 C19.7704,12.8735 19.5924,13.0515 19.3714,13.0515" id="Fill-83" fill="#1D96DD"></path>
                    <path d="M17.5391,11.9836 C17.3131,11.9836 17.1301,11.8006 17.1301,11.5756 C17.1301,11.3496 17.3131,11.1666 17.5391,11.1666 C17.7651,11.1666 17.9481,11.3496 17.9481,11.5756 C17.9481,11.8006 17.7651,11.9836 17.5391,11.9836" id="Fill-85" fill="#1D96DD"></path>
                    <path d="M15.7103,10.9092 C15.4793,10.9092 15.2923,10.7222 15.2923,10.4912 C15.2923,10.2602 15.4793,10.0732 15.7103,10.0732 C15.9413,10.0732 16.1283,10.2602 16.1283,10.4912 C16.1283,10.7222 15.9413,10.9092 15.7103,10.9092" id="Fill-87" fill="#1D96DD"></path>
                    <path d="M13.8829,9.8323 C13.6469,9.8323 13.4549,9.6413 13.4549,9.4043 C13.4549,9.1683 13.6469,8.9773 13.8829,8.9773 C14.1189,8.9773 14.3099,9.1683 14.3099,9.4043 C14.3099,9.6413 14.1189,9.8323 13.8829,9.8323" id="Fill-89" fill="#1D96DD"></path>
                    <path d="M12.0447,8.7673 C11.8037,8.7673 11.6077,8.5713 11.6077,8.3303 C11.6077,8.0893 11.8037,7.8933 12.0447,7.8933 C12.2867,7.8933 12.4817,8.0893 12.4817,8.3303 C12.4817,8.5713 12.2867,8.7673 12.0447,8.7673" id="Fill-91" fill="#1D96DD"></path>
                    <path d="M10.1932,7.7229 C9.9462,7.7229 9.7462,7.5229 9.7462,7.2759 C9.7462,7.0299 9.9462,6.8299 10.1932,6.8299 C10.4402,6.8299 10.6402,7.0299 10.6402,7.2759 C10.6402,7.5229 10.4402,7.7229 10.1932,7.7229" id="Fill-93" fill="#1D96DD"></path>
                    <path d="M8.3231,6.7163 C8.0711,6.7163 7.8671,6.5123 7.8671,6.2603 C7.8671,6.0083 8.0711,5.8043 8.3231,5.8043 C8.5751,5.8043 8.7791,6.0083 8.7791,6.2603 C8.7791,6.5123 8.5751,6.7163 8.3231,6.7163" id="Fill-95" fill="#1D96DD"></path>
                    <path d="M6.4239,5.7644 C6.1669,5.7644 5.9579,5.5564 5.9579,5.2984 C5.9579,5.0414 6.1669,4.8334 6.4239,4.8334 C6.6809,4.8334 6.8899,5.0414 6.8899,5.2984 C6.8899,5.5564 6.6809,5.7644 6.4239,5.7644" id="Fill-97" fill="#1D96DD"></path>
                    <path d="M4.4952,4.8769 C4.2332,4.8769 4.0202,4.6639 4.0202,4.4019 C4.0202,4.1389 4.2332,3.9269 4.4952,3.9269 C4.7572,3.9269 4.9702,4.1389 4.9702,4.4019 C4.9702,4.6639 4.7572,4.8769 4.4952,4.8769" id="Fill-99" fill="#1D96DD"></path>
                    <path d="M3.0623,4.2771 C2.7943,4.2771 2.5773,4.0601 2.5773,3.7921 C2.5773,3.5251 2.7943,3.3081 3.0623,3.3081 C3.3303,3.3081 3.5473,3.5251 3.5473,3.7921 C3.5473,4.0601 3.3303,4.2771 3.0623,4.2771" id="Fill-101" fill="#1D96DD"></path>
                    <path d="M3.0467,1.3874 C1.8937,0.9414 0.5977,1.5144 0.1517,2.6664 C-0.2943,3.8194 0.2777,5.1154 1.4307,5.5614 C2.5837,6.0074 3.8797,5.4354 4.3257,4.2824 C4.7717,3.1294 4.1997,1.8334 3.0467,1.3874" id="Fill-103" fill="#1D96DD"></path>
                    <path d="M15.4979,77.6931 C15.4909,77.6931 15.4849,77.6871 15.4849,77.6871 C15.4849,77.6721 15.4909,77.6661 15.4979,77.6661 C15.5049,77.6661 15.5109,77.6721 15.5109,77.6801 C15.5109,77.6801 15.5049,77.6931 15.4979,77.6931" id="Fill-105" fill="#1D96DD"></path>
                    <path d="M14.8382,75.686 C14.8232,75.686 14.8112,75.674 14.8112,75.659 C14.8112,75.645 14.8232,75.633 14.8382,75.633 C14.8532,75.633 14.8642,75.645 14.8642,75.659 C14.8642,75.674 14.8532,75.686 14.8382,75.686" id="Fill-107" fill="#1D96DD"></path>
                    <path d="M14.2217,73.667 C14.1997,73.667 14.1817,73.649 14.1817,73.627 C14.1817,73.605 14.1997,73.587 14.2217,73.587 C14.2437,73.587 14.2617,73.605 14.2617,73.627 C14.2617,73.649 14.2437,73.667 14.2217,73.667" id="Fill-109" fill="#1D96DD"></path>
                    <path d="M13.657,71.6313 C13.628,71.6313 13.604,71.6073 13.604,71.5783 C13.604,71.5493 13.628,71.5253 13.657,71.5253 C13.687,71.5253 13.71,71.5493 13.71,71.5783 C13.71,71.6073 13.687,71.6313 13.657,71.6313" id="Fill-111" fill="#1D96DD"></path>
                    <path d="M13.1934,69.5703 C13.1564,69.5703 13.1274,69.5403 13.1274,69.5043 C13.1274,69.4673 13.1564,69.4373 13.1934,69.4373 C13.2304,69.4373 13.2594,69.4673 13.2594,69.5043 C13.2594,69.5403 13.2304,69.5703 13.1934,69.5703" id="Fill-113" fill="#1D96DD"></path>
                    <path d="M12.8069,67.4978 C12.7629,67.4978 12.7279,67.4618 12.7279,67.4178 C12.7279,67.3738 12.7629,67.3388 12.8069,67.3388 C12.8509,67.3388 12.8869,67.3738 12.8869,67.4178 C12.8869,67.4618 12.8509,67.4978 12.8069,67.4978" id="Fill-115" fill="#1D96DD"></path>
                    <path d="M12.4813,65.4106 C12.4303,65.4106 12.3883,65.3686 12.3883,65.3176 C12.3883,65.2666 12.4303,65.2246 12.4813,65.2246 C12.5323,65.2246 12.5743,65.2666 12.5743,65.3176 C12.5743,65.3686 12.5323,65.4106 12.4813,65.4106" id="Fill-117" fill="#1D96DD"></path>
                    <path d="M12.2093,63.3179 C12.1503,63.3179 12.1033,63.2699 12.1033,63.2119 C12.1033,63.1529 12.1503,63.1049 12.2093,63.1049 C12.2683,63.1049 12.3153,63.1529 12.3153,63.2119 C12.3153,63.2699 12.2683,63.3179 12.2093,63.3179" id="Fill-119" fill="#1D96DD"></path>
                    <path d="M11.9932,61.2173 C11.9272,61.2173 11.8732,61.1643 11.8732,61.0983 C11.8732,61.0313 11.9272,60.9783 11.9932,60.9783 C12.0592,60.9783 12.1132,61.0313 12.1132,61.0983 C12.1132,61.1643 12.0592,61.2173 11.9932,61.2173" id="Fill-121" fill="#1D96DD"></path>
                    <path d="M11.8265,59.1113 C11.7535,59.1113 11.6935,59.0513 11.6935,58.9783 C11.6935,58.9053 11.7535,58.8453 11.8265,58.8453 C11.9005,58.8453 11.9595,58.9053 11.9595,58.9783 C11.9595,59.0513 11.9005,59.1113 11.8265,59.1113" id="Fill-123" fill="#1D96DD"></path>
                    <path d="M11.7025,57.0032 C11.6215,57.0032 11.5565,56.9382 11.5565,56.8572 C11.5565,56.7762 11.6215,56.7112 11.7025,56.7112 C11.7835,56.7112 11.8485,56.7762 11.8485,56.8572 C11.8485,56.9382 11.7835,57.0032 11.7025,57.0032" id="Fill-125" fill="#1D96DD"></path>
                    <path d="M11.6153,54.8923 C11.5273,54.8923 11.4563,54.8203 11.4563,54.7333 C11.4563,54.6453 11.5273,54.5733 11.6153,54.5733 C11.7033,54.5733 11.7743,54.6453 11.7743,54.7333 C11.7743,54.8203 11.7033,54.8923 11.6153,54.8923" id="Fill-127" fill="#1D96DD"></path>
                    <path d="M11.5606,52.7805 C11.4656,52.7805 11.3876,52.7035 11.3876,52.6075 C11.3876,52.5125 11.4656,52.4355 11.5606,52.4355 C11.6556,52.4355 11.7336,52.5125 11.7336,52.6075 C11.7336,52.7035 11.6556,52.7805 11.5606,52.7805" id="Fill-129" fill="#1D96DD"></path>
                    <path d="M11.5474,50.6679 C11.4444,50.6679 11.3614,50.5849 11.3614,50.4819 C11.3614,50.3789 11.4444,50.2959 11.5474,50.2959 C11.6504,50.2959 11.7334,50.3789 11.7334,50.4819 C11.7334,50.5849 11.6504,50.6679 11.5474,50.6679" id="Fill-131" fill="#1D96DD"></path>
                    <path d="M11.5894,48.5571 C11.4794,48.5571 11.3904,48.4681 11.3904,48.3581 C11.3904,48.2481 11.4794,48.1591 11.5894,48.1591 C11.6994,48.1591 11.7884,48.2481 11.7884,48.3581 C11.7884,48.4681 11.6994,48.5571 11.5894,48.5571" id="Fill-133" fill="#1D96DD"></path>
                    <path d="M11.6851,46.4458 C11.5681,46.4458 11.4731,46.3508 11.4731,46.2338 C11.4731,46.1158 11.5681,46.0208 11.6851,46.0208 C11.8031,46.0208 11.8981,46.1158 11.8981,46.2338 C11.8981,46.3508 11.8031,46.4458 11.6851,46.4458" id="Fill-135" fill="#1D96DD"></path>
                    <path d="M11.8311,44.3379 C11.7061,44.3379 11.6051,44.2369 11.6051,44.1119 C11.6051,43.9879 11.7061,43.8869 11.8311,43.8869 C11.9561,43.8869 12.0571,43.9879 12.0571,44.1119 C12.0571,44.2369 11.9561,44.3379 11.8311,44.3379" id="Fill-137" fill="#1D96DD"></path>
                    <path d="M12.0203,42.2334 C11.8883,42.2334 11.7813,42.1264 11.7813,41.9944 C11.7813,41.8624 11.8883,41.7554 12.0203,41.7554 C12.1523,41.7554 12.2593,41.8624 12.2593,41.9944 C12.2593,42.1264 12.1523,42.2334 12.0203,42.2334" id="Fill-139" fill="#1D96DD"></path>
                    <path d="M12.2506,40.1323 C12.1116,40.1323 11.9986,40.0193 11.9986,39.8803 C11.9986,39.7403 12.1116,39.6273 12.2506,39.6273 C12.3896,39.6273 12.5026,39.7403 12.5026,39.8803 C12.5026,40.0193 12.3896,40.1323 12.2506,40.1323" id="Fill-141" fill="#1D96DD"></path>
                    <path d="M12.5137,38.0349 C12.3667,38.0349 12.2477,37.9159 12.2477,37.7699 C12.2477,37.6229 12.3667,37.5039 12.5137,37.5039 C12.6607,37.5039 12.7797,37.6229 12.7797,37.7699 C12.7797,37.9159 12.6607,38.0349 12.5137,38.0349" id="Fill-143" fill="#1D96DD"></path>
                    <path d="M12.8006,35.9411 C12.6466,35.9411 12.5216,35.8161 12.5216,35.6621 C12.5216,35.5081 12.6466,35.3831 12.8006,35.3831 C12.9546,35.3831 13.0796,35.5081 13.0796,35.6621 C13.0796,35.8161 12.9546,35.9411 12.8006,35.9411" id="Fill-145" fill="#1D96DD"></path>
                    <path d="M13.1085,33.8506 C12.9475,33.8506 12.8165,33.7196 12.8165,33.5586 C12.8165,33.3976 12.9475,33.2666 13.1085,33.2666 C13.2695,33.2666 13.4005,33.3976 13.4005,33.5586 C13.4005,33.7196 13.2695,33.8506 13.1085,33.8506" id="Fill-147" fill="#1D96DD"></path>
                    <path d="M13.4271,31.7602 C13.2581,31.7602 13.1221,31.6232 13.1221,31.4542 C13.1221,31.2862 13.2581,31.1492 13.4271,31.1492 C13.5961,31.1492 13.7321,31.2862 13.7321,31.4542 C13.7321,31.6232 13.5961,31.7602 13.4271,31.7602" id="Fill-149" fill="#1D96DD"></path>
                    <path d="M13.7498,29.6719 C13.5738,29.6719 13.4308,29.5289 13.4308,29.3529 C13.4308,29.1769 13.5738,29.0349 13.7498,29.0349 C13.9258,29.0349 14.0688,29.1769 14.0688,29.3529 C14.0688,29.5289 13.9258,29.6719 13.7498,29.6719" id="Fill-151" fill="#1D96DD"></path>
                    <path d="M14.0706,27.5805 C13.8866,27.5805 13.7386,27.4325 13.7386,27.2485 C13.7386,27.0655 13.8866,26.9165 14.0706,26.9165 C14.2536,26.9165 14.4026,27.0655 14.4026,27.2485 C14.4026,27.4325 14.2536,27.5805 14.0706,27.5805" id="Fill-153" fill="#1D96DD"></path>
                    <path d="M14.3785,25.4897 C14.1875,25.4897 14.0335,25.3347 14.0335,25.1447 C14.0335,24.9537 14.1875,24.7987 14.3785,24.7987 C14.5695,24.7987 14.7235,24.9537 14.7235,25.1447 C14.7235,25.3347 14.5695,25.4897 14.3785,25.4897" id="Fill-155" fill="#1D96DD"></path>
                    <path d="M14.6617,23.3926 C14.4637,23.3926 14.3027,23.2326 14.3027,23.0336 C14.3027,22.8356 14.4637,22.6756 14.6617,22.6756 C14.8597,22.6756 15.0207,22.8356 15.0207,23.0336 C15.0207,23.2326 14.8597,23.3926 14.6617,23.3926" id="Fill-157" fill="#1D96DD"></path>
                    <path d="M14.9002,21.2932 C14.6952,21.2932 14.5282,21.1262 14.5282,20.9212 C14.5282,20.7162 14.6952,20.5492 14.9002,20.5492 C15.1052,20.5492 15.2722,20.7162 15.2722,20.9212 C15.2722,21.1262 15.1052,21.2932 14.9002,21.2932" id="Fill-159" fill="#1D96DD"></path>
                    <path d="M15.0711,19.1838 C14.8581,19.1838 14.6861,19.0118 14.6861,18.7988 C14.6861,18.5858 14.8581,18.4138 15.0711,18.4138 C15.2841,18.4138 15.4561,18.5858 15.4561,18.7988 C15.4561,19.0118 15.2841,19.1838 15.0711,19.1838" id="Fill-161" fill="#1D96DD"></path>
                    <path d="M15.1453,17.0693 C14.9253,17.0693 14.7473,16.8913 14.7473,16.6713 C14.7473,16.4513 14.9253,16.2723 15.1453,16.2723 C15.3653,16.2723 15.5433,16.4513 15.5433,16.6713 C15.5433,16.8913 15.3653,17.0693 15.1453,17.0693" id="Fill-163" fill="#1D96DD"></path>
                    <path d="M15.0811,14.9558 C14.8541,14.9558 14.6691,14.7718 14.6691,14.5438 C14.6691,14.3168 14.8541,14.1328 15.0811,14.1328 C15.3081,14.1328 15.4931,14.3168 15.4931,14.5438 C15.4931,14.7718 15.3081,14.9558 15.0811,14.9558" id="Fill-165" fill="#1D96DD"></path>
                    <path d="M14.7723,12.8635 C14.5373,12.8635 14.3473,12.6735 14.3473,12.4385 C14.3473,12.2035 14.5373,12.0135 14.7723,12.0135 C15.0073,12.0135 15.1973,12.2035 15.1973,12.4385 C15.1973,12.6735 15.0073,12.8635 14.7723,12.8635" id="Fill-167" fill="#1D96DD"></path>
                    <path d="M14.0679,10.8733 C13.8259,10.8733 13.6299,10.6773 13.6299,10.4353 C13.6299,10.1933 13.8259,9.9963 14.0679,9.9963 C14.3099,9.9963 14.5059,10.1933 14.5059,10.4353 C14.5059,10.6773 14.3099,10.8733 14.0679,10.8733" id="Fill-169" fill="#1D96DD"></path>
                    <path d="M12.9373,9.0896 C12.6883,9.0896 12.4853,8.8876 12.4853,8.6376 C12.4853,8.3886 12.6883,8.1866 12.9373,8.1866 C13.1863,8.1866 13.3893,8.3886 13.3893,8.6376 C13.3893,8.8876 13.1863,9.0896 12.9373,9.0896" id="Fill-171" fill="#1D96DD"></path>
                    <path d="M11.3836,7.6548 C11.1266,7.6548 10.9186,7.4468 10.9186,7.1898 C10.9186,6.9338 11.1266,6.7248 11.3836,6.7248 C11.6406,6.7248 11.8486,6.9338 11.8486,7.1898 C11.8486,7.4468 11.6406,7.6548 11.3836,7.6548" id="Fill-173" fill="#1D96DD"></path>
                    <path d="M9.7908,6.6821 C9.5268,6.6821 9.3128,6.4681 9.3128,6.2041 C9.3128,5.9401 9.5268,5.7261 9.7908,5.7261 C10.0548,5.7261 10.2688,5.9401 10.2688,6.2041 C10.2688,6.4681 10.0548,6.6821 9.7908,6.6821" id="Fill-175" fill="#1D96DD"></path>
                    <path d="M9.6873,3.7212 C8.5143,3.3312 7.2473,3.9662 6.8573,5.1382 C6.4673,6.3112 7.1023,7.5782 8.2743,7.9682 C9.4473,8.3582 10.7143,7.7242 11.1043,6.5512 C11.4943,5.3782 10.8603,4.1112 9.6873,3.7212" id="Fill-177" fill="#1D96DD"></path>
                    <g id="Group-181" transform="translate(30.000000, 78.678200)">
                        <mask id="mask-30" fill="white">
                            <use xlink:href="#path-29"></use>
                        </mask>
                        <g id="Clip-180"></g>
                        <path d="M0.4515,0.0728 C0.4515,0.0728 0.4395,0.0678 0.4395,0.0608 L0.4515,0.0488 C0.4585,0.0488 0.4635,0.0538 0.4635,0.0538 C0.4635,0.0678 0.4585,0.0728 0.4515,0.0728" id="Fill-179" fill="#1D96DD" mask="url(#mask-30)"></path>
                    </g>
                    <path d="M28.5101,77.9026 C28.4961,77.9026 28.4861,77.8916 28.4861,77.8786 C28.4861,77.8656 28.4961,77.8546 28.5101,77.8546 C28.5231,77.8546 28.5341,77.8656 28.5341,77.8786 C28.5341,77.8916 28.5231,77.9026 28.5101,77.9026" id="Fill-182" fill="#1D96DD"></path>
                    <path d="M26.6358,76.9133 C26.6158,76.9133 26.5998,76.8973 26.5998,76.8773 C26.5998,76.8573 26.6158,76.8413 26.6358,76.8413 C26.6558,76.8413 26.6718,76.8573 26.6718,76.8773 C26.6718,76.8973 26.6558,76.9133 26.6358,76.9133" id="Fill-184" fill="#1D96DD"></path>
                    <path d="M24.848,75.7707 C24.821,75.7707 24.8,75.7487 24.8,75.7227 C24.8,75.6957 24.821,75.6747 24.848,75.6747 C24.875,75.6747 24.896,75.6957 24.896,75.7227 C24.896,75.7487 24.875,75.7707 24.848,75.7707" id="Fill-186" fill="#1D96DD"></path>
                    <path d="M23.1409,74.5183 C23.1079,74.5183 23.0809,74.4913 23.0809,74.4583 C23.0809,74.4243 23.1079,74.3983 23.1409,74.3983 C23.1739,74.3983 23.2009,74.4243 23.2009,74.4583 C23.2009,74.4913 23.1739,74.5183 23.1409,74.5183" id="Fill-188" fill="#1D96DD"></path>
                    <path d="M21.5147,73.1665 C21.4747,73.1665 21.4427,73.1345 21.4427,73.0945 C21.4427,73.0545 21.4747,73.0225 21.5147,73.0225 C21.5547,73.0225 21.5867,73.0545 21.5867,73.0945 C21.5867,73.1345 21.5547,73.1665 21.5147,73.1665" id="Fill-190" fill="#1D96DD"></path>
                    <path d="M19.9583,71.7344 C19.9113,71.7344 19.8743,71.6964 19.8743,71.6494 C19.8743,71.6034 19.9113,71.5654 19.9583,71.5654 C20.0043,71.5654 20.0423,71.6034 20.0423,71.6494 C20.0423,71.6964 20.0043,71.7344 19.9583,71.7344" id="Fill-192" fill="#1D96DD"></path>
                    <path d="M18.4908,70.2104 C18.4378,70.2104 18.3948,70.1674 18.3948,70.1144 C18.3948,70.0614 18.4378,70.0174 18.4908,70.0174 C18.5438,70.0174 18.5868,70.0614 18.5868,70.1144 C18.5868,70.1674 18.5438,70.2104 18.4908,70.2104" id="Fill-194" fill="#1D96DD"></path>
                    <path d="M17.1285,68.5913 C17.0685,68.5913 17.0205,68.5433 17.0205,68.4833 C17.0205,68.4233 17.0685,68.3743 17.1285,68.3743 C17.1885,68.3743 17.2365,68.4233 17.2365,68.4833 C17.2365,68.5433 17.1885,68.5913 17.1285,68.5913" id="Fill-196" fill="#1D96DD"></path>
                    <path d="M15.8629,66.8952 C15.7969,66.8952 15.7429,66.8412 15.7429,66.7752 C15.7429,66.7082 15.7969,66.6542 15.8629,66.6542 C15.9289,66.6542 15.9829,66.7082 15.9829,66.7752 C15.9829,66.8412 15.9289,66.8952 15.8629,66.8952" id="Fill-198" fill="#1D96DD"></path>
                    <path d="M14.691,65.1377 C14.618,65.1377 14.559,65.0787 14.559,65.0057 C14.559,64.9317 14.618,64.8727 14.691,64.8727 C14.764,64.8727 14.823,64.9317 14.823,65.0057 C14.823,65.0787 14.764,65.1377 14.691,65.1377" id="Fill-200" fill="#1D96DD"></path>
                    <path d="M13.6126,63.3193 C13.5326,63.3193 13.4676,63.2543 13.4676,63.1753 C13.4676,63.0953 13.5326,63.0303 13.6126,63.0303 C13.6926,63.0303 13.7566,63.0953 13.7566,63.1753 C13.7566,63.2543 13.6926,63.3193 13.6126,63.3193" id="Fill-202" fill="#1D96DD"></path>
                    <path d="M12.6275,61.4472 C12.5415,61.4472 12.4705,61.3772 12.4705,61.2912 C12.4705,61.2042 12.5415,61.1342 12.6275,61.1342 C12.7135,61.1342 12.7835,61.2042 12.7835,61.2912 C12.7835,61.3772 12.7135,61.4472 12.6275,61.4472" id="Fill-204" fill="#1D96DD"></path>
                    <path d="M11.7298,59.5334 C11.6368,59.5334 11.5608,59.4584 11.5608,59.3644 C11.5608,59.2714 11.6368,59.1964 11.7298,59.1964 C11.8228,59.1964 11.8988,59.2714 11.8988,59.3644 C11.8988,59.4584 11.8228,59.5334 11.7298,59.5334" id="Fill-206" fill="#1D96DD"></path>
                    <path d="M10.9151,57.5813 C10.8151,57.5813 10.7351,57.5003 10.7351,57.4013 C10.7351,57.3013 10.8151,57.2203 10.9151,57.2203 C11.0151,57.2203 11.0961,57.3013 11.0961,57.4013 C11.0961,57.5003 11.0151,57.5813 10.9151,57.5813" id="Fill-208" fill="#1D96DD"></path>
                    <path d="M10.1798,55.5989 C10.0738,55.5989 9.9868,55.5129 9.9868,55.4059 C9.9868,55.2999 10.0738,55.2139 10.1798,55.2139 C10.2858,55.2139 10.3728,55.2999 10.3728,55.4059 C10.3728,55.5129 10.2858,55.5989 10.1798,55.5989" id="Fill-210" fill="#1D96DD"></path>
                    <path d="M9.5198,53.5903 C9.4068,53.5903 9.3148,53.4993 9.3148,53.3853 C9.3148,53.2723 9.4068,53.1813 9.5198,53.1813 C9.6328,53.1813 9.7248,53.2723 9.7248,53.3853 C9.7248,53.4993 9.6328,53.5903 9.5198,53.5903" id="Fill-212" fill="#1D96DD"></path>
                    <path d="M8.9312,51.5593 C8.8112,51.5593 8.7142,51.4623 8.7142,51.3423 C8.7142,51.2233 8.8112,51.1263 8.9312,51.1263 C9.0512,51.1263 9.1482,51.2233 9.1482,51.3423 C9.1482,51.4623 9.0512,51.5593 8.9312,51.5593" id="Fill-214" fill="#1D96DD"></path>
                    <path d="M8.4097,49.5105 C8.2837,49.5105 8.1807,49.4075 8.1807,49.2815 C8.1807,49.1555 8.2837,49.0525 8.4097,49.0525 C8.5357,49.0525 8.6387,49.1555 8.6387,49.2815 C8.6387,49.4075 8.5357,49.5105 8.4097,49.5105" id="Fill-216" fill="#1D96DD"></path>
                    <path d="M7.9498,47.4468 C7.8168,47.4468 7.7088,47.3388 7.7088,47.2058 C7.7088,47.0728 7.8168,46.9648 7.9498,46.9648 C8.0828,46.9648 8.1908,47.0728 8.1908,47.2058 C8.1908,47.3388 8.0828,47.4468 7.9498,47.4468" id="Fill-218" fill="#1D96DD"></path>
                    <path d="M7.5482,45.3718 C7.4082,45.3718 7.2952,45.2588 7.2952,45.1188 C7.2952,44.9798 7.4082,44.8668 7.5482,44.8668 C7.6882,44.8668 7.8012,44.9798 7.8012,45.1188 C7.8012,45.2588 7.6882,45.3718 7.5482,45.3718" id="Fill-220" fill="#1D96DD"></path>
                    <path d="M7.2003,43.2866 C7.0543,43.2866 6.9353,43.1676 6.9353,43.0216 C6.9353,42.8756 7.0543,42.7576 7.2003,42.7576 C7.3463,42.7576 7.4653,42.8756 7.4653,43.0216 C7.4653,43.1676 7.3463,43.2866 7.2003,43.2866" id="Fill-222" fill="#1D96DD"></path>
                    <path d="M6.8992,41.1941 C6.7462,41.1941 6.6222,41.0701 6.6222,40.9171 C6.6222,40.7641 6.7462,40.6401 6.8992,40.6401 C7.0522,40.6401 7.1762,40.7641 7.1762,40.9171 C7.1762,41.0701 7.0522,41.1941 6.8992,41.1941" id="Fill-224" fill="#1D96DD"></path>
                    <path d="M6.6424,39.0954 C6.4834,39.0954 6.3534,38.9664 6.3534,38.8064 C6.3534,38.6474 6.4834,38.5174 6.6424,38.5174 C6.8024,38.5174 6.9314,38.6474 6.9314,38.8064 C6.9314,38.9664 6.8024,39.0954 6.6424,39.0954" id="Fill-226" fill="#1D96DD"></path>
                    <path d="M6.4251,36.9922 C6.2591,36.9922 6.1241,36.8572 6.1241,36.6912 C6.1241,36.5252 6.2591,36.3902 6.4251,36.3902 C6.5911,36.3902 6.7261,36.5252 6.7261,36.6912 C6.7261,36.8572 6.5911,36.9922 6.4251,36.9922" id="Fill-228" fill="#1D96DD"></path>
                    <path d="M6.243,34.8857 C6.07,34.8857 5.93,34.7457 5.93,34.5727 C5.93,34.3997 6.07,34.2597 6.243,34.2597 C6.416,34.2597 6.556,34.3997 6.556,34.5727 C6.556,34.7457 6.416,34.8857 6.243,34.8857" id="Fill-230" fill="#1D96DD"></path>
                    <path d="M6.0948,32.7768 C5.9148,32.7768 5.7698,32.6308 5.7698,32.4518 C5.7698,32.2728 5.9148,32.1268 6.0948,32.1268 C6.2738,32.1268 6.4198,32.2728 6.4198,32.4518 C6.4198,32.6308 6.2738,32.7768 6.0948,32.7768" id="Fill-232" fill="#1D96DD"></path>
                    <path d="M5.9803,30.6645 C5.7943,30.6645 5.6433,30.5135 5.6433,30.3275 C5.6433,30.1415 5.7943,29.9905 5.9803,29.9905 C6.1663,29.9905 6.3173,30.1415 6.3173,30.3275 C6.3173,30.5135 6.1663,30.6645 5.9803,30.6645" id="Fill-234" fill="#1D96DD"></path>
                    <path d="M5.9027,28.552 C5.7097,28.552 5.5537,28.396 5.5537,28.203 C5.5537,28.01 5.7097,27.854 5.9027,27.854 C6.0957,27.854 6.2517,28.01 6.2517,28.203 C6.2517,28.396 6.0957,28.552 5.9027,28.552" id="Fill-236" fill="#1D96DD"></path>
                    <path d="M5.8616,26.4363 C5.6626,26.4363 5.5006,26.2743 5.5006,26.0753 C5.5006,25.8753 5.6626,25.7143 5.8616,25.7143 C6.0606,25.7143 6.2226,25.8753 6.2226,26.0753 C6.2226,26.2743 6.0606,26.4363 5.8616,26.4363" id="Fill-238" fill="#1D96DD"></path>
                    <path d="M5.8514,24.3218 C5.6454,24.3218 5.4784,24.1548 5.4784,23.9488 C5.4784,23.7428 5.6454,23.5758 5.8514,23.5758 C6.0574,23.5758 6.2244,23.7428 6.2244,23.9488 C6.2244,24.1548 6.0574,24.3218 5.8514,24.3218" id="Fill-240" fill="#1D96DD"></path>
                    <path d="M5.8653,22.2055 C5.6523,22.2055 5.4803,22.0335 5.4803,21.8205 C5.4803,21.6075 5.6523,21.4355 5.8653,21.4355 C6.0783,21.4355 6.2503,21.6075 6.2503,21.8205 C6.2503,22.0335 6.0783,22.2055 5.8653,22.2055" id="Fill-242" fill="#1D96DD"></path>
                    <path d="M5.8875,20.0915 C5.6685,20.0915 5.4905,19.9135 5.4905,19.6945 C5.4905,19.4745 5.6685,19.2975 5.8875,19.2975 C6.1065,19.2975 6.2845,19.4745 6.2845,19.6945 C6.2845,19.9135 6.1065,20.0915 5.8875,20.0915" id="Fill-244" fill="#1D96DD"></path>
                    <path d="M5.9095,17.9746 C5.6835,17.9746 5.5005,17.7916 5.5005,17.5656 C5.5005,17.3396 5.6835,17.1556 5.9095,17.1556 C6.1355,17.1556 6.3185,17.3396 6.3185,17.5656 C6.3185,17.7916 6.1355,17.9746 5.9095,17.9746" id="Fill-246" fill="#1D96DD"></path>
                    <path d="M5.92,15.8596 C5.687,15.8596 5.499,15.6706 5.499,15.4386 C5.499,15.2056 5.687,15.0176 5.92,15.0176 C6.153,15.0176 6.341,15.2056 6.341,15.4386 C6.341,15.6706 6.153,15.8596 5.92,15.8596" id="Fill-248" fill="#1D96DD"></path>
                    <path d="M5.8868,13.7461 C5.6468,13.7461 5.4538,13.5521 5.4538,13.3131 C5.4538,13.0731 5.6468,12.8791 5.8868,12.8791 C6.1258,12.8791 6.3198,13.0731 6.3198,13.3131 C6.3198,13.5521 6.1258,13.7461 5.8868,13.7461" id="Fill-250" fill="#1D96DD"></path>
                    <path d="M5.7777,11.6335 C5.5317,11.6335 5.3327,11.4345 5.3327,11.1885 C5.3327,10.9425 5.5317,10.7425 5.7777,10.7425 C6.0237,10.7425 6.2227,10.9425 6.2227,11.1885 C6.2227,11.4345 6.0237,11.6335 5.7777,11.6335" id="Fill-252" fill="#1D96DD"></path>
                    <path d="M5.5508,9.53 C5.2988,9.53 5.0938,9.325 5.0938,9.073 C5.0938,8.82 5.2988,8.615 5.5508,8.615 C5.8038,8.615 6.0088,8.82 6.0088,9.073 C6.0088,9.325 5.8038,9.53 5.5508,9.53" id="Fill-254" fill="#1D96DD"></path>
                    <path d="M5.1234,7.4563 C4.8644,7.4563 4.6544,7.2463 4.6544,6.9873 C4.6544,6.7273 4.8644,6.5173 5.1234,6.5173 C5.3824,6.5173 5.5924,6.7273 5.5924,6.9873 C5.5924,7.2463 5.3824,7.4563 5.1234,7.4563" id="Fill-256" fill="#1D96DD"></path>
                    <path d="M4.6448,5.9443 C4.3788,5.9443 4.1638,5.7293 4.1638,5.4633 C4.1638,5.1973 4.3788,4.9813 4.6448,4.9813 C4.9108,4.9813 5.1268,5.1973 5.1268,5.4633 C5.1268,5.7293 4.9108,5.9443 4.6448,5.9443" id="Fill-258" fill="#1D96DD"></path>
                    <path d="M6.2213,3.5378 C5.6023,2.4688 4.2323,2.1038 3.1633,2.7228 C2.0933,3.3428 1.7283,4.7128 2.3483,5.7818 C2.9673,6.8508 4.3373,7.2158 5.4063,6.5968 C6.4763,5.9768 6.8413,4.6068 6.2213,3.5378" id="Fill-260" fill="#1D96DD"></path>
                    <path d="M60.2344,76.3132 C60.2094,76.3132 60.1894,76.2932 60.1894,76.2682 C60.1894,76.2432 60.2094,76.2222 60.2344,76.2222 C60.2594,76.2222 60.2794,76.2432 60.2794,76.2682 C60.2794,76.2932 60.2594,76.3132 60.2344,76.3132" id="Fill-271" fill="#1D96DD"></path>
                    <path d="M58.2256,75.6267 C58.1956,75.6267 58.1716,75.6027 58.1716,75.5727 C58.1716,75.5427 58.1956,75.5177 58.2256,75.5177 C58.2556,75.5177 58.2806,75.5427 58.2806,75.5727 C58.2806,75.6027 58.2556,75.6267 58.2256,75.6267" id="Fill-273" fill="#1D96DD"></path>
                    <path d="M56.2178,74.9404 C56.1828,74.9404 56.1548,74.9124 56.1548,74.8774 C56.1548,74.8424 56.1828,74.8134 56.2178,74.8134 C56.2528,74.8134 56.2808,74.8424 56.2808,74.8774 C56.2808,74.9124 56.2528,74.9404 56.2178,74.9404" id="Fill-275" fill="#1D96DD"></path>
                    <path d="M54.209,74.2536 C54.169,74.2536 54.137,74.2216 54.137,74.1816 C54.137,74.1416 54.169,74.1086 54.209,74.1086 C54.249,74.1086 54.282,74.1416 54.282,74.1816 C54.282,74.2216 54.249,74.2536 54.209,74.2536" id="Fill-277" fill="#1D96DD"></path>
                    <path d="M52.202,73.563 C52.157,73.563 52.12,73.527 52.12,73.482 C52.12,73.437 52.157,73.4 52.202,73.4 C52.247,73.4 52.283,73.437 52.283,73.482 C52.283,73.527 52.247,73.563 52.202,73.563" id="Fill-279" fill="#1D96DD"></path>
                    <path d="M50.1971,72.8652 C50.1471,72.8652 50.1071,72.8252 50.1071,72.7752 C50.1071,72.7252 50.1471,72.6842 50.1971,72.6842 C50.2471,72.6842 50.2881,72.7252 50.2881,72.7752 C50.2881,72.8252 50.2471,72.8652 50.1971,72.8652" id="Fill-281" fill="#1D96DD"></path>
                    <path d="M48.1949,72.1599 C48.1399,72.1599 48.0949,72.1159 48.0949,72.0609 C48.0949,72.0059 48.1399,71.9609 48.1949,71.9609 C48.2499,71.9609 48.2949,72.0059 48.2949,72.0609 C48.2949,72.1159 48.2499,72.1599 48.1949,72.1599" id="Fill-283" fill="#1D96DD"></path>
                    <path d="M46.1951,71.448 C46.1351,71.448 46.0861,71.399 46.0861,71.339 C46.0861,71.279 46.1351,71.231 46.1951,71.231 C46.2551,71.231 46.3041,71.279 46.3041,71.339 C46.3041,71.399 46.2551,71.448 46.1951,71.448" id="Fill-285" fill="#1D96DD"></path>
                    <path d="M44.1983,70.7275 C44.1333,70.7275 44.0803,70.6745 44.0803,70.6095 C44.0803,70.5445 44.1333,70.4925 44.1983,70.4925 C44.2633,70.4925 44.3153,70.5445 44.3153,70.6095 C44.3153,70.6745 44.2633,70.7275 44.1983,70.7275" id="Fill-287" fill="#1D96DD"></path>
                    <path d="M42.2051,69.9968 C42.1351,69.9968 42.0781,69.9398 42.0781,69.8698 C42.0781,69.7998 42.1351,69.7438 42.2051,69.7438 C42.2751,69.7438 42.3321,69.7998 42.3321,69.8698 C42.3321,69.9398 42.2751,69.9968 42.2051,69.9968" id="Fill-289" fill="#1D96DD"></path>
                    <path d="M40.2161,69.2551 C40.1411,69.2551 40.0811,69.1941 40.0811,69.1191 C40.0811,69.0441 40.1411,68.9841 40.2161,68.9841 C40.2911,68.9841 40.3521,69.0441 40.3521,69.1191 C40.3521,69.1941 40.2911,69.2551 40.2161,69.2551" id="Fill-291" fill="#1D96DD"></path>
                    <path d="M38.2347,68.5032 C38.1547,68.5032 38.0897,68.4382 38.0897,68.3582 C38.0897,68.2782 38.1547,68.2132 38.2347,68.2132 C38.3147,68.2132 38.3797,68.2782 38.3797,68.3582 C38.3797,68.4382 38.3147,68.5032 38.2347,68.5032" id="Fill-293" fill="#1D96DD"></path>
                    <path d="M36.2581,67.7392 C36.1731,67.7392 36.1041,67.6702 36.1041,67.5852 C36.1041,67.5002 36.1731,67.4312 36.2581,67.4312 C36.3431,67.4312 36.4121,67.5002 36.4121,67.5852 C36.4121,67.6702 36.3431,67.7392 36.2581,67.7392" id="Fill-295" fill="#1D96DD"></path>
                    <path d="M34.284,66.9604 C34.194,66.9604 34.121,66.8874 34.121,66.7974 C34.121,66.7074 34.194,66.6344 34.284,66.6344 C34.374,66.6344 34.447,66.7074 34.447,66.7974 C34.447,66.8874 34.374,66.9604 34.284,66.9604" id="Fill-297" fill="#1D96DD"></path>
                    <path d="M32.3155,66.1672 C32.2205,66.1672 32.1435,66.0902 32.1435,65.9952 C32.1435,65.9002 32.2205,65.8232 32.3155,65.8232 C32.4105,65.8232 32.4875,65.9002 32.4875,65.9952 C32.4875,66.0902 32.4105,66.1672 32.3155,66.1672" id="Fill-299" fill="#1D96DD"></path>
                    <path d="M30.3548,65.3601 C30.2548,65.3601 30.1738,65.2791 30.1738,65.1791 C30.1738,65.0791 30.2548,64.9981 30.3548,64.9981 C30.4548,64.9981 30.5358,65.0791 30.5358,65.1791 C30.5358,65.2791 30.4548,65.3601 30.3548,65.3601" id="Fill-301" fill="#1D96DD"></path>
                    <path d="M28.4046,64.521 C28.2996,64.521 28.2146,64.436 28.2146,64.331 C28.2146,64.226 28.2996,64.141 28.4046,64.141 C28.5096,64.141 28.5946,64.226 28.5946,64.331 C28.5946,64.436 28.5096,64.521 28.4046,64.521" id="Fill-303" fill="#1D96DD"></path>
                    <path d="M26.4893,63.6076 C26.3793,63.6076 26.2903,63.5186 26.2903,63.4086 C26.2903,63.2986 26.3793,63.2096 26.4893,63.2096 C26.5993,63.2096 26.6883,63.2986 26.6883,63.4086 C26.6883,63.5186 26.5993,63.6076 26.4893,63.6076" id="Fill-305" fill="#1D96DD"></path>
                    <path d="M24.6341,62.5796 C24.5191,62.5796 24.4261,62.4866 24.4261,62.3716 C24.4261,62.2566 24.5191,62.1636 24.6341,62.1636 C24.7491,62.1636 24.8421,62.2566 24.8421,62.3716 C24.8421,62.4866 24.7491,62.5796 24.6341,62.5796" id="Fill-307" fill="#1D96DD"></path>
                    <path d="M22.8516,61.4297 C22.7316,61.4297 22.6346,61.3327 22.6346,61.2127 C22.6346,61.0927 22.7316,60.9957 22.8516,60.9957 C22.9716,60.9957 23.0686,61.0927 23.0686,61.2127 C23.0686,61.3327 22.9716,61.4297 22.8516,61.4297" id="Fill-309" fill="#1D96DD"></path>
                    <path d="M21.1492,60.167 C21.0242,60.167 20.9232,60.066 20.9232,59.941 C20.9232,59.816 21.0242,59.715 21.1492,59.715 C21.2742,59.715 21.3752,59.816 21.3752,59.941 C21.3752,60.066 21.2742,60.167 21.1492,60.167" id="Fill-311" fill="#1D96DD"></path>
                    <path d="M19.5308,58.7959 C19.4008,58.7959 19.2958,58.6909 19.2958,58.5609 C19.2958,58.4309 19.4008,58.3249 19.5308,58.3249 C19.6608,58.3249 19.7658,58.4309 19.7658,58.5609 C19.7658,58.6909 19.6608,58.7959 19.5308,58.7959" id="Fill-313" fill="#1D96DD"></path>
                    <path d="M18.0018,57.3296 C17.8668,57.3296 17.7578,57.2206 17.7578,57.0856 C17.7578,56.9506 17.8668,56.8406 18.0018,56.8406 C18.1368,56.8406 18.2458,56.9506 18.2458,57.0856 C18.2458,57.2206 18.1368,57.3296 18.0018,57.3296" id="Fill-315" fill="#1D96DD"></path>
                    <path d="M16.5648,55.7724 C16.4248,55.7724 16.3108,55.6594 16.3108,55.5194 C16.3108,55.3794 16.4248,55.2654 16.5648,55.2654 C16.7048,55.2654 16.8178,55.3794 16.8178,55.5194 C16.8178,55.6594 16.7048,55.7724 16.5648,55.7724" id="Fill-317" fill="#1D96DD"></path>
                    <path d="M15.223,54.1377 C15.078,54.1377 14.961,54.0197 14.961,53.8757 C14.961,53.7307 15.078,53.6127 15.223,53.6127 C15.368,53.6127 15.485,53.7307 15.485,53.8757 C15.485,54.0197 15.368,54.1377 15.223,54.1377" id="Fill-319" fill="#1D96DD"></path>
                    <path d="M13.9735,52.428 C13.8235,52.428 13.7025,52.307 13.7025,52.157 C13.7025,52.007 13.8235,51.885 13.9735,51.885 C14.1235,51.885 14.2445,52.007 14.2445,52.157 C14.2445,52.307 14.1235,52.428 13.9735,52.428" id="Fill-321" fill="#1D96DD"></path>
                    <path d="M12.8182,50.6511 C12.6632,50.6511 12.5372,50.5251 12.5372,50.3711 C12.5372,50.2161 12.6632,50.0901 12.8182,50.0901 C12.9732,50.0901 13.0992,50.2161 13.0992,50.3711 C13.0992,50.5251 12.9732,50.6511 12.8182,50.6511" id="Fill-323" fill="#1D96DD"></path>
                    <path d="M11.7581,48.8176 C11.5981,48.8176 11.4681,48.6876 11.4681,48.5276 C11.4681,48.3676 11.5981,48.2386 11.7581,48.2386 C11.9181,48.2386 12.0481,48.3676 12.0481,48.5276 C12.0481,48.6876 11.9181,48.8176 11.7581,48.8176" id="Fill-325" fill="#1D96DD"></path>
                    <path d="M10.7923,46.9331 C10.6273,46.9331 10.4933,46.7991 10.4933,46.6341 C10.4933,46.4701 10.6273,46.3361 10.7923,46.3361 C10.9573,46.3361 11.0913,46.4701 11.0913,46.6341 C11.0913,46.7991 10.9573,46.9331 10.7923,46.9331" id="Fill-327" fill="#1D96DD"></path>
                    <path d="M9.919,45.0029 C9.749,45.0029 9.611,44.8649 9.611,44.6949 C9.611,44.5259 9.749,44.3879 9.919,44.3879 C10.089,44.3879 10.227,44.5259 10.227,44.6949 C10.227,44.8649 10.089,45.0029 9.919,45.0029" id="Fill-329" fill="#1D96DD"></path>
                    <path d="M9.1382,43.0366 C8.9632,43.0366 8.8212,42.8946 8.8212,42.7196 C8.8212,42.5446 8.9632,42.4036 9.1382,42.4036 C9.3132,42.4036 9.4552,42.5446 9.4552,42.7196 C9.4552,42.8946 9.3132,43.0366 9.1382,43.0366" id="Fill-331" fill="#1D96DD"></path>
                    <path d="M8.439,41.0408 C8.259,41.0408 8.113,40.8948 8.113,40.7148 C8.113,40.5348 8.259,40.3888 8.439,40.3888 C8.619,40.3888 8.765,40.5348 8.765,40.7148 C8.765,40.8948 8.619,41.0408 8.439,41.0408" id="Fill-333" fill="#1D96DD"></path>
                    <path d="M7.8155,39.0173 C7.6305,39.0173 7.4805,38.8673 7.4805,38.6823 C7.4805,38.4973 7.6305,38.3483 7.8155,38.3483 C8.0005,38.3483 8.1505,38.4973 8.1505,38.6823 C8.1505,38.8673 8.0005,39.0173 7.8155,39.0173" id="Fill-335" fill="#1D96DD"></path>
                    <path d="M7.2667,36.9724 C7.0767,36.9724 6.9227,36.8184 6.9227,36.6284 C6.9227,36.4384 7.0767,36.2854 7.2667,36.2854 C7.4567,36.2854 7.6107,36.4384 7.6107,36.6284 C7.6107,36.8184 7.4567,36.9724 7.2667,36.9724" id="Fill-337" fill="#1D96DD"></path>
                    <path d="M6.7869,34.9104 C6.5919,34.9104 6.4339,34.7524 6.4339,34.5574 C6.4339,34.3624 6.5919,34.2044 6.7869,34.2044 C6.9819,34.2044 7.1399,34.3624 7.1399,34.5574 C7.1399,34.7524 6.9819,34.9104 6.7869,34.9104" id="Fill-339" fill="#1D96DD"></path>
                    <path d="M6.3743,32.8335 C6.1743,32.8335 6.0123,32.6715 6.0123,32.4715 C6.0123,32.2715 6.1743,32.1095 6.3743,32.1095 C6.5743,32.1095 6.7363,32.2715 6.7363,32.4715 C6.7363,32.6715 6.5743,32.8335 6.3743,32.8335" id="Fill-341" fill="#1D96DD"></path>
                    <path d="M6.0279,30.7449 C5.8229,30.7449 5.6569,30.5789 5.6569,30.3739 C5.6569,30.1689 5.8229,30.0029 6.0279,30.0029 C6.2329,30.0029 6.3989,30.1689 6.3989,30.3739 C6.3989,30.5789 6.2329,30.7449 6.0279,30.7449" id="Fill-343" fill="#1D96DD"></path>
                    <path d="M5.7376,28.6474 C5.5276,28.6474 5.3576,28.4774 5.3576,28.2674 C5.3576,28.0574 5.5276,27.8874 5.7376,27.8874 C5.9476,27.8874 6.1176,28.0574 6.1176,28.2674 C6.1176,28.4774 5.9476,28.6474 5.7376,28.6474" id="Fill-345" fill="#1D96DD"></path>
                    <path d="M5.5008,26.5434 C5.2858,26.5434 5.1118,26.3694 5.1118,26.1544 C5.1118,25.9394 5.2858,25.7654 5.5008,25.7654 C5.7158,25.7654 5.8898,25.9394 5.8898,26.1544 C5.8898,26.3694 5.7158,26.5434 5.5008,26.5434" id="Fill-347" fill="#1D96DD"></path>
                    <path d="M5.3165,24.4341 C5.0965,24.4341 4.9185,24.2561 4.9185,24.0361 C4.9185,23.8161 5.0965,23.6381 5.3165,23.6381 C5.5365,23.6381 5.7145,23.8161 5.7145,24.0361 C5.7145,24.2561 5.5365,24.4341 5.3165,24.4341" id="Fill-349" fill="#1D96DD"></path>
                    <path d="M5.1802,22.3205 C4.9552,22.3205 4.7732,22.1385 4.7732,21.9135 C4.7732,21.6885 4.9552,21.5065 5.1802,21.5065 C5.4052,21.5065 5.5872,21.6885 5.5872,21.9135 C5.5872,22.1385 5.4052,22.3205 5.1802,22.3205" id="Fill-351" fill="#1D96DD"></path>
                    <path d="M5.0945,20.2053 C4.8645,20.2053 4.6785,20.0183 4.6785,19.7893 C4.6785,19.5593 4.8645,19.3723 5.0945,19.3723 C5.3245,19.3723 5.5105,19.5593 5.5105,19.7893 C5.5105,20.0183 5.3245,20.2053 5.0945,20.2053" id="Fill-353" fill="#1D96DD"></path>
                    <path d="M5.045,18.0867 C4.81,18.0867 4.62,17.8967 4.62,17.6617 C4.62,17.4267 4.81,17.2367 5.045,17.2367 C5.28,17.2367 5.47,17.4267 5.47,17.6617 C5.47,17.8967 5.28,18.0867 5.045,18.0867" id="Fill-355" fill="#1D96DD"></path>
                    <path d="M5.0162,15.9692 C4.7762,15.9692 4.5822,15.7742 4.5822,15.5352 C4.5822,15.2952 4.7762,15.1002 5.0162,15.1002 C5.2562,15.1002 5.4502,15.2952 5.4502,15.5352 C5.4502,15.7742 5.2562,15.9692 5.0162,15.9692" id="Fill-357" fill="#1D96DD"></path>
                    <path d="M5.0264,13.852 C4.7814,13.852 4.5834,13.653 4.5834,13.409 C4.5834,13.164 4.7814,12.965 5.0264,12.965 C5.2714,12.965 5.4694,13.164 5.4694,13.409 C5.4694,13.653 5.2714,13.852 5.0264,13.852" id="Fill-359" fill="#1D96DD"></path>
                    <path d="M5.1014,11.7361 C4.8514,11.7361 4.6494,11.5341 4.6494,11.2841 C4.6494,11.0341 4.8514,10.8311 5.1014,10.8311 C5.3514,10.8311 5.5534,11.0341 5.5534,11.2841 C5.5534,11.5341 5.3514,11.7361 5.1014,11.7361" id="Fill-361" fill="#1D96DD"></path>
                    <path d="M5.2025,9.6203 C4.9475,9.6203 4.7405,9.4143 4.7405,9.1593 C4.7405,8.9043 4.9475,8.6973 5.2025,8.6973 C5.4575,8.6973 5.6635,8.9043 5.6635,9.1593 C5.6635,9.4143 5.4575,9.6203 5.2025,9.6203" id="Fill-363" fill="#1D96DD"></path>
                    <path d="M5.3292,7.5058 C5.0692,7.5058 4.8592,7.2958 4.8592,7.0358 C4.8592,6.7758 5.0692,6.5648 5.3292,6.5648 C5.5892,6.5648 5.7992,6.7758 5.7992,7.0358 C5.7992,7.2958 5.5892,7.5058 5.3292,7.5058" id="Fill-365" fill="#1D96DD"></path>
                    <path d="M5.4832,5.3926 C5.2182,5.3926 5.0032,5.1776 5.0032,4.9126 C5.0032,4.6486 5.2182,4.4336 5.4832,4.4336 C5.7482,4.4336 5.9622,4.6486 5.9622,4.9126 C5.9622,5.1776 5.7482,5.3926 5.4832,5.3926" id="Fill-367" fill="#1D96DD"></path>
                    <g id="Group-371" transform="translate(3.000000, 0.678200)">
                        <mask id="mask-32" fill="white">
                            <use xlink:href="#path-31"></use>
                        </mask>
                        <g id="Clip-370"></g>
                        <path d="M4.8555,2.7451 C4.9575,1.5131 4.0415,0.4311 2.8105,0.3291 C1.5785,0.2271 0.4965,1.1431 0.3945,2.3751 C0.2925,3.6071 1.2085,4.6881 2.4405,4.7901 C3.6715,4.8921 4.7535,3.9761 4.8555,2.7451" id="Fill-369" fill="#1D96DD" mask="url(#mask-32)"></path>
                    </g>
                </g>
            </g>
        </g>
    </g>
</svg>