<?xml version="1.0" encoding="UTF-8" standalone="no"?>
<svg width="30px" height="29px" viewBox="0 0 30 29" version="1.1" xmlns="http://www.w3.org/2000/svg" xmlns:xlink="http://www.w3.org/1999/xlink">
    <!-- Generator: Sketch 39.1 (31720) - http://www.bohemiancoding.com/sketch -->
    <title>Githab_logo</title>
    <desc>Created with Sketch.</desc>
    <defs>
        <polygon id="path-1" points="0.000454545454 28.7957313 29.6172727 28.7957313 29.6172727 0 0.000454545454 0"></polygon>
    </defs>
    <g id="Symbols" stroke="none" stroke-width="1" fill="none" fill-rule="evenodd">
        <g id="footer" transform="translate(-145.000000, -44.000000)">
            <g id="Group-2">
                <g transform="translate(118.000000, 44.000000)">
                    <g id="Githab_logo" transform="translate(27.000000, 0.000000)">
                        <mask id="mask-2" fill="white">
                            <use xlink:href="#path-1"></use>
                        </mask>
                        <g id="Clip-2"></g>
                        <path d="M14.8077273,0 C6.63045455,0 0.000454545454,6.60928125 0.000454545454,14.7628125 C0.000454545454,21.2850938 4.24318182,26.81775 10.1277273,28.7707188 C10.8686364,28.90575 11.1386364,28.4499063 11.1386364,28.0584063 C11.1386364,27.7085938 11.1259091,26.7796875 11.1186364,25.5480937 C6.99954545,26.4398438 6.13045455,23.5688438 6.13045455,23.5688438 C5.45681818,21.8641875 4.48590909,21.40925 4.48590909,21.40925 C3.14136364,20.4939375 4.58772727,20.5120625 4.58772727,20.5120625 C6.07409091,20.6162813 6.85590909,22.0336562 6.85590909,22.0336562 C8.17681818,24.2893125 10.3222727,23.6377188 11.1659091,23.2607188 C11.3004545,22.3064375 11.6822727,21.65575 12.1059091,21.2869063 C8.81772727,20.9144375 5.36045455,19.6475 5.36045455,13.9906875 C5.36045455,12.379375 5.93772727,11.0616875 6.885,10.0294687 C6.73227273,9.65609375 6.22409091,8.15534375 7.02954545,6.122625 C7.02954545,6.122625 8.27318182,5.7256875 11.1022727,7.6360625 C12.2831818,7.308 13.5504545,7.144875 14.8095455,7.1394375 C16.0668182,7.144875 17.3340909,7.308 18.5168182,7.6360625 C21.3440909,5.7256875 22.585,6.122625 22.585,6.122625 C23.3931818,8.15534375 22.885,9.65609375 22.7322727,10.0294687 C23.6813636,11.0616875 24.255,12.379375 24.255,13.9906875 C24.255,19.662 20.7922727,20.9099063 17.4931818,21.275125 C18.025,21.7309687 18.4986364,22.6317812 18.4986364,24.0092813 C18.4986364,25.9821875 18.4804545,27.5744688 18.4804545,28.0584063 C18.4804545,28.4535313 18.7468182,28.913 19.4986364,28.7689063 C25.3786364,26.8123125 29.6177273,21.2832813 29.6177273,14.7628125 C29.6177273,6.60928125 22.9868182,0 14.8077273,0" id="Fill-1" fill="#CCE4F3" mask="url(#mask-2)"></path>
                    </g>
                </g>
            </g>
        </g>
    </g>
</svg>