<?xml version="1.0" encoding="UTF-8" standalone="no"?>
<svg width="75px" height="75px" viewBox="0 0 75 75" version="1.1" xmlns="http://www.w3.org/2000/svg" xmlns:xlink="http://www.w3.org/1999/xlink">
    <!-- Generator: Sketch 39.1 (31720) - http://www.bohemiancoding.com/sketch -->
    <title>Load_balancing_icon</title>
    <desc>Created with Sketch.</desc>
    <defs>
        <linearGradient x1="50%" y1="44.2022405%" x2="50%" y2="100%" id="linearGradient-1">
            <stop stop-color="#1D96DE" offset="0%"></stop>
            <stop stop-color="#0B6CBF" offset="100%"></stop>
        </linearGradient>
        <linearGradient x1="50%" y1="5.83025378%" x2="50%" y2="100%" id="linearGradient-2">
            <stop stop-color="#1D96DD" offset="0%"></stop>
            <stop stop-color="#0C6DBF" offset="100%"></stop>
        </linearGradient>
        <path d="M47.6957352,24.4608114 C45.6877211,22.7790971 42.699862,23.0444686 41.0188056,25.05224 C39.3387775,27.0600114 39.6030169,30.0510971 41.611031,31.7317829 C43.6180169,33.4124686 46.6079324,33.1470971 48.2879606,31.1403543 C49.9679887,29.1325829 49.7027211,26.1425257 47.6957352,24.4608114 M27.5107211,41.1483543 C27.5744676,40.9179543 27.5436225,40.6957829 27.4222986,40.4900686 C27.2999465,40.2843543 27.1210451,40.1516686 26.8876507,40.0961257 C23.5275944,39.2886971 21.3982563,41.2368114 20.2210028,44.0262971 C20.1695944,44.0016114 20.1253831,43.9789829 20.0842563,43.95944 C19.5804535,43.7166971 19.3192986,43.1725829 19.4457634,42.62744 C20.0801437,39.8749829 21.4280732,35.6732686 24.2123549,34.18904 C25.5870169,33.4556686 28.0052704,33.0030971 30.2929465,32.5248114 C30.6353268,32.4528114 30.9005944,32.2532686 31.0640732,31.9446971 C35.837862,22.9374971 43.6077352,17.28344 54.8620732,15.8177257 C55.2753972,15.7632114 55.6301155,16.1149829 55.6650732,16.4904114 C56.636693,26.9118971 51.4351859,36.0744114 43.6097915,42.3651543 C43.3424676,42.5801257 43.1964676,42.87224 43.1861859,43.2168114 C43.1152423,45.5856114 43.1008479,48.0984114 42.6134958,49.6032114 C41.6429042,52.6056114 37.7451155,54.6720114 35.1489887,55.7808114 C34.6338761,55.9998971 34.0529606,55.83944 33.7249746,55.3848114 C33.6982423,55.3477829 33.6694535,55.3086971 33.6355239,55.2613829 C36.1740732,53.6105257 37.7183831,51.1707543 36.3293268,48.0017257 C36.233707,47.78264 36.0722845,47.6304114 35.8512282,47.5460686 C35.6291437,47.4617257 35.4070592,47.4689257 35.1921718,47.5697257 C34.031369,48.1056114 32.8849606,48.6168114 31.7282704,49.1732686 C31.5092704,49.2792114 31.2810169,49.28744 31.0537915,49.20104 C29.121862,48.4563543 27.4922141,47.4246971 26.5473268,45.74504 C26.4342282,45.5444686 26.4064676,45.3315543 26.4661014,45.1083543 C26.8156789,43.7897257 27.1539465,42.4659543 27.5107211,41.1483543" id="path-3"></path>
    </defs>
    <g id="Main-Page" stroke="none" stroke-width="1" fill="none" fill-rule="evenodd">
        <g id="Mobile-Portrait" transform="translate(-122.000000, -1192.000000)">
            <g id="Load_balancing_icon" transform="translate(122.000000, 1192.000000)">
                <path d="M3.52765493,37.5013486 C3.52765493,18.7232254 18.7453279,3.50020571 37.5159366,3.50020571 C56.2863358,3.50020571 71.5031901,18.7230158 71.5031901,37.5013486 C71.5031901,56.2796814 56.2863358,71.5024914 37.5159366,71.5024914 C18.7453279,71.5024914 3.52765493,56.2794718 3.52765493,37.5013486 Z M74.5031901,37.5013486 C74.5031901,17.0664242 57.9434529,0.500205714 37.5159366,0.500205714 C17.0882377,0.500205714 0.52765493,17.066607 0.52765493,37.5013486 C0.52765493,57.9360901 17.0882377,74.5024914 37.5159366,74.5024914 C57.9434529,74.5024914 74.5031901,57.9362729 74.5031901,37.5013486 Z" id="Stroke-1" fill="url(#linearGradient-1)"></path>
                <g id="Fill-3">
                    <use fill="#1F5B8C" xlink:href="#path-3"></use>
                    <use fill="url(#linearGradient-2)" xlink:href="#path-3"></use>
                </g>
                <path d="M28.1355394,52.6761714 C27.9514972,52.8788 27.7427789,53.0474857 27.5176099,53.1781143 C25.9157225,54.218 22.9299197,54.8186857 22.9299197,54.8186857 C22.9299197,54.8186857 23.0132014,51.7730857 23.764793,50.0173143 C23.8563,49.7725143 23.9858493,49.538 24.154469,49.322 C24.1729761,49.2973143 24.1935394,49.2726286 24.2130746,49.25 C25.1394549,48.1484 26.782469,48.0074857 27.883638,48.9352571 C28.9837789,49.862 29.124638,51.5046286 28.1972296,52.6062286 C28.1776944,52.6298857 28.157131,52.6535429 28.1355394,52.6761714 M28.1314268,48.6400571 C26.1583704,46.9778857 23.211638,47.2298857 21.5511451,49.2037143 C21.5151592,49.2458857 21.4802014,49.2901143 21.4452437,49.3353714 C21.142962,49.7221143 20.9095676,50.1417714 20.7460887,50.5809714 C19.3991873,53.7294286 19.2501028,59.1911429 19.2501028,59.1911429 C19.2501028,59.1911429 24.6037789,58.1132 27.4754549,56.2494286 C27.8795254,56.0138857 28.2537789,55.7125143 28.5838211,55.3484 C28.6218634,55.3072571 28.6588775,55.2640571 28.6948634,55.2218857 C30.3574127,53.2501143 30.1044831,50.3022286 28.1314268,48.6400571" id="Fill-5" fill="#0B6CBE"></path>
                <path d="M45.5500493,26.2729486 L43.6715845,28.7250629 C43.4865141,28.9667771 43.1410493,29.0120343 42.8994296,28.82792 C42.6578099,28.6427771 42.6125704,28.2961486 42.7976408,28.0554629 L44.4972042,25.8368343 L44.2206268,25.0273486 C44.1229507,24.7393486 44.2761479,24.4266629 44.5640352,24.32792 C44.8519225,24.2302057 45.1644859,24.3834629 45.2631901,24.6714629 L45.6343592,25.7596914 C45.693993,25.9345486 45.6621197,26.1268914 45.5500493,26.2729486" id="Fill-7" fill="#1D96DD"></path>
                <path d="M44.7637056,31.9687657 C44.4758183,32.06648 44.1632549,31.9132229 44.0645507,31.6252229 L43.6933817,30.5369943 C43.6337479,30.3621371 43.6656211,30.1697943 43.7776915,30.0237371 L45.6561563,27.5716229 C45.8412268,27.3299086 46.1866915,27.2846514 46.4283113,27.4687657 C46.669931,27.6539086 46.7151704,28.0005371 46.5301,28.2412229 L44.8305366,30.4598514 L45.1071141,31.2693371 C45.1688042,31.4503657 45.130762,31.64168 45.0228042,31.7825943 C44.9590577,31.8659086 44.8706352,31.9317371 44.7637056,31.9687657 Z" id="Fill-9" fill="#1D96DD"></path>
            </g>
        </g>
    </g>
</svg>