<?xml version="1.0" encoding="UTF-8" standalone="no"?>
<svg width="73px" height="73px" viewBox="0 0 73 73" version="1.1" xmlns="http://www.w3.org/2000/svg" xmlns:xlink="http://www.w3.org/1999/xlink">
    <!-- Generator: Sketch 39.1 (31720) - http://www.bohemiancoding.com/sketch -->
    <title>Single_Binary</title>
    <desc>Created with Sketch.</desc>
    <defs>
        <linearGradient x1="50%" y1="44.2022405%" x2="50%" y2="100%" id="linearGradient-1">
            <stop stop-color="#1D96DE" offset="0%"></stop>
            <stop stop-color="#0B6CBF" offset="100%"></stop>
        </linearGradient>
        <polygon id="path-2" points="1 72.0305 72.03 72.0305 72.03 1.0005 1 1.0005"></polygon>
        <linearGradient x1="50%" y1="5.83025378%" x2="50%" y2="100%" id="linearGradient-4">
            <stop stop-color="#1D96DD" offset="0%"></stop>
            <stop stop-color="#0C6DBF" offset="100%"></stop>
        </linearGradient>
        <path d="M20.516,49.8575 L52.525,49.8575 L52.525,27.2075 L20.516,27.2075 L20.516,49.8575 Z M21.916,22.8685 L31.583,22.8685 C32.225,22.8685 32.75,23.3935 32.75,24.0355 C32.75,24.6775 32.225,25.2015 31.583,25.2015 L21.916,25.2015 C21.275,25.2015 20.75,24.6775 20.75,24.0355 C20.75,23.3935 21.275,22.8685 21.916,22.8685 L21.916,22.8685 Z M52.525,20.5035 L20.516,20.5035 C19.036,20.5035 17.837,21.6965 17.837,23.1685 L17.837,49.8575 C17.837,51.3265 19.036,52.5265 20.516,52.5265 L52.525,52.5265 C53.995,52.5265 55.194,51.3265 55.194,49.8575 L55.194,23.1685 C55.194,21.6965 53.995,20.5035 52.525,20.5035 L52.525,20.5035 Z" id="path-5"></path>
        <path d="M26.7466,40.3039 L26.2656,40.3039 L26.2656,35.7979 C26.2656,35.5779 26.2256,35.4159 26.1446,35.3009 C26.0766,35.2069 25.9436,35.0949 25.6936,35.0949 C25.6386,35.0949 25.5766,35.1029 25.4946,35.1199 C25.4316,35.1339 25.3506,35.1529 25.2506,35.1819 L24.1496,35.5069 C23.9506,35.5619 23.8026,35.6409 23.6956,35.7509 C23.5786,35.8729 23.5166,36.0289 23.5166,36.2019 C23.5166,36.4109 23.5686,36.5819 23.6706,36.7099 C23.7836,36.8499 23.9466,36.9239 24.1416,36.9239 C24.1756,36.9239 24.2276,36.9199 24.2976,36.9059 C24.3516,36.8959 24.4196,36.8799 24.5106,36.8579 L24.7036,36.8039 L24.7036,40.3039 L24.1156,40.3039 C23.8486,40.3039 23.6526,40.3639 23.5176,40.4879 C23.3776,40.6149 23.3076,40.8079 23.3076,41.0599 C23.3076,41.3079 23.3766,41.4989 23.5136,41.6259 C23.6466,41.7509 23.8446,41.8119 24.1156,41.8119 L26.7466,41.8119 C27.0176,41.8119 27.2136,41.7509 27.3476,41.6269 C27.4846,41.4999 27.5546,41.3089 27.5546,41.0599 C27.5546,40.8069 27.4826,40.6129 27.3406,40.4869 C27.2036,40.3629 27.0096,40.3039 26.7466,40.3039" id="path-6"></path>
        <path d="M31.362,39.9757 C31.176,40.3557 30.968,40.3997 30.827,40.3997 C30.687,40.3997 30.48,40.3557 30.295,39.9757 C30.131,39.6367 30.047,39.1487 30.047,38.5257 C30.047,37.9117 30.131,37.4297 30.297,37.0927 C30.484,36.7137 30.689,36.6697 30.827,36.6697 C30.968,36.6697 31.176,36.7137 31.362,37.0927 C31.528,37.4297 31.612,37.9117 31.612,38.5257 C31.612,39.1487 31.528,39.6367 31.362,39.9757 M30.819,35.1047 C30.061,35.1047 29.452,35.4267 29.008,36.0647 C28.584,36.6737 28.369,37.5037 28.369,38.5347 C28.369,39.5657 28.584,40.3977 29.008,41.0087 C29.451,41.6467 30.06,41.9697 30.819,41.9697 C31.583,41.9697 32.197,41.6467 32.644,41.0097 C33.073,40.3977 33.29,39.5667 33.29,38.5347 C33.29,37.5067 33.073,36.6767 32.644,36.0657 C32.197,35.4277 31.583,35.1047 30.819,35.1047" id="path-7"></path>
        <path d="M37.7096,40.3039 L37.2286,40.3039 L37.2286,35.7979 C37.2286,35.5739 37.1896,35.4159 37.1076,35.3019 C37.0396,35.2069 36.9076,35.0949 36.6566,35.0949 C36.6016,35.0949 36.5396,35.1029 36.4576,35.1199 C36.3946,35.1339 36.3136,35.1529 36.2136,35.1819 L35.1126,35.5069 C34.9136,35.5619 34.7656,35.6409 34.6586,35.7509 C34.5416,35.8729 34.4796,36.0289 34.4796,36.2019 C34.4796,36.4109 34.5316,36.5819 34.6336,36.7099 C34.7466,36.8499 34.9096,36.9239 35.1046,36.9239 C35.1386,36.9239 35.1906,36.9199 35.2606,36.9059 C35.3146,36.8959 35.3826,36.8799 35.4736,36.8579 L35.6666,36.8039 L35.6666,40.3039 L35.0786,40.3039 C34.8116,40.3039 34.6156,40.3639 34.4806,40.4879 C34.3406,40.6149 34.2706,40.8079 34.2706,41.0599 C34.2706,41.3079 34.3396,41.4989 34.4766,41.6259 C34.6096,41.7509 34.8076,41.8119 35.0786,41.8119 L37.7096,41.8119 C37.9806,41.8119 38.1766,41.7509 38.3106,41.6269 C38.4476,41.4999 38.5176,41.3089 38.5176,41.0599 C38.5176,40.8069 38.4456,40.6129 38.3036,40.4869 C38.1666,40.3629 37.9726,40.3039 37.7096,40.3039" id="path-8"></path>
        <path d="M43.1911,40.3039 L42.7101,40.3039 L42.7101,35.7979 C42.7101,35.5739 42.6711,35.4159 42.5891,35.3019 C42.5211,35.2069 42.3891,35.0949 42.1381,35.0949 C42.0831,35.0949 42.0211,35.1029 41.9391,35.1199 C41.8761,35.1339 41.7951,35.1529 41.6951,35.1819 L40.5941,35.5069 C40.3951,35.5619 40.2471,35.6409 40.1401,35.7509 C40.0231,35.8729 39.9611,36.0289 39.9611,36.2019 C39.9611,36.4109 40.0131,36.5819 40.1151,36.7089 C40.1931,36.8069 40.3391,36.9239 40.5861,36.9239 C40.6201,36.9239 40.6721,36.9199 40.7421,36.9059 C40.7961,36.8959 40.8641,36.8799 40.9551,36.8579 L41.1481,36.8039 L41.1481,40.3039 L40.5601,40.3039 C40.2931,40.3039 40.0971,40.3639 39.9621,40.4879 C39.8221,40.6149 39.7521,40.8079 39.7521,41.0599 C39.7521,41.3079 39.8211,41.4989 39.9581,41.6269 C40.0921,41.7509 40.2891,41.8119 40.5601,41.8119 L43.1911,41.8119 C43.4621,41.8119 43.6581,41.7509 43.7921,41.6269 C43.9291,41.4999 43.9991,41.3089 43.9991,41.0599 C43.9991,40.8069 43.9271,40.6129 43.7851,40.4869 C43.6481,40.3629 43.4541,40.3039 43.1911,40.3039" id="path-9"></path>
        <path d="M48.0564,38.5254 C48.0564,39.1484 47.9724,39.6374 47.8064,39.9744 C47.6194,40.3554 47.4114,40.4004 47.2714,40.4004 C47.1314,40.4004 46.9244,40.3554 46.7394,39.9754 C46.5754,39.6374 46.4924,39.1494 46.4924,38.5254 C46.4924,37.9114 46.5764,37.4294 46.7414,37.0934 C46.9284,36.7144 47.1334,36.6694 47.2714,36.6694 C47.4124,36.6694 47.6204,36.7144 47.8074,37.0934 C47.9724,37.4294 48.0564,37.9114 48.0564,38.5254 M49.0884,36.0664 C48.6414,35.4274 48.0264,35.1044 47.2624,35.1044 C46.5044,35.1044 45.8964,35.4264 45.4524,36.0644 C45.0294,36.6734 44.8144,37.5044 44.8144,38.5344 C44.8144,39.5654 45.0294,40.3974 45.4524,41.0084 C45.8954,41.6464 46.5044,41.9704 47.2624,41.9704 C48.0274,41.9704 48.6414,41.6464 49.0884,41.0094 C49.5174,40.3984 49.7344,39.5664 49.7344,38.5344 C49.7344,37.5074 49.5174,36.6774 49.0884,36.0664" id="path-10"></path>
    </defs>
    <g id="Main-Page" stroke="none" stroke-width="1" fill="none" fill-rule="evenodd">
        <g id="Mobile-Portrait" transform="translate(-124.000000, -1972.000000)">
            <g id="Single_Binary" transform="translate(124.000000, 1972.000000)">
                <path d="M36.5155,69.5302 C18.2817229,69.5302 3.4995,54.7485687 3.4995,36.5152 C3.4995,18.2818313 18.2817229,3.5002 36.5155,3.5002 C54.7490729,3.5002 69.5305,18.2816271 69.5305,36.5152 C69.5305,54.7487729 54.7490729,69.5302 36.5155,69.5302 Z M36.5155,0.5002 C16.6248956,0.5002 0.4995,16.6249502 0.4995,36.5152 C0.4995,56.4054498 16.6248956,72.5302 36.5155,72.5302 C56.4059271,72.5302 72.5305,56.4056271 72.5305,36.5152 C72.5305,16.6247729 56.4059271,0.5002 36.5155,0.5002 Z" id="Stroke-1" fill="url(#linearGradient-1)"></path>
                <mask id="mask-3" fill="white">
                    <use xlink:href="#path-2"></use>
                </mask>
                <g id="Clip-4"></g>
                <g id="Fill-3" mask="url(#mask-3)">
                    <use fill="#1F5B8C" xlink:href="#path-5"></use>
                    <use fill="url(#linearGradient-4)" xlink:href="#path-5"></use>
                </g>
                <g id="Fill-5" mask="url(#mask-3)">
                    <use fill="#1F5B8C" xlink:href="#path-6"></use>
                    <use fill="url(#linearGradient-4)" xlink:href="#path-6"></use>
                </g>
                <g id="Fill-6" mask="url(#mask-3)">
                    <use fill="#1F5B8C" xlink:href="#path-7"></use>
                    <use fill="url(#linearGradient-4)" xlink:href="#path-7"></use>
                </g>
                <g id="Fill-7" mask="url(#mask-3)">
                    <use fill="#1F5B8C" xlink:href="#path-8"></use>
                    <use fill="url(#linearGradient-4)" xlink:href="#path-8"></use>
                </g>
                <g id="Fill-8" mask="url(#mask-3)">
                    <use fill="#1F5B8C" xlink:href="#path-9"></use>
                    <use fill="url(#linearGradient-4)" xlink:href="#path-9"></use>
                </g>
                <g id="Fill-9" mask="url(#mask-3)">
                    <use fill="#1F5B8C" xlink:href="#path-10"></use>
                    <use fill="url(#linearGradient-4)" xlink:href="#path-10"></use>
                </g>
            </g>
        </g>
    </g>
</svg>