<?xml version="1.0" encoding="UTF-8" standalone="no"?>
<svg width="61px" height="106px" viewBox="0 0 61 106" version="1.1" xmlns="http://www.w3.org/2000/svg" xmlns:xlink="http://www.w3.org/1999/xlink">
    <!-- Generator: Sketch 40.2 (33826) - http://www.bohemiancoding.com/sketch -->
    <title>Dots_restapi_right</title>
    <desc>Created with Sketch.</desc>
    <defs>
        <polygon id="path-1" points="-1.81188384e-13 0.594 -1.81188384e-13 1.594 0.9997 1.594 0.9997 0.594 -1.81188398e-13 0.594"></polygon>
        <polygon id="path-3" points="5.147 4.7251092 5.147 0.249 0.671090805 0.249 0.671090805 4.7251092 5.147 4.7251092"></polygon>
        <polygon id="path-5" points="4.97380051e-14 0.119260942 4.97380051e-14 4.59653906 4.47703906 4.59653906 4.47703906 0.119260942 4.97379915e-14 0.119260942"></polygon>
        <polygon id="path-7" points="1.5405 0.097 0.5405 0.097 0.5405 1.0969 1.5405 1.0969 1.5405 0.097"></polygon>
        <polygon id="path-9" points="4.47649932 5 -2.4158453e-13 5 -2.4158453e-13 0.523815072 4.47649932 0.523815072 4.47649932 5"></polygon>
        <polygon id="path-11" points="4.47626754 5 -8.52651283e-14 5 -8.52651283e-14 0.523719256 4.47626754 0.523719256 4.47626754 5"></polygon>
        <polygon id="path-13" points="-1.48880908e-13 4.87477151 -1.48880908e-13 30 56.449 30 56.449 0.397 -1.48880908e-13 0.397 -1.48880908e-13 4.87477151 4.4773318 4.87477151 4.4773318 0.397028488 -7.15117406e-05 0.397028488 -7.15117406e-05 4.87477151"></polygon>
    </defs>
    <g id="Main-Page" stroke="none" stroke-width="1" fill="none" fill-rule="evenodd">
        <g id="Descotp_main_page" transform="translate(-1429.000000, -2278.000000)">
            <g id="Dots_restapi_right" transform="translate(1395.000000, 2271.000000)">
                <g id="Page-1" transform="translate(39.500000, 64.500000) rotate(142.000000) translate(-39.500000, -64.500000) translate(15.000000, 32.000000)">
                    <path d="M0.1331,63.6418 C0.1331,63.6418 0.1211,63.6368 0.1211,63.6298 L0.1331,63.6178 C0.1391,63.6178 0.1451,63.6238 0.1451,63.6238 C0.1451,63.6368 0.1391,63.6418 0.1331,63.6418" id="Fill-1" fill="#1D96DD"></path>
                    <path d="M0.0711,61.529 C0.0581,61.529 0.0471,61.518 0.0471,61.505 C0.0471,61.492 0.0581,61.482 0.0711,61.482 C0.0841,61.482 0.0951,61.492 0.0951,61.505 C0.0951,61.518 0.0841,61.529 0.0711,61.529" id="Fill-3" fill="#1D96DD"></path>
                    <g id="Group-7" transform="translate(0.000000, 58.751200)">
                        <mask id="mask-2" fill="white">
                            <use xlink:href="#path-1"></use>
                        </mask>
                        <g id="Clip-6"></g>
                        <path d="M0.0357,0.665 C0.0157,0.665 -0.0003,0.649 -0.0003,0.63 C-0.0003,0.61 0.0157,0.594 0.0357,0.594 C0.0557,0.594 0.0707,0.61 0.0707,0.63 C0.0707,0.649 0.0557,0.665 0.0357,0.665" id="Fill-5" fill="#1D96DD" mask="url(#mask-2)"></path>
                    </g>
                    <path d="M0.0554,57.3071 C0.0294,57.3071 0.0084,57.2861 0.0084,57.2601 C0.0084,57.2341 0.0294,57.2121 0.0554,57.2121 C0.0814,57.2121 0.1024,57.2341 0.1024,57.2601 C0.1024,57.2861 0.0814,57.3071 0.0554,57.3071" id="Fill-8" fill="#1D96DD"></path>
                    <path d="M0.124,55.1943 C0.092,55.1943 0.065,55.1673 0.065,55.1353 C0.065,55.1023 0.092,55.0763 0.124,55.0763 C0.157,55.0763 0.183,55.1023 0.183,55.1353 C0.183,55.1673 0.157,55.1943 0.124,55.1943" id="Fill-10" fill="#1D96DD"></path>
                    <path d="M0.2417,53.0876 C0.2027,53.0876 0.1707,53.0556 0.1707,53.0166 C0.1707,52.9776 0.2027,52.9456 0.2417,52.9456 C0.2807,52.9456 0.3127,52.9776 0.3127,53.0166 C0.3127,53.0556 0.2807,53.0876 0.2417,53.0876" id="Fill-12" fill="#1D96DD"></path>
                    <path d="M0.4136,50.9814 C0.3676,50.9814 0.3306,50.9444 0.3306,50.8984 C0.3306,50.8524 0.3676,50.8154 0.4136,50.8154 C0.4596,50.8154 0.4966,50.8524 0.4966,50.8984 C0.4966,50.9444 0.4596,50.9814 0.4136,50.9814" id="Fill-14" fill="#1D96DD"></path>
                    <path d="M0.6296,48.8784 C0.5776,48.8784 0.5346,48.8364 0.5346,48.7834 C0.5346,48.7314 0.5776,48.6894 0.6296,48.6894 C0.6816,48.6894 0.7246,48.7314 0.7246,48.7834 C0.7246,48.8364 0.6816,48.8784 0.6296,48.8784" id="Fill-16" fill="#1D96DD"></path>
                    <path d="M0.8919,46.781 C0.8329,46.781 0.7849,46.733 0.7849,46.674 C0.7849,46.616 0.8329,46.568 0.8919,46.568 C0.9509,46.568 0.9979,46.616 0.9979,46.674 C0.9979,46.733 0.9509,46.781 0.8919,46.781" id="Fill-18" fill="#1D96DD"></path>
                    <path d="M1.2368,44.6955 C1.1718,44.6955 1.1188,44.6425 1.1188,44.5775 C1.1188,44.5115 1.1718,44.4585 1.2368,44.4585 C1.3028,44.4585 1.3548,44.5115 1.3548,44.5775 C1.3548,44.6425 1.3028,44.6955 1.2368,44.6955" id="Fill-20" fill="#1D96DD"></path>
                    <path d="M1.6675,42.6255 C1.5955,42.6255 1.5375,42.5675 1.5375,42.4955 C1.5375,42.4235 1.5955,42.3655 1.6675,42.3655 C1.7395,42.3655 1.7975,42.4235 1.7975,42.4955 C1.7975,42.5675 1.7395,42.6255 1.6675,42.6255" id="Fill-22" fill="#1D96DD"></path>
                    <path d="M2.1804,40.5742 C2.1024,40.5742 2.0384,40.5102 2.0384,40.4322 C2.0384,40.3532 2.1024,40.2902 2.1804,40.2902 C2.2584,40.2902 2.3224,40.3532 2.3224,40.4322 C2.3224,40.5102 2.2584,40.5742 2.1804,40.5742" id="Fill-24" fill="#1D96DD"></path>
                    <path d="M2.7842,38.5466 C2.6992,38.5466 2.6302,38.4776 2.6302,38.3926 C2.6302,38.3076 2.6992,38.2386 2.7842,38.2386 C2.8692,38.2386 2.9382,38.3076 2.9382,38.3926 C2.9382,38.4776 2.8692,38.5466 2.7842,38.5466" id="Fill-26" fill="#1D96DD"></path>
                    <path d="M3.4807,36.5544 C3.3897,36.5544 3.3147,36.4804 3.3147,36.3884 C3.3147,36.2974 3.3897,36.2234 3.4807,36.2234 C3.5727,36.2234 3.6467,36.2974 3.6467,36.3884 C3.6467,36.4804 3.5727,36.5544 3.4807,36.5544" id="Fill-28" fill="#1D96DD"></path>
                    <path d="M4.2651,34.5898 C4.1671,34.5898 4.0881,34.5098 4.0881,34.4128 C4.0881,34.3138 4.1671,34.2348 4.2651,34.2348 C4.3631,34.2348 4.4421,34.3138 4.4421,34.4128 C4.4421,34.5098 4.3631,34.5898 4.2651,34.5898" id="Fill-30" fill="#1D96DD"></path>
                    <path d="M5.1306,32.6599 C5.0256,32.6599 4.9416,32.5749 4.9416,32.4709 C4.9416,32.3659 5.0256,32.2809 5.1306,32.2809 C5.2356,32.2809 5.3196,32.3659 5.3196,32.4709 C5.3196,32.5749 5.2356,32.6599 5.1306,32.6599" id="Fill-32" fill="#1D96DD"></path>
                    <path d="M6.0769,30.7676 C5.9659,30.7676 5.8759,30.6776 5.8759,30.5666 C5.8759,30.4556 5.9659,30.3656 6.0769,30.3656 C6.1879,30.3656 6.2779,30.4556 6.2779,30.5666 C6.2779,30.6776 6.1879,30.7676 6.0769,30.7676" id="Fill-34" fill="#1D96DD"></path>
                    <path d="M7.096,28.9138 C6.978,28.9138 6.883,28.8178 6.883,28.7008 C6.883,28.5828 6.978,28.4878 7.096,28.4878 C7.214,28.4878 7.309,28.5828 7.309,28.7008 C7.309,28.8178 7.214,28.9138 7.096,28.9138" id="Fill-36" fill="#1D96DD"></path>
                    <path d="M8.1897,27.102 C8.0657,27.102 7.9647,27.001 7.9647,26.877 C7.9647,26.753 8.0657,26.652 8.1897,26.652 C8.3137,26.652 8.4147,26.753 8.4147,26.877 C8.4147,27.001 8.3137,27.102 8.1897,27.102" id="Fill-38" fill="#1D96DD"></path>
                    <path d="M9.3538,25.3359 C9.2228,25.3359 9.1168,25.2299 9.1168,25.0989 C9.1168,24.9689 9.2228,24.8629 9.3538,24.8629 C9.4848,24.8629 9.5908,24.9689 9.5908,25.0989 C9.5908,25.2299 9.4848,25.3359 9.3538,25.3359" id="Fill-40" fill="#1D96DD"></path>
                    <path d="M10.5847,23.614 C10.4477,23.614 10.3357,23.503 10.3357,23.366 C10.3357,23.228 10.4477,23.117 10.5847,23.117 C10.7217,23.117 10.8337,23.228 10.8337,23.366 C10.8337,23.503 10.7217,23.614 10.5847,23.614" id="Fill-42" fill="#1D96DD"></path>
                    <path d="M11.8821,21.9365 C11.7381,21.9365 11.6221,21.8205 11.6221,21.6765 C11.6221,21.5325 11.7381,21.4155 11.8821,21.4155 C12.0261,21.4155 12.1421,21.5325 12.1421,21.6765 C12.1421,21.8205 12.0261,21.9365 11.8821,21.9365" id="Fill-44" fill="#1D96DD"></path>
                    <path d="M13.2422,20.3088 C13.0922,20.3088 12.9702,20.1868 12.9702,20.0368 C12.9702,19.8858 13.0922,19.7648 13.2422,19.7648 C13.3922,19.7648 13.5142,19.8858 13.5142,20.0368 C13.5142,20.1868 13.3922,20.3088 13.2422,20.3088" id="Fill-46" fill="#1D96DD"></path>
                    <path d="M14.6592,18.7358 C14.5022,18.7358 14.3752,18.6088 14.3752,18.4518 C14.3752,18.2948 14.5022,18.1678 14.6592,18.1678 C14.8162,18.1678 14.9432,18.2948 14.9432,18.4518 C14.9432,18.6088 14.8162,18.7358 14.6592,18.7358" id="Fill-48" fill="#1D96DD"></path>
                    <path d="M16.1311,17.2134 C15.9681,17.2134 15.8351,17.0804 15.8351,16.9174 C15.8351,16.7534 15.9681,16.6214 16.1311,16.6214 C16.2951,16.6214 16.4271,16.7534 16.4271,16.9174 C16.4271,17.0804 16.2951,17.2134 16.1311,17.2134" id="Fill-50" fill="#1D96DD"></path>
                    <path d="M17.6567,15.7446 C17.4867,15.7446 17.3487,15.6066 17.3487,15.4366 C17.3487,15.2666 17.4867,15.1296 17.6567,15.1296 C17.8267,15.1296 17.9647,15.2666 17.9647,15.4366 C17.9647,15.6066 17.8267,15.7446 17.6567,15.7446" id="Fill-52" fill="#1D96DD"></path>
                    <path d="M19.2349,14.3315 C19.0589,14.3315 18.9149,14.1885 18.9149,14.0115 C18.9149,13.8355 19.0589,13.6925 19.2349,13.6925 C19.4119,13.6925 19.5549,13.8355 19.5549,14.0115 C19.5549,14.1885 19.4119,14.3315 19.2349,14.3315" id="Fill-54" fill="#1D96DD"></path>
                    <path d="M20.8635,12.9765 C20.6805,12.9765 20.5325,12.8285 20.5325,12.6455 C20.5325,12.4625 20.6805,12.3135 20.8635,12.3135 C21.0465,12.3135 21.1955,12.4625 21.1955,12.6455 C21.1955,12.8285 21.0465,12.9765 20.8635,12.9765" id="Fill-56" fill="#1D96DD"></path>
                    <path d="M22.5408,11.6816 C22.3508,11.6816 22.1978,11.5276 22.1978,11.3386 C22.1978,11.1486 22.3508,10.9946 22.5408,10.9946 C22.7298,10.9946 22.8838,11.1486 22.8838,11.3386 C22.8838,11.5276 22.7298,11.6816 22.5408,11.6816" id="Fill-58" fill="#1D96DD"></path>
                    <path d="M24.2693,10.4551 C24.0733,10.4551 23.9143,10.2961 23.9143,10.1001 C23.9143,9.9041 24.0733,9.7451 24.2693,9.7451 C24.4653,9.7451 24.6243,9.9041 24.6243,10.1001 C24.6243,10.2961 24.4653,10.4551 24.2693,10.4551" id="Fill-60" fill="#1D96DD"></path>
                    <path d="M26.0515,9.3078 C25.8485,9.3078 25.6845,9.1438 25.6845,8.9408 C25.6845,8.7378 25.8485,8.5738 26.0515,8.5738 C26.2535,8.5738 26.4185,8.7378 26.4185,8.9408 C26.4185,9.1438 26.2535,9.3078 26.0515,9.3078" id="Fill-62" fill="#1D96DD"></path>
                    <path d="M27.8831,8.239 C27.6741,8.239 27.5041,8.069 27.5041,7.86 C27.5041,7.651 27.6741,7.481 27.8831,7.481 C28.0921,7.481 28.2621,7.651 28.2621,7.86 C28.2621,8.069 28.0921,8.239 27.8831,8.239" id="Fill-64" fill="#1D96DD"></path>
                    <path d="M29.7625,7.2566 C29.5465,7.2566 29.3725,7.0816 29.3725,6.8656 C29.3725,6.6496 29.5465,6.4756 29.7625,6.4756 C29.9785,6.4756 30.1535,6.6496 30.1535,6.8656 C30.1535,7.0816 29.9785,7.2566 29.7625,7.2566" id="Fill-66" fill="#1D96DD"></path>
                    <path d="M31.6975,6.3877 C31.4755,6.3877 31.2955,6.2077 31.2955,5.9847 C31.2955,5.7627 31.4755,5.5827 31.6975,5.5827 C31.9195,5.5827 32.0995,5.7627 32.0995,5.9847 C32.0995,6.2077 31.9195,6.3877 31.6975,6.3877" id="Fill-68" fill="#1D96DD"></path>
                    <path d="M33.6782,5.6267 C33.4492,5.6267 33.2642,5.4407 33.2642,5.2127 C33.2642,4.9837 33.4492,4.7987 33.6782,4.7987 C33.9072,4.7987 34.0922,4.9837 34.0922,5.2127 C34.0922,5.4407 33.9072,5.6267 33.6782,5.6267" id="Fill-70" fill="#1D96DD"></path>
                    <path d="M35.6985,4.9658 C35.4635,4.9658 35.2725,4.7748 35.2725,4.5398 C35.2725,4.3048 35.4635,4.1138 35.6985,4.1138 C35.9335,4.1138 36.1245,4.3048 36.1245,4.5398 C36.1245,4.7748 35.9335,4.9658 35.6985,4.9658" id="Fill-72" fill="#1D96DD"></path>
                    <path d="M37.7544,4.4321 C37.5124,4.4321 37.3164,4.2361 37.3164,3.9941 C37.3164,3.7521 37.5124,3.5561 37.7544,3.5561 C37.9964,3.5561 38.1924,3.7521 38.1924,3.9941 C38.1924,4.2361 37.9964,4.4321 37.7544,4.4321" id="Fill-74" fill="#1D96DD"></path>
                    <path d="M39.8411,4.0205 C39.5931,4.0205 39.3911,3.8195 39.3911,3.5705 C39.3911,3.3225 39.5931,3.1215 39.8411,3.1215 C40.0901,3.1215 40.2911,3.3225 40.2911,3.5705 C40.2911,3.8195 40.0901,4.0205 39.8411,4.0205" id="Fill-76" fill="#1D96DD"></path>
                    <path d="M41.9441,3.7129 C41.6891,3.7129 41.4821,3.5059 41.4821,3.2509 C41.4821,2.9969 41.6891,2.7899 41.9441,2.7899 C42.1991,2.7899 42.4051,2.9969 42.4051,3.2509 C42.4051,3.5059 42.1991,3.7129 41.9441,3.7129" id="Fill-78" fill="#1D96DD"></path>
                    <path d="M44.0686,3.6067 C43.8066,3.6067 43.5956,3.3947 43.5956,3.1337 C43.5956,2.8717 43.8066,2.6597 44.0686,2.6597 C44.3306,2.6597 44.5416,2.8717 44.5416,3.1337 C44.5416,3.3947 44.3306,3.6067 44.0686,3.6067" id="Fill-80" fill="#1D96DD"></path>
                    <g id="Group-84" transform="translate(43.000000, 0.751200)">
                        <mask id="mask-4" fill="white">
                            <use xlink:href="#path-3"></use>
                        </mask>
                        <g id="Clip-83"></g>
                        <path d="M2.7424,4.7188 C3.9754,4.8108 5.0494,3.8858 5.1414,2.6538 C5.2334,1.4208 4.3084,0.3468 3.0754,0.2548 C1.8434,0.1628 0.7694,1.0878 0.6774,2.3208 C0.5854,3.5528 1.5104,4.6268 2.7424,4.7188" id="Fill-82" fill="#1D96DD" mask="url(#mask-4)"></path>
                    </g>
                </g>
                <g id="Page-1" transform="translate(48.809398, 30.809398) scale(-1, 1) rotate(-102.000000) translate(-48.809398, -30.809398) translate(26.809398, 16.309398)">
                    <path d="M42.5569,27.4581 C42.5459,27.4581 42.5369,27.4491 42.5369,27.4381 C42.5369,27.4261 42.5459,27.4171 42.5569,27.4171 C42.5679,27.4171 42.5779,27.4261 42.5779,27.4381 C42.5779,27.4491 42.5679,27.4581 42.5569,27.4581" id="Fill-1" fill="#1D96DD"></path>
                    <path d="M40.9718,26.0665 C40.9488,26.0665 40.9308,26.0485 40.9308,26.0255 C40.9308,26.0025 40.9488,25.9845 40.9718,25.9845 C40.9948,25.9845 41.0128,26.0025 41.0128,26.0255 C41.0128,26.0485 40.9948,26.0665 40.9718,26.0665" id="Fill-3" fill="#1D96DD"></path>
                    <path d="M39.3577,24.7042 C39.3237,24.7042 39.2967,24.6772 39.2967,24.6432 C39.2967,24.6092 39.3237,24.5812 39.3577,24.5812 C39.3917,24.5812 39.4187,24.6092 39.4187,24.6432 C39.4187,24.6772 39.3917,24.7042 39.3577,24.7042" id="Fill-5" fill="#1D96DD"></path>
                    <path d="M37.7209,23.3683 C37.6759,23.3683 37.6389,23.3313 37.6389,23.2863 C37.6389,23.2413 37.6759,23.2043 37.7209,23.2043 C37.7659,23.2043 37.8029,23.2413 37.8029,23.2863 C37.8029,23.3313 37.7659,23.3683 37.7209,23.3683" id="Fill-7" fill="#1D96DD"></path>
                    <path d="M36.0365,22.0909 C35.9805,22.0909 35.9345,22.0449 35.9345,21.9889 C35.9345,21.9319 35.9805,21.8859 36.0365,21.8859 C36.0935,21.8859 36.1385,21.9319 36.1385,21.9889 C36.1385,22.0449 36.0935,22.0909 36.0365,22.0909" id="Fill-9" fill="#1D96DD"></path>
                    <path d="M34.3143,20.8675 C34.2463,20.8675 34.1913,20.8125 34.1913,20.7455 C34.1913,20.6775 34.2463,20.6225 34.3143,20.6225 C34.3823,20.6225 34.4373,20.6775 34.4373,20.7455 C34.4373,20.8125 34.3823,20.8675 34.3143,20.8675" id="Fill-11" fill="#1D96DD"></path>
                    <path d="M32.5654,19.6803 C32.4864,19.6803 32.4224,19.6163 32.4224,19.5373 C32.4224,19.4583 32.4864,19.3943 32.5654,19.3943 C32.6444,19.3943 32.7084,19.4583 32.7084,19.5373 C32.7084,19.6163 32.6444,19.6803 32.5654,19.6803" id="Fill-13" fill="#1D96DD"></path>
                    <path d="M30.8013,18.5196 C30.7113,18.5196 30.6383,18.4466 30.6383,18.3556 C30.6383,18.2656 30.7113,18.1926 30.8013,18.1926 C30.8913,18.1926 30.9653,18.2656 30.9653,18.3556 C30.9653,18.4466 30.8913,18.5196 30.8013,18.5196" id="Fill-15" fill="#1D96DD"></path>
                    <path d="M28.993,17.4222 C28.891,17.4222 28.809,17.3402 28.809,17.2382 C28.809,17.1362 28.891,17.0542 28.993,17.0542 C29.095,17.0542 29.177,17.1362 29.177,17.2382 C29.177,17.3402 29.095,17.4222 28.993,17.4222" id="Fill-17" fill="#1D96DD"></path>
                    <path d="M27.1705,16.3482 C27.0575,16.3482 26.9655,16.2572 26.9655,16.1432 C26.9655,16.0312 27.0575,15.9392 27.1705,15.9392 C27.2835,15.9392 27.3745,16.0312 27.3745,16.1432 C27.3745,16.2572 27.2835,16.3482 27.1705,16.3482" id="Fill-19" fill="#1D96DD"></path>
                    <path d="M25.3358,15.2962 C25.2118,15.2962 25.1108,15.1952 25.1108,15.0712 C25.1108,14.9472 25.2118,14.8462 25.3358,14.8462 C25.4598,14.8462 25.5608,14.9472 25.5608,15.0712 C25.5608,15.1952 25.4598,15.2962 25.3358,15.2962" id="Fill-21" fill="#1D96DD"></path>
                    <path d="M23.4864,14.2596 C23.3504,14.2596 23.2414,14.1496 23.2414,14.0146 C23.2414,13.8786 23.3504,13.7686 23.4864,13.7686 C23.6214,13.7686 23.7314,13.8786 23.7314,14.0146 C23.7314,14.1496 23.6214,14.2596 23.4864,14.2596" id="Fill-23" fill="#1D96DD"></path>
                    <path d="M21.6282,13.244 C21.4812,13.244 21.3622,13.125 21.3622,12.978 C21.3622,12.831 21.4812,12.712 21.6282,12.712 C21.7752,12.712 21.8942,12.831 21.8942,12.978 C21.8942,13.125 21.7752,13.244 21.6282,13.244" id="Fill-25" fill="#1D96DD"></path>
                    <path d="M19.7579,12.2513 C19.5999,12.2513 19.4719,12.1233 19.4719,11.9653 C19.4719,11.8073 19.5999,11.6783 19.7579,11.6783 C19.9159,11.6783 20.0439,11.8073 20.0439,11.9653 C20.0439,12.1233 19.9159,12.2513 19.7579,12.2513" id="Fill-27" fill="#1D96DD"></path>
                    <path d="M17.8755,11.2818 C17.7065,11.2818 17.5685,11.1448 17.5685,10.9748 C17.5685,10.8058 17.7065,10.6688 17.8755,10.6688 C18.0445,10.6688 18.1825,10.8058 18.1825,10.9748 C18.1825,11.1448 18.0445,11.2818 17.8755,11.2818" id="Fill-29" fill="#1D96DD"></path>
                    <path d="M15.9884,10.3297 C15.8074,10.3297 15.6614,10.1837 15.6614,10.0027 C15.6614,9.8217 15.8074,9.6757 15.9884,9.6757 C16.1694,9.6757 16.3154,9.8217 16.3154,10.0027 C16.3154,10.1837 16.1694,10.3297 15.9884,10.3297" id="Fill-31" fill="#1D96DD"></path>
                    <path d="M14.0945,9.3851 C13.9025,9.3851 13.7465,9.2291 13.7465,9.0371 C13.7465,8.8451 13.9025,8.6901 14.0945,8.6901 C14.2865,8.6901 14.4425,8.8451 14.4425,9.0371 C14.4425,9.2291 14.2865,9.3851 14.0945,9.3851" id="Fill-33" fill="#1D96DD"></path>
                    <path d="M12.1976,8.4456 C11.9946,8.4456 11.8296,8.2806 11.8296,8.0776 C11.8296,7.8736 11.9946,7.7096 12.1976,7.7096 C12.4006,7.7096 12.5656,7.8736 12.5656,8.0776 C12.5656,8.2806 12.4006,8.4456 12.1976,8.4456" id="Fill-35" fill="#1D96DD"></path>
                    <path d="M10.2979,7.5116 C10.0829,7.5116 9.9089,7.3376 9.9089,7.1226 C9.9089,6.9086 10.0829,6.7346 10.2979,6.7346 C10.5129,6.7346 10.6869,6.9086 10.6869,7.1226 C10.6869,7.3376 10.5129,7.5116 10.2979,7.5116" id="Fill-37" fill="#1D96DD"></path>
                    <path d="M8.3931,6.5872 C8.1671,6.5872 7.9841,6.4042 7.9841,6.1782 C7.9841,5.9522 8.1671,5.7692 8.3931,5.7692 C8.6191,5.7692 8.8021,5.9522 8.8021,6.1782 C8.8021,6.4042 8.6191,6.5872 8.3931,6.5872" id="Fill-39" fill="#1D96DD"></path>
                    <path d="M6.4819,5.6751 C6.2449,5.6751 6.0529,5.4831 6.0529,5.2461 C6.0529,5.0081 6.2449,4.8161 6.4819,4.8161 C6.7189,4.8161 6.9119,5.0081 6.9119,5.2461 C6.9119,5.4831 6.7189,5.6751 6.4819,5.6751" id="Fill-41" fill="#1D96DD"></path>
                    <path d="M4.5648,4.7762 C4.3158,4.7762 4.1148,4.5752 4.1148,4.3262 C4.1148,4.0782 4.3158,3.8762 4.5648,3.8762 C4.8128,3.8762 5.0148,4.0782 5.0148,4.3262 C5.0148,4.5752 4.8128,4.7762 4.5648,4.7762" id="Fill-43" fill="#1D96DD"></path>
                    <path d="M3.0428,4.0799 C2.7828,4.0799 2.5718,3.8699 2.5718,3.6099 C2.5718,3.3499 2.7828,3.1389 3.0428,3.1389 C3.3028,3.1389 3.5128,3.3499 3.5128,3.6099 C3.5128,3.8699 3.3028,4.0799 3.0428,4.0799" id="Fill-45" fill="#1D96DD"></path>
                    <g id="Group-49" transform="translate(-0.000000, 0.880700)">
                        <mask id="mask-6" fill="white">
                            <use xlink:href="#path-5"></use>
                        </mask>
                        <g id="Clip-48"></g>
                        <path d="M3.1799,0.3274 C2.0589,-0.1926 0.7279,0.2954 0.2079,1.4164 C-0.3121,2.5374 0.1759,3.8684 1.2969,4.3884 C2.4189,4.9084 3.7489,4.4204 4.2689,3.2994 C4.7889,2.1784 4.3009,0.8474 3.1799,0.3274" id="Fill-47" fill="#1D96DD" mask="url(#mask-6)"></path>
                    </g>
                </g>
                <g id="Page-1" transform="translate(44.147175, 36.954692) scale(-1, 1) rotate(-35.000000) translate(-44.147175, -36.954692) translate(17.147175, 22.954692)">
                    <path d="M48.0094,1.1738 C47.9824,1.1738 47.9604,1.1518 47.9604,1.1248 C47.9604,1.0978 47.9824,1.0768 48.0094,1.0768 C48.0364,1.0768 48.0584,1.0978 48.0584,1.1248 C48.0584,1.1518 48.0364,1.1738 48.0094,1.1738" id="Fill-5" fill="#1D96DD"></path>
                    <path d="M45.8853,1.1679 C45.8493,1.1679 45.8203,1.1389 45.8203,1.1029 C45.8203,1.0669 45.8493,1.0379 45.8853,1.0379 C45.9213,1.0379 45.9503,1.0669 45.9503,1.1029 C45.9503,1.1389 45.9213,1.1679 45.8853,1.1679" id="Fill-7" fill="#1D96DD"></path>
                    <path d="M43.7623,1.167 C43.7173,1.167 43.6813,1.131 43.6813,1.086 C43.6813,1.041 43.7173,1.005 43.7623,1.005 C43.8073,1.005 43.8433,1.041 43.8433,1.086 C43.8433,1.131 43.8073,1.167 43.7623,1.167" id="Fill-9" fill="#1D96DD"></path>
                    <g id="Group-13" transform="translate(41.000000, 0.902900)">
                        <mask id="mask-8" fill="white">
                            <use xlink:href="#path-7"></use>
                        </mask>
                        <g id="Clip-12"></g>
                        <path d="M0.6375,0.2919 C0.5835,0.2919 0.5405,0.2479 0.5405,0.1949 C0.5405,0.1409 0.5835,0.0969 0.6375,0.0969 C0.6915,0.0969 0.7355,0.1409 0.7355,0.1949 C0.7355,0.2479 0.6915,0.2919 0.6375,0.2919" id="Fill-11" fill="#1D96DD" mask="url(#mask-8)"></path>
                    </g>
                    <path d="M39.5138,1.2463 C39.4508,1.2463 39.3998,1.1953 39.3998,1.1323 C39.3998,1.0703 39.4508,1.0193 39.5138,1.0193 C39.5768,1.0193 39.6268,1.0703 39.6268,1.1323 C39.6268,1.1953 39.5768,1.2463 39.5138,1.2463" id="Fill-14" fill="#1D96DD"></path>
                    <path d="M37.3929,1.3366 C37.3209,1.3366 37.2629,1.2786 37.2629,1.2066 C37.2629,1.1346 37.3209,1.0766 37.3929,1.0766 C37.4649,1.0766 37.5229,1.1346 37.5229,1.2066 C37.5229,1.2786 37.4649,1.3366 37.3929,1.3366" id="Fill-16" fill="#1D96DD"></path>
                    <path d="M35.2708,1.4799 C35.1898,1.4799 35.1248,1.4149 35.1248,1.3339 C35.1248,1.2529 35.1898,1.1879 35.2708,1.1879 C35.3518,1.1879 35.4168,1.2529 35.4168,1.3339 C35.4168,1.4149 35.3518,1.4799 35.2708,1.4799" id="Fill-18" fill="#1D96DD"></path>
                    <path d="M33.1537,1.6794 C33.0637,1.6794 32.9917,1.6064 32.9917,1.5174 C32.9917,1.4274 33.0637,1.3544 33.1537,1.3544 C33.2437,1.3544 33.3157,1.4274 33.3157,1.5174 C33.3157,1.6064 33.2437,1.6794 33.1537,1.6794" id="Fill-20" fill="#1D96DD"></path>
                    <path d="M31.0416,1.9348 C30.9426,1.9348 30.8626,1.8548 30.8626,1.7568 C30.8626,1.6578 30.9426,1.5778 31.0416,1.5778 C31.1406,1.5778 31.2196,1.6578 31.2196,1.7568 C31.2196,1.8548 31.1406,1.9348 31.0416,1.9348" id="Fill-22" fill="#1D96DD"></path>
                    <path d="M28.9412,2.281 C28.8332,2.281 28.7462,2.194 28.7462,2.086 C28.7462,1.978 28.8332,1.891 28.9412,1.891 C29.0492,1.891 29.1362,1.978 29.1362,2.086 C29.1362,2.194 29.0492,2.281 28.9412,2.281" id="Fill-24" fill="#1D96DD"></path>
                    <path d="M26.8578,2.7155 C26.7408,2.7155 26.6468,2.6215 26.6468,2.5045 C26.6468,2.3875 26.7408,2.2935 26.8578,2.2935 C26.9738,2.2935 27.0688,2.3875 27.0688,2.5045 C27.0688,2.6215 26.9738,2.7155 26.8578,2.7155" id="Fill-26" fill="#1D96DD"></path>
                    <path d="M24.8004,3.2688 C24.6744,3.2688 24.5734,3.1668 24.5734,3.0418 C24.5734,2.9158 24.6744,2.8138 24.8004,2.8138 C24.9254,2.8138 25.0274,2.9158 25.0274,3.0418 C25.0274,3.1668 24.9254,3.2688 24.8004,3.2688" id="Fill-28" fill="#1D96DD"></path>
                    <path d="M22.7813,3.946 C22.6463,3.946 22.5373,3.837 22.5373,3.702 C22.5373,3.568 22.6463,3.459 22.7813,3.459 C22.9163,3.459 23.0243,3.568 23.0243,3.702 C23.0243,3.837 22.9163,3.946 22.7813,3.946" id="Fill-30" fill="#1D96DD"></path>
                    <path d="M20.805,4.7456 C20.662,4.7456 20.545,4.6296 20.545,4.4856 C20.545,4.3426 20.662,4.2256 20.805,4.2256 C20.948,4.2256 21.065,4.3426 21.065,4.4856 C21.065,4.6296 20.948,4.7456 20.805,4.7456" id="Fill-32" fill="#1D96DD"></path>
                    <path d="M18.9193,5.7468 C18.7673,5.7468 18.6433,5.6238 18.6433,5.4708 C18.6433,5.3188 18.7673,5.1948 18.9193,5.1948 C19.0723,5.1948 19.1953,5.3188 19.1953,5.4708 C19.1953,5.6238 19.0723,5.7468 18.9193,5.7468" id="Fill-34" fill="#1D96DD"></path>
                    <path d="M17.0946,6.861 C16.9336,6.861 16.8026,6.73 16.8026,6.569 C16.8026,6.407 16.9336,6.277 17.0946,6.277 C17.2556,6.277 17.3866,6.407 17.3866,6.569 C17.3866,6.73 17.2556,6.861 17.0946,6.861" id="Fill-36" fill="#1D96DD"></path>
                    <path d="M15.3573,8.1023 C15.1873,8.1023 15.0493,7.9643 15.0493,7.7933 C15.0493,7.6233 15.1873,7.4853 15.3573,7.4853 C15.5273,7.4853 15.6653,7.6233 15.6653,7.7933 C15.6653,7.9643 15.5273,8.1023 15.3573,8.1023" id="Fill-38" fill="#1D96DD"></path>
                    <path d="M13.7162,9.4694 C13.5372,9.4694 13.3912,9.3244 13.3912,9.1444 C13.3912,8.9654 13.5372,8.8204 13.7162,8.8204 C13.8952,8.8204 14.0402,8.9654 14.0402,9.1444 C14.0402,9.3244 13.8952,9.4694 13.7162,9.4694" id="Fill-40" fill="#1D96DD"></path>
                    <path d="M12.1749,10.9499 C11.9869,10.9499 11.8339,10.7969 11.8339,10.6089 C11.8339,10.4209 11.9869,10.2679 12.1749,10.2679 C12.3629,10.2679 12.5159,10.4209 12.5159,10.6089 C12.5159,10.7969 12.3629,10.9499 12.1749,10.9499" id="Fill-42" fill="#1D96DD"></path>
                    <path d="M10.7371,12.5324 C10.5401,12.5324 10.3801,12.3724 10.3801,12.1754 C10.3801,11.9784 10.5401,11.8184 10.7371,11.8184 C10.9341,11.8184 11.0941,11.9784 11.0941,12.1754 C11.0941,12.3724 10.9341,12.5324 10.7371,12.5324" id="Fill-44" fill="#1D96DD"></path>
                    <path d="M9.401,14.2024 C9.195,14.2024 9.028,14.0354 9.028,13.8294 C9.028,13.6224 9.195,13.4554 9.401,13.4554 C9.607,13.4554 9.774,13.6224 9.774,13.8294 C9.774,14.0354 9.607,14.2024 9.401,14.2024" id="Fill-46" fill="#1D96DD"></path>
                    <path d="M8.1573,15.9463 C7.9423,15.9463 7.7673,15.7723 7.7673,15.5563 C7.7673,15.3413 7.9423,15.1673 8.1573,15.1673 C8.3723,15.1673 8.5473,15.3413 8.5473,15.5563 C8.5473,15.7723 8.3723,15.9463 8.1573,15.9463" id="Fill-48" fill="#1D96DD"></path>
                    <path d="M6.9954,17.7429 C6.7714,17.7429 6.5894,17.5609 6.5894,17.3369 C6.5894,17.1129 6.7714,16.9309 6.9954,16.9309 C7.2194,16.9309 7.4014,17.1129 7.4014,17.3369 C7.4014,17.5609 7.2194,17.7429 6.9954,17.7429" id="Fill-50" fill="#1D96DD"></path>
                    <path d="M5.8961,19.5791 C5.6631,19.5791 5.4741,19.3901 5.4741,19.1571 C5.4741,18.9241 5.6631,18.7351 5.8961,18.7351 C6.1291,18.7351 6.3181,18.9241 6.3181,19.1571 C6.3181,19.3901 6.1291,19.5791 5.8961,19.5791" id="Fill-52" fill="#1D96DD"></path>
                    <path d="M4.8358,21.4406 C4.5938,21.4406 4.3978,21.2446 4.3978,21.0026 C4.3978,20.7606 4.5938,20.5636 4.8358,20.5636 C5.0778,20.5636 5.2738,20.7606 5.2738,21.0026 C5.2738,21.2446 5.0778,21.4406 4.8358,21.4406" id="Fill-54" fill="#1D96DD"></path>
                    <path d="M3.7979,23.3147 C3.5469,23.3147 3.3429,23.1107 3.3429,22.8597 C3.3429,22.6087 3.5469,22.4057 3.7979,22.4057 C4.0489,22.4057 4.2529,22.6087 4.2529,22.8597 C4.2529,23.1107 4.0489,23.3147 3.7979,23.3147" id="Fill-56" fill="#1D96DD"></path>
                    <path d="M2.7677,25.1909 C2.5077,25.1909 2.2967,24.9799 2.2967,24.7199 C2.2967,24.4599 2.5077,24.2499 2.7677,24.2499 C3.0277,24.2499 3.2387,24.4599 3.2387,24.7199 C3.2387,24.9799 3.0277,25.1909 2.7677,25.1909" id="Fill-58" fill="#1D96DD"></path>
                    <path d="M0.2921,24.5595 C-0.3179,25.6345 0.0591,27.0005 1.1331,27.6105 C2.2081,28.2205 3.5751,27.8445 4.1851,26.7695 C4.7951,25.6945 4.4181,24.3285 3.3431,23.7185 C2.2681,23.1085 0.9021,23.4845 0.2921,24.5595" id="Fill-60" fill="#1D96DD"></path>
                </g>
                <g id="Page-1" transform="translate(46.865245, 79.104206) scale(-1, 1) rotate(-77.000000) translate(-46.865245, -79.104206) translate(14.865245, 66.104206)">
                    <path d="M62.875,0.107 L62.86,0.092 C62.86,0.084 62.867,0.078 62.867,0.078 C62.883,0.078 62.89,0.084 62.89,0.092 C62.89,0.092 62.883,0.107 62.875,0.107" id="Fill-1" fill="#1D96DD"></path>
                    <path d="M60.7522,0.2291 C60.7362,0.2291 60.7232,0.2161 60.7232,0.2001 C60.7232,0.1841 60.7362,0.1701 60.7522,0.1701 C60.7682,0.1701 60.7812,0.1841 60.7812,0.2001 C60.7812,0.2161 60.7682,0.2291 60.7522,0.2291" id="Fill-3" fill="#1D96DD"></path>
                    <path d="M58.6308,0.3467 C58.6068,0.3467 58.5868,0.3277 58.5868,0.3027 C58.5868,0.2787 58.6068,0.2597 58.6308,0.2597 C58.6548,0.2597 58.6748,0.2787 58.6748,0.3027 C58.6748,0.3277 58.6548,0.3467 58.6308,0.3467" id="Fill-5" fill="#1D96DD"></path>
                    <path d="M56.5085,0.4454 C56.4765,0.4454 56.4495,0.4194 56.4495,0.3874 C56.4495,0.3544 56.4765,0.3284 56.5085,0.3284 C56.5405,0.3284 56.5665,0.3544 56.5665,0.3874 C56.5665,0.4194 56.5405,0.4454 56.5085,0.4454" id="Fill-7" fill="#1D96DD"></path>
                    <path d="M54.3857,0.5354 C54.3457,0.5354 54.3127,0.5024 54.3127,0.4624 C54.3127,0.4224 54.3457,0.3894 54.3857,0.3894 C54.4257,0.3894 54.4587,0.4224 54.4587,0.4624 C54.4587,0.5024 54.4257,0.5354 54.3857,0.5354" id="Fill-9" fill="#1D96DD"></path>
                    <path d="M52.2624,0.6299 C52.2144,0.6299 52.1754,0.5909 52.1754,0.5419 C52.1754,0.4939 52.2144,0.4549 52.2624,0.4549 C52.3114,0.4549 52.3504,0.4939 52.3504,0.5419 C52.3504,0.5909 52.3114,0.6299 52.2624,0.6299" id="Fill-11" fill="#1D96DD"></path>
                    <path d="M50.1391,0.7337 C50.0821,0.7337 50.0371,0.6877 50.0371,0.6317 C50.0371,0.5747 50.0821,0.5297 50.1391,0.5297 C50.1951,0.5297 50.2411,0.5747 50.2411,0.6317 C50.2411,0.6877 50.1951,0.7337 50.1391,0.7337" id="Fill-13" fill="#1D96DD"></path>
                    <path d="M48.0163,0.845 C47.9523,0.845 47.8993,0.793 47.8993,0.728 C47.8993,0.664 47.9523,0.611 48.0163,0.611 C48.0813,0.611 48.1333,0.664 48.1333,0.728 C48.1333,0.793 48.0813,0.845 48.0163,0.845" id="Fill-15" fill="#1D96DD"></path>
                    <path d="M45.893,0.9622 C45.82,0.9622 45.761,0.9032 45.761,0.8312 C45.761,0.7582 45.82,0.6992 45.893,0.6992 C45.966,0.6992 46.024,0.7582 46.024,0.8312 C46.024,0.9032 45.966,0.9622 45.893,0.9622" id="Fill-17" fill="#1D96DD"></path>
                    <path d="M43.7715,1.0933 C43.6905,1.0933 43.6255,1.0283 43.6255,0.9473 C43.6255,0.8663 43.6905,0.8013 43.7715,0.8013 C43.8515,0.8013 43.9175,0.8663 43.9175,0.9473 C43.9175,1.0283 43.8515,1.0933 43.7715,1.0933" id="Fill-19" fill="#1D96DD"></path>
                    <path d="M41.6513,1.262 C41.5623,1.262 41.4903,1.19 41.4903,1.101 C41.4903,1.012 41.5623,0.941 41.6513,0.941 C41.7403,0.941 41.8123,1.012 41.8123,1.101 C41.8123,1.19 41.7403,1.262 41.6513,1.262" id="Fill-21" fill="#1D96DD"></path>
                    <path d="M39.5344,1.4695 C39.4374,1.4695 39.3594,1.3915 39.3594,1.2945 C39.3594,1.1975 39.4374,1.1195 39.5344,1.1195 C39.6314,1.1195 39.7094,1.1975 39.7094,1.2945 C39.7094,1.3915 39.6314,1.4695 39.5344,1.4695" id="Fill-23" fill="#1D96DD"></path>
                    <path d="M37.4218,1.7242 C37.3168,1.7242 37.2318,1.6392 37.2318,1.5342 C37.2318,1.4292 37.3168,1.3442 37.4218,1.3442 C37.5268,1.3442 37.6118,1.4292 37.6118,1.5342 C37.6118,1.6392 37.5268,1.7242 37.4218,1.7242" id="Fill-25" fill="#1D96DD"></path>
                    <path d="M35.3271,2.0706 C35.2141,2.0706 35.1221,1.9786 35.1221,1.8656 C35.1221,1.7536 35.2141,1.6616 35.3271,1.6616 C35.4401,1.6616 35.5311,1.7536 35.5311,1.8656 C35.5311,1.9786 35.4401,2.0706 35.3271,2.0706" id="Fill-27" fill="#1D96DD"></path>
                    <path d="M33.2614,2.5718 C33.1404,2.5718 33.0424,2.4738 33.0424,2.3528 C33.0424,2.2318 33.1404,2.1338 33.2614,2.1338 C33.3824,2.1338 33.4804,2.2318 33.4804,2.3528 C33.4804,2.4738 33.3824,2.5718 33.2614,2.5718" id="Fill-29" fill="#1D96DD"></path>
                    <path d="M31.2224,3.1851 C31.0934,3.1851 30.9884,3.0801 30.9884,2.9511 C30.9884,2.8221 31.0934,2.7181 31.2224,2.7181 C31.3514,2.7181 31.4564,2.8221 31.4564,2.9511 C31.4564,3.0801 31.3514,3.1851 31.2224,3.1851" id="Fill-31" fill="#1D96DD"></path>
                    <path d="M29.206,3.8631 C29.069,3.8631 28.958,3.7521 28.958,3.6151 C28.958,3.4781 29.069,3.3671 29.206,3.3671 C29.343,3.3671 29.454,3.4781 29.454,3.6151 C29.454,3.7521 29.343,3.8631 29.206,3.8631" id="Fill-33" fill="#1D96DD"></path>
                    <path d="M27.2114,4.6087 C27.0664,4.6087 26.9484,4.4907 26.9484,4.3457 C26.9484,4.2007 27.0664,4.0827 27.2114,4.0827 C27.3564,4.0827 27.4744,4.2007 27.4744,4.3457 C27.4744,4.4907 27.3564,4.6087 27.2114,4.6087" id="Fill-35" fill="#1D96DD"></path>
                    <path d="M25.2402,5.4197 C25.0872,5.4197 24.9632,5.2957 24.9632,5.1427 C24.9632,4.9887 25.0872,4.8647 25.2402,4.8647 C25.3932,4.8647 25.5172,4.9887 25.5172,5.1427 C25.5172,5.2957 25.3932,5.4197 25.2402,5.4197" id="Fill-37" fill="#1D96DD"></path>
                    <path d="M23.2978,6.2981 C23.1368,6.2981 23.0058,6.1671 23.0058,6.0061 C23.0058,5.8451 23.1368,5.7141 23.2978,5.7141 C23.4588,5.7141 23.5898,5.8451 23.5898,6.0061 C23.5898,6.1671 23.4588,6.2981 23.2978,6.2981" id="Fill-39" fill="#1D96DD"></path>
                    <path d="M21.3872,7.2479 C21.2182,7.2479 21.0802,7.1109 21.0802,6.9409 C21.0802,6.7719 21.2182,6.6349 21.3872,6.6349 C21.5562,6.6349 21.6942,6.7719 21.6942,6.9409 C21.6942,7.1109 21.5562,7.2479 21.3872,7.2479" id="Fill-41" fill="#1D96DD"></path>
                    <path d="M19.5095,8.2674 C19.3315,8.2674 19.1885,8.1234 19.1885,7.9464 C19.1885,7.7684 19.3315,7.6244 19.5095,7.6244 C19.6875,7.6244 19.8305,7.7684 19.8305,7.9464 C19.8305,8.1234 19.6875,8.2674 19.5095,8.2674" id="Fill-43" fill="#1D96DD"></path>
                    <path d="M17.6706,9.3584 C17.4846,9.3584 17.3346,9.2084 17.3346,9.0224 C17.3346,8.8374 17.4846,8.6864 17.6706,8.6864 C17.8556,8.6864 18.0066,8.8374 18.0066,9.0224 C18.0066,9.2084 17.8556,9.3584 17.6706,9.3584" id="Fill-45" fill="#1D96DD"></path>
                    <path d="M15.8803,10.5201 C15.6873,10.5201 15.5303,10.3631 15.5303,10.1691 C15.5303,9.9761 15.6873,9.8191 15.8803,9.8191 C16.0743,9.8191 16.2313,9.9761 16.2313,10.1691 C16.2313,10.3631 16.0743,10.5201 15.8803,10.5201" id="Fill-47" fill="#1D96DD"></path>
                    <path d="M14.1374,11.7574 C13.9354,11.7574 13.7724,11.5934 13.7724,11.3924 C13.7724,11.1904 13.9354,11.0274 14.1374,11.0274 C14.3394,11.0274 14.5024,11.1904 14.5024,11.3924 C14.5024,11.5934 14.3394,11.7574 14.1374,11.7574" id="Fill-49" fill="#1D96DD"></path>
                    <path d="M12.4482,13.0689 C12.2382,13.0689 12.0682,12.8989 12.0682,12.6889 C12.0682,12.4799 12.2382,12.3099 12.4482,12.3099 C12.6582,12.3099 12.8282,12.4799 12.8282,12.6889 C12.8282,12.8989 12.6582,13.0689 12.4482,13.0689" id="Fill-51" fill="#1D96DD"></path>
                    <path d="M10.8198,14.4502 C10.6018,14.4502 10.4258,14.2742 10.4258,14.0562 C10.4258,13.8382 10.6018,13.6622 10.8198,13.6622 C11.0368,13.6622 11.2138,13.8382 11.2138,14.0562 C11.2138,14.2742 11.0368,14.4502 10.8198,14.4502" id="Fill-53" fill="#1D96DD"></path>
                    <path d="M9.2492,15.8982 C9.0232,15.8982 8.8402,15.7152 8.8402,15.4892 C8.8402,15.2632 9.0232,15.0802 9.2492,15.0802 C9.4752,15.0802 9.6582,15.2632 9.6582,15.4892 C9.6582,15.7152 9.4752,15.8982 9.2492,15.8982" id="Fill-55" fill="#1D96DD"></path>
                    <path d="M7.7373,17.4075 C7.5033,17.4075 7.3143,17.2175 7.3143,16.9835 C7.3143,16.7495 7.5033,16.5605 7.7373,16.5605 C7.9713,16.5605 8.1613,16.7495 8.1613,16.9835 C8.1613,17.2175 7.9713,17.4075 7.7373,17.4075" id="Fill-57" fill="#1D96DD"></path>
                    <path d="M6.2788,18.9708 C6.0368,18.9708 5.8408,18.7748 5.8408,18.5328 C5.8408,18.2908 6.0368,18.0948 6.2788,18.0948 C6.5208,18.0948 6.7168,18.2908 6.7168,18.5328 C6.7168,18.7748 6.5208,18.9708 6.2788,18.9708" id="Fill-59" fill="#1D96DD"></path>
                    <path d="M4.8618,20.5723 C4.6118,20.5723 4.4088,20.3693 4.4088,20.1193 C4.4088,19.8693 4.6118,19.6673 4.8618,19.6673 C5.1118,19.6673 5.3148,19.8693 5.3148,20.1193 C5.3148,20.3693 5.1118,20.5723 4.8618,20.5723" id="Fill-61" fill="#1D96DD"></path>
                    <path d="M3.4819,22.2071 C3.2239,22.2071 3.0149,21.9981 3.0149,21.7401 C3.0149,21.4811 3.2239,21.2721 3.4819,21.2721 C3.7399,21.2721 3.9489,21.4811 3.9489,21.7401 C3.9489,21.9981 3.7399,22.2071 3.4819,22.2071" id="Fill-63" fill="#1D96DD"></path>
                    <g id="Group-67" transform="translate(-0.000000, 20.491500)">
                        <mask id="mask-10" fill="white">
                            <use xlink:href="#path-9"></use>
                        </mask>
                        <g id="Clip-66"></g>
                        <path d="M0.4917,1.3623 C-0.2813,2.3263 -0.1263,3.7353 0.8387,4.5083 C1.8027,5.2813 3.2117,5.1263 3.9847,4.1613 C4.7577,3.1973 4.6027,1.7883 3.6377,1.0153 C2.6737,0.2423 1.2647,0.3983 0.4917,1.3623" id="Fill-65" fill="#1D96DD" mask="url(#mask-10)"></path>
                    </g>
                </g>
                <g id="Page-1" transform="translate(43.326173, 39.555183) scale(-1, 1) rotate(-70.000000) translate(-43.326173, -39.555183) translate(4.326173, 31.055183)">
                    <path d="M70.1814,1.112 C70.1524,1.112 70.1294,1.089 70.1294,1.06 C70.1294,1.031 70.1524,1.008 70.1814,1.008 C70.2104,1.008 70.2334,1.031 70.2334,1.06 C70.2334,1.089 70.2104,1.112 70.1814,1.112" id="Fill-8" fill="#1D96DD"></path>
                    <path d="M68.0571,1.1635 C68.0211,1.1635 67.9921,1.1345 67.9921,1.0985 C67.9921,1.0625 68.0211,1.0335 68.0571,1.0335 C68.0931,1.0335 68.1221,1.0625 68.1221,1.0985 C68.1221,1.1345 68.0931,1.1635 68.0571,1.1635" id="Fill-10" fill="#1D96DD"></path>
                    <path d="M65.9319,1.222 C65.8889,1.222 65.8539,1.187 65.8539,1.144 C65.8539,1.101 65.8889,1.066 65.9319,1.066 C65.9749,1.066 66.0099,1.101 66.0099,1.144 C66.0099,1.187 65.9749,1.222 65.9319,1.222" id="Fill-12" fill="#1D96DD"></path>
                    <path d="M63.8071,1.2872 C63.7571,1.2872 63.7161,1.2462 63.7161,1.1962 C63.7161,1.1462 63.7571,1.1052 63.8071,1.1052 C63.8571,1.1052 63.8981,1.1462 63.8981,1.1962 C63.8981,1.2462 63.8571,1.2872 63.8071,1.2872" id="Fill-14" fill="#1D96DD"></path>
                    <path d="M61.6824,1.358 C61.6244,1.358 61.5784,1.311 61.5784,1.254 C61.5784,1.196 61.6244,1.15 61.6824,1.15 C61.7404,1.15 61.7864,1.196 61.7864,1.254 C61.7864,1.311 61.7404,1.358 61.6824,1.358" id="Fill-16" fill="#1D96DD"></path>
                    <path d="M59.5598,1.4382 C59.4948,1.4382 59.4428,1.3852 59.4428,1.3212 C59.4428,1.2562 59.4948,1.2042 59.5598,1.2042 C59.6248,1.2042 59.6768,1.2562 59.6768,1.3212 C59.6768,1.3852 59.6248,1.4382 59.5598,1.4382" id="Fill-18" fill="#1D96DD"></path>
                    <path d="M57.4355,1.5246 C57.3635,1.5246 57.3055,1.4666 57.3055,1.3946 C57.3055,1.3226 57.3635,1.2646 57.4355,1.2646 C57.5075,1.2646 57.5655,1.3226 57.5655,1.3946 C57.5655,1.4666 57.5075,1.5246 57.4355,1.5246" id="Fill-20" fill="#1D96DD"></path>
                    <path d="M55.3108,1.6004 C55.2318,1.6004 55.1678,1.5364 55.1678,1.4574 C55.1678,1.3784 55.2318,1.3144 55.3108,1.3144 C55.3898,1.3144 55.4538,1.3784 55.4538,1.4574 C55.4538,1.5364 55.3898,1.6004 55.3108,1.6004" id="Fill-22" fill="#1D96DD"></path>
                    <path d="M53.1872,1.6676 C53.1012,1.6676 53.0312,1.5976 53.0312,1.5116 C53.0312,1.4256 53.1012,1.3556 53.1872,1.3556 C53.2732,1.3556 53.3432,1.4256 53.3432,1.5116 C53.3432,1.5976 53.2732,1.6676 53.1872,1.6676" id="Fill-24" fill="#1D96DD"></path>
                    <path d="M51.0618,1.7298 C50.9678,1.7298 50.8928,1.6538 50.8928,1.5608 C50.8928,1.4668 50.9678,1.3918 51.0618,1.3918 C51.1548,1.3918 51.2308,1.4668 51.2308,1.5608 C51.2308,1.6538 51.1548,1.7298 51.0618,1.7298" id="Fill-26" fill="#1D96DD"></path>
                    <path d="M48.9365,1.7917 C48.8355,1.7917 48.7545,1.7097 48.7545,1.6097 C48.7545,1.5087 48.8355,1.4267 48.9365,1.4267 C49.0375,1.4267 49.1185,1.5087 49.1185,1.6097 C49.1185,1.7097 49.0375,1.7917 48.9365,1.7917" id="Fill-28" fill="#1D96DD"></path>
                    <path d="M46.8137,1.8548 C46.7057,1.8548 46.6187,1.7678 46.6187,1.6598 C46.6187,1.5518 46.7057,1.4648 46.8137,1.4648 C46.9217,1.4648 47.0087,1.5518 47.0087,1.6598 C47.0087,1.7678 46.9217,1.8548 46.8137,1.8548" id="Fill-30" fill="#1D96DD"></path>
                    <path d="M44.6887,1.9261 C44.5737,1.9261 44.4807,1.8331 44.4807,1.7181 C44.4807,1.6031 44.5737,1.5101 44.6887,1.5101 C44.8037,1.5101 44.8967,1.6031 44.8967,1.7181 C44.8967,1.8331 44.8037,1.9261 44.6887,1.9261" id="Fill-32" fill="#1D96DD"></path>
                    <path d="M42.5639,2.013 C42.4419,2.013 42.3429,1.914 42.3429,1.792 C42.3429,1.67 42.4419,1.571 42.5639,1.571 C42.6859,1.571 42.7859,1.67 42.7859,1.792 C42.7859,1.914 42.6859,2.013 42.5639,2.013" id="Fill-34" fill="#1D96DD"></path>
                    <path d="M40.4411,2.123 C40.3121,2.123 40.2071,2.018 40.2071,1.889 C40.2071,1.759 40.3121,1.654 40.4411,1.654 C40.5701,1.654 40.6751,1.759 40.6751,1.889 C40.6751,2.018 40.5701,2.123 40.4411,2.123" id="Fill-36" fill="#1D96DD"></path>
                    <path d="M38.3188,2.2619 C38.1828,2.2619 38.0718,2.1509 38.0718,2.0149 C38.0718,1.8779 38.1828,1.7679 38.3188,1.7679 C38.4558,1.7679 38.5658,1.8779 38.5658,2.0149 C38.5658,2.1509 38.4558,2.2619 38.3188,2.2619" id="Fill-38" fill="#1D96DD"></path>
                    <path d="M36.1992,2.4312 C36.0552,2.4312 35.9392,2.3152 35.9392,2.1712 C35.9392,2.0272 36.0552,1.9112 36.1992,1.9112 C36.3432,1.9112 36.4592,2.0272 36.4592,2.1712 C36.4592,2.3152 36.3432,2.4312 36.1992,2.4312" id="Fill-40" fill="#1D96DD"></path>
                    <path d="M34.0835,2.6524 C33.9325,2.6524 33.8105,2.5304 33.8105,2.3794 C33.8105,2.2284 33.9325,2.1054 34.0835,2.1054 C34.2345,2.1054 34.3565,2.2284 34.3565,2.3794 C34.3565,2.5304 34.2345,2.6524 34.0835,2.6524" id="Fill-42" fill="#1D96DD"></path>
                    <path d="M31.977,2.9474 C31.819,2.9474 31.691,2.8194 31.691,2.6614 C31.691,2.5024 31.819,2.3744 31.977,2.3744 C32.135,2.3744 32.263,2.5024 32.263,2.6614 C32.263,2.8194 32.135,2.9474 31.977,2.9474" id="Fill-44" fill="#1D96DD"></path>
                    <path d="M29.8786,3.3024 C29.7136,3.3024 29.5796,3.1684 29.5796,3.0034 C29.5796,2.8374 29.7136,2.7034 29.8786,2.7034 C30.0436,2.7034 30.1776,2.8374 30.1776,3.0034 C30.1776,3.1684 30.0436,3.3024 29.8786,3.3024" id="Fill-46" fill="#1D96DD"></path>
                    <path d="M27.7917,3.7032 C27.6197,3.7032 27.4797,3.5632 27.4797,3.3912 C27.4797,3.2182 27.6197,3.0782 27.7917,3.0782 C27.9647,3.0782 28.1037,3.2182 28.1037,3.3912 C28.1037,3.5632 27.9647,3.7032 27.7917,3.7032" id="Fill-48" fill="#1D96DD"></path>
                    <path d="M25.7126,4.1577 C25.5326,4.1577 25.3876,4.0117 25.3876,3.8317 C25.3876,3.6527 25.5326,3.5067 25.7126,3.5067 C25.8926,3.5067 26.0386,3.6527 26.0386,3.8317 C26.0386,4.0117 25.8926,4.1577 25.7126,4.1577" id="Fill-50" fill="#1D96DD"></path>
                    <path d="M23.645,4.6644 C23.458,4.6644 23.307,4.5134 23.307,4.3264 C23.307,4.1394 23.458,3.9874 23.645,3.9874 C23.832,3.9874 23.983,4.1394 23.983,4.3264 C23.983,4.5134 23.832,4.6644 23.645,4.6644" id="Fill-52" fill="#1D96DD"></path>
                    <path d="M21.5867,5.2245 C21.3927,5.2245 21.2357,5.0665 21.2357,4.8725 C21.2357,4.6795 21.3927,4.5215 21.5867,4.5215 C21.7807,4.5215 21.9377,4.6795 21.9377,4.8725 C21.9377,5.0665 21.7807,5.2245 21.5867,5.2245" id="Fill-54" fill="#1D96DD"></path>
                    <path d="M19.5464,5.8354 C19.3454,5.8354 19.1824,5.6724 19.1824,5.4704 C19.1824,5.2694 19.3454,5.1064 19.5464,5.1064 C19.7474,5.1064 19.9114,5.2694 19.9114,5.4704 C19.9114,5.6724 19.7474,5.8354 19.5464,5.8354" id="Fill-56" fill="#1D96DD"></path>
                    <path d="M17.5232,6.5023 C17.3152,6.5023 17.1452,6.3333 17.1452,6.1253 C17.1452,5.9163 17.3152,5.7473 17.5232,5.7473 C17.7312,5.7473 17.9002,5.9163 17.9002,6.1253 C17.9002,6.3333 17.7312,6.5023 17.5232,6.5023" id="Fill-58" fill="#1D96DD"></path>
                    <path d="M15.5185,7.2236 C15.3025,7.2236 15.1275,7.0486 15.1275,6.8336 C15.1275,6.6176 15.3025,6.4426 15.5185,6.4426 C15.7345,6.4426 15.9085,6.6176 15.9085,6.8336 C15.9085,7.0486 15.7345,7.2236 15.5185,7.2236" id="Fill-60" fill="#1D96DD"></path>
                    <path d="M13.5356,8.0045 C13.3126,8.0045 13.1326,7.8235 13.1326,7.6005 C13.1326,7.3785 13.3126,7.1975 13.5356,7.1975 C13.7586,7.1975 13.9396,7.3785 13.9396,7.6005 C13.9396,7.8235 13.7586,8.0045 13.5356,8.0045" id="Fill-62" fill="#1D96DD"></path>
                    <path d="M11.5784,8.8483 C11.3484,8.8483 11.1614,8.6613 11.1614,8.4313 C11.1614,8.2023 11.3484,8.0153 11.5784,8.0153 C11.8084,8.0153 11.9944,8.2023 11.9944,8.4313 C11.9944,8.6613 11.8084,8.8483 11.5784,8.8483" id="Fill-64" fill="#1D96DD"></path>
                    <path d="M9.6518,9.7614 C9.4148,9.7614 9.2228,9.5694 9.2228,9.3324 C9.2228,9.0944 9.4148,8.9024 9.6518,8.9024 C9.8888,8.9024 10.0818,9.0944 10.0818,9.3324 C10.0818,9.5694 9.8888,9.7614 9.6518,9.7614" id="Fill-66" fill="#1D96DD"></path>
                    <path d="M7.7619,10.748 C7.5179,10.748 7.3189,10.55 7.3189,10.305 C7.3189,10.061 7.5179,9.863 7.7619,9.863 C8.0059,9.863 8.2039,10.061 8.2039,10.305 C8.2039,10.55 8.0059,10.748 7.7619,10.748" id="Fill-68" fill="#1D96DD"></path>
                    <path d="M5.9092,11.8109 C5.6572,11.8109 5.4532,11.6069 5.4532,11.3549 C5.4532,11.1039 5.6572,10.8999 5.9092,10.8999 C6.1602,10.8999 6.3642,11.1039 6.3642,11.3549 C6.3642,11.6069 6.1602,11.8109 5.9092,11.8109" id="Fill-70" fill="#1D96DD"></path>
                    <path d="M4.1001,12.9503 C3.8411,12.9503 3.6311,12.7403 3.6311,12.4823 C3.6311,12.2233 3.8411,12.0133 4.1001,12.0133 C4.3591,12.0133 4.5681,12.2233 4.5681,12.4823 C4.5681,12.7403 4.3591,12.9503 4.1001,12.9503" id="Fill-72" fill="#1D96DD"></path>
                    <path d="M2.9526,13.7435 C2.6866,13.7435 2.4716,13.5275 2.4716,13.2625 C2.4716,12.9955 2.6866,12.7805 2.9526,12.7805 C3.2186,12.7805 3.4346,12.9955 3.4346,13.2625 C3.4346,13.5275 3.2186,13.7435 2.9526,13.7435" id="Fill-74" fill="#1D96DD"></path>
                    <g id="Group-78" transform="translate(0.000000, 11.020400)">
                        <mask id="mask-12" fill="white">
                            <use xlink:href="#path-11"></use>
                        </mask>
                        <g id="Clip-77"></g>
                        <path d="M0.9184,0.9543 C-0.0796,1.6833 -0.2986,3.0833 0.4304,4.0813 C1.1594,5.0803 2.5594,5.2983 3.5574,4.5693 C4.5564,3.8403 4.7744,2.4403 4.0454,1.4423 C3.3164,0.4443 1.9164,0.2253 0.9184,0.9543" id="Fill-76" fill="#1D96DD" mask="url(#mask-12)"></path>
                    </g>
                </g>
                <g id="Page-1" transform="translate(76.451640, 39.894874) rotate(-72.000000) translate(-76.451640, -39.894874) translate(47.951640, 24.394874)">
                    <path d="M52.8829,27.0037 C52.8629,27.0037 52.8469,26.9877 52.8469,26.9687 C52.8469,26.9487 52.8629,26.9327 52.8829,26.9327 C52.9029,26.9327 52.9179,26.9487 52.9179,26.9687 C52.9179,26.9877 52.9029,27.0037 52.8829,27.0037" id="Fill-3" fill="#1D96DD"></path>
                    <path d="M51.6339,25.302 C51.6049,25.302 51.5809,25.278 51.5809,25.249 C51.5809,25.219 51.6049,25.196 51.6339,25.196 C51.6629,25.196 51.6869,25.219 51.6869,25.249 C51.6869,25.278 51.6629,25.302 51.6339,25.302" id="Fill-5" fill="#1D96DD"></path>
                    <path d="M50.3035,23.6619 C50.2645,23.6619 50.2325,23.6309 50.2325,23.5909 C50.2325,23.5519 50.2645,23.5199 50.3035,23.5199 C50.3425,23.5199 50.3745,23.5519 50.3745,23.5909 C50.3745,23.6309 50.3425,23.6619 50.3035,23.6619" id="Fill-7" fill="#1D96DD"></path>
                    <path d="M48.898,22.085 C48.849,22.085 48.81,22.045 48.81,21.997 C48.81,21.948 48.849,21.908 48.898,21.908 C48.947,21.908 48.987,21.948 48.987,21.997 C48.987,22.045 48.947,22.085 48.898,22.085" id="Fill-9" fill="#1D96DD"></path>
                    <path d="M47.4115,20.584 C47.3525,20.584 47.3045,20.536 47.3045,20.478 C47.3045,20.419 47.3525,20.372 47.4115,20.372 C47.4705,20.372 47.5175,20.419 47.5175,20.478 C47.5175,20.536 47.4705,20.584 47.4115,20.584" id="Fill-11" fill="#1D96DD"></path>
                    <path d="M45.8509,19.1582 C45.7829,19.1582 45.7269,19.1032 45.7269,19.0342 C45.7269,18.9662 45.7829,18.9102 45.8509,18.9102 C45.9199,18.9102 45.9749,18.9662 45.9749,19.0342 C45.9749,19.1032 45.9199,19.1582 45.8509,19.1582" id="Fill-13" fill="#1D96DD"></path>
                    <path d="M44.1986,17.8382 C44.1206,17.8382 44.0566,17.7752 44.0566,17.6962 C44.0566,17.6182 44.1206,17.5552 44.1986,17.5552 C44.2766,17.5552 44.3406,17.6182 44.3406,17.6962 C44.3406,17.7752 44.2766,17.8382 44.1986,17.8382" id="Fill-15" fill="#1D96DD"></path>
                    <path d="M42.4207,16.6912 C42.3327,16.6912 42.2617,16.6202 42.2617,16.5322 C42.2617,16.4442 42.3327,16.3722 42.4207,16.3722 C42.5087,16.3722 42.5807,16.4442 42.5807,16.5322 C42.5807,16.6202 42.5087,16.6912 42.4207,16.6912" id="Fill-17" fill="#1D96DD"></path>
                    <path d="M40.526,15.7498 C40.428,15.7498 40.349,15.6708 40.349,15.5728 C40.349,15.4748 40.428,15.3958 40.526,15.3958 C40.624,15.3958 40.703,15.4748 40.703,15.5728 C40.703,15.6708 40.624,15.7498 40.526,15.7498" id="Fill-19" fill="#1D96DD"></path>
                    <path d="M38.5343,15.0264 C38.4263,15.0264 38.3393,14.9394 38.3393,14.8314 C38.3393,14.7234 38.4263,14.6364 38.5343,14.6364 C38.6413,14.6364 38.7283,14.7234 38.7283,14.8314 C38.7283,14.9394 38.6413,15.0264 38.5343,15.0264" id="Fill-21" fill="#1D96DD"></path>
                    <path d="M36.4764,14.512 C36.3594,14.512 36.2644,14.417 36.2644,14.299 C36.2644,14.182 36.3594,14.087 36.4764,14.087 C36.5934,14.087 36.6884,14.182 36.6884,14.299 C36.6884,14.417 36.5934,14.512 36.4764,14.512" id="Fill-23" fill="#1D96DD"></path>
                    <path d="M34.3748,14.211 C34.2478,14.211 34.1448,14.108 34.1448,13.981 C34.1448,13.854 34.2478,13.751 34.3748,13.751 C34.5018,13.751 34.6048,13.854 34.6048,13.981 C34.6048,14.108 34.5018,14.211 34.3748,14.211" id="Fill-25" fill="#1D96DD"></path>
                    <path d="M32.2535,14.0916 C32.1165,14.0916 32.0055,13.9806 32.0055,13.8436 C32.0055,13.7066 32.1165,13.5956 32.2535,13.5956 C32.3905,13.5956 32.5015,13.7066 32.5015,13.8436 C32.5015,13.9806 32.3905,14.0916 32.2535,14.0916" id="Fill-27" fill="#1D96DD"></path>
                    <path d="M30.1275,14.1206 C29.9805,14.1206 29.8615,14.0016 29.8615,13.8546 C29.8615,13.7086 29.9805,13.5896 30.1275,13.5896 C30.2745,13.5896 30.3935,13.7086 30.3935,13.8546 C30.3935,14.0016 30.2745,14.1206 30.1275,14.1206" id="Fill-29" fill="#1D96DD"></path>
                    <path d="M28.0069,14.2434 C27.8499,14.2434 27.7239,14.1164 27.7239,13.9604 C27.7239,13.8034 27.8499,13.6764 28.0069,13.6764 C28.1629,13.6764 28.2899,13.8034 28.2899,13.9604 C28.2899,14.1164 28.1629,14.2434 28.0069,14.2434" id="Fill-31" fill="#1D96DD"></path>
                    <path d="M25.8866,14.4236 C25.7206,14.4236 25.5856,14.2886 25.5856,14.1226 C25.5856,13.9566 25.7206,13.8216 25.8866,13.8216 C26.0526,13.8216 26.1876,13.9566 26.1876,14.1226 C26.1876,14.2886 26.0526,14.4236 25.8866,14.4236" id="Fill-33" fill="#1D96DD"></path>
                    <path d="M23.7655,14.6316 C23.5895,14.6316 23.4465,14.4886 23.4465,14.3126 C23.4465,14.1366 23.5895,13.9946 23.7655,13.9946 C23.9415,13.9946 24.0845,14.1366 24.0845,14.3126 C24.0845,14.4886 23.9415,14.6316 23.7655,14.6316" id="Fill-35" fill="#1D96DD"></path>
                    <path d="M21.6483,14.844 C21.4623,14.844 21.3113,14.693 21.3113,14.508 C21.3113,14.322 21.4623,14.171 21.6483,14.171 C21.8343,14.171 21.9843,14.322 21.9843,14.508 C21.9843,14.693 21.8343,14.844 21.6483,14.844" id="Fill-37" fill="#1D96DD"></path>
                    <path d="M19.525,15.0405 C19.329,15.0405 19.171,14.8815 19.171,14.6865 C19.171,14.4905 19.329,14.3325 19.525,14.3325 C19.72,14.3325 19.879,14.4905 19.879,14.6865 C19.879,14.8815 19.72,15.0405 19.525,15.0405" id="Fill-39" fill="#1D96DD"></path>
                    <path d="M17.4024,15.2049 C17.1974,15.2049 17.0304,15.0379 17.0304,14.8329 C17.0304,14.6279 17.1974,14.4609 17.4024,14.4609 C17.6074,14.4609 17.7744,14.6279 17.7744,14.8329 C17.7744,15.0379 17.6074,15.2049 17.4024,15.2049" id="Fill-41" fill="#1D96DD"></path>
                    <path d="M15.2747,15.3303 C15.0597,15.3303 14.8847,15.1563 14.8847,14.9413 C14.8847,14.7253 15.0597,14.5513 15.2747,14.5513 C15.4897,14.5513 15.6637,14.7253 15.6637,14.9413 C15.6637,15.1563 15.4897,15.3303 15.2747,15.3303" id="Fill-43" fill="#1D96DD"></path>
                    <path d="M13.1468,15.4075 C12.9218,15.4075 12.7398,15.2255 12.7398,15.0005 C12.7398,14.7755 12.9218,14.5935 13.1468,14.5935 C13.3718,14.5935 13.5538,14.7755 13.5538,15.0005 C13.5538,15.2255 13.3718,15.4075 13.1468,15.4075" id="Fill-45" fill="#1D96DD"></path>
                    <path d="M11.0189,15.4275 C10.7839,15.4275 10.5939,15.2375 10.5939,15.0025 C10.5939,14.7685 10.7839,14.5775 11.0189,14.5775 C11.2539,14.5775 11.4439,14.7685 11.4439,15.0025 C11.4439,15.2375 11.2539,15.4275 11.0189,15.4275" id="Fill-47" fill="#1D96DD"></path>
                    <path d="M8.8927,15.3765 C8.6477,15.3765 8.4497,15.1785 8.4497,14.9335 C8.4497,14.6895 8.6477,14.4915 8.8927,14.4915 C9.1367,14.4915 9.3357,14.6895 9.3357,14.9335 C9.3357,15.1785 9.1367,15.3765 8.8927,15.3765" id="Fill-49" fill="#1D96DD"></path>
                    <path d="M6.7669,15.2591 C6.5129,15.2591 6.3069,15.0531 6.3069,14.7991 C6.3069,14.5451 6.5129,14.3381 6.7669,14.3381 C7.0209,14.3381 7.2269,14.5451 7.2269,14.7991 C7.2269,15.0531 7.0209,15.2591 6.7669,15.2591" id="Fill-51" fill="#1D96DD"></path>
                    <path d="M5.6117,15.1697 C5.3477,15.1697 5.1337,14.9557 5.1337,14.6917 C5.1337,14.4277 5.3477,14.2137 5.6117,14.2137 C5.8757,14.2137 6.0897,14.4277 6.0897,14.6917 C6.0897,14.9557 5.8757,15.1697 5.6117,15.1697" id="Fill-53" fill="#1D96DD"></path>
                    <path d="M5.0409,12.3609 C3.8159,12.1929 2.6879,13.0509 2.5199,14.2749 C2.3529,15.4999 3.2099,16.6289 4.4339,16.7959 C5.6589,16.9629 6.7879,16.1059 6.9549,14.8819 C7.1229,13.6569 6.2659,12.5279 5.0409,12.3609" id="Fill-55" fill="#1D96DD"></path>
                    <path d="M51.0672,27.2549 C51.0362,27.2549 51.0102,27.2299 51.0102,27.1979 C51.0102,27.1669 51.0362,27.1419 51.0672,27.1419 C51.0982,27.1419 51.1232,27.1669 51.1232,27.1979 C51.1232,27.2299 51.0982,27.2549 51.0672,27.2549" id="Fill-61" fill="#1D96DD"></path>
                    <path d="M49.1991,26.2595 C49.1571,26.2595 49.1231,26.2255 49.1231,26.1845 C49.1231,26.1425 49.1571,26.1085 49.1991,26.1085 C49.2411,26.1085 49.2741,26.1425 49.2741,26.1845 C49.2741,26.2255 49.2411,26.2595 49.1991,26.2595" id="Fill-63" fill="#1D96DD"></path>
                    <path d="M47.2994,25.3347 C47.2474,25.3347 47.2054,25.2927 47.2054,25.2407 C47.2054,25.1887 47.2474,25.1457 47.2994,25.1457 C47.3514,25.1457 47.3934,25.1887 47.3934,25.2407 C47.3934,25.2927 47.3514,25.3347 47.2994,25.3347" id="Fill-65" fill="#1D96DD"></path>
                    <path d="M45.3726,24.4561 C45.3106,24.4561 45.2596,24.4051 45.2596,24.3431 C45.2596,24.2801 45.3106,24.2301 45.3726,24.2301 C45.4346,24.2301 45.4856,24.2801 45.4856,24.3431 C45.4856,24.4051 45.4346,24.4561 45.3726,24.4561" id="Fill-67" fill="#1D96DD"></path>
                    <path d="M43.4329,23.6077 C43.3599,23.6077 43.3009,23.5487 43.3009,23.4757 C43.3009,23.4027 43.3599,23.3437 43.4329,23.3437 C43.5059,23.3437 43.5649,23.4027 43.5649,23.4757 C43.5649,23.5487 43.5059,23.6077 43.4329,23.6077" id="Fill-69" fill="#1D96DD"></path>
                    <path d="M41.4893,22.7705 C41.4063,22.7705 41.3383,22.7035 41.3383,22.6195 C41.3383,22.5365 41.4063,22.4685 41.4893,22.4685 C41.5723,22.4685 41.6403,22.5365 41.6403,22.6195 C41.6403,22.7035 41.5723,22.7705 41.4893,22.7705" id="Fill-71" fill="#1D96DD"></path>
                    <path d="M39.5474,21.927 C39.4534,21.927 39.3774,21.851 39.3774,21.757 C39.3774,21.663 39.4534,21.587 39.5474,21.587 C39.6414,21.587 39.7174,21.663 39.7174,21.757 C39.7174,21.851 39.6414,21.927 39.5474,21.927" id="Fill-73" fill="#1D96DD"></path>
                    <path d="M37.6053,21.0813 C37.5013,21.0813 37.4163,20.9963 37.4163,20.8923 C37.4163,20.7883 37.5013,20.7043 37.6053,20.7043 C37.7093,20.7043 37.7933,20.7883 37.7933,20.8923 C37.7933,20.9963 37.7093,21.0813 37.6053,21.0813" id="Fill-75" fill="#1D96DD"></path>
                    <path d="M35.6595,20.2459 C35.5445,20.2459 35.4515,20.1529 35.4515,20.0379 C35.4515,19.9239 35.5445,19.8309 35.6595,19.8309 C35.7745,19.8309 35.8665,19.9239 35.8665,20.0379 C35.8665,20.1529 35.7745,20.2459 35.6595,20.2459" id="Fill-77" fill="#1D96DD"></path>
                    <path d="M33.7017,19.4361 C33.5767,19.4361 33.4757,19.3351 33.4757,19.2101 C33.4757,19.0851 33.5767,18.9831 33.7017,18.9831 C33.8267,18.9831 33.9277,19.0851 33.9277,19.2101 C33.9277,19.3351 33.8267,19.4361 33.7017,19.4361" id="Fill-79" fill="#1D96DD"></path>
                    <path d="M31.7323,18.6541 C31.5973,18.6541 31.4873,18.5441 31.4873,18.4091 C31.4873,18.2731 31.5973,18.1641 31.7323,18.1641 C31.8673,18.1641 31.9773,18.2731 31.9773,18.4091 C31.9773,18.5441 31.8673,18.6541 31.7323,18.6541" id="Fill-81" fill="#1D96DD"></path>
                    <path d="M29.7523,17.905 C29.6063,17.905 29.4883,17.787 29.4883,17.641 C29.4883,17.495 29.6063,17.377 29.7523,17.377 C29.8983,17.377 30.0163,17.495 30.0163,17.641 C30.0163,17.787 29.8983,17.905 29.7523,17.905" id="Fill-83" fill="#1D96DD"></path>
                    <path d="M27.7564,17.1941 C27.6004,17.1941 27.4734,17.0671 27.4734,16.9111 C27.4734,16.7551 27.6004,16.6281 27.7564,16.6281 C27.9124,16.6281 28.0394,16.7551 28.0394,16.9111 C28.0394,17.0671 27.9124,17.1941 27.7564,17.1941" id="Fill-85" fill="#1D96DD"></path>
                    <path d="M25.745,16.5244 C25.578,16.5244 25.443,16.3894 25.443,16.2224 C25.443,16.0554 25.578,15.9204 25.745,15.9204 C25.912,15.9204 26.047,16.0554 26.047,16.2224 C26.047,16.3894 25.912,16.5244 25.745,16.5244" id="Fill-87" fill="#1D96DD"></path>
                    <path d="M23.7142,15.8997 C23.5372,15.8997 23.3932,15.7557 23.3932,15.5787 C23.3932,15.4017 23.5372,15.2587 23.7142,15.2587 C23.8912,15.2587 24.0352,15.4017 24.0352,15.5787 C24.0352,15.7557 23.8912,15.8997 23.7142,15.8997" id="Fill-89" fill="#1D96DD"></path>
                    <path d="M21.6746,15.3181 C21.4876,15.3181 21.3356,15.1661 21.3356,14.9781 C21.3356,14.7911 21.4876,14.6391 21.6746,14.6391 C21.8616,14.6391 22.0146,14.7911 22.0146,14.9781 C22.0146,15.1661 21.8616,15.3181 21.6746,15.3181" id="Fill-91" fill="#1D96DD"></path>
                    <path d="M19.6251,14.7717 C19.4271,14.7717 19.2671,14.6107 19.2671,14.4137 C19.2671,14.2157 19.4271,14.0547 19.6251,14.0547 C19.8231,14.0547 19.9831,14.2157 19.9831,14.4137 C19.9831,14.6107 19.8231,14.7717 19.6251,14.7717" id="Fill-93" fill="#1D96DD"></path>
                    <path d="M17.5655,14.263 C17.3575,14.263 17.1885,14.094 17.1885,13.886 C17.1885,13.677 17.3575,13.509 17.5655,13.509 C17.7735,13.509 17.9425,13.677 17.9425,13.886 C17.9425,14.094 17.7735,14.263 17.5655,14.263" id="Fill-95" fill="#1D96DD"></path>
                    <path d="M15.4959,13.7908 C15.2769,13.7908 15.0999,13.6138 15.0999,13.3948 C15.0999,13.1758 15.2769,12.9988 15.4959,12.9988 C15.7149,12.9988 15.8919,13.1758 15.8919,13.3948 C15.8919,13.6138 15.7149,13.7908 15.4959,13.7908" id="Fill-97" fill="#1D96DD"></path>
                    <path d="M13.4195,13.3521 C13.1905,13.3521 13.0045,13.1661 13.0045,12.9371 C13.0045,12.7081 13.1905,12.5221 13.4195,12.5221 C13.6485,12.5221 13.8345,12.7081 13.8345,12.9371 C13.8345,13.1661 13.6485,13.3521 13.4195,13.3521" id="Fill-99" fill="#1D96DD"></path>
                    <path d="M11.3343,12.9444 C11.0943,12.9444 10.9003,12.7504 10.9003,12.5104 C10.9003,12.2704 11.0943,12.0764 11.3343,12.0764 C11.5743,12.0764 11.7683,12.2704 11.7683,12.5104 C11.7683,12.7504 11.5743,12.9444 11.3343,12.9444" id="Fill-101" fill="#1D96DD"></path>
                    <path d="M9.2435,12.564 C8.9935,12.564 8.7905,12.361 8.7905,12.111 C8.7905,11.861 8.9935,11.659 9.2435,11.659 C9.4935,11.659 9.6965,11.861 9.6965,12.111 C9.6965,12.361 9.4935,12.564 9.2435,12.564" id="Fill-103" fill="#1D96DD"></path>
                    <path d="M7.4906,12.2669 C7.2306,12.2669 7.0186,12.0559 7.0186,11.7959 C7.0186,11.5349 7.2306,11.3239 7.4906,11.3239 C7.7506,11.3239 7.9626,11.5349 7.9626,11.7959 C7.9626,12.0559 7.7506,12.2669 7.4906,12.2669" id="Fill-105" fill="#1D96DD"></path>
                    <path d="M7.0225,9.4307 C5.8065,9.2087 4.6405,10.0137 4.4185,11.2297 C4.1965,12.4457 5.0015,13.6117 6.2175,13.8337 C7.4335,14.0567 8.5995,13.2507 8.8215,12.0347 C9.0435,10.8187 8.2385,9.6527 7.0225,9.4307" id="Fill-107" fill="#1D96DD"></path>
                    <path d="M51.6148,26.3572 C51.5878,26.3572 51.5658,26.3352 51.5658,26.3072 C51.5658,26.2802 51.5878,26.2582 51.6148,26.2582 C51.6428,26.2582 51.6648,26.2802 51.6648,26.3072 C51.6648,26.3352 51.6428,26.3572 51.6148,26.3572" id="Fill-113" fill="#1D96DD"></path>
                    <path d="M49.9845,25.0113 C49.9475,25.0113 49.9185,24.9813 49.9185,24.9453 C49.9185,24.9083 49.9475,24.8793 49.9845,24.8793 C50.0215,24.8793 50.0505,24.9083 50.0505,24.9453 C50.0505,24.9813 50.0215,25.0113 49.9845,25.0113" id="Fill-115" fill="#1D96DD"></path>
                    <path d="M48.3177,23.7083 C48.2717,23.7083 48.2347,23.6713 48.2347,23.6253 C48.2347,23.5803 48.2717,23.5423 48.3177,23.5423 C48.3637,23.5423 48.4007,23.5803 48.4007,23.6253 C48.4007,23.6713 48.3637,23.7083 48.3177,23.7083" id="Fill-117" fill="#1D96DD"></path>
                    <path d="M46.6182,22.448 C46.5632,22.448 46.5192,22.403 46.5192,22.349 C46.5192,22.294 46.5632,22.249 46.6182,22.249 C46.6732,22.249 46.7172,22.294 46.7172,22.349 C46.7172,22.403 46.6732,22.448 46.6182,22.448" id="Fill-119" fill="#1D96DD"></path>
                    <path d="M44.889,21.2276 C44.825,21.2276 44.773,21.1756 44.773,21.1116 C44.773,21.0476 44.825,20.9956 44.889,20.9956 C44.953,20.9956 45.005,21.0476 45.005,21.1116 C45.005,21.1756 44.953,21.2276 44.889,21.2276" id="Fill-121" fill="#1D96DD"></path>
                    <path d="M43.1322,20.0476 C43.0592,20.0476 43.0002,19.9886 43.0002,19.9156 C43.0002,19.8426 43.0592,19.7826 43.1322,19.7826 C43.2052,19.7826 43.2642,19.8426 43.2642,19.9156 C43.2642,19.9886 43.2052,20.0476 43.1322,20.0476" id="Fill-123" fill="#1D96DD"></path>
                    <path d="M41.3541,18.9004 C41.2721,18.9004 41.2051,18.8334 41.2051,18.7514 C41.2051,18.6694 41.2721,18.6024 41.3541,18.6024 C41.4361,18.6024 41.5031,18.6694 41.5031,18.7514 C41.5031,18.8334 41.4361,18.9004 41.3541,18.9004" id="Fill-125" fill="#1D96DD"></path>
                    <path d="M39.5592,17.78 C39.4672,17.78 39.3932,17.706 39.3932,17.615 C39.3932,17.523 39.4672,17.449 39.5592,17.449 C39.6502,17.449 39.7252,17.523 39.7252,17.615 C39.7252,17.706 39.6502,17.78 39.5592,17.78" id="Fill-127" fill="#1D96DD"></path>
                    <path d="M37.7489,16.6834 C37.6479,16.6834 37.5669,16.6014 37.5669,16.5014 C37.5669,16.4004 37.6479,16.3194 37.7489,16.3194 C37.8489,16.3194 37.9309,16.4004 37.9309,16.5014 C37.9309,16.6014 37.8489,16.6834 37.7489,16.6834" id="Fill-129" fill="#1D96DD"></path>
                    <path d="M35.9195,15.6165 C35.8095,15.6165 35.7205,15.5275 35.7205,15.4175 C35.7205,15.3085 35.8095,15.2195 35.9195,15.2195 C36.0295,15.2195 36.1185,15.3085 36.1185,15.4175 C36.1185,15.5275 36.0295,15.6165 35.9195,15.6165" id="Fill-131" fill="#1D96DD"></path>
                    <path d="M34.0706,14.5845 C33.9516,14.5845 33.8556,14.4885 33.8556,14.3695 C33.8556,14.2505 33.9516,14.1545 34.0706,14.1545 C34.1896,14.1545 34.2856,14.2505 34.2856,14.3695 C34.2856,14.4885 34.1896,14.5845 34.0706,14.5845" id="Fill-133" fill="#1D96DD"></path>
                    <path d="M32.2052,13.5882 C32.0772,13.5882 31.9732,13.4842 31.9732,13.3562 C31.9732,13.2282 32.0772,13.1252 32.2052,13.1252 C32.3332,13.1252 32.4372,13.2282 32.4372,13.3562 C32.4372,13.4842 32.3332,13.5882 32.2052,13.5882" id="Fill-135" fill="#1D96DD"></path>
                    <path d="M30.3162,12.6372 C30.1792,12.6372 30.0682,12.5262 30.0682,12.3892 C30.0682,12.2522 30.1792,12.1402 30.3162,12.1402 C30.4532,12.1402 30.5642,12.2522 30.5642,12.3892 C30.5642,12.5262 30.4532,12.6372 30.3162,12.6372" id="Fill-137" fill="#1D96DD"></path>
                    <path d="M28.4034,11.7315 C28.2574,11.7315 28.1384,11.6135 28.1384,11.4665 C28.1384,11.3205 28.2574,11.2015 28.4034,11.2015 C28.5494,11.2015 28.6684,11.3205 28.6684,11.4665 C28.6684,11.6135 28.5494,11.7315 28.4034,11.7315" id="Fill-139" fill="#1D96DD"></path>
                    <path d="M26.4659,10.8736 C26.3109,10.8736 26.1849,10.7476 26.1849,10.5926 C26.1849,10.4366 26.3109,10.3106 26.4659,10.3106 C26.6219,10.3106 26.7469,10.4366 26.7469,10.5926 C26.7469,10.7476 26.6219,10.8736 26.4659,10.8736" id="Fill-141" fill="#1D96DD"></path>
                    <path d="M24.503,10.0701 C24.339,10.0701 24.205,9.9371 24.205,9.7721 C24.205,9.6081 24.339,9.4741 24.503,9.4741 C24.668,9.4741 24.801,9.6081 24.801,9.7721 C24.801,9.9371 24.668,10.0701 24.503,10.0701" id="Fill-143" fill="#1D96DD"></path>
                    <path d="M22.5199,9.3108 C22.3459,9.3108 22.2049,9.1698 22.2049,8.9968 C22.2049,8.8228 22.3459,8.6818 22.5199,8.6818 C22.6929,8.6818 22.8339,8.8228 22.8339,8.9968 C22.8339,9.1698 22.6929,9.3108 22.5199,9.3108" id="Fill-145" fill="#1D96DD"></path>
                    <path d="M20.5216,8.6011 C20.3386,8.6011 20.1906,8.4531 20.1906,8.2701 C20.1906,8.0871 20.3386,7.9391 20.5216,7.9391 C20.7046,7.9391 20.8526,8.0871 20.8526,8.2701 C20.8526,8.4531 20.7046,8.6011 20.5216,8.6011" id="Fill-147" fill="#1D96DD"></path>
                    <path d="M18.5072,7.9375 C18.3152,7.9375 18.1592,7.7815 18.1592,7.5905 C18.1592,7.3975 18.3152,7.2425 18.5072,7.2425 C18.6992,7.2425 18.8552,7.3975 18.8552,7.5905 C18.8552,7.7815 18.6992,7.9375 18.5072,7.9375" id="Fill-149" fill="#1D96DD"></path>
                    <path d="M16.4759,7.3133 C16.2749,7.3133 16.1119,7.1503 16.1119,6.9493 C16.1119,6.7483 16.2749,6.5853 16.4759,6.5853 C16.6769,6.5853 16.8399,6.7483 16.8399,6.9493 C16.8399,7.1503 16.6769,7.3133 16.4759,7.3133" id="Fill-151" fill="#1D96DD"></path>
                    <path d="M14.4366,6.7278 C14.2266,6.7278 14.0556,6.5578 14.0556,6.3468 C14.0556,6.1368 14.2266,5.9668 14.4366,5.9668 C14.6466,5.9668 14.8176,6.1368 14.8176,6.3468 C14.8176,6.5578 14.6466,6.7278 14.4366,6.7278" id="Fill-153" fill="#1D96DD"></path>
                    <path d="M12.3873,6.178 C12.1683,6.178 11.9903,6 11.9903,5.781 C11.9903,5.561 12.1683,5.384 12.3873,5.384 C12.6063,5.384 12.7843,5.561 12.7843,5.781 C12.7843,6 12.6063,6.178 12.3873,6.178" id="Fill-155" fill="#1D96DD"></path>
                    <path d="M10.3287,5.6624 C10.0997,5.6624 9.9147,5.4774 9.9147,5.2484 C9.9147,5.0204 10.0997,4.8344 10.3287,4.8344 C10.5577,4.8344 10.7427,5.0204 10.7427,5.2484 C10.7427,5.4774 10.5577,5.6624 10.3287,5.6624" id="Fill-157" fill="#1D96DD"></path>
                    <path d="M8.2611,5.1756 C8.0231,5.1756 7.8311,4.9826 7.8311,4.7456 C7.8311,4.5076 8.0231,4.3146 8.2611,4.3146 C8.4991,4.3146 8.6911,4.5076 8.6911,4.7456 C8.6911,4.9826 8.4991,5.1756 8.2611,5.1756" id="Fill-159" fill="#1D96DD"></path>
                    <path d="M6.1939,4.6941 C5.9469,4.6941 5.7469,4.4941 5.7469,4.2471 C5.7469,4.0001 5.9469,3.8001 6.1939,3.8001 C6.4409,3.8001 6.6409,4.0001 6.6409,4.2471 C6.6409,4.4941 6.4409,4.6941 6.1939,4.6941" id="Fill-161" fill="#1D96DD"></path>
                    <path d="M4.1295,4.1973 C3.8735,4.1973 3.6665,3.9893 3.6665,3.7333 C3.6665,3.4783 3.8735,3.2703 4.1295,3.2703 C4.3855,3.2703 4.5925,3.4783 4.5925,3.7333 C4.5925,3.9893 4.3855,4.1973 4.1295,4.1973" id="Fill-163" fill="#1D96DD"></path>
                    <g id="Group-167" transform="translate(0.000000, 0.602800)">
                        <mask id="mask-14" fill="white">
                            <use xlink:href="#path-13"></use>
                        </mask>
                        <g id="Clip-166"></g>
                        <path d="M2.8123,0.4724 C1.6183,0.1554 0.3923,0.8674 0.0753,2.0624 C-0.2417,3.2564 0.4703,4.4824 1.6653,4.7994 C2.8593,5.1164 4.0853,4.4044 4.4023,3.2094 C4.7183,2.0144 4.0073,0.7894 2.8123,0.4724" id="Fill-165" fill="#1D96DD" mask="url(#mask-14)"></path>
                    </g>
                </g>
            </g>
        </g>
    </g>
</svg>