<?xml version="1.0" encoding="UTF-8" standalone="no"?>
<svg width="75px" height="122px" viewBox="0 0 75 122" version="1.1" xmlns="http://www.w3.org/2000/svg" xmlns:xlink="http://www.w3.org/1999/xlink">
    <!-- Generator: Sketch 39.1 (31720) - http://www.bohemiancoding.com/sketch -->
    <title>Dots_5</title>
    <desc>Created with Sketch.</desc>
    <defs>
        <polygon id="path-1" points="0.558385146 5 5.03559831 5 5.03559831 0.522685146 0.558385146 0.522685146 0.558385146 5"></polygon>
        <polygon id="path-3" points="0.0015 1 1.0015 1 1.0015 0.0544 0.0015 0.0544"></polygon>
        <polygon id="path-5" points="0.0899 1 1.0899 1 1.0899 0.3126 0.0899 0.3126"></polygon>
        <polygon id="path-7" points="0.1835 1 1.1835 1 1.1835 0.517 0.1835 0.517 0.1835 1"></polygon>
        <polygon id="path-9" points="0.2836 1 1.2836 1 1.2836 0.6662 0.2836 0.6662"></polygon>
        <polygon id="path-11" points="0.3882 1 1.3882 1 1.3882 0.7403 0.3882 0.7403 0.3882 1"></polygon>
        <polygon id="path-13" points="0.4951 1 1.4951 1 1.4951 0.734 0.4951 0.734 0.4951 1"></polygon>
        <polygon id="path-15" points="0.6002 1 1.6002 1 1.6002 0.635 0.6002 0.635"></polygon>
        <polygon id="path-17" points="0.6991 1 1.6991 1 1.6991 0.4351 0.6991 0.4351 0.6991 1"></polygon>
        <polygon id="path-19" points="0.7856 1 1.7856 1 1.7856 0.1305 0.7856 0.1305 0.7856 1"></polygon>
    </defs>
    <g id="Main-Page" stroke="none" stroke-width="1" fill="none" fill-rule="evenodd">
        <g id="Mobile-Portrait" transform="translate(-33.000000, -1641.000000)">
            <g id="Dots_5" transform="translate(30.000000, 1634.000000)">
                <g id="Page-1" transform="translate(33.000000, 42.500000) rotate(-19.000000) translate(-33.000000, -42.500000) translate(23.000000, 1.000000)">
                    <path d="M14.2237,5.6367 C14.1977,5.6367 14.1767,5.6157 14.1767,5.5897 C14.1767,5.5637 14.1977,5.5427 14.2237,5.5427 C14.2497,5.5427 14.2707,5.5637 14.2707,5.5897 C14.2707,5.6157 14.2497,5.6367 14.2237,5.6367" id="Fill-7" fill="#1D96DD"></path>
                    <path d="M12.9383,7.3415 C12.9063,7.3415 12.8793,7.3155 12.8793,7.2825 C12.8793,7.2505 12.9063,7.2245 12.9383,7.2245 C12.9703,7.2245 12.9973,7.2505 12.9973,7.2825 C12.9973,7.3155 12.9703,7.3415 12.9383,7.3415" id="Fill-9" fill="#1D96DD"></path>
                    <path d="M11.7217,9.0966 C11.6827,9.0966 11.6517,9.0646 11.6517,9.0256 C11.6517,8.9876 11.6827,8.9556 11.7217,8.9556 C11.7607,8.9556 11.7927,8.9876 11.7927,9.0256 C11.7927,9.0646 11.7607,9.0966 11.7217,9.0966" id="Fill-11" fill="#1D96DD"></path>
                    <path d="M10.5857,10.9011 C10.5407,10.9011 10.5037,10.8641 10.5037,10.8191 C10.5037,10.7741 10.5407,10.7371 10.5857,10.7371 C10.6307,10.7371 10.6677,10.7741 10.6677,10.8191 C10.6677,10.8641 10.6307,10.9011 10.5857,10.9011" id="Fill-13" fill="#1D96DD"></path>
                    <path d="M9.513,12.7483 C9.461,12.7483 9.419,12.7063 9.419,12.6543 C9.419,12.6023 9.461,12.5603 9.513,12.5603 C9.565,12.5603 9.607,12.6023 9.607,12.6543 C9.607,12.7063 9.565,12.7483 9.513,12.7483" id="Fill-15" fill="#1D96DD"></path>
                    <path d="M8.4783,14.6172 C8.4203,14.6172 8.3723,14.5702 8.3723,14.5112 C8.3723,14.4532 8.4203,14.4062 8.4783,14.4062 C8.5363,14.4062 8.5833,14.4532 8.5833,14.5112 C8.5833,14.5702 8.5363,14.6172 8.4783,14.6172" id="Fill-17" fill="#1D96DD"></path>
                    <path d="M7.472,16.5014 C7.407,16.5014 7.355,16.4484 7.355,16.3844 C7.355,16.3194 7.407,16.2664 7.472,16.2664 C7.537,16.2664 7.589,16.3194 7.589,16.3844 C7.589,16.4484 7.537,16.5014 7.472,16.5014" id="Fill-19" fill="#1D96DD"></path>
                    <path d="M6.4969,18.4023 C6.4259,18.4023 6.3679,18.3443 6.3679,18.2733 C6.3679,18.2023 6.4259,18.1443 6.4969,18.1443 C6.5679,18.1443 6.6259,18.2023 6.6259,18.2733 C6.6259,18.3443 6.5679,18.4023 6.4969,18.4023" id="Fill-21" fill="#1D96DD"></path>
                    <path d="M5.5635,20.3239 C5.4855,20.3239 5.4225,20.2609 5.4225,20.1829 C5.4225,20.1049 5.4855,20.0419 5.5635,20.0419 C5.6415,20.0419 5.7045,20.1049 5.7045,20.1829 C5.7045,20.2609 5.6415,20.3239 5.5635,20.3239" id="Fill-23" fill="#1D96DD"></path>
                    <path d="M4.6761,22.2653 C4.5921,22.2653 4.5231,22.1973 4.5231,22.1123 C4.5231,22.0283 4.5921,21.9603 4.6761,21.9603 C4.7601,21.9603 4.8281,22.0283 4.8281,22.1123 C4.8281,22.1973 4.7601,22.2653 4.6761,22.2653" id="Fill-25" fill="#1D96DD"></path>
                    <path d="M3.8443,24.2297 C3.7533,24.2297 3.6803,24.1557 3.6803,24.0657 C3.6803,23.9747 3.7533,23.9007 3.8443,23.9007 C3.9353,23.9007 4.0083,23.9747 4.0083,24.0657 C4.0083,24.1557 3.9353,24.2297 3.8443,24.2297" id="Fill-27" fill="#1D96DD"></path>
                    <path d="M3.0762,26.2207 C2.9792,26.2207 2.9002,26.1417 2.9002,26.0447 C2.9002,25.9477 2.9792,25.8687 3.0762,25.8687 C3.1732,25.8687 3.2522,25.9477 3.2522,26.0447 C3.2522,26.1417 3.1732,26.2207 3.0762,26.2207" id="Fill-29" fill="#1D96DD"></path>
                    <path d="M2.3767,28.2426 C2.2727,28.2426 2.1887,28.1586 2.1887,28.0546 C2.1887,27.9506 2.2727,27.8666 2.3767,27.8666 C2.4807,27.8666 2.5647,27.9506 2.5647,28.0546 C2.5647,28.1586 2.4807,28.2426 2.3767,28.2426" id="Fill-31" fill="#1D96DD"></path>
                    <path d="M1.7627,30.2907 C1.6527,30.2907 1.5637,30.2017 1.5637,30.0907 C1.5637,29.9807 1.6527,29.8917 1.7627,29.8917 C1.8727,29.8917 1.9627,29.9807 1.9627,30.0907 C1.9627,30.2017 1.8727,30.2907 1.7627,30.2907" id="Fill-33" fill="#1D96DD"></path>
                    <path d="M1.2405,32.3681 C1.1235,32.3681 1.0295,32.2731 1.0295,32.1571 C1.0295,32.0401 1.1235,31.9451 1.2405,31.9451 C1.3575,31.9451 1.4515,32.0401 1.4515,32.1571 C1.4515,32.2731 1.3575,32.3681 1.2405,32.3681" id="Fill-35" fill="#1D96DD"></path>
                    <path d="M0.8201,34.4646 C0.6971,34.4646 0.5971,34.3646 0.5971,34.2416 C0.5971,34.1186 0.6971,34.0186 0.8201,34.0186 C0.9431,34.0186 1.0431,34.1186 1.0431,34.2416 C1.0431,34.3646 0.9431,34.4646 0.8201,34.4646" id="Fill-37" fill="#1D96DD"></path>
                    <path d="M0.511,36.5798 C0.381,36.5798 0.276,36.4748 0.276,36.3448 C0.276,36.2148 0.381,36.1108 0.511,36.1108 C0.641,36.1108 0.746,36.2148 0.746,36.3448 C0.746,36.4748 0.641,36.5798 0.511,36.5798" id="Fill-39" fill="#1D96DD"></path>
                    <path d="M0.3211,38.709 C0.1851,38.709 0.0741,38.599 0.0741,38.462 C0.0741,38.326 0.1851,38.216 0.3211,38.216 C0.4571,38.216 0.5681,38.326 0.5681,38.462 C0.5681,38.599 0.4571,38.709 0.3211,38.709" id="Fill-41" fill="#1D96DD"></path>
                    <path d="M0.2583,40.8457 C0.1153,40.8457 0.0003,40.7297 0.0003,40.5877 C0.0003,40.4447 0.1153,40.3287 0.2583,40.3287 C0.4013,40.3287 0.5163,40.4447 0.5163,40.5877 C0.5163,40.7297 0.4013,40.8457 0.2583,40.8457" id="Fill-43" fill="#1D96DD"></path>
                    <path d="M0.333,42.9819 C0.184,42.9819 0.063,42.8609 0.063,42.7119 C0.063,42.5629 0.184,42.4419 0.333,42.4419 C0.482,42.4419 0.603,42.5629 0.603,42.7119 C0.603,42.8609 0.482,42.9819 0.333,42.9819" id="Fill-45" fill="#1D96DD"></path>
                    <path d="M0.5474,45.1086 C0.3924,45.1086 0.2654,44.9826 0.2654,44.8276 C0.2654,44.6716 0.3924,44.5456 0.5474,44.5456 C0.7034,44.5456 0.8294,44.6716 0.8294,44.8276 C0.8294,44.9826 0.7034,45.1086 0.5474,45.1086" id="Fill-47" fill="#1D96DD"></path>
                    <path d="M0.8994,47.2173 C0.7374,47.2173 0.6064,47.0853 0.6064,46.9233 C0.6064,46.7613 0.7374,46.6303 0.8994,46.6303 C1.0614,46.6303 1.1934,46.7613 1.1934,46.9233 C1.1934,47.0853 1.0614,47.2173 0.8994,47.2173" id="Fill-49" fill="#1D96DD"></path>
                    <path d="M1.2642,49.3254 C1.0952,49.3254 0.9592,49.1894 0.9592,49.0204 C0.9592,48.8514 1.0952,48.7154 1.2642,48.7154 C1.4332,48.7154 1.5692,48.8514 1.5692,49.0204 C1.5692,49.1894 1.4332,49.3254 1.2642,49.3254" id="Fill-51" fill="#1D96DD"></path>
                    <path d="M1.5767,51.4409 C1.4017,51.4409 1.2597,51.2989 1.2597,51.1239 C1.2597,50.9489 1.4017,50.8069 1.5767,50.8069 C1.7517,50.8069 1.8937,50.9489 1.8937,51.1239 C1.8937,51.2989 1.7517,51.4409 1.5767,51.4409" id="Fill-53" fill="#1D96DD"></path>
                    <path d="M1.8223,53.5644 C1.6403,53.5644 1.4933,53.4174 1.4933,53.2354 C1.4933,53.0544 1.6403,52.9074 1.8223,52.9074 C2.0033,52.9074 2.1513,53.0544 2.1513,53.2354 C2.1513,53.4174 2.0033,53.5644 1.8223,53.5644" id="Fill-55" fill="#1D96DD"></path>
                    <path d="M2.0703,55.6872 C1.8823,55.6872 1.7303,55.5342 1.7303,55.3462 C1.7303,55.1592 1.8823,55.0062 2.0703,55.0062 C2.2583,55.0062 2.4113,55.1592 2.4113,55.3462 C2.4113,55.5342 2.2583,55.6872 2.0703,55.6872" id="Fill-57" fill="#1D96DD"></path>
                    <path d="M2.398,57.7988 C2.204,57.7988 2.046,57.6408 2.046,57.4468 C2.046,57.2528 2.204,57.0948 2.398,57.0948 C2.593,57.0948 2.75,57.2528 2.75,57.4468 C2.75,57.6408 2.593,57.7988 2.398,57.7988" id="Fill-59" fill="#1D96DD"></path>
                    <path d="M2.8123,59.8955 C2.6113,59.8955 2.4483,59.7325 2.4483,59.5315 C2.4483,59.3305 2.6113,59.1675 2.8123,59.1675 C3.0133,59.1675 3.1763,59.3305 3.1763,59.5315 C3.1763,59.7325 3.0133,59.8955 2.8123,59.8955" id="Fill-61" fill="#1D96DD"></path>
                    <path d="M3.2935,61.9731 C3.0855,61.9731 2.9175,61.8051 2.9175,61.5971 C2.9175,61.3901 3.0855,61.2221 3.2935,61.2221 C3.5015,61.2221 3.6695,61.3901 3.6695,61.5971 C3.6695,61.8051 3.5015,61.9731 3.2935,61.9731" id="Fill-63" fill="#1D96DD"></path>
                    <path d="M3.8294,64.0407 C3.6154,64.0407 3.4414,63.8677 3.4414,63.6537 C3.4414,63.4397 3.6154,63.2657 3.8294,63.2657 C4.0434,63.2657 4.2164,63.4397 4.2164,63.6537 C4.2164,63.8677 4.0434,64.0407 3.8294,64.0407" id="Fill-65" fill="#1D96DD"></path>
                    <path d="M4.4121,66.0974 C4.1921,66.0974 4.0131,65.9184 4.0131,65.6984 C4.0131,65.4774 4.1921,65.2994 4.4121,65.2994 C4.6331,65.2994 4.8111,65.4774 4.8111,65.6984 C4.8111,65.9184 4.6331,66.0974 4.4121,66.0974" id="Fill-67" fill="#1D96DD"></path>
                    <path d="M5.0371,68.143 C4.8101,68.143 4.6261,67.959 4.6261,67.732 C4.6261,67.505 4.8101,67.321 5.0371,67.321 C5.2641,67.321 5.4481,67.505 5.4481,67.732 C5.4481,67.959 5.2641,68.143 5.0371,68.143" id="Fill-69" fill="#1D96DD"></path>
                    <path d="M5.6861,70.1841 C5.4531,70.1841 5.2631,69.9951 5.2631,69.7611 C5.2631,69.5281 5.4531,69.3391 5.6861,69.3391 C5.9191,69.3391 6.1091,69.5281 6.1091,69.7611 C6.1091,69.9951 5.9191,70.1841 5.6861,70.1841" id="Fill-71" fill="#1D96DD"></path>
                    <path d="M6.3103,72.228 C6.0703,72.228 5.8763,72.034 5.8763,71.794 C5.8763,71.554 6.0703,71.359 6.3103,71.359 C6.5503,71.359 6.7443,71.554 6.7443,71.794 C6.7443,72.034 6.5503,72.228 6.3103,72.228" id="Fill-73" fill="#1D96DD"></path>
                    <path d="M6.9241,74.2751 C6.6781,74.2751 6.4781,74.0751 6.4781,73.8291 C6.4781,73.5831 6.6781,73.3831 6.9241,73.3831 C7.1701,73.3831 7.3701,73.5831 7.3701,73.8291 C7.3701,74.0751 7.1701,74.2751 6.9241,74.2751" id="Fill-75" fill="#1D96DD"></path>
                    <path d="M7.5286,76.3252 C7.2756,76.3252 7.0706,76.1202 7.0706,75.8672 C7.0706,75.6152 7.2756,75.4092 7.5286,75.4092 C7.7816,75.4092 7.9866,75.6152 7.9866,75.8672 C7.9866,76.1202 7.7816,76.3252 7.5286,76.3252" id="Fill-77" fill="#1D96DD"></path>
                    <path d="M8.1079,78.383 C7.8489,78.383 7.6379,78.173 7.6379,77.914 C7.6379,77.654 7.8489,77.444 8.1079,77.444 C8.3669,77.444 8.5779,77.654 8.5779,77.914 C8.5779,78.173 8.3669,78.383 8.1079,78.383" id="Fill-79" fill="#1D96DD"></path>
                    <path d="M8.5608,80.0322 C8.2948,80.0322 8.0798,79.8172 8.0798,79.5512 C8.0798,79.2852 8.2948,79.0702 8.5608,79.0702 C8.8268,79.0702 9.0418,79.2852 9.0418,79.5512 C9.0418,79.8172 8.8268,80.0322 8.5608,80.0322" id="Fill-81" fill="#1D96DD"></path>
                    <g id="Group-85" transform="translate(6.000000, 77.641800)">
                        <mask id="mask-2" fill="white">
                            <use xlink:href="#path-1"></use>
                        </mask>
                        <g id="Clip-84"></g>
                        <path d="M0.6392,3.3555 C0.9672,4.5465 2.1992,5.2475 3.3912,4.9195 C4.5822,4.5915 5.2822,3.3585 4.9552,2.1675 C4.6262,0.9755 3.3942,0.2755 2.2032,0.6035 C1.0112,0.9315 0.3112,2.1635 0.6392,3.3555" id="Fill-83" fill="#1D96DD" mask="url(#mask-2)"></path>
                    </g>
                </g>
                <g id="Page-1" transform="translate(39.548282, 80.957231) rotate(-108.000000) translate(-39.548282, -80.957231) translate(-9.951718, 55.457231)" fill="#1D96DD">
                    <path d="M90.9237,0.0747 C90.9027,0.0747 90.8867,0.0577 90.8867,0.0377 C90.8867,0.0167 90.9027,-0.0003 90.9237,-0.0003 C90.9447,-0.0003 90.9607,0.0167 90.9607,0.0377 C90.9607,0.0577 90.9447,0.0747 90.9237,0.0747" id="Fill-7"></path>
                    <path d="M88.7987,0.0984 C88.7727,0.0984 88.7517,0.0774 88.7517,0.0514 C88.7517,0.0254 88.7727,0.0054 88.7987,0.0054 C88.8247,0.0054 88.8457,0.0254 88.8457,0.0514 C88.8457,0.0774 88.8247,0.0984 88.7987,0.0984" id="Fill-9"></path>
                    <path d="M86.6764,0.2263 C86.6454,0.2263 86.6204,0.2013 86.6204,0.1703 C86.6204,0.1393 86.6454,0.1143 86.6764,0.1143 C86.7074,0.1143 86.7324,0.1393 86.7324,0.1703 C86.7324,0.2013 86.7074,0.2263 86.6764,0.2263" id="Fill-11"></path>
                    <path d="M84.5644,0.469 C84.5284,0.469 84.4984,0.44 84.4984,0.403 C84.4984,0.367 84.5284,0.338 84.5644,0.338 C84.6004,0.338 84.6294,0.367 84.6294,0.403 C84.6294,0.44 84.6004,0.469 84.5644,0.469" id="Fill-13"></path>
                    <path d="M82.4718,0.8501 C82.4308,0.8501 82.3968,0.8161 82.3968,0.7751 C82.3968,0.7341 82.4308,0.7011 82.4718,0.7011 C82.5128,0.7011 82.5468,0.7341 82.5468,0.7751 C82.5468,0.8161 82.5128,0.8501 82.4718,0.8501" id="Fill-15"></path>
                    <path d="M80.4171,1.385 C80.3711,1.385 80.3331,1.347 80.3331,1.301 C80.3331,1.254 80.3711,1.217 80.4171,1.217 C80.4631,1.217 80.5011,1.254 80.5011,1.301 C80.5011,1.347 80.4631,1.385 80.4171,1.385" id="Fill-17"></path>
                    <path d="M78.4054,2.0796 C78.3544,2.0796 78.3124,2.0376 78.3124,1.9866 C78.3124,1.9346 78.3544,1.8926 78.4054,1.8926 C78.4574,1.8926 78.4984,1.9346 78.4984,1.9866 C78.4984,2.0376 78.4574,2.0796 78.4054,2.0796" id="Fill-19"></path>
                    <path d="M76.4552,2.9336 C76.3982,2.9336 76.3522,2.8876 76.3522,2.8306 C76.3522,2.7736 76.3982,2.7276 76.4552,2.7276 C76.5122,2.7276 76.5582,2.7736 76.5582,2.8306 C76.5582,2.8876 76.5122,2.9336 76.4552,2.9336" id="Fill-21"></path>
                    <path d="M74.5746,3.934 C74.5126,3.934 74.4626,3.884 74.4626,3.822 C74.4626,3.76 74.5126,3.71 74.5746,3.71 C74.6366,3.71 74.6866,3.76 74.6866,3.822 C74.6866,3.884 74.6366,3.934 74.5746,3.934" id="Fill-23"></path>
                    <path d="M72.7587,5.0488 C72.6917,5.0488 72.6367,4.9948 72.6367,4.9268 C72.6367,4.8598 72.6917,4.8058 72.7587,4.8058 C72.8257,4.8058 72.8797,4.8598 72.8797,4.9268 C72.8797,4.9948 72.8257,5.0488 72.7587,5.0488" id="Fill-25"></path>
                    <path d="M70.956,6.186 C70.884,6.186 70.825,6.127 70.825,6.055 C70.825,5.983 70.884,5.924 70.956,5.924 C71.028,5.924 71.087,5.983 71.087,6.055 C71.087,6.127 71.028,6.186 70.956,6.186" id="Fill-27"></path>
                    <path d="M69.1662,7.3466 C69.0892,7.3466 69.0262,7.2836 69.0262,7.2066 C69.0262,7.1286 69.0892,7.0666 69.1662,7.0666 C69.2432,7.0666 69.3062,7.1286 69.3062,7.2066 C69.3062,7.2836 69.2432,7.3466 69.1662,7.3466" id="Fill-29"></path>
                    <path d="M67.411,8.5556 C67.328,8.5556 67.261,8.4886 67.261,8.4066 C67.261,8.3236 67.328,8.2566 67.411,8.2566 C67.494,8.2566 67.56,8.3236 67.56,8.4066 C67.56,8.4886 67.494,8.5556 67.411,8.5556" id="Fill-31"></path>
                    <path d="M65.6364,9.7343 C65.5484,9.7343 65.4774,9.6633 65.4774,9.5753 C65.4774,9.4873 65.5484,9.4163 65.6364,9.4163 C65.7244,9.4163 65.7954,9.4873 65.7954,9.5753 C65.7954,9.6633 65.7244,9.7343 65.6364,9.7343" id="Fill-33"></path>
                    <path d="M63.8317,10.8647 C63.7387,10.8647 63.6637,10.7897 63.6637,10.6967 C63.6637,10.6037 63.7387,10.5287 63.8317,10.5287 C63.9247,10.5287 63.9997,10.6037 63.9997,10.6967 C63.9997,10.7897 63.9247,10.8647 63.8317,10.8647" id="Fill-35"></path>
                    <path d="M61.996,11.9424 C61.898,11.9424 61.818,11.8624 61.818,11.7644 C61.818,11.6664 61.898,11.5874 61.996,11.5874 C62.094,11.5874 62.174,11.6664 62.174,11.7644 C62.174,11.8624 62.094,11.9424 61.996,11.9424" id="Fill-37"></path>
                    <path d="M60.1293,12.9646 C60.0263,12.9646 59.9423,12.8806 59.9423,12.7776 C59.9423,12.6746 60.0263,12.5906 60.1293,12.5906 C60.2323,12.5906 60.3163,12.6746 60.3163,12.7776 C60.3163,12.8806 60.2323,12.9646 60.1293,12.9646" id="Fill-39"></path>
                    <path d="M58.2345,13.9362 C58.1265,13.9362 58.0385,13.8482 58.0385,13.7402 C58.0385,13.6312 58.1265,13.5442 58.2345,13.5442 C58.3425,13.5442 58.4305,13.6312 58.4305,13.7402 C58.4305,13.8482 58.3425,13.9362 58.2345,13.9362" id="Fill-41"></path>
                    <path d="M56.3192,14.8642 C56.2062,14.8642 56.1142,14.7722 56.1142,14.6582 C56.1142,14.5452 56.2062,14.4532 56.3192,14.4532 C56.4332,14.4532 56.5252,14.5452 56.5252,14.6582 C56.5252,14.7722 56.4332,14.8642 56.3192,14.8642" id="Fill-43"></path>
                    <path d="M54.3942,15.7758 C54.2752,15.7758 54.1792,15.6798 54.1792,15.5608 C54.1792,15.4418 54.2752,15.3458 54.3942,15.3458 C54.5132,15.3458 54.6092,15.4418 54.6092,15.5608 C54.6092,15.6798 54.5132,15.7758 54.3942,15.7758" id="Fill-45"></path>
                    <path d="M52.4701,16.6875 C52.3461,16.6875 52.2461,16.5875 52.2461,16.4635 C52.2461,16.3395 52.3461,16.2385 52.4701,16.2385 C52.5941,16.2385 52.6941,16.3395 52.6941,16.4635 C52.6941,16.5875 52.5941,16.6875 52.4701,16.6875" id="Fill-47"></path>
                    <path d="M50.5524,17.6045 C50.4234,17.6045 50.3184,17.4995 50.3184,17.3705 C50.3184,17.2415 50.4234,17.1375 50.5524,17.1375 C50.6814,17.1375 50.7864,17.2415 50.7864,17.3705 C50.7864,17.4995 50.6814,17.6045 50.5524,17.6045" id="Fill-49"></path>
                    <path d="M48.6347,18.5312 C48.5007,18.5312 48.3917,18.4222 48.3917,18.2882 C48.3917,18.1542 48.5007,18.0452 48.6347,18.0452 C48.7687,18.0452 48.8777,18.1542 48.8777,18.2882 C48.8777,18.4222 48.7687,18.5312 48.6347,18.5312" id="Fill-51"></path>
                    <path d="M46.7233,19.4633 C46.5843,19.4633 46.4713,19.3503 46.4713,19.2113 C46.4713,19.0713 46.5843,18.9583 46.7233,18.9583 C46.8623,18.9583 46.9753,19.0713 46.9753,19.2113 C46.9753,19.3503 46.8623,19.4633 46.7233,19.4633" id="Fill-53"></path>
                    <path d="M44.8114,20.4023 C44.6664,20.4023 44.5494,20.2853 44.5494,20.1403 C44.5494,19.9963 44.6664,19.8793 44.8114,19.8793 C44.9564,19.8793 45.0734,19.9963 45.0734,20.1403 C45.0734,20.2853 44.9564,20.4023 44.8114,20.4023" id="Fill-55"></path>
                    <path d="M42.9086,21.3576 C42.7586,21.3576 42.6376,21.2366 42.6376,21.0866 C42.6376,20.9366 42.7586,20.8156 42.9086,20.8156 C43.0586,20.8156 43.1796,20.9366 43.1796,21.0866 C43.1796,21.2366 43.0586,21.3576 42.9086,21.3576" id="Fill-57"></path>
                    <path d="M41.0138,22.331 C40.8588,22.331 40.7328,22.205 40.7328,22.05 C40.7328,21.896 40.8588,21.77 41.0138,21.77 C41.1688,21.77 41.2938,21.896 41.2938,22.05 C41.2938,22.205 41.1688,22.331 41.0138,22.331" id="Fill-59"></path>
                    <path d="M39.1288,23.3237 C38.9688,23.3237 38.8388,23.1937 38.8388,23.0337 C38.8388,22.8737 38.9688,22.7447 39.1288,22.7447 C39.2888,22.7447 39.4188,22.8737 39.4188,23.0337 C39.4188,23.1937 39.2888,23.3237 39.1288,23.3237" id="Fill-61"></path>
                    <path d="M37.2545,24.3364 C37.0895,24.3364 36.9555,24.2024 36.9555,24.0374 C36.9555,23.8724 37.0895,23.7384 37.2545,23.7384 C37.4195,23.7384 37.5535,23.8724 37.5535,24.0374 C37.5535,24.2024 37.4195,24.3364 37.2545,24.3364" id="Fill-63"></path>
                    <path d="M35.3905,25.3686 C35.2205,25.3686 35.0825,25.2306 35.0825,25.0606 C35.0825,24.8896 35.2205,24.7516 35.3905,24.7516 C35.5605,24.7516 35.6985,24.8896 35.6985,25.0606 C35.6985,25.2306 35.5605,25.3686 35.3905,25.3686" id="Fill-65"></path>
                    <path d="M33.5355,26.417 C33.3595,26.417 33.2175,26.275 33.2175,26.099 C33.2175,25.924 33.3595,25.781 33.5355,25.781 C33.7115,25.781 33.8535,25.924 33.8535,26.099 C33.8535,26.275 33.7115,26.417 33.5355,26.417" id="Fill-67"></path>
                    <path d="M31.6928,27.487 C31.5118,27.487 31.3658,27.341 31.3658,27.16 C31.3658,26.979 31.5118,26.833 31.6928,26.833 C31.8738,26.833 32.0198,26.979 32.0198,27.16 C32.0198,27.341 31.8738,27.487 31.6928,27.487" id="Fill-69"></path>
                    <path d="M29.8629,28.5793 C29.6769,28.5793 29.5269,28.4283 29.5269,28.2433 C29.5269,28.0573 29.6769,27.9063 29.8629,27.9063 C30.0489,27.9063 30.1999,28.0573 30.1999,28.2433 C30.1999,28.4283 30.0489,28.5793 29.8629,28.5793" id="Fill-71"></path>
                    <path d="M28.0456,29.6926 C27.8546,29.6926 27.6996,29.5376 27.6996,29.3466 C27.6996,29.1556 27.8546,29.0006 28.0456,29.0006 C28.2366,29.0006 28.3916,29.1556 28.3916,29.3466 C28.3916,29.5376 28.2366,29.6926 28.0456,29.6926" id="Fill-73"></path>
                    <path d="M26.2418,30.8286 C26.0458,30.8286 25.8868,30.6696 25.8868,30.4736 C25.8868,30.2776 26.0458,30.1186 26.2418,30.1186 C26.4378,30.1186 26.5968,30.2776 26.5968,30.4736 C26.5968,30.6696 26.4378,30.8286 26.2418,30.8286" id="Fill-75"></path>
                    <path d="M24.455,31.9904 C24.254,31.9904 24.091,31.8274 24.091,31.6254 C24.091,31.4244 24.254,31.2614 24.455,31.2614 C24.656,31.2614 24.82,31.4244 24.82,31.6254 C24.82,31.8274 24.656,31.9904 24.455,31.9904" id="Fill-77"></path>
                    <path d="M22.683,33.1767 C22.477,33.1767 22.309,33.0097 22.309,32.8027 C22.309,32.5967 22.477,32.4297 22.683,32.4297 C22.89,32.4297 23.057,32.5967 23.057,32.8027 C23.057,33.0097 22.89,33.1767 22.683,33.1767" id="Fill-79"></path>
                    <path d="M20.9259,34.3842 C20.7139,34.3842 20.5429,34.2122 20.5429,34.0012 C20.5429,33.7892 20.7139,33.6182 20.9259,33.6182 C21.1379,33.6182 21.3089,33.7892 21.3089,34.0012 C21.3089,34.2122 21.1379,34.3842 20.9259,34.3842" id="Fill-81"></path>
                    <path d="M19.1823,35.6101 C18.9653,35.6101 18.7893,35.4341 18.7893,35.2171 C18.7893,35.0011 18.9653,34.8251 19.1823,34.8251 C19.3993,34.8251 19.5753,35.0011 19.5753,35.2171 C19.5753,35.4341 19.3993,35.6101 19.1823,35.6101" id="Fill-83"></path>
                    <path d="M17.4511,36.8545 C17.2291,36.8545 17.0491,36.6745 17.0491,36.4525 C17.0491,36.2305 17.2291,36.0505 17.4511,36.0505 C17.6731,36.0505 17.8531,36.2305 17.8531,36.4525 C17.8531,36.6745 17.6731,36.8545 17.4511,36.8545" id="Fill-85"></path>
                    <path d="M15.7328,38.1159 C15.5058,38.1159 15.3218,37.9319 15.3218,37.7049 C15.3218,37.4779 15.5058,37.2939 15.7328,37.2939 C15.9598,37.2939 16.1438,37.4779 16.1438,37.7049 C16.1438,37.9319 15.9598,38.1159 15.7328,38.1159" id="Fill-87"></path>
                    <path d="M14.0231,39.3903 C13.7911,39.3903 13.6021,39.2023 13.6021,38.9693 C13.6021,38.7373 13.7911,38.5493 14.0231,38.5493 C14.2551,38.5493 14.4441,38.7373 14.4441,38.9693 C14.4441,39.2023 14.2551,39.3903 14.0231,39.3903" id="Fill-89"></path>
                    <path d="M12.3229,40.677 C12.0859,40.677 11.8929,40.484 11.8929,40.247 C11.8929,40.009 12.0859,39.817 12.3229,39.817 C12.5599,39.817 12.7529,40.009 12.7529,40.247 C12.7529,40.484 12.5599,40.677 12.3229,40.677" id="Fill-91"></path>
                    <path d="M10.6303,41.9758 C10.3873,41.9758 10.1913,41.7788 10.1913,41.5368 C10.1913,41.2938 10.3873,41.0968 10.6303,41.0968 C10.8723,41.0968 11.0693,41.2938 11.0693,41.5368 C11.0693,41.7788 10.8723,41.9758 10.6303,41.9758" id="Fill-93"></path>
                    <path d="M8.9464,43.2837 C8.6984,43.2837 8.4974,43.0827 8.4974,42.8347 C8.4974,42.5867 8.6984,42.3867 8.9464,42.3867 C9.1944,42.3867 9.3954,42.5867 9.3954,42.8347 C9.3954,43.0827 9.1944,43.2837 8.9464,43.2837" id="Fill-95"></path>
                    <path d="M7.2694,44.6006 C7.0164,44.6006 6.8114,44.3956 6.8114,44.1426 C6.8114,43.8896 7.0164,43.6846 7.2694,43.6846 C7.5224,43.6846 7.7274,43.8896 7.7274,44.1426 C7.7274,44.3956 7.5224,44.6006 7.2694,44.6006" id="Fill-97"></path>
                    <path d="M5.5983,45.9277 C5.3403,45.9277 5.1313,45.7187 5.1313,45.4607 C5.1313,45.2027 5.3403,44.9927 5.5983,44.9927 C5.8563,44.9927 6.0653,45.2027 6.0653,45.4607 C6.0653,45.7187 5.8563,45.9277 5.5983,45.9277" id="Fill-99"></path>
                    <path d="M3.9381,47.2666 C3.6751,47.2666 3.4611,47.0536 3.4611,46.7896 C3.4611,46.5266 3.6751,46.3136 3.9381,46.3136 C4.2011,46.3136 4.4151,46.5266 4.4151,46.7896 C4.4151,47.0536 4.2011,47.2666 3.9381,47.2666" id="Fill-101"></path>
                    <path d="M2.9159,48.1103 C2.6469,48.1103 2.4299,47.8933 2.4299,47.6243 C2.4299,47.3563 2.6469,47.1383 2.9159,47.1383 C3.1839,47.1383 3.4019,47.3563 3.4019,47.6243 C3.4019,47.8933 3.1839,48.1103 2.9159,48.1103" id="Fill-103"></path>
                    <path d="M0.7624,46.509 C-0.1666,47.324 -0.2596,48.738 0.5554,49.667 C1.3704,50.596 2.7844,50.689 3.7134,49.874 C4.6434,49.059 4.7354,47.645 3.9204,46.716 C3.1054,45.787 1.6914,45.694 0.7624,46.509" id="Fill-105"></path>
                </g>
                <g id="Page-1" transform="translate(48.217579, 101.203144) rotate(-112.000000) translate(-48.217579, -101.203144) translate(16.717579, 93.203144)" fill="#1D96DD">
                    <path d="M61.8938,0.3884 C61.8848,0.3884 61.8778,0.3814 61.8778,0.3724 C61.8778,0.3634 61.8848,0.3564 61.8938,0.3564 C61.9028,0.3564 61.9098,0.3634 61.9098,0.3724 C61.9098,0.3814 61.9028,0.3884 61.8938,0.3884" id="Fill-1"></path>
                    <path d="M59.8022,0.7756 C59.7842,0.7756 59.7702,0.7616 59.7702,0.7436 C59.7702,0.7266 59.7842,0.7116 59.8022,0.7116 C59.8202,0.7116 59.8342,0.7266 59.8342,0.7436 C59.8342,0.7616 59.8202,0.7756 59.8022,0.7756" id="Fill-3"></path>
                    <path d="M57.7074,1.1445 C57.6814,1.1445 57.6594,1.1235 57.6594,1.0965 C57.6594,1.0705 57.6814,1.0495 57.7074,1.0495 C57.7334,1.0495 57.7554,1.0705 57.7554,1.0965 C57.7554,1.1235 57.7334,1.1445 57.7074,1.1445" id="Fill-5"></path>
                    <path d="M55.6064,1.4839 C55.5714,1.4839 55.5424,1.4559 55.5424,1.4199 C55.5424,1.3849 55.5714,1.3569 55.6064,1.3569 C55.6414,1.3569 55.6704,1.3849 55.6704,1.4199 C55.6704,1.4559 55.6414,1.4839 55.6064,1.4839" id="Fill-7"></path>
                    <path d="M53.5011,1.793 C53.4571,1.793 53.4211,1.757 53.4211,1.713 C53.4211,1.669 53.4571,1.634 53.5011,1.634 C53.5451,1.634 53.5811,1.669 53.5811,1.713 C53.5811,1.757 53.5451,1.793 53.5011,1.793" id="Fill-9"></path>
                    <path d="M51.3931,2.0757 C51.3401,2.0757 51.2981,2.0327 51.2981,1.9797 C51.2981,1.9277 51.3401,1.8847 51.3931,1.8847 C51.4461,1.8847 51.4881,1.9277 51.4881,1.9797 C51.4881,2.0327 51.4461,2.0757 51.3931,2.0757" id="Fill-11"></path>
                    <path d="M49.2822,2.3357 C49.2212,2.3357 49.1712,2.2857 49.1712,2.2247 C49.1712,2.1627 49.2212,2.1127 49.2822,2.1127 C49.3442,2.1127 49.3942,2.1627 49.3942,2.2247 C49.3942,2.2857 49.3442,2.3357 49.2822,2.3357" id="Fill-13"></path>
                    <path d="M47.168,2.572 C47.098,2.572 47.04,2.515 47.04,2.445 C47.04,2.374 47.098,2.317 47.168,2.317 C47.238,2.317 47.295,2.374 47.295,2.445 C47.295,2.515 47.238,2.572 47.168,2.572" id="Fill-15"></path>
                    <path d="M45.0513,2.7817 C44.9723,2.7817 44.9083,2.7177 44.9083,2.6387 C44.9083,2.5597 44.9723,2.4947 45.0513,2.4947 C45.1303,2.4947 45.1943,2.5597 45.1943,2.6387 C45.1943,2.7177 45.1303,2.7817 45.0513,2.7817" id="Fill-17"></path>
                    <path d="M42.933,2.9746 C42.845,2.9746 42.774,2.9036 42.774,2.8156 C42.774,2.7276 42.845,2.6566 42.933,2.6566 C43.021,2.6566 43.092,2.7276 43.092,2.8156 C43.092,2.9036 43.021,2.9746 42.933,2.9746" id="Fill-19"></path>
                    <path d="M40.8149,3.1521 C40.7179,3.1521 40.6399,3.0731 40.6399,2.9771 C40.6399,2.8801 40.7179,2.8021 40.8149,2.8021 C40.9119,2.8021 40.9899,2.8801 40.9899,2.9771 C40.9899,3.0731 40.9119,3.1521 40.8149,3.1521" id="Fill-21"></path>
                    <path d="M38.6953,3.3203 C38.5903,3.3203 38.5043,3.2353 38.5043,3.1293 C38.5043,3.0233 38.5903,2.9383 38.6953,2.9383 C38.8003,2.9383 38.8863,3.0233 38.8863,3.1293 C38.8863,3.2353 38.8003,3.3203 38.6953,3.3203" id="Fill-23"></path>
                    <path d="M36.5741,3.4849 C36.4601,3.4849 36.3671,3.3919 36.3671,3.2779 C36.3671,3.1639 36.4601,3.0709 36.5741,3.0709 C36.6891,3.0709 36.7811,3.1639 36.7811,3.2779 C36.7811,3.3919 36.6891,3.4849 36.5741,3.4849" id="Fill-25"></path>
                    <path d="M34.4503,3.6514 C34.3273,3.6514 34.2273,3.5514 34.2273,3.4284 C34.2273,3.3054 34.3273,3.2054 34.4503,3.2054 C34.5733,3.2054 34.6733,3.3054 34.6733,3.4284 C34.6733,3.5514 34.5733,3.6514 34.4503,3.6514" id="Fill-27"></path>
                    <path d="M32.3255,3.8252 C32.1935,3.8252 32.0865,3.7182 32.0865,3.5872 C32.0865,3.4552 32.1935,3.3482 32.3255,3.3482 C32.4575,3.3482 32.5645,3.4552 32.5645,3.5872 C32.5645,3.7182 32.4575,3.8252 32.3255,3.8252" id="Fill-29"></path>
                    <path d="M30.2063,4.0151 C30.0653,4.0151 29.9513,3.9011 29.9513,3.7601 C29.9513,3.6201 30.0653,3.5061 30.2063,3.5061 C30.3473,3.5061 30.4613,3.6201 30.4613,3.7601 C30.4613,3.9011 30.3473,4.0151 30.2063,4.0151" id="Fill-31"></path>
                    <path d="M28.0882,4.2244 C27.9392,4.2244 27.8172,4.1034 27.8172,3.9534 C27.8172,3.8044 27.9392,3.6834 28.0882,3.6834 C28.2372,3.6834 28.3582,3.8044 28.3582,3.9534 C28.3582,4.1034 28.2372,4.2244 28.0882,4.2244" id="Fill-33"></path>
                    <path d="M25.9729,4.4619 C25.8149,4.4619 25.6869,4.3339 25.6869,4.1759 C25.6869,4.0169 25.8149,3.8889 25.9729,3.8889 C26.1309,3.8889 26.2599,4.0169 26.2599,4.1759 C26.2599,4.3339 26.1309,4.4619 25.9729,4.4619" id="Fill-35"></path>
                    <path d="M23.8633,4.7392 C23.6963,4.7392 23.5613,4.6042 23.5613,4.4372 C23.5613,4.2702 23.6963,4.1342 23.8633,4.1342 C24.0303,4.1342 24.1653,4.2702 24.1653,4.4372 C24.1653,4.6042 24.0303,4.7392 23.8633,4.7392" id="Fill-37"></path>
                    <path d="M21.7605,5.083 C21.5845,5.083 21.4425,4.94 21.4425,4.765 C21.4425,4.589 21.5845,4.446 21.7605,4.446 C21.9365,4.446 22.0785,4.589 22.0785,4.765 C22.0785,4.94 21.9365,5.083 21.7605,5.083" id="Fill-39"></path>
                    <path d="M19.6734,5.508 C19.4884,5.508 19.3394,5.358 19.3394,5.174 C19.3394,4.989 19.4884,4.84 19.6734,4.84 C19.8584,4.84 20.0074,4.989 20.0074,5.174 C20.0074,5.358 19.8584,5.508 19.6734,5.508" id="Fill-41"></path>
                    <path d="M17.6069,6.029 C17.4139,6.029 17.2569,5.872 17.2569,5.679 C17.2569,5.486 17.4139,5.329 17.6069,5.329 C17.7999,5.329 17.9569,5.486 17.9569,5.679 C17.9569,5.872 17.7999,6.029 17.6069,6.029" id="Fill-43"></path>
                    <path d="M15.5728,6.6648 C15.3708,6.6648 15.2068,6.5008 15.2068,6.2988 C15.2068,6.0968 15.3708,5.9328 15.5728,5.9328 C15.7748,5.9328 15.9388,6.0968 15.9388,6.2988 C15.9388,6.5008 15.7748,6.6648 15.5728,6.6648" id="Fill-45"></path>
                    <path d="M13.597,7.4614 C13.386,7.4614 13.215,7.2904 13.215,7.0794 C13.215,6.8684 13.386,6.6974 13.597,6.6974 C13.808,6.6974 13.979,6.8684 13.979,7.0794 C13.979,7.2904 13.808,7.4614 13.597,7.4614" id="Fill-47"></path>
                    <path d="M11.6877,8.4136 C11.4677,8.4136 11.2897,8.2356 11.2897,8.0156 C11.2897,7.7956 11.4677,7.6176 11.6877,7.6176 C11.9077,7.6176 12.0857,7.7956 12.0857,8.0156 C12.0857,8.2356 11.9077,8.4136 11.6877,8.4136" id="Fill-49"></path>
                    <path d="M9.8284,9.4612 C9.5994,9.4612 9.4144,9.2762 9.4144,9.0472 C9.4144,8.8192 9.5994,8.6332 9.8284,8.6332 C10.0574,8.6332 10.2424,8.8192 10.2424,9.0472 C10.2424,9.2762 10.0574,9.4612 9.8284,9.4612" id="Fill-51"></path>
                    <path d="M7.9935,10.5559 C7.7565,10.5559 7.5635,10.3639 7.5635,10.1259 C7.5635,9.8889 7.7565,9.6969 7.9935,9.6969 C8.2305,9.6969 8.4235,9.8889 8.4235,10.1259 C8.4235,10.3639 8.2305,10.5559 7.9935,10.5559" id="Fill-53"></path>
                    <path d="M6.1599,11.6487 C5.9139,11.6487 5.7139,11.4487 5.7139,11.2027 C5.7139,10.9567 5.9139,10.7577 6.1599,10.7577 C6.4059,10.7577 6.6059,10.9567 6.6059,11.2027 C6.6059,11.4487 6.4059,11.6487 6.1599,11.6487" id="Fill-55"></path>
                    <path d="M4.3111,12.7158 C4.0561,12.7158 3.8491,12.5088 3.8491,12.2538 C3.8491,11.9998 4.0561,11.7928 4.3111,11.7928 C4.5661,11.7928 4.7731,11.9998 4.7731,12.2538 C4.7731,12.5088 4.5661,12.7158 4.3111,12.7158" id="Fill-57"></path>
                    <path d="M3.0181,13.4455 C2.7541,13.4455 2.5401,13.2315 2.5401,12.9685 C2.5401,12.7045 2.7541,12.4905 3.0181,12.4905 C3.2821,12.4905 3.4961,12.7045 3.4961,12.9685 C3.4961,13.2315 3.2821,13.4455 3.0181,13.4455" id="Fill-59"></path>
                    <path d="M1.1882,11.4104 C0.0972,11.9904 -0.3178,13.3454 0.2622,14.4374 C0.8422,15.5284 2.1972,15.9434 3.2882,15.3634 C4.3802,14.7834 4.7952,13.4284 4.2152,12.3364 C3.6352,11.2454 2.2802,10.8304 1.1882,11.4104" id="Fill-61"></path>
                </g>
                <g id="Page-1" transform="translate(32.409822, 66.260986) rotate(48.000000) translate(-32.409822, -66.260986) translate(3.409822, 48.760986)">
                    <path d="M15.9849,25.8076 C15.9539,25.8076 15.9299,25.7826 15.9299,25.7526 C15.9299,25.7226 15.9539,25.6976 15.9849,25.6976 C16.0159,25.6976 16.0399,25.7226 16.0399,25.7526 C16.0399,25.7826 16.0159,25.8076 15.9849,25.8076" id="Fill-1" fill="#1D96DD"></path>
                    <path d="M18.0286,26.4404 C17.9676,26.4404 17.9186,26.3914 17.9186,26.3304 C17.9186,26.2694 17.9676,26.2194 18.0286,26.2194 C18.0896,26.2194 18.1386,26.2694 18.1386,26.3304 C18.1386,26.3914 18.0896,26.4404 18.0286,26.4404" id="Fill-3" fill="#1D96DD"></path>
                    <path d="M20.0799,27.0539 C19.9879,27.0539 19.9149,26.9799 19.9149,26.8889 C19.9149,26.7969 19.9879,26.7229 20.0799,26.7229 C20.1709,26.7229 20.2449,26.7969 20.2449,26.8889 C20.2449,26.9799 20.1709,27.0539 20.0799,27.0539" id="Fill-5" fill="#1D96DD"></path>
                    <path d="M22.1399,27.6337 C22.0179,27.6337 21.9199,27.5347 21.9199,27.4137 C21.9199,27.2917 22.0179,27.1927 22.1399,27.1927 C22.2619,27.1927 22.3609,27.2917 22.3609,27.4137 C22.3609,27.5347 22.2619,27.6337 22.1399,27.6337" id="Fill-7" fill="#1D96DD"></path>
                    <path d="M24.2173,28.1462 C24.0653,28.1462 23.9413,28.0222 23.9413,27.8702 C23.9413,27.7182 24.0653,27.5952 24.2173,27.5952 C24.3693,27.5952 24.4933,27.7182 24.4933,27.8702 C24.4933,28.0222 24.3693,28.1462 24.2173,28.1462" id="Fill-9" fill="#1D96DD"></path>
                    <path d="M26.3255,28.4941 C26.1425,28.4941 25.9945,28.3461 25.9945,28.1631 C25.9945,27.9801 26.1425,27.8321 26.3255,27.8321 C26.5085,27.8321 26.6565,27.9801 26.6565,28.1631 C26.6565,28.3461 26.5085,28.4941 26.3255,28.4941" id="Fill-11" fill="#1D96DD"></path>
                    <path d="M27.9319,27.7236 C27.7189,27.7236 27.5459,27.5506 27.5459,27.3376 C27.5459,27.1246 27.7189,26.9516 27.9319,26.9516 C28.1449,26.9516 28.3179,27.1246 28.3179,27.3376 C28.3179,27.5506 28.1449,27.7236 27.9319,27.7236" id="Fill-13" fill="#1D96DD"></path>
                    <path d="M29.9654,28.8237 C31.1944,28.6907 32.0834,27.5877 31.9514,26.3587 C31.8184,25.1297 30.7144,24.2407 29.4854,24.3727 C28.2574,24.5057 27.3684,25.6097 27.5004,26.8377 C27.6324,28.0667 28.7364,28.9557 29.9654,28.8237" id="Fill-15" fill="#1D96DD"></path>
                    <path d="M39.3733,24.93 C39.3273,24.93 39.2903,24.893 39.2903,24.847 C39.2903,24.801 39.3273,24.764 39.3733,24.764 C39.4193,24.764 39.4563,24.801 39.4563,24.847 C39.4563,24.893 39.4193,24.93 39.3733,24.93" id="Fill-17" fill="#1D96DD"></path>
                    <path d="M41.4922,24.9801 C41.4002,24.9801 41.3262,24.9051 41.3262,24.8131 C41.3262,24.7221 41.4002,24.6471 41.4922,24.6471 C41.5842,24.6471 41.6582,24.7221 41.6582,24.8131 C41.6582,24.9051 41.5842,24.9801 41.4922,24.9801" id="Fill-19" fill="#1D96DD"></path>
                    <path d="M43.6133,25.1468 C43.4753,25.1468 43.3633,25.0348 43.3633,24.8968 C43.3633,24.7588 43.4753,24.6468 43.6133,24.6468 C43.7513,24.6468 43.8633,24.7588 43.8633,24.8968 C43.8633,25.0348 43.7513,25.1468 43.6133,25.1468" id="Fill-21" fill="#1D96DD"></path>
                    <path d="M45.7295,25.4293 C45.5455,25.4293 45.3965,25.2803 45.3965,25.0963 C45.3965,24.9123 45.5455,24.7633 45.7295,24.7633 C45.9135,24.7633 46.0625,24.9123 46.0625,25.0963 C46.0625,25.2803 45.9135,25.4293 45.7295,25.4293" id="Fill-23" fill="#1D96DD"></path>
                    <path d="M47.4451,27.5125 C48.6751,27.6285 49.7671,26.7255 49.8841,25.4945 C50.0001,24.2645 49.0961,23.1725 47.8661,23.0565 C46.6361,22.9395 45.5441,23.8435 45.4271,25.0735 C45.3111,26.3045 46.2151,27.3965 47.4451,27.5125" id="Fill-25" fill="#1D96DD"></path>
                    <path d="M0.0681,0.509 C0.0561,0.509 0.0471,0.499 0.0471,0.488 C0.0471,0.476 0.0561,0.466 0.0681,0.466 C0.0801,0.466 0.0901,0.476 0.0901,0.488 C0.0901,0.499 0.0801,0.509 0.0681,0.509" id="Fill-27" fill="#1D96DD"></path>
                    <path d="M2.1369,1.0193 C2.1129,1.0193 2.0939,1.0003 2.0939,0.9763 C2.0939,0.9523 2.1129,0.9333 2.1369,0.9333 C2.1609,0.9333 2.1799,0.9523 2.1799,0.9763 C2.1799,1.0003 2.1609,1.0193 2.1369,1.0193" id="Fill-29" fill="#1D96DD"></path>
                    <path d="M4.2063,1.5144 C4.1703,1.5144 4.1413,1.4854 4.1413,1.4494 C4.1413,1.4144 4.1703,1.3854 4.2063,1.3854 C4.2423,1.3854 4.2713,1.4144 4.2713,1.4494 C4.2713,1.4854 4.2423,1.5144 4.2063,1.5144" id="Fill-31" fill="#1D96DD"></path>
                    <path d="M6.2793,1.9998 C6.2313,1.9998 6.1933,1.9608 6.1933,1.9138 C6.1933,1.8658 6.2313,1.8268 6.2793,1.8268 C6.3273,1.8268 6.3653,1.8658 6.3653,1.9138 C6.3653,1.9608 6.3273,1.9998 6.2793,1.9998" id="Fill-33" fill="#1D96DD"></path>
                    <path d="M8.3503,2.4951 C8.2913,2.4951 8.2423,2.4471 8.2423,2.3871 C8.2423,2.3281 8.2913,2.2801 8.3503,2.2801 C8.4103,2.2801 8.4583,2.3281 8.4583,2.3871 C8.4583,2.4471 8.4103,2.4951 8.3503,2.4951" id="Fill-35" fill="#1D96DD"></path>
                    <path d="M10.4194,3.0042 C10.3474,3.0042 10.2904,2.9462 10.2904,2.8742 C10.2904,2.8032 10.3474,2.7452 10.4194,2.7452 C10.4914,2.7452 10.5484,2.8032 10.5484,2.8742 C10.5484,2.9462 10.4914,3.0042 10.4194,3.0042" id="Fill-37" fill="#1D96DD"></path>
                    <path d="M12.4819,3.5283 C12.3989,3.5283 12.3309,3.4613 12.3309,3.3773 C12.3309,3.2943 12.3989,3.2263 12.4819,3.2263 C12.5649,3.2263 12.6329,3.2943 12.6329,3.3773 C12.6329,3.4613 12.5649,3.5283 12.4819,3.5283" id="Fill-39" fill="#1D96DD"></path>
                    <path d="M14.5381,4.0718 C14.4421,4.0718 14.3651,3.9948 14.3651,3.8988 C14.3651,3.8038 14.4421,3.7268 14.5381,3.7268 C14.6331,3.7268 14.7101,3.8038 14.7101,3.8988 C14.7101,3.9948 14.6331,4.0718 14.5381,4.0718" id="Fill-41" fill="#1D96DD"></path>
                    <path d="M16.5928,4.6397 C16.4858,4.6397 16.3988,4.5527 16.3988,4.4457 C16.3988,4.3377 16.4858,4.2507 16.5928,4.2507 C16.6998,4.2507 16.7868,4.3377 16.7868,4.4457 C16.7868,4.5527 16.6998,4.6397 16.5928,4.6397" id="Fill-43" fill="#1D96DD"></path>
                    <path d="M18.6391,5.2378 C18.5201,5.2378 18.4231,5.1418 18.4231,5.0218 C18.4231,4.9028 18.5201,4.8068 18.6391,4.8068 C18.7581,4.8068 18.8551,4.9028 18.8551,5.0218 C18.8551,5.1418 18.7581,5.2378 18.6391,5.2378" id="Fill-45" fill="#1D96DD"></path>
                    <path d="M20.6748,5.8767 C20.5438,5.8767 20.4378,5.7707 20.4378,5.6397 C20.4378,5.5087 20.5438,5.4027 20.6748,5.4027 C20.8058,5.4027 20.9118,5.5087 20.9118,5.6397 C20.9118,5.7707 20.8058,5.8767 20.6748,5.8767" id="Fill-47" fill="#1D96DD"></path>
                    <path d="M22.6943,6.5701 C22.5513,6.5701 22.4353,6.4541 22.4353,6.3111 C22.4353,6.1681 22.5513,6.0521 22.6943,6.0521 C22.8373,6.0521 22.9533,6.1681 22.9533,6.3111 C22.9533,6.4541 22.8373,6.5701 22.6943,6.5701" id="Fill-49" fill="#1D96DD"></path>
                    <path d="M24.6867,7.3345 C24.5317,7.3345 24.4057,7.2095 24.4057,7.0545 C24.4057,6.8995 24.5317,6.7735 24.6867,6.7735 C24.8417,6.7735 24.9667,6.8995 24.9667,7.0545 C24.9667,7.2095 24.8417,7.3345 24.6867,7.3345" id="Fill-51" fill="#1D96DD"></path>
                    <path d="M26.6555,8.158 C26.4885,8.158 26.3535,8.023 26.3535,7.856 C26.3535,7.689 26.4885,7.554 26.6555,7.554 C26.8225,7.554 26.9575,7.689 26.9575,7.856 C26.9575,8.023 26.8225,8.158 26.6555,8.158" id="Fill-53" fill="#1D96DD"></path>
                    <path d="M28.6142,9.0059 C28.4352,9.0059 28.2902,8.8609 28.2902,8.6819 C28.2902,8.5039 28.4352,8.3589 28.6142,8.3589 C28.7932,8.3589 28.9382,8.5039 28.9382,8.6819 C28.9382,8.8609 28.7932,9.0059 28.6142,9.0059" id="Fill-55" fill="#1D96DD"></path>
                    <path d="M30.5586,9.8828 C30.3676,9.8828 30.2136,9.7278 30.2136,9.5378 C30.2136,9.3468 30.3676,9.1928 30.5586,9.1928 C30.7496,9.1928 30.9036,9.3468 30.9036,9.5378 C30.9036,9.7278 30.7496,9.8828 30.5586,9.8828" id="Fill-57" fill="#1D96DD"></path>
                    <path d="M32.4892,10.7927 C32.2872,10.7927 32.1222,10.6287 32.1222,10.4257 C32.1222,10.2237 32.2872,10.0597 32.4892,10.0597 C32.6922,10.0597 32.8562,10.2237 32.8562,10.4257 C32.8562,10.6287 32.6922,10.7927 32.4892,10.7927" id="Fill-59" fill="#1D96DD"></path>
                    <path d="M34.4077,11.7368 C34.1937,11.7368 34.0197,11.5628 34.0197,11.3488 C34.0197,11.1338 34.1937,10.9598 34.4077,10.9598 C34.6217,10.9598 34.7957,11.1338 34.7957,11.3488 C34.7957,11.5628 34.6217,11.7368 34.4077,11.7368" id="Fill-61" fill="#1D96DD"></path>
                    <path d="M36.3059,12.7158 C36.0799,12.7158 35.8959,12.5328 35.8959,12.3058 C35.8959,12.0798 36.0799,11.8958 36.3059,11.8958 C36.5319,11.8958 36.7159,12.0798 36.7159,12.3058 C36.7159,12.5328 36.5319,12.7158 36.3059,12.7158" id="Fill-63" fill="#1D96DD"></path>
                    <path d="M38.1784,13.7444 C37.9404,13.7444 37.7474,13.5514 37.7474,13.3134 C37.7474,13.0744 37.9404,12.8814 38.1784,12.8814 C38.4164,12.8814 38.6094,13.0744 38.6094,13.3134 C38.6094,13.5514 38.4164,13.7444 38.1784,13.7444" id="Fill-65" fill="#1D96DD"></path>
                    <path d="M39.9963,14.8713 C39.7463,14.8713 39.5433,14.6683 39.5433,14.4183 C39.5433,14.1683 39.7463,13.9653 39.9963,13.9653 C40.2463,13.9653 40.4493,14.1683 40.4493,14.4183 C40.4493,14.6683 40.2463,14.8713 39.9963,14.8713" id="Fill-67" fill="#1D96DD"></path>
                    <path d="M39.5381,16.7327 C40.1321,17.8167 41.4921,18.2147 42.5761,17.6207 C43.6601,17.0277 44.0581,15.6667 43.4641,14.5837 C42.8711,13.4997 41.5111,13.1017 40.4261,13.6947 C39.3421,14.2887 38.9441,15.6487 39.5381,16.7327" id="Fill-69" fill="#1D96DD"></path>
                    <path d="M10.5684,10.6871 C10.5564,10.6871 10.5474,10.6781 10.5474,10.6661 C10.5474,10.6551 10.5564,10.6461 10.5684,10.6461 C10.5794,10.6461 10.5884,10.6551 10.5884,10.6661 C10.5884,10.6781 10.5794,10.6871 10.5684,10.6871" id="Fill-71" fill="#1D96DD"></path>
                    <path d="M12.6497,11.139 C12.6267,11.139 12.6087,11.12 12.6087,11.098 C12.6087,11.075 12.6267,11.056 12.6497,11.056 C12.6727,11.056 12.6907,11.075 12.6907,11.098 C12.6907,11.12 12.6727,11.139 12.6497,11.139" id="Fill-73" fill="#1D96DD"></path>
                    <path d="M14.7359,11.5878 C14.7019,11.5878 14.6739,11.5598 14.6739,11.5258 C14.6739,11.4918 14.7019,11.4638 14.7359,11.4638 C14.7699,11.4638 14.7979,11.4918 14.7979,11.5258 C14.7979,11.5598 14.7699,11.5878 14.7359,11.5878" id="Fill-75" fill="#1D96DD"></path>
                    <path d="M16.8204,12.0257 C16.7744,12.0257 16.7384,11.9887 16.7384,11.9427 C16.7384,11.8977 16.7744,11.8607 16.8204,11.8607 C16.8664,11.8607 16.9034,11.8977 16.9034,11.9427 C16.9034,11.9887 16.8664,12.0257 16.8204,12.0257" id="Fill-77" fill="#1D96DD"></path>
                    <path d="M18.9075,12.4508 C18.8505,12.4508 18.8045,12.4048 18.8045,12.3478 C18.8045,12.2908 18.8505,12.2448 18.9075,12.2448 C18.9645,12.2448 19.0105,12.2908 19.0105,12.3478 C19.0105,12.4048 18.9645,12.4508 18.9075,12.4508" id="Fill-79" fill="#1D96DD"></path>
                    <path d="M20.9937,12.8802 C20.9257,12.8802 20.8697,12.8252 20.8697,12.7562 C20.8697,12.6882 20.9257,12.6332 20.9937,12.6332 C21.0617,12.6332 21.1177,12.6882 21.1177,12.7562 C21.1177,12.8252 21.0617,12.8802 20.9937,12.8802" id="Fill-81" fill="#1D96DD"></path>
                    <path d="M23.0772,13.3226 C22.9972,13.3226 22.9332,13.2586 22.9332,13.1786 C22.9332,13.0986 22.9972,13.0346 23.0772,13.0346 C23.1572,13.0346 23.2212,13.0986 23.2212,13.1786 C23.2212,13.2586 23.1572,13.3226 23.0772,13.3226" id="Fill-83" fill="#1D96DD"></path>
                    <path d="M25.1578,13.7787 C25.0668,13.7787 24.9928,13.7047 24.9928,13.6137 C24.9928,13.5227 25.0668,13.4487 25.1578,13.4487 C25.2488,13.4487 25.3228,13.5227 25.3228,13.6137 C25.3228,13.7047 25.2488,13.7787 25.1578,13.7787" id="Fill-85" fill="#1D96DD"></path>
                    <path d="M27.2352,14.2494 C27.1332,14.2494 27.0502,14.1664 27.0502,14.0634 C27.0502,13.9614 27.1332,13.8784 27.2352,13.8784 C27.3382,13.8784 27.4212,13.9614 27.4212,14.0634 C27.4212,14.1664 27.3382,14.2494 27.2352,14.2494" id="Fill-87" fill="#1D96DD"></path>
                    <path d="M29.3062,14.7345 C29.1922,14.7345 29.1002,14.6425 29.1002,14.5285 C29.1002,14.4145 29.1922,14.3225 29.3062,14.3225 C29.4202,14.3225 29.5122,14.4145 29.5122,14.5285 C29.5122,14.6425 29.4202,14.7345 29.3062,14.7345" id="Fill-89" fill="#1D96DD"></path>
                    <path d="M31.3763,15.2379 C31.2513,15.2379 31.1493,15.1359 31.1493,15.0109 C31.1493,14.8859 31.2513,14.7849 31.3763,14.7849 C31.5013,14.7849 31.6033,14.8859 31.6033,15.0109 C31.6033,15.1359 31.5013,15.2379 31.3763,15.2379" id="Fill-91" fill="#1D96DD"></path>
                    <path d="M33.4424,15.7606 C33.3054,15.7606 33.1954,15.6496 33.1954,15.5136 C33.1954,15.3766 33.3054,15.2666 33.4424,15.2666 C33.5794,15.2666 33.6894,15.3766 33.6894,15.5136 C33.6894,15.6496 33.5794,15.7606 33.4424,15.7606" id="Fill-93" fill="#1D96DD"></path>
                    <path d="M35.5035,16.3055 C35.3555,16.3055 35.2355,16.1855 35.2355,16.0375 C35.2355,15.8895 35.3555,15.7695 35.5035,15.7695 C35.6515,15.7695 35.7715,15.8895 35.7715,16.0375 C35.7715,16.1855 35.6515,16.3055 35.5035,16.3055" id="Fill-95" fill="#1D96DD"></path>
                    <path d="M37.5574,16.878 C37.3984,16.878 37.2684,16.749 37.2684,16.59 C37.2684,16.43 37.3984,16.301 37.5574,16.301 C37.7164,16.301 37.8454,16.43 37.8454,16.59 C37.8454,16.749 37.7164,16.878 37.5574,16.878" id="Fill-97" fill="#1D96DD"></path>
                    <path d="M39.6014,17.4852 C39.4304,17.4852 39.2924,17.3472 39.2924,17.1762 C39.2924,17.0052 39.4304,16.8672 39.6014,16.8672 C39.7724,16.8672 39.9104,17.0052 39.9104,17.1762 C39.9104,17.3472 39.7724,17.4852 39.6014,17.4852" id="Fill-99" fill="#1D96DD"></path>
                    <path d="M41.6324,18.1354 C41.4504,18.1354 41.3024,17.9874 41.3024,17.8054 C41.3024,17.6234 41.4504,17.4754 41.6324,17.4754 C41.8144,17.4754 41.9624,17.6234 41.9624,17.8054 C41.9624,17.9874 41.8144,18.1354 41.6324,18.1354" id="Fill-101" fill="#1D96DD"></path>
                    <path d="M43.6514,18.8219 C43.4574,18.8219 43.3014,18.6649 43.3014,18.4719 C43.3014,18.2779 43.4574,18.1209 43.6514,18.1209 C43.8444,18.1209 44.0014,18.2779 44.0014,18.4719 C44.0014,18.6649 43.8444,18.8219 43.6514,18.8219" id="Fill-103" fill="#1D96DD"></path>
                    <path d="M45.668,19.5253 C45.463,19.5253 45.297,19.3593 45.297,19.1543 C45.297,18.9493 45.463,18.7833 45.668,18.7833 C45.873,18.7833 46.039,18.9493 46.039,19.1543 C46.039,19.3593 45.873,19.5253 45.668,19.5253" id="Fill-105" fill="#1D96DD"></path>
                    <path d="M47.677,20.2435 C47.461,20.2435 47.286,20.0685 47.286,19.8525 C47.286,19.6355 47.461,19.4605 47.677,19.4605 C47.893,19.4605 48.069,19.6355 48.069,19.8525 C48.069,20.0685 47.893,20.2435 47.677,20.2435" id="Fill-107" fill="#1D96DD"></path>
                    <path d="M49.6795,20.9794 C49.4515,20.9794 49.2675,20.7944 49.2675,20.5674 C49.2675,20.3394 49.4515,20.1554 49.6795,20.1554 C49.9065,20.1554 50.0915,20.3394 50.0915,20.5674 C50.0915,20.7944 49.9065,20.9794 49.6795,20.9794" id="Fill-109" fill="#1D96DD"></path>
                    <path d="M51.6768,21.7301 C51.4378,21.7301 51.2438,21.5361 51.2438,21.2971 C51.2438,21.0581 51.4378,20.8651 51.6768,20.8651 C51.9158,20.8651 52.1098,21.0581 52.1098,21.2971 C52.1098,21.5361 51.9158,21.7301 51.6768,21.7301" id="Fill-111" fill="#1D96DD"></path>
                    <path d="M53.67,22.4989 C53.42,22.4989 53.217,22.2959 53.217,22.0459 C53.217,21.7949 53.42,21.5929 53.67,21.5929 C53.921,21.5929 54.123,21.7949 54.123,22.0459 C54.123,22.2959 53.921,22.4989 53.67,22.4989" id="Fill-113" fill="#1D96DD"></path>
                    <path d="M54.8736,22.9806 C54.6116,22.9806 54.3996,22.7686 54.3996,22.5066 C54.3996,22.2446 54.6116,22.0326 54.8736,22.0326 C55.1356,22.0326 55.3476,22.2446 55.3476,22.5066 C55.3476,22.7686 55.1356,22.9806 54.8736,22.9806" id="Fill-115" fill="#1D96DD"></path>
                    <path d="M54.8755,24.9107 C56.0245,25.3647 57.3255,24.8017 57.7795,23.6527 C58.2345,22.5027 57.6705,21.2027 56.5215,20.7477 C55.3725,20.2937 54.0715,20.8577 53.6175,22.0067 C53.1625,23.1557 53.7265,24.4567 54.8755,24.9107" id="Fill-117" fill="#1D96DD"></path>
                    <path d="M5.9438,32.0086 C5.9328,32.0086 5.9248,32.0006 5.9248,31.9896 C5.9248,31.9796 5.9328,31.9706 5.9438,31.9706 C5.9538,31.9706 5.9628,31.9796 5.9628,31.9896 C5.9628,32.0006 5.9538,32.0086 5.9438,32.0086" id="Fill-119" fill="#1D96DD"></path>
                    <g id="Group-123" transform="translate(8.000000, 32.224900)">
                        <mask id="mask-4" fill="white">
                            <use xlink:href="#path-3"></use>
                        </mask>
                        <g id="Clip-122"></g>
                        <path d="M0.0395,0.1304 C0.0185,0.1304 0.0015,0.1134 0.0015,0.0924 C0.0015,0.0714 0.0185,0.0544 0.0395,0.0544 C0.0605,0.0544 0.0775,0.0714 0.0775,0.0924 C0.0775,0.1134 0.0605,0.1304 0.0395,0.1304" id="Fill-121" fill="#1D96DD" mask="url(#mask-4)"></path>
                    </g>
                    <g id="Group-126" transform="translate(10.000000, 32.224900)">
                        <mask id="mask-6" fill="white">
                            <use xlink:href="#path-5"></use>
                        </mask>
                        <g id="Clip-125"></g>
                        <path d="M0.1469,0.4266 C0.1159,0.4266 0.0899,0.4006 0.0899,0.3696 C0.0899,0.3376 0.1159,0.3126 0.1469,0.3126 C0.1779,0.3126 0.2039,0.3376 0.2039,0.3696 C0.2039,0.4006 0.1779,0.4266 0.1469,0.4266" id="Fill-124" fill="#1D96DD" mask="url(#mask-6)"></path>
                    </g>
                    <g id="Group-129" transform="translate(12.000000, 32.224900)">
                        <mask id="mask-8" fill="white">
                            <use xlink:href="#path-7"></use>
                        </mask>
                        <g id="Clip-128"></g>
                        <path d="M0.2595,0.669 C0.2175,0.669 0.1835,0.635 0.1835,0.593 C0.1835,0.551 0.2175,0.517 0.2595,0.517 C0.3015,0.517 0.3355,0.551 0.3355,0.593 C0.3355,0.635 0.3015,0.669 0.2595,0.669" id="Fill-127" fill="#1D96DD" mask="url(#mask-8)"></path>
                    </g>
                    <g id="Group-132" transform="translate(14.000000, 32.224900)">
                        <mask id="mask-10" fill="white">
                            <use xlink:href="#path-9"></use>
                        </mask>
                        <g id="Clip-131"></g>
                        <path d="M0.3786,0.8562 C0.3256,0.8562 0.2836,0.8132 0.2836,0.7612 C0.2836,0.7082 0.3256,0.6662 0.3786,0.6662 C0.4306,0.6662 0.4736,0.7082 0.4736,0.7612 C0.4736,0.8132 0.4306,0.8562 0.3786,0.8562" id="Fill-130" fill="#1D96DD" mask="url(#mask-10)"></path>
                    </g>
                    <g id="Group-135" transform="translate(16.000000, 32.224900)">
                        <mask id="mask-12" fill="white">
                            <use xlink:href="#path-11"></use>
                        </mask>
                        <g id="Clip-134"></g>
                        <path d="M0.5022,0.9683 C0.4392,0.9683 0.3882,0.9173 0.3882,0.8543 C0.3882,0.7913 0.4392,0.7403 0.5022,0.7403 C0.5652,0.7403 0.6162,0.7913 0.6162,0.8543 C0.6162,0.9173 0.5652,0.9683 0.5022,0.9683" id="Fill-133" fill="#1D96DD" mask="url(#mask-12)"></path>
                    </g>
                    <g id="Group-138" transform="translate(18.000000, 32.224900)">
                        <mask id="mask-14" fill="white">
                            <use xlink:href="#path-13"></use>
                        </mask>
                        <g id="Clip-137"></g>
                        <path d="M0.6281,1 C0.5551,1 0.4951,0.941 0.4951,0.867 C0.4951,0.794 0.5551,0.734 0.6281,0.734 C0.7011,0.734 0.7611,0.794 0.7611,0.867 C0.7611,0.941 0.7011,1 0.6281,1" id="Fill-136" fill="#1D96DD" mask="url(#mask-14)"></path>
                    </g>
                    <g id="Group-141" transform="translate(20.000000, 32.224900)">
                        <mask id="mask-16" fill="white">
                            <use xlink:href="#path-15"></use>
                        </mask>
                        <g id="Clip-140"></g>
                        <path d="M0.7522,0.939 C0.6682,0.939 0.6002,0.871 0.6002,0.787 C0.6002,0.703 0.6682,0.635 0.7522,0.635 C0.8362,0.635 0.9042,0.703 0.9042,0.787 C0.9042,0.871 0.8362,0.939 0.7522,0.939" id="Fill-139" fill="#1D96DD" mask="url(#mask-16)"></path>
                    </g>
                    <g id="Group-144" transform="translate(22.000000, 32.224900)">
                        <mask id="mask-18" fill="white">
                            <use xlink:href="#path-17"></use>
                        </mask>
                        <g id="Clip-143"></g>
                        <path d="M0.8701,0.7771 C0.7751,0.7771 0.6991,0.7011 0.6991,0.6061 C0.6991,0.5121 0.7751,0.4351 0.8701,0.4351 C0.9641,0.4351 1.0411,0.5121 1.0411,0.6061 C1.0411,0.7011 0.9641,0.7771 0.8701,0.7771" id="Fill-142" fill="#1D96DD" mask="url(#mask-18)"></path>
                    </g>
                    <g id="Group-147" transform="translate(24.000000, 32.224900)">
                        <mask id="mask-20" fill="white">
                            <use xlink:href="#path-19"></use>
                        </mask>
                        <g id="Clip-146"></g>
                        <path d="M0.9756,0.5105 C0.8706,0.5105 0.7856,0.4255 0.7856,0.3205 C0.7856,0.2155 0.8706,0.1305 0.9756,0.1305 C1.0806,0.1305 1.1656,0.2155 1.1656,0.3205 C1.1656,0.4255 1.0806,0.5105 0.9756,0.5105" id="Fill-145" fill="#1D96DD" mask="url(#mask-20)"></path>
                    </g>
                    <path d="M27.0642,32.3624 C26.9492,32.3624 26.8552,32.2684 26.8552,32.1534 C26.8552,32.0384 26.9492,31.9444 27.0642,31.9444 C27.1802,31.9444 27.2732,32.0384 27.2732,32.1534 C27.2732,32.2684 27.1802,32.3624 27.0642,32.3624" id="Fill-148" fill="#1D96DD"></path>
                    <path d="M29.1318,31.8883 C29.0058,31.8883 28.9038,31.7863 28.9038,31.6603 C28.9038,31.5343 29.0058,31.4323 29.1318,31.4323 C29.2578,31.4323 29.3598,31.5343 29.3598,31.6603 C29.3598,31.7863 29.2578,31.8883 29.1318,31.8883" id="Fill-150" fill="#1D96DD"></path>
                    <path d="M31.1711,31.3204 C31.0341,31.3204 30.9241,31.2094 30.9241,31.0734 C30.9241,30.9374 31.0341,30.8264 31.1711,30.8264 C31.3071,30.8264 31.4181,30.9374 31.4181,31.0734 C31.4181,31.2094 31.3071,31.3204 31.1711,31.3204" id="Fill-152" fill="#1D96DD"></path>
                    <path d="M33.1899,30.6729 C33.0429,30.6729 32.9239,30.5539 32.9239,30.4069 C32.9239,30.2599 33.0429,30.1409 33.1899,30.1409 C33.3369,30.1409 33.4559,30.2599 33.4559,30.4069 C33.4559,30.5539 33.3369,30.6729 33.1899,30.6729" id="Fill-154" fill="#1D96DD"></path>
                    <path d="M35.1975,29.9906 C35.0405,29.9906 34.9125,29.8626 34.9125,29.7056 C34.9125,29.5486 35.0405,29.4206 35.1975,29.4206 C35.3545,29.4206 35.4825,29.5486 35.4825,29.7056 C35.4825,29.8626 35.3545,29.9906 35.1975,29.9906" id="Fill-156" fill="#1D96DD"></path>
                    <path d="M37.2053,29.3082 C37.0373,29.3082 36.9013,29.1722 36.9013,29.0042 C36.9013,28.8362 37.0373,28.7002 37.2053,28.7002 C37.3733,28.7002 37.5093,28.8362 37.5093,29.0042 C37.5093,29.1722 37.3733,29.3082 37.2053,29.3082" id="Fill-158" fill="#1D96DD"></path>
                    <path d="M39.2197,28.6341 C39.0417,28.6341 38.8967,28.4891 38.8967,28.3111 C38.8967,28.1331 39.0417,27.9881 39.2197,27.9881 C39.3977,27.9881 39.5427,28.1331 39.5427,28.3111 C39.5427,28.4891 39.3977,28.6341 39.2197,28.6341" id="Fill-160" fill="#1D96DD"></path>
                    <path d="M41.24,27.9903 C41.051,27.9903 40.898,27.8373 40.898,27.6483 C40.898,27.4593 41.051,27.3063 41.24,27.3063 C41.429,27.3063 41.582,27.4593 41.582,27.6483 C41.582,27.8373 41.429,27.9903 41.24,27.9903" id="Fill-162" fill="#1D96DD"></path>
                    <path d="M43.2771,27.3988 C43.0781,27.3988 42.9161,27.2368 42.9161,27.0378 C42.9161,26.8378 43.0781,26.6768 43.2771,26.6768 C43.4761,26.6768 43.6381,26.8378 43.6381,27.0378 C43.6381,27.2368 43.4761,27.3988 43.2771,27.3988" id="Fill-164" fill="#1D96DD"></path>
                    <path d="M45.3315,26.87 C45.1215,26.87 44.9515,26.7 44.9515,26.49 C44.9515,26.28 45.1215,26.11 45.3315,26.11 C45.5415,26.11 45.7115,26.28 45.7115,26.49 C45.7115,26.7 45.5415,26.87 45.3315,26.87" id="Fill-166" fill="#1D96DD"></path>
                    <path d="M47.3957,26.3792 C47.1757,26.3792 46.9967,26.2002 46.9967,25.9802 C46.9967,25.7592 47.1757,25.5812 47.3957,25.5812 C47.6167,25.5812 47.7947,25.7592 47.7947,25.9802 C47.7947,26.2002 47.6167,26.3792 47.3957,26.3792" id="Fill-168" fill="#1D96DD"></path>
                    <path d="M49.4658,25.9129 C49.2348,25.9129 49.0478,25.7259 49.0478,25.4949 C49.0478,25.2639 49.2348,25.0769 49.4658,25.0769 C49.6968,25.0769 49.8838,25.2639 49.8838,25.4949 C49.8838,25.7259 49.6968,25.9129 49.4658,25.9129" id="Fill-170" fill="#1D96DD"></path>
                    <path d="M51.5302,25.4183 C51.2892,25.4183 51.0932,25.2223 51.0932,24.9813 C51.0932,24.7393 51.2892,24.5443 51.5302,24.5443 C51.7722,24.5443 51.9672,24.7393 51.9672,24.9813 C51.9672,25.2223 51.7722,25.4183 51.5302,25.4183" id="Fill-172" fill="#1D96DD"></path>
                    <path d="M53.5893,24.8924 C53.3373,24.8924 53.1333,24.6884 53.1333,24.4364 C53.1333,24.1844 53.3373,23.9804 53.5893,23.9804 C53.8413,23.9804 54.0453,24.1844 54.0453,24.4364 C54.0453,24.6884 53.8413,24.8924 53.5893,24.8924" id="Fill-174" fill="#1D96DD"></path>
                    <path d="M54.8969,24.5477 C54.6349,24.5477 54.4219,24.3347 54.4219,24.0727 C54.4219,23.8097 54.6349,23.5977 54.8969,23.5977 C55.1589,23.5977 55.3719,23.8097 55.3719,24.0727 C55.3719,24.3347 55.1589,24.5477 54.8969,24.5477" id="Fill-176" fill="#1D96DD"></path>
                    <path d="M56.3625,25.9791 C57.5505,25.6391 58.2385,24.4001 57.8995,23.2121 C57.5595,22.0241 56.3205,21.3351 55.1325,21.6751 C53.9445,22.0151 53.2555,23.2541 53.5955,24.4421 C53.9345,25.6301 55.1735,26.3191 56.3625,25.9791" id="Fill-178" fill="#1D96DD"></path>
                </g>
            </g>
        </g>
    </g>
</svg>