<?xml version="1.0" encoding="UTF-8" standalone="no"?>
<svg width="50px" height="153px" viewBox="0 0 50 153" version="1.1" xmlns="http://www.w3.org/2000/svg" xmlns:xlink="http://www.w3.org/1999/xlink">
    <!-- Generator: Sketch 40.2 (33826) - http://www.bohemiancoding.com/sketch -->
    <title>Dots_restapi_left</title>
    <desc>Created with Sketch.</desc>
    <defs>
        <polygon id="path-1" points="0.3594 1 1.3594 1 1.3594 0.2174 0.3594 0.2174 0.3594 1"></polygon>
        <polygon id="path-3" points="0.4473 1 1.4473 1 1.4473 0.4592 0.4473 0.4592"></polygon>
        <polygon id="path-5" points="0.5454 1 1.5454 1 1.5454 0.537 0.5454 0.537 0.5454 1"></polygon>
        <polygon id="path-7" points="0.6464 1 1.6464 1 1.6464 0.3982 0.6464 0.3982"></polygon>
        <polygon id="path-9" points="0.7335 1 1.7335 1 1.7335 0.0976 0.7335 0.0976 0.7335 1"></polygon>
        <polygon id="path-11" points="4.594 4.86606056 4.594 0.389022355 0.116439438 0.389022355 0.116439438 4.86606056 4.594 4.86606056"></polygon>
        <polygon id="path-13" points="1.5405 0.097 0.5405 0.097 0.5405 1.0969 1.5405 1.0969 1.5405 0.097"></polygon>
        <polygon id="path-15" points="0.9595 1 1.9595 1 1.9595 0.1931 0.9595 0.1931 0.9595 1"></polygon>
        <polygon id="path-17" points="4.575 4.74948246 4.575 0.273 0.0978175427 0.273 0.0978175427 4.74948246 4.575 4.74948246"></polygon>
        <polygon id="path-19" points="0.3966 1 1.3966 1 1.3966 0.0922 0.3966 0.0922 0.3966 1"></polygon>
        <polygon id="path-21" points="0.5193 1 1.5193 1 1.5193 0.1381 0.5193 0.1381 0.5193 1"></polygon>
        <polygon id="path-23" points="0.6395 1 1.6395 1 1.6395 0.139 0.6395 0.139"></polygon>
        <polygon id="path-25" points="0.76 1 1.76 1 1.76 0.088 0.76 0.088"></polygon>
    </defs>
    <g id="Main-Page" stroke="none" stroke-width="1" fill="none" fill-rule="evenodd">
        <g id="Descotp_main_page" transform="translate(-1269.000000, -2226.000000)">
            <g id="Dots_restapi_left" transform="translate(1208.000000, 2211.000000)">
                <g id="Page-1" transform="translate(95.108637, 111.474051) rotate(77.000000) translate(-95.108637, -111.474051) translate(74.108637, 106.974051)">
                    <path d="M0.5955,0.42209 C0.5825,0.42209 0.5725,0.41209 0.5725,0.39909 C0.5725,0.38609 0.5825,0.37609 0.5955,0.37609 C0.6085,0.37609 0.6185,0.38609 0.6185,0.39909 C0.6185,0.41209 0.6085,0.42209 0.5955,0.42209" id="Fill-1" fill="#1D96DD"></path>
                    <path d="M2.2446,1.78319 C2.2196,1.78319 2.1986,1.76219 2.1986,1.73719 C2.1986,1.71119 2.2196,1.69019 2.2446,1.69019 C2.2706,1.69019 2.2906,1.71119 2.2906,1.73719 C2.2906,1.76219 2.2706,1.78319 2.2446,1.78319" id="Fill-3" fill="#1D96DD"></path>
                    <path d="M3.9448,3.08179 C3.9068,3.08179 3.8758,3.05079 3.8758,3.01279 C3.8758,2.97379 3.9068,2.94279 3.9448,2.94279 C3.9828,2.94279 4.0148,2.97379 4.0148,3.01279 C4.0148,3.05079 3.9828,3.08179 3.9448,3.08179" id="Fill-5" fill="#1D96DD"></path>
                    <path d="M5.6992,4.30439 C5.6482,4.30439 5.6072,4.26239 5.6072,4.21139 C5.6072,4.16039 5.6482,4.11939 5.6992,4.11939 C5.7502,4.11939 5.7922,4.16039 5.7922,4.21139 C5.7922,4.26239 5.7502,4.30439 5.6992,4.30439" id="Fill-7" fill="#1D96DD"></path>
                    <path d="M7.5415,5.38819 C7.4775,5.38819 7.4255,5.33619 7.4255,5.27219 C7.4255,5.20819 7.4775,5.15619 7.5415,5.15619 C7.6055,5.15619 7.6575,5.20819 7.6575,5.27219 C7.6575,5.33619 7.6055,5.38819 7.5415,5.38819" id="Fill-9" fill="#1D96DD"></path>
                    <path d="M9.4653,6.31839 C9.3883,6.31839 9.3263,6.25639 9.3263,6.17939 C9.3263,6.10239 9.3883,6.04039 9.4653,6.04039 C9.5423,6.04039 9.6043,6.10239 9.6043,6.17939 C9.6043,6.25639 9.5423,6.31839 9.4653,6.31839" id="Fill-11" fill="#1D96DD"></path>
                    <path d="M11.4712,7.04249 C11.3812,7.04249 11.3092,6.96949 11.3092,6.88049 C11.3092,6.79049 11.3812,6.71749 11.4712,6.71749 C11.5602,6.71749 11.6332,6.79049 11.6332,6.88049 C11.6332,6.96949 11.5602,7.04249 11.4712,7.04249" id="Fill-13" fill="#1D96DD"></path>
                    <g id="Group-17" transform="translate(13.000000, 6.935790)">
                        <mask id="mask-2" fill="white">
                            <use xlink:href="#path-1"></use>
                        </mask>
                        <g id="Clip-16"></g>
                        <path d="M0.5444,0.5884 C0.4424,0.5884 0.3594,0.5054 0.3594,0.4034 C0.3594,0.3004 0.4424,0.2174 0.5444,0.2174 C0.6464,0.2174 0.7294,0.3004 0.7294,0.4034 C0.7294,0.5054 0.6464,0.5884 0.5444,0.5884" id="Fill-15" fill="#1D96DD" mask="url(#mask-2)"></path>
                    </g>
                    <g id="Group-20" transform="translate(15.000000, 6.935790)">
                        <mask id="mask-4" fill="white">
                            <use xlink:href="#path-3"></use>
                        </mask>
                        <g id="Clip-19"></g>
                        <path d="M0.6553,0.8762 C0.5403,0.8762 0.4473,0.7832 0.4473,0.6672 C0.4473,0.5522 0.5403,0.4592 0.6553,0.4592 C0.7703,0.4592 0.8633,0.5522 0.8633,0.6672 C0.8633,0.7832 0.7703,0.8762 0.6553,0.8762" id="Fill-18" fill="#1D96DD" mask="url(#mask-4)"></path>
                    </g>
                    <g id="Group-23" transform="translate(17.000000, 6.935790)">
                        <mask id="mask-6" fill="white">
                            <use xlink:href="#path-5"></use>
                        </mask>
                        <g id="Clip-22"></g>
                        <path d="M0.7774,1 C0.6494,1 0.5454,0.896 0.5454,0.768 C0.5454,0.64 0.6494,0.537 0.7774,0.537 C0.9054,0.537 1.0094,0.64 1.0094,0.768 C1.0094,0.896 0.9054,1 0.7774,1" id="Fill-21" fill="#1D96DD" mask="url(#mask-6)"></path>
                    </g>
                    <g id="Group-26" transform="translate(19.000000, 6.935790)">
                        <mask id="mask-8" fill="white">
                            <use xlink:href="#path-7"></use>
                        </mask>
                        <g id="Clip-25"></g>
                        <path d="M0.9014,0.9072 C0.7604,0.9072 0.6464,0.7932 0.6464,0.6522 C0.6464,0.5122 0.7604,0.3982 0.9014,0.3982 C1.0424,0.3982 1.1564,0.5122 1.1564,0.6522 C1.1564,0.7932 1.0424,0.9072 0.9014,0.9072" id="Fill-24" fill="#1D96DD" mask="url(#mask-8)"></path>
                    </g>
                    <g id="Group-29" transform="translate(21.000000, 6.935790)">
                        <mask id="mask-10" fill="white">
                            <use xlink:href="#path-9"></use>
                        </mask>
                        <g id="Clip-28"></g>
                        <path d="M1.0115,0.6536 C0.8575,0.6536 0.7335,0.5286 0.7335,0.3756 C0.7335,0.2216 0.8575,0.0976 1.0115,0.0976 C1.1655,0.0976 1.2895,0.2216 1.2895,0.3756 C1.2895,0.5286 1.1655,0.6536 1.0115,0.6536" id="Fill-27" fill="#1D96DD" mask="url(#mask-10)"></path>
                    </g>
                    <path d="M24.1074,7.25679 C23.9414,7.25679 23.8064,7.12179 23.8064,6.95579 C23.8064,6.78979 23.9414,6.65479 24.1074,6.65479 C24.2734,6.65479 24.4084,6.78979 24.4084,6.95579 C24.4084,7.12179 24.2734,7.25679 24.1074,7.25679" id="Fill-30" fill="#1D96DD"></path>
                    <path d="M26.2041,6.91649 C26.0251,6.91649 25.8801,6.77149 25.8801,6.59249 C25.8801,6.41349 26.0251,6.26749 26.2041,6.26749 C26.3831,6.26749 26.5281,6.41349 26.5281,6.59249 C26.5281,6.77149 26.3831,6.91649 26.2041,6.91649" id="Fill-32" fill="#1D96DD"></path>
                    <path d="M28.3132,6.66819 C28.1212,6.66819 27.9652,6.51219 27.9652,6.32019 C27.9652,6.12819 28.1212,5.97319 28.3132,5.97319 C28.5052,5.97319 28.6612,6.12819 28.6612,6.32019 C28.6612,6.51219 28.5052,6.66819 28.3132,6.66819" id="Fill-34" fill="#1D96DD"></path>
                    <path d="M30.4138,6.37549 C30.2088,6.37549 30.0428,6.20949 30.0428,6.00449 C30.0428,5.80049 30.2088,5.63449 30.4138,5.63449 C30.6188,5.63449 30.7848,5.80049 30.7848,6.00449 C30.7848,6.20949 30.6188,6.37549 30.4138,6.37549" id="Fill-36" fill="#1D96DD"></path>
                    <path d="M32.4985,5.97409 C32.2815,5.97409 32.1045,5.79809 32.1045,5.58009 C32.1045,5.36309 32.2815,5.18609 32.4985,5.18609 C32.7155,5.18609 32.8925,5.36309 32.8925,5.58009 C32.8925,5.79809 32.7155,5.97409 32.4985,5.97409" id="Fill-38" fill="#1D96DD"></path>
                    <path d="M34.5613,5.48319 C34.3313,5.48319 34.1443,5.29619 34.1443,5.06619 C34.1443,4.83619 34.3313,4.64919 34.5613,4.64919 C34.7913,4.64919 34.9783,4.83619 34.9783,5.06619 C34.9783,5.29619 34.7913,5.48319 34.5613,5.48319" id="Fill-40" fill="#1D96DD"></path>
                    <path d="M36.6057,4.91529 C36.3627,4.91529 36.1657,4.71829 36.1657,4.47529 C36.1657,4.23229 36.3627,4.03529 36.6057,4.03529 C36.8487,4.03529 37.0457,4.23229 37.0457,4.47529 C37.0457,4.71829 36.8487,4.91529 36.6057,4.91529" id="Fill-42" fill="#1D96DD"></path>
                    <path d="M38.5225,4.32179 C38.2665,4.32179 38.0595,4.11479 38.0595,3.85879 C38.0595,3.60279 38.2665,3.39579 38.5225,3.39579 C38.7785,3.39579 38.9855,3.60279 38.9855,3.85879 C38.9855,4.11479 38.7785,4.32179 38.5225,4.32179" id="Fill-44" fill="#1D96DD"></path>
                    <g id="Group-48" transform="translate(37.000000, 0.935790)">
                        <mask id="mask-12" fill="white">
                            <use xlink:href="#path-11"></use>
                        </mask>
                        <g id="Clip-47"></g>
                        <path d="M3.1069,4.7356 C4.2709,4.3206 4.8789,3.0396 4.4639,1.8756 C4.0489,0.7116 2.7679,0.1046 1.6039,0.5196 C0.4399,0.9346 -0.1681,2.2146 0.2469,3.3786 C0.6619,4.5426 1.9429,5.1506 3.1069,4.7356" id="Fill-46" fill="#1D96DD" mask="url(#mask-12)"></path>
                    </g>
                </g>
                <g id="Page-1" transform="translate(106.655010, 89.895551) rotate(-52.000000) translate(-106.655010, -89.895551) translate(79.655010, 75.895551)">
                    <path d="M50.1305,1.1806 C50.1125,1.1806 50.0975,1.1666 50.0975,1.1486 C50.0975,1.1306 50.1125,1.1156 50.1305,1.1156 C50.1485,1.1156 50.1625,1.1306 50.1625,1.1486 C50.1625,1.1666 50.1485,1.1806 50.1305,1.1806" id="Fill-3" fill="#1D96DD"></path>
                    <path d="M48.0094,1.1738 C47.9824,1.1738 47.9604,1.1518 47.9604,1.1248 C47.9604,1.0978 47.9824,1.0768 48.0094,1.0768 C48.0364,1.0768 48.0584,1.0978 48.0584,1.1248 C48.0584,1.1518 48.0364,1.1738 48.0094,1.1738" id="Fill-5" fill="#1D96DD"></path>
                    <path d="M45.8853,1.1679 C45.8493,1.1679 45.8203,1.1389 45.8203,1.1029 C45.8203,1.0669 45.8493,1.0379 45.8853,1.0379 C45.9213,1.0379 45.9503,1.0669 45.9503,1.1029 C45.9503,1.1389 45.9213,1.1679 45.8853,1.1679" id="Fill-7" fill="#1D96DD"></path>
                    <path d="M43.7623,1.167 C43.7173,1.167 43.6813,1.131 43.6813,1.086 C43.6813,1.041 43.7173,1.005 43.7623,1.005 C43.8073,1.005 43.8433,1.041 43.8433,1.086 C43.8433,1.131 43.8073,1.167 43.7623,1.167" id="Fill-9" fill="#1D96DD"></path>
                    <g id="Group-13" transform="translate(41.000000, 0.902900)">
                        <mask id="mask-14" fill="white">
                            <use xlink:href="#path-13"></use>
                        </mask>
                        <g id="Clip-12"></g>
                        <path d="M0.6375,0.2919 C0.5835,0.2919 0.5405,0.2479 0.5405,0.1949 C0.5405,0.1409 0.5835,0.0969 0.6375,0.0969 C0.6915,0.0969 0.7355,0.1409 0.7355,0.1949 C0.7355,0.2479 0.6915,0.2919 0.6375,0.2919" id="Fill-11" fill="#1D96DD" mask="url(#mask-14)"></path>
                    </g>
                    <path d="M39.5138,1.2463 C39.4508,1.2463 39.3998,1.1953 39.3998,1.1323 C39.3998,1.0703 39.4508,1.0193 39.5138,1.0193 C39.5768,1.0193 39.6268,1.0703 39.6268,1.1323 C39.6268,1.1953 39.5768,1.2463 39.5138,1.2463" id="Fill-14" fill="#1D96DD"></path>
                    <path d="M37.3929,1.3366 C37.3209,1.3366 37.2629,1.2786 37.2629,1.2066 C37.2629,1.1346 37.3209,1.0766 37.3929,1.0766 C37.4649,1.0766 37.5229,1.1346 37.5229,1.2066 C37.5229,1.2786 37.4649,1.3366 37.3929,1.3366" id="Fill-16" fill="#1D96DD"></path>
                    <path d="M35.2708,1.4799 C35.1898,1.4799 35.1248,1.4149 35.1248,1.3339 C35.1248,1.2529 35.1898,1.1879 35.2708,1.1879 C35.3518,1.1879 35.4168,1.2529 35.4168,1.3339 C35.4168,1.4149 35.3518,1.4799 35.2708,1.4799" id="Fill-18" fill="#1D96DD"></path>
                    <path d="M33.1537,1.6794 C33.0637,1.6794 32.9917,1.6064 32.9917,1.5174 C32.9917,1.4274 33.0637,1.3544 33.1537,1.3544 C33.2437,1.3544 33.3157,1.4274 33.3157,1.5174 C33.3157,1.6064 33.2437,1.6794 33.1537,1.6794" id="Fill-20" fill="#1D96DD"></path>
                    <path d="M31.0416,1.9348 C30.9426,1.9348 30.8626,1.8548 30.8626,1.7568 C30.8626,1.6578 30.9426,1.5778 31.0416,1.5778 C31.1406,1.5778 31.2196,1.6578 31.2196,1.7568 C31.2196,1.8548 31.1406,1.9348 31.0416,1.9348" id="Fill-22" fill="#1D96DD"></path>
                    <path d="M28.9412,2.281 C28.8332,2.281 28.7462,2.194 28.7462,2.086 C28.7462,1.978 28.8332,1.891 28.9412,1.891 C29.0492,1.891 29.1362,1.978 29.1362,2.086 C29.1362,2.194 29.0492,2.281 28.9412,2.281" id="Fill-24" fill="#1D96DD"></path>
                    <path d="M26.8578,2.7155 C26.7408,2.7155 26.6468,2.6215 26.6468,2.5045 C26.6468,2.3875 26.7408,2.2935 26.8578,2.2935 C26.9738,2.2935 27.0688,2.3875 27.0688,2.5045 C27.0688,2.6215 26.9738,2.7155 26.8578,2.7155" id="Fill-26" fill="#1D96DD"></path>
                    <path d="M24.8004,3.2688 C24.6744,3.2688 24.5734,3.1668 24.5734,3.0418 C24.5734,2.9158 24.6744,2.8138 24.8004,2.8138 C24.9254,2.8138 25.0274,2.9158 25.0274,3.0418 C25.0274,3.1668 24.9254,3.2688 24.8004,3.2688" id="Fill-28" fill="#1D96DD"></path>
                    <path d="M22.7813,3.946 C22.6463,3.946 22.5373,3.837 22.5373,3.702 C22.5373,3.568 22.6463,3.459 22.7813,3.459 C22.9163,3.459 23.0243,3.568 23.0243,3.702 C23.0243,3.837 22.9163,3.946 22.7813,3.946" id="Fill-30" fill="#1D96DD"></path>
                    <path d="M20.805,4.7456 C20.662,4.7456 20.545,4.6296 20.545,4.4856 C20.545,4.3426 20.662,4.2256 20.805,4.2256 C20.948,4.2256 21.065,4.3426 21.065,4.4856 C21.065,4.6296 20.948,4.7456 20.805,4.7456" id="Fill-32" fill="#1D96DD"></path>
                    <path d="M18.9193,5.7468 C18.7673,5.7468 18.6433,5.6238 18.6433,5.4708 C18.6433,5.3188 18.7673,5.1948 18.9193,5.1948 C19.0723,5.1948 19.1953,5.3188 19.1953,5.4708 C19.1953,5.6238 19.0723,5.7468 18.9193,5.7468" id="Fill-34" fill="#1D96DD"></path>
                    <path d="M17.0946,6.861 C16.9336,6.861 16.8026,6.73 16.8026,6.569 C16.8026,6.407 16.9336,6.277 17.0946,6.277 C17.2556,6.277 17.3866,6.407 17.3866,6.569 C17.3866,6.73 17.2556,6.861 17.0946,6.861" id="Fill-36" fill="#1D96DD"></path>
                    <path d="M15.3573,8.1023 C15.1873,8.1023 15.0493,7.9643 15.0493,7.7933 C15.0493,7.6233 15.1873,7.4853 15.3573,7.4853 C15.5273,7.4853 15.6653,7.6233 15.6653,7.7933 C15.6653,7.9643 15.5273,8.1023 15.3573,8.1023" id="Fill-38" fill="#1D96DD"></path>
                    <path d="M13.7162,9.4694 C13.5372,9.4694 13.3912,9.3244 13.3912,9.1444 C13.3912,8.9654 13.5372,8.8204 13.7162,8.8204 C13.8952,8.8204 14.0402,8.9654 14.0402,9.1444 C14.0402,9.3244 13.8952,9.4694 13.7162,9.4694" id="Fill-40" fill="#1D96DD"></path>
                    <path d="M12.1749,10.9499 C11.9869,10.9499 11.8339,10.7969 11.8339,10.6089 C11.8339,10.4209 11.9869,10.2679 12.1749,10.2679 C12.3629,10.2679 12.5159,10.4209 12.5159,10.6089 C12.5159,10.7969 12.3629,10.9499 12.1749,10.9499" id="Fill-42" fill="#1D96DD"></path>
                    <path d="M10.7371,12.5324 C10.5401,12.5324 10.3801,12.3724 10.3801,12.1754 C10.3801,11.9784 10.5401,11.8184 10.7371,11.8184 C10.9341,11.8184 11.0941,11.9784 11.0941,12.1754 C11.0941,12.3724 10.9341,12.5324 10.7371,12.5324" id="Fill-44" fill="#1D96DD"></path>
                    <path d="M9.401,14.2024 C9.195,14.2024 9.028,14.0354 9.028,13.8294 C9.028,13.6224 9.195,13.4554 9.401,13.4554 C9.607,13.4554 9.774,13.6224 9.774,13.8294 C9.774,14.0354 9.607,14.2024 9.401,14.2024" id="Fill-46" fill="#1D96DD"></path>
                    <path d="M8.1573,15.9463 C7.9423,15.9463 7.7673,15.7723 7.7673,15.5563 C7.7673,15.3413 7.9423,15.1673 8.1573,15.1673 C8.3723,15.1673 8.5473,15.3413 8.5473,15.5563 C8.5473,15.7723 8.3723,15.9463 8.1573,15.9463" id="Fill-48" fill="#1D96DD"></path>
                    <path d="M6.9954,17.7429 C6.7714,17.7429 6.5894,17.5609 6.5894,17.3369 C6.5894,17.1129 6.7714,16.9309 6.9954,16.9309 C7.2194,16.9309 7.4014,17.1129 7.4014,17.3369 C7.4014,17.5609 7.2194,17.7429 6.9954,17.7429" id="Fill-50" fill="#1D96DD"></path>
                    <path d="M5.8961,19.5791 C5.6631,19.5791 5.4741,19.3901 5.4741,19.1571 C5.4741,18.9241 5.6631,18.7351 5.8961,18.7351 C6.1291,18.7351 6.3181,18.9241 6.3181,19.1571 C6.3181,19.3901 6.1291,19.5791 5.8961,19.5791" id="Fill-52" fill="#1D96DD"></path>
                    <path d="M4.8358,21.4406 C4.5938,21.4406 4.3978,21.2446 4.3978,21.0026 C4.3978,20.7606 4.5938,20.5636 4.8358,20.5636 C5.0778,20.5636 5.2738,20.7606 5.2738,21.0026 C5.2738,21.2446 5.0778,21.4406 4.8358,21.4406" id="Fill-54" fill="#1D96DD"></path>
                    <path d="M3.7979,23.3147 C3.5469,23.3147 3.3429,23.1107 3.3429,22.8597 C3.3429,22.6087 3.5469,22.4057 3.7979,22.4057 C4.0489,22.4057 4.2529,22.6087 4.2529,22.8597 C4.2529,23.1107 4.0489,23.3147 3.7979,23.3147" id="Fill-56" fill="#1D96DD"></path>
                    <path d="M2.7677,25.1909 C2.5077,25.1909 2.2967,24.9799 2.2967,24.7199 C2.2967,24.4599 2.5077,24.2499 2.7677,24.2499 C3.0277,24.2499 3.2387,24.4599 3.2387,24.7199 C3.2387,24.9799 3.0277,25.1909 2.7677,25.1909" id="Fill-58" fill="#1D96DD"></path>
                    <path d="M0.2921,24.5595 C-0.3179,25.6345 0.0591,27.0005 1.1331,27.6105 C2.2081,28.2205 3.5751,27.8445 4.1851,26.7695 C4.7951,25.6945 4.4181,24.3285 3.3431,23.7185 C2.2681,23.1085 0.9021,23.4845 0.2921,24.5595" id="Fill-60" fill="#1D96DD"></path>
                </g>
                <g id="Page-1" transform="translate(95.181905, 110.172610) rotate(103.000000) translate(-95.181905, -110.172610) translate(53.681905, 84.672610)">
                    <g id="Group-3" transform="translate(0.000000, 48.727300)">
                        <mask id="mask-16" fill="white">
                            <use xlink:href="#path-15"></use>
                        </mask>
                        <g id="Clip-2"></g>
                        <path d="M0.9705,0.2141 L0.9595,0.2031 C0.9595,0.1971 0.9645,0.1931 0.9645,0.1931 C0.9765,0.1931 0.9805,0.1971 0.9805,0.2031 C0.9805,0.2031 0.9765,0.2141 0.9705,0.2141" id="Fill-1" fill="#1D96DD" mask="url(#mask-16)"></path>
                    </g>
                    <path d="M2.9351,48.1436 C2.9231,48.1436 2.9141,48.1336 2.9141,48.1226 C2.9141,48.1106 2.9231,48.1006 2.9351,48.1006 C2.9471,48.1006 2.9561,48.1106 2.9561,48.1226 C2.9561,48.1336 2.9471,48.1436 2.9351,48.1436" id="Fill-4" fill="#1D96DD"></path>
                    <path d="M4.9061,47.3589 C4.8881,47.3589 4.8741,47.3449 4.8741,47.3269 C4.8741,47.3089 4.8881,47.2949 4.9061,47.2949 C4.9241,47.2949 4.9381,47.3089 4.9381,47.3269 C4.9381,47.3449 4.9241,47.3589 4.9061,47.3589" id="Fill-6" fill="#1D96DD"></path>
                    <path d="M6.8819,46.5864 C6.8589,46.5864 6.8399,46.5674 6.8399,46.5434 C6.8399,46.5204 6.8589,46.5014 6.8819,46.5014 C6.9049,46.5014 6.9239,46.5204 6.9239,46.5434 C6.9239,46.5674 6.9049,46.5864 6.8819,46.5864" id="Fill-8" fill="#1D96DD"></path>
                    <path d="M8.8638,45.8301 C8.8348,45.8301 8.8108,45.8061 8.8108,45.7771 C8.8108,45.7471 8.8348,45.7241 8.8638,45.7241 C8.8928,45.7241 8.9168,45.7471 8.9168,45.7771 C8.9168,45.8061 8.8928,45.8301 8.8638,45.8301" id="Fill-10" fill="#1D96DD"></path>
                    <path d="M10.8497,45.0835 C10.8147,45.0835 10.7857,45.0545 10.7857,45.0195 C10.7857,44.9845 10.8147,44.9555 10.8497,44.9555 C10.8847,44.9555 10.9137,44.9845 10.9137,45.0195 C10.9137,45.0545 10.8847,45.0835 10.8497,45.0835" id="Fill-12" fill="#1D96DD"></path>
                    <path d="M12.8257,44.3208 C12.7847,44.3208 12.7517,44.2878 12.7517,44.2458 C12.7517,44.2048 12.7847,44.1718 12.8257,44.1718 C12.8667,44.1718 12.9007,44.2048 12.9007,44.2458 C12.9007,44.2878 12.8667,44.3208 12.8257,44.3208" id="Fill-14" fill="#1D96DD"></path>
                    <path d="M14.7986,43.5403 C14.7516,43.5403 14.7136,43.5023 14.7136,43.4553 C14.7136,43.4083 14.7516,43.3703 14.7986,43.3703 C14.8456,43.3703 14.8836,43.4083 14.8836,43.4553 C14.8836,43.5023 14.8456,43.5403 14.7986,43.5403" id="Fill-16" fill="#1D96DD"></path>
                    <path d="M16.7674,42.7498 C16.7144,42.7498 16.6714,42.7068 16.6714,42.6538 C16.6714,42.6008 16.7144,42.5588 16.7674,42.5588 C16.8204,42.5588 16.8634,42.6008 16.8634,42.6538 C16.8634,42.7068 16.8204,42.7498 16.7674,42.7498" id="Fill-18" fill="#1D96DD"></path>
                    <path d="M18.7349,41.9617 C18.6759,41.9617 18.6289,41.9137 18.6289,41.8557 C18.6289,41.7967 18.6759,41.7487 18.7349,41.7487 C18.7939,41.7487 18.8419,41.7967 18.8419,41.8557 C18.8419,41.9137 18.7939,41.9617 18.7349,41.9617" id="Fill-20" fill="#1D96DD"></path>
                    <path d="M20.7049,41.1736 C20.6399,41.1736 20.5879,41.1216 20.5879,41.0566 C20.5879,40.9916 20.6399,40.9396 20.7049,40.9396 C20.7699,40.9396 20.8219,40.9916 20.8219,41.0566 C20.8219,41.1216 20.7699,41.1736 20.7049,41.1736" id="Fill-22" fill="#1D96DD"></path>
                    <path d="M22.6753,40.3865 C22.6043,40.3865 22.5473,40.3295 22.5473,40.2585 C22.5473,40.1885 22.6043,40.1315 22.6753,40.1315 C22.7463,40.1315 22.8033,40.1885 22.8033,40.2585 C22.8033,40.3295 22.7463,40.3865 22.6753,40.3865" id="Fill-24" fill="#1D96DD"></path>
                    <path d="M24.6526,39.6157 C24.5766,39.6157 24.5146,39.5537 24.5146,39.4777 C24.5146,39.4007 24.5766,39.3387 24.6526,39.3387 C24.7286,39.3387 24.7906,39.4007 24.7906,39.4777 C24.7906,39.5537 24.7286,39.6157 24.6526,39.6157" id="Fill-26" fill="#1D96DD"></path>
                    <path d="M26.6346,38.8677 C26.5526,38.8677 26.4856,38.8007 26.4856,38.7187 C26.4856,38.6367 26.5526,38.5697 26.6346,38.5697 C26.7166,38.5697 26.7836,38.6367 26.7836,38.7187 C26.7836,38.8007 26.7166,38.8677 26.6346,38.8677" id="Fill-28" fill="#1D96DD"></path>
                    <path d="M28.6292,38.1472 C28.5412,38.1472 28.4692,38.0752 28.4692,37.9872 C28.4692,37.8992 28.5412,37.8282 28.6292,37.8282 C28.7172,37.8282 28.7882,37.8992 28.7882,37.9872 C28.7882,38.0752 28.7172,38.1472 28.6292,38.1472" id="Fill-30" fill="#1D96DD"></path>
                    <path d="M30.637,37.4556 C30.543,37.4556 30.467,37.3796 30.467,37.2856 C30.467,37.1916 30.543,37.1146 30.637,37.1146 C30.731,37.1146 30.807,37.1916 30.807,37.2856 C30.807,37.3796 30.731,37.4556 30.637,37.4556" id="Fill-32" fill="#1D96DD"></path>
                    <path d="M32.6558,36.7881 C32.5558,36.7881 32.4748,36.7071 32.4748,36.6071 C32.4748,36.5071 32.5558,36.4261 32.6558,36.4261 C32.7558,36.4261 32.8368,36.5071 32.8368,36.6071 C32.8368,36.7071 32.7558,36.7881 32.6558,36.7881" id="Fill-34" fill="#1D96DD"></path>
                    <path d="M34.6824,36.1477 C34.5764,36.1477 34.4904,36.0617 34.4904,35.9567 C34.4904,35.8507 34.5764,35.7647 34.6824,35.7647 C34.7884,35.7647 34.8734,35.8507 34.8734,35.9567 C34.8734,36.0617 34.7884,36.1477 34.6824,36.1477" id="Fill-36" fill="#1D96DD"></path>
                    <path d="M36.7154,35.5366 C36.6034,35.5366 36.5134,35.4466 36.5134,35.3346 C36.5134,35.2226 36.6034,35.1326 36.7154,35.1326 C36.8274,35.1326 36.9174,35.2226 36.9174,35.3346 C36.9174,35.4466 36.8274,35.5366 36.7154,35.5366" id="Fill-38" fill="#1D96DD"></path>
                    <path d="M38.7574,34.9556 C38.6404,34.9556 38.5444,34.8606 38.5444,34.7426 C38.5444,34.6256 38.6404,34.5296 38.7574,34.5296 C38.8754,34.5296 38.9704,34.6256 38.9704,34.7426 C38.9704,34.8606 38.8754,34.9556 38.7574,34.9556" id="Fill-40" fill="#1D96DD"></path>
                    <path d="M40.8079,34.4041 C40.6839,34.4041 40.5849,34.3041 40.5849,34.1811 C40.5849,34.0571 40.6839,33.9571 40.8079,33.9571 C40.9309,33.9571 41.0309,34.0571 41.0309,34.1811 C41.0309,34.3041 40.9309,34.4041 40.8079,34.4041" id="Fill-42" fill="#1D96DD"></path>
                    <path d="M42.8663,33.8826 C42.7373,33.8826 42.6323,33.7776 42.6323,33.6486 C42.6323,33.5196 42.7373,33.4146 42.8663,33.4146 C42.9953,33.4146 43.1003,33.5196 43.1003,33.6486 C43.1003,33.7776 42.9953,33.8826 42.8663,33.8826" id="Fill-44" fill="#1D96DD"></path>
                    <path d="M44.9332,33.3943 C44.7982,33.3943 44.6882,33.2853 44.6882,33.1493 C44.6882,33.0143 44.7982,32.9053 44.9332,32.9053 C45.0682,32.9053 45.1782,33.0143 45.1782,33.1493 C45.1782,33.2853 45.0682,33.3943 44.9332,33.3943" id="Fill-46" fill="#1D96DD"></path>
                    <path d="M47.0049,32.9334 C46.8639,32.9334 46.7499,32.8184 46.7499,32.6784 C46.7499,32.5374 46.8639,32.4224 47.0049,32.4224 C47.1459,32.4224 47.2599,32.5374 47.2599,32.6784 C47.2599,32.8184 47.1459,32.9334 47.0049,32.9334" id="Fill-48" fill="#1D96DD"></path>
                    <path d="M49.0623,32.407 C48.9153,32.407 48.7963,32.288 48.7963,32.141 C48.7963,31.994 48.9153,31.875 49.0623,31.875 C49.2093,31.875 49.3283,31.994 49.3283,32.141 C49.3283,32.288 49.2093,32.407 49.0623,32.407" id="Fill-50" fill="#1D96DD"></path>
                    <path d="M51.0899,31.7849 C50.9369,31.7849 50.8129,31.6609 50.8129,31.5079 C50.8129,31.3559 50.9369,31.2319 51.0899,31.2319 C51.2429,31.2319 51.3669,31.3559 51.3669,31.5079 C51.3669,31.6609 51.2429,31.7849 51.0899,31.7849" id="Fill-52" fill="#1D96DD"></path>
                    <path d="M53.0809,31.0493 C52.9229,31.0493 52.7939,30.9203 52.7939,30.7623 C52.7939,30.6033 52.9229,30.4753 53.0809,30.4753 C53.2399,30.4753 53.3679,30.6033 53.3679,30.7623 C53.3679,30.9203 53.2399,31.0493 53.0809,31.0493" id="Fill-54" fill="#1D96DD"></path>
                    <path d="M55.0264,30.2053 C54.8624,30.2053 54.7284,30.0723 54.7284,29.9073 C54.7284,29.7433 54.8624,29.6093 55.0264,29.6093 C55.1914,29.6093 55.3244,29.7433 55.3244,29.9073 C55.3244,30.0723 55.1914,30.2053 55.0264,30.2053" id="Fill-56" fill="#1D96DD"></path>
                    <path d="M56.9205,29.2539 C56.7495,29.2539 56.6115,29.1159 56.6115,28.9459 C56.6115,28.7749 56.7495,28.6369 56.9205,28.6369 C57.0905,28.6369 57.2285,28.7749 57.2285,28.9459 C57.2285,29.1159 57.0905,29.2539 56.9205,29.2539" id="Fill-58" fill="#1D96DD"></path>
                    <path d="M58.7625,28.2026 C58.5865,28.2026 58.4435,28.0596 58.4435,27.8836 C58.4435,27.7076 58.5865,27.5646 58.7625,27.5646 C58.9385,27.5646 59.0815,27.7076 59.0815,27.8836 C59.0815,28.0596 58.9385,28.2026 58.7625,28.2026" id="Fill-60" fill="#1D96DD"></path>
                    <path d="M60.5489,27.0608 C60.3669,27.0608 60.2189,26.9128 60.2189,26.7308 C60.2189,26.5488 60.3669,26.4008 60.5489,26.4008 C60.7309,26.4008 60.8789,26.5488 60.8789,26.7308 C60.8789,26.9128 60.7309,27.0608 60.5489,27.0608" id="Fill-62" fill="#1D96DD"></path>
                    <path d="M62.2767,25.833 C62.0887,25.833 61.9367,25.681 61.9367,25.493 C61.9367,25.304 62.0887,25.152 62.2767,25.152 C62.4647,25.152 62.6167,25.304 62.6167,25.493 C62.6167,25.681 62.4647,25.833 62.2767,25.833" id="Fill-64" fill="#1D96DD"></path>
                    <path d="M63.9456,24.5281 C63.7516,24.5281 63.5946,24.3711 63.5946,24.1771 C63.5946,23.9831 63.7516,23.8261 63.9456,23.8261 C64.1396,23.8261 64.2966,23.9831 64.2966,24.1771 C64.2966,24.3711 64.1396,24.5281 63.9456,24.5281" id="Fill-66" fill="#1D96DD"></path>
                    <path d="M65.5555,23.1545 C65.3555,23.1545 65.1935,22.9925 65.1935,22.7925 C65.1935,22.5925 65.3555,22.4315 65.5555,22.4315 C65.7555,22.4315 65.9175,22.5925 65.9175,22.7925 C65.9175,22.9925 65.7555,23.1545 65.5555,23.1545" id="Fill-68" fill="#1D96DD"></path>
                    <path d="M67.1131,21.7161 C66.9071,21.7161 66.7411,21.5491 66.7411,21.3441 C66.7411,21.1381 66.9071,20.9711 67.1131,20.9711 C67.3191,20.9711 67.4851,21.1381 67.4851,21.3441 C67.4851,21.5491 67.3191,21.7161 67.1131,21.7161" id="Fill-70" fill="#1D96DD"></path>
                    <path d="M68.6165,20.2195 C68.4045,20.2195 68.2335,20.0485 68.2335,19.8365 C68.2335,19.6255 68.4045,19.4535 68.6165,19.4535 C68.8275,19.4535 68.9995,19.6255 68.9995,19.8365 C68.9995,20.0485 68.8275,20.2195 68.6165,20.2195" id="Fill-72" fill="#1D96DD"></path>
                    <path d="M70.063,18.6721 C69.846,18.6721 69.67,18.4961 69.67,18.2791 C69.67,18.0611 69.846,17.8851 70.063,17.8851 C70.281,17.8851 70.457,18.0611 70.457,18.2791 C70.457,18.4961 70.281,18.6721 70.063,18.6721" id="Fill-74" fill="#1D96DD"></path>
                    <path d="M71.4546,17.0752 C71.2316,17.0752 71.0506,16.8942 71.0506,16.6712 C71.0506,16.4472 71.2316,16.2662 71.4546,16.2662 C71.6776,16.2662 71.8586,16.4472 71.8586,16.6712 C71.8586,16.8942 71.6776,17.0752 71.4546,17.0752" id="Fill-76" fill="#1D96DD"></path>
                    <path d="M72.7898,15.4312 C72.5608,15.4312 72.3748,15.2452 72.3748,15.0162 C72.3748,14.7872 72.5608,14.6012 72.7898,14.6012 C73.0188,14.6012 73.2048,14.7872 73.2048,15.0162 C73.2048,15.2452 73.0188,15.4312 72.7898,15.4312" id="Fill-78" fill="#1D96DD"></path>
                    <path d="M74.075,13.7483 C73.84,13.7483 73.65,13.5573 73.65,13.3233 C73.65,13.0873 73.84,12.8973 74.075,12.8973 C74.31,12.8973 74.501,13.0873 74.501,13.3233 C74.501,13.5573 74.31,13.7483 74.075,13.7483" id="Fill-80" fill="#1D96DD"></path>
                    <path d="M75.3106,12.0283 C75.0696,12.0283 74.8746,11.8333 74.8746,11.5923 C74.8746,11.3513 75.0696,11.1563 75.3106,11.1563 C75.5516,11.1563 75.7466,11.3513 75.7466,11.5923 C75.7466,11.8333 75.5516,12.0283 75.3106,12.0283" id="Fill-82" fill="#1D96DD"></path>
                    <path d="M76.4952,10.2727 C76.2482,10.2727 76.0482,10.0727 76.0482,9.8257 C76.0482,9.5787 76.2482,9.3797 76.4952,9.3797 C76.7422,9.3797 76.9422,9.5787 76.9422,9.8257 C76.9422,10.0727 76.7422,10.2727 76.4952,10.2727" id="Fill-84" fill="#1D96DD"></path>
                    <path d="M77.6263,8.4822 C77.3733,8.4822 77.1693,8.2772 77.1693,8.0242 C77.1693,7.7722 77.3733,7.5672 77.6263,7.5672 C77.8793,7.5672 78.0833,7.7722 78.0833,8.0242 C78.0833,8.2772 77.8793,8.4822 77.6263,8.4822" id="Fill-86" fill="#1D96DD"></path>
                    <path d="M78.7056,6.6607 C78.4476,6.6607 78.2376,6.4507 78.2376,6.1927 C78.2376,5.9337 78.4476,5.7247 78.7056,5.7247 C78.9646,5.7247 79.1736,5.9337 79.1736,6.1927 C79.1736,6.4507 78.9646,6.6607 78.7056,6.6607" id="Fill-88" fill="#1D96DD"></path>
                    <path d="M79.7486,4.8154 C79.4846,4.8154 79.2706,4.6014 79.2706,4.3364 C79.2706,4.0724 79.4846,3.8574 79.7486,3.8574 C80.0126,3.8574 80.2276,4.0724 80.2276,4.3364 C80.2276,4.6014 80.0126,4.8154 79.7486,4.8154" id="Fill-90" fill="#1D96DD"></path>
                    <g id="Group-94" transform="translate(78.000000, 0.727300)">
                        <mask id="mask-18" fill="white">
                            <use xlink:href="#path-17"></use>
                        </mask>
                        <g id="Clip-93"></g>
                        <path d="M4.3228,3.5425 C4.8928,2.4455 4.4648,1.0945 3.3678,0.5245 C2.2708,-0.0445 0.9198,0.3835 0.3498,1.4795 C-0.2192,2.5765 0.2078,3.9275 1.3048,4.4975 C2.4018,5.0665 3.7528,4.6395 4.3228,3.5425" id="Fill-92" fill="#1D96DD" mask="url(#mask-18)"></path>
                    </g>
                </g>
                <g id="Page-1" transform="translate(77.827650, 86.000000) rotate(52.000000) translate(-77.827650, -86.000000) translate(-4.172350, 52.000000)">
                    <path d="M17.0312,2.5899 C17.0032,2.5899 16.9802,2.5669 16.9802,2.5389 C16.9802,2.5109 17.0032,2.4879 17.0312,2.4879 C17.0592,2.4879 17.0822,2.5109 17.0822,2.5389 C17.0822,2.5669 17.0592,2.5899 17.0312,2.5899" id="Fill-18" fill="#1D96DD"></path>
                    <path d="M18.9636,3.4817 C18.9326,3.4817 18.9066,3.4567 18.9066,3.4247 C18.9066,3.3937 18.9326,3.3687 18.9636,3.3687 C18.9946,3.3687 19.0206,3.3937 19.0206,3.4247 C19.0206,3.4567 18.9946,3.4817 18.9636,3.4817" id="Fill-20" fill="#1D96DD"></path>
                    <path d="M20.8352,4.491 C20.8002,4.491 20.7732,4.463 20.7732,4.429 C20.7732,4.394 20.8002,4.366 20.8352,4.366 C20.8692,4.366 20.8972,4.394 20.8972,4.429 C20.8972,4.463 20.8692,4.491 20.8352,4.491" id="Fill-22" fill="#1D96DD"></path>
                    <path d="M22.6398,5.6192 C22.6018,5.6192 22.5718,5.5892 22.5718,5.5512 C22.5718,5.5142 22.6018,5.4832 22.6398,5.4832 C22.6778,5.4832 22.7078,5.5142 22.7078,5.5512 C22.7078,5.5892 22.6778,5.6192 22.6398,5.6192" id="Fill-24" fill="#1D96DD"></path>
                    <path d="M24.4043,6.8103 C24.3633,6.8103 24.3303,6.7773 24.3303,6.7363 C24.3303,6.6963 24.3633,6.6633 24.4043,6.6633 C24.4443,6.6633 24.4773,6.6963 24.4773,6.7363 C24.4773,6.7773 24.4443,6.8103 24.4043,6.8103" id="Fill-26" fill="#1D96DD"></path>
                    <path d="M26.1315,8.0489 C26.0875,8.0489 26.0525,8.0129 26.0525,7.9699 C26.0525,7.9259 26.0875,7.8899 26.1315,7.8899 C26.1755,7.8899 26.2105,7.9259 26.2105,7.9699 C26.2105,8.0129 26.1755,8.0489 26.1315,8.0489" id="Fill-28" fill="#1D96DD"></path>
                    <path d="M27.8344,9.3272 C27.7874,9.3272 27.7494,9.2892 27.7494,9.2422 C27.7494,9.1952 27.7874,9.1572 27.8344,9.1572 C27.8814,9.1572 27.9194,9.1952 27.9194,9.2422 C27.9194,9.2892 27.8814,9.3272 27.8344,9.3272" id="Fill-30" fill="#1D96DD"></path>
                    <path d="M29.5129,10.6321 C29.4629,10.6321 29.4219,10.5911 29.4219,10.5411 C29.4219,10.4911 29.4629,10.4511 29.5129,10.4511 C29.5629,10.4511 29.6039,10.4911 29.6039,10.5411 C29.6039,10.5911 29.5629,10.6321 29.5129,10.6321" id="Fill-32" fill="#1D96DD"></path>
                    <path d="M31.177,11.961 C31.124,11.961 31.081,11.918 31.081,11.864 C31.081,11.811 31.124,11.768 31.177,11.768 C31.23,11.768 31.273,11.811 31.273,11.864 C31.273,11.918 31.23,11.961 31.177,11.961" id="Fill-34" fill="#1D96DD"></path>
                    <path d="M32.8247,13.3042 C32.7687,13.3042 32.7227,13.2582 32.7227,13.2022 C32.7227,13.1462 32.7687,13.1002 32.8247,13.1002 C32.8807,13.1002 32.9267,13.1462 32.9267,13.2022 C32.9267,13.2582 32.8807,13.3042 32.8247,13.3042" id="Fill-36" fill="#1D96DD"></path>
                    <path d="M34.4658,14.6607 C34.4058,14.6607 34.3578,14.6127 34.3578,14.5527 C34.3578,14.4937 34.4058,14.4447 34.4658,14.4447 C34.5248,14.4447 34.5738,14.4937 34.5738,14.5527 C34.5738,14.6127 34.5248,14.6607 34.4658,14.6607" id="Fill-38" fill="#1D96DD"></path>
                    <path d="M36.0981,16.0237 C36.0351,16.0237 35.9851,15.9727 35.9851,15.9107 C35.9851,15.8477 36.0351,15.7967 36.0981,15.7967 C36.1601,15.7967 36.2111,15.8477 36.2111,15.9107 C36.2111,15.9727 36.1601,16.0237 36.0981,16.0237" id="Fill-40" fill="#1D96DD"></path>
                    <path d="M37.726,17.3941 C37.66,17.3941 37.607,17.3411 37.607,17.2751 C37.607,17.2091 37.66,17.1561 37.726,17.1561 C37.792,17.1561 37.845,17.2091 37.845,17.2751 C37.845,17.3411 37.792,17.3941 37.726,17.3941" id="Fill-42" fill="#1D96DD"></path>
                    <path d="M39.3508,18.7708 C39.2818,18.7708 39.2258,18.7148 39.2258,18.6458 C39.2258,18.5768 39.2818,18.5208 39.3508,18.5208 C39.4198,18.5208 39.4758,18.5768 39.4758,18.6458 C39.4758,18.7148 39.4198,18.7708 39.3508,18.7708" id="Fill-44" fill="#1D96DD"></path>
                    <path d="M40.9707,20.1497 C40.8987,20.1497 40.8407,20.0917 40.8407,20.0197 C40.8407,19.9477 40.8987,19.8887 40.9707,19.8887 C41.0427,19.8887 41.1007,19.9477 41.1007,20.0197 C41.1007,20.0917 41.0427,20.1497 40.9707,20.1497" id="Fill-46" fill="#1D96DD"></path>
                    <path d="M42.5903,21.531 C42.5153,21.531 42.4543,21.47 42.4543,21.395 C42.4543,21.32 42.5153,21.259 42.5903,21.259 C42.6653,21.259 42.7263,21.32 42.7263,21.395 C42.7263,21.47 42.6653,21.531 42.5903,21.531" id="Fill-48" fill="#1D96DD"></path>
                    <path d="M44.2102,22.9136 C44.1322,22.9136 44.0682,22.8506 44.0682,22.7716 C44.0682,22.6936 44.1322,22.6306 44.2102,22.6306 C44.2882,22.6306 44.3522,22.6936 44.3522,22.7716 C44.3522,22.8506 44.2882,22.9136 44.2102,22.9136" id="Fill-50" fill="#1D96DD"></path>
                    <path d="M45.8254,24.2979 C45.7444,24.2979 45.6784,24.2319 45.6784,24.1499 C45.6784,24.0689 45.7444,24.0029 45.8254,24.0029 C45.9064,24.0029 45.9724,24.0689 45.9724,24.1499 C45.9724,24.2319 45.9064,24.2979 45.8254,24.2979" id="Fill-52" fill="#1D96DD"></path>
                    <path d="M47.4357,25.6902 C47.3507,25.6902 47.2827,25.6222 47.2827,25.5372 C47.2827,25.4522 47.3507,25.3842 47.4357,25.3842 C47.5207,25.3842 47.5887,25.4522 47.5887,25.5372 C47.5887,25.6222 47.5207,25.6902 47.4357,25.6902" id="Fill-54" fill="#1D96DD"></path>
                    <path d="M49.0459,27.084 C48.9579,27.084 48.8869,27.013 48.8869,26.925 C48.8869,26.838 48.9579,26.767 49.0459,26.767 C49.1339,26.767 49.2049,26.838 49.2049,26.925 C49.2049,27.013 49.1339,27.084 49.0459,27.084" id="Fill-56" fill="#1D96DD"></path>
                    <path d="M50.6601,28.4724 C50.5691,28.4724 50.4961,28.3994 50.4961,28.3084 C50.4961,28.2174 50.5691,28.1434 50.6601,28.1434 C50.7511,28.1434 50.8251,28.2174 50.8251,28.3084 C50.8251,28.3994 50.7511,28.4724 50.6601,28.4724" id="Fill-58" fill="#1D96DD"></path>
                    <path d="M52.2707,29.8658 C52.1767,29.8658 52.1007,29.7898 52.1007,29.6958 C52.1007,29.6018 52.1767,29.5258 52.2707,29.5258 C52.3647,29.5258 52.4407,29.6018 52.4407,29.6958 C52.4407,29.7898 52.3647,29.8658 52.2707,29.8658" id="Fill-60" fill="#1D96DD"></path>
                    <path d="M53.8752,31.2657 C53.7782,31.2657 53.6992,31.1867 53.6992,31.0897 C53.6992,30.9927 53.7782,30.9147 53.8752,30.9147 C53.9722,30.9147 54.0512,30.9927 54.0512,31.0897 C54.0512,31.1867 53.9722,31.2657 53.8752,31.2657" id="Fill-62" fill="#1D96DD"></path>
                    <path d="M55.4768,32.6695 C55.3768,32.6695 55.2958,32.5885 55.2958,32.4885 C55.2958,32.3875 55.3768,32.3065 55.4768,32.3065 C55.5768,32.3065 55.6578,32.3875 55.6578,32.4885 C55.6578,32.5885 55.5768,32.6695 55.4768,32.6695" id="Fill-64" fill="#1D96DD"></path>
                    <path d="M57.0771,34.0742 C56.9741,34.0742 56.8901,33.9902 56.8901,33.8872 C56.8901,33.7842 56.9741,33.7002 57.0771,33.7002 C57.1801,33.7002 57.2641,33.7842 57.2641,33.8872 C57.2641,33.9902 57.1801,34.0742 57.0771,34.0742" id="Fill-66" fill="#1D96DD"></path>
                    <path d="M58.6787,35.4781 C58.5727,35.4781 58.4857,35.3921 58.4857,35.2851 C58.4857,35.1791 58.5727,35.0931 58.6787,35.0931 C58.7847,35.0931 58.8717,35.1791 58.8717,35.2851 C58.8717,35.3921 58.7847,35.4781 58.6787,35.4781" id="Fill-68" fill="#1D96DD"></path>
                    <path d="M60.2815,36.8802 C60.1715,36.8802 60.0825,36.7912 60.0825,36.6822 C60.0825,36.5722 60.1715,36.4832 60.2815,36.4832 C60.3905,36.4832 60.4795,36.5722 60.4795,36.6822 C60.4795,36.7912 60.3905,36.8802 60.2815,36.8802" id="Fill-70" fill="#1D96DD"></path>
                    <path d="M61.8859,38.2805 C61.7729,38.2805 61.6819,38.1895 61.6819,38.0765 C61.6819,37.9635 61.7729,37.8725 61.8859,37.8725 C61.9989,37.8725 62.0899,37.9635 62.0899,38.0765 C62.0899,38.1895 61.9989,38.2805 61.8859,38.2805" id="Fill-72" fill="#1D96DD"></path>
                    <path d="M63.4926,39.6783 C63.3766,39.6783 63.2826,39.5843 63.2826,39.4683 C63.2826,39.3523 63.3766,39.2583 63.4926,39.2583 C63.6086,39.2583 63.7026,39.3523 63.7026,39.4683 C63.7026,39.5843 63.6086,39.6783 63.4926,39.6783" id="Fill-74" fill="#1D96DD"></path>
                    <path d="M65.1027,41.0723 C64.9837,41.0723 64.8877,40.9763 64.8877,40.8573 C64.8877,40.7383 64.9837,40.6413 65.1027,40.6413 C65.2217,40.6413 65.3177,40.7383 65.3177,40.8573 C65.3177,40.9763 65.2217,41.0723 65.1027,41.0723" id="Fill-76" fill="#1D96DD"></path>
                    <path d="M66.7153,42.4605 C66.5933,42.4605 66.4943,42.3615 66.4943,42.2395 C66.4943,42.1175 66.5933,42.0185 66.7153,42.0185 C66.8373,42.0185 66.9363,42.1175 66.9363,42.2395 C66.9363,42.3615 66.8373,42.4605 66.7153,42.4605" id="Fill-78" fill="#1D96DD"></path>
                    <path d="M68.3305,43.8426 C68.2055,43.8426 68.1035,43.7406 68.1035,43.6156 C68.1035,43.4906 68.2055,43.3886 68.3305,43.3886 C68.4555,43.3886 68.5575,43.4906 68.5575,43.6156 C68.5575,43.7406 68.4555,43.8426 68.3305,43.8426" id="Fill-80" fill="#1D96DD"></path>
                    <path d="M69.9514,45.2185 C69.8234,45.2185 69.7194,45.1145 69.7194,44.9865 C69.7194,44.8575 69.8234,44.7535 69.9514,44.7535 C70.0794,44.7535 70.1834,44.8575 70.1834,44.9865 C70.1834,45.1145 70.0794,45.2185 69.9514,45.2185" id="Fill-82" fill="#1D96DD"></path>
                    <path d="M71.5969,46.5716 C71.4659,46.5716 71.3589,46.4646 71.3589,46.3336 C71.3589,46.2026 71.4659,46.0956 71.5969,46.0956 C71.7289,46.0956 71.8349,46.2026 71.8349,46.3336 C71.8349,46.4646 71.7289,46.5716 71.5969,46.5716" id="Fill-84" fill="#1D96DD"></path>
                    <path d="M73.2778,47.8863 C73.1438,47.8863 73.0338,47.7773 73.0338,47.6423 C73.0338,47.5083 73.1438,47.3983 73.2778,47.3983 C73.4128,47.3983 73.5218,47.5083 73.5218,47.6423 C73.5218,47.7773 73.4128,47.8863 73.2778,47.8863" id="Fill-86" fill="#1D96DD"></path>
                    <path d="M74.9943,49.1475 C74.8563,49.1475 74.7453,49.0355 74.7453,48.8985 C74.7453,48.7605 74.8563,48.6485 74.9943,48.6485 C75.1323,48.6485 75.2443,48.7605 75.2443,48.8985 C75.2443,49.0355 75.1323,49.1475 74.9943,49.1475" id="Fill-88" fill="#1D96DD"></path>
                    <path d="M76.75,50.3528 C76.609,50.3528 76.495,50.2388 76.495,50.0978 C76.495,49.9568 76.609,49.8428 76.75,49.8428 C76.891,49.8428 77.005,49.9568 77.005,50.0978 C77.005,50.2388 76.891,50.3528 76.75,50.3528" id="Fill-90" fill="#1D96DD"></path>
                    <path d="M78.5449,51.4998 C78.4009,51.4998 78.2839,51.3828 78.2839,51.2388 C78.2839,51.0948 78.4009,50.9788 78.5449,50.9788 C78.6889,50.9788 78.8059,51.0948 78.8059,51.2388 C78.8059,51.3828 78.6889,51.4998 78.5449,51.4998" id="Fill-92" fill="#1D96DD"></path>
                    <path d="M80.3762,52.5855 C80.2292,52.5855 80.1102,52.4665 80.1102,52.3185 C80.1102,52.1715 80.2292,52.0525 80.3762,52.0525 C80.5232,52.0525 80.6422,52.1715 80.6422,52.3185 C80.6422,52.4665 80.5232,52.5855 80.3762,52.5855" id="Fill-94" fill="#1D96DD"></path>
                    <path d="M82.2424,53.6101 C82.0924,53.6101 81.9704,53.4881 81.9704,53.3381 C81.9704,53.1881 82.0924,53.0661 82.2424,53.0661 C82.3924,53.0661 82.5144,53.1881 82.5144,53.3381 C82.5144,53.4881 82.3924,53.6101 82.2424,53.6101" id="Fill-96" fill="#1D96DD"></path>
                    <path d="M84.1406,54.5735 C83.9876,54.5735 83.8626,54.4485 83.8626,54.2955 C83.8626,54.1425 83.9876,54.0175 84.1406,54.0175 C84.2936,54.0175 84.4186,54.1425 84.4186,54.2955 C84.4186,54.4485 84.2936,54.5735 84.1406,54.5735" id="Fill-98" fill="#1D96DD"></path>
                    <path d="M86.0678,55.4778 C85.9108,55.4778 85.7848,55.3508 85.7848,55.1948 C85.7848,55.0378 85.9108,54.9108 86.0678,54.9108 C86.2238,54.9108 86.3508,55.0378 86.3508,55.1948 C86.3508,55.3508 86.2238,55.4778 86.0678,55.4778" id="Fill-100" fill="#1D96DD"></path>
                    <path d="M88.0214,56.3238 C87.8614,56.3238 87.7324,56.1938 87.7324,56.0348 C87.7324,55.8748 87.8614,55.7458 88.0214,55.7458 C88.1814,55.7458 88.3104,55.8748 88.3104,56.0348 C88.3104,56.1938 88.1814,56.3238 88.0214,56.3238" id="Fill-102" fill="#1D96DD"></path>
                    <path d="M89.9997,57.1087 C89.8367,57.1087 89.7047,56.9767 89.7047,56.8137 C89.7047,56.6507 89.8367,56.5187 89.9997,56.5187 C90.1627,56.5187 90.2947,56.6507 90.2947,56.8137 C90.2947,56.9767 90.1627,57.1087 89.9997,57.1087" id="Fill-104" fill="#1D96DD"></path>
                    <path d="M91.9958,57.8477 C91.8298,57.8477 91.6958,57.7127 91.6958,57.5467 C91.6958,57.3817 91.8298,57.2467 91.9958,57.2467 C92.1618,57.2467 92.2968,57.3817 92.2968,57.5467 C92.2968,57.7127 92.1618,57.8477 91.9958,57.8477" id="Fill-106" fill="#1D96DD"></path>
                    <path d="M94.0078,58.5413 C93.8388,58.5413 93.7018,58.4043 93.7018,58.2353 C93.7018,58.0663 93.8388,57.9293 94.0078,57.9293 C94.1768,57.9293 94.3138,58.0663 94.3138,58.2353 C94.3138,58.4043 94.1768,58.5413 94.0078,58.5413" id="Fill-108" fill="#1D96DD"></path>
                    <path d="M96.0349,59.1892 C95.8629,59.1892 95.7229,59.0492 95.7229,58.8772 C95.7229,58.7052 95.8629,58.5652 96.0349,58.5652 C96.2069,58.5652 96.3469,58.7052 96.3469,58.8772 C96.3469,59.0492 96.2069,59.1892 96.0349,59.1892" id="Fill-110" fill="#1D96DD"></path>
                    <path d="M98.0747,59.7969 C97.8997,59.7969 97.7577,59.6549 97.7577,59.4799 C97.7577,59.3039 97.8997,59.1619 98.0747,59.1619 C98.2497,59.1619 98.3927,59.3039 98.3927,59.4799 C98.3927,59.6549 98.2497,59.7969 98.0747,59.7969" id="Fill-112" fill="#1D96DD"></path>
                    <path d="M100.1254,60.3636 C99.9474,60.3636 99.8024,60.2186 99.8024,60.0406 C99.8024,59.8616 99.9474,59.7176 100.1254,59.7176 C100.3044,59.7176 100.4484,59.8616 100.4484,60.0406 C100.4484,60.2186 100.3044,60.3636 100.1254,60.3636" id="Fill-114" fill="#1D96DD"></path>
                    <path d="M102.1857,60.896 C102.0047,60.896 101.8567,60.749 101.8567,60.567 C101.8567,60.386 102.0047,60.239 102.1857,60.239 C102.3677,60.239 102.5147,60.386 102.5147,60.567 C102.5147,60.749 102.3677,60.896 102.1857,60.896" id="Fill-116" fill="#1D96DD"></path>
                    <path d="M104.2531,61.3985 C104.0691,61.3985 103.9191,61.2485 103.9191,61.0635 C103.9191,60.8795 104.0691,60.7295 104.2531,60.7295 C104.4381,60.7295 104.5881,60.8795 104.5881,61.0635 C104.5881,61.2485 104.4381,61.3985 104.2531,61.3985" id="Fill-118" fill="#1D96DD"></path>
                    <path d="M106.3278,61.8723 C106.1398,61.8723 105.9878,61.7203 105.9878,61.5323 C105.9878,61.3443 106.1398,61.1923 106.3278,61.1923 C106.5158,61.1923 106.6678,61.3443 106.6678,61.5323 C106.6678,61.7203 106.5158,61.8723 106.3278,61.8723" id="Fill-120" fill="#1D96DD"></path>
                    <path d="M108.4077,62.3203 C108.2167,62.3203 108.0617,62.1653 108.0617,61.9743 C108.0617,61.7833 108.2167,61.6283 108.4077,61.6283 C108.5987,61.6283 108.7537,61.7833 108.7537,61.9743 C108.7537,62.1653 108.5987,62.3203 108.4077,62.3203" id="Fill-122" fill="#1D96DD"></path>
                    <path d="M110.4931,62.7429 C110.2991,62.7429 110.1411,62.5859 110.1411,62.3919 C110.1411,62.1979 110.2991,62.0399 110.4931,62.0399 C110.6871,62.0399 110.8441,62.1979 110.8441,62.3919 C110.8441,62.5859 110.6871,62.7429 110.4931,62.7429" id="Fill-124" fill="#1D96DD"></path>
                    <path d="M112.5825,63.1438 C112.3855,63.1438 112.2255,62.9838 112.2255,62.7868 C112.2255,62.5898 112.3855,62.4298 112.5825,62.4298 C112.7795,62.4298 112.9395,62.5898 112.9395,62.7868 C112.9395,62.9838 112.7795,63.1438 112.5825,63.1438" id="Fill-126" fill="#1D96DD"></path>
                    <path d="M114.6765,63.5225 C114.4755,63.5225 114.3135,63.3605 114.3135,63.1595 C114.3135,62.9595 114.4755,62.7965 114.6765,62.7965 C114.8765,62.7965 115.0395,62.9595 115.0395,63.1595 C115.0395,63.3605 114.8765,63.5225 114.6765,63.5225" id="Fill-128" fill="#1D96DD"></path>
                    <path d="M116.7758,63.8799 C116.5728,63.8799 116.4078,63.7149 116.4078,63.5119 C116.4078,63.3079 116.5728,63.1429 116.7758,63.1429 C116.9788,63.1429 117.1438,63.3079 117.1438,63.5119 C117.1438,63.7149 116.9788,63.8799 116.7758,63.8799" id="Fill-130" fill="#1D96DD"></path>
                    <path d="M118.8798,64.2149 C118.6728,64.2149 118.5058,64.0479 118.5058,63.8409 C118.5058,63.6339 118.6728,63.4669 118.8798,63.4669 C119.0868,63.4669 119.2538,63.6339 119.2538,63.8409 C119.2538,64.0479 119.0868,64.2149 118.8798,64.2149" id="Fill-132" fill="#1D96DD"></path>
                    <path d="M120.9858,64.5257 C120.7758,64.5257 120.6058,64.3557 120.6058,64.1457 C120.6058,63.9367 120.7758,63.7657 120.9858,63.7657 C121.1958,63.7657 121.3658,63.9367 121.3658,64.1457 C121.3658,64.3557 121.1958,64.5257 120.9858,64.5257" id="Fill-134" fill="#1D96DD"></path>
                    <path d="M123.0981,64.8108 C122.8851,64.8108 122.7131,64.6378 122.7131,64.4258 C122.7131,64.2128 122.8851,64.0398 123.0981,64.0398 C123.3111,64.0398 123.4831,64.2128 123.4831,64.4258 C123.4831,64.6378 123.3111,64.8108 123.0981,64.8108" id="Fill-136" fill="#1D96DD"></path>
                    <path d="M125.2126,65.0701 C124.9966,65.0701 124.8216,64.8951 124.8216,64.6791 C124.8216,64.4631 124.9966,64.2881 125.2126,64.2881 C125.4286,64.2881 125.6036,64.4631 125.6036,64.6791 C125.6036,64.8951 125.4286,65.0701 125.2126,65.0701" id="Fill-138" fill="#1D96DD"></path>
                    <path d="M127.3281,65.3042 C127.1091,65.3042 126.9311,65.1262 126.9311,64.9072 C126.9311,64.6882 127.1091,64.5112 127.3281,64.5112 C127.5471,64.5112 127.7251,64.6882 127.7251,64.9072 C127.7251,65.1262 127.5471,65.3042 127.3281,65.3042" id="Fill-140" fill="#1D96DD"></path>
                    <path d="M129.4458,65.5105 C129.2228,65.5105 129.0428,65.3305 129.0428,65.1085 C129.0428,64.8865 129.2228,64.7055 129.4458,64.7055 C129.6678,64.7055 129.8478,64.8865 129.8478,65.1085 C129.8478,65.3305 129.6678,65.5105 129.4458,65.5105" id="Fill-142" fill="#1D96DD"></path>
                    <path d="M131.5671,65.6909 C131.3421,65.6909 131.1591,65.5079 131.1591,65.2829 C131.1591,65.0569 131.3421,64.8749 131.5671,64.8749 C131.7931,64.8749 131.9751,65.0569 131.9751,65.2829 C131.9751,65.5079 131.7931,65.6909 131.5671,65.6909" id="Fill-144" fill="#1D96DD"></path>
                    <path d="M133.6892,65.8396 C133.4602,65.8396 133.2752,65.6546 133.2752,65.4256 C133.2752,65.1976 133.4602,65.0116 133.6892,65.0116 C133.9182,65.0116 134.1032,65.1976 134.1032,65.4256 C134.1032,65.6546 133.9182,65.8396 133.6892,65.8396" id="Fill-146" fill="#1D96DD"></path>
                    <g id="Group-150" transform="translate(135.000000, 65.018300)">
                        <mask id="mask-20" fill="white">
                            <use xlink:href="#path-19"></use>
                        </mask>
                        <g id="Clip-149"></g>
                        <path d="M0.8156,0.9312 C0.5836,0.9312 0.3966,0.7432 0.3966,0.5122 C0.3966,0.2802 0.5836,0.0922 0.8156,0.0922 C1.0476,0.0922 1.2356,0.2802 1.2356,0.5122 C1.2356,0.7432 1.0476,0.9312 0.8156,0.9312" id="Fill-148" fill="#1D96DD" mask="url(#mask-20)"></path>
                    </g>
                    <g id="Group-153" transform="translate(137.000000, 65.018300)">
                        <mask id="mask-22" fill="white">
                            <use xlink:href="#path-21"></use>
                        </mask>
                        <g id="Clip-152"></g>
                        <path d="M0.9443,0.9881 C0.7093,0.9881 0.5193,0.7981 0.5193,0.5631 C0.5193,0.3281 0.7093,0.1381 0.9443,0.1381 C1.1793,0.1381 1.3693,0.3281 1.3693,0.5631 C1.3693,0.7981 1.1793,0.9881 0.9443,0.9881" id="Fill-151" fill="#1D96DD" mask="url(#mask-22)"></path>
                    </g>
                    <g id="Group-156" transform="translate(139.000000, 65.018300)">
                        <mask id="mask-24" fill="white">
                            <use xlink:href="#path-23"></use>
                        </mask>
                        <g id="Clip-155"></g>
                        <path d="M1.0705,1 C0.8325,1 0.6395,0.807 0.6395,0.569 C0.6395,0.331 0.8325,0.139 1.0705,0.139 C1.3085,0.139 1.5015,0.331 1.5015,0.569 C1.5015,0.807 1.3085,1 1.0705,1" id="Fill-154" fill="#1D96DD" mask="url(#mask-24)"></path>
                    </g>
                    <g id="Group-159" transform="translate(141.000000, 65.018300)">
                        <mask id="mask-26" fill="white">
                            <use xlink:href="#path-25"></use>
                        </mask>
                        <g id="Clip-158"></g>
                        <path d="M1.197,0.961 C0.956,0.961 0.76,0.766 0.76,0.525 C0.76,0.283 0.956,0.088 1.197,0.088 C1.438,0.088 1.633,0.283 1.633,0.525 C1.633,0.766 1.438,0.961 1.197,0.961" id="Fill-157" fill="#1D96DD" mask="url(#mask-26)"></path>
                    </g>
                    <path d="M144.3195,65.8609 C144.0755,65.8609 143.8775,65.6629 143.8775,65.4189 C143.8775,65.1749 144.0755,64.9769 144.3195,64.9769 C144.5635,64.9769 144.7615,65.1749 144.7615,65.4189 C144.7615,65.6629 144.5635,65.8609 144.3195,65.8609" id="Fill-160" fill="#1D96DD"></path>
                    <path d="M146.4353,65.6302 C146.1883,65.6302 145.9873,65.4302 145.9873,65.1822 C145.9873,64.9352 146.1883,64.7342 146.4353,64.7342 C146.6823,64.7342 146.8833,64.9352 146.8833,65.1822 C146.8833,65.4302 146.6823,65.6302 146.4353,65.6302" id="Fill-162" fill="#1D96DD"></path>
                    <path d="M148.54,65.3057 C148.29,65.3057 148.086,65.1027 148.086,64.8517 C148.086,64.6017 148.29,64.3987 148.54,64.3987 C148.791,64.3987 148.993,64.6017 148.993,64.8517 C148.993,65.1027 148.791,65.3057 148.54,65.3057" id="Fill-164" fill="#1D96DD"></path>
                    <path d="M150.6247,64.8943 C150.3717,64.8943 150.1657,64.6883 150.1657,64.4353 C150.1657,64.1813 150.3717,63.9763 150.6247,63.9763 C150.8787,63.9763 151.0837,64.1813 151.0837,64.4353 C151.0837,64.6883 150.8787,64.8943 150.6247,64.8943" id="Fill-166" fill="#1D96DD"></path>
                    <path d="M152.6948,64.4029 C152.4378,64.4029 152.2298,64.1949 152.2298,63.9379 C152.2298,63.6809 152.4378,63.4729 152.6948,63.4729 C152.9518,63.4729 153.1598,63.6809 153.1598,63.9379 C153.1598,64.1949 152.9518,64.4029 152.6948,64.4029" id="Fill-168" fill="#1D96DD"></path>
                    <path d="M154.7441,63.8384 C154.4841,63.8384 154.2741,63.6274 154.2741,63.3674 C154.2741,63.1084 154.4841,62.8974 154.7441,62.8974 C155.0041,62.8974 155.2151,63.1084 155.2151,63.3674 C155.2151,63.6274 155.0041,63.8384 154.7441,63.8384" id="Fill-170" fill="#1D96DD"></path>
                    <path d="M156.7768,63.2115 C156.5138,63.2115 156.3008,62.9985 156.3008,62.7355 C156.3008,62.4725 156.5138,62.2595 156.7768,62.2595 C157.0398,62.2595 157.2528,62.4725 157.2528,62.7355 C157.2528,62.9985 157.0398,63.2115 156.7768,63.2115" id="Fill-172" fill="#1D96DD"></path>
                    <path d="M158.7893,62.5301 C158.5233,62.5301 158.3073,62.3141 158.3073,62.0481 C158.3073,61.7821 158.5233,61.5661 158.7893,61.5661 C159.0553,61.5661 159.2713,61.7821 159.2713,62.0481 C159.2713,62.3141 159.0553,62.5301 158.7893,62.5301" id="Fill-174" fill="#1D96DD"></path>
                    <path d="M160.8029,61.8399 C160.5339,61.8399 160.3149,61.6219 160.3149,61.3519 C160.3149,61.0829 160.5339,60.8649 160.8029,60.8649 C161.0719,60.8649 161.2909,61.0829 161.2909,61.3519 C161.2909,61.6219 161.0719,61.8399 160.8029,61.8399" id="Fill-176" fill="#1D96DD"></path>
                    <path d="M162.4631,63.1509 C163.6321,62.7489 164.2531,61.4749 163.8521,60.3069 C163.4501,59.1379 162.1761,58.5159 161.0071,58.9179 C159.8391,59.3199 159.2171,60.5939 159.6191,61.7619 C160.0211,62.9309 161.2941,63.5529 162.4631,63.1509" id="Fill-178" fill="#1D96DD"></path>
                </g>
            </g>
        </g>
    </g>
</svg>