<svg width="30" height="29" viewBox="0 0 30 29" xmlns="http://www.w3.org/2000/svg" xmlns:xlink="http://www.w3.org/1999/xlink"><title>Githab_logo</title><defs><path id="a" d="M0 28.796h29.617V0H0z"/></defs><g fill="none" fill-rule="evenodd"><mask id="b" fill="#fff"><use xlink:href="#a"/></mask><path d="M14.808 0C6.63 0 0 6.61 0 14.763c0 6.522 4.243 12.055 10.128 14.008.74.135 1.01-.321 1.01-.713 0-.35-.012-1.278-.02-2.51-4.118.892-4.988-1.98-4.988-1.98-.673-1.704-1.644-2.159-1.644-2.159-1.345-.915.102-.897.102-.897 1.486.104 2.268 1.522 2.268 1.522 1.32 2.255 3.466 1.604 4.31 1.227.134-.955.516-1.605.94-1.974-3.288-.373-6.746-1.64-6.746-7.296 0-1.612.578-2.93 1.525-3.962-.153-.373-.66-1.874.145-3.906 0 0 1.243-.397 4.072 1.513a14.187 14.187 0 0 1 3.708-.497c1.257.006 2.524.169 3.707.497 2.827-1.91 4.068-1.513 4.068-1.513.808 2.032.3 3.533.147 3.906.95 1.033 1.523 2.35 1.523 3.962 0 5.671-3.463 6.919-6.762 7.284.532.456 1.006 1.357 1.006 2.734 0 1.973-.019 3.565-.019 4.05 0 .395.267.854 1.019.71 5.88-1.957 10.119-7.486 10.119-14.006C29.618 6.609 22.987 0 14.808 0" fill="#CCE4F3" mask="url(#b)"/></g></svg>