<svg width="182" height="31" viewBox="0 0 182 31" xmlns="http://www.w3.org/2000/svg" xmlns:xlink="http://www.w3.org/1999/xlink"><title>logo</title><defs><path id="a" d="M14.566 14.833V.062H.037v14.77h14.529z"/><path id="c" d="M29.816 30.331H0V.018h29.816v30.313z"/></defs><g fill="none" fill-rule="evenodd"><path d="M47.834 15.253c0-2.472-1.997-4.473-4.4-4.473-2.43 0-4.398 2.001-4.398 4.473 0 2.442 1.968 4.472 4.399 4.472 2.402 0 4.4-2.03 4.4-4.472zm2.865 7.385c0 4.06-3.27 7.386-7.264 7.386-2.807 0-5.297-1.59-6.54-4.15-.348-.735-.059-1.588.665-1.941a1.426 1.426 0 0 1 1.91.647c.753 1.56 2.257 2.53 3.965 2.53 2.402 0 4.341-1.97 4.4-4.384v-1.618c-1.245.942-2.75 1.53-4.4 1.53-4.023 0-7.265-3.325-7.265-7.385 0-4.09 3.242-7.386 7.265-7.386 3.994 0 7.264 3.296 7.264 7.386v7.385zm4.863-7.385c0 2.442 1.968 4.472 4.398 4.472 2.432 0 4.4-2.03 4.4-4.472 0-2.472-1.968-4.473-4.4-4.473-2.43 0-4.398 2.001-4.398 4.473m-2.866 0c0-4.09 3.27-7.386 7.264-7.386 4.024 0 7.265 3.296 7.265 7.386 0 4.06-3.241 7.385-7.265 7.385-3.993 0-7.264-3.325-7.264-7.385m28.132-.059c0-2.472-1.968-4.473-4.4-4.473-2.43 0-4.398 2.001-4.398 4.444v.029c0 2.472 1.968 4.472 4.399 4.472s4.4-2.03 4.4-4.472m2.864 0c0 4.06-3.24 7.385-7.264 7.385-3.994 0-7.265-3.325-7.265-7.385V1.983a1.432 1.432 0 1 1 2.865 0v7.326a7.176 7.176 0 0 1 4.4-1.5c4.023 0 7.264 3.295 7.264 7.385m5.067-1.412h8.363c-.607-2.06-2.46-3.002-4.196-3.002-1.94 0-3.56 1.266-4.168 3.002m11.432 1.47c0 .795-.636 1.443-1.447 1.443h-9.985c.608 1.765 2.229 3.03 4.168 3.03.665 0 1.852-.059 3.241-.97.666-.442 1.563-.03 1.91.676.348.735-.029 1.5-.695 1.942-1.91 1.295-3.385 1.265-4.456 1.265-4.023 0-7.265-3.325-7.265-7.385 0-4.09 3.242-7.386 7.265-7.386 3.502 0 7.264 2.59 7.264 7.386m10.217-5.914c0 .794-.637 1.47-1.447 1.47h-2.055v10.387c0 .795-.637 1.472-1.447 1.472-.782 0-1.418-.677-1.418-1.472V10.81h-2.084c-.782 0-1.418-.677-1.418-1.471 0-.795.636-1.442 1.418-1.442h2.084V2.012a1.432 1.432 0 1 1 2.865 0v5.885h2.055c.81 0 1.447.647 1.447 1.442m22.343.559l-4.34 11.77c-.233.558-.783.97-1.39.97a1.438 1.438 0 0 1-1.36-.97l-3.01-8.151-2.981 8.15c-.232.56-.782.971-1.39.971a1.438 1.438 0 0 1-1.36-.97l-4.341-11.77c-.29-.765.087-1.619.84-1.884.723-.294 1.562.089 1.823.854l3.038 8.209 3.01-8.15c.145-.412.434-.765.868-.913.145-.058.29-.088.434-.088h.319s0 .03.029.03h.058c.029 0 .029 0 .058.029h.058c.029.03.029.03.057.03.406.147.724.5.84.912l3.01 8.15 3.039-8.21c.29-.764 1.1-1.147 1.852-.853.723.265 1.1 1.119.84 1.884m3.965 3.884h8.363c-.607-2.06-2.46-3.002-4.196-3.002-1.939 0-3.56 1.266-4.167 3.002m11.431 1.47c0 .795-.636 1.443-1.447 1.443h-9.984c.607 1.765 2.228 3.03 4.167 3.03.665 0 1.852-.059 3.242-.97.665-.442 1.562-.03 1.91.676.347.735-.03 1.5-.695 1.942-1.91 1.295-3.386 1.265-4.457 1.265-4.023 0-7.264-3.325-7.264-7.385 0-4.09 3.241-7.386 7.264-7.386 3.502 0 7.264 2.59 7.264 7.386m5.124-1.471h8.364c-.608-2.06-2.46-3.002-4.197-3.002-1.939 0-3.56 1.266-4.167 3.002m11.432 1.47a1.44 1.44 0 0 1-1.448 1.443h-9.984c.607 1.765 2.228 3.03 4.167 3.03.666 0 1.852-.059 3.242-.97.665-.442 1.563-.03 1.91.676.347.735-.029 1.5-.695 1.942-1.91 1.295-3.386 1.265-4.457 1.265-4.023 0-7.264-3.325-7.264-7.385 0-4.09 3.241-7.386 7.264-7.386 3.502 0 7.265 2.59 7.265 7.386" fill="#FEFEFE"/><g transform="translate(166.692 7.805)"><mask id="b" fill="#fff"><use xlink:href="#a"/></mask><path d="M14.566 7.447v5.915c0 .823-.637 1.47-1.447 1.47-.782 0-1.418-.647-1.418-1.47V7.447c0-2.471-1.968-4.472-4.4-4.472-2.43 0-4.399 2.001-4.399 4.472v5.915c0 .823-.636 1.47-1.447 1.47-.781 0-1.418-.647-1.418-1.47V7.447c0-4.09 3.27-7.385 7.264-7.385s7.265 3.296 7.265 7.385" fill="#FEFEFE" mask="url(#b)"/></g><path d="M20.053 14.15h-7.839a1.41 1.41 0 0 1-1.397-1.422c0-.785.625-1.42 1.397-1.42h7.09l1.204-1.835a1.384 1.384 0 0 1 1.938-.394c.643.435.816 1.317.388 1.97l-1.618 2.467c-.26.396-.696.633-1.163.633M8.144 21.714a1.37 1.37 0 0 1-.774-.239 1.435 1.435 0 0 1-.388-1.97l1.619-2.468a1.392 1.392 0 0 1 1.163-.633h7.838A1.41 1.41 0 0 1 19 17.824a1.41 1.41 0 0 1-1.398 1.422h-7.09L9.307 21.08a1.39 1.39 0 0 1-1.164.633" fill="#FEFEFE"/><g transform="translate(0 .102)"><mask id="d" fill="#fff"><use xlink:href="#c"/></mask><path d="M14.908 2.86C8.23 2.86 2.795 8.384 2.795 15.175c0 6.79 5.434 12.315 12.113 12.315 6.68 0 12.113-5.525 12.113-12.315 0-6.79-5.434-12.315-12.113-12.315m0 27.471C6.688 30.331 0 23.532 0 15.175 0 6.817 6.688.018 14.908.018c8.22 0 14.908 6.8 14.908 15.157S23.128 30.33 14.908 30.33" fill="#FEFEFE" mask="url(#d)"/></g></g></svg>