<?xml version="1.0" encoding="UTF-8" standalone="no"?>
<svg width="47px" height="57px" viewBox="0 0 47 57" version="1.1" xmlns="http://www.w3.org/2000/svg" xmlns:xlink="http://www.w3.org/1999/xlink">
    <!-- Generator: Sketch 39.1 (31720) - http://www.bohemiancoding.com/sketch -->
    <title>Darwin_logo</title>
    <desc>Created with Sketch.</desc>
    <defs></defs>
    <g id="Downloads" stroke="none" stroke-width="1" fill="none" fill-rule="evenodd">
        <g id="Downloads_desctop" transform="translate(-855.000000, -361.000000)">
            <g id="Group" transform="translate(388.000000, 361.000000)">
                <g id="Darwin_logo" transform="translate(467.000000, 0.000000)">
                    <g id="Group-3" transform="translate(0.000000, 0.068171)" fill="#231F1F">
                        <path d="M11.312524,33.4056112 C11.2874573,33.3557602 11.199724,33.318372 11.162124,33.3806857 L12.666124,51.1151696 C13.4682573,50.1804639 14.7090573,50.1056874 15.6490573,49.5074757 C15.1602573,49.1585189 14.7090573,48.6600092 14.7090573,48.036872 C14.9095907,46.3419389 16.200524,45.0956645 17.1154573,43.6998373 L17.1530573,43.5253589 C16.7018573,42.1419943 16.5138573,40.4719867 16.8146573,38.9764575 C16.9023907,38.565187 17.0151907,38.1165282 17.0527907,37.7426459 C16.1002573,38.0542145 14.9095907,38.4405595 13.8943907,37.9919008 C12.3402573,36.8453284 11.8514573,35.0756188 11.312524,33.4056112 L11.312524,33.4056112 Z M7.42719067,0.242250808 L9.87119067,6.33653236 C9.89625733,6.48608528 9.92759067,6.67614212 9.72079067,6.69795192 C9.300924,6.80076956 8.43925733,6.70729898 8.69305733,7.38340281 C9.06905733,10.4118495 9.394924,13.4652216 9.808524,16.4812055 C10.0591907,16.6182957 10.3474573,16.4812055 10.6231907,16.4812055 C12.064524,16.2444134 13.6687907,15.6088135 14.2578573,14.0883588 C14.9847907,11.7079748 14.0071907,9.36497903 12.966924,7.38340281 C12.5282573,7.33355184 12.1647907,7.71989689 11.7010573,7.63265768 L11.613324,7.50803025 L11.3375907,3.0214426 C11.3626573,2.92174065 11.4127907,2.87188968 11.4879907,2.80957596 L11.6759907,2.80957596 L15.5863907,5.80063439 L15.5863907,6.09974024 L14.6839907,6.73534015 L14.6839907,6.88489308 C16.576524,9.27773982 17.7295907,12.767308 16.3007907,15.7583664 C15.1978573,18.014123 12.7162573,18.6123347 10.5855907,19.2354719 L10.0215907,19.3476365 C10.1343907,22.1019028 10.485324,24.8437064 10.6482573,27.6104355 C10.9490573,27.7849139 11.2623907,27.8596903 11.5255907,28.1214079 C12.741324,29.3926078 13.9319907,30.7759723 15.2855907,31.910082 C17.3034573,31.1872428 19.1082573,29.9783567 20.9631907,28.8691726 C20.6498573,28.3955883 20.0858573,27.9593923 20.3991907,27.3113296 C20.8754573,26.5760278 20.9631907,25.6163965 20.8127907,24.7066162 C19.6471907,24.0336281 18.6570573,22.8122792 17.8674573,21.7404833 C16.802124,20.9802559 14.8594573,20.3072678 15.072524,18.6372602 C15.1351907,18.3381543 15.3983907,18.1512132 15.6490573,17.9767348 C15.9874573,17.8521073 16.426124,17.8022564 16.726924,18.0390485 L17.6543907,18.9986797 C17.6431107,18.7643801 17.644364,18.5737002 17.6944973,18.4116845 C17.869964,18.0253395 18.2434573,17.7773309 18.5066573,17.4408368 C18.2058573,17.4408368 17.7183107,17.9119285 17.5666573,17.5903897 C17.478924,17.2912839 17.8047907,17.1168055 17.9927907,16.992178 C18.9202573,16.4687428 19.9354573,16.169637 21.0007907,15.9702331 C21.2263907,15.7334409 21.3391907,15.4467978 21.4143907,15.1352293 C21.513404,14.2578521 21.968364,13.3792287 21.2978307,12.4299415 C20.1572973,10.7350084 19.2711907,8.28072034 20.6122573,6.37392059 C21.8154573,5.21488545 23.4322573,5.0279443 25.0866573,4.94070509 C25.7383907,4.87839138 26.314924,5.01548156 26.9290573,5.05286979 C27.4679907,4.168015 27.9066573,3.08375632 28.9343907,2.57278384 C29.2727907,2.52293286 29.510924,2.74726224 29.6863907,2.99651711 C30.2127907,3.89383464 30.4383907,4.92824235 31.0399907,5.80063439 C33.571724,5.53891678 36.504524,5.35197563 38.5098573,6.88489308 C40.8911907,8.39288504 42.8839907,10.7981945 43.4354573,13.4278334 L43.5858573,13.5150726 C44.6762573,13.5399981 45.6914573,13.4402961 46.5311907,12.8919354 C46.6690573,12.8794727 46.8194573,12.9043982 46.8695907,13.0414883 C47.2706573,14.9856763 46.3682573,16.6930722 45.0271907,18.063974 C44.5634573,18.4627818 44.0495907,18.7369621 43.5231907,18.9986797 C43.347724,20.6936128 42.6458573,22.2639185 41.242124,23.3855654 C39.6378573,24.4947496 37.8831907,25.2549769 36.1911907,26.1398317 C36.2162573,28.2709609 37.0183907,30.1029842 38.1714573,31.760529 C38.0711907,32.0347094 37.8330573,32.1717996 37.632524,32.396129 C36.6047907,33.268521 35.0255907,33.5427014 33.722124,33.0566544 C33.4839907,32.8946387 33.1079907,32.9195642 32.9951907,32.5706074 C32.4186573,30.937988 32.481324,28.9938 32.4938573,27.1617767 C31.2154573,27.5231963 29.8242573,27.5730472 28.7338573,28.3582001 C27.9442573,29.3926078 29.4482573,29.4549215 29.8367907,30.0655959 C31.954924,31.8726937 34.1983907,33.9539719 35.075724,36.4340578 C35.564524,37.7924969 34.9503907,39.1758614 33.9351907,40.1105672 C33.3210573,40.5716887 32.6191907,40.8334063 31.8922573,41.0078847 L31.8922573,41.1325121 C33.1706573,42.790057 33.985324,45.1081273 33.0578573,47.2018682 C32.9826573,47.7128407 32.293324,48.2238132 32.9450573,48.6973974 C33.0703907,48.7970994 33.1330573,49.0962052 33.3335907,48.9965033 C35.5394573,48.0991857 37.7578573,47.2392564 40.2519907,47.0523153 C41.5554573,47.1894054 42.9090573,47.2392564 43.9743907,47.9496328 C44.287724,48.1988877 44.2751907,48.6101582 44.2250573,48.959115 C43.949324,49.7068796 43.1847907,50.2303149 42.5706573,50.7038991 C39.963724,52.261742 36.504524,52.4736087 33.3586573,52.0124872 C32.8071907,51.9127852 32.2807907,51.7632323 31.766924,51.5638284 C31.8170573,52.0249499 31.954924,52.5733106 31.8546573,53.0967459 C31.5914573,54.2433183 30.7767907,55.1655613 29.9871907,56.1127298 C29.3103907,56.7109415 28.3703907,57.2468394 27.4679907,56.7732552 C27.0418573,56.3869101 27.2423907,55.6765337 27.405324,55.2403377 L27.3426573,55.1904868 C26.4402573,55.8385494 25.1994573,56.3245964 24.0714573,55.8136239 C23.8583907,55.6516083 23.833324,55.3898906 23.8583907,55.1904868 C23.3570573,55.227875 22.5047907,55.5394436 22.2039907,54.9163064 C22.066124,54.3430202 22.6050573,53.9317497 23.0186573,53.5952556 C23.5199907,53.2462988 24.1466573,53.1341341 24.6354573,52.6979381 C24.8359907,52.5359224 25.1242573,52.5483851 25.2746573,52.3489812 C24.8610573,52.1371146 24.434924,51.9626362 24.0714573,51.6510676 C23.7079907,51.6510676 23.3695907,51.8380088 23.0186573,51.925248 C21.0634573,52.4736087 19.0330573,52.8350282 17.027724,53.2712243 C16.200524,53.7074203 15.2103907,53.7448085 14.320524,54.0439144 C14.094924,54.0563771 13.8567907,54.0563771 13.6938573,53.9317497 C13.5935907,53.7821967 13.4807907,53.6077183 13.568524,53.4207772 C13.6687907,53.1839851 13.794124,52.9721184 13.9570573,52.7602518 C13.5935907,52.7727145 13.1799907,52.9347302 12.7914573,52.8848792 C12.9042573,53.2587615 12.6911907,53.5080164 12.3903907,53.719883 C11.7511907,54.0813026 10.7735907,54.0937653 10.1719907,53.6326438 L8.73065733,33.4056112 C8.31705733,33.21867 7.99119067,32.7949367 7.91599067,32.3587407 C7.90345733,32.1094859 7.928524,31.8726937 8.003724,31.6483643 C7.702924,31.4738859 7.27679067,31.2246311 7.31439067,30.8133605 C7.326924,30.4893292 7.48985733,30.2151488 7.72799067,30.0282077 C7.46479067,29.8786548 7.18905733,29.5795489 7.12639067,29.2555176 C7.03865733,28.6199177 7.402124,28.1214079 7.91599067,27.7849139 C8.36719067,27.7350629 8.25439067,27.3736433 8.27945733,27.0122238 L7.72799067,19.4971895 L7.67785733,19.4473385 C4.732524,19.4099503 1.58665733,18.5998719 0.358390667,15.7085155 C-0.456276,12.9293237 0.270657333,9.90087699 1.02265733,7.33355184 L0.0951906667,6.82257936 L0.0951906667,6.52347351 C1.22319067,5.35197563 2.250924,4.10570128 3.40399067,2.95912888 C3.54185733,2.9342034 3.65465733,2.99651711 3.70479067,3.1086818 L4.11839067,7.9816145 C3.80505733,8.33057132 3.36639067,7.8943753 2.97785733,7.8943753 C2.82745733,7.80713609 2.664524,7.91930078 2.65199067,8.08131645 C2.08799067,10.4243122 1.33599067,13.8017157 3.51679067,15.6088135 C4.56959067,16.3939663 5.898124,16.5684447 7.251724,16.6307585 C7.18905733,13.4652216 7.03865733,10.2622966 6.92585733,7.08429697 L6.86319067,7.034446 C6.39945733,6.94720679 5.87305733,7.22138715 5.53465733,6.90981856 L5.53465733,6.48608528 C5.99839067,4.39234438 6.41199067,2.26121525 6.92585733,0.17993709 C7.01359067,-0.0319295488 7.35199067,0.0553096555 7.42719067,0.242250808 L7.42719067,0.242250808 Z" id="Fill-1"></path>
                    </g>
                    <path d="M12.4530573,53.31447 C12.0519907,53.700815 11.4879907,53.800517 10.9239907,53.700815 L10.4978573,53.5512621 L9.056524,33.5734843 C9.470124,33.5485588 9.94639067,33.5485588 10.1343907,33.1248256 C10.2722573,32.4518374 9.48265733,32.1153433 9.08159067,31.6791473 C9.658124,31.5420571 9.64559067,30.6322769 10.259724,30.7319788 C10.372524,30.6945906 10.4351907,30.5201122 10.560524,30.5201122 L12.4530573,53.31447 L12.4530573,53.31447 Z M46.7191907,13.5583183 C46.7818573,15.6894475 45.5034573,17.8081138 43.4730573,18.6431177 C42.257324,18.8799098 40.9287907,18.6181922 40.1015907,17.6211727 C39.625324,16.9357218 39.700524,15.8390004 40.038924,15.1161613 C40.3647907,14.3559339 41.1543907,13.8449614 41.9314573,13.7327967 C43.4479907,13.8200359 45.1274573,14.0443653 46.4183907,13.3215262 C46.6314573,13.0473458 46.7066573,13.4087654 46.7191907,13.5583183 L46.7191907,13.5583183 Z M36.4042573,13.5832438 C36.542124,13.8698869 36.5546573,14.206381 36.7551907,14.4556358 C36.9055907,14.4805613 36.9055907,14.2936202 36.8554573,14.2188437 C35.714924,11.1280833 33.195724,8.06224845 30.2002573,6.29253888 L30.2879907,6.23022516 C33.0327907,5.90619383 36.3791907,5.59462524 38.534924,7.42664853 C40.6655907,8.89725226 42.370124,11.0533069 42.896524,13.4336909 C42.6583907,13.4586164 42.4327907,13.2218242 42.2071907,13.1096596 C41.7058573,12.9351811 41.1919907,12.7108518 40.6154573,12.8354792 L40.6154573,12.8728674 C41.1794573,12.9476439 41.7559907,13.0224204 42.2071907,13.3838399 C41.2546573,13.4212281 40.3146573,13.8823496 39.8007907,14.7796672 C39.3119907,15.7143729 39.1239907,17.0977375 39.8634573,17.9825923 C40.6655907,18.8799098 41.730924,19.1790156 42.9215907,19.1540901 C42.8463907,20.375439 42.294924,21.4846232 41.542924,22.4691799 C39.926124,23.8525444 38.0962573,24.7124737 36.2538573,25.5474775 C36.2914573,25.0240423 36.4042573,24.5379953 36.4919907,24.0270228 C36.4543907,24.0020973 36.4167907,23.9397836 36.3666573,23.9647091 L36.3039907,24.0270228 C35.5770573,26.7563637 36.3039907,29.6477201 37.782924,31.8287002 C36.9431907,32.713555 35.827724,33.1248256 34.5618573,32.9752726 C34.1231907,32.8381825 33.5967907,32.7883315 33.2959907,32.4269119 C32.6066573,29.8720495 32.8447907,26.7812891 33.0954573,24.0893365 C33.5215907,20.9362625 34.5242573,18.0324432 34.774924,14.8170554 C34.8751907,11.3648755 31.1527907,9.20882085 28.458124,8.14948766 C26.5655907,7.40172305 23.8458573,7.05276623 22.1162573,8.32396606 L22.2039907,8.41120527 C24.0338573,7.26463287 26.6658573,7.63851517 28.5458573,8.41120527 L28.5458573,8.47351899 C27.104524,8.67292288 25.6631907,8.87232678 24.547724,9.84442077 C23.9711907,9.71979333 23.4698573,10.0064364 23.1063907,10.417707 C22.4671907,11.1779343 22.1538573,12.0877146 21.8655907,12.9601066 C20.6623907,11.290099 19.6847907,8.81001306 20.8754573,6.80351136 C21.9282573,5.65693896 23.4447907,5.54477427 24.9111907,5.35783312 C30.0247907,5.03380179 34.3863907,9.35837377 36.4042573,13.5832438 L36.4042573,13.5832438 Z M29.9370573,4.13648426 C30.150124,4.73469595 30.4383907,5.30798214 30.6890573,5.90619383 C30.3255907,5.89373109 29.9871907,6.03082127 29.661324,6.01835852 C28.8967907,5.63201347 28.0946573,5.35783312 27.254924,5.18335471 C27.3175907,4.79700966 27.6434573,4.44805285 27.8314573,4.07417054 C28.1322573,3.63797452 28.5207907,3.13946478 28.9970573,2.87774717 C29.5735907,3.02730009 29.6863907,3.68782549 29.9370573,4.13648426 L29.9370573,4.13648426 Z M7.22665733,0.784006266 C7.95359067,2.66588053 8.755724,4.53529205 9.44505733,6.4420918 C9.04399067,6.54179375 8.63039067,6.59164472 8.24185733,6.74119764 C8.61785733,10.1684521 9.04399067,13.5707811 9.507724,16.97311 C10.8487907,17.0104983 12.0895907,16.6490787 13.1799907,16.0134788 C14.6338573,15.0538475 15.0474573,13.4710791 14.8594573,11.7886087 C14.6463907,10.0562874 13.944524,8.5358327 13.1423907,7.04030349 L13.0546573,6.97798977 C12.6911907,7.07769172 12.3527907,7.25217013 11.9767907,7.3020211 C11.9015907,6.01835852 11.7386573,4.70977046 11.763724,3.41364514 C12.8791907,4.27357444 14.019724,5.09611551 15.1351907,5.99343304 L15.1351907,6.05574675 L14.1951907,6.74119764 C14.5335907,7.48896225 15.0975907,8.14948766 15.4986573,8.85986403 C16.8146573,10.9536049 17.0402573,14.2188437 15.6490573,16.3375101 C14.0823907,18.1196824 11.9015907,18.6306549 9.74585733,19.1167019 L9.63305733,19.2413293 L10.3223907,27.7907714 C10.259724,28.0400262 9.98399067,28.2643556 9.87119067,28.5136105 C9.74585733,28.6382379 9.770924,28.8625673 9.59545733,28.8999555 C9.45759067,28.2518929 8.40479067,28.87503 8.66799067,28.0400262 L8.02879067,19.2662548 L7.91599067,19.1540901 C5.12105733,19.1540901 2.30105733,18.5932667 0.847190667,16.0384043 C-0.255742667,13.1968988 0.659190667,9.94412271 1.44879067,7.25217013 C1.14799067,7.015378 0.746924,6.90321331 0.508790667,6.65395844 C1.43625733,5.63201347 2.41385733,4.57268028 3.36639067,3.62551178 L3.76745733,7.75067986 C3.35385733,7.73821712 2.94025733,7.56373871 2.50159067,7.55127597 C2.23839067,8.1619504 2.11305733,8.85986403 1.96265733,9.52038944 C1.52399067,11.776146 1.33599067,14.692428 3.51679067,16.1256435 C4.71999067,16.8609453 6.11119067,17.0852747 7.61519067,17.0852747 L7.67785733,17.022961 L7.27679067,6.76612313 L7.18905733,6.70380941 L5.898124,6.74119764 L7.16399067,0.784006266 L7.22665733,0.784006266 L7.22665733,0.784006266 Z" id="Fill-4" fill="#FE5376"></path>
                    <path d="M43.6735907,48.1050432 C43.8615907,48.2296706 44.024524,48.4166118 44.0119907,48.6409412 C44.024524,49.3637803 43.2975907,49.8373646 42.8087907,50.2860233 C40.565324,51.90618 37.6951907,52.1180466 34.774924,51.9934192 C33.6343907,51.8687917 32.5314573,51.6693878 31.5538573,51.1584154 C31.3658573,50.8468468 31.1402573,50.49789 30.9271907,50.1738586 C31.4535907,49.7999763 31.9423907,49.2516156 32.3058573,48.7281804 C32.4938573,48.8528078 32.594124,49.1269882 32.7570573,49.3014666 C33.684524,50.4355762 34.9879907,50.8094585 36.4042573,50.5851292 C36.4794573,50.5726664 36.5170573,50.4854272 36.5170573,50.4106508 C36.3290573,50.2112469 35.9906573,50.4106508 35.7023907,50.348337 C34.8250573,50.3358743 34.0730573,49.9993802 33.4463907,49.3637803 L33.4463907,49.2765411 C35.4767907,48.4664628 37.5322573,47.7062354 39.7631907,47.3822041 C41.166924,47.4071296 42.5330573,47.5068315 43.6735907,48.1050432 L43.6735907,48.1050432 Z M17.3034573,44.0671143 C18.1431907,46.7590669 20.8503907,49.3263921 23.5575907,50.1115449 C23.494924,50.5851292 23.5199907,51.0836389 23.7330573,51.4824467 C21.7778573,52.2052858 19.622124,52.4919289 17.5666573,52.9779759 C17.6794573,52.6788701 17.8674573,52.3049878 17.7546573,51.90618 C17.629324,51.6070741 17.3159907,51.3952075 17.027724,51.3328938 L16.5138573,51.3328938 C16.689324,51.1708781 17.0151907,51.1708781 17.178124,50.9714742 L17.1154573,50.9216232 C16.7519907,50.9714742 16.4511907,51.1584154 16.1002573,51.2207291 C16.0375907,51.0213252 15.9247907,50.8219213 15.7367907,50.7097566 C15.5738573,50.5975919 15.185324,50.7097566 15.2479907,50.3732625 L15.1351907,50.1738586 C15.4735907,50.0616939 15.7994573,49.6254979 16.1879907,49.8747528 C17.9175907,50.7346821 20.0106573,51.1085644 22.0786573,50.7969958 C22.1162573,50.7596076 22.1663907,50.7346821 22.141324,50.6723684 L22.0786573,50.6225174 C19.6346573,50.884235 17.2783907,50.3857253 15.4610573,48.8528078 C14.884524,48.2047452 15.3106573,47.3323531 15.6114573,46.6967532 C16.1378573,45.8118984 16.689324,44.9021181 17.3034573,44.0671143 L17.3034573,44.0671143 Z M9.68319067,32.5764649 C9.78345733,32.713555 9.93385733,32.8381825 9.87119067,33.0251236 C9.68319067,33.2868412 9.30719067,33.3117667 8.99385733,33.2369903 C8.63039067,33.1746765 8.304524,32.8755707 8.17919067,32.5266139 C8.12905733,32.277359 8.12905733,31.9657904 8.304524,31.7788493 C8.91865733,31.6666846 9.25705733,32.2524335 9.68319067,32.5764649 L9.68319067,32.5764649 Z M9.41999067,30.2210063 C9.470124,30.4951867 9.70825733,30.7319788 9.44505733,30.9936964 C9.29465733,31.255414 9.018924,31.355116 8.78079067,31.4797434 C8.32959067,31.5919081 7.87839067,31.4548179 7.61519067,31.0809356 C7.53999067,30.819218 7.590124,30.5450377 7.82825733,30.3705593 C8.12905733,29.9842142 8.70559067,30.2583946 9.056524,30.0091397 C9.19439067,30.0340652 9.357324,30.0589907 9.41999067,30.2210063 L9.41999067,30.2210063 Z M11.462924,28.488685 C12.6535907,29.7349593 13.8191907,31.0933984 15.1351907,32.1901198 C15.8370573,32.2399708 16.388524,31.791312 17.0026573,31.5295944 C18.3687907,30.7569043 19.7599907,29.996677 21.1135907,29.1741359 C21.2263907,29.2364496 21.389324,29.3984653 21.4770573,29.5355554 C19.6847907,31.9907159 18.2058573,34.5954293 17.2407907,37.3995466 C16.8898573,37.6488014 16.426124,37.7111152 15.9999907,37.8482053 C15.3482573,37.9852955 14.4834573,38.1223857 13.8943907,37.7235779 C12.4906573,36.502229 12.0519907,34.8197587 11.5255907,33.2120648 C11.4503907,33.0500491 11.2623907,33.1497511 11.1370573,33.1248256 C11.0994573,32.6512413 11.0994573,32.1651943 11.011724,31.7165356 C11.500524,31.6292963 12.0895907,31.6916101 12.365324,31.2055631 C12.214924,31.1058611 12.1271907,31.305265 12.0018573,31.355116 C11.688524,31.4174297 11.3375907,31.4797434 11.011724,31.4174297 C11.0618573,30.6945906 10.72446,29.8770346 11.1599933,29.2601288 C11.2330627,29.1080833 11.110612,29.0233367 11.0562173,29.101852 C10.780484,29.587899 10.6607907,30.1836181 10.1343907,30.5201122 C9.94639067,30.5575004 9.79599067,30.4577985 9.72079067,30.3082455 C9.60799067,29.4358535 10.0090573,28.5759242 10.6858573,28.002638 C10.9866573,28.0774145 11.2247907,28.2643556 11.462924,28.488685 L11.462924,28.488685 Z M8.27945733,27.9777125 C8.27945733,28.1895792 8.40479067,28.4139085 8.27945733,28.6008497 C8.54265733,28.7254771 8.80585733,28.6133124 9.08159067,28.6880889 C9.29465733,28.7628653 9.45759067,28.9373438 9.53279067,29.1367477 C9.52025733,29.3860025 9.38239067,29.6726456 9.11919067,29.7349593 C8.70559067,29.9717515 8.041324,29.946826 7.64025733,29.7100339 C7.46479067,29.5480182 7.364524,29.3486143 7.37705733,29.1118222 C7.35199067,28.6008497 7.82825733,28.1397282 8.27945733,27.9777125 L8.27945733,27.9777125 Z M31.1903907,9.75718156 C33.120524,11.0283814 34.8375907,12.9476439 34.474124,15.3778789 C33.910124,19.2537921 32.5815907,22.805674 32.4938573,26.8685283 C31.2154573,27.3670381 29.7239907,27.3919636 28.5834573,28.2145046 C28.2199907,28.4014458 28.3327907,28.8251791 28.307724,29.1118222 C28.0946573,29.0868967 27.8439907,29.1367477 27.6810573,29.2863006 C27.6559907,29.3860025 27.7562573,29.410928 27.7938573,29.4732417 C28.420524,29.1865986 28.8215907,29.8097358 29.2978573,30.0340652 C31.4786573,31.7788493 33.7722573,33.9473666 34.774924,36.4149898 C35.2386573,37.4992485 34.9127907,38.7704484 34.1482573,39.6054522 C33.4714573,40.3532168 32.6066573,40.6398599 31.7042573,40.8392638 C31.014924,39.7051541 29.999724,38.6707464 29.811724,37.3621583 L32.0426573,38.5336562 C32.1178573,38.5211935 32.2055907,38.5710445 32.2431907,38.4713425 C32.293324,38.3217896 32.1178573,38.2096249 32.0050573,38.1722367 C30.0623907,37.1876799 27.8815907,35.6672252 26.8663907,33.5984098 C26.7786573,33.5734843 26.7410573,33.6482608 26.6783907,33.685649 C27.1671907,34.9693116 28.1322573,36.2155859 29.360524,37.038127 C29.5735907,37.3870838 29.5610573,37.8357426 29.7239907,38.2096249 C30.7266573,40.2285893 32.4186573,41.9609107 33.0954573,44.129428 C33.5591907,46.7466042 32.3559907,49.1269882 30.1751907,50.5228154 C29.9871907,50.6599056 29.7239907,50.6972939 29.6362573,50.884235 C29.962124,50.8094585 30.3130573,50.5975919 30.6263907,50.3732625 C30.8519907,50.5103527 31.0023907,50.7845331 31.1402573,51.0088624 C31.6415907,51.7940153 31.8546573,52.9904386 31.3407907,53.8503679 C31.2530573,54.0871601 31.0650573,54.3114895 30.9271907,54.5108934 C30.8770573,54.137011 30.7266573,53.7631287 30.3506573,53.5761876 C29.4482573,53.3518582 28.5834573,53.7631287 27.9442573,54.4485796 C27.9818573,54.0622346 27.8314573,53.6883523 27.4679907,53.5138739 C27.1922573,53.364321 26.7911907,53.4390974 26.4778573,53.4640229 C26.6783907,53.2895445 26.991724,53.2023053 27.1922573,53.0402896 L27.1295907,52.9779759 C26.615724,53.1275288 26.1394573,53.364321 25.6631907,53.6135758 C25.5754573,53.4515602 25.487724,53.2023053 25.2746573,53.1275288 C25.1242573,53.0527524 24.9487907,53.0278269 24.7607907,53.0402896 C25.0239907,52.8408857 25.3623907,52.7037956 25.6882573,52.5667054 C26.728524,52.7910348 28.0319907,52.7661093 29.0847907,52.5916309 C29.1223907,52.5542426 29.172524,52.5293171 29.1474573,52.4670034 C27.405324,52.6165563 25.5002573,52.6165563 24.1842573,51.4575212 C23.8834573,51.1708781 23.795724,50.7596076 23.8834573,50.348337 C24.6730573,48.117506 26.6783907,46.3727219 28.3703907,44.5157731 C28.1447907,44.3911457 27.9567907,44.7276397 27.7687907,44.8771927 C27.7186573,44.9021181 27.6935907,44.9893573 27.6183907,44.9644319 C27.9818573,40.3033658 25.3122573,36.7016329 25.7258573,31.9782532 C25.8511907,30.8067553 26.1519907,29.6975711 26.502924,28.6008497 C27.9191907,27.6661439 29.4482573,27.0056185 30.864524,26.05845 C31.4786573,25.572403 32.0175907,24.9492658 31.917324,24.1765758 C31.5663907,23.1546308 30.4258573,23.0424661 29.510924,22.8555249 C28.4831907,22.6187328 27.3551907,22.6685838 26.4778573,22.0828349 C25.4250573,21.0608899 24.5602573,19.8769293 23.4322573,19.0045372 C22.1538573,18.2941608 21.1010573,19.4158077 19.8602573,19.4158077 C19.2586573,19.453196 18.4439907,19.6650626 17.9551907,19.2413293 C17.8674573,18.4187883 18.546764,17.754524 19.073164,17.1812378 C18.4652973,17.2622457 18.193324,17.3644402 17.7170573,17.6211727 C17.5791907,17.3719178 17.9426573,17.2722159 18.080524,17.1475884 C18.9954573,16.6615414 20.0858573,16.4995258 21.1135907,16.3748983 C21.2514573,16.3873611 21.3266573,16.2378082 21.389324,16.1630317 C21.5146573,16.3001219 21.4018573,16.7487806 21.4770573,16.97311 C21.3391907,16.9107963 21.2138573,16.636616 21.0634573,16.7861689 L21.0634573,16.8484826 C21.577324,17.3220668 22.0535907,17.8205766 22.1162573,18.4935647 C22.1663907,18.5558785 22.2290573,18.5932667 22.3167907,18.5808039 C22.4295907,18.5434157 22.3543907,18.431251 22.3794573,18.3440118 C22.8807907,18.1321452 23.4259907,17.0179759 23.6139907,16.5817799 C24.329644,14.706137 24.0426307,12.7806431 24.0426307,12.7806431 C24.0426307,12.7806431 24.0188173,12.0933228 23.5826573,11.8883107 C23.2066573,11.7599444 23.1314573,11.8633852 22.9559907,11.9381617 C22.8431907,12.0254009 22.630124,12.1624911 22.742924,12.3369695 C22.6175907,12.5114479 22.5047907,12.6859263 22.3794573,12.8728674 C22.3167907,12.9974949 22.2415907,13.134585 22.1663907,13.2592125 C22.404524,12.1998793 22.7930573,11.0283814 23.7706573,10.268154 C24.0714573,10.1310639 24.4223907,10.0936756 24.7231907,10.2432286 C25.0866573,10.6046481 25.1743907,11.0782324 25.1242573,11.6141303 C25.149324,11.6390558 25.1618573,11.6889068 25.2119907,11.6764441 C25.3498573,11.1156206 25.2370573,10.5174089 24.9738573,10.0562874 C26.3650573,9.15896988 28.082124,9.00941695 29.8367907,8.98449147 L31.1903907,9.75718156 L31.1903907,9.75718156 Z" id="Fill-6" fill="#0C6DBF"></path>
                    <path d="M25.6882573,35.8167782 C26.2647907,38.9698522 27.7938573,41.8861342 27.2799907,45.3507769 C25.8887907,46.7590669 24.3346573,48.0925805 23.6703907,49.8124391 C22.7930573,49.5756469 21.915724,49.1269882 21.1135907,48.5786275 C18.268524,46.5970513 17.0026573,43.6059928 16.9399907,40.3033658 C17.2031907,37.3870838 18.494124,34.8820724 19.885324,32.4269119 C20.4242573,31.5046689 21.0258573,30.6073514 21.690124,29.7349593 C22.329324,30.1586926 22.9810573,30.7319788 23.8207907,30.4577985 C24.6354573,30.1088416 25.3122573,29.4358535 26.051724,28.9373438 C25.4375907,31.0186219 25.1743907,33.5485588 25.6882573,35.8167782" id="Fill-8" fill="#2F91D3"></path>
                    <path d="M17.0527907,18.8549843 C18.1682573,19.9517057 19.396524,21.0484271 20.4242573,22.2074623 L20.486924,22.1451486 C19.8978573,21.3226075 19.1082573,20.5873056 18.4063907,19.8146155 C19.7098573,19.7896901 20.9255907,19.5778234 22.0159907,19.0668509 C22.893324,18.9048353 23.6327907,19.2288666 24.1842573,19.9267802 L26.4151907,22.2573133 C27.9066573,23.1047798 29.9119907,22.7433603 31.3407907,23.727917 C31.5538573,23.9023954 31.6290573,24.1391875 31.6791907,24.3884424 C31.6290573,25.0240423 31.0650573,25.5100893 30.563724,25.9088971 C28.4706573,27.2673361 26.1770573,28.1771164 24.246924,29.9219005 C23.8834573,30.1462299 23.4447907,30.3705593 22.9810573,30.1836181 C22.0159907,29.7723476 21.126124,28.8501046 20.5746573,27.9403243 C20.5370573,27.1427087 21.2514573,26.6566617 21.1135907,25.8216579 L21.1135907,25.0489678 C21.351724,25.136207 21.5898573,25.2857599 21.7778573,25.4353128 C21.8279907,26.1456892 21.4895907,26.7065127 21.2639907,27.3171871 C21.1762573,27.9901753 21.8655907,28.4512968 22.3167907,28.8999555 C23.6578573,29.7972731 25.0114573,28.7379399 26.051724,27.9403243 C27.3426573,26.6566617 28.7714573,25.6970305 30.1375907,24.6252345 C30.2378573,24.5753835 30.4383907,24.4507561 30.4759907,24.65016 C30.6263907,24.8620266 30.413324,25.2608344 30.6514573,25.3729991 C30.8394573,25.0489678 30.7015907,24.6127718 30.5386573,24.3261287 C30.1375907,23.8151562 29.5735907,23.5908268 28.9343907,23.6032896 C28.871724,23.6656033 28.834124,23.727917 28.8466573,23.8151562 C29.0471907,23.9023954 29.2978573,23.9023954 29.510924,23.9397836 C29.7615907,24.0394856 30.0247907,24.1267248 30.2378573,24.3261287 L30.2378573,24.4133679 C27.9066573,25.6596422 24.6354573,26.3450931 22.0159907,25.2234462 C20.4743907,24.4009051 18.8951907,22.9303014 18.0178573,21.397384 C17.5290573,20.7742468 16.8898573,20.1137214 16.2506573,19.6650626 C16.1754573,19.7149136 16.1378573,19.7896901 16.125324,19.8644665 C16.5514573,20.2009606 16.9650573,20.6371566 17.328524,21.0359644 C16.5514573,20.6496194 15.298124,19.9018547 15.373324,18.8175961 C15.4735907,18.5060275 15.8119907,18.2318471 16.1503907,18.2193844 C16.5263907,18.2567726 16.7770573,18.5932667 17.0527907,18.8549843 L17.0527907,18.8549843 Z M30.3882573,53.9376072 C30.6263907,54.1494738 30.6639907,54.4984306 30.5887907,54.8099992 C30.2127907,55.7945559 29.2226573,56.7666499 28.0946573,56.7791127 C27.8690573,56.7791127 27.6434573,56.6918735 27.5306573,56.5049323 C27.3175907,55.5203756 27.9818573,54.623058 28.8215907,54.0871601 C29.2602573,53.8503679 29.8994573,53.6260386 30.3882573,53.9376072 L30.3882573,53.9376072 Z M27.4679907,53.8503679 C27.6183907,54.0123836 27.6935907,54.2491757 27.6183907,54.4735051 C26.9666573,55.5577638 25.7258573,55.9191834 24.4850573,55.7945559 C24.3722573,55.7073167 24.1842573,55.7197795 24.1215907,55.5577638 C24.1842573,54.9720149 24.7858573,54.6355208 25.2119907,54.3239522 C25.8762573,53.9500699 26.6783907,53.4889484 27.4679907,53.8503679 L27.4679907,53.8503679 Z M25.3247907,53.5512621 C25.3122573,54.2616385 24.4474573,54.3114895 24.0714573,54.8598502 C23.5826573,55.0218658 22.8682573,55.3583599 22.442124,54.8972384 C22.4295907,54.4485796 22.8306573,54.1245483 23.1690573,53.8752934 C23.7831907,53.5512621 24.4975907,53.1026033 25.2370573,53.4640229 L25.3247907,53.5512621 Z M17.478924,51.9934192 C17.5666573,52.2800623 17.4663907,52.5667054 17.3034573,52.7661093 C16.4386573,53.6260386 15.1727907,53.5512621 14.0823907,53.8752934 C13.982124,53.8503679 13.8818573,53.8379052 13.8066573,53.7257405 C14.0447907,52.7910348 15.0850573,52.1180466 15.9122573,51.7815525 C16.3759907,51.6319996 17.2031907,51.3827447 17.478924,51.9934192 L17.478924,51.9934192 Z M15.7994573,51.1833408 C15.9623907,51.4450585 15.5738573,51.4575212 15.523724,51.6693878 C14.6714573,52.0931211 13.8818573,52.8034975 12.816524,52.6539446 C12.7287907,52.6040936 12.7538573,52.4171525 12.7914573,52.3174505 C13.493324,51.5198349 14.395724,50.834384 15.4986573,50.9216232 C15.6239907,50.9465487 15.7242573,51.0836389 15.7994573,51.1833408 L15.7994573,51.1833408 Z M15.0098573,50.5228154 L15.0098573,50.5851292 C14.1575907,50.8219213 13.4055907,51.2581173 12.7287907,51.90618 C12.628524,51.5198349 13.0295907,51.2705801 13.267724,51.0088624 C13.7815907,50.7222193 14.282924,50.3234115 14.8970573,50.348337 L15.0098573,50.5228154 L15.0098573,50.5228154 Z" id="Fill-10" fill="#7F7086"></path>
                    <path d="M23.8207907,25.9712108 C24.2719907,26.594348 24.9111907,27.0430068 25.5754573,27.2922616 C25.638124,27.4916655 25.8010573,27.7035322 25.7759907,27.9153988 C24.923724,28.5011477 24.058924,29.2489123 22.9183907,28.9871947 C22.2791907,28.7877908 21.7527907,28.1521909 21.4143907,27.5913675 C21.6274573,26.8934538 22.0034573,26.2827794 22.0159907,25.522552 C22.5799907,25.7967324 23.2066573,25.8590461 23.8207907,25.9712108 L23.8207907,25.9712108 Z" id="Fill-12" fill="#CD898F"></path>
                    <path d="M25.7759907,25.9712108 C25.713324,26.2578539 25.5503907,26.594348 25.5754573,26.9557675 C25.0866573,26.7439009 24.5727907,26.4697206 24.246924,25.9961363 C24.7607907,25.9961363 25.2871907,26.0210618 25.7759907,25.9712108 L25.7759907,25.9712108 Z" id="Fill-14" fill="#805D62"></path>
                    <path d="M28.8215907,25.2857599 L28.8215907,25.3480736 C27.856524,26.0459873 26.9415907,26.8436029 26.0266573,27.6412184 C25.7634573,27.1551714 25.8511907,26.4447951 26.1394573,25.9961363 C26.4151907,25.8341206 26.766124,25.8465834 27.0794573,25.7593442 C27.6559907,25.6347167 28.2199907,25.4228501 28.7839907,25.2483717 L28.8215907,25.2857599 Z" id="Fill-16" fill="#F9B5C0"></path>
                    <path d="M31.5287907,14.5802633 C32.6943907,16.6864669 31.9298573,19.4282705 30.4383907,21.1605918 C30.375724,21.247831 30.2378573,21.3101448 30.2378573,21.4223094 C31.014924,21.4472349 31.9423907,21.4223094 32.4562573,22.0205211 C31.4034573,21.3849212 29.9495907,21.6964898 28.7839907,21.8709682 C28.2199907,22.1077603 27.4930573,22.2074623 26.9290573,21.9083564 C25.713324,21.0110389 25.487724,19.4781215 25.7258573,18.044906 C25.9890573,16.487063 26.8914573,14.8295182 28.4831907,14.1814555 C28.4831907,14.0319026 28.4706573,13.720334 28.7338573,13.7078712 C29.7615907,13.3963027 30.9146573,13.6580203 31.5287907,14.5802633 L31.5287907,14.5802633 Z M24.2218573,22.0828349 L24.2218573,22.1700741 C24.130364,22.0641407 23.9962573,21.9457447 23.8583907,21.8709682 C23.7330573,21.83358 23.494924,21.7961918 23.4322573,21.9582074 C23.397164,22.101529 23.592684,22.2735148 23.7330573,22.319627 C23.878444,22.3545227 24.1591907,22.2573133 24.096524,22.5314936 C23.946124,22.6311956 23.7217773,22.5539266 23.5575907,22.4691799 C23.3695907,22.319627 23.2191907,22.1326858 23.2818573,21.8709682 C23.4071907,21.6591016 23.667884,21.6640867 23.8583907,21.7588035 C23.9962573,21.83358 24.134124,21.9457447 24.2218573,22.0828349 L24.2218573,22.0828349 Z M42.3575907,49.5382587 C41.9690573,49.961992 41.5303907,50.2486351 41.0290573,50.4106508 C40.978924,50.3732625 40.9162573,50.3732625 40.8786573,50.3234115 C40.8410573,50.2112469 40.9663907,50.1115449 41.0666573,50.1115449 C41.7559907,49.912141 42.4703907,49.3887058 42.8087907,48.7032549 C42.8338573,48.989898 42.5455907,49.2765411 42.3575907,49.5382587 L42.3575907,49.5382587 Z M32.669324,12.6859263 C33.458924,13.9820516 32.9951907,15.7766867 33.421324,17.2099022 C33.4338573,17.2846786 33.534124,17.3594551 33.4463907,17.4466943 C33.2834573,17.3843806 33.2959907,17.1475884 33.2082573,16.9980355 C32.8071907,15.3031024 33.2420973,12.648538 31.3407907,12.212342 C30.7266573,12.1126401 30.1250573,12.2372675 29.5986573,12.4491342 C29.4983907,12.4117459 29.5735907,12.3618949 29.5986573,12.2995812 C30.5135907,11.8883107 32.0050573,11.5767421 32.669324,12.6859263 L32.669324,12.6859263 Z" id="Fill-18" fill="#231F1F"></path>
                    <path d="M30.5386573,18.7677451 C30.5762573,18.967149 30.488524,19.1167019 30.3882573,19.2662548 C30.2127907,19.4158077 30.0247907,19.5902862 29.7866573,19.4781215 C29.6362573,19.3784195 29.6487907,19.1790156 29.6863907,19.0294627 C29.7991907,18.8051333 30.0247907,18.6306549 30.262924,18.5808039 C30.3631907,18.6057294 30.5010573,18.6431177 30.5386573,18.7677451 L30.5386573,18.7677451 Z M22.765484,16.1630317 C22.8757773,16.5531156 22.6288707,16.9930504 22.4483907,17.1849767 C22.242844,17.3145892 22.216524,17.0915061 22.216524,17.0915061 C22.1688973,16.6465862 22.374444,16.3599431 22.6100707,16.1568003 C22.7040707,16.0770388 22.765484,16.1630317 22.765484,16.1630317 L22.765484,16.1630317 Z M31.4034573,15.078773 C31.9423907,15.9760906 31.9298573,17.3096041 31.6415907,18.3190863 C31.3282573,18.1819961 30.9271907,18.0199805 30.5010573,18.044906 C30.0498573,18.1072197 29.623724,18.4063255 29.360524,18.8175961 C28.9719907,19.453196 29.0346573,20.375439 29.4231907,20.9736507 C29.5359907,21.1232036 29.6738573,21.2229056 29.811724,21.3350702 C29.8367907,21.4098467 29.7490573,21.4347722 29.7239907,21.4846232 C28.721324,21.397384 27.706124,22.4442544 26.8287907,21.5095487 C25.7258573,20.4626782 25.7258573,18.6181922 26.1770573,17.2722159 C26.5279907,15.8639259 27.894124,14.3808594 29.3855907,14.1814555 C30.225324,14.0942163 30.9898573,14.3559339 31.4034573,15.078773 L31.4034573,15.078773 Z M23.8232973,13.1607568 C23.8984973,14.22009 23.6841773,15.0663103 23.3959107,15.9885533 C23.1703107,15.8390004 22.660204,15.8651721 22.4922573,15.9623815 C21.953324,16.2988756 21.878124,16.8858708 21.9282573,17.4466943 C21.4018573,15.7517612 22.0034573,13.9945143 22.893324,12.6360753 C23.0687907,12.4865224 23.2191907,12.1998793 23.4698573,12.2995812 C23.6578573,12.4989851 23.7907107,12.7856282 23.8232973,13.1607568 L23.8232973,13.1607568 Z" id="Fill-20" fill="#FFFFFF"></path>
                </g>
            </g>
        </g>
    </g>
</svg>