<?xml version="1.0" encoding="UTF-8" standalone="no"?>
<svg width="62px" height="35px" viewBox="0 0 62 35" version="1.1" xmlns="http://www.w3.org/2000/svg" xmlns:xlink="http://www.w3.org/1999/xlink">
    <!-- Generator: Sketch 39.1 (31720) - http://www.bohemiancoding.com/sketch -->
    <title>Docker_logo</title>
    <desc>Created with Sketch.</desc>
    <defs>
        <polygon id="path-1" points="0.0458725331 34.6831806 54.0520091 34.6831806 54.0520091 0.0760214364 0.0458725331 0.0760214364"></polygon>
        <polygon id="path-3" points="0 34.7351414 61.5477532 34.7351414 61.5477532 0.127982216 0 0.127982216"></polygon>
    </defs>
    <g id="Downloads" stroke="none" stroke-width="1" fill="none" fill-rule="evenodd">
        <g id="Downloads_desctop" transform="translate(-1077.000000, -379.000000)">
            <g id="Group" transform="translate(388.000000, 361.000000)">
                <g id="Docker_logo" transform="translate(689.000000, 18.000000)">
                    <g id="Group-3" transform="translate(7.495705, 0.051961)">
                        <mask id="mask-2" fill="white">
                            <use xlink:href="#path-1"></use>
                        </mask>
                        <g id="Clip-2"></g>
                        <path d="M28.0942524,11.0044613 L33.6119962,11.0044613 L33.6119962,16.5903731 L36.4019494,16.5903731 C37.690306,16.5903731 39.015495,16.3629487 40.2356149,15.9535336 C40.8351421,15.7523455 41.5080755,15.4720645 42.0994608,15.1197294 C41.3205536,14.1126374 40.9230228,12.8411341 40.8058055,11.5876762 C40.6468448,9.88269714 40.9941028,7.6636135 42.1592972,6.32939889 L42.7393097,5.66491523 L43.4304655,6.21511077 C45.1706322,7.59962239 46.6341041,9.53432955 46.8920597,11.7395911 C48.9873678,11.1293719 51.4473807,11.2737359 53.2942967,12.3293332 L54.0520091,12.762169 L53.6533151,13.5331339 C52.0913652,16.5519784 48.8258224,17.4870165 45.6332982,17.3215355 C40.8560784,29.1047301 30.455658,34.683219 17.8449093,34.683219 C11.329849,34.683219 5.35241176,32.2712661 1.94858613,26.5470055 L1.89288529,26.4535785 L1.39687638,25.4544214 C0.24641485,22.9348355 -0.135736884,20.1743871 0.123381894,17.4164983 L0.201182146,16.5903731 L4.9195994,16.5903731 L4.9195994,11.0044613 L10.4370847,11.0044613 L10.4370847,5.54026055 L21.4729599,5.54026055 L21.4729599,0.0759318488 L28.0942524,0.0759318488 L28.0942524,11.0044613 Z" id="Fill-1" fill="#394D54" mask="url(#mask-2)"></path>
                    </g>
                    <path d="M53.4667238,13.1228869 C53.8367273,10.2755386 51.6849429,8.03879336 50.3504489,6.9770529 C48.8126662,8.73770425 48.5737083,13.352103 50.9862915,15.2948731 C49.6399077,16.4792205 46.802654,17.5527353 43.8976805,17.5527353 L8.53513992,17.5527353 C8.25275861,20.555838 8.78508293,23.3212778 10.000938,25.6884368 L10.4032506,26.4170396 C10.6579754,26.8451401 10.9362211,27.2582667 11.236954,27.6560354 L11.2370832,27.6560354 C12.6908623,27.7484386 14.0313012,27.7804342 15.2576245,27.7535579 L15.2582706,27.7535579 C17.6681399,27.7007012 19.6344702,27.4191404 21.1248232,26.9077234 C21.3467219,26.831318 21.588523,26.9479098 21.6652894,27.1673993 C21.7419265,27.3868888 21.6245799,27.6264715 21.4029397,27.702621 C21.2048204,27.7705795 20.9981716,27.8341867 20.7848025,27.8945943 C20.784544,27.8947223 20.7842855,27.8947223 20.784027,27.8948503 C19.6105615,28.2265802 18.3523169,28.4499091 16.7287212,28.5490953 C16.8250023,28.5506311 16.6283046,28.5633014 16.6277877,28.5634293 C16.572733,28.5668849 16.5030747,28.5745638 16.4476323,28.5777634 C15.808688,28.6132144 15.1189539,28.6206374 14.4138407,28.6206374 C13.6428169,28.6206374 12.8831659,28.6060474 12.0340835,28.5634293 L12.0123718,28.5777634 C14.9588301,31.8573076 19.5659749,33.8242663 25.3406404,33.8242663 C37.5625172,33.8242663 47.9292068,28.4589959 52.5196802,16.4136936 C55.7765641,16.7446556 58.906538,15.9222419 60.3303343,13.1698564 C58.0623665,11.8737805 55.1460202,12.287035 53.4667238,13.1228869" id="Fill-4" fill="#00AADA"></path>
                    <path d="M53.4667238,13.1228869 C53.8367273,10.2755386 51.6849429,8.03879336 50.3504489,6.9770529 C48.8126662,8.73770425 48.5737083,13.352103 50.9862915,15.2948731 C49.6399077,16.4792205 46.802654,17.5527353 43.8976805,17.5527353 L10.6291557,17.5527353 C10.4847987,22.1519043 12.208294,25.6430032 15.2576245,27.7535579 L15.2582706,27.7535579 C17.6681399,27.7007012 19.6344702,27.4191404 21.1248232,26.9077234 C21.3467219,26.831318 21.588523,26.9479098 21.6652894,27.1673993 C21.7419265,27.3868888 21.6245799,27.6264715 21.4029397,27.702621 C21.2048204,27.7705795 20.9981716,27.8341867 20.7848025,27.8945943 C20.784544,27.8947223 20.7842855,27.8947223 20.784027,27.8948503 C19.6105615,28.2265802 18.2441461,28.4784492 16.6205505,28.5777634 C16.6201627,28.5777634 16.5812626,28.5405205 16.5807457,28.5406485 C20.7402159,30.6535069 26.7714155,30.645956 33.6859452,28.0155375 C41.4393477,25.0659313 48.653964,19.4462322 53.6881055,13.0187094 C53.6121146,13.0526247 53.5381914,13.0874358 53.4667238,13.1228869" id="Fill-6" fill="#24B8EC"></path>
                    <path d="M8.60128306,21.2015211 C8.82111401,22.8100016 9.29618664,24.3163523 10.0009122,25.6884496 L10.4032248,26.4170524 C10.6579495,26.8451529 10.9361953,27.2582795 11.2370574,27.6560482 C12.691095,27.7484514 14.0317923,27.7804469 15.2582448,27.7535707 C17.668114,27.700714 19.6344443,27.4191532 21.1247973,26.9077362 C21.346696,26.8313308 21.5884972,26.9477947 21.6652635,27.1674121 C21.7420299,27.3869016 21.6245541,27.6264843 21.4030431,27.7026338 C21.2047946,27.7705923 20.9981457,27.8341995 20.7847766,27.8946071 C20.7845181,27.8947351 20.7842597,27.8947351 20.7841304,27.894863 C19.6105356,28.226593 18.2513575,28.4642559 16.6277618,28.5634421 C16.5721902,28.5668977 16.4748753,28.5675376 16.4186575,28.5706092 C15.7799717,28.6060602 15.0974748,28.6276892 14.3922324,28.6276892 C13.6212086,28.6276892 12.8326087,28.6132272 11.9836555,28.5706092 C14.9301138,31.8501534 19.5659491,33.8242791 25.3406146,33.8242791 C35.8037145,33.8242791 44.9068609,29.8912576 50.1904285,21.2015211 L8.60128306,21.2015211 Z" id="Fill-8" fill="#008BB8"></path>
                    <path d="M10.9474776,21.2015211 C11.5729813,24.0259607 13.0761287,26.2433805 15.2581543,27.7535707 C17.6681528,27.700714 19.6344831,27.4191532 21.1248361,26.9077362 C21.3467348,26.8313308 21.5885359,26.9477947 21.6653023,27.1674121 C21.7419394,27.3869016 21.6245928,27.6264843 21.4029526,27.7026338 C21.2048334,27.7705923 20.9981845,27.8341995 20.7848154,27.8946071 C20.7845569,27.8947351 20.7842984,27.8947351 20.78404,27.894863 C19.6105744,28.226593 18.2225765,28.4642559 16.5989809,28.5634421 C20.7580635,30.6760446 26.7718161,30.6457128 33.6859581,28.0155503 C37.8688201,26.4240914 41.8945308,24.0548846 45.5062976,21.2015211 L10.9474776,21.2015211 Z" id="Fill-10" fill="#039BC6"></path>
                    <mask id="mask-4" fill="white">
                        <use xlink:href="#path-3"></use>
                    </mask>
                    <g id="Clip-13"></g>
                    <path d="M13.3348597,16.702959 L18.1168612,16.702959 L18.1168612,11.9671051 L13.3348597,11.9671051 L13.3348597,16.702959 Z M13.733166,16.3085178 L14.110536,16.3085178 L14.110536,12.3618023 L13.733166,12.3618023 L13.733166,16.3085178 Z M14.4426733,16.3085178 L14.8351639,16.3085178 L14.8351639,12.3618023 L14.4426733,12.3618023 L14.4426733,16.3085178 Z M15.1670427,16.3085178 L15.5595334,16.3085178 L15.5595334,12.3618023 L15.1670427,12.3618023 L15.1670427,16.3085178 Z M15.8917999,16.3085178 L16.2842905,16.3085178 L16.2842905,12.3618023 L15.8917999,12.3618023 L15.8917999,16.3085178 Z M16.6164278,16.3085178 L17.0089185,16.3085178 L17.0089185,12.3618023 L16.6164278,12.3618023 L16.6164278,16.3085178 Z M17.3409265,16.3085178 L17.718555,16.3085178 L17.718555,12.3618023 L17.3409265,12.3618023 L17.3409265,16.3085178 Z" id="Fill-12" fill="#00ACD3" mask="url(#mask-4)"></path>
                    <path d="M18.852345,11.2385023 L23.6348635,11.2385023 L23.6348635,6.5027764 L18.852345,6.5027764 L18.852345,11.2385023 Z M19.2511682,10.8439332 L19.6282797,10.8439332 L19.6282797,6.89747356 L19.2511682,6.89747356 L19.2511682,10.8439332 Z M19.9606755,10.8439332 L20.3529077,10.8439332 L20.3529077,6.89747356 L19.9606755,6.89747356 L19.9606755,10.8439332 Z M20.6849157,10.8439332 L21.0774064,10.8439332 L21.0774064,6.89747356 L20.6849157,6.89747356 L20.6849157,10.8439332 Z M21.4095436,10.8439332 L21.8020343,10.8439332 L21.8020343,6.89747356 L21.4095436,6.89747356 L21.4095436,10.8439332 Z M22.1343008,10.8439332 L22.5267914,10.8439332 L22.5267914,6.89747356 L22.1343008,6.89747356 L22.1343008,10.8439332 Z M22.8586703,10.8439332 L23.2365572,10.8439332 L23.2365572,6.89747356 L22.8586703,6.89747356 L22.8586703,10.8439332 Z" id="Fill-14" fill="#00ACD3" mask="url(#mask-4)"></path>
                    <path d="M18.852345,16.702959 L23.6348635,16.702959 L23.6348635,11.9671051 L18.852345,11.9671051 L18.852345,16.702959 Z M19.2511682,16.3085178 L19.6282797,16.3085178 L19.6282797,12.3618023 L19.2511682,12.3618023 L19.2511682,16.3085178 Z M19.9606755,16.3085178 L20.3529077,16.3085178 L20.3529077,12.3618023 L19.9606755,12.3618023 L19.9606755,16.3085178 Z M20.6849157,16.3085178 L21.0774064,16.3085178 L21.0774064,12.3618023 L20.6849157,12.3618023 L20.6849157,16.3085178 Z M21.4095436,16.3085178 L21.8020343,16.3085178 L21.8020343,12.3618023 L21.4095436,12.3618023 L21.4095436,16.3085178 Z M22.1343008,16.3085178 L22.5267914,16.3085178 L22.5267914,12.3618023 L22.1343008,12.3618023 L22.1343008,16.3085178 Z M22.8586703,16.3085178 L23.2365572,16.3085178 L23.2365572,12.3618023 L22.8586703,12.3618023 L22.8586703,16.3085178 Z" id="Fill-15" fill="#1FC2EF" mask="url(#mask-4)"></path>
                    <path d="M24.3703472,16.702959 L29.1526072,16.702959 L29.1526072,11.9671051 L24.3703472,11.9671051 L24.3703472,16.702959 Z M24.768912,16.3085178 L25.1460235,16.3085178 L25.1460235,12.3618023 L24.768912,12.3618023 L24.768912,16.3085178 Z M25.4781608,16.3085178 L25.8706514,16.3085178 L25.8706514,12.3618023 L25.4781608,12.3618023 L25.4781608,16.3085178 Z M26.202918,16.3085178 L26.5954086,16.3085178 L26.5954086,12.3618023 L26.202918,12.3618023 L26.202918,16.3085178 Z M26.9275459,16.3085178 L27.3200365,16.3085178 L27.3200365,12.3618023 L26.9275459,12.3618023 L26.9275459,16.3085178 Z M27.6520446,16.3085178 L28.0447937,16.3085178 L28.0447937,12.3618023 L27.6520446,12.3618023 L27.6520446,16.3085178 Z M28.3766725,16.3085178 L28.7540425,16.3085178 L28.7540425,12.3618023 L28.3766725,12.3618023 L28.3766725,16.3085178 Z" id="Fill-16" fill="#00ACD3" mask="url(#mask-4)"></path>
                    <path d="M24.3703472,11.2385023 L29.1526072,11.2385023 L29.1526072,6.5027764 L24.3703472,6.5027764 L24.3703472,11.2385023 Z M24.768912,10.8439332 L25.1460235,10.8439332 L25.1460235,6.89747356 L24.768912,6.89747356 L24.768912,10.8439332 Z M25.4781608,10.8439332 L25.8706514,10.8439332 L25.8706514,6.89747356 L25.4781608,6.89747356 L25.4781608,10.8439332 Z M26.202918,10.8439332 L26.5954086,10.8439332 L26.5954086,6.89747356 L26.202918,6.89747356 L26.202918,10.8439332 Z M26.9275459,10.8439332 L27.3200365,10.8439332 L27.3200365,6.89747356 L26.9275459,6.89747356 L26.9275459,10.8439332 Z M27.6520446,10.8439332 L28.0447937,10.8439332 L28.0447937,6.89747356 L27.6520446,6.89747356 L27.6520446,10.8439332 Z M28.3766725,10.8439332 L28.7540425,10.8439332 L28.7540425,6.89747356 L28.3766725,6.89747356 L28.3766725,10.8439332 Z" id="Fill-17" fill="#1FC2EF" mask="url(#mask-4)"></path>
                    <path d="M29.8882202,16.702959 L34.6704802,16.702959 L34.6704802,11.9671051 L29.8882202,11.9671051 L29.8882202,16.702959 Z M30.286785,16.3085178 L30.664155,16.3085178 L30.664155,12.3618023 L30.286785,12.3618023 L30.286785,16.3085178 Z M30.9962923,16.3085178 L31.3887829,16.3085178 L31.3887829,12.3618023 L30.9962923,12.3618023 L30.9962923,16.3085178 Z M31.7206617,16.3085178 L32.1131523,16.3085178 L32.1131523,12.3618023 L31.7206617,12.3618023 L31.7206617,16.3085178 Z M32.4454189,16.3085178 L32.8379095,16.3085178 L32.8379095,12.3618023 L32.4454189,12.3618023 L32.4454189,16.3085178 Z M33.1700468,16.3085178 L33.5625374,16.3085178 L33.5625374,12.3618023 L33.1700468,12.3618023 L33.1700468,16.3085178 Z M33.8945455,16.3085178 L34.2721739,16.3085178 L34.2721739,12.3618023 L33.8945455,12.3618023 L33.8945455,16.3085178 Z" id="Fill-18" fill="#1FC2EF" mask="url(#mask-4)"></path>
                    <path d="M29.8882202,11.2385023 L34.6704802,11.2385023 L34.6704802,6.5027764 L29.8882202,6.5027764 L29.8882202,11.2385023 Z M30.286785,10.8439332 L30.664155,10.8439332 L30.664155,6.89747356 L30.286785,6.89747356 L30.286785,10.8439332 Z M30.9962923,10.8439332 L31.3887829,10.8439332 L31.3887829,6.89747356 L30.9962923,6.89747356 L30.9962923,10.8439332 Z M31.7206617,10.8439332 L32.1131523,10.8439332 L32.1131523,6.89747356 L31.7206617,6.89747356 L31.7206617,10.8439332 Z M32.4454189,10.8439332 L32.8379095,10.8439332 L32.8379095,6.89747356 L32.4454189,6.89747356 L32.4454189,10.8439332 Z M33.1700468,10.8439332 L33.5625374,10.8439332 L33.5625374,6.89747356 L33.1700468,6.89747356 L33.1700468,10.8439332 Z M33.8945455,10.8439332 L34.2721739,10.8439332 L34.2721739,6.89747356 L33.8945455,6.89747356 L33.8945455,10.8439332 Z" id="Fill-19" fill="#00ACD3" mask="url(#mask-4)"></path>
                    <path d="M29.8882202,5.77442961 L34.6704802,5.77442961 L34.6704802,1.03857568 L29.8882202,1.03857568 L29.8882202,5.77442961 Z M30.286785,5.37973246 L30.664155,5.37973246 L30.664155,1.43301687 L30.286785,1.43301687 L30.286785,5.37973246 Z M30.9962923,5.37973246 L31.3887829,5.37973246 L31.3887829,1.43301687 L30.9962923,1.43301687 L30.9962923,5.37973246 Z M31.7206617,5.37973246 L32.1131523,5.37973246 L32.1131523,1.43301687 L31.7206617,1.43301687 L31.7206617,5.37973246 Z M32.4454189,5.37973246 L32.8379095,5.37973246 L32.8379095,1.43301687 L32.4454189,1.43301687 L32.4454189,5.37973246 Z M33.1700468,5.37973246 L33.5625374,5.37973246 L33.5625374,1.43301687 L33.1700468,1.43301687 L33.1700468,5.37973246 Z M33.8945455,5.37973246 L34.2721739,5.37973246 L34.2721739,1.43301687 L33.8945455,1.43301687 L33.8945455,5.37973246 Z" id="Fill-20" fill="#1FC2EF" mask="url(#mask-4)"></path>
                    <path d="M35.405964,16.702959 L40.188224,16.702959 L40.188224,11.9671051 L35.405964,11.9671051 L35.405964,16.702959 Z M35.8042703,16.3085178 L36.1818987,16.3085178 L36.1818987,12.3618023 L35.8042703,12.3618023 L35.8042703,16.3085178 Z M36.5137775,16.3085178 L36.9062682,16.3085178 L36.9062682,12.3618023 L36.5137775,12.3618023 L36.5137775,16.3085178 Z M37.2385347,16.3085178 L37.6310253,16.3085178 L37.6310253,12.3618023 L37.2385347,12.3618023 L37.2385347,16.3085178 Z M37.9629042,16.3085178 L38.3553948,16.3085178 L38.3553948,12.3618023 L37.9629042,12.3618023 L37.9629042,16.3085178 Z M38.6877905,16.3085178 L39.0800227,16.3085178 L39.0800227,12.3618023 L38.6877905,12.3618023 L38.6877905,16.3085178 Z M39.4122892,16.3085178 L39.7896592,16.3085178 L39.7896592,12.3618023 L39.4122892,12.3618023 L39.4122892,16.3085178 Z" id="Fill-21" fill="#00ACD3" mask="url(#mask-4)"></path>
                    <path d="M23.3354876,24.3810729 C24.0639926,24.3810729 24.6546025,24.9662076 24.6546025,25.6876434 C24.6546025,26.4090791 24.0639926,26.9939578 23.3354876,26.9939578 C22.6067241,26.9939578 22.0161142,26.4090791 22.0161142,25.6876434 C22.0161142,24.9662076 22.6067241,24.3810729 23.3354876,24.3810729" id="Fill-22" fill="#D4EDF1" mask="url(#mask-4)"></path>
                    <path d="M23.3354876,24.7517734 C23.4561943,24.7517734 23.5712146,24.7742983 23.6774468,24.8149966 C23.5624265,24.8810354 23.4843678,25.0045383 23.4843678,25.1457027 C23.4843678,25.3567453 23.6570275,25.5274736 23.8701381,25.5274736 C24.0160459,25.5274736 24.1426975,25.4472288 24.2083495,25.3287172 C24.2544869,25.4391659 24.2803342,25.560365 24.2803342,25.6875794 C24.2803342,26.2043716 23.8572145,26.6232573 23.3354876,26.6232573 C22.8137606,26.6232573 22.3905118,26.2043716 22.3905118,25.6875794 C22.3905118,25.1706592 22.8137606,24.7517734 23.3354876,24.7517734" id="Fill-23" fill="#394D54" mask="url(#mask-4)"></path>
                    <path d="M0,21.6736987 L28.8989164,21.6736987 L32.4730754,21.6736987 L61.3713456,21.6736987 C60.0350423,21.3380014 57.1433801,20.8845604 57.6202621,19.1502734 C55.1904904,21.9346545 49.3306582,21.1037939 47.8518072,19.7306727 C46.2049491,22.096168 36.6178128,21.196965 35.9491442,19.354277 C33.8845943,21.7536876 27.487139,21.7536876 25.4224599,19.354277 C24.7535329,21.196965 15.1665258,22.096168 13.5195384,19.7306727 C12.0406874,21.1037939 6.18137215,21.9346545 3.75134203,19.1502734 C4.22822397,20.8845604 1.3365618,21.3380014 0,21.6736987" id="Fill-24" fill="#394D54" mask="url(#mask-4)"></path>
                    <path d="M26.8425342,33.7960207 C23.5753114,32.260618 21.7818993,30.173356 20.7840658,27.8948886 C19.5704077,28.237881 18.1114592,28.4571145 16.4165251,28.5514374 C15.7779686,28.5868885 15.1063275,28.604934 14.4012143,28.604934 C13.5887057,28.604934 12.7322567,28.5812573 11.8334183,28.5340318 C14.8296326,31.4993798 18.5155811,33.7825825 25.3406792,33.8243047 C25.8444423,33.8243047 26.344716,33.8145781 26.8425342,33.7960207" id="Fill-25" fill="#BFDBE0" mask="url(#mask-4)"></path>
                    <path d="M21.9976851,29.9972909 C21.5456165,29.3896313 21.1071178,28.6259615 20.7848025,27.8945431 C19.5710151,28.2377914 18.1118081,28.4571529 16.4164863,28.5513478 C17.5809054,29.1774368 19.2463736,29.7573243 21.9976851,29.9972909" id="Fill-26" fill="#D4EDF1" mask="url(#mask-4)"></path>
                </g>
            </g>
        </g>
    </g>
</svg>