<?xml version="1.0" encoding="UTF-8" standalone="no"?>
<svg width="58px" height="130px" viewBox="0 0 58 130" version="1.1" xmlns="http://www.w3.org/2000/svg" xmlns:xlink="http://www.w3.org/1999/xlink">
    <!-- Generator: Sketch 39.1 (31720) - http://www.bohemiancoding.com/sketch -->
    <title>Dots_1</title>
    <desc>Created with Sketch.</desc>
    <defs>
        <polygon id="path-1" points="0.4553 1 1.4553 1 1.4553 0.3992 0.4553 0.3992 0.4553 1"></polygon>
        <polygon id="path-3" points="4.47653194 0.838 0.000269245148 0.838 0.000269245148 5.31413075 4.47653194 5.31413075 4.47653194 0.838"></polygon>
        <polygon id="path-5" points="1.264 1.9759 1.264 0.9759 0.4806 0.9759 0.4806 1.9759 1.264 1.9759"></polygon>
        <polygon id="path-7" points="1.264 1.8392 1.264 0.8392 0.6793 0.8392 0.6793 1.8392 1.264 1.8392"></polygon>
        <polygon id="path-9" points="1.264 1.6944 1.264 0.6944 0.7562 0.6944 0.7562 1.6944 1.264 1.6944"></polygon>
        <polygon id="path-11" points="1.264 1.5499 1.264 0.5499 0.6434 0.5499 0.6434 1.5499 1.264 1.5499"></polygon>
        <polygon id="path-13" points="2.98427949e-13 0.68534812 2.98427949e-13 5.16181733 4.47641733 5.16181733 4.47641733 0.68534812 2.98427952e-13 0.68534812"></polygon>
        <polygon id="path-15" points="4.918 4.92883652 4.918 0.453 0.441397405 0.453 0.441397405 4.92883652 4.918 4.92883652"></polygon>
        <polygon id="path-17" points="0.4395 1 1.4395 1 1.4395 0.0488 0.4395 0.0488"></polygon>
        <polygon id="path-19" points="4.8632558 0.322 0.386744333 0.322 0.386744333 4.7978558 4.8632558 4.7978558 4.8632558 0.322"></polygon>
    </defs>
    <g id="Main-Page" stroke="none" stroke-width="1" fill="none" fill-rule="evenodd">
        <g id="Mobile-Portrait" transform="translate(-33.000000, -1123.000000)">
            <g id="Dots_1" transform="translate(4.000000, 1114.000000)">
                <g id="Page-1" transform="translate(70.959693, 89.566704) scale(-1, 1) rotate(246.000000) translate(-70.959693, -89.566704) translate(30.959693, 57.066704)">
                    <g id="Group-3" transform="translate(78.000000, 62.162300)">
                        <mask id="mask-2" fill="white">
                            <use xlink:href="#path-1"></use>
                        </mask>
                        <g id="Clip-2"></g>
                        <path d="M0.4653,0.4182 C0.4603,0.4182 0.4553,0.4142 0.4553,0.4092 C0.4553,0.4092 0.4603,0.3992 0.4653,0.3992 L0.4753,0.4092 C0.4753,0.4142 0.4703,0.4182 0.4653,0.4182" id="Fill-1" fill="#1D96DD" mask="url(#mask-2)"></path>
                    </g>
                    <path d="M76.4265,61.9892 C76.4155,61.9892 76.4075,61.9812 76.4075,61.9702 C76.4075,61.9592 76.4155,61.9512 76.4265,61.9512 C76.4365,61.9512 76.4455,61.9592 76.4455,61.9702 C76.4455,61.9812 76.4365,61.9892 76.4265,61.9892" id="Fill-4" fill="#1D96DD"></path>
                    <path d="M74.3916,61.3886 C74.3756,61.3886 74.3626,61.3756 74.3626,61.3596 C74.3626,61.3436 74.3756,61.3306 74.3916,61.3306 C74.4076,61.3306 74.4206,61.3436 74.4206,61.3596 C74.4206,61.3756 74.4076,61.3886 74.3916,61.3886" id="Fill-6" fill="#1D96DD"></path>
                    <path d="M72.3596,60.7778 C72.3386,60.7778 72.3206,60.7608 72.3206,60.7388 C72.3206,60.7178 72.3386,60.7008 72.3596,60.7008 C72.3806,60.7008 72.3976,60.7178 72.3976,60.7388 C72.3976,60.7608 72.3806,60.7778 72.3596,60.7778" id="Fill-8" fill="#1D96DD"></path>
                    <path d="M70.3291,60.1596 C70.3021,60.1596 70.2811,60.1386 70.2811,60.1116 C70.2811,60.0846 70.3021,60.0636 70.3291,60.0636 C70.3561,60.0636 70.3771,60.0846 70.3771,60.1116 C70.3771,60.1386 70.3561,60.1596 70.3291,60.1596" id="Fill-10" fill="#1D96DD"></path>
                    <path d="M68.3049,59.5356 C68.2729,59.5356 68.2469,59.5096 68.2469,59.4776 C68.2469,59.4456 68.2729,59.4196 68.3049,59.4196 C68.3369,59.4196 68.3629,59.4456 68.3629,59.4776 C68.3629,59.5096 68.3369,59.5356 68.3049,59.5356" id="Fill-12" fill="#1D96DD"></path>
                    <path d="M66.2784,58.9047 C66.2414,58.9047 66.2114,58.8747 66.2114,58.8377 C66.2114,58.7997 66.2414,58.7697 66.2784,58.7697 C66.3154,58.7697 66.3454,58.7997 66.3454,58.8377 C66.3454,58.8747 66.3154,58.9047 66.2784,58.9047" id="Fill-14" fill="#1D96DD"></path>
                    <path d="M64.2532,58.2692 C64.2102,58.2692 64.1762,58.2352 64.1762,58.1922 C64.1762,58.1492 64.2102,58.1152 64.2532,58.1152 C64.2952,58.1152 64.3302,58.1492 64.3302,58.1922 C64.3302,58.2352 64.2952,58.2692 64.2532,58.2692" id="Fill-16" fill="#1D96DD"></path>
                    <path d="M62.2305,57.6242 C62.1825,57.6242 62.1435,57.5852 62.1435,57.5372 C62.1435,57.4902 62.1825,57.4512 62.2305,57.4512 C62.2785,57.4512 62.3175,57.4902 62.3175,57.5372 C62.3175,57.5852 62.2785,57.6242 62.2305,57.6242" id="Fill-18" fill="#1D96DD"></path>
                    <path d="M60.2112,56.9702 C60.1582,56.9702 60.1152,56.9272 60.1152,56.8732 C60.1152,56.8212 60.1582,56.7772 60.2112,56.7772 C60.2642,56.7772 60.3072,56.8212 60.3072,56.8732 C60.3072,56.9272 60.2642,56.9702 60.2112,56.9702" id="Fill-20" fill="#1D96DD"></path>
                    <path d="M58.1938,56.309 C58.1358,56.309 58.0878,56.262 58.0878,56.203 C58.0878,56.145 58.1358,56.097 58.1938,56.097 C58.2528,56.097 58.2998,56.145 58.2998,56.203 C58.2998,56.262 58.2528,56.309 58.1938,56.309" id="Fill-22" fill="#1D96DD"></path>
                    <path d="M56.1785,55.6425 C56.1145,55.6425 56.0635,55.5915 56.0635,55.5275 C56.0635,55.4635 56.1145,55.4115 56.1785,55.4115 C56.2425,55.4115 56.2935,55.4635 56.2935,55.5275 C56.2935,55.5915 56.2425,55.6425 56.1785,55.6425" id="Fill-24" fill="#1D96DD"></path>
                    <path d="M54.1646,54.9716 C54.0956,54.9716 54.0396,54.9156 54.0396,54.8466 C54.0396,54.7776 54.0956,54.7216 54.1646,54.7216 C54.2336,54.7216 54.2896,54.7776 54.2896,54.8466 C54.2896,54.9156 54.2336,54.9716 54.1646,54.9716" id="Fill-26" fill="#1D96DD"></path>
                    <path d="M52.1516,54.2971 C52.0776,54.2971 52.0166,54.2371 52.0166,54.1621 C52.0166,54.0881 52.0776,54.0271 52.1516,54.0271 C52.2266,54.0271 52.2866,54.0881 52.2866,54.1621 C52.2866,54.2371 52.2266,54.2971 52.1516,54.2971" id="Fill-28" fill="#1D96DD"></path>
                    <path d="M50.1445,53.6184 C50.0645,53.6184 50.0005,53.5534 50.0005,53.4744 C50.0005,53.3944 50.0645,53.3294 50.1445,53.3294 C50.2245,53.3294 50.2885,53.3944 50.2885,53.4744 C50.2885,53.5534 50.2245,53.6184 50.1445,53.6184" id="Fill-30" fill="#1D96DD"></path>
                    <path d="M48.1355,52.9323 C48.0505,52.9323 47.9815,52.8633 47.9815,52.7783 C47.9815,52.6933 48.0505,52.6243 48.1355,52.6243 C48.2205,52.6243 48.2895,52.6933 48.2895,52.7783 C48.2895,52.8633 48.2205,52.9323 48.1355,52.9323" id="Fill-32" fill="#1D96DD"></path>
                    <path d="M46.1328,52.2375 C46.0428,52.2375 45.9698,52.1635 45.9698,52.0735 C45.9698,51.9835 46.0428,51.9105 46.1328,51.9105 C46.2228,51.9105 46.2968,51.9835 46.2968,52.0735 C46.2968,52.1635 46.2228,52.2375 46.1328,52.2375" id="Fill-34" fill="#1D96DD"></path>
                    <path d="M44.1355,51.53 C44.0395,51.53 43.9625,51.453 43.9625,51.357 C43.9625,51.261 44.0395,51.183 44.1355,51.183 C44.2315,51.183 44.3085,51.261 44.3085,51.357 C44.3085,51.453 44.2315,51.53 44.1355,51.53" id="Fill-36" fill="#1D96DD"></path>
                    <path d="M42.1414,50.8085 C42.0404,50.8085 41.9584,50.7265 41.9584,50.6255 C41.9584,50.5245 42.0404,50.4425 42.1414,50.4425 C42.2424,50.4425 42.3244,50.5245 42.3244,50.6255 C42.3244,50.7265 42.2424,50.8085 42.1414,50.8085" id="Fill-38" fill="#1D96DD"></path>
                    <path d="M40.1479,50.0759 C40.0419,50.0759 39.9549,49.9899 39.9549,49.8829 C39.9549,49.7769 40.0419,49.6909 40.1479,49.6909 C40.2539,49.6909 40.3399,49.7769 40.3399,49.8829 C40.3399,49.9899 40.2539,50.0759 40.1479,50.0759" id="Fill-40" fill="#1D96DD"></path>
                    <path d="M38.1597,49.3281 C38.0477,49.3281 37.9577,49.2381 37.9577,49.1261 C37.9577,49.0141 38.0477,48.9241 38.1597,48.9241 C38.2717,48.9241 38.3617,49.0141 38.3617,49.1261 C38.3617,49.2381 38.2717,49.3281 38.1597,49.3281" id="Fill-42" fill="#1D96DD"></path>
                    <path d="M36.1756,48.5639 C36.0586,48.5639 35.9636,48.4689 35.9636,48.3519 C35.9636,48.2349 36.0586,48.1409 36.1756,48.1409 C36.2926,48.1409 36.3876,48.2349 36.3876,48.3519 C36.3876,48.4689 36.2926,48.5639 36.1756,48.5639" id="Fill-44" fill="#1D96DD"></path>
                    <path d="M34.1967,47.7834 C34.0747,47.7834 33.9757,47.6844 33.9757,47.5624 C33.9757,47.4404 34.0747,47.3404 34.1967,47.3404 C34.3187,47.3404 34.4177,47.4404 34.4177,47.5624 C34.4177,47.6844 34.3187,47.7834 34.1967,47.7834" id="Fill-46" fill="#1D96DD"></path>
                    <path d="M32.2243,46.9868 C32.0973,46.9868 31.9933,46.8838 31.9933,46.7558 C31.9933,46.6278 32.0973,46.5248 32.2243,46.5248 C32.3523,46.5248 32.4553,46.6278 32.4553,46.7558 C32.4553,46.8838 32.3523,46.9868 32.2243,46.9868" id="Fill-48" fill="#1D96DD"></path>
                    <path d="M30.263,46.1762 C30.13,46.1762 30.022,46.0682 30.022,45.9352 C30.022,45.8022 30.13,45.6952 30.263,45.6952 C30.396,45.6952 30.504,45.8022 30.504,45.9352 C30.504,46.0682 30.396,46.1762 30.263,46.1762" id="Fill-50" fill="#1D96DD"></path>
                    <path d="M28.3069,45.3493 C28.1689,45.3493 28.0569,45.2373 28.0569,45.0993 C28.0569,44.9613 28.1689,44.8483 28.3069,44.8483 C28.4449,44.8483 28.5569,44.9613 28.5569,45.0993 C28.5569,45.2373 28.4449,45.3493 28.3069,45.3493" id="Fill-52" fill="#1D96DD"></path>
                    <path d="M26.3645,44.4938 C26.2205,44.4938 26.1045,44.3778 26.1045,44.2338 C26.1045,44.0908 26.2205,43.9738 26.3645,43.9738 C26.5085,43.9738 26.6245,44.0908 26.6245,44.2338 C26.6245,44.3778 26.5085,44.4938 26.3645,44.4938" id="Fill-54" fill="#1D96DD"></path>
                    <path d="M24.4583,43.5734 C24.3093,43.5734 24.1883,43.4524 24.1883,43.3034 C24.1883,43.1554 24.3093,43.0344 24.4583,43.0344 C24.6073,43.0344 24.7283,43.1554 24.7283,43.3034 C24.7283,43.4524 24.6073,43.5734 24.4583,43.5734" id="Fill-56" fill="#1D96DD"></path>
                    <path d="M22.6022,42.5424 C22.4482,42.5424 22.3232,42.4174 22.3232,42.2634 C22.3232,42.1094 22.4482,41.9844 22.6022,41.9844 C22.7562,41.9844 22.8812,42.1094 22.8812,42.2634 C22.8812,42.4174 22.7562,42.5424 22.6022,42.5424" id="Fill-58" fill="#1D96DD"></path>
                    <path d="M20.8183,41.4001 C20.6583,41.4001 20.5293,41.2711 20.5293,41.1111 C20.5293,40.9521 20.6583,40.8231 20.8183,40.8231 C20.9773,40.8231 21.1073,40.9521 21.1073,41.1111 C21.1073,41.2711 20.9773,41.4001 20.8183,41.4001" id="Fill-60" fill="#1D96DD"></path>
                    <path d="M19.1077,40.1477 C18.9427,40.1477 18.8097,40.0137 18.8097,39.8487 C18.8097,39.6847 18.9427,39.5507 19.1077,39.5507 C19.2727,39.5507 19.4057,39.6847 19.4057,39.8487 C19.4057,40.0137 19.2727,40.1477 19.1077,40.1477" id="Fill-62" fill="#1D96DD"></path>
                    <path d="M17.4799,38.7919 C17.3099,38.7919 17.1719,38.6539 17.1719,38.4839 C17.1719,38.3139 17.3099,38.1759 17.4799,38.1759 C17.6499,38.1759 17.7879,38.3139 17.7879,38.4839 C17.7879,38.6539 17.6499,38.7919 17.4799,38.7919" id="Fill-64" fill="#1D96DD"></path>
                    <path d="M15.9355,37.341 C15.7595,37.341 15.6175,37.199 15.6175,37.023 C15.6175,36.848 15.7595,36.706 15.9355,36.706 C16.1105,36.706 16.2535,36.848 16.2535,37.023 C16.2535,37.199 16.1105,37.341 15.9355,37.341" id="Fill-66" fill="#1D96DD"></path>
                    <path d="M14.4783,35.8085 C14.2973,35.8085 14.1513,35.6625 14.1513,35.4815 C14.1513,35.3005 14.2973,35.1545 14.4783,35.1545 C14.6593,35.1545 14.8053,35.3005 14.8053,35.4815 C14.8053,35.6625 14.6593,35.8085 14.4783,35.8085" id="Fill-68" fill="#1D96DD"></path>
                    <path d="M13.1044,34.1958 C12.9184,34.1958 12.7674,34.0448 12.7674,33.8588 C12.7674,33.6728 12.9184,33.5218 13.1044,33.5218 C13.2904,33.5218 13.4414,33.6728 13.4414,33.8588 C13.4414,34.0448 13.2904,34.1958 13.1044,34.1958" id="Fill-70" fill="#1D96DD"></path>
                    <path d="M11.8208,32.51 C11.6298,32.51 11.4748,32.355 11.4748,32.163 C11.4748,31.972 11.6298,31.817 11.8208,31.817 C12.0118,31.817 12.1668,31.972 12.1668,32.163 C12.1668,32.355 12.0118,32.51 11.8208,32.51" id="Fill-72" fill="#1D96DD"></path>
                    <path d="M10.6306,30.7575 C10.4336,30.7575 10.2746,30.5985 10.2746,30.4015 C10.2746,30.2045 10.4336,30.0455 10.6306,30.0455 C10.8276,30.0455 10.9866,30.2045 10.9866,30.4015 C10.9866,30.5985 10.8276,30.7575 10.6306,30.7575" id="Fill-74" fill="#1D96DD"></path>
                    <path d="M9.5269,28.9489 C9.3249,28.9489 9.1609,28.7849 9.1609,28.5829 C9.1609,28.3809 9.3249,28.2179 9.5269,28.2179 C9.7289,28.2179 9.8929,28.3809 9.8929,28.5829 C9.8929,28.7849 9.7289,28.9489 9.5269,28.9489" id="Fill-76" fill="#1D96DD"></path>
                    <path d="M8.5096,27.0898 C8.3026,27.0898 8.1346,26.9218 8.1346,26.7138 C8.1346,26.5068 8.3026,26.3388 8.5096,26.3388 C8.7166,26.3388 8.8846,26.5068 8.8846,26.7138 C8.8846,26.9218 8.7166,27.0898 8.5096,27.0898" id="Fill-78" fill="#1D96DD"></path>
                    <path d="M7.5815,25.1867 C7.3685,25.1867 7.1965,25.0147 7.1965,24.8017 C7.1965,24.5887 7.3685,24.4167 7.5815,24.4167 C7.7945,24.4167 7.9665,24.5887 7.9665,24.8017 C7.9665,25.0147 7.7945,25.1867 7.5815,25.1867" id="Fill-80" fill="#1D96DD"></path>
                    <path d="M6.746,23.239 C6.528,23.239 6.351,23.062 6.351,22.844 C6.351,22.626 6.528,22.45 6.746,22.45 C6.964,22.45 7.141,22.626 7.141,22.844 C7.141,23.062 6.964,23.239 6.746,23.239" id="Fill-82" fill="#1D96DD"></path>
                    <path d="M5.9991,21.2578 C5.7761,21.2578 5.5951,21.0768 5.5951,20.8538 C5.5951,20.6298 5.7761,20.4488 5.9991,20.4488 C6.2221,20.4488 6.4031,20.6298 6.4031,20.8538 C6.4031,21.0768 6.2221,21.2578 5.9991,21.2578" id="Fill-84" fill="#1D96DD"></path>
                    <path d="M5.3185,19.2526 C5.0905,19.2526 4.9045,19.0676 4.9045,18.8386 C4.9045,18.6106 5.0905,18.4246 5.3185,18.4246 C5.5475,18.4246 5.7325,18.6106 5.7325,18.8386 C5.7325,19.0676 5.5475,19.2526 5.3185,19.2526" id="Fill-86" fill="#1D96DD"></path>
                    <path d="M4.705,17.2263 C4.471,17.2263 4.281,17.0373 4.281,16.8023 C4.281,16.5683 4.471,16.3793 4.705,16.3793 C4.939,16.3793 5.129,16.5683 5.129,16.8023 C5.129,17.0373 4.939,17.2263 4.705,17.2263" id="Fill-88" fill="#1D96DD"></path>
                    <path d="M4.1595,15.1804 C3.9205,15.1804 3.7265,14.9864 3.7265,14.7474 C3.7265,14.5084 3.9205,14.3144 4.1595,14.3144 C4.3985,14.3144 4.5925,14.5084 4.5925,14.7474 C4.5925,14.9864 4.3985,15.1804 4.1595,15.1804" id="Fill-90" fill="#1D96DD"></path>
                    <path d="M3.683,13.1169 C3.438,13.1169 3.24,12.9189 3.24,12.6739 C3.24,12.4299 3.438,12.2309 3.683,12.2309 C3.927,12.2309 4.126,12.4299 4.126,12.6739 C4.126,12.9189 3.927,13.1169 3.683,13.1169" id="Fill-92" fill="#1D96DD"></path>
                    <path d="M3.2603,11.0422 C3.0103,11.0422 2.8083,10.8392 2.8083,10.5902 C2.8083,10.3402 3.0103,10.1372 3.2603,10.1372 C3.5103,10.1372 3.7123,10.3402 3.7123,10.5902 C3.7123,10.8392 3.5103,11.0422 3.2603,11.0422" id="Fill-94" fill="#1D96DD"></path>
                    <path d="M2.894,8.9536 C2.639,8.9536 2.432,8.7466 2.432,8.4916 C2.432,8.2366 2.639,8.0296 2.894,8.0296 C3.149,8.0296 3.356,8.2366 3.356,8.4916 C3.356,8.7466 3.149,8.9536 2.894,8.9536" id="Fill-96" fill="#1D96DD"></path>
                    <path d="M2.593,6.8557 C2.333,6.8557 2.121,6.6447 2.121,6.3837 C2.121,6.1237 2.333,5.9127 2.593,5.9127 C2.853,5.9127 3.065,6.1237 3.065,6.3837 C3.065,6.6447 2.853,6.8557 2.593,6.8557" id="Fill-98" fill="#1D96DD"></path>
                    <path d="M2.3284,4.7536 C2.0624,4.7536 1.8474,4.5376 1.8474,4.2726 C1.8474,4.0066 2.0624,3.7906 2.3284,3.7906 C2.5944,3.7906 2.8094,4.0066 2.8094,4.2726 C2.8094,4.5376 2.5944,4.7536 2.3284,4.7536" id="Fill-100" fill="#1D96DD"></path>
                    <g id="Group-104" transform="translate(0.000000, 0.162300)">
                        <mask id="mask-4" fill="white">
                            <use xlink:href="#path-3"></use>
                        </mask>
                        <g id="Clip-103"></g>
                        <path d="M4.4615,2.8179 C4.3195,1.5899 3.2075,0.7099 1.9805,0.8529 C0.7525,0.9949 -0.1275,2.1059 0.0155,3.3339 C0.1575,4.5619 1.2685,5.4419 2.4965,5.2989 C3.7235,5.1569 4.6035,4.0459 4.4615,2.8179" id="Fill-102" fill="#1D96DD" mask="url(#mask-4)"></path>
                    </g>
                </g>
                <g id="Page-1" transform="translate(53.980264, 87.869352) rotate(184.000000) translate(-53.980264, -87.869352) translate(31.480264, 59.869352)">
                    <path d="M12.8804,54.2576 C12.8694,54.2576 12.8594,54.2486 12.8594,54.2366 C12.8594,54.2246 12.8694,54.2156 12.8804,54.2156 C12.8924,54.2156 12.9014,54.2246 12.9014,54.2366 C12.9014,54.2486 12.8924,54.2576 12.8804,54.2576" id="Fill-1" fill="#1D96DD"></path>
                    <path d="M13.3264,52.2031 C13.3034,52.2031 13.2844,52.1841 13.2844,52.1611 C13.2844,52.1371 13.3034,52.1181 13.3264,52.1181 C13.3494,52.1181 13.3684,52.1371 13.3684,52.1611 C13.3684,52.1841 13.3494,52.2031 13.3264,52.2031" id="Fill-3" fill="#1D96DD"></path>
                    <path d="M13.7781,50.1475 C13.7431,50.1475 13.7141,50.1195 13.7141,50.0845 C13.7141,50.0495 13.7431,50.0205 13.7781,50.0205 C13.8131,50.0205 13.8411,50.0495 13.8411,50.0845 C13.8411,50.1195 13.8131,50.1475 13.7781,50.1475" id="Fill-5" fill="#1D96DD"></path>
                    <path d="M14.2375,48.0933 C14.1905,48.0933 14.1535,48.0553 14.1535,48.0093 C14.1535,47.9623 14.1905,47.9243 14.2375,47.9243 C14.2845,47.9243 14.3225,47.9623 14.3225,48.0093 C14.3225,48.0553 14.2845,48.0933 14.2375,48.0933" id="Fill-7" fill="#1D96DD"></path>
                    <path d="M14.7051,46.0447 C14.6471,46.0447 14.5991,45.9977 14.5991,45.9387 C14.5991,45.8807 14.6471,45.8327 14.7051,45.8327 C14.7631,45.8327 14.8111,45.8807 14.8111,45.9387 C14.8111,45.9977 14.7631,46.0447 14.7051,46.0447" id="Fill-9" fill="#1D96DD"></path>
                    <path d="M15.1675,43.9939 C15.0975,43.9939 15.0405,43.9369 15.0405,43.8669 C15.0405,43.7969 15.0975,43.7399 15.1675,43.7399 C15.2375,43.7399 15.2945,43.7969 15.2945,43.8669 C15.2945,43.9369 15.2375,43.9939 15.1675,43.9939" id="Fill-11" fill="#1D96DD"></path>
                    <path d="M15.6142,41.9365 C15.5322,41.9365 15.4662,41.8705 15.4662,41.7885 C15.4662,41.7065 15.5322,41.6405 15.6142,41.6405 C15.6962,41.6405 15.7622,41.7065 15.7622,41.7885 C15.7622,41.8705 15.6962,41.9365 15.6142,41.9365" id="Fill-13" fill="#1D96DD"></path>
                    <path d="M16.0281,39.8723 C15.9341,39.8723 15.8591,39.7963 15.8591,39.7033 C15.8591,39.6093 15.9341,39.5333 16.0281,39.5333 C16.1221,39.5333 16.1971,39.6093 16.1971,39.7033 C16.1971,39.7963 16.1221,39.8723 16.0281,39.8723" id="Fill-15" fill="#1D96DD"></path>
                    <path d="M16.3928,37.7983 C16.2878,37.7983 16.2028,37.7133 16.2028,37.6083 C16.2028,37.5023 16.2878,37.4173 16.3928,37.4173 C16.4978,37.4173 16.5828,37.5023 16.5828,37.6083 C16.5828,37.7133 16.4978,37.7983 16.3928,37.7983" id="Fill-17" fill="#1D96DD"></path>
                    <g id="Group-21" transform="translate(16.000000, 34.314700)">
                        <mask id="mask-6" fill="white">
                            <use xlink:href="#path-5"></use>
                        </mask>
                        <g id="Clip-20"></g>
                        <path d="M0.6926,1.3989 C0.5756,1.3989 0.4806,1.3039 0.4806,1.1879 C0.4806,1.0709 0.5756,0.9759 0.6926,0.9759 C0.8096,0.9759 0.9036,1.0709 0.9036,1.1879 C0.9036,1.3039 0.8096,1.3989 0.6926,1.3989" id="Fill-19" fill="#1D96DD" mask="url(#mask-6)"></path>
                    </g>
                    <g id="Group-24" transform="translate(16.000000, 32.314700)">
                        <mask id="mask-8" fill="white">
                            <use xlink:href="#path-7"></use>
                        </mask>
                        <g id="Clip-23"></g>
                        <path d="M0.9123,1.3052 C0.7833,1.3052 0.6793,1.2012 0.6793,1.0722 C0.6793,0.9442 0.7833,0.8392 0.9123,0.8392 C1.0403,0.8392 1.1453,0.9442 1.1453,1.0722 C1.1453,1.2012 1.0403,1.3052 0.9123,1.3052" id="Fill-22" fill="#1D96DD" mask="url(#mask-8)"></path>
                    </g>
                    <g id="Group-27" transform="translate(16.000000, 30.314700)">
                        <mask id="mask-10" fill="white">
                            <use xlink:href="#path-9"></use>
                        </mask>
                        <g id="Clip-26"></g>
                        <path d="M1.0102,1.2024 C0.8702,1.2024 0.7562,1.0894 0.7562,0.9484 C0.7562,0.8084 0.8702,0.6944 1.0102,0.6944 C1.1502,0.6944 1.2642,0.8084 1.2642,0.9484 C1.2642,1.0894 1.1502,1.2024 1.0102,1.2024" id="Fill-25" fill="#1D96DD" mask="url(#mask-10)"></path>
                    </g>
                    <g id="Group-30" transform="translate(16.000000, 28.314700)">
                        <mask id="mask-12" fill="white">
                            <use xlink:href="#path-11"></use>
                        </mask>
                        <g id="Clip-29"></g>
                        <path d="M0.9184,1.0999 C0.7664,1.0999 0.6434,0.9769 0.6434,0.8249 C0.6434,0.6729 0.7664,0.5499 0.9184,0.5499 C1.0704,0.5499 1.1934,0.6729 1.1934,0.8249 C1.1934,0.9769 1.0704,1.0999 0.9184,1.0999" id="Fill-28" fill="#1D96DD" mask="url(#mask-12)"></path>
                    </g>
                    <path d="M16.532,27.3462 C16.368,27.3462 16.236,27.2132 16.236,27.0502 C16.236,26.8862 16.368,26.7542 16.532,26.7542 C16.695,26.7542 16.828,26.8862 16.828,27.0502 C16.828,27.2132 16.695,27.3462 16.532,27.3462" id="Fill-31" fill="#1D96DD"></path>
                    <path d="M15.7488,25.3931 C15.5738,25.3931 15.4318,25.2511 15.4318,25.0761 C15.4318,24.9001 15.5738,24.7581 15.7488,24.7581 C15.9238,24.7581 16.0658,24.9001 16.0658,25.0761 C16.0658,25.2511 15.9238,25.3931 15.7488,25.3931" id="Fill-33" fill="#1D96DD"></path>
                    <path d="M14.5608,23.6553 C14.3738,23.6553 14.2218,23.5033 14.2218,23.3163 C14.2218,23.1293 14.3738,22.9783 14.5608,22.9783 C14.7478,22.9783 14.8988,23.1293 14.8988,23.3163 C14.8988,23.5033 14.7478,23.6553 14.5608,23.6553" id="Fill-35" fill="#1D96DD"></path>
                    <path d="M13.0076,22.2285 C12.8086,22.2285 12.6476,22.0675 12.6476,21.8685 C12.6476,21.6705 12.8086,21.5095 13.0076,21.5095 C13.2066,21.5095 13.3676,21.6705 13.3676,21.8685 C13.3676,22.0675 13.2066,22.2285 13.0076,22.2285" id="Fill-37" fill="#1D96DD"></path>
                    <path d="M44.381,0.762 C44.171,0.762 44,0.591 44,0.381 C44,0.171 44.171,-7.10542736e-14 44.381,-7.10542736e-14 C44.591,-7.10542736e-14 44.762,0.171 44.762,0.381 C44.762,0.591 44.591,0.762 44.381,0.762" id="Fill-39" fill="#1D96DD"></path>
                    <path d="M9.2576,20.2937 C9.0356,20.2937 8.8556,20.1137 8.8556,19.8917 C8.8556,19.6697 9.0356,19.4897 9.2576,19.4897 C9.4796,19.4897 9.6596,19.6697 9.6596,19.8917 C9.6596,20.1137 9.4796,20.2937 9.2576,20.2937" id="Fill-41" fill="#1D96DD"></path>
                    <path d="M7.2322,19.6697 C6.9982,19.6697 6.8092,19.4807 6.8092,19.2467 C6.8092,19.0127 6.9982,18.8237 7.2322,18.8237 C7.4662,18.8237 7.6552,19.0127 7.6552,19.2467 C7.6552,19.4807 7.4662,19.6697 7.2322,19.6697" id="Fill-43" fill="#1D96DD"></path>
                    <path d="M5.1728,19.1633 C4.9278,19.1633 4.7288,18.9643 4.7288,18.7193 C4.7288,18.4733 4.9278,18.2743 5.1728,18.2743 C5.4178,18.2743 5.6168,18.4733 5.6168,18.7193 C5.6168,18.9643 5.4178,19.1633 5.1728,19.1633" id="Fill-45" fill="#1D96DD"></path>
                    <path d="M3.1174,18.8086 C2.8604,18.8086 2.6514,18.6006 2.6514,18.3436 C2.6514,18.0866 2.8604,17.8776 3.1174,17.8776 C3.3744,17.8776 3.5824,18.0866 3.5824,18.3436 C3.5824,18.6006 3.3744,18.8086 3.1174,18.8086" id="Fill-47" fill="#1D96DD"></path>
                    <g id="Group-51" transform="translate(-0.000000, 15.314700)">
                        <mask id="mask-14" fill="white">
                            <use xlink:href="#path-13"></use>
                        </mask>
                        <g id="Clip-50"></g>
                        <path d="M2.4656,0.697 C1.2356,0.572 0.1376,1.467 0.0116,2.696 C-0.1134,3.926 0.7816,5.025 2.0106,5.15 C3.2406,5.276 4.3396,4.38 4.4646,3.151 C4.5906,1.921 3.6946,0.823 2.4656,0.697" id="Fill-49" fill="#1D96DD" mask="url(#mask-14)"></path>
                    </g>
                </g>
                <g id="Page-1" transform="translate(56.641323, 94.831424) rotate(155.000000) translate(-56.641323, -94.831424) translate(44.141323, 63.331424)">
                    <path d="M0.2158,61.8214 C0.2078,61.8214 0.2008,61.8144 0.2008,61.8064 C0.2008,61.7974 0.2078,61.7904 0.2158,61.7904 C0.2158,61.7904 0.2308,61.7974 0.2308,61.8064 C0.2308,61.8144 0.2238,61.8214 0.2158,61.8214" id="Fill-1" fill="#1D96DD"></path>
                    <path d="M1.4331,60.0975 C1.4161,60.0975 1.4021,60.0835 1.4021,60.0665 C1.4021,60.0495 1.4161,60.0355 1.4331,60.0355 C1.4501,60.0355 1.4641,60.0495 1.4641,60.0665 C1.4641,60.0835 1.4501,60.0975 1.4331,60.0975" id="Fill-3" fill="#1D96DD"></path>
                    <path d="M2.6531,58.3727 C2.6281,58.3727 2.6071,58.3517 2.6071,58.3267 C2.6071,58.3007 2.6281,58.2807 2.6531,58.2807 C2.6781,58.2807 2.6991,58.3007 2.6991,58.3267 C2.6991,58.3517 2.6781,58.3727 2.6531,58.3727" id="Fill-5" fill="#1D96DD"></path>
                    <path d="M3.8781,56.6515 C3.8441,56.6515 3.8171,56.6235 3.8171,56.5905 C3.8171,56.5565 3.8441,56.5285 3.8781,56.5285 C3.9121,56.5285 3.9401,56.5565 3.9401,56.5905 C3.9401,56.6235 3.9121,56.6515 3.8781,56.6515" id="Fill-7" fill="#1D96DD"></path>
                    <path d="M5.1072,54.9376 C5.0652,54.9376 5.0302,54.9036 5.0302,54.8606 C5.0302,54.8176 5.0652,54.7836 5.1072,54.7836 C5.1492,54.7836 5.1842,54.8176 5.1842,54.8606 C5.1842,54.9036 5.1492,54.9376 5.1072,54.9376" id="Fill-9" fill="#1D96DD"></path>
                    <path d="M6.3318,53.2157 C6.2808,53.2157 6.2398,53.1737 6.2398,53.1237 C6.2398,53.0727 6.2808,53.0307 6.3318,53.0307 C6.3828,53.0307 6.4238,53.0727 6.4238,53.1237 C6.4238,53.1737 6.3828,53.2157 6.3318,53.2157" id="Fill-11" fill="#1D96DD"></path>
                    <path d="M7.54,51.4823 C7.481,51.4823 7.432,51.4343 7.432,51.3743 C7.432,51.3153 7.481,51.2673 7.54,51.2673 C7.6,51.2673 7.648,51.3153 7.648,51.3743 C7.648,51.4343 7.6,51.4823 7.54,51.4823" id="Fill-13" fill="#1D96DD"></path>
                    <path d="M8.7241,49.7321 C8.6561,49.7321 8.6011,49.6771 8.6011,49.6091 C8.6011,49.5411 8.6561,49.4861 8.7241,49.4861 C8.7921,49.4861 8.8471,49.5411 8.8471,49.6091 C8.8471,49.6771 8.7921,49.7321 8.7241,49.7321" id="Fill-15" fill="#1D96DD"></path>
                    <path d="M9.8821,47.965 C9.8061,47.965 9.7441,47.903 9.7441,47.826 C9.7441,47.75 9.8061,47.688 9.8821,47.688 C9.9591,47.688 10.0211,47.75 10.0211,47.826 C10.0211,47.903 9.9591,47.965 9.8821,47.965" id="Fill-17" fill="#1D96DD"></path>
                    <path d="M11.0141,46.1805 C10.9291,46.1805 10.8601,46.1115 10.8601,46.0265 C10.8601,45.9415 10.9291,45.8725 11.0141,45.8725 C11.0991,45.8725 11.1681,45.9415 11.1681,46.0265 C11.1681,46.1115 11.0991,46.1805 11.0141,46.1805" id="Fill-19" fill="#1D96DD"></path>
                    <path d="M12.1174,44.3788 C12.0244,44.3788 11.9484,44.3028 11.9484,44.2098 C11.9484,44.1158 12.0244,44.0408 12.1174,44.0408 C12.2114,44.0408 12.2864,44.1158 12.2864,44.2098 C12.2864,44.3028 12.2114,44.3788 12.1174,44.3788" id="Fill-21" fill="#1D96DD"></path>
                    <path d="M13.1848,42.5553 C13.0828,42.5553 12.9998,42.4723 12.9998,42.3703 C12.9998,42.2683 13.0828,42.1863 13.1848,42.1863 C13.2868,42.1863 13.3698,42.2683 13.3698,42.3703 C13.3698,42.4723 13.2868,42.5553 13.1848,42.5553" id="Fill-23" fill="#1D96DD"></path>
                    <path d="M14.2129,40.7098 C14.1029,40.7098 14.0129,40.6198 14.0129,40.5098 C14.0129,40.3988 14.1029,40.3098 14.2129,40.3098 C14.3239,40.3098 14.4129,40.3988 14.4129,40.5098 C14.4129,40.6198 14.3239,40.7098 14.2129,40.7098" id="Fill-25" fill="#1D96DD"></path>
                    <path d="M15.1987,38.8412 C15.0797,38.8412 14.9837,38.7452 14.9837,38.6262 C14.9837,38.5062 15.0797,38.4102 15.1987,38.4102 C15.3177,38.4102 15.4137,38.5062 15.4137,38.6262 C15.4137,38.7452 15.3177,38.8412 15.1987,38.8412" id="Fill-27" fill="#1D96DD"></path>
                    <path d="M16.1379,36.9484 C16.0109,36.9484 15.9069,36.8454 15.9069,36.7174 C15.9069,36.5904 16.0109,36.4864 16.1379,36.4864 C16.2659,36.4864 16.3689,36.5904 16.3689,36.7174 C16.3689,36.8454 16.2659,36.9484 16.1379,36.9484" id="Fill-29" fill="#1D96DD"></path>
                    <path d="M17.0256,35.0299 C16.8896,35.0299 16.7796,34.9199 16.7796,34.7839 C16.7796,34.6479 16.8896,34.5379 17.0256,34.5379 C17.1616,34.5379 17.2716,34.6479 17.2716,34.7839 C17.2716,34.9199 17.1616,35.0299 17.0256,35.0299" id="Fill-31" fill="#1D96DD"></path>
                    <path d="M17.855,33.0861 C17.71,33.0861 17.594,32.9691 17.594,32.8241 C17.594,32.6801 17.71,32.5631 17.855,32.5631 C18,32.5631 18.117,32.6801 18.117,32.8241 C18.117,32.9691 18,33.0861 17.855,33.0861" id="Fill-33" fill="#1D96DD"></path>
                    <path d="M18.6159,31.1163 C18.4629,31.1163 18.3389,30.9923 18.3389,30.8393 C18.3389,30.6863 18.4629,30.5623 18.6159,30.5623 C18.7689,30.5623 18.8929,30.6863 18.8929,30.8393 C18.8929,30.9923 18.7689,31.1163 18.6159,31.1163" id="Fill-35" fill="#1D96DD"></path>
                    <path d="M19.3137,29.1205 C19.1517,29.1205 19.0207,28.9895 19.0207,28.8275 C19.0207,28.6665 19.1517,28.5355 19.3137,28.5355 C19.4747,28.5355 19.6057,28.6665 19.6057,28.8275 C19.6057,28.9895 19.4747,29.1205 19.3137,29.1205" id="Fill-37" fill="#1D96DD"></path>
                    <path d="M19.9499,27.1054 C19.7799,27.1054 19.6419,26.9674 19.6419,26.7974 C19.6419,26.6274 19.7799,26.4904 19.9499,26.4904 C20.1199,26.4904 20.2579,26.6274 20.2579,26.7974 C20.2579,26.9674 20.1199,27.1054 19.9499,27.1054" id="Fill-39" fill="#1D96DD"></path>
                    <path d="M20.5173,25.0717 C20.3393,25.0717 20.1943,24.9267 20.1943,24.7487 C20.1943,24.5697 20.3393,24.4257 20.5173,24.4257 C20.6953,24.4257 20.8403,24.5697 20.8403,24.7487 C20.8403,24.9267 20.6953,25.0717 20.5173,25.0717" id="Fill-41" fill="#1D96DD"></path>
                    <path d="M21.0112,23.0148 C20.8242,23.0148 20.6722,22.8628 20.6722,22.6768 C20.6722,22.4898 20.8242,22.3378 21.0112,22.3378 C21.1982,22.3378 21.3492,22.4898 21.3492,22.6768 C21.3492,22.8628 21.1982,23.0148 21.0112,23.0148" id="Fill-43" fill="#1D96DD"></path>
                    <path d="M21.4177,20.9418 C21.2217,20.9418 21.0637,20.7838 21.0637,20.5878 C21.0637,20.3928 21.2217,20.2338 21.4177,20.2338 C21.6127,20.2338 21.7717,20.3928 21.7717,20.5878 C21.7717,20.7838 21.6127,20.9418 21.4177,20.9418" id="Fill-45" fill="#1D96DD"></path>
                    <path d="M21.7292,18.8541 C21.5252,18.8541 21.3602,18.6891 21.3602,18.4851 C21.3602,18.2811 21.5252,18.1161 21.7292,18.1161 C21.9332,18.1161 22.0982,18.2811 22.0982,18.4851 C22.0982,18.6891 21.9332,18.8541 21.7292,18.8541" id="Fill-47" fill="#1D96DD"></path>
                    <path d="M21.9712,16.757 C21.7592,16.757 21.5862,16.585 21.5862,16.372 C21.5862,16.16 21.7592,15.988 21.9712,15.988 C22.1832,15.988 22.3552,16.16 22.3552,16.372 C22.3552,16.585 22.1832,16.757 21.9712,16.757" id="Fill-49" fill="#1D96DD"></path>
                    <path d="M22.1433,14.653 C21.9223,14.653 21.7433,14.474 21.7433,14.253 C21.7433,14.032 21.9223,13.853 22.1433,13.853 C22.3643,13.853 22.5433,14.032 22.5433,14.253 C22.5433,14.474 22.3643,14.653 22.1433,14.653" id="Fill-51" fill="#1D96DD"></path>
                    <path d="M22.2456,12.5446 C22.0166,12.5446 21.8306,12.3586 21.8306,12.1296 C21.8306,11.8996 22.0166,11.7136 22.2456,11.7136 C22.4746,11.7136 22.6606,11.8996 22.6606,12.1296 C22.6606,12.3586 22.4746,12.5446 22.2456,12.5446" id="Fill-53" fill="#1D96DD"></path>
                    <path d="M22.3154,10.4347 C22.0774,10.4347 21.8844,10.2417 21.8844,10.0037 C21.8844,9.7657 22.0774,9.5727 22.3154,9.5727 C22.5534,9.5727 22.7464,9.7657 22.7464,10.0037 C22.7464,10.2417 22.5534,10.4347 22.3154,10.4347" id="Fill-55" fill="#1D96DD"></path>
                    <path d="M22.3933,8.3251 C22.1463,8.3251 21.9473,8.1251 21.9473,7.8791 C21.9473,7.6321 22.1463,7.4331 22.3933,7.4331 C22.6393,7.4331 22.8393,7.6321 22.8393,7.8791 C22.8393,8.1251 22.6393,8.3251 22.3933,8.3251" id="Fill-57" fill="#1D96DD"></path>
                    <path d="M22.4824,6.215 C22.2274,6.215 22.0204,6.008 22.0204,5.753 C22.0204,5.498 22.2274,5.292 22.4824,5.292 C22.7374,5.292 22.9444,5.498 22.9444,5.753 C22.9444,6.008 22.7374,6.215 22.4824,6.215" id="Fill-59" fill="#1D96DD"></path>
                    <path d="M22.5769,4.5953 C22.3129,4.5953 22.0999,4.3813 22.0999,4.1183 C22.0999,3.8553 22.3129,3.6413 22.5769,3.6413 C22.8399,3.6413 23.0539,3.8553 23.0539,4.1183 C23.0539,4.3813 22.8399,4.5953 22.5769,4.5953" id="Fill-61" fill="#1D96DD"></path>
                    <g id="Group-65" transform="translate(20.000000, 0.547000)">
                        <mask id="mask-16" fill="white">
                            <use xlink:href="#path-15"></use>
                        </mask>
                        <g id="Clip-64"></g>
                        <path d="M4.9123,2.8528 C5.0013,1.6198 4.0743,0.5478 2.8413,0.4588 C1.6093,0.3698 0.5373,1.2968 0.4473,2.5298 C0.3583,3.7618 1.2863,4.8338 2.5183,4.9228 C3.7513,5.0128 4.8233,4.0858 4.9123,2.8528" id="Fill-63" fill="#1D96DD" mask="url(#mask-16)"></path>
                    </g>
                </g>
                <g id="Page-1" transform="translate(68.468209, 106.370759) rotate(-111.000000) translate(-68.468209, -106.370759) translate(52.468209, 102.370759)" fill="#1D96DD">
                    <path d="M30.2489,2.71142 C30.2319,2.71142 30.2179,2.69742 30.2179,2.68042 C30.2179,2.66242 30.2319,2.64942 30.2489,2.64942 C30.2659,2.64942 30.2799,2.66242 30.2799,2.68042 C30.2799,2.69742 30.2659,2.71142 30.2489,2.71142" id="Fill-1"></path>
                    <path d="M28.2272,2.09252 C28.1922,2.09252 28.1652,2.06452 28.1652,2.03052 C28.1652,1.99552 28.1922,1.96752 28.2272,1.96752 C28.2612,1.96752 28.2892,1.99552 28.2892,2.03052 C28.2892,2.06452 28.2612,2.09252 28.2272,2.09252" id="Fill-3"></path>
                    <path d="M26.1925,1.50902 C26.1405,1.50902 26.0985,1.46702 26.0985,1.41502 C26.0985,1.36302 26.1405,1.32202 26.1925,1.32202 C26.2445,1.32202 26.2865,1.36302 26.2865,1.41502 C26.2865,1.46702 26.2445,1.50902 26.1925,1.50902" id="Fill-5"></path>
                    <path d="M24.1378,0.99632 C24.0688,0.99632 24.0128,0.94032 24.0128,0.87132 C24.0128,0.80232 24.0688,0.74632 24.1378,0.74632 C24.2068,0.74632 24.2628,0.80232 24.2628,0.87132 C24.2628,0.94032 24.2068,0.99632 24.1378,0.99632" id="Fill-7"></path>
                    <path d="M22.0471,0.64912 C21.9611,0.64912 21.8911,0.57912 21.8911,0.49312 C21.8911,0.40712 21.9611,0.33712 22.0471,0.33712 C22.1331,0.33712 22.2031,0.40712 22.2031,0.49312 C22.2031,0.57912 22.1331,0.64912 22.0471,0.64912" id="Fill-9"></path>
                    <path d="M19.9308,0.46512 C19.8268,0.46512 19.7438,0.38112 19.7438,0.27812 C19.7438,0.17412 19.8268,0.09012 19.9308,0.09012 C20.0348,0.09012 20.1178,0.17412 20.1178,0.27812 C20.1178,0.38112 20.0348,0.46512 19.9308,0.46512" id="Fill-11"></path>
                    <path d="M17.8053,0.43722 C17.6843,0.43722 17.5873,0.33922 17.5873,0.21922 C17.5873,0.09822 17.6843,0.00022 17.8053,0.00022 C17.9263,0.00022 18.0243,0.09822 18.0243,0.21922 C18.0243,0.33922 17.9263,0.43722 17.8053,0.43722" id="Fill-13"></path>
                    <path d="M15.6842,0.60812 C15.5462,0.60812 15.4342,0.49612 15.4342,0.35812 C15.4342,0.22012 15.5462,0.10812 15.6842,0.10812 C15.8222,0.10812 15.9342,0.22012 15.9342,0.35812 C15.9342,0.49612 15.8222,0.60812 15.6842,0.60812" id="Fill-15"></path>
                    <path d="M13.5773,0.95242 C13.4223,0.95242 13.2963,0.82642 13.2963,0.67142 C13.2963,0.51642 13.4223,0.39042 13.5773,0.39042 C13.7323,0.39042 13.8583,0.51642 13.8583,0.67142 C13.8583,0.82642 13.7323,0.95242 13.5773,0.95242" id="Fill-17"></path>
                    <path d="M11.494,1.41702 C11.321,1.41702 11.182,1.27702 11.182,1.10502 C11.182,0.93202 11.321,0.79202 11.494,0.79202 C11.666,0.79202 11.806,0.93202 11.806,1.10502 C11.806,1.27702 11.666,1.41702 11.494,1.41702" id="Fill-19"></path>
                    <path d="M9.4344,1.99072 C9.2444,1.99072 9.0904,1.83672 9.0904,1.64772 C9.0904,1.45772 9.2444,1.30372 9.4344,1.30372 C9.6244,1.30372 9.7784,1.45772 9.7784,1.64772 C9.7784,1.83672 9.6244,1.99072 9.4344,1.99072" id="Fill-21"></path>
                    <path d="M7.4436,2.76662 C7.2366,2.76662 7.0686,2.59862 7.0686,2.39162 C7.0686,2.18462 7.2366,2.01662 7.4436,2.01662 C7.6506,2.01662 7.8186,2.18462 7.8186,2.39162 C7.8186,2.59862 7.6506,2.76662 7.4436,2.76662" id="Fill-23"></path>
                    <path d="M5.5321,3.72702 C5.3081,3.72702 5.1261,3.54502 5.1261,3.32102 C5.1261,3.09702 5.3081,2.91502 5.5321,2.91502 C5.7561,2.91502 5.9381,3.09702 5.9381,3.32102 C5.9381,3.54502 5.7561,3.72702 5.5321,3.72702" id="Fill-25"></path>
                    <path d="M3.684,4.81152 C3.442,4.81152 3.247,4.61552 3.247,4.37452 C3.247,4.13252 3.442,3.93752 3.684,3.93752 C3.925,3.93752 4.121,4.13252 4.121,4.37452 C4.121,4.61552 3.925,4.81152 3.684,4.81152" id="Fill-27"></path>
                    <path d="M0.6652,3.77982 C-0.2138,4.64882 -0.2228,6.06582 0.6462,6.94482 C1.5142,7.82382 2.9312,7.83282 3.8112,6.96382 C4.6902,6.09582 4.6992,4.67882 3.8302,3.79882 C2.9622,2.91982 1.5442,2.91182 0.6652,3.77982" id="Fill-29"></path>
                </g>
                <g id="Page-1" transform="translate(52.084716, 53.434216) rotate(213.000000) translate(-52.084716, -53.434216) translate(17.084716, 12.934216)">
                    <path d="M51.4007,77.6096 L51.3917,77.6006 C51.3917,77.5946 51.3957,77.5906 51.3957,77.5906 C51.4057,77.5906 51.4107,77.5946 51.4107,77.6006 C51.4107,77.6006 51.4057,77.6096 51.4007,77.6096" id="Fill-1" fill="#1D96DD"></path>
                    <path d="M50.9786,75.5356 C50.9686,75.5356 50.9596,75.5266 50.9596,75.5166 C50.9596,75.5066 50.9686,75.4976 50.9786,75.4976 C50.9896,75.4976 50.9976,75.5066 50.9976,75.5166 C50.9976,75.5266 50.9896,75.5356 50.9786,75.5356" id="Fill-3" fill="#1D96DD"></path>
                    <path d="M50.5692,73.4612 C50.5532,73.4612 50.5402,73.4482 50.5402,73.4322 C50.5402,73.4162 50.5532,73.4042 50.5692,73.4042 C50.5852,73.4042 50.5982,73.4162 50.5982,73.4322 C50.5982,73.4482 50.5852,73.4612 50.5692,73.4612" id="Fill-5" fill="#1D96DD"></path>
                    <path d="M50.1812,71.3818 C50.1602,71.3818 50.1432,71.3648 50.1432,71.3438 C50.1432,71.3228 50.1602,71.3058 50.1812,71.3058 C50.2022,71.3058 50.2192,71.3228 50.2192,71.3438 C50.2192,71.3648 50.2022,71.3818 50.1812,71.3818" id="Fill-7" fill="#1D96DD"></path>
                    <path d="M49.8082,69.2983 C49.7822,69.2983 49.7602,69.2773 49.7602,69.2503 C49.7602,69.2243 49.7822,69.2033 49.8082,69.2033 C49.8342,69.2033 49.8562,69.2243 49.8562,69.2503 C49.8562,69.2773 49.8342,69.2983 49.8082,69.2983" id="Fill-9" fill="#1D96DD"></path>
                    <path d="M49.4476,67.2129 C49.4156,67.2129 49.3906,67.1879 49.3906,67.1559 C49.3906,67.1249 49.4156,67.0989 49.4476,67.0989 C49.4786,67.0989 49.5046,67.1249 49.5046,67.1559 C49.5046,67.1879 49.4786,67.2129 49.4476,67.2129" id="Fill-11" fill="#1D96DD"></path>
                    <path d="M49.098,65.1255 C49.061,65.1255 49.031,65.0955 49.031,65.0595 C49.031,65.0225 49.061,64.9925 49.098,64.9925 C49.135,64.9925 49.164,65.0225 49.164,65.0595 C49.164,65.0955 49.135,65.1255 49.098,65.1255" id="Fill-13" fill="#1D96DD"></path>
                    <path d="M48.7559,63.0366 C48.7139,63.0366 48.6799,63.0026 48.6799,62.9606 C48.6799,62.9186 48.7139,62.8846 48.7559,62.8846 C48.7979,62.8846 48.8319,62.9186 48.8319,62.9606 C48.8319,63.0026 48.7979,63.0366 48.7559,63.0366" id="Fill-15" fill="#1D96DD"></path>
                    <path d="M48.4202,60.948 C48.3732,60.948 48.3352,60.91 48.3352,60.862 C48.3352,60.815 48.3732,60.777 48.4202,60.777 C48.4672,60.777 48.5052,60.815 48.5052,60.862 C48.5052,60.91 48.4672,60.948 48.4202,60.948" id="Fill-17" fill="#1D96DD"></path>
                    <path d="M48.0904,58.8572 C48.0384,58.8572 47.9954,58.8152 47.9954,58.7622 C47.9954,58.7092 48.0384,58.6672 48.0904,58.6672 C48.1434,58.6672 48.1854,58.7092 48.1854,58.7622 C48.1854,58.8152 48.1434,58.8572 48.0904,58.8572" id="Fill-19" fill="#1D96DD"></path>
                    <path d="M47.762,56.7661 C47.704,56.7661 47.658,56.7191 47.658,56.6611 C47.658,56.6041 47.704,56.5571 47.762,56.5571 C47.82,56.5571 47.867,56.6041 47.867,56.6611 C47.867,56.7191 47.82,56.7661 47.762,56.7661" id="Fill-21" fill="#1D96DD"></path>
                    <path d="M47.4298,54.6755 C47.3668,54.6755 47.3158,54.6245 47.3158,54.5615 C47.3158,54.4985 47.3668,54.4475 47.4298,54.4475 C47.4928,54.4475 47.5438,54.4985 47.5438,54.5615 C47.5438,54.6245 47.4928,54.6755 47.4298,54.6755" id="Fill-23" fill="#1D96DD"></path>
                    <path d="M47.0877,52.5864 C47.0197,52.5864 46.9647,52.5314 46.9647,52.4624 C46.9647,52.3944 47.0197,52.3394 47.0877,52.3394 C47.1557,52.3394 47.2117,52.3944 47.2117,52.4624 C47.2117,52.5314 47.1557,52.5864 47.0877,52.5864" id="Fill-25" fill="#1D96DD"></path>
                    <path d="M46.7298,50.4997 C46.6558,50.4997 46.5968,50.4397 46.5968,50.3667 C46.5968,50.2937 46.6558,50.2337 46.7298,50.2337 C46.8038,50.2337 46.8628,50.2937 46.8628,50.3667 C46.8628,50.4397 46.8038,50.4997 46.7298,50.4997" id="Fill-27" fill="#1D96DD"></path>
                    <path d="M46.3489,48.4175 C46.2699,48.4175 46.2069,48.3535 46.2069,48.2745 C46.2069,48.1965 46.2699,48.1325 46.3489,48.1325 C46.4279,48.1325 46.4909,48.1965 46.4909,48.2745 C46.4909,48.3535 46.4279,48.4175 46.3489,48.4175" id="Fill-29" fill="#1D96DD"></path>
                    <path d="M45.94,46.3403 C45.856,46.3403 45.788,46.2723 45.788,46.1883 C45.788,46.1043 45.856,46.0363 45.94,46.0363 C46.024,46.0363 46.092,46.1043 46.092,46.1883 C46.092,46.2723 46.024,46.3403 45.94,46.3403" id="Fill-31" fill="#1D96DD"></path>
                    <path d="M45.4959,44.2698 C45.4069,44.2698 45.3339,44.1968 45.3339,44.1078 C45.3339,44.0188 45.4069,43.9468 45.4959,43.9468 C45.5849,43.9468 45.6579,44.0188 45.6579,44.1078 C45.6579,44.1968 45.5849,44.2698 45.4959,44.2698" id="Fill-33" fill="#1D96DD"></path>
                    <path d="M45.0069,42.2087 C44.9129,42.2087 44.8359,42.1327 44.8359,42.0377 C44.8359,41.9437 44.9129,41.8667 45.0069,41.8667 C45.1009,41.8667 45.1779,41.9437 45.1779,42.0377 C45.1779,42.1327 45.1009,42.2087 45.0069,42.2087" id="Fill-35" fill="#1D96DD"></path>
                    <path d="M44.4627,40.1618 C44.3627,40.1618 44.2827,40.0808 44.2827,39.9818 C44.2827,39.8818 44.3627,39.8008 44.4627,39.8008 C44.5627,39.8008 44.6437,39.8818 44.6437,39.9818 C44.6437,40.0808 44.5627,40.1618 44.4627,40.1618" id="Fill-37" fill="#1D96DD"></path>
                    <path d="M43.8575,38.1328 C43.7525,38.1328 43.6675,38.0478 43.6675,37.9428 C43.6675,37.8378 43.7525,37.7528 43.8575,37.7528 C43.9625,37.7528 44.0475,37.8378 44.0475,37.9428 C44.0475,38.0478 43.9625,38.1328 43.8575,38.1328" id="Fill-39" fill="#1D96DD"></path>
                    <path d="M43.1917,36.1228 C43.0817,36.1228 42.9927,36.0338 42.9927,35.9238 C42.9927,35.8128 43.0817,35.7238 43.1917,35.7238 C43.3017,35.7238 43.3917,35.8128 43.3917,35.9238 C43.3917,36.0338 43.3017,36.1228 43.1917,36.1228" id="Fill-41" fill="#1D96DD"></path>
                    <path d="M42.4549,34.1335 C42.3399,34.1335 42.2459,34.0395 42.2459,33.9245 C42.2459,33.8085 42.3399,33.7155 42.4549,33.7155 C42.5709,33.7155 42.6639,33.8085 42.6639,33.9245 C42.6639,34.0395 42.5709,34.1335 42.4549,34.1335" id="Fill-43" fill="#1D96DD"></path>
                    <path d="M41.6429,32.1777 C41.5219,32.1777 41.4239,32.0797 41.4239,31.9587 C41.4239,31.8387 41.5219,31.7407 41.6429,31.7407 C41.7639,31.7407 41.8619,31.8387 41.8619,31.9587 C41.8619,32.0797 41.7639,32.1777 41.6429,32.1777" id="Fill-45" fill="#1D96DD"></path>
                    <path d="M40.6749,30.2925 C40.5489,30.2925 40.4469,30.1905 40.4469,30.0645 C40.4469,29.9385 40.5489,29.8365 40.6749,29.8365 C40.8009,29.8365 40.9029,29.9385 40.9029,30.0645 C40.9029,30.1905 40.8009,30.2925 40.6749,30.2925" id="Fill-47" fill="#1D96DD"></path>
                    <path d="M39.2374,28.7654 C39.1064,28.7654 38.9994,28.6584 38.9994,28.5274 C38.9994,28.3964 39.1064,28.2904 39.2374,28.2904 C39.3684,28.2904 39.4754,28.3964 39.4754,28.5274 C39.4754,28.6584 39.3684,28.7654 39.2374,28.7654" id="Fill-49" fill="#1D96DD"></path>
                    <path d="M37.1964,28.2629 C37.0594,28.2629 36.9494,28.1519 36.9494,28.0159 C36.9494,27.8799 37.0594,27.7689 37.1964,27.7689 C37.3324,27.7689 37.4434,27.8799 37.4434,28.0159 C37.4434,28.1519 37.3324,28.2629 37.1964,28.2629" id="Fill-51" fill="#1D96DD"></path>
                    <path d="M35.0743,28.1806 C34.9323,28.1806 34.8173,28.0656 34.8173,27.9246 C34.8173,27.7826 34.9323,27.6676 35.0743,27.6676 C35.2163,27.6676 35.3303,27.7826 35.3303,27.9246 C35.3303,28.0656 35.2163,28.1806 35.0743,28.1806" id="Fill-53" fill="#1D96DD"></path>
                    <path d="M32.9542,28.0271 C32.8072,28.0271 32.6882,27.9081 32.6882,27.7611 C32.6882,27.6141 32.8072,27.4951 32.9542,27.4951 C33.1012,27.4951 33.2202,27.6141 33.2202,27.7611 C33.2202,27.9081 33.1012,28.0271 32.9542,28.0271" id="Fill-55" fill="#1D96DD"></path>
                    <path d="M31.1714,27.1538 C31.0194,27.1538 30.8954,27.0298 30.8954,26.8778 C30.8954,26.7258 31.0194,26.6028 31.1714,26.6028 C31.3234,26.6028 31.4474,26.7258 31.4474,26.8778 C31.4474,27.0298 31.3234,27.1538 31.1714,27.1538" id="Fill-57" fill="#1D96DD"></path>
                    <path d="M32.4515,25.5693 C32.2935,25.5693 32.1665,25.4413 32.1665,25.2843 C32.1665,25.1263 32.2935,24.9993 32.4515,24.9993 C32.6085,24.9993 32.7365,25.1263 32.7365,25.2843 C32.7365,25.4413 32.6085,25.5693 32.4515,25.5693" id="Fill-59" fill="#1D96DD"></path>
                    <path d="M34.2979,24.5281 C34.1349,24.5281 34.0039,24.3961 34.0039,24.2331 C34.0039,24.0711 34.1349,23.9391 34.2979,23.9391 C34.4609,23.9391 34.5929,24.0711 34.5929,24.2331 C34.5929,24.3961 34.4609,24.5281 34.2979,24.5281" id="Fill-61" fill="#1D96DD"></path>
                    <path d="M36.192,23.5722 C36.024,23.5722 35.888,23.4362 35.888,23.2682 C35.888,23.1002 36.024,22.9642 36.192,22.9642 C36.36,22.9642 36.496,23.1002 36.496,23.2682 C36.496,23.4362 36.36,23.5722 36.192,23.5722" id="Fill-63" fill="#1D96DD"></path>
                    <path d="M36.2056,22.0327 C36.0326,22.0327 35.8916,21.8927 35.8916,21.7187 C35.8916,21.5457 36.0326,21.4057 36.2056,21.4057 C36.3786,21.4057 36.5196,21.5457 36.5196,21.7187 C36.5196,21.8927 36.3786,22.0327 36.2056,22.0327" id="Fill-65" fill="#1D96DD"></path>
                    <path d="M34.3485,21.0088 C34.1705,21.0088 34.0255,20.8638 34.0255,20.6858 C34.0255,20.5068 34.1705,20.3628 34.3485,20.3628 C34.5265,20.3628 34.6715,20.5068 34.6715,20.6858 C34.6715,20.8638 34.5265,21.0088 34.3485,21.0088" id="Fill-67" fill="#1D96DD"></path>
                    <path d="M32.4571,20.0549 C32.2731,20.0549 32.1241,19.9059 32.1241,19.7219 C32.1241,19.5389 32.2731,19.3899 32.4571,19.3899 C32.6411,19.3899 32.7901,19.5389 32.7901,19.7219 C32.7901,19.9059 32.6411,20.0549 32.4571,20.0549" id="Fill-69" fill="#1D96DD"></path>
                    <path d="M30.5589,19.1072 C30.3699,19.1072 30.2169,18.9542 30.2169,18.7652 C30.2169,18.5762 30.3699,18.4232 30.5589,18.4232 C30.7479,18.4232 30.9009,18.5762 30.9009,18.7652 C30.9009,18.9542 30.7479,19.1072 30.5589,19.1072" id="Fill-71" fill="#1D96DD"></path>
                    <path d="M28.6578,18.1662 C28.4638,18.1662 28.3058,18.0092 28.3058,17.8152 C28.3058,17.6202 28.4638,17.4632 28.6578,17.4632 C28.8518,17.4632 29.0098,17.6202 29.0098,17.8152 C29.0098,18.0092 28.8518,18.1662 28.6578,18.1662" id="Fill-73" fill="#1D96DD"></path>
                    <path d="M26.7764,17.1865 C26.5774,17.1865 26.4154,17.0245 26.4154,16.8255 C26.4154,16.6255 26.5774,16.4645 26.7764,16.4645 C26.9754,16.4645 27.1374,16.6255 27.1374,16.8255 C27.1374,17.0245 26.9754,17.1865 26.7764,17.1865" id="Fill-75" fill="#1D96DD"></path>
                    <path d="M24.9102,16.1784 C24.7052,16.1784 24.5392,16.0124 24.5392,15.8074 C24.5392,15.6034 24.7052,15.4374 24.9102,15.4374 C25.1152,15.4374 25.2812,15.6034 25.2812,15.8074 C25.2812,16.0124 25.1152,16.1784 24.9102,16.1784" id="Fill-77" fill="#1D96DD"></path>
                    <path d="M23.0543,15.1513 C22.8443,15.1513 22.6743,14.9813 22.6743,14.7713 C22.6743,14.5613 22.8443,14.3913 23.0543,14.3913 C23.2643,14.3913 23.4343,14.5613 23.4343,14.7713 C23.4343,14.9813 23.2643,15.1513 23.0543,15.1513" id="Fill-79" fill="#1D96DD"></path>
                    <path d="M21.21,14.1094 C20.995,14.1094 20.82,13.9344 20.82,13.7194 C20.82,13.5044 20.995,13.3304 21.21,13.3304 C21.425,13.3304 21.6,13.5044 21.6,13.7194 C21.6,13.9344 21.425,14.1094 21.21,14.1094" id="Fill-81" fill="#1D96DD"></path>
                    <path d="M19.3714,13.0515 C19.1504,13.0515 18.9724,12.8735 18.9724,12.6525 C18.9724,12.4325 19.1504,12.2535 19.3714,12.2535 C19.5924,12.2535 19.7704,12.4325 19.7704,12.6525 C19.7704,12.8735 19.5924,13.0515 19.3714,13.0515" id="Fill-83" fill="#1D96DD"></path>
                    <path d="M17.5391,11.9836 C17.3131,11.9836 17.1301,11.8006 17.1301,11.5756 C17.1301,11.3496 17.3131,11.1666 17.5391,11.1666 C17.7651,11.1666 17.9481,11.3496 17.9481,11.5756 C17.9481,11.8006 17.7651,11.9836 17.5391,11.9836" id="Fill-85" fill="#1D96DD"></path>
                    <path d="M15.7103,10.9092 C15.4793,10.9092 15.2923,10.7222 15.2923,10.4912 C15.2923,10.2602 15.4793,10.0732 15.7103,10.0732 C15.9413,10.0732 16.1283,10.2602 16.1283,10.4912 C16.1283,10.7222 15.9413,10.9092 15.7103,10.9092" id="Fill-87" fill="#1D96DD"></path>
                    <path d="M13.8829,9.8323 C13.6469,9.8323 13.4549,9.6413 13.4549,9.4043 C13.4549,9.1683 13.6469,8.9773 13.8829,8.9773 C14.1189,8.9773 14.3099,9.1683 14.3099,9.4043 C14.3099,9.6413 14.1189,9.8323 13.8829,9.8323" id="Fill-89" fill="#1D96DD"></path>
                    <path d="M12.0447,8.7673 C11.8037,8.7673 11.6077,8.5713 11.6077,8.3303 C11.6077,8.0893 11.8037,7.8933 12.0447,7.8933 C12.2867,7.8933 12.4817,8.0893 12.4817,8.3303 C12.4817,8.5713 12.2867,8.7673 12.0447,8.7673" id="Fill-91" fill="#1D96DD"></path>
                    <path d="M10.1932,7.7229 C9.9462,7.7229 9.7462,7.5229 9.7462,7.2759 C9.7462,7.0299 9.9462,6.8299 10.1932,6.8299 C10.4402,6.8299 10.6402,7.0299 10.6402,7.2759 C10.6402,7.5229 10.4402,7.7229 10.1932,7.7229" id="Fill-93" fill="#1D96DD"></path>
                    <path d="M8.3231,6.7163 C8.0711,6.7163 7.8671,6.5123 7.8671,6.2603 C7.8671,6.0083 8.0711,5.8043 8.3231,5.8043 C8.5751,5.8043 8.7791,6.0083 8.7791,6.2603 C8.7791,6.5123 8.5751,6.7163 8.3231,6.7163" id="Fill-95" fill="#1D96DD"></path>
                    <path d="M6.4239,5.7644 C6.1669,5.7644 5.9579,5.5564 5.9579,5.2984 C5.9579,5.0414 6.1669,4.8334 6.4239,4.8334 C6.6809,4.8334 6.8899,5.0414 6.8899,5.2984 C6.8899,5.5564 6.6809,5.7644 6.4239,5.7644" id="Fill-97" fill="#1D96DD"></path>
                    <path d="M4.4952,4.8769 C4.2332,4.8769 4.0202,4.6639 4.0202,4.4019 C4.0202,4.1389 4.2332,3.9269 4.4952,3.9269 C4.7572,3.9269 4.9702,4.1389 4.9702,4.4019 C4.9702,4.6639 4.7572,4.8769 4.4952,4.8769" id="Fill-99" fill="#1D96DD"></path>
                    <path d="M3.0623,4.2771 C2.7943,4.2771 2.5773,4.0601 2.5773,3.7921 C2.5773,3.5251 2.7943,3.3081 3.0623,3.3081 C3.3303,3.3081 3.5473,3.5251 3.5473,3.7921 C3.5473,4.0601 3.3303,4.2771 3.0623,4.2771" id="Fill-101" fill="#1D96DD"></path>
                    <path d="M3.0467,1.3874 C1.8937,0.9414 0.5977,1.5144 0.1517,2.6664 C-0.2943,3.8194 0.2777,5.1154 1.4307,5.5614 C2.5837,6.0074 3.8797,5.4354 4.3257,4.2824 C4.7717,3.1294 4.1997,1.8334 3.0467,1.3874" id="Fill-103" fill="#1D96DD"></path>
                    <path d="M14.2217,73.667 C14.1997,73.667 14.1817,73.649 14.1817,73.627 C14.1817,73.605 14.1997,73.587 14.2217,73.587 C14.2437,73.587 14.2617,73.605 14.2617,73.627 C14.2617,73.649 14.2437,73.667 14.2217,73.667" id="Fill-109" fill="#1D96DD"></path>
                    <path d="M13.657,71.6313 C13.628,71.6313 13.604,71.6073 13.604,71.5783 C13.604,71.5493 13.628,71.5253 13.657,71.5253 C13.687,71.5253 13.71,71.5493 13.71,71.5783 C13.71,71.6073 13.687,71.6313 13.657,71.6313" id="Fill-111" fill="#1D96DD"></path>
                    <path d="M13.1934,69.5703 C13.1564,69.5703 13.1274,69.5403 13.1274,69.5043 C13.1274,69.4673 13.1564,69.4373 13.1934,69.4373 C13.2304,69.4373 13.2594,69.4673 13.2594,69.5043 C13.2594,69.5403 13.2304,69.5703 13.1934,69.5703" id="Fill-113" fill="#1D96DD"></path>
                    <path d="M12.8069,67.4978 C12.7629,67.4978 12.7279,67.4618 12.7279,67.4178 C12.7279,67.3738 12.7629,67.3388 12.8069,67.3388 C12.8509,67.3388 12.8869,67.3738 12.8869,67.4178 C12.8869,67.4618 12.8509,67.4978 12.8069,67.4978" id="Fill-115" fill="#1D96DD"></path>
                    <path d="M12.4813,65.4106 C12.4303,65.4106 12.3883,65.3686 12.3883,65.3176 C12.3883,65.2666 12.4303,65.2246 12.4813,65.2246 C12.5323,65.2246 12.5743,65.2666 12.5743,65.3176 C12.5743,65.3686 12.5323,65.4106 12.4813,65.4106" id="Fill-117" fill="#1D96DD"></path>
                    <path d="M12.2093,63.3179 C12.1503,63.3179 12.1033,63.2699 12.1033,63.2119 C12.1033,63.1529 12.1503,63.1049 12.2093,63.1049 C12.2683,63.1049 12.3153,63.1529 12.3153,63.2119 C12.3153,63.2699 12.2683,63.3179 12.2093,63.3179" id="Fill-119" fill="#1D96DD"></path>
                    <path d="M11.9932,61.2173 C11.9272,61.2173 11.8732,61.1643 11.8732,61.0983 C11.8732,61.0313 11.9272,60.9783 11.9932,60.9783 C12.0592,60.9783 12.1132,61.0313 12.1132,61.0983 C12.1132,61.1643 12.0592,61.2173 11.9932,61.2173" id="Fill-121" fill="#1D96DD"></path>
                    <path d="M11.8265,59.1113 C11.7535,59.1113 11.6935,59.0513 11.6935,58.9783 C11.6935,58.9053 11.7535,58.8453 11.8265,58.8453 C11.9005,58.8453 11.9595,58.9053 11.9595,58.9783 C11.9595,59.0513 11.9005,59.1113 11.8265,59.1113" id="Fill-123" fill="#1D96DD"></path>
                    <path d="M11.7025,57.0032 C11.6215,57.0032 11.5565,56.9382 11.5565,56.8572 C11.5565,56.7762 11.6215,56.7112 11.7025,56.7112 C11.7835,56.7112 11.8485,56.7762 11.8485,56.8572 C11.8485,56.9382 11.7835,57.0032 11.7025,57.0032" id="Fill-125" fill="#1D96DD"></path>
                    <path d="M11.6153,54.8923 C11.5273,54.8923 11.4563,54.8203 11.4563,54.7333 C11.4563,54.6453 11.5273,54.5733 11.6153,54.5733 C11.7033,54.5733 11.7743,54.6453 11.7743,54.7333 C11.7743,54.8203 11.7033,54.8923 11.6153,54.8923" id="Fill-127" fill="#1D96DD"></path>
                    <path d="M11.5606,52.7805 C11.4656,52.7805 11.3876,52.7035 11.3876,52.6075 C11.3876,52.5125 11.4656,52.4355 11.5606,52.4355 C11.6556,52.4355 11.7336,52.5125 11.7336,52.6075 C11.7336,52.7035 11.6556,52.7805 11.5606,52.7805" id="Fill-129" fill="#1D96DD"></path>
                    <path d="M11.5474,50.6679 C11.4444,50.6679 11.3614,50.5849 11.3614,50.4819 C11.3614,50.3789 11.4444,50.2959 11.5474,50.2959 C11.6504,50.2959 11.7334,50.3789 11.7334,50.4819 C11.7334,50.5849 11.6504,50.6679 11.5474,50.6679" id="Fill-131" fill="#1D96DD"></path>
                    <path d="M11.5894,48.5571 C11.4794,48.5571 11.3904,48.4681 11.3904,48.3581 C11.3904,48.2481 11.4794,48.1591 11.5894,48.1591 C11.6994,48.1591 11.7884,48.2481 11.7884,48.3581 C11.7884,48.4681 11.6994,48.5571 11.5894,48.5571" id="Fill-133" fill="#1D96DD"></path>
                    <path d="M11.6851,46.4458 C11.5681,46.4458 11.4731,46.3508 11.4731,46.2338 C11.4731,46.1158 11.5681,46.0208 11.6851,46.0208 C11.8031,46.0208 11.8981,46.1158 11.8981,46.2338 C11.8981,46.3508 11.8031,46.4458 11.6851,46.4458" id="Fill-135" fill="#1D96DD"></path>
                    <path d="M11.8311,44.3379 C11.7061,44.3379 11.6051,44.2369 11.6051,44.1119 C11.6051,43.9879 11.7061,43.8869 11.8311,43.8869 C11.9561,43.8869 12.0571,43.9879 12.0571,44.1119 C12.0571,44.2369 11.9561,44.3379 11.8311,44.3379" id="Fill-137" fill="#1D96DD"></path>
                    <path d="M12.0203,42.2334 C11.8883,42.2334 11.7813,42.1264 11.7813,41.9944 C11.7813,41.8624 11.8883,41.7554 12.0203,41.7554 C12.1523,41.7554 12.2593,41.8624 12.2593,41.9944 C12.2593,42.1264 12.1523,42.2334 12.0203,42.2334" id="Fill-139" fill="#1D96DD"></path>
                    <path d="M12.2506,40.1323 C12.1116,40.1323 11.9986,40.0193 11.9986,39.8803 C11.9986,39.7403 12.1116,39.6273 12.2506,39.6273 C12.3896,39.6273 12.5026,39.7403 12.5026,39.8803 C12.5026,40.0193 12.3896,40.1323 12.2506,40.1323" id="Fill-141" fill="#1D96DD"></path>
                    <path d="M12.5137,38.0349 C12.3667,38.0349 12.2477,37.9159 12.2477,37.7699 C12.2477,37.6229 12.3667,37.5039 12.5137,37.5039 C12.6607,37.5039 12.7797,37.6229 12.7797,37.7699 C12.7797,37.9159 12.6607,38.0349 12.5137,38.0349" id="Fill-143" fill="#1D96DD"></path>
                    <path d="M12.8006,35.9411 C12.6466,35.9411 12.5216,35.8161 12.5216,35.6621 C12.5216,35.5081 12.6466,35.3831 12.8006,35.3831 C12.9546,35.3831 13.0796,35.5081 13.0796,35.6621 C13.0796,35.8161 12.9546,35.9411 12.8006,35.9411" id="Fill-145" fill="#1D96DD"></path>
                    <path d="M13.1085,33.8506 C12.9475,33.8506 12.8165,33.7196 12.8165,33.5586 C12.8165,33.3976 12.9475,33.2666 13.1085,33.2666 C13.2695,33.2666 13.4005,33.3976 13.4005,33.5586 C13.4005,33.7196 13.2695,33.8506 13.1085,33.8506" id="Fill-147" fill="#1D96DD"></path>
                    <path d="M13.4271,31.7602 C13.2581,31.7602 13.1221,31.6232 13.1221,31.4542 C13.1221,31.2862 13.2581,31.1492 13.4271,31.1492 C13.5961,31.1492 13.7321,31.2862 13.7321,31.4542 C13.7321,31.6232 13.5961,31.7602 13.4271,31.7602" id="Fill-149" fill="#1D96DD"></path>
                    <path d="M13.7498,29.6719 C13.5738,29.6719 13.4308,29.5289 13.4308,29.3529 C13.4308,29.1769 13.5738,29.0349 13.7498,29.0349 C13.9258,29.0349 14.0688,29.1769 14.0688,29.3529 C14.0688,29.5289 13.9258,29.6719 13.7498,29.6719" id="Fill-151" fill="#1D96DD"></path>
                    <path d="M14.0706,27.5805 C13.8866,27.5805 13.7386,27.4325 13.7386,27.2485 C13.7386,27.0655 13.8866,26.9165 14.0706,26.9165 C14.2536,26.9165 14.4026,27.0655 14.4026,27.2485 C14.4026,27.4325 14.2536,27.5805 14.0706,27.5805" id="Fill-153" fill="#1D96DD"></path>
                    <path d="M14.3785,25.4897 C14.1875,25.4897 14.0335,25.3347 14.0335,25.1447 C14.0335,24.9537 14.1875,24.7987 14.3785,24.7987 C14.5695,24.7987 14.7235,24.9537 14.7235,25.1447 C14.7235,25.3347 14.5695,25.4897 14.3785,25.4897" id="Fill-155" fill="#1D96DD"></path>
                    <path d="M14.6617,23.3926 C14.4637,23.3926 14.3027,23.2326 14.3027,23.0336 C14.3027,22.8356 14.4637,22.6756 14.6617,22.6756 C14.8597,22.6756 15.0207,22.8356 15.0207,23.0336 C15.0207,23.2326 14.8597,23.3926 14.6617,23.3926" id="Fill-157" fill="#1D96DD"></path>
                    <path d="M14.9002,21.2932 C14.6952,21.2932 14.5282,21.1262 14.5282,20.9212 C14.5282,20.7162 14.6952,20.5492 14.9002,20.5492 C15.1052,20.5492 15.2722,20.7162 15.2722,20.9212 C15.2722,21.1262 15.1052,21.2932 14.9002,21.2932" id="Fill-159" fill="#1D96DD"></path>
                    <path d="M15.0711,19.1838 C14.8581,19.1838 14.6861,19.0118 14.6861,18.7988 C14.6861,18.5858 14.8581,18.4138 15.0711,18.4138 C15.2841,18.4138 15.4561,18.5858 15.4561,18.7988 C15.4561,19.0118 15.2841,19.1838 15.0711,19.1838" id="Fill-161" fill="#1D96DD"></path>
                    <path d="M15.1453,17.0693 C14.9253,17.0693 14.7473,16.8913 14.7473,16.6713 C14.7473,16.4513 14.9253,16.2723 15.1453,16.2723 C15.3653,16.2723 15.5433,16.4513 15.5433,16.6713 C15.5433,16.8913 15.3653,17.0693 15.1453,17.0693" id="Fill-163" fill="#1D96DD"></path>
                    <path d="M15.0811,14.9558 C14.8541,14.9558 14.6691,14.7718 14.6691,14.5438 C14.6691,14.3168 14.8541,14.1328 15.0811,14.1328 C15.3081,14.1328 15.4931,14.3168 15.4931,14.5438 C15.4931,14.7718 15.3081,14.9558 15.0811,14.9558" id="Fill-165" fill="#1D96DD"></path>
                    <path d="M14.7723,12.8635 C14.5373,12.8635 14.3473,12.6735 14.3473,12.4385 C14.3473,12.2035 14.5373,12.0135 14.7723,12.0135 C15.0073,12.0135 15.1973,12.2035 15.1973,12.4385 C15.1973,12.6735 15.0073,12.8635 14.7723,12.8635" id="Fill-167" fill="#1D96DD"></path>
                    <path d="M14.0679,10.8733 C13.8259,10.8733 13.6299,10.6773 13.6299,10.4353 C13.6299,10.1933 13.8259,9.9963 14.0679,9.9963 C14.3099,9.9963 14.5059,10.1933 14.5059,10.4353 C14.5059,10.6773 14.3099,10.8733 14.0679,10.8733" id="Fill-169" fill="#1D96DD"></path>
                    <path d="M12.9373,9.0896 C12.6883,9.0896 12.4853,8.8876 12.4853,8.6376 C12.4853,8.3886 12.6883,8.1866 12.9373,8.1866 C13.1863,8.1866 13.3893,8.3886 13.3893,8.6376 C13.3893,8.8876 13.1863,9.0896 12.9373,9.0896" id="Fill-171" fill="#1D96DD"></path>
                    <path d="M11.3836,7.6548 C11.1266,7.6548 10.9186,7.4468 10.9186,7.1898 C10.9186,6.9338 11.1266,6.7248 11.3836,6.7248 C11.6406,6.7248 11.8486,6.9338 11.8486,7.1898 C11.8486,7.4468 11.6406,7.6548 11.3836,7.6548" id="Fill-173" fill="#1D96DD"></path>
                    <path d="M9.7908,6.6821 C9.5268,6.6821 9.3128,6.4681 9.3128,6.2041 C9.3128,5.9401 9.5268,5.7261 9.7908,5.7261 C10.0548,5.7261 10.2688,5.9401 10.2688,6.2041 C10.2688,6.4681 10.0548,6.6821 9.7908,6.6821" id="Fill-175" fill="#1D96DD"></path>
                    <path d="M9.6873,3.7212 C8.5143,3.3312 7.2473,3.9662 6.8573,5.1382 C6.4673,6.3112 7.1023,7.5782 8.2743,7.9682 C9.4473,8.3582 10.7143,7.7242 11.1043,6.5512 C11.4943,5.3782 10.8603,4.1112 9.6873,3.7212" id="Fill-177" fill="#1D96DD"></path>
                    <g id="Group-181" transform="translate(30.000000, 78.678200)">
                        <mask id="mask-18" fill="white">
                            <use xlink:href="#path-17"></use>
                        </mask>
                        <g id="Clip-180"></g>
                        <path d="M0.4515,0.0728 C0.4515,0.0728 0.4395,0.0678 0.4395,0.0608 L0.4515,0.0488 C0.4585,0.0488 0.4635,0.0538 0.4635,0.0538 C0.4635,0.0678 0.4585,0.0728 0.4515,0.0728" id="Fill-179" fill="#1D96DD" mask="url(#mask-18)"></path>
                    </g>
                    <path d="M28.5101,77.9026 C28.4961,77.9026 28.4861,77.8916 28.4861,77.8786 C28.4861,77.8656 28.4961,77.8546 28.5101,77.8546 C28.5231,77.8546 28.5341,77.8656 28.5341,77.8786 C28.5341,77.8916 28.5231,77.9026 28.5101,77.9026" id="Fill-182" fill="#1D96DD"></path>
                    <path d="M26.6358,76.9133 C26.6158,76.9133 26.5998,76.8973 26.5998,76.8773 C26.5998,76.8573 26.6158,76.8413 26.6358,76.8413 C26.6558,76.8413 26.6718,76.8573 26.6718,76.8773 C26.6718,76.8973 26.6558,76.9133 26.6358,76.9133" id="Fill-184" fill="#1D96DD"></path>
                    <path d="M24.848,75.7707 C24.821,75.7707 24.8,75.7487 24.8,75.7227 C24.8,75.6957 24.821,75.6747 24.848,75.6747 C24.875,75.6747 24.896,75.6957 24.896,75.7227 C24.896,75.7487 24.875,75.7707 24.848,75.7707" id="Fill-186" fill="#1D96DD"></path>
                    <path d="M23.1409,74.5183 C23.1079,74.5183 23.0809,74.4913 23.0809,74.4583 C23.0809,74.4243 23.1079,74.3983 23.1409,74.3983 C23.1739,74.3983 23.2009,74.4243 23.2009,74.4583 C23.2009,74.4913 23.1739,74.5183 23.1409,74.5183" id="Fill-188" fill="#1D96DD"></path>
                    <path d="M21.5147,73.1665 C21.4747,73.1665 21.4427,73.1345 21.4427,73.0945 C21.4427,73.0545 21.4747,73.0225 21.5147,73.0225 C21.5547,73.0225 21.5867,73.0545 21.5867,73.0945 C21.5867,73.1345 21.5547,73.1665 21.5147,73.1665" id="Fill-190" fill="#1D96DD"></path>
                    <path d="M19.9583,71.7344 C19.9113,71.7344 19.8743,71.6964 19.8743,71.6494 C19.8743,71.6034 19.9113,71.5654 19.9583,71.5654 C20.0043,71.5654 20.0423,71.6034 20.0423,71.6494 C20.0423,71.6964 20.0043,71.7344 19.9583,71.7344" id="Fill-192" fill="#1D96DD"></path>
                    <path d="M18.4908,70.2104 C18.4378,70.2104 18.3948,70.1674 18.3948,70.1144 C18.3948,70.0614 18.4378,70.0174 18.4908,70.0174 C18.5438,70.0174 18.5868,70.0614 18.5868,70.1144 C18.5868,70.1674 18.5438,70.2104 18.4908,70.2104" id="Fill-194" fill="#1D96DD"></path>
                    <path d="M17.1285,68.5913 C17.0685,68.5913 17.0205,68.5433 17.0205,68.4833 C17.0205,68.4233 17.0685,68.3743 17.1285,68.3743 C17.1885,68.3743 17.2365,68.4233 17.2365,68.4833 C17.2365,68.5433 17.1885,68.5913 17.1285,68.5913" id="Fill-196" fill="#1D96DD"></path>
                    <path d="M15.8629,66.8952 C15.7969,66.8952 15.7429,66.8412 15.7429,66.7752 C15.7429,66.7082 15.7969,66.6542 15.8629,66.6542 C15.9289,66.6542 15.9829,66.7082 15.9829,66.7752 C15.9829,66.8412 15.9289,66.8952 15.8629,66.8952" id="Fill-198" fill="#1D96DD"></path>
                    <path d="M14.691,65.1377 C14.618,65.1377 14.559,65.0787 14.559,65.0057 C14.559,64.9317 14.618,64.8727 14.691,64.8727 C14.764,64.8727 14.823,64.9317 14.823,65.0057 C14.823,65.0787 14.764,65.1377 14.691,65.1377" id="Fill-200" fill="#1D96DD"></path>
                    <path d="M13.6126,63.3193 C13.5326,63.3193 13.4676,63.2543 13.4676,63.1753 C13.4676,63.0953 13.5326,63.0303 13.6126,63.0303 C13.6926,63.0303 13.7566,63.0953 13.7566,63.1753 C13.7566,63.2543 13.6926,63.3193 13.6126,63.3193" id="Fill-202" fill="#1D96DD"></path>
                    <path d="M12.6275,61.4472 C12.5415,61.4472 12.4705,61.3772 12.4705,61.2912 C12.4705,61.2042 12.5415,61.1342 12.6275,61.1342 C12.7135,61.1342 12.7835,61.2042 12.7835,61.2912 C12.7835,61.3772 12.7135,61.4472 12.6275,61.4472" id="Fill-204" fill="#1D96DD"></path>
                    <path d="M11.7298,59.5334 C11.6368,59.5334 11.5608,59.4584 11.5608,59.3644 C11.5608,59.2714 11.6368,59.1964 11.7298,59.1964 C11.8228,59.1964 11.8988,59.2714 11.8988,59.3644 C11.8988,59.4584 11.8228,59.5334 11.7298,59.5334" id="Fill-206" fill="#1D96DD"></path>
                    <path d="M10.9151,57.5813 C10.8151,57.5813 10.7351,57.5003 10.7351,57.4013 C10.7351,57.3013 10.8151,57.2203 10.9151,57.2203 C11.0151,57.2203 11.0961,57.3013 11.0961,57.4013 C11.0961,57.5003 11.0151,57.5813 10.9151,57.5813" id="Fill-208" fill="#1D96DD"></path>
                    <path d="M10.1798,55.5989 C10.0738,55.5989 9.9868,55.5129 9.9868,55.4059 C9.9868,55.2999 10.0738,55.2139 10.1798,55.2139 C10.2858,55.2139 10.3728,55.2999 10.3728,55.4059 C10.3728,55.5129 10.2858,55.5989 10.1798,55.5989" id="Fill-210" fill="#1D96DD"></path>
                    <path d="M9.5198,53.5903 C9.4068,53.5903 9.3148,53.4993 9.3148,53.3853 C9.3148,53.2723 9.4068,53.1813 9.5198,53.1813 C9.6328,53.1813 9.7248,53.2723 9.7248,53.3853 C9.7248,53.4993 9.6328,53.5903 9.5198,53.5903" id="Fill-212" fill="#1D96DD"></path>
                    <path d="M8.9312,51.5593 C8.8112,51.5593 8.7142,51.4623 8.7142,51.3423 C8.7142,51.2233 8.8112,51.1263 8.9312,51.1263 C9.0512,51.1263 9.1482,51.2233 9.1482,51.3423 C9.1482,51.4623 9.0512,51.5593 8.9312,51.5593" id="Fill-214" fill="#1D96DD"></path>
                    <path d="M8.4097,49.5105 C8.2837,49.5105 8.1807,49.4075 8.1807,49.2815 C8.1807,49.1555 8.2837,49.0525 8.4097,49.0525 C8.5357,49.0525 8.6387,49.1555 8.6387,49.2815 C8.6387,49.4075 8.5357,49.5105 8.4097,49.5105" id="Fill-216" fill="#1D96DD"></path>
                    <path d="M7.9498,47.4468 C7.8168,47.4468 7.7088,47.3388 7.7088,47.2058 C7.7088,47.0728 7.8168,46.9648 7.9498,46.9648 C8.0828,46.9648 8.1908,47.0728 8.1908,47.2058 C8.1908,47.3388 8.0828,47.4468 7.9498,47.4468" id="Fill-218" fill="#1D96DD"></path>
                    <path d="M7.5482,45.3718 C7.4082,45.3718 7.2952,45.2588 7.2952,45.1188 C7.2952,44.9798 7.4082,44.8668 7.5482,44.8668 C7.6882,44.8668 7.8012,44.9798 7.8012,45.1188 C7.8012,45.2588 7.6882,45.3718 7.5482,45.3718" id="Fill-220" fill="#1D96DD"></path>
                    <path d="M7.2003,43.2866 C7.0543,43.2866 6.9353,43.1676 6.9353,43.0216 C6.9353,42.8756 7.0543,42.7576 7.2003,42.7576 C7.3463,42.7576 7.4653,42.8756 7.4653,43.0216 C7.4653,43.1676 7.3463,43.2866 7.2003,43.2866" id="Fill-222" fill="#1D96DD"></path>
                    <path d="M6.8992,41.1941 C6.7462,41.1941 6.6222,41.0701 6.6222,40.9171 C6.6222,40.7641 6.7462,40.6401 6.8992,40.6401 C7.0522,40.6401 7.1762,40.7641 7.1762,40.9171 C7.1762,41.0701 7.0522,41.1941 6.8992,41.1941" id="Fill-224" fill="#1D96DD"></path>
                    <path d="M6.6424,39.0954 C6.4834,39.0954 6.3534,38.9664 6.3534,38.8064 C6.3534,38.6474 6.4834,38.5174 6.6424,38.5174 C6.8024,38.5174 6.9314,38.6474 6.9314,38.8064 C6.9314,38.9664 6.8024,39.0954 6.6424,39.0954" id="Fill-226" fill="#1D96DD"></path>
                    <path d="M6.4251,36.9922 C6.2591,36.9922 6.1241,36.8572 6.1241,36.6912 C6.1241,36.5252 6.2591,36.3902 6.4251,36.3902 C6.5911,36.3902 6.7261,36.5252 6.7261,36.6912 C6.7261,36.8572 6.5911,36.9922 6.4251,36.9922" id="Fill-228" fill="#1D96DD"></path>
                    <path d="M6.243,34.8857 C6.07,34.8857 5.93,34.7457 5.93,34.5727 C5.93,34.3997 6.07,34.2597 6.243,34.2597 C6.416,34.2597 6.556,34.3997 6.556,34.5727 C6.556,34.7457 6.416,34.8857 6.243,34.8857" id="Fill-230" fill="#1D96DD"></path>
                    <path d="M6.0948,32.7768 C5.9148,32.7768 5.7698,32.6308 5.7698,32.4518 C5.7698,32.2728 5.9148,32.1268 6.0948,32.1268 C6.2738,32.1268 6.4198,32.2728 6.4198,32.4518 C6.4198,32.6308 6.2738,32.7768 6.0948,32.7768" id="Fill-232" fill="#1D96DD"></path>
                    <path d="M5.9803,30.6645 C5.7943,30.6645 5.6433,30.5135 5.6433,30.3275 C5.6433,30.1415 5.7943,29.9905 5.9803,29.9905 C6.1663,29.9905 6.3173,30.1415 6.3173,30.3275 C6.3173,30.5135 6.1663,30.6645 5.9803,30.6645" id="Fill-234" fill="#1D96DD"></path>
                    <path d="M5.9027,28.552 C5.7097,28.552 5.5537,28.396 5.5537,28.203 C5.5537,28.01 5.7097,27.854 5.9027,27.854 C6.0957,27.854 6.2517,28.01 6.2517,28.203 C6.2517,28.396 6.0957,28.552 5.9027,28.552" id="Fill-236" fill="#1D96DD"></path>
                    <path d="M5.8616,26.4363 C5.6626,26.4363 5.5006,26.2743 5.5006,26.0753 C5.5006,25.8753 5.6626,25.7143 5.8616,25.7143 C6.0606,25.7143 6.2226,25.8753 6.2226,26.0753 C6.2226,26.2743 6.0606,26.4363 5.8616,26.4363" id="Fill-238" fill="#1D96DD"></path>
                    <path d="M5.8514,24.3218 C5.6454,24.3218 5.4784,24.1548 5.4784,23.9488 C5.4784,23.7428 5.6454,23.5758 5.8514,23.5758 C6.0574,23.5758 6.2244,23.7428 6.2244,23.9488 C6.2244,24.1548 6.0574,24.3218 5.8514,24.3218" id="Fill-240" fill="#1D96DD"></path>
                    <path d="M5.8653,22.2055 C5.6523,22.2055 5.4803,22.0335 5.4803,21.8205 C5.4803,21.6075 5.6523,21.4355 5.8653,21.4355 C6.0783,21.4355 6.2503,21.6075 6.2503,21.8205 C6.2503,22.0335 6.0783,22.2055 5.8653,22.2055" id="Fill-242" fill="#1D96DD"></path>
                    <path d="M5.8875,20.0915 C5.6685,20.0915 5.4905,19.9135 5.4905,19.6945 C5.4905,19.4745 5.6685,19.2975 5.8875,19.2975 C6.1065,19.2975 6.2845,19.4745 6.2845,19.6945 C6.2845,19.9135 6.1065,20.0915 5.8875,20.0915" id="Fill-244" fill="#1D96DD"></path>
                    <path d="M5.9095,17.9746 C5.6835,17.9746 5.5005,17.7916 5.5005,17.5656 C5.5005,17.3396 5.6835,17.1556 5.9095,17.1556 C6.1355,17.1556 6.3185,17.3396 6.3185,17.5656 C6.3185,17.7916 6.1355,17.9746 5.9095,17.9746" id="Fill-246" fill="#1D96DD"></path>
                    <path d="M5.92,15.8596 C5.687,15.8596 5.499,15.6706 5.499,15.4386 C5.499,15.2056 5.687,15.0176 5.92,15.0176 C6.153,15.0176 6.341,15.2056 6.341,15.4386 C6.341,15.6706 6.153,15.8596 5.92,15.8596" id="Fill-248" fill="#1D96DD"></path>
                    <path d="M5.8868,13.7461 C5.6468,13.7461 5.4538,13.5521 5.4538,13.3131 C5.4538,13.0731 5.6468,12.8791 5.8868,12.8791 C6.1258,12.8791 6.3198,13.0731 6.3198,13.3131 C6.3198,13.5521 6.1258,13.7461 5.8868,13.7461" id="Fill-250" fill="#1D96DD"></path>
                    <path d="M5.7777,11.6335 C5.5317,11.6335 5.3327,11.4345 5.3327,11.1885 C5.3327,10.9425 5.5317,10.7425 5.7777,10.7425 C6.0237,10.7425 6.2227,10.9425 6.2227,11.1885 C6.2227,11.4345 6.0237,11.6335 5.7777,11.6335" id="Fill-252" fill="#1D96DD"></path>
                    <path d="M5.5508,9.53 C5.2988,9.53 5.0938,9.325 5.0938,9.073 C5.0938,8.82 5.2988,8.615 5.5508,8.615 C5.8038,8.615 6.0088,8.82 6.0088,9.073 C6.0088,9.325 5.8038,9.53 5.5508,9.53" id="Fill-254" fill="#1D96DD"></path>
                    <path d="M5.1234,7.4563 C4.8644,7.4563 4.6544,7.2463 4.6544,6.9873 C4.6544,6.7273 4.8644,6.5173 5.1234,6.5173 C5.3824,6.5173 5.5924,6.7273 5.5924,6.9873 C5.5924,7.2463 5.3824,7.4563 5.1234,7.4563" id="Fill-256" fill="#1D96DD"></path>
                    <path d="M4.6448,5.9443 C4.3788,5.9443 4.1638,5.7293 4.1638,5.4633 C4.1638,5.1973 4.3788,4.9813 4.6448,4.9813 C4.9108,4.9813 5.1268,5.1973 5.1268,5.4633 C5.1268,5.7293 4.9108,5.9443 4.6448,5.9443" id="Fill-258" fill="#1D96DD"></path>
                    <path d="M6.2213,3.5378 C5.6023,2.4688 4.2323,2.1038 3.1633,2.7228 C2.0933,3.3428 1.7283,4.7128 2.3483,5.7818 C2.9673,6.8508 4.3373,7.2158 5.4063,6.5968 C6.4763,5.9768 6.8413,4.6068 6.2213,3.5378" id="Fill-260" fill="#1D96DD"></path>
                    <path d="M60.2344,76.3132 C60.2094,76.3132 60.1894,76.2932 60.1894,76.2682 C60.1894,76.2432 60.2094,76.2222 60.2344,76.2222 C60.2594,76.2222 60.2794,76.2432 60.2794,76.2682 C60.2794,76.2932 60.2594,76.3132 60.2344,76.3132" id="Fill-271" fill="#1D96DD"></path>
                    <path d="M58.2256,75.6267 C58.1956,75.6267 58.1716,75.6027 58.1716,75.5727 C58.1716,75.5427 58.1956,75.5177 58.2256,75.5177 C58.2556,75.5177 58.2806,75.5427 58.2806,75.5727 C58.2806,75.6027 58.2556,75.6267 58.2256,75.6267" id="Fill-273" fill="#1D96DD"></path>
                    <path d="M56.2178,74.9404 C56.1828,74.9404 56.1548,74.9124 56.1548,74.8774 C56.1548,74.8424 56.1828,74.8134 56.2178,74.8134 C56.2528,74.8134 56.2808,74.8424 56.2808,74.8774 C56.2808,74.9124 56.2528,74.9404 56.2178,74.9404" id="Fill-275" fill="#1D96DD"></path>
                    <path d="M54.209,74.2536 C54.169,74.2536 54.137,74.2216 54.137,74.1816 C54.137,74.1416 54.169,74.1086 54.209,74.1086 C54.249,74.1086 54.282,74.1416 54.282,74.1816 C54.282,74.2216 54.249,74.2536 54.209,74.2536" id="Fill-277" fill="#1D96DD"></path>
                    <path d="M52.202,73.563 C52.157,73.563 52.12,73.527 52.12,73.482 C52.12,73.437 52.157,73.4 52.202,73.4 C52.247,73.4 52.283,73.437 52.283,73.482 C52.283,73.527 52.247,73.563 52.202,73.563" id="Fill-279" fill="#1D96DD"></path>
                    <path d="M50.1971,72.8652 C50.1471,72.8652 50.1071,72.8252 50.1071,72.7752 C50.1071,72.7252 50.1471,72.6842 50.1971,72.6842 C50.2471,72.6842 50.2881,72.7252 50.2881,72.7752 C50.2881,72.8252 50.2471,72.8652 50.1971,72.8652" id="Fill-281" fill="#1D96DD"></path>
                    <path d="M48.1949,72.1599 C48.1399,72.1599 48.0949,72.1159 48.0949,72.0609 C48.0949,72.0059 48.1399,71.9609 48.1949,71.9609 C48.2499,71.9609 48.2949,72.0059 48.2949,72.0609 C48.2949,72.1159 48.2499,72.1599 48.1949,72.1599" id="Fill-283" fill="#1D96DD"></path>
                    <path d="M46.1951,71.448 C46.1351,71.448 46.0861,71.399 46.0861,71.339 C46.0861,71.279 46.1351,71.231 46.1951,71.231 C46.2551,71.231 46.3041,71.279 46.3041,71.339 C46.3041,71.399 46.2551,71.448 46.1951,71.448" id="Fill-285" fill="#1D96DD"></path>
                    <path d="M44.1983,70.7275 C44.1333,70.7275 44.0803,70.6745 44.0803,70.6095 C44.0803,70.5445 44.1333,70.4925 44.1983,70.4925 C44.2633,70.4925 44.3153,70.5445 44.3153,70.6095 C44.3153,70.6745 44.2633,70.7275 44.1983,70.7275" id="Fill-287" fill="#1D96DD"></path>
                    <path d="M42.2051,69.9968 C42.1351,69.9968 42.0781,69.9398 42.0781,69.8698 C42.0781,69.7998 42.1351,69.7438 42.2051,69.7438 C42.2751,69.7438 42.3321,69.7998 42.3321,69.8698 C42.3321,69.9398 42.2751,69.9968 42.2051,69.9968" id="Fill-289" fill="#1D96DD"></path>
                    <path d="M40.2161,69.2551 C40.1411,69.2551 40.0811,69.1941 40.0811,69.1191 C40.0811,69.0441 40.1411,68.9841 40.2161,68.9841 C40.2911,68.9841 40.3521,69.0441 40.3521,69.1191 C40.3521,69.1941 40.2911,69.2551 40.2161,69.2551" id="Fill-291" fill="#1D96DD"></path>
                    <path d="M38.2347,68.5032 C38.1547,68.5032 38.0897,68.4382 38.0897,68.3582 C38.0897,68.2782 38.1547,68.2132 38.2347,68.2132 C38.3147,68.2132 38.3797,68.2782 38.3797,68.3582 C38.3797,68.4382 38.3147,68.5032 38.2347,68.5032" id="Fill-293" fill="#1D96DD"></path>
                    <path d="M36.2581,67.7392 C36.1731,67.7392 36.1041,67.6702 36.1041,67.5852 C36.1041,67.5002 36.1731,67.4312 36.2581,67.4312 C36.3431,67.4312 36.4121,67.5002 36.4121,67.5852 C36.4121,67.6702 36.3431,67.7392 36.2581,67.7392" id="Fill-295" fill="#1D96DD"></path>
                    <path d="M34.284,66.9604 C34.194,66.9604 34.121,66.8874 34.121,66.7974 C34.121,66.7074 34.194,66.6344 34.284,66.6344 C34.374,66.6344 34.447,66.7074 34.447,66.7974 C34.447,66.8874 34.374,66.9604 34.284,66.9604" id="Fill-297" fill="#1D96DD"></path>
                    <path d="M32.3155,66.1672 C32.2205,66.1672 32.1435,66.0902 32.1435,65.9952 C32.1435,65.9002 32.2205,65.8232 32.3155,65.8232 C32.4105,65.8232 32.4875,65.9002 32.4875,65.9952 C32.4875,66.0902 32.4105,66.1672 32.3155,66.1672" id="Fill-299" fill="#1D96DD"></path>
                    <path d="M30.3548,65.3601 C30.2548,65.3601 30.1738,65.2791 30.1738,65.1791 C30.1738,65.0791 30.2548,64.9981 30.3548,64.9981 C30.4548,64.9981 30.5358,65.0791 30.5358,65.1791 C30.5358,65.2791 30.4548,65.3601 30.3548,65.3601" id="Fill-301" fill="#1D96DD"></path>
                    <path d="M28.4046,64.521 C28.2996,64.521 28.2146,64.436 28.2146,64.331 C28.2146,64.226 28.2996,64.141 28.4046,64.141 C28.5096,64.141 28.5946,64.226 28.5946,64.331 C28.5946,64.436 28.5096,64.521 28.4046,64.521" id="Fill-303" fill="#1D96DD"></path>
                    <path d="M26.4893,63.6076 C26.3793,63.6076 26.2903,63.5186 26.2903,63.4086 C26.2903,63.2986 26.3793,63.2096 26.4893,63.2096 C26.5993,63.2096 26.6883,63.2986 26.6883,63.4086 C26.6883,63.5186 26.5993,63.6076 26.4893,63.6076" id="Fill-305" fill="#1D96DD"></path>
                    <path d="M24.6341,62.5796 C24.5191,62.5796 24.4261,62.4866 24.4261,62.3716 C24.4261,62.2566 24.5191,62.1636 24.6341,62.1636 C24.7491,62.1636 24.8421,62.2566 24.8421,62.3716 C24.8421,62.4866 24.7491,62.5796 24.6341,62.5796" id="Fill-307" fill="#1D96DD"></path>
                    <path d="M22.8516,61.4297 C22.7316,61.4297 22.6346,61.3327 22.6346,61.2127 C22.6346,61.0927 22.7316,60.9957 22.8516,60.9957 C22.9716,60.9957 23.0686,61.0927 23.0686,61.2127 C23.0686,61.3327 22.9716,61.4297 22.8516,61.4297" id="Fill-309" fill="#1D96DD"></path>
                    <path d="M21.1492,60.167 C21.0242,60.167 20.9232,60.066 20.9232,59.941 C20.9232,59.816 21.0242,59.715 21.1492,59.715 C21.2742,59.715 21.3752,59.816 21.3752,59.941 C21.3752,60.066 21.2742,60.167 21.1492,60.167" id="Fill-311" fill="#1D96DD"></path>
                    <path d="M19.5308,58.7959 C19.4008,58.7959 19.2958,58.6909 19.2958,58.5609 C19.2958,58.4309 19.4008,58.3249 19.5308,58.3249 C19.6608,58.3249 19.7658,58.4309 19.7658,58.5609 C19.7658,58.6909 19.6608,58.7959 19.5308,58.7959" id="Fill-313" fill="#1D96DD"></path>
                    <path d="M18.0018,57.3296 C17.8668,57.3296 17.7578,57.2206 17.7578,57.0856 C17.7578,56.9506 17.8668,56.8406 18.0018,56.8406 C18.1368,56.8406 18.2458,56.9506 18.2458,57.0856 C18.2458,57.2206 18.1368,57.3296 18.0018,57.3296" id="Fill-315" fill="#1D96DD"></path>
                    <path d="M16.5648,55.7724 C16.4248,55.7724 16.3108,55.6594 16.3108,55.5194 C16.3108,55.3794 16.4248,55.2654 16.5648,55.2654 C16.7048,55.2654 16.8178,55.3794 16.8178,55.5194 C16.8178,55.6594 16.7048,55.7724 16.5648,55.7724" id="Fill-317" fill="#1D96DD"></path>
                    <path d="M15.223,54.1377 C15.078,54.1377 14.961,54.0197 14.961,53.8757 C14.961,53.7307 15.078,53.6127 15.223,53.6127 C15.368,53.6127 15.485,53.7307 15.485,53.8757 C15.485,54.0197 15.368,54.1377 15.223,54.1377" id="Fill-319" fill="#1D96DD"></path>
                    <path d="M13.9735,52.428 C13.8235,52.428 13.7025,52.307 13.7025,52.157 C13.7025,52.007 13.8235,51.885 13.9735,51.885 C14.1235,51.885 14.2445,52.007 14.2445,52.157 C14.2445,52.307 14.1235,52.428 13.9735,52.428" id="Fill-321" fill="#1D96DD"></path>
                    <path d="M12.8182,50.6511 C12.6632,50.6511 12.5372,50.5251 12.5372,50.3711 C12.5372,50.2161 12.6632,50.0901 12.8182,50.0901 C12.9732,50.0901 13.0992,50.2161 13.0992,50.3711 C13.0992,50.5251 12.9732,50.6511 12.8182,50.6511" id="Fill-323" fill="#1D96DD"></path>
                    <path d="M11.7581,48.8176 C11.5981,48.8176 11.4681,48.6876 11.4681,48.5276 C11.4681,48.3676 11.5981,48.2386 11.7581,48.2386 C11.9181,48.2386 12.0481,48.3676 12.0481,48.5276 C12.0481,48.6876 11.9181,48.8176 11.7581,48.8176" id="Fill-325" fill="#1D96DD"></path>
                    <path d="M10.7923,46.9331 C10.6273,46.9331 10.4933,46.7991 10.4933,46.6341 C10.4933,46.4701 10.6273,46.3361 10.7923,46.3361 C10.9573,46.3361 11.0913,46.4701 11.0913,46.6341 C11.0913,46.7991 10.9573,46.9331 10.7923,46.9331" id="Fill-327" fill="#1D96DD"></path>
                    <path d="M9.919,45.0029 C9.749,45.0029 9.611,44.8649 9.611,44.6949 C9.611,44.5259 9.749,44.3879 9.919,44.3879 C10.089,44.3879 10.227,44.5259 10.227,44.6949 C10.227,44.8649 10.089,45.0029 9.919,45.0029" id="Fill-329" fill="#1D96DD"></path>
                    <path d="M9.1382,43.0366 C8.9632,43.0366 8.8212,42.8946 8.8212,42.7196 C8.8212,42.5446 8.9632,42.4036 9.1382,42.4036 C9.3132,42.4036 9.4552,42.5446 9.4552,42.7196 C9.4552,42.8946 9.3132,43.0366 9.1382,43.0366" id="Fill-331" fill="#1D96DD"></path>
                    <path d="M8.439,41.0408 C8.259,41.0408 8.113,40.8948 8.113,40.7148 C8.113,40.5348 8.259,40.3888 8.439,40.3888 C8.619,40.3888 8.765,40.5348 8.765,40.7148 C8.765,40.8948 8.619,41.0408 8.439,41.0408" id="Fill-333" fill="#1D96DD"></path>
                    <path d="M7.8155,39.0173 C7.6305,39.0173 7.4805,38.8673 7.4805,38.6823 C7.4805,38.4973 7.6305,38.3483 7.8155,38.3483 C8.0005,38.3483 8.1505,38.4973 8.1505,38.6823 C8.1505,38.8673 8.0005,39.0173 7.8155,39.0173" id="Fill-335" fill="#1D96DD"></path>
                    <path d="M7.2667,36.9724 C7.0767,36.9724 6.9227,36.8184 6.9227,36.6284 C6.9227,36.4384 7.0767,36.2854 7.2667,36.2854 C7.4567,36.2854 7.6107,36.4384 7.6107,36.6284 C7.6107,36.8184 7.4567,36.9724 7.2667,36.9724" id="Fill-337" fill="#1D96DD"></path>
                    <path d="M6.7869,34.9104 C6.5919,34.9104 6.4339,34.7524 6.4339,34.5574 C6.4339,34.3624 6.5919,34.2044 6.7869,34.2044 C6.9819,34.2044 7.1399,34.3624 7.1399,34.5574 C7.1399,34.7524 6.9819,34.9104 6.7869,34.9104" id="Fill-339" fill="#1D96DD"></path>
                    <path d="M6.3743,32.8335 C6.1743,32.8335 6.0123,32.6715 6.0123,32.4715 C6.0123,32.2715 6.1743,32.1095 6.3743,32.1095 C6.5743,32.1095 6.7363,32.2715 6.7363,32.4715 C6.7363,32.6715 6.5743,32.8335 6.3743,32.8335" id="Fill-341" fill="#1D96DD"></path>
                    <path d="M6.0279,30.7449 C5.8229,30.7449 5.6569,30.5789 5.6569,30.3739 C5.6569,30.1689 5.8229,30.0029 6.0279,30.0029 C6.2329,30.0029 6.3989,30.1689 6.3989,30.3739 C6.3989,30.5789 6.2329,30.7449 6.0279,30.7449" id="Fill-343" fill="#1D96DD"></path>
                    <path d="M5.7376,28.6474 C5.5276,28.6474 5.3576,28.4774 5.3576,28.2674 C5.3576,28.0574 5.5276,27.8874 5.7376,27.8874 C5.9476,27.8874 6.1176,28.0574 6.1176,28.2674 C6.1176,28.4774 5.9476,28.6474 5.7376,28.6474" id="Fill-345" fill="#1D96DD"></path>
                    <path d="M5.5008,26.5434 C5.2858,26.5434 5.1118,26.3694 5.1118,26.1544 C5.1118,25.9394 5.2858,25.7654 5.5008,25.7654 C5.7158,25.7654 5.8898,25.9394 5.8898,26.1544 C5.8898,26.3694 5.7158,26.5434 5.5008,26.5434" id="Fill-347" fill="#1D96DD"></path>
                    <path d="M5.3165,24.4341 C5.0965,24.4341 4.9185,24.2561 4.9185,24.0361 C4.9185,23.8161 5.0965,23.6381 5.3165,23.6381 C5.5365,23.6381 5.7145,23.8161 5.7145,24.0361 C5.7145,24.2561 5.5365,24.4341 5.3165,24.4341" id="Fill-349" fill="#1D96DD"></path>
                    <path d="M5.1802,22.3205 C4.9552,22.3205 4.7732,22.1385 4.7732,21.9135 C4.7732,21.6885 4.9552,21.5065 5.1802,21.5065 C5.4052,21.5065 5.5872,21.6885 5.5872,21.9135 C5.5872,22.1385 5.4052,22.3205 5.1802,22.3205" id="Fill-351" fill="#1D96DD"></path>
                    <path d="M5.0945,20.2053 C4.8645,20.2053 4.6785,20.0183 4.6785,19.7893 C4.6785,19.5593 4.8645,19.3723 5.0945,19.3723 C5.3245,19.3723 5.5105,19.5593 5.5105,19.7893 C5.5105,20.0183 5.3245,20.2053 5.0945,20.2053" id="Fill-353" fill="#1D96DD"></path>
                    <path d="M5.045,18.0867 C4.81,18.0867 4.62,17.8967 4.62,17.6617 C4.62,17.4267 4.81,17.2367 5.045,17.2367 C5.28,17.2367 5.47,17.4267 5.47,17.6617 C5.47,17.8967 5.28,18.0867 5.045,18.0867" id="Fill-355" fill="#1D96DD"></path>
                    <path d="M5.0162,15.9692 C4.7762,15.9692 4.5822,15.7742 4.5822,15.5352 C4.5822,15.2952 4.7762,15.1002 5.0162,15.1002 C5.2562,15.1002 5.4502,15.2952 5.4502,15.5352 C5.4502,15.7742 5.2562,15.9692 5.0162,15.9692" id="Fill-357" fill="#1D96DD"></path>
                    <path d="M5.0264,13.852 C4.7814,13.852 4.5834,13.653 4.5834,13.409 C4.5834,13.164 4.7814,12.965 5.0264,12.965 C5.2714,12.965 5.4694,13.164 5.4694,13.409 C5.4694,13.653 5.2714,13.852 5.0264,13.852" id="Fill-359" fill="#1D96DD"></path>
                    <path d="M5.1014,11.7361 C4.8514,11.7361 4.6494,11.5341 4.6494,11.2841 C4.6494,11.0341 4.8514,10.8311 5.1014,10.8311 C5.3514,10.8311 5.5534,11.0341 5.5534,11.2841 C5.5534,11.5341 5.3514,11.7361 5.1014,11.7361" id="Fill-361" fill="#1D96DD"></path>
                    <path d="M5.2025,9.6203 C4.9475,9.6203 4.7405,9.4143 4.7405,9.1593 C4.7405,8.9043 4.9475,8.6973 5.2025,8.6973 C5.4575,8.6973 5.6635,8.9043 5.6635,9.1593 C5.6635,9.4143 5.4575,9.6203 5.2025,9.6203" id="Fill-363" fill="#1D96DD"></path>
                    <path d="M5.3292,7.5058 C5.0692,7.5058 4.8592,7.2958 4.8592,7.0358 C4.8592,6.7758 5.0692,6.5648 5.3292,6.5648 C5.5892,6.5648 5.7992,6.7758 5.7992,7.0358 C5.7992,7.2958 5.5892,7.5058 5.3292,7.5058" id="Fill-365" fill="#1D96DD"></path>
                    <path d="M5.4832,5.3926 C5.2182,5.3926 5.0032,5.1776 5.0032,4.9126 C5.0032,4.6486 5.2182,4.4336 5.4832,4.4336 C5.7482,4.4336 5.9622,4.6486 5.9622,4.9126 C5.9622,5.1776 5.7482,5.3926 5.4832,5.3926" id="Fill-367" fill="#1D96DD"></path>
                    <g id="Group-371" transform="translate(3.000000, 0.678200)">
                        <mask id="mask-20" fill="white">
                            <use xlink:href="#path-19"></use>
                        </mask>
                        <g id="Clip-370"></g>
                        <path d="M4.8555,2.7451 C4.9575,1.5131 4.0415,0.4311 2.8105,0.3291 C1.5785,0.2271 0.4965,1.1431 0.3945,2.3751 C0.2925,3.6071 1.2085,4.6881 2.4405,4.7901 C3.6715,4.8921 4.7535,3.9761 4.8555,2.7451" id="Fill-369" fill="#1D96DD" mask="url(#mask-20)"></path>
                    </g>
                </g>
            </g>
        </g>
    </g>
</svg>