<?xml version="1.0" encoding="UTF-8" standalone="no"?>
<svg width="43px" height="91px" viewBox="0 0 43 91" version="1.1" xmlns="http://www.w3.org/2000/svg" xmlns:xlink="http://www.w3.org/1999/xlink">
    <!-- Generator: Sketch 39.1 (31720) - http://www.bohemiancoding.com/sketch -->
    <title>Dots_6</title>
    <desc>Created with Sketch.</desc>
    <defs>
        <polygon id="path-1" points="4.47653194 0.838 0.000269245148 0.838 0.000269245148 5.31413075 4.47653194 5.31413075 4.47653194 0.838"></polygon>
        <polygon id="path-3" points="4.47653194 0.838 0.000269245149 0.838 0.000269245149 5.31413075 4.47653194 5.31413075 4.47653194 0.838"></polygon>
        <polygon id="path-5" points="0.0944 1 1.0944 1 1.0944 0.7999 0.0944 0.7999"></polygon>
        <polygon id="path-7" points="0.1937 1 1.1937 1 1.1937 0.6321 0.1937 0.6321"></polygon>
        <polygon id="path-9" points="0.2896 1 1.2896 1 1.2896 0.4376 0.2896 0.4376"></polygon>
        <polygon id="path-11" points="0.3823 1 1.3823 1 1.3823 0.208 0.3823 0.208"></polygon>
        <polygon id="path-13" points="4.94275826 0.393 0.46604174 0.393 0.46604174 4.86901555 4.94275826 4.86901555 4.94275826 0.393"></polygon>
    </defs>
    <g id="Main-Page" stroke="none" stroke-width="1" fill="none" fill-rule="evenodd">
        <g id="Mobile-Portrait" transform="translate(-228.000000, -1668.000000)">
            <g id="Dots_6" transform="translate(188.000000, 1658.000000)">
                <g id="Page-1" transform="translate(53.459460, 51.025429) rotate(-121.000000) translate(-53.459460, -51.025429) translate(13.459460, 18.525429)">
                    <path d="M70.3291,60.1596 C70.3021,60.1596 70.2811,60.1386 70.2811,60.1116 C70.2811,60.0846 70.3021,60.0636 70.3291,60.0636 C70.3561,60.0636 70.3771,60.0846 70.3771,60.1116 C70.3771,60.1386 70.3561,60.1596 70.3291,60.1596" id="Fill-10" fill="#1D96DD"></path>
                    <path d="M68.3049,59.5356 C68.2729,59.5356 68.2469,59.5096 68.2469,59.4776 C68.2469,59.4456 68.2729,59.4196 68.3049,59.4196 C68.3369,59.4196 68.3629,59.4456 68.3629,59.4776 C68.3629,59.5096 68.3369,59.5356 68.3049,59.5356" id="Fill-12" fill="#1D96DD"></path>
                    <path d="M66.2784,58.9047 C66.2414,58.9047 66.2114,58.8747 66.2114,58.8377 C66.2114,58.7997 66.2414,58.7697 66.2784,58.7697 C66.3154,58.7697 66.3454,58.7997 66.3454,58.8377 C66.3454,58.8747 66.3154,58.9047 66.2784,58.9047" id="Fill-14" fill="#1D96DD"></path>
                    <path d="M64.2532,58.2692 C64.2102,58.2692 64.1762,58.2352 64.1762,58.1922 C64.1762,58.1492 64.2102,58.1152 64.2532,58.1152 C64.2952,58.1152 64.3302,58.1492 64.3302,58.1922 C64.3302,58.2352 64.2952,58.2692 64.2532,58.2692" id="Fill-16" fill="#1D96DD"></path>
                    <path d="M62.2305,57.6242 C62.1825,57.6242 62.1435,57.5852 62.1435,57.5372 C62.1435,57.4902 62.1825,57.4512 62.2305,57.4512 C62.2785,57.4512 62.3175,57.4902 62.3175,57.5372 C62.3175,57.5852 62.2785,57.6242 62.2305,57.6242" id="Fill-18" fill="#1D96DD"></path>
                    <path d="M60.2112,56.9702 C60.1582,56.9702 60.1152,56.9272 60.1152,56.8732 C60.1152,56.8212 60.1582,56.7772 60.2112,56.7772 C60.2642,56.7772 60.3072,56.8212 60.3072,56.8732 C60.3072,56.9272 60.2642,56.9702 60.2112,56.9702" id="Fill-20" fill="#1D96DD"></path>
                    <path d="M58.1938,56.309 C58.1358,56.309 58.0878,56.262 58.0878,56.203 C58.0878,56.145 58.1358,56.097 58.1938,56.097 C58.2528,56.097 58.2998,56.145 58.2998,56.203 C58.2998,56.262 58.2528,56.309 58.1938,56.309" id="Fill-22" fill="#1D96DD"></path>
                    <path d="M56.1785,55.6425 C56.1145,55.6425 56.0635,55.5915 56.0635,55.5275 C56.0635,55.4635 56.1145,55.4115 56.1785,55.4115 C56.2425,55.4115 56.2935,55.4635 56.2935,55.5275 C56.2935,55.5915 56.2425,55.6425 56.1785,55.6425" id="Fill-24" fill="#1D96DD"></path>
                    <path d="M54.1646,54.9716 C54.0956,54.9716 54.0396,54.9156 54.0396,54.8466 C54.0396,54.7776 54.0956,54.7216 54.1646,54.7216 C54.2336,54.7216 54.2896,54.7776 54.2896,54.8466 C54.2896,54.9156 54.2336,54.9716 54.1646,54.9716" id="Fill-26" fill="#1D96DD"></path>
                    <path d="M52.1516,54.2971 C52.0776,54.2971 52.0166,54.2371 52.0166,54.1621 C52.0166,54.0881 52.0776,54.0271 52.1516,54.0271 C52.2266,54.0271 52.2866,54.0881 52.2866,54.1621 C52.2866,54.2371 52.2266,54.2971 52.1516,54.2971" id="Fill-28" fill="#1D96DD"></path>
                    <path d="M50.1445,53.6184 C50.0645,53.6184 50.0005,53.5534 50.0005,53.4744 C50.0005,53.3944 50.0645,53.3294 50.1445,53.3294 C50.2245,53.3294 50.2885,53.3944 50.2885,53.4744 C50.2885,53.5534 50.2245,53.6184 50.1445,53.6184" id="Fill-30" fill="#1D96DD"></path>
                    <path d="M48.1355,52.9323 C48.0505,52.9323 47.9815,52.8633 47.9815,52.7783 C47.9815,52.6933 48.0505,52.6243 48.1355,52.6243 C48.2205,52.6243 48.2895,52.6933 48.2895,52.7783 C48.2895,52.8633 48.2205,52.9323 48.1355,52.9323" id="Fill-32" fill="#1D96DD"></path>
                    <path d="M46.1328,52.2375 C46.0428,52.2375 45.9698,52.1635 45.9698,52.0735 C45.9698,51.9835 46.0428,51.9105 46.1328,51.9105 C46.2228,51.9105 46.2968,51.9835 46.2968,52.0735 C46.2968,52.1635 46.2228,52.2375 46.1328,52.2375" id="Fill-34" fill="#1D96DD"></path>
                    <path d="M44.1355,51.53 C44.0395,51.53 43.9625,51.453 43.9625,51.357 C43.9625,51.261 44.0395,51.183 44.1355,51.183 C44.2315,51.183 44.3085,51.261 44.3085,51.357 C44.3085,51.453 44.2315,51.53 44.1355,51.53" id="Fill-36" fill="#1D96DD"></path>
                    <path d="M42.1414,50.8085 C42.0404,50.8085 41.9584,50.7265 41.9584,50.6255 C41.9584,50.5245 42.0404,50.4425 42.1414,50.4425 C42.2424,50.4425 42.3244,50.5245 42.3244,50.6255 C42.3244,50.7265 42.2424,50.8085 42.1414,50.8085" id="Fill-38" fill="#1D96DD"></path>
                    <path d="M40.1479,50.0759 C40.0419,50.0759 39.9549,49.9899 39.9549,49.8829 C39.9549,49.7769 40.0419,49.6909 40.1479,49.6909 C40.2539,49.6909 40.3399,49.7769 40.3399,49.8829 C40.3399,49.9899 40.2539,50.0759 40.1479,50.0759" id="Fill-40" fill="#1D96DD"></path>
                    <path d="M38.1597,49.3281 C38.0477,49.3281 37.9577,49.2381 37.9577,49.1261 C37.9577,49.0141 38.0477,48.9241 38.1597,48.9241 C38.2717,48.9241 38.3617,49.0141 38.3617,49.1261 C38.3617,49.2381 38.2717,49.3281 38.1597,49.3281" id="Fill-42" fill="#1D96DD"></path>
                    <path d="M36.1756,48.5639 C36.0586,48.5639 35.9636,48.4689 35.9636,48.3519 C35.9636,48.2349 36.0586,48.1409 36.1756,48.1409 C36.2926,48.1409 36.3876,48.2349 36.3876,48.3519 C36.3876,48.4689 36.2926,48.5639 36.1756,48.5639" id="Fill-44" fill="#1D96DD"></path>
                    <path d="M34.1967,47.7834 C34.0747,47.7834 33.9757,47.6844 33.9757,47.5624 C33.9757,47.4404 34.0747,47.3404 34.1967,47.3404 C34.3187,47.3404 34.4177,47.4404 34.4177,47.5624 C34.4177,47.6844 34.3187,47.7834 34.1967,47.7834" id="Fill-46" fill="#1D96DD"></path>
                    <path d="M32.2243,46.9868 C32.0973,46.9868 31.9933,46.8838 31.9933,46.7558 C31.9933,46.6278 32.0973,46.5248 32.2243,46.5248 C32.3523,46.5248 32.4553,46.6278 32.4553,46.7558 C32.4553,46.8838 32.3523,46.9868 32.2243,46.9868" id="Fill-48" fill="#1D96DD"></path>
                    <path d="M30.263,46.1762 C30.13,46.1762 30.022,46.0682 30.022,45.9352 C30.022,45.8022 30.13,45.6952 30.263,45.6952 C30.396,45.6952 30.504,45.8022 30.504,45.9352 C30.504,46.0682 30.396,46.1762 30.263,46.1762" id="Fill-50" fill="#1D96DD"></path>
                    <path d="M28.3069,45.3493 C28.1689,45.3493 28.0569,45.2373 28.0569,45.0993 C28.0569,44.9613 28.1689,44.8483 28.3069,44.8483 C28.4449,44.8483 28.5569,44.9613 28.5569,45.0993 C28.5569,45.2373 28.4449,45.3493 28.3069,45.3493" id="Fill-52" fill="#1D96DD"></path>
                    <path d="M26.3645,44.4938 C26.2205,44.4938 26.1045,44.3778 26.1045,44.2338 C26.1045,44.0908 26.2205,43.9738 26.3645,43.9738 C26.5085,43.9738 26.6245,44.0908 26.6245,44.2338 C26.6245,44.3778 26.5085,44.4938 26.3645,44.4938" id="Fill-54" fill="#1D96DD"></path>
                    <path d="M24.4583,43.5734 C24.3093,43.5734 24.1883,43.4524 24.1883,43.3034 C24.1883,43.1554 24.3093,43.0344 24.4583,43.0344 C24.6073,43.0344 24.7283,43.1554 24.7283,43.3034 C24.7283,43.4524 24.6073,43.5734 24.4583,43.5734" id="Fill-56" fill="#1D96DD"></path>
                    <path d="M22.6022,42.5424 C22.4482,42.5424 22.3232,42.4174 22.3232,42.2634 C22.3232,42.1094 22.4482,41.9844 22.6022,41.9844 C22.7562,41.9844 22.8812,42.1094 22.8812,42.2634 C22.8812,42.4174 22.7562,42.5424 22.6022,42.5424" id="Fill-58" fill="#1D96DD"></path>
                    <path d="M20.8183,41.4001 C20.6583,41.4001 20.5293,41.2711 20.5293,41.1111 C20.5293,40.9521 20.6583,40.8231 20.8183,40.8231 C20.9773,40.8231 21.1073,40.9521 21.1073,41.1111 C21.1073,41.2711 20.9773,41.4001 20.8183,41.4001" id="Fill-60" fill="#1D96DD"></path>
                    <path d="M19.1077,40.1477 C18.9427,40.1477 18.8097,40.0137 18.8097,39.8487 C18.8097,39.6847 18.9427,39.5507 19.1077,39.5507 C19.2727,39.5507 19.4057,39.6847 19.4057,39.8487 C19.4057,40.0137 19.2727,40.1477 19.1077,40.1477" id="Fill-62" fill="#1D96DD"></path>
                    <path d="M17.4799,38.7919 C17.3099,38.7919 17.1719,38.6539 17.1719,38.4839 C17.1719,38.3139 17.3099,38.1759 17.4799,38.1759 C17.6499,38.1759 17.7879,38.3139 17.7879,38.4839 C17.7879,38.6539 17.6499,38.7919 17.4799,38.7919" id="Fill-64" fill="#1D96DD"></path>
                    <path d="M15.9355,37.341 C15.7595,37.341 15.6175,37.199 15.6175,37.023 C15.6175,36.848 15.7595,36.706 15.9355,36.706 C16.1105,36.706 16.2535,36.848 16.2535,37.023 C16.2535,37.199 16.1105,37.341 15.9355,37.341" id="Fill-66" fill="#1D96DD"></path>
                    <path d="M14.4783,35.8085 C14.2973,35.8085 14.1513,35.6625 14.1513,35.4815 C14.1513,35.3005 14.2973,35.1545 14.4783,35.1545 C14.6593,35.1545 14.8053,35.3005 14.8053,35.4815 C14.8053,35.6625 14.6593,35.8085 14.4783,35.8085" id="Fill-68" fill="#1D96DD"></path>
                    <path d="M13.1044,34.1958 C12.9184,34.1958 12.7674,34.0448 12.7674,33.8588 C12.7674,33.6728 12.9184,33.5218 13.1044,33.5218 C13.2904,33.5218 13.4414,33.6728 13.4414,33.8588 C13.4414,34.0448 13.2904,34.1958 13.1044,34.1958" id="Fill-70" fill="#1D96DD"></path>
                    <path d="M11.8208,32.51 C11.6298,32.51 11.4748,32.355 11.4748,32.163 C11.4748,31.972 11.6298,31.817 11.8208,31.817 C12.0118,31.817 12.1668,31.972 12.1668,32.163 C12.1668,32.355 12.0118,32.51 11.8208,32.51" id="Fill-72" fill="#1D96DD"></path>
                    <path d="M10.6306,30.7575 C10.4336,30.7575 10.2746,30.5985 10.2746,30.4015 C10.2746,30.2045 10.4336,30.0455 10.6306,30.0455 C10.8276,30.0455 10.9866,30.2045 10.9866,30.4015 C10.9866,30.5985 10.8276,30.7575 10.6306,30.7575" id="Fill-74" fill="#1D96DD"></path>
                    <path d="M9.5269,28.9489 C9.3249,28.9489 9.1609,28.7849 9.1609,28.5829 C9.1609,28.3809 9.3249,28.2179 9.5269,28.2179 C9.7289,28.2179 9.8929,28.3809 9.8929,28.5829 C9.8929,28.7849 9.7289,28.9489 9.5269,28.9489" id="Fill-76" fill="#1D96DD"></path>
                    <path d="M8.5096,27.0898 C8.3026,27.0898 8.1346,26.9218 8.1346,26.7138 C8.1346,26.5068 8.3026,26.3388 8.5096,26.3388 C8.7166,26.3388 8.8846,26.5068 8.8846,26.7138 C8.8846,26.9218 8.7166,27.0898 8.5096,27.0898" id="Fill-78" fill="#1D96DD"></path>
                    <path d="M7.5815,25.1867 C7.3685,25.1867 7.1965,25.0147 7.1965,24.8017 C7.1965,24.5887 7.3685,24.4167 7.5815,24.4167 C7.7945,24.4167 7.9665,24.5887 7.9665,24.8017 C7.9665,25.0147 7.7945,25.1867 7.5815,25.1867" id="Fill-80" fill="#1D96DD"></path>
                    <path d="M6.746,23.239 C6.528,23.239 6.351,23.062 6.351,22.844 C6.351,22.626 6.528,22.45 6.746,22.45 C6.964,22.45 7.141,22.626 7.141,22.844 C7.141,23.062 6.964,23.239 6.746,23.239" id="Fill-82" fill="#1D96DD"></path>
                    <path d="M5.9991,21.2578 C5.7761,21.2578 5.5951,21.0768 5.5951,20.8538 C5.5951,20.6298 5.7761,20.4488 5.9991,20.4488 C6.2221,20.4488 6.4031,20.6298 6.4031,20.8538 C6.4031,21.0768 6.2221,21.2578 5.9991,21.2578" id="Fill-84" fill="#1D96DD"></path>
                    <path d="M5.3185,19.2526 C5.0905,19.2526 4.9045,19.0676 4.9045,18.8386 C4.9045,18.6106 5.0905,18.4246 5.3185,18.4246 C5.5475,18.4246 5.7325,18.6106 5.7325,18.8386 C5.7325,19.0676 5.5475,19.2526 5.3185,19.2526" id="Fill-86" fill="#1D96DD"></path>
                    <path d="M4.705,17.2263 C4.471,17.2263 4.281,17.0373 4.281,16.8023 C4.281,16.5683 4.471,16.3793 4.705,16.3793 C4.939,16.3793 5.129,16.5683 5.129,16.8023 C5.129,17.0373 4.939,17.2263 4.705,17.2263" id="Fill-88" fill="#1D96DD"></path>
                    <path d="M4.1595,15.1804 C3.9205,15.1804 3.7265,14.9864 3.7265,14.7474 C3.7265,14.5084 3.9205,14.3144 4.1595,14.3144 C4.3985,14.3144 4.5925,14.5084 4.5925,14.7474 C4.5925,14.9864 4.3985,15.1804 4.1595,15.1804" id="Fill-90" fill="#1D96DD"></path>
                    <path d="M3.683,13.1169 C3.438,13.1169 3.24,12.9189 3.24,12.6739 C3.24,12.4299 3.438,12.2309 3.683,12.2309 C3.927,12.2309 4.126,12.4299 4.126,12.6739 C4.126,12.9189 3.927,13.1169 3.683,13.1169" id="Fill-92" fill="#1D96DD"></path>
                    <path d="M3.2603,11.0422 C3.0103,11.0422 2.8083,10.8392 2.8083,10.5902 C2.8083,10.3402 3.0103,10.1372 3.2603,10.1372 C3.5103,10.1372 3.7123,10.3402 3.7123,10.5902 C3.7123,10.8392 3.5103,11.0422 3.2603,11.0422" id="Fill-94" fill="#1D96DD"></path>
                    <path d="M2.894,8.9536 C2.639,8.9536 2.432,8.7466 2.432,8.4916 C2.432,8.2366 2.639,8.0296 2.894,8.0296 C3.149,8.0296 3.356,8.2366 3.356,8.4916 C3.356,8.7466 3.149,8.9536 2.894,8.9536" id="Fill-96" fill="#1D96DD"></path>
                    <path d="M2.593,6.8557 C2.333,6.8557 2.121,6.6447 2.121,6.3837 C2.121,6.1237 2.333,5.9127 2.593,5.9127 C2.853,5.9127 3.065,6.1237 3.065,6.3837 C3.065,6.6447 2.853,6.8557 2.593,6.8557" id="Fill-98" fill="#1D96DD"></path>
                    <path d="M2.3284,4.7536 C2.0624,4.7536 1.8474,4.5376 1.8474,4.2726 C1.8474,4.0066 2.0624,3.7906 2.3284,3.7906 C2.5944,3.7906 2.8094,4.0066 2.8094,4.2726 C2.8094,4.5376 2.5944,4.7536 2.3284,4.7536" id="Fill-100" fill="#1D96DD"></path>
                    <g id="Group-104" transform="translate(0.000000, 0.162300)">
                        <mask id="mask-2" fill="white">
                            <use xlink:href="#path-1"></use>
                        </mask>
                        <g id="Clip-103"></g>
                        <path d="M4.4615,2.8179 C4.3195,1.5899 3.2075,0.7099 1.9805,0.8529 C0.7525,0.9949 -0.1275,2.1059 0.0155,3.3339 C0.1575,4.5619 1.2685,5.4419 2.4965,5.2989 C3.7235,5.1569 4.6035,4.0459 4.4615,2.8179" id="Fill-102" fill="#1D96DD" mask="url(#mask-2)"></path>
                    </g>
                </g>
                <g id="Page-1" transform="translate(51.144300, 53.241666) rotate(-148.000000) translate(-51.144300, -53.241666) translate(11.144300, 20.741666)">
                    <path d="M70.3291,60.1596 C70.3021,60.1596 70.2811,60.1386 70.2811,60.1116 C70.2811,60.0846 70.3021,60.0636 70.3291,60.0636 C70.3561,60.0636 70.3771,60.0846 70.3771,60.1116 C70.3771,60.1386 70.3561,60.1596 70.3291,60.1596" id="Fill-10" fill="#1D96DD"></path>
                    <path d="M68.3049,59.5356 C68.2729,59.5356 68.2469,59.5096 68.2469,59.4776 C68.2469,59.4456 68.2729,59.4196 68.3049,59.4196 C68.3369,59.4196 68.3629,59.4456 68.3629,59.4776 C68.3629,59.5096 68.3369,59.5356 68.3049,59.5356" id="Fill-12" fill="#1D96DD"></path>
                    <path d="M66.2784,58.9047 C66.2414,58.9047 66.2114,58.8747 66.2114,58.8377 C66.2114,58.7997 66.2414,58.7697 66.2784,58.7697 C66.3154,58.7697 66.3454,58.7997 66.3454,58.8377 C66.3454,58.8747 66.3154,58.9047 66.2784,58.9047" id="Fill-14" fill="#1D96DD"></path>
                    <path d="M64.2532,58.2692 C64.2102,58.2692 64.1762,58.2352 64.1762,58.1922 C64.1762,58.1492 64.2102,58.1152 64.2532,58.1152 C64.2952,58.1152 64.3302,58.1492 64.3302,58.1922 C64.3302,58.2352 64.2952,58.2692 64.2532,58.2692" id="Fill-16" fill="#1D96DD"></path>
                    <path d="M62.2305,57.6242 C62.1825,57.6242 62.1435,57.5852 62.1435,57.5372 C62.1435,57.4902 62.1825,57.4512 62.2305,57.4512 C62.2785,57.4512 62.3175,57.4902 62.3175,57.5372 C62.3175,57.5852 62.2785,57.6242 62.2305,57.6242" id="Fill-18" fill="#1D96DD"></path>
                    <path d="M60.2112,56.9702 C60.1582,56.9702 60.1152,56.9272 60.1152,56.8732 C60.1152,56.8212 60.1582,56.7772 60.2112,56.7772 C60.2642,56.7772 60.3072,56.8212 60.3072,56.8732 C60.3072,56.9272 60.2642,56.9702 60.2112,56.9702" id="Fill-20" fill="#1D96DD"></path>
                    <path d="M58.1938,56.309 C58.1358,56.309 58.0878,56.262 58.0878,56.203 C58.0878,56.145 58.1358,56.097 58.1938,56.097 C58.2528,56.097 58.2998,56.145 58.2998,56.203 C58.2998,56.262 58.2528,56.309 58.1938,56.309" id="Fill-22" fill="#1D96DD"></path>
                    <path d="M56.1785,55.6425 C56.1145,55.6425 56.0635,55.5915 56.0635,55.5275 C56.0635,55.4635 56.1145,55.4115 56.1785,55.4115 C56.2425,55.4115 56.2935,55.4635 56.2935,55.5275 C56.2935,55.5915 56.2425,55.6425 56.1785,55.6425" id="Fill-24" fill="#1D96DD"></path>
                    <path d="M54.1646,54.9716 C54.0956,54.9716 54.0396,54.9156 54.0396,54.8466 C54.0396,54.7776 54.0956,54.7216 54.1646,54.7216 C54.2336,54.7216 54.2896,54.7776 54.2896,54.8466 C54.2896,54.9156 54.2336,54.9716 54.1646,54.9716" id="Fill-26" fill="#1D96DD"></path>
                    <path d="M52.1516,54.2971 C52.0776,54.2971 52.0166,54.2371 52.0166,54.1621 C52.0166,54.0881 52.0776,54.0271 52.1516,54.0271 C52.2266,54.0271 52.2866,54.0881 52.2866,54.1621 C52.2866,54.2371 52.2266,54.2971 52.1516,54.2971" id="Fill-28" fill="#1D96DD"></path>
                    <path d="M50.1445,53.6184 C50.0645,53.6184 50.0005,53.5534 50.0005,53.4744 C50.0005,53.3944 50.0645,53.3294 50.1445,53.3294 C50.2245,53.3294 50.2885,53.3944 50.2885,53.4744 C50.2885,53.5534 50.2245,53.6184 50.1445,53.6184" id="Fill-30" fill="#1D96DD"></path>
                    <path d="M48.1355,52.9323 C48.0505,52.9323 47.9815,52.8633 47.9815,52.7783 C47.9815,52.6933 48.0505,52.6243 48.1355,52.6243 C48.2205,52.6243 48.2895,52.6933 48.2895,52.7783 C48.2895,52.8633 48.2205,52.9323 48.1355,52.9323" id="Fill-32" fill="#1D96DD"></path>
                    <path d="M46.1328,52.2375 C46.0428,52.2375 45.9698,52.1635 45.9698,52.0735 C45.9698,51.9835 46.0428,51.9105 46.1328,51.9105 C46.2228,51.9105 46.2968,51.9835 46.2968,52.0735 C46.2968,52.1635 46.2228,52.2375 46.1328,52.2375" id="Fill-34" fill="#1D96DD"></path>
                    <path d="M44.1355,51.53 C44.0395,51.53 43.9625,51.453 43.9625,51.357 C43.9625,51.261 44.0395,51.183 44.1355,51.183 C44.2315,51.183 44.3085,51.261 44.3085,51.357 C44.3085,51.453 44.2315,51.53 44.1355,51.53" id="Fill-36" fill="#1D96DD"></path>
                    <path d="M42.1414,50.8085 C42.0404,50.8085 41.9584,50.7265 41.9584,50.6255 C41.9584,50.5245 42.0404,50.4425 42.1414,50.4425 C42.2424,50.4425 42.3244,50.5245 42.3244,50.6255 C42.3244,50.7265 42.2424,50.8085 42.1414,50.8085" id="Fill-38" fill="#1D96DD"></path>
                    <path d="M40.1479,50.0759 C40.0419,50.0759 39.9549,49.9899 39.9549,49.8829 C39.9549,49.7769 40.0419,49.6909 40.1479,49.6909 C40.2539,49.6909 40.3399,49.7769 40.3399,49.8829 C40.3399,49.9899 40.2539,50.0759 40.1479,50.0759" id="Fill-40" fill="#1D96DD"></path>
                    <path d="M38.1597,49.3281 C38.0477,49.3281 37.9577,49.2381 37.9577,49.1261 C37.9577,49.0141 38.0477,48.9241 38.1597,48.9241 C38.2717,48.9241 38.3617,49.0141 38.3617,49.1261 C38.3617,49.2381 38.2717,49.3281 38.1597,49.3281" id="Fill-42" fill="#1D96DD"></path>
                    <path d="M36.1756,48.5639 C36.0586,48.5639 35.9636,48.4689 35.9636,48.3519 C35.9636,48.2349 36.0586,48.1409 36.1756,48.1409 C36.2926,48.1409 36.3876,48.2349 36.3876,48.3519 C36.3876,48.4689 36.2926,48.5639 36.1756,48.5639" id="Fill-44" fill="#1D96DD"></path>
                    <path d="M34.1967,47.7834 C34.0747,47.7834 33.9757,47.6844 33.9757,47.5624 C33.9757,47.4404 34.0747,47.3404 34.1967,47.3404 C34.3187,47.3404 34.4177,47.4404 34.4177,47.5624 C34.4177,47.6844 34.3187,47.7834 34.1967,47.7834" id="Fill-46" fill="#1D96DD"></path>
                    <path d="M32.2243,46.9868 C32.0973,46.9868 31.9933,46.8838 31.9933,46.7558 C31.9933,46.6278 32.0973,46.5248 32.2243,46.5248 C32.3523,46.5248 32.4553,46.6278 32.4553,46.7558 C32.4553,46.8838 32.3523,46.9868 32.2243,46.9868" id="Fill-48" fill="#1D96DD"></path>
                    <path d="M30.263,46.1762 C30.13,46.1762 30.022,46.0682 30.022,45.9352 C30.022,45.8022 30.13,45.6952 30.263,45.6952 C30.396,45.6952 30.504,45.8022 30.504,45.9352 C30.504,46.0682 30.396,46.1762 30.263,46.1762" id="Fill-50" fill="#1D96DD"></path>
                    <path d="M28.3069,45.3493 C28.1689,45.3493 28.0569,45.2373 28.0569,45.0993 C28.0569,44.9613 28.1689,44.8483 28.3069,44.8483 C28.4449,44.8483 28.5569,44.9613 28.5569,45.0993 C28.5569,45.2373 28.4449,45.3493 28.3069,45.3493" id="Fill-52" fill="#1D96DD"></path>
                    <path d="M26.3645,44.4938 C26.2205,44.4938 26.1045,44.3778 26.1045,44.2338 C26.1045,44.0908 26.2205,43.9738 26.3645,43.9738 C26.5085,43.9738 26.6245,44.0908 26.6245,44.2338 C26.6245,44.3778 26.5085,44.4938 26.3645,44.4938" id="Fill-54" fill="#1D96DD"></path>
                    <path d="M24.4583,43.5734 C24.3093,43.5734 24.1883,43.4524 24.1883,43.3034 C24.1883,43.1554 24.3093,43.0344 24.4583,43.0344 C24.6073,43.0344 24.7283,43.1554 24.7283,43.3034 C24.7283,43.4524 24.6073,43.5734 24.4583,43.5734" id="Fill-56" fill="#1D96DD"></path>
                    <path d="M22.6022,42.5424 C22.4482,42.5424 22.3232,42.4174 22.3232,42.2634 C22.3232,42.1094 22.4482,41.9844 22.6022,41.9844 C22.7562,41.9844 22.8812,42.1094 22.8812,42.2634 C22.8812,42.4174 22.7562,42.5424 22.6022,42.5424" id="Fill-58" fill="#1D96DD"></path>
                    <path d="M20.8183,41.4001 C20.6583,41.4001 20.5293,41.2711 20.5293,41.1111 C20.5293,40.9521 20.6583,40.8231 20.8183,40.8231 C20.9773,40.8231 21.1073,40.9521 21.1073,41.1111 C21.1073,41.2711 20.9773,41.4001 20.8183,41.4001" id="Fill-60" fill="#1D96DD"></path>
                    <path d="M19.1077,40.1477 C18.9427,40.1477 18.8097,40.0137 18.8097,39.8487 C18.8097,39.6847 18.9427,39.5507 19.1077,39.5507 C19.2727,39.5507 19.4057,39.6847 19.4057,39.8487 C19.4057,40.0137 19.2727,40.1477 19.1077,40.1477" id="Fill-62" fill="#1D96DD"></path>
                    <path d="M17.4799,38.7919 C17.3099,38.7919 17.1719,38.6539 17.1719,38.4839 C17.1719,38.3139 17.3099,38.1759 17.4799,38.1759 C17.6499,38.1759 17.7879,38.3139 17.7879,38.4839 C17.7879,38.6539 17.6499,38.7919 17.4799,38.7919" id="Fill-64" fill="#1D96DD"></path>
                    <path d="M15.9355,37.341 C15.7595,37.341 15.6175,37.199 15.6175,37.023 C15.6175,36.848 15.7595,36.706 15.9355,36.706 C16.1105,36.706 16.2535,36.848 16.2535,37.023 C16.2535,37.199 16.1105,37.341 15.9355,37.341" id="Fill-66" fill="#1D96DD"></path>
                    <path d="M14.4783,35.8085 C14.2973,35.8085 14.1513,35.6625 14.1513,35.4815 C14.1513,35.3005 14.2973,35.1545 14.4783,35.1545 C14.6593,35.1545 14.8053,35.3005 14.8053,35.4815 C14.8053,35.6625 14.6593,35.8085 14.4783,35.8085" id="Fill-68" fill="#1D96DD"></path>
                    <path d="M13.1044,34.1958 C12.9184,34.1958 12.7674,34.0448 12.7674,33.8588 C12.7674,33.6728 12.9184,33.5218 13.1044,33.5218 C13.2904,33.5218 13.4414,33.6728 13.4414,33.8588 C13.4414,34.0448 13.2904,34.1958 13.1044,34.1958" id="Fill-70" fill="#1D96DD"></path>
                    <path d="M11.8208,32.51 C11.6298,32.51 11.4748,32.355 11.4748,32.163 C11.4748,31.972 11.6298,31.817 11.8208,31.817 C12.0118,31.817 12.1668,31.972 12.1668,32.163 C12.1668,32.355 12.0118,32.51 11.8208,32.51" id="Fill-72" fill="#1D96DD"></path>
                    <path d="M10.6306,30.7575 C10.4336,30.7575 10.2746,30.5985 10.2746,30.4015 C10.2746,30.2045 10.4336,30.0455 10.6306,30.0455 C10.8276,30.0455 10.9866,30.2045 10.9866,30.4015 C10.9866,30.5985 10.8276,30.7575 10.6306,30.7575" id="Fill-74" fill="#1D96DD"></path>
                    <path d="M9.5269,28.9489 C9.3249,28.9489 9.1609,28.7849 9.1609,28.5829 C9.1609,28.3809 9.3249,28.2179 9.5269,28.2179 C9.7289,28.2179 9.8929,28.3809 9.8929,28.5829 C9.8929,28.7849 9.7289,28.9489 9.5269,28.9489" id="Fill-76" fill="#1D96DD"></path>
                    <path d="M8.5096,27.0898 C8.3026,27.0898 8.1346,26.9218 8.1346,26.7138 C8.1346,26.5068 8.3026,26.3388 8.5096,26.3388 C8.7166,26.3388 8.8846,26.5068 8.8846,26.7138 C8.8846,26.9218 8.7166,27.0898 8.5096,27.0898" id="Fill-78" fill="#1D96DD"></path>
                    <path d="M7.5815,25.1867 C7.3685,25.1867 7.1965,25.0147 7.1965,24.8017 C7.1965,24.5887 7.3685,24.4167 7.5815,24.4167 C7.7945,24.4167 7.9665,24.5887 7.9665,24.8017 C7.9665,25.0147 7.7945,25.1867 7.5815,25.1867" id="Fill-80" fill="#1D96DD"></path>
                    <path d="M6.746,23.239 C6.528,23.239 6.351,23.062 6.351,22.844 C6.351,22.626 6.528,22.45 6.746,22.45 C6.964,22.45 7.141,22.626 7.141,22.844 C7.141,23.062 6.964,23.239 6.746,23.239" id="Fill-82" fill="#1D96DD"></path>
                    <path d="M5.9991,21.2578 C5.7761,21.2578 5.5951,21.0768 5.5951,20.8538 C5.5951,20.6298 5.7761,20.4488 5.9991,20.4488 C6.2221,20.4488 6.4031,20.6298 6.4031,20.8538 C6.4031,21.0768 6.2221,21.2578 5.9991,21.2578" id="Fill-84" fill="#1D96DD"></path>
                    <path d="M5.3185,19.2526 C5.0905,19.2526 4.9045,19.0676 4.9045,18.8386 C4.9045,18.6106 5.0905,18.4246 5.3185,18.4246 C5.5475,18.4246 5.7325,18.6106 5.7325,18.8386 C5.7325,19.0676 5.5475,19.2526 5.3185,19.2526" id="Fill-86" fill="#1D96DD"></path>
                    <path d="M4.705,17.2263 C4.471,17.2263 4.281,17.0373 4.281,16.8023 C4.281,16.5683 4.471,16.3793 4.705,16.3793 C4.939,16.3793 5.129,16.5683 5.129,16.8023 C5.129,17.0373 4.939,17.2263 4.705,17.2263" id="Fill-88" fill="#1D96DD"></path>
                    <path d="M4.1595,15.1804 C3.9205,15.1804 3.7265,14.9864 3.7265,14.7474 C3.7265,14.5084 3.9205,14.3144 4.1595,14.3144 C4.3985,14.3144 4.5925,14.5084 4.5925,14.7474 C4.5925,14.9864 4.3985,15.1804 4.1595,15.1804" id="Fill-90" fill="#1D96DD"></path>
                    <path d="M3.683,13.1169 C3.438,13.1169 3.24,12.9189 3.24,12.6739 C3.24,12.4299 3.438,12.2309 3.683,12.2309 C3.927,12.2309 4.126,12.4299 4.126,12.6739 C4.126,12.9189 3.927,13.1169 3.683,13.1169" id="Fill-92" fill="#1D96DD"></path>
                    <path d="M3.2603,11.0422 C3.0103,11.0422 2.8083,10.8392 2.8083,10.5902 C2.8083,10.3402 3.0103,10.1372 3.2603,10.1372 C3.5103,10.1372 3.7123,10.3402 3.7123,10.5902 C3.7123,10.8392 3.5103,11.0422 3.2603,11.0422" id="Fill-94" fill="#1D96DD"></path>
                    <path d="M2.894,8.9536 C2.639,8.9536 2.432,8.7466 2.432,8.4916 C2.432,8.2366 2.639,8.0296 2.894,8.0296 C3.149,8.0296 3.356,8.2366 3.356,8.4916 C3.356,8.7466 3.149,8.9536 2.894,8.9536" id="Fill-96" fill="#1D96DD"></path>
                    <path d="M2.593,6.8557 C2.333,6.8557 2.121,6.6447 2.121,6.3837 C2.121,6.1237 2.333,5.9127 2.593,5.9127 C2.853,5.9127 3.065,6.1237 3.065,6.3837 C3.065,6.6447 2.853,6.8557 2.593,6.8557" id="Fill-98" fill="#1D96DD"></path>
                    <path d="M2.3284,4.7536 C2.0624,4.7536 1.8474,4.5376 1.8474,4.2726 C1.8474,4.0066 2.0624,3.7906 2.3284,3.7906 C2.5944,3.7906 2.8094,4.0066 2.8094,4.2726 C2.8094,4.5376 2.5944,4.7536 2.3284,4.7536" id="Fill-100" fill="#1D96DD"></path>
                    <g id="Group-104" transform="translate(-0.000000, 0.162300)">
                        <mask id="mask-4" fill="white">
                            <use xlink:href="#path-3"></use>
                        </mask>
                        <g id="Clip-103"></g>
                        <path d="M4.4615,2.8179 C4.3195,1.5899 3.2075,0.7099 1.9805,0.8529 C0.7525,0.9949 -0.1275,2.1059 0.0155,3.3339 C0.1575,4.5619 1.2685,5.4419 2.4965,5.2989 C3.7235,5.1569 4.6035,4.0459 4.4615,2.8179" id="Fill-102" fill="#1D96DD" mask="url(#mask-4)"></path>
                    </g>
                </g>
                <g id="Page-1" transform="translate(75.860151, 53.947482) scale(-1, 1) rotate(123.000000) translate(-75.860151, -53.947482) translate(55.860151, 44.447482)">
                    <g id="Group-3" transform="translate(0.000000, 16.607400)">
                        <mask id="mask-6" fill="white">
                            <use xlink:href="#path-5"></use>
                        </mask>
                        <g id="Clip-2"></g>
                        <path d="M0.1174,0.8469 C0.1044,0.8469 0.0944,0.8369 0.0944,0.8239 C0.0944,0.8109 0.1044,0.7999 0.1174,0.7999 C0.1304,0.7999 0.1404,0.8109 0.1404,0.8239 C0.1404,0.8369 0.1304,0.8469 0.1174,0.8469" id="Fill-1" fill="#1D96DD" mask="url(#mask-6)"></path>
                    </g>
                    <g id="Group-6" transform="translate(2.000000, 16.607400)">
                        <mask id="mask-8" fill="white">
                            <use xlink:href="#path-7"></use>
                        </mask>
                        <g id="Clip-5"></g>
                        <path d="M0.2407,0.7261 C0.2147,0.7261 0.1937,0.7051 0.1937,0.6791 C0.1937,0.6531 0.2147,0.6321 0.2407,0.6321 C0.2667,0.6321 0.2877,0.6531 0.2877,0.6791 C0.2877,0.7051 0.2667,0.7261 0.2407,0.7261" id="Fill-4" fill="#1D96DD" mask="url(#mask-8)"></path>
                    </g>
                    <g id="Group-9" transform="translate(4.000000, 16.607400)">
                        <mask id="mask-10" fill="white">
                            <use xlink:href="#path-9"></use>
                        </mask>
                        <g id="Clip-8"></g>
                        <path d="M0.3596,0.5776 C0.3206,0.5776 0.2896,0.5466 0.2896,0.5076 C0.2896,0.4686 0.3206,0.4376 0.3596,0.4376 C0.3986,0.4376 0.4296,0.4686 0.4296,0.5076 C0.4296,0.5466 0.3986,0.5776 0.3596,0.5776" id="Fill-7" fill="#1D96DD" mask="url(#mask-10)"></path>
                    </g>
                    <g id="Group-12" transform="translate(6.000000, 16.607400)">
                        <mask id="mask-12" fill="white">
                            <use xlink:href="#path-11"></use>
                        </mask>
                        <g id="Clip-11"></g>
                        <path d="M0.4753,0.395 C0.4243,0.395 0.3823,0.353 0.3823,0.302 C0.3823,0.25 0.4243,0.208 0.4753,0.208 C0.5263,0.208 0.5683,0.25 0.5683,0.302 C0.5683,0.353 0.5263,0.395 0.4753,0.395" id="Fill-10" fill="#1D96DD" mask="url(#mask-12)"></path>
                    </g>
                    <path d="M8.5854,16.7739 C8.5214,16.7739 8.4684,16.7219 8.4684,16.6579 C8.4684,16.5929 8.5214,16.5409 8.5854,16.5409 C8.6494,16.5409 8.7024,16.5929 8.7024,16.6579 C8.7024,16.7219 8.6494,16.7739 8.5854,16.7739" id="Fill-13" fill="#1D96DD"></path>
                    <path d="M10.6814,16.446 C10.6044,16.446 10.5414,16.383 10.5414,16.306 C10.5414,16.229 10.6044,16.166 10.6814,16.166 C10.7584,16.166 10.8214,16.229 10.8214,16.306 C10.8214,16.383 10.7584,16.446 10.6814,16.446" id="Fill-15" fill="#1D96DD"></path>
                    <path d="M12.7563,16.018 C12.6663,16.018 12.5933,15.945 12.5933,15.855 C12.5933,15.765 12.6663,15.691 12.7563,15.691 C12.8463,15.691 12.9193,15.765 12.9193,15.855 C12.9193,15.945 12.8463,16.018 12.7563,16.018" id="Fill-17" fill="#1D96DD"></path>
                    <path d="M14.8088,15.4956 C14.7058,15.4956 14.6218,15.4116 14.6218,15.3086 C14.6218,15.2056 14.7058,15.1216 14.8088,15.1216 C14.9118,15.1216 14.9958,15.2056 14.9958,15.3086 C14.9958,15.4116 14.9118,15.4956 14.8088,15.4956" id="Fill-19" fill="#1D96DD"></path>
                    <path d="M16.8332,14.8694 C16.7172,14.8694 16.6232,14.7754 16.6232,14.6594 C16.6232,14.5434 16.7172,14.4494 16.8332,14.4494 C16.9492,14.4494 17.0432,14.5434 17.0432,14.6594 C17.0432,14.7754 16.9492,14.8694 16.8332,14.8694" id="Fill-21" fill="#1D96DD"></path>
                    <path d="M18.8247,14.146 C18.6957,14.146 18.5917,14.041 18.5917,13.913 C18.5917,13.784 18.6957,13.679 18.8247,13.679 C18.9537,13.679 19.0577,13.784 19.0577,13.913 C19.0577,14.041 18.9537,14.146 18.8247,14.146" id="Fill-23" fill="#1D96DD"></path>
                    <path d="M20.7651,13.3 C20.6231,13.3 20.5081,13.185 20.5081,13.043 C20.5081,12.902 20.6231,12.787 20.7651,12.787 C20.9071,12.787 21.0221,12.902 21.0221,13.043 C21.0221,13.185 20.9071,13.3 20.7651,13.3" id="Fill-25" fill="#1D96DD"></path>
                    <path d="M22.6706,12.3791 C22.5156,12.3791 22.3906,12.2541 22.3906,12.0991 C22.3906,11.9451 22.5156,11.8191 22.6706,11.8191 C22.8256,11.8191 22.9506,11.9451 22.9506,12.0991 C22.9506,12.2541 22.8256,12.3791 22.6706,12.3791" id="Fill-27" fill="#1D96DD"></path>
                    <path d="M24.5449,11.3918 C24.3769,11.3918 24.2419,11.2558 24.2419,11.0888 C24.2419,10.9208 24.3769,10.7848 24.5449,10.7848 C24.7119,10.7848 24.8479,10.9208 24.8479,11.0888 C24.8479,11.2558 24.7119,11.3918 24.5449,11.3918" id="Fill-29" fill="#1D96DD"></path>
                    <path d="M26.3781,10.3384 C26.1981,10.3384 26.0511,10.1924 26.0511,10.0114 C26.0511,9.8314 26.1981,9.6854 26.3781,9.6854 C26.5581,9.6854 26.7051,9.8314 26.7051,10.0114 C26.7051,10.1924 26.5581,10.3384 26.3781,10.3384" id="Fill-31" fill="#1D96DD"></path>
                    <path d="M28.1985,9.2627 C28.0055,9.2627 27.8485,9.1057 27.8485,8.9127 C27.8485,8.7187 28.0055,8.5627 28.1985,8.5627 C28.3915,8.5627 28.5485,8.7187 28.5485,8.9127 C28.5485,9.1057 28.3915,9.2627 28.1985,9.2627" id="Fill-33" fill="#1D96DD"></path>
                    <path d="M30.0207,8.1885 C29.8147,8.1885 29.6477,8.0215 29.6477,7.8145 C29.6477,7.6085 29.8147,7.4415 30.0207,7.4415 C30.2267,7.4415 30.3947,7.6085 30.3947,7.8145 C30.3947,8.0215 30.2267,8.1885 30.0207,8.1885" id="Fill-35" fill="#1D96DD"></path>
                    <path d="M31.8506,7.1274 C31.6316,7.1274 31.4536,6.9494 31.4536,6.7304 C31.4536,6.5114 31.6316,6.3344 31.8506,6.3344 C32.0696,6.3344 32.2466,6.5114 32.2466,6.7304 C32.2466,6.9494 32.0696,7.1274 31.8506,7.1274" id="Fill-37" fill="#1D96DD"></path>
                    <path d="M33.6882,6.0757 C33.4562,6.0757 33.2682,5.8877 33.2682,5.6557 C33.2682,5.4237 33.4562,5.2357 33.6882,5.2357 C33.9202,5.2357 34.1082,5.4237 34.1082,5.6557 C34.1082,5.8877 33.9202,6.0757 33.6882,6.0757" id="Fill-39" fill="#1D96DD"></path>
                    <path d="M35.5271,5.0254 C35.2821,5.0254 35.0841,4.8264 35.0841,4.5824 C35.0841,4.3374 35.2821,4.1384 35.5271,4.1384 C35.7721,4.1384 35.9701,4.3374 35.9701,4.5824 C35.9701,4.8264 35.7721,5.0254 35.5271,5.0254" id="Fill-41" fill="#1D96DD"></path>
                    <path d="M36.9577,4.1787 C36.6997,4.1787 36.4907,3.9697 36.4907,3.7117 C36.4907,3.4547 36.6997,3.2457 36.9577,3.2457 C37.2157,3.2457 37.4247,3.4547 37.4247,3.7117 C37.4247,3.9697 37.2157,4.1787 36.9577,4.1787" id="Fill-43" fill="#1D96DD"></path>
                    <g id="Group-47" transform="translate(35.000000, 0.607400)">
                        <mask id="mask-14" fill="white">
                            <use xlink:href="#path-13"></use>
                        </mask>
                        <g id="Clip-46"></g>
                        <path d="M3.9074,4.5181 C4.9494,3.8541 5.2564,2.4701 4.5914,1.4281 C3.9274,0.3861 2.5434,0.0791 1.5014,0.7441 C0.4594,1.4081 0.1524,2.7921 0.8174,3.8341 C1.4814,4.8761 2.8654,5.1821 3.9074,4.5181" id="Fill-45" fill="#1D96DD" mask="url(#mask-14)"></path>
                    </g>
                </g>
            </g>
        </g>
    </g>
</svg>