<?xml version="1.0" encoding="UTF-8" standalone="no"?>
<svg width="73px" height="73px" viewBox="0 0 73 73" version="1.1" xmlns="http://www.w3.org/2000/svg" xmlns:xlink="http://www.w3.org/1999/xlink">
    <!-- Generator: Sketch 39.1 (31720) - http://www.bohemiancoding.com/sketch -->
    <title>Healthchecks</title>
    <desc>Created with Sketch.</desc>
    <defs>
        <linearGradient x1="50%" y1="44.2022405%" x2="50%" y2="100%" id="linearGradient-1">
            <stop stop-color="#1D96DE" offset="0%"></stop>
            <stop stop-color="#0B6CBF" offset="100%"></stop>
        </linearGradient>
        <linearGradient x1="50%" y1="5.83025378%" x2="50%" y2="100%" id="linearGradient-2">
            <stop stop-color="#1D96DD" offset="0%"></stop>
            <stop stop-color="#0C6DBF" offset="100%"></stop>
        </linearGradient>
        <path d="M54.2272,26.3056 C52.2162,21.9066 48.5322,19.3836 44.1152,19.3836 L44.0602,19.3846 C40.5682,19.4056 38.0502,21.0696 36.5142,22.5256 C34.9772,21.0696 32.4612,19.4056 28.9762,19.3846 L28.8962,19.3836 C24.4912,19.3836 20.8102,21.9066 18.8002,26.3046 C17.2612,29.6726 16.9562,33.7106 17.7942,37.5066 L25.0102,37.5066 L29.6742,26.6216 L34.8442,42.1306 L36.2812,39.9766 L38.5202,39.9766 C39.0442,39.0786 40.1032,38.5316 41.2722,38.8186 C42.1142,39.0256 42.8102,39.7036 43.0312,40.5426 C43.4662,42.1936 42.2302,43.6826 40.6482,43.6826 C39.7372,43.6826 38.9492,43.1836 38.5202,42.4476 L37.6042,42.4476 L34.0992,47.7046 L29.3882,33.5686 L26.6392,39.9766 L18.5212,39.9766 C18.9942,41.2596 19.5992,42.4906 20.3482,43.6236 C23.7542,48.7706 27.7002,51.5816 32.6952,55.1406 L32.9352,55.3126 C33.5612,55.7576 34.2092,56.2216 34.8822,56.7066 L35.9092,57.4486 C36.0892,57.5786 36.2992,57.6466 36.5142,57.6466 C36.7292,57.6466 36.9382,57.5776 37.1182,57.4476 L38.1452,56.7066 C38.8242,56.2156 39.4782,55.7496 40.1092,55.2996 L40.3332,55.1396 C45.3282,51.5796 49.2732,48.7666 52.6782,43.6226 C56.0262,38.5646 56.6492,31.6056 54.2272,26.3056" id="path-3"></path>
    </defs>
    <g id="Main-Page" stroke="none" stroke-width="1" fill="none" fill-rule="evenodd">
        <g id="Mobile-Portrait" transform="translate(-124.000000, -1711.000000)">
            <g id="Healthchecks" transform="translate(124.000000, 1711.000000)">
                <path d="M36.5155,69.5302 C18.2817229,69.5302 3.4995,54.7485687 3.4995,36.5152 C3.4995,18.2818313 18.2817229,3.5002 36.5155,3.5002 C54.7490729,3.5002 69.5305,18.2816271 69.5305,36.5152 C69.5305,54.7487729 54.7490729,69.5302 36.5155,69.5302 Z M36.5155,0.5002 C16.6248956,0.5002 0.4995,16.6249502 0.4995,36.5152 C0.4995,56.4054498 16.6248956,72.5302 36.5155,72.5302 C56.4059271,72.5302 72.5305,56.4056271 72.5305,36.5152 C72.5305,16.6247729 56.4059271,0.5002 36.5155,0.5002 Z" id="Stroke-1" fill="url(#linearGradient-1)"></path>
                <g id="-">
                    <use fill="#1F5B8C" xlink:href="#path-3"></use>
                    <use fill="url(#linearGradient-2)" xlink:href="#path-3"></use>
                </g>
            </g>
        </g>
    </g>
</svg>