<?xml version="1.0" encoding="UTF-8" standalone="no"?>
<svg width="48px" height="57px" viewBox="0 0 48 57" version="1.1" xmlns="http://www.w3.org/2000/svg" xmlns:xlink="http://www.w3.org/1999/xlink">
    <!-- Generator: Sketch 39.1 (31720) - http://www.bohemiancoding.com/sketch -->
    <title>Linux_logo</title>
    <desc>Created with Sketch.</desc>
    <defs>
        <polygon id="path-1" points="16.7288709 16.9673209 16.7288709 0.00938044133 0.117822657 0.00938044133 0.117822657 16.9673209"></polygon>
    </defs>
    <g id="Downloads" stroke="none" stroke-width="1" fill="none" fill-rule="evenodd">
        <g id="Downloads_desctop" transform="translate(-388.000000, -369.000000)">
            <g id="Group" transform="translate(388.000000, 361.000000)">
                <g id="Linux_logo" transform="translate(0.000000, 8.000000)">
                    <path d="M42.6884395,37.7164592 C41.9647287,40.7108552 38.2973391,46.9662171 36.3495423,49.7191394 C34.4003763,52.4827735 34.6419682,54.9709624 31.0399971,54.0029253 C27.4485233,53.033358 26.4418396,53.2091839 22.7304827,53.4293871 C19.0414898,53.6495902 19.8398993,53.319209 17.5301711,54.3654419 C15.2312445,55.4113687 7.51308259,41.6807286 6.8896294,39.1250557 C6.27530436,36.570913 6.39320974,36.2533858 7.57850106,33.2854631 C8.55780028,30.8324701 9.7185977,28.0004337 11.5197354,25.2732196 C13.7062335,21.9622146 16.0736213,20.2079343 15.898665,17.6415496 C15.2099454,8.11634652 14.6625602,3.360019 18.8651642,1.1575281 C22.8731862,-0.934478647 26.2230681,0.308850648 27.5474117,1.02454925 C28.1160959,1.33350701 29.277654,1.92846877 30.1413299,2.97454866 C31.006375,3.9978278 31.7834855,5.55164511 32.2213328,7.51082603 C33.1198479,11.4429601 31.8504254,10.1428585 32.8676064,14.6468476 C33.8756593,19.1387476 35.9221924,21.3410855 38.4188957,24.898461 C40.9140777,28.4559896 43.520319,34.3241978 42.6884395,37.7164592" id="Fill-1" fill="#000000"></path>
                    <path d="M35.2216062,22.957031 C35.3235373,22.8855683 35.3349475,22.7776856 35.252642,22.6566427 C35.1695757,22.5343756 35.0531917,22.4984147 34.9564333,22.5648276 C34.8748884,22.6208348 34.8646953,22.6896961 34.9191599,22.8344579 L34.9533905,22.9255079 C34.9789494,22.993145 34.9736246,23.0306361 34.9357428,23.0564974 C34.8870593,23.0903159 34.8208801,23.0636896 34.7709795,22.9905436 C34.7405523,22.9455542 34.7276208,22.8985754 34.7350754,22.8624615 C34.7411609,22.8392017 34.7521147,22.822981 34.7855846,22.792529 L34.725643,22.7045396 C34.6078898,22.7913048 34.5963274,22.8991875 34.6897389,23.0362981 C34.7794991,23.1685118 34.9015122,23.2081453 35.0019219,23.1389779 C35.0796634,23.0855722 35.0924428,23.0121201 35.0466499,22.8907712 L35.0110501,22.7977319 C34.980775,22.7186179 34.9829049,22.6745466 35.0197218,22.6491445 C35.0674925,22.6163971 35.1275862,22.6381266 35.1739877,22.7062228 C35.2194763,22.7734009 35.2150644,22.829255 35.1616647,22.8690416 L35.2216062,22.957031 Z" id="Fill-3" fill="#000000"></path>
                    <path d="M35.7154396,22.9290274 L35.6582365,22.8450166 L35.5537191,22.9167854 L35.6107701,23.0009493 L35.7154396,22.9290274 Z M35.5112731,23.0693515 L35.4548307,22.9862588 L34.9331565,23.3451028 L34.9895989,23.4281955 L35.5112731,23.0693515 Z" id="Fill-5" fill="#000000"></path>
                    <path d="M35.6080316,23.2115119 L35.0863574,23.5703558 L35.1434084,23.6545197 L35.4711092,23.4291136 C35.5467208,23.3772381 35.6448485,23.3905513 35.6910978,23.4586475 C35.7333916,23.5207757 35.719243,23.5816797 35.6526074,23.6277403 L35.2931102,23.8748759 L35.3504654,23.9588867 L35.6780141,23.7336336 C35.7536257,23.6817581 35.8517534,23.6949183 35.8981549,23.7631675 C35.939688,23.8240715 35.9252351,23.8869648 35.8596645,23.9321073 L35.5000151,24.1792429 L35.5573703,24.2634067 L35.948664,23.9942355 C36.0422277,23.9299649 36.0572891,23.8402922 35.9905014,23.7422031 C35.9427307,23.6719645 35.8932865,23.644267 35.8012443,23.6356976 C35.8359313,23.5663772 35.8312151,23.5077685 35.7849657,23.4396723 C35.737195,23.3695868 35.6799919,23.3412772 35.5867326,23.3394409 L35.6603664,23.2886365 L35.6080316,23.2115119 Z" id="Fill-7" fill="#000000"></path>
                    <path d="M36.2515667,24.2915633 C36.3154638,24.3858268 36.2769734,24.4944747 36.1473536,24.5835353 C36.0250363,24.6676991 35.9078916,24.6631084 35.8452116,24.5708342 C35.781923,24.4777949 35.8198049,24.3679229 35.9462299,24.2810046 C36.071742,24.1946984 36.188126,24.198524 36.2515667,24.2915633 M36.3274826,24.2378515 C36.2275293,24.0906413 36.0621575,24.0733495 35.887049,24.1939333 C35.7117883,24.3143641 35.6670604,24.4744284 35.768535,24.6236279 C35.8686405,24.7708381 36.0344687,24.7890481 36.2056217,24.6713717 C36.3859028,24.5474214 36.4303265,24.3890403 36.3274826,24.2378515" id="Fill-9" fill="#000000"></path>
                    <path d="M36.5535566,24.6025104 L36.0318824,24.9613544 L36.0889334,25.0455182 L36.3766225,24.8476567 C36.4832698,24.7745107 36.5909821,24.782468 36.6495544,24.8686211 C36.6944345,24.934881 36.6831765,25.0042014 36.6204965,25.0473545 L36.2590214,25.2960204 L36.315616,25.379113 L36.7099524,25.1079525 C36.7965178,25.0484257 36.807928,24.9448277 36.7393147,24.843678 C36.6860671,24.7656352 36.62217,24.7361014 36.5182611,24.74008 L36.6058914,24.6797881 L36.5535566,24.6025104 Z" id="Fill-11" fill="#000000"></path>
                    <path d="M37.1690988,25.6502736 C37.2072849,25.7062808 37.1934405,25.7762133 37.1376066,25.8101849 C37.0863368,25.8424732 36.9842536,25.8729252 36.9305496,25.8730782 C36.870608,25.8732312 36.8216202,25.8525728 36.7963656,25.8155407 C36.7589402,25.7602987 36.7806956,25.6808786 36.8464184,25.6355832 C36.9580862,25.5587645 37.1118956,25.5662628 37.1690988,25.6502736 L37.1690988,25.6502736 Z M37.3139322,25.7711634 L37.2334523,25.7942702 C37.2730076,25.7301527 37.2743768,25.6675654 37.2369514,25.6124764 C37.1456698,25.4782733 36.9305496,25.4455259 36.7861725,25.5446862 C36.6827201,25.6159959 36.6516843,25.7400993 36.7149729,25.8332917 C36.7510291,25.8862384 36.8022989,25.914395 36.8832353,25.9261779 C36.8386594,25.9702492 36.8386594,26.0259503 36.8814096,26.0891497 C36.9319188,26.1632139 37.0022056,26.2045307 37.096682,26.2144773 C37.1978525,26.2256481 37.2996314,26.2011641 37.3772208,26.1479113 C37.5794095,26.0089645 37.6162264,25.6998537 37.4577007,25.4666434 C37.3767644,25.3474368 37.242124,25.2547036 37.1024632,25.2213441 C36.9472845,25.184159 36.7730888,25.2158352 36.6425562,25.3055079 C36.4215026,25.4576149 36.3817951,25.7817222 36.554013,26.0351318 C36.6045222,26.109196 36.6737441,26.1789755 36.7496599,26.2326873 L36.7972785,26.1587761 C36.7186242,26.0923632 36.6708535,26.0414058 36.6341887,25.9872349 C36.4898117,25.7751421 36.5251072,25.5111737 36.7152772,25.3803372 C36.9244641,25.2366466 37.2285839,25.2949492 37.3722003,25.5061239 C37.5022765,25.6975583 37.4724579,25.9546406 37.3061733,26.0687973 C37.189485,26.1491355 37.0206141,26.1433206 36.9628024,26.0582386 C36.9443939,26.0311532 36.9486537,25.9944271 36.9726912,25.9779004 C36.9815151,25.9719324 37.0020535,25.963516 37.0305029,25.9558648 L37.3705268,25.8542561 L37.3139322,25.7711634 Z" id="Fill-13" fill="#000000"></path>
                    <path d="M37.7050738,26.4323851 C37.7683623,26.5255774 37.7286548,26.6411114 37.6040555,26.7266524 C37.4855416,26.8080618 37.3627678,26.8014817 37.3006964,26.7104318 C37.2409069,26.6221363 37.2810708,26.5093567 37.4035403,26.4251929 C37.5260097,26.3408761 37.6452843,26.3442426 37.7050738,26.4323851 L37.7050738,26.4323851 Z M37.8159809,26.0195233 L37.0901402,26.5186913 L37.14141,26.5938266 L37.2078934,26.547766 C37.1745757,26.6297875 37.1815739,26.7026275 37.2313224,26.7757735 C37.3251903,26.9139552 37.4990817,26.9268093 37.6722124,26.8076027 C37.8415397,26.6911506 37.8876369,26.5332287 37.7936169,26.3948939 C37.7446291,26.3229721 37.6830141,26.2902247 37.5978179,26.291602 L37.8724233,26.1026159 L37.8159809,26.0195233 Z" id="Fill-15" fill="#000000"></path>
                    <path d="M37.7599949,27.5041732 L38.2816691,27.1453292 L38.2252266,27.0622366 L37.9294743,27.265607 C37.8229791,27.338906 37.7151147,27.3306427 37.6559339,27.2435714 C37.6110537,27.1774645 37.6223118,27.1079911 37.6849918,27.064991 L38.054378,26.8109693 L37.9977834,26.7277236 L37.595688,27.0043931 C37.5089705,27.0637668 37.4975603,27.1673649 37.5669343,27.2694326 C37.6192691,27.3465573 37.6795149,27.3771623 37.7815982,27.3789986 L37.7090293,27.4288848 L37.7599949,27.5041732 Z" id="Fill-17" fill="#000000"></path>
                    <path d="M38.4497793,27.5278921 C38.510938,27.6180239 38.4701655,27.7298853 38.3455662,27.8155794 C38.2252266,27.898366 38.1061042,27.8951524 38.0461626,27.8068569 C37.9834826,27.7147358 38.0227337,27.5982837 38.1441382,27.5147319 C38.2656948,27.4311802 38.3877079,27.4366891 38.4497793,27.5278921 L38.4497793,27.5278921 Z M38.8731737,27.5748708 L38.8165791,27.4917782 L38.5468421,27.6772446 C38.5757479,27.6059349 38.5655548,27.5306465 38.5179362,27.460561 C38.4252854,27.3243687 38.2562624,27.3098313 38.0899778,27.424141 C37.9136522,27.54549 37.8643601,27.7070845 37.9603579,27.8483267 C38.0093457,27.9204016 38.0702001,27.9520778 38.1655893,27.9526899 L38.096976,27.9998216 L38.147333,28.0740388 L38.8731737,27.5748708 Z" id="Fill-19" fill="#000000"></path>
                    <path d="M39.0167901,27.7860455 L38.959587,27.7020347 L38.8550695,27.7738035 L38.9122727,27.8581204 L39.0167901,27.7860455 Z M38.8126236,27.9265226 L38.7561812,27.8432769 L38.2343548,28.2021209 L38.2907972,28.2852135 L38.8126236,27.9265226 Z" id="Fill-21" fill="#000000"></path>
                    <path d="M38.977539,28.3023524 C39.0388498,28.3924842 38.9992944,28.4976124 38.8689139,28.5872852 C38.7443146,28.6729792 38.6318861,28.6709899 38.5719445,28.5826944 C38.5100252,28.4916445 38.5492763,28.3839148 38.6758534,28.2968434 C38.8013655,28.2106903 38.9169889,28.2132917 38.977539,28.3023524 L38.977539,28.3023524 Z M39.1421501,28.4113063 L39.0663864,28.4631818 C39.099552,28.3787119 39.0937709,28.3078613 39.0481301,28.2406832 C38.9576092,28.1075513 38.7808272,28.0966866 38.611652,28.2132917 C38.5259994,28.2720534 38.4719912,28.342904 38.4513007,28.4201817 C38.4341093,28.4893491 38.4464323,28.5634132 38.4838578,28.6185023 C38.5287379,28.6844561 38.5879188,28.7113886 38.6855901,28.7133779 L38.658662,28.7317409 C38.5880709,28.7805559 38.5392353,28.8007552 38.4958765,28.7996841 C38.4500836,28.7989189 38.4029215,28.7681609 38.3682345,28.7170505 C38.3423713,28.6789472 38.3292876,28.6380895 38.3314175,28.6027407 C38.3333953,28.5735129 38.3419149,28.555915 38.3694515,28.5297477 L38.3114877,28.4445127 C38.2189891,28.5213313 38.2127515,28.6388546 38.2964263,28.7620399 C38.3495217,28.8400827 38.4201128,28.8901219 38.4850749,28.8953248 C38.5600779,28.902517 38.6359938,28.872371 38.7584632,28.7882072 L39.1944849,28.4884309 L39.1421501,28.4113063 Z" id="Fill-23" fill="#000000"></path>
                    <polygon id="Fill-25" fill="#000000" points="39.1204895 29.1338395 38.9813721 28.9302145 38.7776323 29.0693633 38.9167498 29.273588"></polygon>
                    <path d="M39.5469839,29.1423074 C39.6082947,29.2324392 39.5675223,29.3443006 39.4429229,29.4298416 C39.3225834,29.5127812 39.2033088,29.5095677 39.1435193,29.4212722 C39.0808393,29.3291511 39.1200904,29.2125459 39.2413428,29.1289942 C39.3628994,29.0454425 39.4850646,29.0511044 39.5469839,29.1423074 L39.5469839,29.1423074 Z M39.9703783,29.1891331 L39.9139359,29.1060404 L39.6440467,29.2916599 C39.6729525,29.2203502 39.6627594,29.1449088 39.6151408,29.0749763 C39.52249,28.9386309 39.353467,28.9242465 39.1871824,29.0384033 C39.0110089,29.1597522 38.9617169,29.3214998 39.0575625,29.462742 C39.1067024,29.5348169 39.1675568,29.5664931 39.2629461,29.5669521 L39.1943328,29.6140839 L39.2445376,29.6883011 L39.9703783,29.1891331 Z" id="Fill-27" fill="#000000"></path>
                    <path d="M39.674626,29.6717744 C39.7759486,29.6124006 39.8787925,29.6283152 39.9359956,29.7124791 C39.9918295,29.7946536 39.9670313,29.9042196 39.8813788,29.9631342 C39.879401,29.9643584 39.8774232,29.9658887 39.8746848,29.9661947 L39.674626,29.6717744 Z M39.8681429,30.1029992 C39.9478622,30.0480632 39.9916774,30.0091948 40.0202789,29.967572 C40.0828068,29.8746857 40.0800684,29.7588457 40.0132807,29.6607566 C39.9139359,29.5144645 39.7385231,29.4970197 39.567218,29.614849 C39.3959129,29.7326784 39.352402,29.8962623 39.4525075,30.0434724 C39.5342045,30.1637502 39.6583475,30.2001702 39.7859895,30.1432448 L39.7289385,30.059081 C39.6446552,30.083412 39.5766504,30.0609173 39.5311618,29.9938923 C39.4949534,29.9407926 39.4882594,29.8792765 39.5130576,29.8211269 C39.5293362,29.7805752 39.5544386,29.7528777 39.6055563,29.7163047 L39.8681429,30.1029992 Z" id="Fill-29" fill="#000000"></path>
                    <path d="M20.8692513,19.7673749 C19.4461714,19.822464 17.5666837,16.0029564 17.3867068,17.4764355 C17.2158582,18.8766156 17.1682396,18.8634554 17.1682396,20.2292048 C17.1682396,21.1438361 16.7532127,21.2096369 15.8545455,22.5860981 C15.3953992,23.3125085 15.0334677,24.0941609 14.7492777,24.8879023 C14.5743214,25.360444 14.4100145,25.8559394 14.2793297,26.340723 C14.2245608,26.58388 14.1256724,26.8362184 14.0710556,27.0793754 C13.6224066,28.7419936 12.0228491,30.7897761 11.6519416,32.4522412 C11.2793606,34.1039946 10.8262997,35.1610923 10.8962822,37.3752131 C10.9510512,39.1105183 10.9721981,38.9490767 11.6397707,39.4996612 C12.2966938,40.0502457 12.976133,40.5686949 14.0162866,41.4925077 C15.1110571,42.4515162 17.3871633,44.1245401 17.6943258,44.6429893 C18.0229395,45.1707731 18.3091072,46.0095039 17.8145132,46.7458609 C17.3199192,47.4826769 15.3573652,47.3966768 15.3680147,47.3966768 C15.3573652,47.3966768 17.0717854,49.4435411 17.366777,49.7419402 C17.6511192,50.0277911 19.2164461,51.3816046 24.2083315,50.4455498 C27.0211734,49.9163888 29.2002168,48.3319665 30.7768018,46.8011029 C32.8128375,44.8082565 32.9559974,44.1892698 33.3317733,43.0741756 C33.808111,41.6603763 34.0376842,40.5892002 34.1899723,39.9158896 C34.3293288,39.2988922 34.5204116,37.4303022 34.5204116,36.5494895 C34.5204116,34.258397 34.2587377,31.9246105 33.7328037,30.2055261 C33.2508369,28.59815 32.4845281,27.4755575 31.827605,26.0212065 C30.5137588,23.1259708 30.5791772,21.8258692 29.4083388,19.9768664 C28.0734978,17.8403293 28.7302688,16.4196439 26.9557549,16.5080924 C24.744915,16.6291353 22.9599037,19.6786204 20.8692513,19.7673749" id="Fill-31" fill="#FFFFFF"></path>
                    <path d="M26.3218043,26.0334485 C26.3870706,25.7352025 29.4845589,25.2288423 30.0439629,25.3939565 C30.5913481,25.5592236 33.0971796,29.1045102 32.6593323,29.2480477 C32.2335037,29.3918914 31.2802198,27.9266756 29.7704224,27.2216888 C28.2483021,26.5167019 26.2670354,26.3300113 26.3218043,26.0334485" id="Fill-33" fill="#000000"></path>
                    <path d="M19.4222861,32.9165195 C19.7066282,32.9714555 19.2528066,35.0406615 19.2316597,37.1666399 C19.2086872,39.2924652 19.6077398,40.2055662 19.4222861,40.4150576 C19.2351588,40.6245491 18.7531921,39.6228465 18.7760125,37.4970212 C18.7973115,35.3710428 19.1364226,32.8507187 19.4222861,32.9165195" id="Fill-35" fill="#000000"></path>
                    <path d="M20.5741075,25.8010033 C20.7384143,25.8130923 21.9303996,25.5592236 21.9746712,25.6694017 C22.0186385,25.7459143 21.2310306,25.99963 20.9894387,26.2414097 C20.9345176,26.3087408 20.6836454,26.528944 20.5514392,26.5167019 C20.4419013,26.5059902 20.376635,26.285634 20.2231298,26.1096551 C19.8398993,25.7244908 19.5995245,25.7581563 19.6755925,25.6141596 C19.7305136,25.4934228 20.2564476,25.7901386 20.5741075,25.8010033" id="Fill-37" fill="#000000"></path>
                    <path d="M16.6678644,26.1203668 C16.5977297,26.4239687 15.5571197,26.5667412 14.8174346,26.9900087 C14.3661994,27.2483152 14.128563,27.6376111 13.5113474,28.1511635 C12.8941317,28.6645629 15.5772017,22.0169976 15.42537,22.8763868 C15.2735383,23.7360821 14.9821979,24.2100009 15.1353988,24.7266138 C15.4074179,25.6438465 16.7379991,25.8166119 16.6678644,26.1203668" id="Fill-39" fill="#000000"></path>
                    <g id="Group-43" transform="translate(30.579329, 39.314455)">
                        <mask id="mask-2" fill="white">
                            <use xlink:href="#path-1"></use>
                        </mask>
                        <g id="Clip-42"></g>
                        <path d="M12.1305613,0.989812539 C12.8086313,1.98080337 12.1091102,3.26850996 12.6017264,4.06225138 C13.4107855,5.36066973 15.0422916,6.67133009 15.6672661,7.03552993 C16.115763,7.31066914 16.7498657,7.57387239 16.7284145,8.37817254 C16.6950967,9.29280383 16.2464478,9.53443053 15.9957277,9.78829925 C15.4909406,10.2945064 12.951487,11.5609425 11.2653641,12.7172005 C9.14124171,14.180733 8.40825062,14.8306308 7.71800974,15.5252119 C6.64605972,16.6034271 5.62720514,16.9673209 3.99585117,16.9673209 C2.36571429,16.9673209 1.63135397,16.6263808 1.12808819,16.1749567 C0.62467028,15.7347033 0.0667876895,14.6104276 0.121556638,12.9374037 C0.164154708,11.2749385 0.690088746,9.75463372 0.942634451,7.1668255 C1.05217235,6.05509783 1.03984933,4.67863666 1.03984933,3.45657786 C1.03984933,1.91500256 1.06266973,0.604342201 1.39113128,0.405409514 C1.98263592,0.0308039615 2.11347285,0.00938044133 2.81421112,0.00938044133 C3.51525365,0.00938044133 3.83154433,0.0537577331 4.06263886,0.28451965 C4.28156252,0.504875858 4.19332366,1.01108303 4.11755994,1.72678163 C4.05046798,2.44263326 4.39110041,2.6735482 4.73021148,2.97179421 C5.06932255,3.25764517 5.37648507,3.62184502 6.44843509,3.70891632 C7.52190648,3.78711217 7.91563436,3.60960301 8.41890014,3.29131071 C8.92231805,2.97179421 9.63385797,2.39825597 9.89690106,2.06787468 C10.1492946,1.74988843 10.7727478,0.648566468 10.8927831,0.648566468 C11.002321,0.648566468 11.7260318,0.394850779 12.1305613,0.989812539" id="Fill-41" fill="#FFB80F" mask="url(#mask-2)"></path>
                    </g>
                    <g id="Group-46" transform="translate(0.000000, 38.090254)" fill="#FFB80F">
                        <path d="M4.52371734,3.90999136 C3.53848481,4.62584299 1.04330282,4.55851192 0.407678751,5.39647761 C-0.215774442,6.2332191 0.43034701,7.44441312 0.418176132,9.69112828 C0.418176132,10.6486066 0.25417356,11.375017 0.144635664,11.9591139 C-0.0073481672,12.6963891 -0.106236546,13.2148383 0.199252476,13.742469 C0.758960698,14.6783708 1.65595436,14.9094387 6.79069538,15.9893372 C9.53827094,16.5611921 12.1323413,18.0476784 13.8733853,18.191522 C15.6142772,18.3231236 15.9868582,17.7404039 17.0481587,16.7936373 C18.0988097,15.8453405 18.4394421,16.1435865 18.4059722,14.0621385 C18.3725023,11.9914022 17.0481587,11.375017 15.5488587,8.98598842 C14.0481895,6.59558264 13.8078147,6.1553293 12.8120848,4.57075394 C11.8160506,3.00607184 9.84543346,0.166078189 8.71719313,0.132259632 C7.82019947,0.110989137 7.31541233,0.594242542 6.75722547,1.16778078 C6.19934288,1.73978877 5.50894986,3.19429276 4.52371734,3.90999136" id="Fill-44"></path>
                    </g>
                    <path d="M19.1175577,14.5367613 C19.7744808,14.2723338 19.7956277,14.2936043 20.2336272,13.336279 C20.584757,12.5990039 20.7597134,12.2242453 20.7490638,11.1002756 C20.7490638,9.99910669 20.4099528,9.62603138 19.8945161,8.91002674 C19.4018999,8.22646342 18.614292,8.19448116 18.1216757,8.28155247 C17.8373336,8.32577674 17.4647526,8.68997658 17.2125112,9.22831903 C17.0482043,9.59221283 16.9173674,10.0541957 16.9067179,10.5389794 C16.8734001,11.838775 16.9827859,12.3345764 17.2776254,13.2153892 C17.6290594,14.2507573 18.4820858,14.7890997 19.1175577,14.5367613" id="Fill-47" fill="#FFFFFF"></path>
                    <path d="M18.5047541,10.0541957 C18.8332156,10.0541957 19.2483947,10.2742459 19.4461714,10.5724919 C19.6542934,10.8692077 19.8079508,11.2883435 19.8079508,11.7608852 C19.8079508,12.466025 19.7305136,13.2475244 19.3151824,13.4905284 C19.1829762,13.567194 18.8986341,13.6328418 18.7344794,13.6328418 C18.3618984,13.6328418 18.3299498,13.3912151 17.9786679,13.0273213 C17.8586326,12.8957196 17.496549,12.2563806 17.496549,11.7287499 C17.496549,11.3985216 17.4207853,10.9242967 17.7051274,10.5068441 C17.902752,10.1978863 18.1534721,10.0541957 18.5047541,10.0541957" id="Fill-49" fill="#000000"></path>
                    <path d="M25.905256,14.6790747 C27.5474117,14.5032488 28.1281147,13.8652869 28.4231063,12.752029 C28.6861494,11.7608852 28.6966468,10.6597162 27.9639599,9.37200965 C27.2735669,8.13923908 26.8799912,7.94045942 25.8838049,7.86394685 C24.3511871,7.730968 23.6274763,8.81071342 23.2882131,9.58150107 C22.9281073,10.4180895 23.0041753,10.2973527 23.0253222,11.3541443 C23.0481426,12.466025 23.3871015,12.9295382 23.770332,13.622283 C24.1534104,14.3059994 25.719498,14.6913167 25.905256,14.6790747" id="Fill-51" fill="#FFFFFF"></path>
                    <path d="M25.7744191,10.0113487 C26.5954969,10.0113487 27.0759423,10.7484708 27.240097,11.6952374 C27.3070368,12.124779 27.2083006,12.6202744 26.9451054,12.9615204 C26.6501137,13.3575495 26.1240276,13.6008595 25.6968298,13.6008595 C25.2924524,13.6008595 24.8317847,13.6665073 24.5914098,13.336279 C24.351035,12.995033 24.2964182,12.2351101 24.2964182,11.6952374 C24.2964182,11.0895639 24.4713746,10.6597162 24.7770157,10.3187762 C25.0079581,10.0664377 25.4231372,10.0113487 25.7744191,10.0113487" id="Fill-53" fill="#000000"></path>
                    <path d="M25.9492233,10.5282676 C26.0359408,10.4395131 26.2230681,10.5282676 26.4313422,10.7591826 C26.6501137,11.0024926 26.6501137,11.199742 26.4739403,11.3327208 C26.3096334,11.4750342 26.244215,11.1232294 26.1346771,10.9900975 C25.9385738,10.7928481 25.7744191,10.6933818 25.9492233,10.5282676" id="Fill-55" fill="#FFFFFF"></path>
                    <path d="M18.5794528,10.6323247 C18.6416764,10.5117409 18.9470133,10.5421929 19.0813494,10.7688232 C19.2147726,11.0035637 19.237593,11.5435895 19.165937,11.5668493 C18.9759192,11.6406074 18.989155,11.3186425 18.8151114,11.1045603 C18.6503482,10.8886418 18.5169249,10.7610189 18.5794528,10.6323247" id="Fill-57" fill="#FFFFFF"></path>
                    <path d="M26.5214067,7.19446185 C26.5267315,7.28321643 27.0044384,7.37089984 27.2022152,7.44297468 C27.3999919,7.5148965 27.8627895,7.91888288 28.0438313,8.12868035 C28.2248731,8.3383248 28.559268,9.01974576 28.6694144,8.98990586 C28.7800173,8.95975991 28.5375125,8.50099053 28.362404,8.24696879 C28.1872955,7.9932531 27.6453872,7.41405293 27.3003429,7.27097442 C26.9549942,7.12804893 26.5159298,7.10616634 26.5214067,7.19446185" id="Fill-59" fill="#FFFFFF"></path>
                    <path d="M19.0274932,7.5398396 C19.0341872,7.69837364 19.5439949,7.64909955 20.0728195,8.10802196 C20.6130543,8.576891 20.673148,8.99434359 20.8383677,8.978582 C21.0038916,8.96282041 20.7524108,8.44712567 20.2003094,7.95438471 C19.767939,7.56830227 19.0211035,7.3816116 19.0274932,7.5398396" id="Fill-61" fill="#FFFFFF"></path>
                    <path d="M21.6249106,12.2136866 C22.423168,12.1142202 23.5179384,12.3114696 24.0227256,12.6862282 C24.4925215,13.0395633 24.820983,13.2261009 25.2483329,13.3697915 C26.6822144,13.8424862 28.5661141,14.0626894 28.4778752,15.362638 C28.3789869,16.9150781 27.9303379,17.6093531 26.6501137,18.016247 C25.6209139,18.3357635 23.7809815,20.1298303 22.3577496,20.1298303 C21.7236469,20.1298303 20.8357814,20.1634958 20.3218661,19.9768052 C19.8292498,19.799449 19.1387046,18.9628605 18.3299498,18.2915392 C17.5195215,17.6307767 16.7638622,16.9256368 16.742411,16.0002938 C16.7090932,15.0215449 17.3447173,14.7018754 18.2418631,13.920529 C18.7131803,13.5013932 19.5662067,12.8071181 20.1577113,12.4995375 C20.7050966,12.2242453 21.054705,12.2794874 21.6249106,12.2136866" id="Fill-63" fill="#FFB80F"></path>
                    <path d="M19.0293189,17.5387167 C18.7758604,17.4465956 18.5260531,17.3004566 18.4271647,17.211702 C18.0775563,16.9904277 17.4574501,16.3919463 17.2458289,16.2543767 C17.1804105,16.2329532 16.9983037,16.2464194 17.0375548,16.3751135 C17.1477012,16.7360999 17.3819906,16.9515593 17.693413,17.2029796 C18.0737529,17.509948 18.5423316,17.8144681 18.9521859,18.021052 C19.1933215,18.14286 19.7956277,18.2808887 19.7956277,18.2808887 C20.3749615,18.3574013 20.9133707,18.3358247 21.2629791,18.3358247 C22.084057,18.3358247 23.1027594,17.9948847 24.1748616,17.4764355 C25.2268818,16.9488048 25.4779061,16.7391604 26.2230681,16.3094658 C26.9451054,15.9025719 27.8545742,15.373411 27.53661,15.2190086 C27.218798,15.0538945 26.9011381,15.2846564 25.8609845,15.9132837 C24.8546051,16.5296689 24.164212,16.9151393 23.1576805,17.3555456 C22.6968606,17.5543253 22.084057,17.796105 21.6249106,17.8296175 C21.1870633,17.8619058 20.6168577,17.8510411 20.2777466,17.8510411 C19.8840187,17.8510411 19.4437373,17.6889874 19.0293189,17.5387167" id="Fill-65" fill="#000000"></path>
                    <path d="M22.2711842,12.9722322 C22.3912195,13.2153892 22.6968606,13.2475244 22.9052869,13.3697915 C23.1027594,13.4799696 23.2124494,13.5013932 23.2882131,13.4570159 C23.4631695,13.3697915 23.3324847,13.050275 23.1576805,12.9400969 C22.9933736,12.8300719 22.2042444,12.8071181 22.2711842,12.9722322" id="Fill-67" fill="#000000"></path>
                    <path d="M19.8627197,13.336279 C19.8292498,13.4355923 20.1027903,13.622283 20.2336272,13.4905284 C20.3871324,13.3697915 20.5620887,13.2475244 20.6290286,13.2046774 C20.9027212,13.0273213 20.7931833,12.9065844 20.355336,12.9722322 C19.9051656,13.0608338 19.9051656,13.2368127 19.8627197,13.336279" id="Fill-69" fill="#000000"></path>
                    <path d="M37.7189181,34.1287847 C37.557654,35.2908577 37.4700237,35.7324882 37.2366471,36.5087848 C37.0388704,37.167711 36.757571,37.8275555 36.6799816,38.0266412 C36.6487938,38.1065203 36.811275,38.0951964 36.8812575,37.995118 C36.9512401,37.8950396 37.0029663,37.7967974 37.0832941,37.6156156 C37.4137334,36.8706892 38.2017977,34.4599311 37.9080232,32.4351024 C37.6495441,30.6534307 36.993686,29.1716882 35.5811035,27.6720418 C35.1610561,27.2262795 33.7563847,26.352812 33.6578006,26.5246593 C33.583254,26.6545776 34.8475039,26.9401225 36.1692612,28.7113886 C37.3588123,30.3046864 37.9556417,32.4246967 37.7189181,34.1287847" id="Fill-71" fill="#FFFFFF"></path>
                    <path d="M35.7263934,38.2165454 C36.1094718,37.9680325 36.9915561,37.879278 37.5485259,37.9078937 C38.1053435,37.9368154 38.7364035,38.0327622 38.7364035,38.0327622 C38.7364035,38.0327622 39.2968724,38.1160079 39.8080492,38.323969 C40.3195304,38.5319302 40.9729543,38.9238276 41.0030773,39.3141947 C41.0333523,39.7045619 40.805909,39.5568926 40.579835,39.2098316 C40.353761,38.8624645 39.9183478,38.5998734 39.3817643,38.4188446 C38.8450286,38.2378159 38.0642668,38.159314 37.751171,38.1401858 C37.4380751,38.1209047 36.6402741,38.1179972 36.1782372,38.2681149 C35.7162003,38.4182325 35.4768904,38.774016 35.2585753,38.8206887 C35.040108,38.8670553 35.3430107,38.4652112 35.7263934,38.2165454" id="Fill-73" fill="#FFFFFF"></path>
                    <path d="M9.6861471,34.4961981 C9.57736989,35.7324882 9.75232625,36.7562264 10.1008697,37.4680994 C10.4810575,38.2453141 11.6625454,39.2623192 11.5846518,39.3415862 C11.4177587,39.5112911 10.0874818,37.9672674 9.82474297,37.3871491 C9.4704183,36.6048846 9.31021913,35.6807657 9.45566111,34.3720947 C9.65450282,32.5829247 10.2513322,31.1686663 10.9519183,29.6690199 C11.2114623,29.1132326 11.974272,27.6852019 12.1035876,27.8350136 C12.2671338,28.0247647 11.6599591,28.4674665 10.8423805,30.4476118 C10.0826134,32.2874332 9.81089859,33.0784201 9.6861471,34.4961981" id="Fill-75" fill="#FFFFFF"></path>
                    <path d="M26.4313422,2.95153368 C26.2989839,3.10608907 26.1454787,4.42746119 26.485959,4.56044004 C26.8144206,4.70275342 27.9851068,4.13074544 27.9411395,3.82178767 C27.8757211,3.37066955 27.3937543,2.80952634 27.1976511,2.78641955 C26.9998743,2.77570779 26.5513775,2.77570779 26.4313422,2.95153368" id="Fill-77" fill="#FFFFFF"></path>
                    <path d="M30.2294166,16.8049612 C30.1306804,16.9151393 30.3054846,17.8847066 30.9304592,18.5223624 C31.5432628,19.1387476 31.9263412,19.1387476 32.1787348,18.8634554 C32.6593323,18.3465365 32.2761018,17.8619058 31.980958,17.5206598 C31.6861185,17.1795667 31.302888,17.3004566 30.9517582,16.9593635 C30.6126471,16.6184235 30.3725766,16.639847 30.2294166,16.8049612" id="Fill-79" fill="#FFFFFF"></path>
                </g>
            </g>
        </g>
    </g>
</svg>