<?xml version="1.0" encoding="UTF-8" standalone="no"?>
<svg width="182px" height="31px" viewBox="0 0 182 31" version="1.1" xmlns="http://www.w3.org/2000/svg" xmlns:xlink="http://www.w3.org/1999/xlink">
    <!-- Generator: Sketch 39.1 (31720) - http://www.bohemiancoding.com/sketch -->
    <title>logo</title>
    <desc>Created with Sketch.</desc>
    <defs>
        <polygon id="path-1" points="14.5656994 14.8328357 14.5656994 0.0619865331 0.0369612081 0.0619865331 0.0369612081 14.8328357 14.5656994 14.8328357"></polygon>
        <polygon id="path-3" points="29.8163651 30.3312745 0 30.3312745 0 0.0181746922 29.8163651 0.0181746922 29.8163651 30.3312745"></polygon>
    </defs>
    <g id="Main-Page" stroke="none" stroke-width="1" fill="none" fill-rule="evenodd">
        <g id="Mobile-Portrait" transform="translate(-30.000000, -20.000000)">
            <g id="logo" transform="translate(30.000000, 20.000000)">
                <path d="M47.8342319,15.2527795 C47.8342319,12.7813824 45.8373558,10.7802405 43.4347589,10.7802405 C41.0038669,10.7802405 39.0358779,12.7813824 39.0358779,15.2527795 C39.0358779,17.6950489 41.0038669,19.7253185 43.4347589,19.7253185 C45.8373558,19.7253185 47.8342319,17.6950489 47.8342319,15.2527795 L47.8342319,15.2527795 Z M50.6991399,22.6382041 C50.6991399,26.6986229 47.4286294,30.0236287 43.4347589,30.0236287 C40.6277434,30.0236287 38.138367,28.4346069 36.8942115,25.8747436 C36.5470934,25.1393306 36.8364374,24.2859626 37.559679,23.9326995 C38.2546255,23.5797976 39.1226574,23.8739628 39.4698939,24.5801278 C40.2226145,26.1396608 41.7272269,27.1107431 43.4347589,27.1107431 C45.8373558,27.1107431 47.7763394,25.1393306 47.8342319,22.7264296 L47.8342319,21.1080394 C46.5896028,22.0496329 45.0845169,22.6382041 43.4347589,22.6382041 C39.4120014,22.6382041 36.170378,19.3131983 36.170378,15.2527795 C36.170378,11.1629923 39.4120014,7.86735486 43.4347589,7.86735486 C47.4286294,7.86735486 50.6991399,11.1629923 50.6991399,15.2527795 L50.6991399,22.6382041 Z" id="Fill-1" fill="#FEFEFE"></path>
                <path d="M55.5615395,15.2527795 C55.5615395,17.6950489 57.5295285,19.7253185 59.9604205,19.7253185 C62.3919045,19.7253185 64.3598935,17.6950489 64.3598935,15.2527795 C64.3598935,12.7813824 62.3919045,10.7802405 59.9604205,10.7802405 C57.5295285,10.7802405 55.5615395,12.7813824 55.5615395,15.2527795 M52.6960396,15.2527795 C52.6960396,11.1629923 55.9665501,7.86735486 59.9604205,7.86735486 C63.98377,7.86735486 67.2248015,11.1629923 67.2248015,15.2527795 C67.2248015,19.3131983 63.98377,22.6382041 59.9604205,22.6382041 C55.9665501,22.6382041 52.6960396,19.3131983 52.6960396,15.2527795" id="Fill-3" fill="#FEFEFE"></path>
                <path d="M80.8282901,15.1939464 C80.8282901,12.7221883 78.8603011,10.7214074 76.4288171,10.7214074 C73.9979251,10.7214074 72.0299361,12.7221883 72.0299361,15.164578 L72.0299361,15.1939464 C72.0299361,17.6657046 73.9979251,19.6664854 76.4288171,19.6664854 C78.8603011,19.6664854 80.8282901,17.6362158 80.8282901,15.1939464 M83.6931981,15.1939464 C83.6931981,19.2543652 80.4521666,22.579371 76.4288171,22.579371 C72.4349467,22.579371 69.1644362,19.2543652 69.1644362,15.1939464 L69.1644362,15.164578 L69.1644362,1.98263024 C69.1644362,1.18811935 69.8014902,0.541052163 70.6116297,0.541052163 C71.3933557,0.541052163 72.0299361,1.18811935 72.0299361,1.98263024 L72.0299361,9.30919773 C73.2456781,8.3677246 74.7796511,7.80852181 76.4288171,7.80852181 C80.4521666,7.80852181 83.6931981,11.1041592 83.6931981,15.1939464" id="Fill-5" fill="#FEFEFE"></path>
                <path d="M88.7592158,13.7817367 L97.1230803,13.7817367 C96.5155052,11.721858 94.6631828,10.7802645 92.9266453,10.7802645 C90.9876618,10.7802645 89.3667909,12.0456323 88.7592158,13.7817367 M100.191026,15.2528035 C100.191026,16.0473144 99.5545642,16.6946223 98.7438328,16.6946223 L88.7592158,16.6946223 C89.3667909,18.4600951 90.9876618,19.7252222 92.9266453,19.7252222 C93.5921128,19.7252222 94.7789678,19.6664854 96.1682688,18.7542603 C96.8337363,18.3127718 97.7312472,18.7248919 98.0783653,19.431057 C98.4256018,20.16647 98.0494783,20.9316125 97.3834188,21.3731011 C95.4733223,22.6675965 93.9977153,22.6382281 92.9266453,22.6382281 C88.9038878,22.6382281 85.6622644,19.3132224 85.6622644,15.2528035 C85.6622644,11.1630163 88.9038878,7.86737893 92.9266453,7.86737893 C96.4286073,7.86737893 100.191026,10.4567309 100.191026,15.2528035" id="Fill-7" fill="#FEFEFE"></path>
                <path d="M110.407687,9.33866239 C110.407687,10.1331733 109.771106,10.8097292 108.961085,10.8097292 L106.905725,10.8097292 L106.905725,21.1962649 C106.905725,21.9907758 106.269144,22.6675724 105.459005,22.6675724 C104.677279,22.6675724 104.040817,21.9907758 104.040817,21.1962649 L104.040817,10.8097292 L101.957043,10.8097292 C101.175317,10.8097292 100.538736,10.1331733 100.538736,9.33866239 C100.538736,8.54415151 101.175317,7.89672323 101.957043,7.89672323 L104.040817,7.89672323 L104.040817,2.0120949 C104.040817,1.21758402 104.677279,0.570396467 105.459005,0.570396467 C106.269144,0.570396467 106.905725,1.21758402 106.905725,2.0120949 L106.905725,7.89672323 L108.961085,7.89672323 C109.771106,7.89672323 110.407687,8.54415151 110.407687,9.33866239" id="Fill-9" fill="#FEFEFE"></path>
                <path d="M132.751104,9.89755223 L128.410115,21.66717 C128.178072,22.2263728 127.628271,22.6382522 127.020696,22.6382522 C126.413121,22.6382522 125.862847,22.2557411 125.660282,21.66717 L122.650702,13.5167232 L119.669536,21.66717 C119.438084,22.2263728 118.88781,22.6382522 118.280235,22.6382522 C117.67266,22.6382522 117.122859,22.2557411 116.919821,21.66717 L112.578714,9.89755223 C112.289488,9.13277081 112.665612,8.27940281 113.418332,8.01448561 C114.141692,7.72032039 114.980719,8.10295183 115.241649,8.86773325 L118.280235,17.0770371 L121.290288,8.92659036 C121.43496,8.51471092 121.724304,8.16180894 122.15832,8.01448561 C122.302992,7.9556285 122.447664,7.92613976 122.592336,7.92613976 L122.650702,7.92613976 L122.679708,7.92613976 L122.737482,7.92613976 L122.766487,7.92613976 L122.795374,7.92613976 L122.82438,7.92613976 L122.853267,7.92613976 L122.911159,7.92613976 C122.911159,7.92613976 122.911159,7.9556285 122.940046,7.9556285 L122.969052,7.9556285 L122.997939,7.9556285 C123.026826,7.9556285 123.026826,7.9556285 123.055831,7.98499687 L123.113724,7.98499687 C123.142611,8.01448561 123.142611,8.01448561 123.171498,8.01448561 C123.576627,8.16180894 123.894858,8.51471092 124.010643,8.92659036 L127.020696,17.0770371 L130.059755,8.86773325 C130.349099,8.10295183 131.159239,7.72032039 131.912077,8.01448561 C132.635319,8.27940281 133.011443,9.13277081 132.751104,9.89755223" id="Fill-11" fill="#FEFEFE"></path>
                <path d="M136.716573,13.7817367 L145.080437,13.7817367 C144.472862,11.721858 142.62054,10.7802645 140.884002,10.7802645 C138.945019,10.7802645 137.324148,12.0456323 136.716573,13.7817367 M148.148383,15.2528035 C148.148383,16.0473144 147.511921,16.6946223 146.70119,16.6946223 L136.716573,16.6946223 C137.324148,18.4600951 138.945019,19.7252222 140.884002,19.7252222 C141.54947,19.7252222 142.736325,19.6664854 144.125626,18.7542603 C144.791093,18.3127718 145.688486,18.7248919 146.035722,19.431057 C146.382959,20.16647 146.006835,20.9316125 145.340776,21.3731011 C143.430679,22.6675965 141.955072,22.6382281 140.884002,22.6382281 C136.861245,22.6382281 133.619621,19.3132224 133.619621,15.2528035 C133.619621,11.1630163 136.861245,7.86737893 140.884002,7.86737893 C144.385964,7.86737893 148.148383,10.4567309 148.148383,15.2528035" id="Fill-13" fill="#FEFEFE"></path>
                <path d="M153.271725,13.7817367 L161.63559,13.7817367 C161.028015,11.721858 159.175692,10.7802645 157.439155,10.7802645 C155.500171,10.7802645 153.8793,12.0456323 153.271725,13.7817367 M164.703536,15.2528035 C164.703536,16.0473144 164.067074,16.6946223 163.256342,16.6946223 L153.271725,16.6946223 C153.8793,18.4600951 155.500171,19.7252222 157.439155,19.7252222 C158.104622,19.7252222 159.291477,19.6664854 160.680778,18.7542603 C161.346246,18.3127718 162.243757,18.7248919 162.590875,19.431057 C162.938111,20.16647 162.561988,20.9316125 161.895928,21.3731011 C159.985832,22.6675965 158.510225,22.6382281 157.439155,22.6382281 C153.416397,22.6382281 150.174774,19.3132224 150.174774,15.2528035 C150.174774,11.1630163 153.416397,7.86737893 157.439155,7.86737893 C160.941117,7.86737893 164.703536,10.4567309 164.703536,15.2528035" id="Fill-15" fill="#FEFEFE"></path>
                <g id="Group-19" transform="translate(166.692444, 7.805368)">
                    <mask id="mask-2" fill="white">
                        <use xlink:href="#path-1"></use>
                    </mask>
                    <g id="Clip-18"></g>
                    <path d="M14.5657231,7.44741114 L14.5657231,13.3615282 C14.5657231,14.1854075 13.929261,14.8328357 13.1185296,14.8328357 C12.3372772,14.8328357 11.7008151,14.1854075 11.7008151,13.3615282 L11.7008151,7.44741114 C11.7008151,4.97601408 9.73282611,2.97487214 7.30134215,2.97487214 C4.87045014,2.97487214 2.90246115,4.97601408 2.90246115,7.44741114 L2.90246115,13.3615282 C2.90246115,14.1854075 2.2658807,14.8328357 1.45526766,14.8328357 C0.674015215,14.8328357 0.0369612081,14.1854075 0.0369612081,13.3615282 L0.0369612081,7.44741114 C0.0369612081,3.35762394 3.3074717,0.0619865331 7.30134215,0.0619865331 C11.2952126,0.0619865331 14.5657231,3.35762394 14.5657231,7.44741114" id="Fill-17" fill="#FEFEFE" mask="url(#mask-2)"></path>
                </g>
                <path d="M20.0527814,14.1491303 L12.2140929,14.1491303 C11.4421932,14.1491303 10.816623,13.5131364 10.816623,12.7283749 C10.816623,11.943493 11.4421932,11.3074991 12.2140929,11.3074991 L19.3049148,11.3074991 L20.5083442,9.47269774 C20.9363224,8.81997353 21.8037624,8.64352254 22.4462623,9.0786319 C23.0885254,9.51374125 23.2622029,10.3962369 22.8338696,11.0488408 L21.2156032,13.5163862 C20.9562118,13.9115353 20.5200648,14.1491303 20.0527814,14.1491303" id="Fill-20" fill="#FEFEFE"></path>
                <path d="M8.14383749,21.7138103 C7.87746107,21.7138103 7.60836169,21.6366582 7.37004359,21.4751321 C6.72778045,21.0400227 6.55410302,20.1575271 6.9824363,19.5049232 L8.60070265,17.036776 C8.85973892,16.6416269 9.29624108,16.4041522 9.76352452,16.4041522 L17.602213,16.4041522 C18.3741127,16.4041522 18.9996829,17.0401461 18.9996829,17.8249076 C18.9996829,18.6096692 18.3741127,19.2456631 17.602213,19.2456631 L10.5113911,19.2456631 L9.30796164,21.0810663 C9.03886226,21.4918624 8.5956119,21.7138103 8.14383749,21.7138103" id="Fill-22" fill="#FEFEFE"></path>
                <g id="Group-26" transform="translate(0.000000, 0.102188)">
                    <mask id="mask-4" fill="white">
                        <use xlink:href="#path-3"></use>
                    </mask>
                    <g id="Clip-25"></g>
                    <path d="M14.9081648,2.8597457 C8.22898324,2.8597457 2.79502266,8.38425033 2.79502266,15.1747246 C2.79502266,21.9651988 8.22898324,27.4897035 14.9081648,27.4897035 C21.5873463,27.4897035 27.0213069,21.9651988 27.0213069,15.1747246 C27.0213069,8.38425033 21.5873463,2.8597457 14.9081648,2.8597457 M14.9081648,30.3313346 C6.68790686,30.3313346 -3.55168568e-05,23.5319536 -3.55168568e-05,15.1747246 C-3.55168568e-05,6.81749557 6.68790686,0.0181145111 14.9081648,0.0181145111 C23.1284227,0.0181145111 29.8163651,6.81749557 29.8163651,15.1747246 C29.8163651,23.5319536 23.1284227,30.3313346 14.9081648,30.3313346" id="Fill-24" fill="#FEFEFE" mask="url(#mask-4)"></path>
                </g>
            </g>
        </g>
    </g>
</svg>