<?xml version="1.0" encoding="UTF-8" standalone="no"?>
<svg width="73px" height="73px" viewBox="0 0 73 73" version="1.1" xmlns="http://www.w3.org/2000/svg" xmlns:xlink="http://www.w3.org/1999/xlink">
    <!-- Generator: Sketch 39.1 (31720) - http://www.bohemiancoding.com/sketch -->
    <title>Multi-Platform</title>
    <desc>Created with Sketch.</desc>
    <defs>
        <linearGradient x1="50%" y1="44.2022405%" x2="50%" y2="100%" id="linearGradient-1">
            <stop stop-color="#1D96DE" offset="0%"></stop>
            <stop stop-color="#0B6CBF" offset="100%"></stop>
        </linearGradient>
        <polygon id="path-2" points="2 72.0305 73.03 72.0305 73.03 1.0005 2 1.0005"></polygon>
        <linearGradient x1="50%" y1="5.83025378%" x2="50%" y2="100%" id="linearGradient-4">
            <stop stop-color="#1D96DD" offset="0%"></stop>
            <stop stop-color="#0C6DBF" offset="100%"></stop>
        </linearGradient>
        <path d="M21.461,51.7225 L46.685,51.7225 L46.685,33.8735 L21.461,33.8735 L21.461,51.7225 Z M23.028,30.1705 C23.611,30.1705 24.082,30.6395 24.082,31.2225 C24.082,31.8015 23.613,32.2735 23.028,32.2735 C22.452,32.2735 21.982,31.8015 21.982,31.2225 C21.982,30.6395 22.452,30.1705 23.028,30.1705 L23.028,30.1705 Z M26.191,30.1705 C26.768,30.1705 27.238,30.6395 27.238,31.2225 C27.238,31.8015 26.768,32.2735 26.191,32.2735 C25.605,32.2735 25.133,31.8015 25.133,31.2225 C25.133,30.6395 25.604,30.1705 26.191,30.1705 L26.191,30.1705 Z M29.403,30.1705 C29.985,30.1705 30.453,30.6395 30.453,31.2225 C30.453,31.8015 29.985,32.2735 29.403,32.2735 C28.825,32.2735 28.356,31.8015 28.356,31.2225 C28.356,30.6395 28.826,30.1705 29.403,30.1705 L29.403,30.1705 Z M46.685,28.5915 L21.461,28.5915 C20.295,28.5915 19.35,29.5305 19.35,30.6915 L19.35,51.7225 C19.35,52.8805 20.295,53.8255 21.461,53.8255 L46.685,53.8255 C47.843,53.8255 48.788,52.8795 48.788,51.7225 L48.788,30.6915 C48.788,29.5305 47.843,28.5915 46.685,28.5915 L46.685,28.5915 Z" id="path-5"></path>
        <path d="M36.2993,22.8857 C35.7153,22.8857 35.2423,22.4197 35.2423,21.8367 C35.2423,21.2497 35.7143,20.7857 36.2993,20.7857 C36.8733,20.7857 37.3423,21.2487 37.3423,21.8367 C37.3423,22.4197 36.8733,22.8857 36.2993,22.8857 M33.0773,22.8857 C32.4933,22.8857 32.0263,22.4197 32.0263,21.8367 C32.0263,21.2497 32.4923,20.7857 33.0773,20.7857 C33.6583,20.7857 34.1303,21.2487 34.1303,21.8367 C34.1293,22.4197 33.6573,22.8857 33.0773,22.8857 M29.9233,22.8857 C29.3423,22.8857 28.8743,22.4197 28.8743,21.8367 C28.8743,21.2497 29.3423,20.7857 29.9233,20.7857 C30.5023,20.7857 30.9743,21.2487 30.9743,21.8367 C30.9743,22.4197 30.5013,22.8857 29.9233,22.8857 M53.5753,19.2047 L28.3483,19.2047 C27.1833,19.2047 26.2453,20.1447 26.2453,21.3077 L26.2453,27.4027 L28.3483,27.4027 L28.3483,24.4867 L53.5753,24.4867 L53.5753,42.3357 L49.9133,42.3357 L49.9133,44.4387 L53.5753,44.4387 C54.7343,44.4387 55.6803,43.4937 55.6803,42.3357 L55.6803,21.3077 C55.6803,20.1447 54.7343,19.2047 53.5753,19.2047" id="path-6"></path>
        <path d="M37.9896,41.9526 L32.0156,41.9526 C31.4276,41.9526 30.9506,41.4756 30.9506,40.8876 C30.9506,40.2996 31.4276,39.8226 32.0156,39.8226 L37.4196,39.8226 L38.3366,38.4476 C38.6626,37.9576 39.3236,37.8256 39.8136,38.1516 C40.3036,38.4776 40.4356,39.1396 40.1086,39.6286 L38.8756,41.4786 C38.6786,41.7746 38.3456,41.9526 37.9896,41.9526" id="path-7"></path>
        <path d="M28.9139,47.623 C28.7109,47.623 28.5059,47.565 28.3239,47.444 C27.8349,47.118 27.7029,46.456 28.0289,45.967 L29.2619,44.117 C29.4599,43.821 29.7919,43.643 30.1479,43.643 L36.1219,43.643 C36.7099,43.643 37.1869,44.12 37.1869,44.708 C37.1869,45.296 36.7099,45.773 36.1219,45.773 L30.7179,45.773 L29.8009,47.149 C29.5959,47.457 29.2579,47.623 28.9139,47.623" id="path-8"></path>
    </defs>
    <g id="Main-Page" stroke="none" stroke-width="1" fill="none" fill-rule="evenodd">
        <g id="Mobile-Portrait" transform="translate(-123.000000, -2209.000000)">
            <g id="Multi-Platform" transform="translate(123.000000, 2209.000000)">
                <path d="M36.516,69.5302 C18.2822229,69.5302 3.5,54.7485687 3.5,36.5152 C3.5,18.2818313 18.2822229,3.5002 36.516,3.5002 C54.7495729,3.5002 69.531,18.2816271 69.531,36.5152 C69.531,54.7487729 54.7495729,69.5302 36.516,69.5302 Z M36.516,0.5002 C16.6253956,0.5002 0.5,16.6249502 0.5,36.5152 C0.5,56.4054498 16.6253956,72.5302 36.516,72.5302 C56.4064271,72.5302 72.531,56.4056271 72.531,36.5152 C72.531,16.6247729 56.4064271,0.5002 36.516,0.5002 Z" id="Stroke-1" fill="url(#linearGradient-1)"></path>
                <mask id="mask-3" fill="white">
                    <use xlink:href="#path-2"></use>
                </mask>
                <g id="Clip-4"></g>
                <g id="Fill-3" mask="url(#mask-3)">
                    <use fill="#1F5B8C" xlink:href="#path-5"></use>
                    <use fill="url(#linearGradient-4)" xlink:href="#path-5"></use>
                </g>
                <g id="Fill-5" mask="url(#mask-3)">
                    <use fill="#1F5B8C" xlink:href="#path-6"></use>
                    <use fill="url(#linearGradient-4)" xlink:href="#path-6"></use>
                </g>
                <g id="Fill-6" mask="url(#mask-3)">
                    <use fill="#1F5B8C" xlink:href="#path-7"></use>
                    <use fill="url(#linearGradient-4)" xlink:href="#path-7"></use>
                </g>
                <g id="Fill-7" mask="url(#mask-3)">
                    <use fill="#1F5B8C" xlink:href="#path-8"></use>
                    <use fill="url(#linearGradient-4)" xlink:href="#path-8"></use>
                </g>
            </g>
        </g>
    </g>
</svg>