<?xml version="1.0" encoding="UTF-8" standalone="no"?>
<svg width="46px" height="39px" viewBox="0 0 46 39" version="1.1" xmlns="http://www.w3.org/2000/svg" xmlns:xlink="http://www.w3.org/1999/xlink">
    <!-- Generator: Sketch 39.1 (31720) - http://www.bohemiancoding.com/sketch -->
    <title>Source_code</title>
    <desc>Created with Sketch.</desc>
    <defs>
        <polygon id="path-1" points="0 38.8152727 45.2216316 38.8152727 45.2216316 -0.000484848485 0 -0.000484848485"></polygon>
    </defs>
    <g id="Downloads" stroke="none" stroke-width="1" fill="none" fill-rule="evenodd">
        <g id="Downloads_desctop" transform="translate(-1361.000000, -379.000000)">
            <g id="Group" transform="translate(388.000000, 361.000000)">
                <g id="Source_code" transform="translate(973.000000, 18.000000)">
                    <path d="M12.5311263,27.9247273 C12.1522316,27.9247273 11.7745474,27.762303 11.5033895,27.4374545 C11.0167579,26.8956364 11.1257053,26.0289697 11.6123368,25.541697 L14.8020737,22.3477576 C15.0732316,22.0762424 15.0732316,21.5889697 14.8020737,21.3186667 L11.6123368,18.1235152 C11.1257053,17.6362424 11.0167579,16.8241212 11.4501263,16.282303 C11.9900211,15.6326061 12.9100211,15.6326061 13.4499158,16.1744242 L18.2097053,20.9392727 C18.4796526,21.2107879 18.5873895,21.5356364 18.5873895,21.9138182 C18.5873895,22.2932121 18.4251789,22.6180606 18.2097053,22.8883636 L13.5043895,27.5453333 C13.2344421,27.762303 12.8555474,27.9247273 12.5311263,27.9247273 L12.5311263,27.9247273 Z" id="Fill-1" fill="#0C6DBF"></path>
                    <path d="M18.6848368,27.0167273 C18.6303632,26.864 18.5758895,26.7112727 18.5904158,26.5900606 C18.6085737,25.8361212 19.1932579,25.224 19.9462053,25.2421818 L28.4053632,25.2191515 C29.1583105,25.2373333 29.7696263,25.824 29.7514684,26.5779394 C29.7345211,27.3318788 29.1486263,27.944 28.3956789,27.9258182 L19.9873632,27.9306667 C19.4051,27.9088485 18.8845737,27.5779394 18.6848368,27.0167273" id="Fill-3" fill="#0C6DBF"></path>
                    <mask id="mask-2" fill="white">
                        <use xlink:href="#path-1"></use>
                    </mask>
                    <g id="Clip-6"></g>
                    <path d="M3.24421053,35.5801212 L41.9919474,35.5801212 L41.9919474,8.12557576 L3.24421053,8.12557576 L3.24421053,35.5801212 Z M41.9919474,-0.000484848485 L3.24421053,-0.000484848485 C1.45263158,-0.000484848485 0,1.44557576 0,3.22981818 L0,35.5801212 C0,37.3607273 1.45263158,38.8152727 3.24421053,38.8152727 L41.9919474,38.8152727 C43.7702105,38.8152727 45.2216316,37.3607273 45.2216316,35.5801212 L45.2216316,3.22981818 C45.2216316,1.44557576 43.7702105,-0.000484848485 41.9919474,-0.000484848485 L41.9919474,-0.000484848485 Z" id="Fill-5" fill="#0C6DBF" mask="url(#mask-2)"></path>
                </g>
            </g>
        </g>
    </g>
</svg>