<?xml version="1.0" encoding="UTF-8" standalone="no"?>
<svg width="48px" height="48px" viewBox="0 0 48 48" version="1.1" xmlns="http://www.w3.org/2000/svg" xmlns:xlink="http://www.w3.org/1999/xlink">
    <!-- Generator: Sketch 39.1 (31720) - http://www.bohemiancoding.com/sketch -->
    <title>Win_logo</title>
    <desc>Created with Sketch.</desc>
    <defs></defs>
    <g id="Downloads" stroke="none" stroke-width="1" fill="none" fill-rule="evenodd">
        <g id="Downloads_desctop" transform="translate(-617.000000, -371.000000)" fill="#3172B8">
            <g id="Group" transform="translate(388.000000, 361.000000)">
                <g id="Win_logo" transform="translate(229.000000, 10.000000)">
                    <path d="M21.8181818,3.74727273 C30.4090909,2.43272727 39.0163636,1.19454545 47.6236364,0 C47.6290909,7.54363636 47.6236364,15.0818182 47.6290909,22.6254545 C39.0272727,22.6581818 30.4254545,22.7890909 21.8181818,22.8163636 C21.8127273,16.4563636 21.8127273,10.1018182 21.8181818,3.74727273 L21.8181818,3.74727273 Z" id="Fill-1"></path>
                    <path d="M0,6.79090909 C6.46909091,5.79272727 12.9654545,4.93090909 19.4618182,4.11818182 C19.4672727,10.3745455 19.4672727,16.6254545 19.4727273,22.8818182 C12.9818182,22.8763636 6.49090909,22.9745455 0,22.9581818 L0,6.79090909 Z" id="Fill-3"></path>
                    <path d="M0,24.9272727 C6.48545455,24.9054545 12.9709091,25.0090909 19.4563636,24.9981818 C19.4563636,31.2709091 19.4727273,37.5436364 19.4618182,43.8163636 C12.9818182,42.8563636 6.49090909,42.0163636 0,41.1381818 L0,24.9272727 Z" id="Fill-5"></path>
                    <path d="M21.78,25.1781818 L47.6236364,25.1781818 C47.6345455,32.7 47.6236364,40.2218182 47.6236364,47.7490909 C39.0327273,46.4618182 30.4254545,45.2672727 21.8181818,44.1 C21.8072727,37.7945455 21.7909091,31.4890909 21.78,25.1781818" id="Fill-7"></path>
                </g>
            </g>
        </g>
    </g>
</svg>